<svg xmlns="http://www.w3.org/2000/svg" xmlns:xlink="http://www.w3.org/1999/xlink" width="295" height="188.417" viewBox="0 0 295 188.417">
  <defs>
    <clipPath id="clip-path">
      <rect id="Rectángulo_403098" data-name="Rectángulo 403098" width="275.394" height="146.933" fill="#4045ab"/>
    </clipPath>
    <clipPath id="clip-path-2">
      <rect id="Rectángulo_403100" data-name="Rectángulo 403100" width="295" height="188.417" fill="none"/>
    </clipPath>
    <clipPath id="clip-path-4">
      <rect id="Rectángulo_403105" data-name="Rectángulo 403105" width="295" height="188.417" fill="#4045ab"/>
    </clipPath>
  </defs>
  <g id="Grupo_1101216" data-name="Grupo 1101216" transform="translate(0 0)">
    <g id="Grupo_1101198" data-name="Grupo 1101198">
      <g id="Grupo_1101218" data-name="Grupo 1101218">
        <g id="Grupo_1101196" data-name="Grupo 1101196" transform="translate(10.768 22.456)">
          <g id="Grupo_1101195" data-name="Grupo 1101195">
            <g id="Grupo_1101194" data-name="Grupo 1101194" clip-path="url(#clip-path)">
              <path id="Rectángulo_403071" data-name="Rectángulo 403071" d="M-.275-.5H12.9a.225.225,0,0,1,.225.225V5.241a.225.225,0,0,1-.225.225H-.275A.225.225,0,0,1-.5,5.241V-.275A.225.225,0,0,1-.275-.5Zm12.953.45H-.05V5.016H12.678Z" transform="translate(215.788 0.5)" fill="#4045ab"/>
              <path id="Rectángulo_403072" data-name="Rectángulo 403072" d="M-.275-.5H12.9a.225.225,0,0,1,.225.225V5.241a.225.225,0,0,1-.225.225H-.275A.225.225,0,0,1-.5,5.241V-.275A.225.225,0,0,1-.275-.5Zm12.953.45H-.05V5.016H12.678Z" transform="translate(208.739 7.549)" fill="#4045ab"/>
              <path id="Rectángulo_403073" data-name="Rectángulo 403073" d="M-.275-.5H12.9a.225.225,0,0,1,.225.225V5.241a.225.225,0,0,1-.225.225H-.275A.225.225,0,0,1-.5,5.241V-.275A.225.225,0,0,1-.275-.5Zm12.953.45H-.05V5.016H12.678Z" transform="translate(223.45 7.549)" fill="#4045ab"/>
              <path id="Rectángulo_403074" data-name="Rectángulo 403074" d="M-.275-.5H12.9a.225.225,0,0,1,.225.225V5.241a.225.225,0,0,1-.225.225H-.275A.225.225,0,0,1-.5,5.241V-.275A.225.225,0,0,1-.275-.5Zm12.953.45H-.05V5.016H12.678Z" transform="translate(8.632 101.676)" fill="#4045ab"/>
              <path id="Trazado_912054" data-name="Trazado 912054" d="M39.738,296.374H34.181a.225.225,0,1,1,0-.45h5.332v-5.066H26.785v5.066h3.76a.225.225,0,1,1,0,.45H26.56a.225.225,0,0,1-.225-.225v-5.516a.225.225,0,0,1,.225-.225H39.738a.225.225,0,0,1,.225.225v5.516A.225.225,0,0,1,39.738,296.374Z" transform="translate(-25.252 -182.183)" fill="#4045ab"/>
              <path id="Rectángulo_403075" data-name="Rectángulo 403075" d="M-.275-.5H12.9a.225.225,0,0,1,.225.225V5.241a.225.225,0,0,1-.225.225H-.275A.225.225,0,0,1-.5,5.241V-.275A.225.225,0,0,1-.275-.5Zm12.953.45H-.05V5.016H12.678Z" transform="translate(16.294 108.724)" fill="#4045ab"/>
              <path id="Rectángulo_403076" data-name="Rectángulo 403076" d="M-.275-.5H12.9a.225.225,0,0,1,.225.225V5.241a.225.225,0,0,1-.225.225H-.275A.225.225,0,0,1-.5,5.241V-.275A.225.225,0,0,1-.275-.5Zm12.953.45H-.05V5.016H12.678Z" transform="translate(254.522 61.646)" fill="#4045ab"/>
              <path id="Trazado_912055" data-name="Trazado 912055" d="M586.173,207.417h-4.529a.225.225,0,1,1,0-.45h4.3V201.9H573.219v5.066h5.88a.225.225,0,0,1,0,.45h-6.1a.225.225,0,0,1-.225-.225v-5.516a.225.225,0,0,1,.225-.225h13.179a.225.225,0,0,1,.225.225v5.516A.225.225,0,0,1,586.173,207.417Z" transform="translate(-325.797 -133.255)" fill="#4045ab"/>
              <path id="Rectángulo_403077" data-name="Rectángulo 403077" d="M-.275-.5H12.9a.225.225,0,0,1,.225.225V5.241a.225.225,0,0,1-.225.225H-.275A.225.225,0,0,1-.5,5.241V-.275A.225.225,0,0,1-.275-.5Zm12.953.45H-.05V5.016H12.678Z" transform="translate(262.184 68.695)" fill="#4045ab"/>
              <path id="Rectángulo_403078" data-name="Rectángulo 403078" d="M-.275-.5H12.9a.225.225,0,0,1,.225.225V5.241a.225.225,0,0,1-.225.225H-.275A.225.225,0,0,1-.5,5.241V-.275A.225.225,0,0,1-.275-.5Zm12.953.45H-.05V5.016H12.678Z" transform="translate(52.774 61.646)" fill="#4045ab"/>
              <path id="Trazado_912056" data-name="Trazado 912056" d="M137.835,207.417h-4.607a.225.225,0,1,1,0-.45h4.382V201.9H124.881v5.066h4.71a.225.225,0,0,1,0,.45h-4.935a.225.225,0,0,1-.225-.225v-5.516a.225.225,0,0,1,.225-.225h13.178a.225.225,0,0,1,.225.225v5.516A.225.225,0,0,1,137.835,207.417Z" transform="translate(-79.206 -133.255)" fill="#4045ab"/>
              <path id="Rectángulo_403079" data-name="Rectángulo 403079" d="M-.275-.5H12.9a.225.225,0,0,1,.225.225V5.241a.225.225,0,0,1-.225.225H-.275A.225.225,0,0,1-.5,5.241V-.275A.225.225,0,0,1-.275-.5Zm12.953.45H-.05V5.016H12.678Z" transform="translate(60.435 68.695)" fill="#4045ab"/>
              <path id="Rectángulo_403080" data-name="Rectángulo 403080" d="M-.275-.5H12.9a.225.225,0,0,1,.225.225V5.241a.225.225,0,0,1-.225.225H-.275A.225.225,0,0,1-.5,5.241V-.275A.225.225,0,0,1-.275-.5Zm12.953.45H-.05V5.016H12.678Z" transform="translate(254.604 99.649)" fill="#4045ab"/>
              <path id="Rectángulo_403081" data-name="Rectángulo 403081" d="M-.275-.5H12.9a.225.225,0,0,1,.225.225V5.241a.225.225,0,0,1-.225.225H-.275A.225.225,0,0,1-.5,5.241V-.275A.225.225,0,0,1-.275-.5Zm12.953.45H-.05V5.016H12.678Z" transform="translate(247.555 106.698)" fill="#4045ab"/>
              <path id="Trazado_912057" data-name="Trazado 912057" d="M619.047,291.869H605.869a.225.225,0,0,1-.225-.225v-5.516a.225.225,0,0,1,.225-.225h6.585a.225.225,0,0,1,0,.45h-6.36v5.066h12.728v-5.066h-3.1a.225.225,0,1,1,0-.45h3.321a.225.225,0,0,1,.225.225v5.516A.225.225,0,0,1,619.047,291.869Z" transform="translate(-343.878 -179.705)" fill="#4045ab"/>
              <path id="Rectángulo_403082" data-name="Rectángulo 403082" d="M-.275-.5H12.9a.225.225,0,0,1,.225.225V5.241a.225.225,0,0,1-.225.225H-.275A.225.225,0,0,1-.5,5.241V-.275A.225.225,0,0,1-.275-.5Zm12.953.45H-.05V5.016H12.678Z" transform="translate(132.855 99.649)" fill="#4045ab"/>
              <path id="Trazado_912058" data-name="Trazado 912058" d="M315.8,291.869h-5.957a.225.225,0,0,1,0-.45h5.732v-5.066H302.843v5.066h3.9a.225.225,0,1,1,0,.45h-4.13a.225.225,0,0,1-.225-.225v-5.516a.225.225,0,0,1,.225-.225H315.8a.225.225,0,0,1,.225.225v5.516A.225.225,0,0,1,315.8,291.869Z" transform="translate(-177.087 -179.705)" fill="#4045ab"/>
              <path id="Rectángulo_403083" data-name="Rectángulo 403083" d="M-.275-.5H12.9a.225.225,0,0,1,.225.225V5.241a.225.225,0,0,1-.225.225H-.275A.225.225,0,0,1-.5,5.241V-.275A.225.225,0,0,1-.275-.5Zm12.953.45H-.05V5.016H12.678Z" transform="translate(140.517 106.698)" fill="#4045ab"/>
              <path id="Trazado_912059" data-name="Trazado 912059" d="M331.46,353.471H318.282a.225.225,0,0,1-.225-.225v-5.516a.225.225,0,0,1,.225-.225h5.809a.225.225,0,0,1,0,.45h-5.584v5.066h12.728v-5.066h-3.872a.225.225,0,0,1,0-.45h4.1a.225.225,0,0,1,.225.225v5.516A.225.225,0,0,1,331.46,353.471Z" transform="translate(-185.702 -213.587)" fill="#4045ab"/>
              <path id="Rectángulo_403084" data-name="Rectángulo 403084" d="M-.275-.5H12.9a.225.225,0,0,1,.225.225V5.241a.225.225,0,0,1-.225.225H-.275A.225.225,0,0,1-.5,5.241V-.275A.225.225,0,0,1-.275-.5Zm12.953.45H-.05V5.016H12.678Z" transform="translate(125.806 141.467)" fill="#4045ab"/>
              <path id="Rectángulo_403085" data-name="Rectángulo 403085" d="M-.275-.5H12.9a.225.225,0,0,1,.225.225V5.241a.225.225,0,0,1-.225.225H-.275A.225.225,0,0,1-.5,5.241V-.275A.225.225,0,0,1-.275-.5Zm12.953.45H-.05V5.016H12.678Z" transform="translate(140.517 141.467)" fill="#4045ab"/>
              <path id="Rectángulo_403086" data-name="Rectángulo 403086" d="M-.275-.5H12.9a.225.225,0,0,1,.225.225V5.241a.225.225,0,0,1-.225.225H-.275A.225.225,0,0,1-.5,5.241V-.275A.225.225,0,0,1-.275-.5Zm12.953.45H-.05V5.016H12.678Z" transform="translate(103.557 134.418)" fill="#4045ab"/>
              <path id="Rectángulo_403087" data-name="Rectángulo 403087" d="M-.275-.5H12.9a.225.225,0,0,1,.225.225V5.241a.225.225,0,0,1-.225.225H-.275A.225.225,0,0,1-.5,5.241V-.275A.225.225,0,0,1-.275-.5Zm12.953.45H-.05V5.016H12.678Z" transform="translate(96.508 141.467)" fill="#4045ab"/>
              <path id="Trazado_912060" data-name="Trazado 912060" d="M283.379,369.136h-4.1a.225.225,0,0,1,0-.45h3.873V363.62H270.426v5.066h5.219a.225.225,0,0,1,0,.45H270.2a.225.225,0,0,1-.225-.225v-5.516a.225.225,0,0,1,.225-.225h13.178a.225.225,0,0,1,.225.225v5.516A.225.225,0,0,1,283.379,369.136Z" transform="translate(-159.257 -222.203)" fill="#4045ab"/>
              <path id="Rectángulo_403088" data-name="Rectángulo 403088" d="M-.275-.5H12.9a.225.225,0,0,1,.225.225V5.241a.225.225,0,0,1-.225.225H-.275A.225.225,0,0,1-.5,5.241V-.275A.225.225,0,0,1-.275-.5Zm12.953.45H-.05V5.016H12.678Z" transform="translate(193.569 7.549)" fill="#4045ab"/>
              <path id="Rectángulo_403089" data-name="Rectángulo 403089" d="M-.275-.5H12.9a.225.225,0,0,1,.225.225V5.241a.225.225,0,0,1-.225.225H-.275A.225.225,0,0,1-.5,5.241V-.275A.225.225,0,0,1-.275-.5Zm12.953.45H-.05V5.016H12.678Z" transform="translate(186.52 14.598)" fill="#4045ab"/>
              <path id="Rectángulo_403090" data-name="Rectángulo 403090" d="M-.275-.5H12.9a.225.225,0,0,1,.225.225V5.241a.225.225,0,0,1-.225.225H-.275A.225.225,0,0,1-.5,5.241V-.275A.225.225,0,0,1-.275-.5Zm12.953.45H-.05V5.016H12.678Z" transform="translate(201.231 14.598)" fill="#4045ab"/>
              <path id="Rectángulo_403091" data-name="Rectángulo 403091" d="M-.275-.5H12.9a.225.225,0,0,1,.225.225V5.241a.225.225,0,0,1-.225.225H-.275A.225.225,0,0,1-.5,5.241V-.275A.225.225,0,0,1-.275-.5Zm12.953.45H-.05V5.016H12.678Z" transform="translate(7.549 12.223)" fill="#4045ab"/>
              <path id="Rectángulo_403092" data-name="Rectángulo 403092" d="M-.275-.5H12.9a.225.225,0,0,1,.225.225V5.241a.225.225,0,0,1-.225.225H-.275A.225.225,0,0,1-.5,5.241V-.275A.225.225,0,0,1-.275-.5Zm12.953.45H-.05V5.016H12.678Z" transform="translate(0.5 19.272)" fill="#4045ab"/>
              <path id="Trazado_912061" data-name="Trazado 912061" d="M70.024,97.585H56.845a.225.225,0,0,1-.225-.225V91.844a.225.225,0,0,1,.225-.225h5.812a.225.225,0,1,1,0,.45H57.07v5.066H69.8V92.069H65.566a.225.225,0,0,1,0-.45h4.458a.225.225,0,0,1,.225.225V97.36A.225.225,0,0,1,70.024,97.585Z" transform="translate(-41.91 -72.847)" fill="#4045ab"/>
              <path id="Rectángulo_403093" data-name="Rectángulo 403093" d="M-.275-.5H12.9a.225.225,0,0,1,.225.225V5.241a.225.225,0,0,1-.225.225H-.275A.225.225,0,0,1-.5,5.241V-.275A.225.225,0,0,1-.275-.5Zm12.953.45H-.05V5.016H12.678Z" transform="translate(193.569 34.946)" fill="#4045ab"/>
              <path id="Rectángulo_403094" data-name="Rectángulo 403094" d="M-.275-.5H12.9a.225.225,0,0,1,.225.225V5.241a.225.225,0,0,1-.225.225H-.275A.225.225,0,0,1-.5,5.241V-.275A.225.225,0,0,1-.275-.5Zm12.953.45H-.05V5.016H12.678Z" transform="translate(186.52 41.995)" fill="#4045ab"/>
              <path id="Rectángulo_403095" data-name="Rectángulo 403095" d="M-.275-.5H12.9a.225.225,0,0,1,.225.225V5.241a.225.225,0,0,1-.225.225H-.275A.225.225,0,0,1-.5,5.241V-.275A.225.225,0,0,1-.275-.5Zm12.953.45H-.05V5.016H12.678Z" transform="translate(201.231 41.995)" fill="#4045ab"/>
              <path id="Rectángulo_403096" data-name="Rectángulo 403096" d="M-.275-.5H12.9a.225.225,0,0,1,.225.225V5.241a.225.225,0,0,1-.225.225H-.275A.225.225,0,0,1-.5,5.241V-.275A.225.225,0,0,1-.275-.5Zm12.953.45H-.05V5.016H12.678Z" transform="translate(254.604 113.779)" fill="#4045ab"/>
              <path id="Rectángulo_403097" data-name="Rectángulo 403097" d="M-.275-.5H12.9a.225.225,0,0,1,.225.225V5.241a.225.225,0,0,1-.225.225H-.275A.225.225,0,0,1-.5,5.241V-.275A.225.225,0,0,1-.275-.5Zm12.953.45H-.05V5.016H12.678Z" transform="translate(247.555 120.828)" fill="#4045ab"/>
              <path id="Trazado_912062" data-name="Trazado 912062" d="M619.047,323.271h-4.594a.225.225,0,0,1,0-.45h4.369v-5.066H606.094v5.066h6.178a.225.225,0,1,1,0,.45h-6.4a.225.225,0,0,1-.225-.225V317.53a.225.225,0,0,1,.225-.225h13.178a.225.225,0,0,1,.225.225v5.516A.225.225,0,0,1,619.047,323.271Z" transform="translate(-343.878 -196.977)" fill="#4045ab"/>
            </g>
          </g>
        </g>
      </g>
    </g>
    <g id="Grupo_1101200" data-name="Grupo 1101200">
      <g id="Grupo_1101199" data-name="Grupo 1101199" clip-path="url(#clip-path-2)">
        <path id="Trazado_912063" data-name="Trazado 912063" d="M484.063,282.48a.225.225,0,0,1-.225-.225c0-.1-.019-9.962-.22-20.373-.266-13.763-.726-22.22-1.332-24.458a59,59,0,0,0-4.33-10.757c-1.5-2.933-2.75-4.944-2.762-4.964a.225.225,0,1,1,.381-.239c.013.02,1.277,2.048,2.782,5a59.456,59.456,0,0,1,4.364,10.843c.624,2.305,1.077,10.571,1.347,24.568.027,1.416.051,2.821.072,4.193.146-4.776.362-10.237.683-15.851.558-9.76,1.316-18.067,2.256-24.689a100.551,100.551,0,0,1,1.87-10.042,26.611,26.611,0,0,1,2.5-6.829.225.225,0,0,1,.387.23c-1.69,2.843-3.139,8.463-4.308,16.7-.937,6.61-1.7,14.9-2.252,24.651-.948,16.6-.984,31.863-.985,32.015A.225.225,0,0,1,484.063,282.48Z" transform="translate(-261.342 -114.702)" fill="#4045ab"/>
        <path id="Trazado_912064" data-name="Trazado 912064" d="M482.267,246.794h0a.225.225,0,0,1-.224-.221c-.023-1.2-.026-4.281-.03-8.538-.009-9.269-.022-23.276-.238-36.311-.259-15.67-.745-25.367-1.444-28.821a78.608,78.608,0,0,0-3.591-12.3c-1.155-3.011-2.075-4.833-2.084-4.851a.225.225,0,0,1,.4-.2c.009.018.938,1.855,2.1,4.886a79.068,79.068,0,0,1,3.615,12.376c.7,3.481,1.193,13.206,1.453,28.9.182,11.032.22,22.758.233,31.721.2-5.855.456-13.119.759-20.618.414-10.236.829-18.9,1.233-25.754.505-8.573,1-14.323,1.457-17.092a55.329,55.329,0,0,1,2.306-8.85,79.028,79.028,0,0,1,3.1-7.612,77.344,77.344,0,0,1,3.884-7.35.225.225,0,0,1,.382.238,76.909,76.909,0,0,0-3.861,7.309,66.341,66.341,0,0,0-5.363,16.339c-.823,4.939-1.751,19.736-2.684,42.789-.7,17.424-1.169,33.577-1.174,33.738A.225.225,0,0,1,482.267,246.794Z" transform="translate(-261.052 -80.332)" fill="#4045ab"/>
        <path id="Trazado_912065" data-name="Trazado 912065" d="M447.147,142.131s6.057.28,8.885-4.267.968-8.894-1.69-9.212-3.813,2.97-4.8,1.393,2.828-4.548-1.445-7.279-6.264,1.186-7.62-.213-.379-5.058-3.2-6.664-4.139.393-5.7.46-6.48-2.583-8.442-.5,2.734,7.116.527,7.265-3.1,4.451-1.309,7.235,7.562,3.886,6.436,5.338-6.635,1.364-4.391,4.614,9.864,3.464,10.96,3.849-3.51,1.23-2.732,4.273,7.109,3.42,11.182,1.464,3.338-7.754,3.338-7.754" transform="translate(-231.772 -63.278)" fill="#dcebff"/>
        <path id="Trazado_912066" data-name="Trazado 912066" d="M456.984,150.117a.225.225,0,0,1-.21-.145c-2.366-6.208-6.965-11.421-10.406-14.7a55.337,55.337,0,0,0-6.984-5.7.225.225,0,0,1,.246-.377,55.785,55.785,0,0,1,7.041,5.743,51.916,51.916,0,0,1,5.817,6.511,35.019,35.019,0,0,1,4.706,8.363.225.225,0,0,1-.21.305Z" transform="translate(-241.609 -71.038)" fill="#4045ab"/>
        <path id="Trazado_912067" data-name="Trazado 912067" d="M446.729,135.825h-.022l-8.625-.841a.225.225,0,1,1,.044-.448l8.294.809-2.01-6.833a.225.225,0,0,1,.432-.127l2.1,7.153a.225.225,0,0,1-.216.288Z" transform="translate(-240.837 -70.524)" fill="#4045ab"/>
        <path id="Trazado_912068" data-name="Trazado 912068" d="M462.156,155.156h-8.625a.225.225,0,1,1,0-.45h8.418l.614-7.577a.225.225,0,1,1,.449.036l-.631,7.784A.225.225,0,0,1,462.156,155.156Z" transform="translate(-249.323 -80.809)" fill="#4045ab"/>
        <path id="Trazado_912069" data-name="Trazado 912069" d="M507.831,125.463s-4.917.227-7.213-3.464-.786-7.22,1.372-7.477,3.1,2.411,3.9,1.131-2.3-3.691,1.173-5.909,5.085.963,6.186-.173.307-4.106,2.6-5.41,3.36.319,4.629.374,5.26-2.1,6.853-.408-2.219,5.777-.428,5.9,2.518,3.613,1.063,5.873-6.138,3.155-5.224,4.333,5.386,1.107,3.564,3.745-8.008,2.812-8.9,3.124,2.849,1,2.218,3.469-5.771,2.776-9.077,1.188-2.71-6.294-2.71-6.294" transform="translate(-274.714 -56.914)" fill="#dcebff"/>
        <path id="Trazado_912070" data-name="Trazado 912070" d="M517.774,131.935a.225.225,0,0,1-.21-.305,28.463,28.463,0,0,1,3.826-6.8,42.186,42.186,0,0,1,4.727-5.291,45.326,45.326,0,0,1,5.722-4.667.225.225,0,0,1,.246.377,44.879,44.879,0,0,0-5.665,4.622c-2.79,2.66-6.518,6.887-8.436,11.918A.225.225,0,0,1,517.774,131.935Z" transform="translate(-284.657 -63.161)" fill="#4045ab"/>
        <path id="Trazado_912071" data-name="Trazado 912071" d="M534.881,120.334a.225.225,0,0,1-.216-.288l1.708-5.806a.225.225,0,0,1,.432.127l-1.614,5.486,6.67-.651a.225.225,0,1,1,.044.448l-7,.683Z" transform="translate(-294.066 -62.744)" fill="#4045ab"/>
        <path id="Trazado_912072" data-name="Trazado 912072" d="M528.733,136.026h-7a.225.225,0,0,1-.224-.207l-.512-6.319a.225.225,0,1,1,.448-.036l.5,6.112h6.794a.225.225,0,0,1,0,.45Z" transform="translate(-286.552 -71.093)" fill="#4045ab"/>
        <path id="Trazado_912073" data-name="Trazado 912073" d="M461.575,228.385s3.989.184,5.852-2.81.638-5.857-1.113-6.066-2.511,1.956-3.16.918,1.863-2.995-.952-4.794-4.125.781-5.018-.14-.249-3.331-2.107-4.389-2.726.259-3.755.3-4.267-1.7-5.559-.331,1.8,4.686.347,4.784-2.043,2.931-.862,4.765,4.98,2.559,4.238,3.515-4.369.9-2.892,3.039,6.5,2.281,7.218,2.535-2.312.81-1.8,2.814,4.682,2.252,7.364.964,2.2-5.106,2.2-5.106" transform="translate(-244.544 -115.804)" fill="#dcebff"/>
        <path id="Trazado_912074" data-name="Trazado 912074" d="M467.959,233.626a.225.225,0,0,1-.21-.145,27.821,27.821,0,0,0-6.832-9.652,36.374,36.374,0,0,0-4.591-3.746.225.225,0,0,1,.246-.377,36.825,36.825,0,0,1,4.648,3.791,34.267,34.267,0,0,1,3.839,4.3,23.135,23.135,0,0,1,3.109,5.526.225.225,0,0,1-.21.305Z" transform="translate(-250.928 -120.821)" fill="#4045ab"/>
        <path id="Trazado_912075" data-name="Trazado 912075" d="M461.206,224.215h-.022l-5.68-.554a.225.225,0,1,1,.044-.448l5.348.522-1.291-4.391a.225.225,0,0,1,.432-.127l1.386,4.711a.225.225,0,0,1-.216.288Z" transform="translate(-250.42 -120.482)" fill="#4045ab"/>
        <path id="Trazado_912076" data-name="Trazado 912076" d="M471.366,236.946h-5.68a.225.225,0,1,1,0-.45h5.473l.4-4.919a.225.225,0,1,1,.449.036l-.416,5.126A.225.225,0,0,1,471.366,236.946Z" transform="translate(-256.008 -127.256)" fill="#4045ab"/>
        <path id="Trazado_912077" data-name="Trazado 912077" d="M482.226,285.3s-4.959.229-7.275-3.494-.793-7.282,1.384-7.542,3.122,2.432,3.929,1.141-2.316-3.723,1.183-5.96,5.129.971,6.239-.175.31-4.141,2.62-5.456,3.389.322,4.669.377,5.305-2.115,6.911-.411-2.238,5.826-.432,5.948,2.54,3.644,1.072,5.924-6.191,3.182-5.269,4.371,5.432,1.116,3.595,3.778-8.076,2.836-8.974,3.151,2.874,1.007,2.236,3.5-5.821,2.8-9.155,1.2-2.733-6.348-2.733-6.348" transform="translate(-260.591 -144.724)" fill="#dcebff"/>
        <path id="Trazado_912078" data-name="Trazado 912078" d="M492.257,291.833a.225.225,0,0,1-.21-.305,28.71,28.71,0,0,1,3.859-6.857,42.54,42.54,0,0,1,4.767-5.336,45.72,45.72,0,0,1,5.771-4.706.225.225,0,0,1,.246.377,45.27,45.27,0,0,0-5.714,4.662c-2.814,2.683-6.575,6.946-8.509,12.021A.225.225,0,0,1,492.257,291.833Z" transform="translate(-270.622 -151.028)" fill="#263238"/>
        <path id="Trazado_912079" data-name="Trazado 912079" d="M509.513,280.132a.225.225,0,0,1-.216-.288l1.722-5.856a.225.225,0,1,1,.432.127l-1.628,5.536,6.73-.657a.225.225,0,1,1,.044.448l-7.062.689Z" transform="translate(-280.113 -150.607)" fill="#263238"/>
        <path id="Trazado_912080" data-name="Trazado 912080" d="M503.311,295.96h-7.062a.225.225,0,0,1-.224-.207l-.517-6.373a.225.225,0,0,1,.449-.036l.5,6.166h6.854a.225.225,0,0,1,0,.45Z" transform="translate(-272.534 -159.028)" fill="#263238"/>
        <path id="Trazado_912081" data-name="Trazado 912081" d="M498,185.711s-6.01-.808-7.979-5.788.639-8.923,3.311-8.761,3.22,3.6,4.472,2.229-1.969-4.98,2.724-6.9,5.951,2.287,7.535,1.153,1.277-4.908,4.341-5.984,4,1.127,5.528,1.472,6.838-1.381,8.4,1.017-3.963,6.512-1.818,7.053,2.255,4.934-.006,7.353-8.134,2.471-7.287,4.1,6.284,2.529,3.494,5.325-10.325,1.643-11.472,1.826,3.233,1.838,1.923,4.693-7.607,2.093-11.264-.56-1.9-8.226-1.9-8.226" transform="translate(-269.135 -88.752)" fill="#dcebff"/>
        <path id="Trazado_912082" data-name="Trazado 912082" d="M508.316,194.578a.225.225,0,0,1-.192-.341,35.01,35.01,0,0,1,6.126-7.386,51.9,51.9,0,0,1,6.888-5.365,55.78,55.78,0,0,1,7.956-4.39.225.225,0,0,1,.175.415,55.328,55.328,0,0,0-7.891,4.357c-3.973,2.612-9.43,6.919-12.868,12.6A.225.225,0,0,1,508.316,194.578Z" transform="translate(-279.455 -97.394)" fill="#4045ab"/>
        <path id="Trazado_912083" data-name="Trazado 912083" d="M543.164,181.641h-.019l-8.637-.715a.225.225,0,0,1-.182-.325l3.349-6.661a.225.225,0,0,1,.4.2l-3.2,6.363,8.3.688a.225.225,0,0,1-.018.449Z" transform="translate(-293.872 -95.6)" fill="#4045ab"/>
        <path id="Trazado_912084" data-name="Trazado 912084" d="M524.239,198.131a.226.226,0,0,1-.04,0l-8.486-1.543a.225.225,0,0,1-.184-.244l.771-7.771a.225.225,0,1,1,.448.044L516,196.178l8.282,1.506a.225.225,0,0,1-.04.446Z" transform="translate(-283.545 -103.603)" fill="#4045ab"/>
        <path id="Trazado_912085" data-name="Trazado 912085" d="M472.243,366.63c-.43,1.156-.676,11-.676,12.3,0,8.654,4.774,10.663,10.663,10.663s10.663-1.545,10.663-10.663c0-1.307-.247-11.148-.676-12.3Z" transform="translate(-259.367 -201.65)" fill="#4045ab"/>
        <path id="Trazado_912086" data-name="Trazado 912086" d="M471.968,366.13h19.974a.225.225,0,0,1,.211.147,37.263,37.263,0,0,1,.513,6.165c.115,2.751.177,5.551.177,6.218,0,4.3-1.05,7.22-3.209,8.927a8.474,8.474,0,0,1-3.48,1.571,19.24,19.24,0,0,1-4.2.389,17.072,17.072,0,0,1-4.206-.456,8.725,8.725,0,0,1-3.477-1.681,7.933,7.933,0,0,1-2.353-3.353,15.172,15.172,0,0,1-.853-5.4c0-.667.063-3.467.177-6.218a37.261,37.261,0,0,1,.513-6.165A.225.225,0,0,1,471.968,366.13Zm19.8.45H472.138a44.4,44.4,0,0,0-.444,5.88c-.114,2.745-.177,5.535-.177,6.2,0,7.219,3.219,10.438,10.438,10.438,3.488,0,5.771-.575,7.4-1.864,2.044-1.617,3.038-4.421,3.038-8.574,0-.664-.062-3.454-.177-6.2A44.383,44.383,0,0,0,491.773,366.58Z" transform="translate(-259.092 -201.375)" fill="#4045ab"/>
      </g>
    </g>
    <g id="Grupo_1101220" data-name="Grupo 1101220">
      <g id="Grupo_1101202" data-name="Grupo 1101202" transform="translate(52.638)">
        <g id="Grupo_1101219" data-name="Grupo 1101219">
          <path id="Rectángulo_403101" data-name="Rectángulo 403101" d="M-.275-.5H59.33a.225.225,0,0,1,.225.225V74.563a.225.225,0,0,1-.225.225H-.275A.225.225,0,0,1-.5,74.563V-.275A.225.225,0,0,1-.275-.5Zm59.38.45H-.05V74.338H59.105Z" transform="translate(0.5 0.5)" fill="#4045ab"/>
          <path id="Trazado_912087" data-name="Trazado 912087" d="M124.438,61.294a.225.225,0,0,1-.225-.225V9.313a.225.225,0,0,1,.225-.225h25.586a.225.225,0,1,1,0,.45H124.663v51.53A.225.225,0,0,1,124.438,61.294Z" transform="translate(-120.956 -4.999)" fill="#4045ab"/>
          <path id="Trazado_912088" data-name="Trazado 912088" d="M177.529,76.2H124.438a.225.225,0,0,1-.225-.225V65.086a.225.225,0,0,1,.45,0V75.747H177.3V9.538h-22.3a.225.225,0,1,1,0-.45h22.524a.225.225,0,0,1,.225.225V75.972A.225.225,0,0,1,177.529,76.2Z" transform="translate(-120.956 -4.998)" fill="#4045ab"/>
          <path id="Trazado_912089" data-name="Trazado 912089" d="M180.624,80.082H155.377a.225.225,0,0,1-.225-.225v-31.7a.225.225,0,0,1,.225-.225h25.247a.225.225,0,0,1,.225.225V63.151a.225.225,0,1,1-.45,0V48.383H155.6V79.632h24.8V67.489a.225.225,0,1,1,.45,0V79.857A.225.225,0,0,1,180.624,80.082Z" transform="translate(-137.973 -26.364)" fill="#4045ab"/>
        </g>
      </g>
    </g>
    <g id="Grupo_1101207" data-name="Grupo 1101207">
      <g id="Grupo_1101206" data-name="Grupo 1101206" clip-path="url(#clip-path-2)">
        <path id="Trazado_912090" data-name="Trazado 912090" d="M177.625,311.346,184.4,358.2a.672.672,0,0,0,1.333-.176l-5.571-46.232Z" transform="translate(-97.696 -171.243)" fill="#4045ab"/>
        <path id="Trazado_912091" data-name="Trazado 912091" d="M177.35,310.846a.226.226,0,0,1,.039,0l2.533.447a.225.225,0,0,1,.184.195l5.571,46.232a.9.9,0,0,1-1.779.234l-6.77-46.853a.225.225,0,0,1,.223-.257Zm2.329.864-2.062-.364,6.726,46.546a.449.449,0,0,0,.443.384.447.447,0,0,0,.444-.5Z" transform="translate(-97.421 -170.968)" fill="#4045ab"/>
        <path id="Trazado_912092" data-name="Trazado 912092" d="M118.648,298.584a74.491,74.491,0,0,1,13.886-.1c2.77.3,12.548,1.062,12.235,3.358a3.89,3.89,0,0,1-2.819,3.237c-.418,0-39.466,2.715-40.093,2.088s-1.253-2.088-.835-2.923,17.625-5.655,17.625-5.655" transform="translate(-55.489 -164.008)" fill="#b8b8b8"/>
        <path id="Trazado_912093" data-name="Trazado 912093" d="M126.29,297.691a56.872,56.872,0,0,1,5.995.29c.233.025.513.053.838.086,1.513.151,4.045.4,6.3.818,2.8.513,4.451,1.128,5.044,1.881a1.071,1.071,0,0,1,.249.828,4.142,4.142,0,0,1-1.447,2.621,3.174,3.174,0,0,1-1.594.811c-.086,0-1.363.086-3.13.2-8.2.541-29.969,1.979-35.619,1.979-.412,0-.736-.008-.964-.023-.365-.025-.468-.065-.539-.137a3.982,3.982,0,0,1-.863-1.471,2.289,2.289,0,0,1-.014-1.712c.057-.114.18-.253.992-.59.488-.2,1.184-.458,2.067-.758,1.482-.5,3.516-1.146,6.047-1.907,4.306-1.3,8.617-2.5,8.66-2.516a.224.224,0,0,1,.036-.007C118.385,298.082,121.952,297.691,126.29,297.691Zm-23.362,9.066c5.636,0,27.4-1.437,35.589-1.978,2.192-.145,3.085-.2,3.159-.2a2.93,2.93,0,0,0,1.3-.7,3.7,3.7,0,0,0,1.293-2.339.63.63,0,0,0-.156-.488c-.354-.449-1.47-1.112-4.772-1.717-2.24-.41-4.761-.663-6.267-.813-.326-.033-.607-.061-.841-.086a56.409,56.409,0,0,0-5.947-.288c-4.153,0-7.594.36-7.873.39-.3.085-4.376,1.23-8.486,2.464-2.5.749-4.517,1.385-6.007,1.888a12.064,12.064,0,0,0-2.979,1.193,2.927,2.927,0,0,0,.773,2.626A6.786,6.786,0,0,0,102.928,306.757Z" transform="translate(-55.215 -163.733)" fill="#4045ab"/>
        <path id="Trazado_912094" data-name="Trazado 912094" d="M76.579,226.22a1.05,1.05,0,0,0-1.175,1.292c1.574,6.6,8.7,36.357,9.466,37.12.857.857,4.458,2.572,6,2.4a37.1,37.1,0,0,0,14.574-7.2c5.486-4.629,9.087-9.6,8.744-12.687s-2.229-5.83-3.944-6.173-8.573.171-14.574-1.714-10.973-4.972-13.716-8.745c-2.058-2.829-3.826-4.018-5.377-4.292" transform="translate(-41.457 -124.415)" fill="#b8b8b8"/>
        <path id="Trazado_912095" data-name="Trazado 912095" d="M76.128,225.7h0a1.246,1.246,0,0,1,.215.019c1.8.317,3.606,1.75,5.52,4.381,2.667,3.667,7.5,6.743,13.6,8.662a44.059,44.059,0,0,0,11.834,1.542,20.78,20.78,0,0,1,2.716.167,4.6,4.6,0,0,1,2.63,2.155,9.815,9.815,0,0,1,1.493,4.213,5.919,5.919,0,0,1-.464,2.739,15.3,15.3,0,0,1-1.762,3.18,38.134,38.134,0,0,1-6.6,6.965,36.661,36.661,0,0,1-8.821,5.307,26.8,26.8,0,0,1-5.873,1.946,2.333,2.333,0,0,1-.256.013,9.274,9.274,0,0,1-3.287-.919,10.167,10.167,0,0,1-2.643-1.559c-.145-.145-.531-.531-4.488-16.476-2.065-8.322-4.211-17.284-5.038-20.75a1.29,1.29,0,0,1,.245-1.1A1.237,1.237,0,0,1,76.128,225.7Zm14.238,40.839a1.884,1.884,0,0,0,.206-.011,27.065,27.065,0,0,0,5.743-1.912,36.209,36.209,0,0,0,8.71-5.238,37.686,37.686,0,0,0,6.519-6.879c1.564-2.237,2.306-4.178,2.147-5.611-.35-3.148-2.265-5.677-3.764-5.977a21.25,21.25,0,0,0-2.641-.158A44.435,44.435,0,0,1,95.329,239.2a34.6,34.6,0,0,1-8.133-3.69,20.51,20.51,0,0,1-5.7-5.137c-1.842-2.532-3.554-3.906-5.234-4.2a.776.776,0,0,0-.757.3.842.842,0,0,0-.161.721c.819,3.436,2.947,12.321,5,20.606,1.164,4.691,2.12,8.447,2.843,11.162a34.907,34.907,0,0,0,1.566,5.249,9.976,9.976,0,0,0,2.5,1.462A8.86,8.86,0,0,0,90.365,266.544Z" transform="translate(-41.182 -124.14)" fill="#4045ab"/>
        <path id="Trazado_912096" data-name="Trazado 912096" d="M83.135,277.924,84.8,295.5,74.733,339.48a.577.577,0,0,0,1.115.3l11.614-44.051,5.851-.222v-1.192l-5.96-.447L84.02,277.756a.451.451,0,0,0-.885.168" transform="translate(-41.093 -152.571)" fill="#4045ab"/>
        <path id="Trazado_912097" data-name="Trazado 912097" d="M83.3,276.9h0a.7.7,0,0,1,.082,0,.675.675,0,0,1,.581.533l3.3,15.944,5.791.434a.225.225,0,0,1,.208.224v1.192a.225.225,0,0,1-.216.225l-5.684.216L75.79,339.56a.8.8,0,0,1-1.41.282.8.8,0,0,1-.14-.69L84.3,295.215l-1.659-17.536a.675.675,0,0,1,.666-.781Zm9.51,17.349-5.751-.431a.225.225,0,0,1-.2-.179l-3.333-16.109a.225.225,0,0,0-.194-.178l-.028,0h0a.224.224,0,0,0-.172.081.221.221,0,0,0-.049.183q0,.009,0,.017l1.664,17.58a.226.226,0,0,1,0,.071L74.677,339.255l0,.008a.352.352,0,0,0,.34.442.353.353,0,0,0,.34-.261l11.614-44.05a.225.225,0,0,1,.209-.167l5.634-.214Z" transform="translate(-40.818 -152.296)" fill="#4045ab"/>
        <path id="Trazado_912098" data-name="Trazado 912098" d="M435.082,311.346,428.311,358.2a.672.672,0,0,1-1.333-.176l5.571-46.232Z" transform="translate(-234.839 -171.243)" fill="#4045ab"/>
        <path id="Trazado_912099" data-name="Trazado 912099" d="M434.807,310.846a.225.225,0,0,1,.223.257l-6.771,46.854a.9.9,0,0,1-1.779-.234l5.571-46.232a.225.225,0,0,1,.184-.195l2.533-.447A.226.226,0,0,1,434.807,310.846Zm-7.436,47.431a.449.449,0,0,0,.443-.384l6.726-46.546-2.062.364-5.551,46.066a.447.447,0,0,0,.444.5Z" transform="translate(-234.565 -170.968)" fill="#4045ab"/>
        <path id="Trazado_912100" data-name="Trazado 912100" d="M450.325,298.584a74.493,74.493,0,0,0-13.886-.1c-2.77.3-12.549,1.062-12.235,3.358a3.89,3.89,0,0,0,2.819,3.237c.418,0,39.466,2.715,40.093,2.088s1.253-2.088.835-2.923-17.625-5.655-17.625-5.655" transform="translate(-233.312 -164.008)" fill="#b8b8b8"/>
        <path id="Trazado_912101" data-name="Trazado 912101" d="M442.134,297.691h0c4.338,0,7.9.391,7.94.395a.224.224,0,0,1,.036.007c.043.012,4.354,1.221,8.66,2.516,2.531.761,4.565,1.4,6.047,1.907.883.3,1.578.556,2.067.758.812.337.935.476.992.59a2.289,2.289,0,0,1-.014,1.712,3.981,3.981,0,0,1-.863,1.471c-.071.071-.174.112-.539.137-.227.015-.552.023-.964.023-5.651,0-27.423-1.438-35.619-1.979-1.767-.117-3.044-.2-3.131-.2a3.176,3.176,0,0,1-1.593-.811,4.142,4.142,0,0,1-1.447-2.621,1.071,1.071,0,0,1,.249-.828c.593-.753,2.243-1.368,5.044-1.881,2.258-.414,4.79-.667,6.3-.818.325-.033.605-.061.838-.086A56.856,56.856,0,0,1,442.134,297.691Zm7.874.84c-.279-.03-3.72-.39-7.873-.39h0a56.394,56.394,0,0,0-5.946.288c-.234.025-.515.053-.841.086-1.506.151-4.027.4-6.267.813-3.3.6-4.418,1.267-4.772,1.717a.63.63,0,0,0-.156.488,3.7,3.7,0,0,0,1.293,2.339,2.93,2.93,0,0,0,1.3.7c.075,0,.967.059,3.159.2,8.192.541,29.954,1.978,35.59,1.978a6.786,6.786,0,0,0,1.21-.054,2.927,2.927,0,0,0,.773-2.626,12.067,12.067,0,0,0-2.979-1.193c-1.49-.5-3.511-1.139-6.007-1.888C454.384,299.761,450.312,298.616,450.008,298.531Z" transform="translate(-233.037 -163.733)" fill="#4045ab"/>
        <path id="Trazado_912102" data-name="Trazado 912102" d="M498.569,226.22a1.05,1.05,0,0,1,1.175,1.292c-1.574,6.6-8.7,36.357-9.466,37.12-.857.857-4.458,2.572-6,2.4a37.1,37.1,0,0,1-14.574-7.2c-5.486-4.629-9.087-9.6-8.744-12.687s2.229-5.83,3.944-6.173,8.573.171,14.574-1.714,10.973-4.972,13.716-8.745c2.058-2.829,3.826-4.018,5.377-4.292" transform="translate(-253.519 -124.415)" fill="#b8b8b8"/>
        <path id="Trazado_912103" data-name="Trazado 912103" d="M498.471,225.7a1.237,1.237,0,0,1,.972.48,1.289,1.289,0,0,1,.245,1.1c-.827,3.466-2.972,12.427-5.038,20.75-3.957,15.945-4.343,16.331-4.488,16.476a10.166,10.166,0,0,1-2.643,1.559,9.275,9.275,0,0,1-3.286.919,2.332,2.332,0,0,1-.256-.013,26.8,26.8,0,0,1-5.873-1.946,36.661,36.661,0,0,1-8.821-5.307,38.137,38.137,0,0,1-6.6-6.965,15.3,15.3,0,0,1-1.762-3.18,5.919,5.919,0,0,1-.464-2.739,9.816,9.816,0,0,1,1.493-4.213,4.6,4.6,0,0,1,2.631-2.155,20.779,20.779,0,0,1,2.716-.167,44.059,44.059,0,0,0,11.834-1.542c6.1-1.919,10.935-5,13.6-8.662,1.914-2.631,3.719-4.064,5.52-4.381A1.245,1.245,0,0,1,498.471,225.7Zm-8.631,38.5a34.9,34.9,0,0,0,1.566-5.249c.723-2.716,1.679-6.471,2.843-11.162,2.056-8.287,4.183-17.171,5-20.606a.842.842,0,0,0-.161-.721.776.776,0,0,0-.757-.3c-1.68.3-3.392,1.67-5.234,4.2a20.511,20.511,0,0,1-5.7,5.137,34.6,34.6,0,0,1-8.133,3.69,44.435,44.435,0,0,1-11.956,1.562,21.25,21.25,0,0,0-2.641.158c-1.5.3-3.414,2.828-3.764,5.977-.159,1.434.583,3.374,2.147,5.611a37.686,37.686,0,0,0,6.519,6.879,36.209,36.209,0,0,0,8.71,5.238,27.065,27.065,0,0,0,5.743,1.912,1.883,1.883,0,0,0,.206.011,8.86,8.86,0,0,0,3.1-.881A9.974,9.974,0,0,0,489.839,264.2Z" transform="translate(-253.244 -124.14)" fill="#4045ab"/>
        <path id="Trazado_912104" data-name="Trazado 912104" d="M516.75,277.924l-1.664,17.58,10.066,43.976a.577.577,0,0,1-1.115.3l-11.614-44.051-5.85-.222v-1.192l5.959-.447,3.333-16.109a.451.451,0,0,1,.886.168" transform="translate(-278.62 -152.571)" fill="#4045ab"/>
        <path id="Trazado_912105" data-name="Trazado 912105" d="M516.032,276.9a.676.676,0,0,1,.666.78l-1.66,17.537L525.1,339.152a.8.8,0,0,1-.776,1,.8.8,0,0,1-.774-.593L511.973,295.67l-5.684-.216a.225.225,0,0,1-.216-.225v-1.192a.225.225,0,0,1,.208-.224l5.79-.434,3.3-15.943a.675.675,0,0,1,.581-.533A.69.69,0,0,1,516.032,276.9ZM524.32,339.7a.352.352,0,0,0,.341-.442l0-.008L514.592,295.28a.227.227,0,0,1,0-.071l1.664-17.58c0-.006,0-.011,0-.017a.222.222,0,0,0-.05-.183.226.226,0,0,0-.394.1l-3.333,16.109a.225.225,0,0,1-.2.179l-5.751.431v.767l5.634.214a.225.225,0,0,1,.209.167l11.614,44.051A.352.352,0,0,0,524.32,339.7Z" transform="translate(-278.345 -152.296)" fill="#4045ab"/>
      </g>
    </g>
    <path id="Trazado_912106" data-name="Trazado 912106" d="M158.193,256.33l1.561,72.737h3.12l1.561-72.737Z" transform="translate(-87.008 -140.984)" fill="#fff"/>
    <g id="Grupo_1101209" data-name="Grupo 1101209">
      <g id="Grupo_1101208" data-name="Grupo 1101208" clip-path="url(#clip-path-4)">
        <path id="Trazado_912107" data-name="Trazado 912107" d="M162.6,329.017h-3.121a.225.225,0,0,1-.225-.22l-1.561-72.737a.225.225,0,0,1,.225-.23h6.241a.225.225,0,0,1,.225.23l-1.56,72.737A.225.225,0,0,1,162.6,329.017Zm-2.9-.45h2.68l1.55-72.287h-5.782Z" transform="translate(-86.732 -140.709)" fill="#4045ab"/>
      </g>
    </g>
    <path id="Trazado_912108" data-name="Trazado 912108" d="M158.291,260.891h6.046l.1-4.561h-6.241Z" transform="translate(-87.008 -140.984)" fill="#4045ab"/>
    <path id="Trazado_912109" data-name="Trazado 912109" d="M164.061,260.841h-6.046a.225.225,0,0,1-.225-.22l-.1-4.561a.225.225,0,0,1,.225-.23h6.241a.225.225,0,0,1,.225.23l-.1,4.561A.225.225,0,0,1,164.061,260.841Zm-5.825-.45h5.605l.088-4.111h-5.782Z" transform="translate(-86.733 -140.709)" fill="#4045ab"/>
    <path id="Trazado_912110" data-name="Trazado 912110" d="M451.6,256.33l1.561,72.737h3.121l1.561-72.737Z" transform="translate(-248.385 -140.984)" fill="#fff"/>
    <g id="Grupo_1101211" data-name="Grupo 1101211">
      <g id="Grupo_1101210" data-name="Grupo 1101210" clip-path="url(#clip-path-4)">
        <path id="Trazado_912111" data-name="Trazado 912111" d="M456.006,329.017h-3.121a.225.225,0,0,1-.225-.22L451.1,256.06a.225.225,0,0,1,.225-.23h6.242a.225.225,0,0,1,.225.23L456.231,328.8A.225.225,0,0,1,456.006,329.017Zm-2.9-.45h2.68l1.551-72.287h-5.782Z" transform="translate(-248.11 -140.709)" fill="#4045ab"/>
      </g>
    </g>
    <path id="Trazado_912112" data-name="Trazado 912112" d="M451.7,260.891h6.046l.1-4.561H451.6Z" transform="translate(-248.385 -140.984)" fill="#4045ab"/>
    <path id="Trazado_912113" data-name="Trazado 912113" d="M457.469,260.841h-6.046a.225.225,0,0,1-.225-.22l-.1-4.561a.225.225,0,0,1,.225-.23h6.241a.225.225,0,0,1,.225.23l-.1,4.561A.225.225,0,0,1,457.469,260.841Zm-5.825-.45h5.605l.088-4.111h-5.782Z" transform="translate(-248.11 -140.709)" fill="#4045ab"/>
    <rect id="Rectángulo_403107" data-name="Rectángulo 403107" width="142.327" height="7.575" transform="translate(69.055 109.792)" fill="#fff"/>
    <path id="Rectángulo_403108" data-name="Rectángulo 403108" d="M-.275-.5H142.052a.225.225,0,0,1,.225.225V7.3a.225.225,0,0,1-.225.225H-.275A.225.225,0,0,1-.5,7.3V-.275A.225.225,0,0,1-.275-.5Zm142.1.45H-.05V7.075H141.827Z" transform="translate(69.33 110.067)" fill="#4045ab"/>
    <rect id="Rectángulo_403109" data-name="Rectángulo 403109" width="142.327" height="3.787" transform="translate(69.055 109.793)" fill="#4045ab"/>
    <path id="Rectángulo_403110" data-name="Rectángulo 403110" d="M-.275-.5H142.052a.225.225,0,0,1,.225.225V3.512a.225.225,0,0,1-.225.225H-.275A.225.225,0,0,1-.5,3.512V-.275A.225.225,0,0,1-.275-.5Zm142.1.45H-.05V3.287H141.827Z" transform="translate(69.33 110.068)" fill="#4045ab"/>
    <rect id="Rectángulo_403111" data-name="Rectángulo 403111" width="148.526" height="2.879" transform="translate(65.956 109.793)" fill="#ffbd45"/>
    <path id="Rectángulo_403112" data-name="Rectángulo 403112" d="M-.275-.5H148.251a.225.225,0,0,1,.225.225V2.6a.225.225,0,0,1-.225.225H-.275A.225.225,0,0,1-.5,2.6V-.275A.225.225,0,0,1-.275-.5Zm148.3.45H-.05V2.379H148.026Z" transform="translate(66.231 110.068)" fill="#4045ab"/>
    <g id="Grupo_1101213" data-name="Grupo 1101213">
      <g id="Grupo_1101212" data-name="Grupo 1101212" clip-path="url(#clip-path-2)">
        <path id="Trazado_912114" data-name="Trazado 912114" d="M329.986,173.409a15.71,15.71,0,0,0,2.254,1.771c.483.161,1.395.376,1.395.376l1.02.215L332.4,172.5Z" transform="translate(-181.496 -94.875)" fill="#fff"/>
        <path id="Trazado_912115" data-name="Trazado 912115" d="M332.126,172a.225.225,0,0,1,.185.1l2.254,3.273a.225.225,0,0,1-.232.348l-1.02-.215h-.005c-.038-.009-.928-.219-1.415-.381a14.072,14.072,0,0,1-2.334-1.818.225.225,0,0,1,.072-.377l2.415-.912A.225.225,0,0,1,332.126,172Zm1.749,3.162-1.834-2.664-1.9.719a11.933,11.933,0,0,0,1.9,1.478c.455.152,1.319.357,1.373.37Z" transform="translate(-181.221 -94.6)" fill="#4045ab"/>
        <path id="Trazado_912116" data-name="Trazado 912116" d="M308.731,146.809l20.9,21.891,6.61-2.914L322.306,146.1Z" transform="translate(-169.805 -80.355)" fill="#b8b8b8"/>
        <path id="Trazado_912117" data-name="Trazado 912117" d="M322.031,145.6a.225.225,0,0,1,.184.1l13.931,19.688a.225.225,0,0,1-.093.336l-6.61,2.914a.225.225,0,0,1-.254-.051l-20.9-21.891a.225.225,0,0,1,.151-.38l13.575-.711Zm13.588,19.818-13.7-19.362-12.962.678,20.449,21.422Z" transform="translate(-169.53 -80.08)" fill="#4045ab"/>
        <path id="Trazado_912118" data-name="Trazado 912118" d="M313.539,148.434l13.448,14.7,8.174-1.055-10.68-14.437Z" transform="translate(-172.45 -81.205)" fill="#fff"/>
        <path id="Trazado_912119" data-name="Trazado 912119" d="M324.207,147.143a.225.225,0,0,1,.181.091l10.68,14.437a.225.225,0,0,1-.152.357l-8.174,1.055a.225.225,0,0,1-.195-.071l-13.448-14.7a.225.225,0,0,1,.15-.376l10.943-.791Zm10.271,14.488L324.1,147.6l-10.356.749L326.8,162.622Z" transform="translate(-172.174 -80.93)" fill="#4045ab"/>
        <path id="Trazado_912120" data-name="Trazado 912120" d="M324,164.541a5.582,5.582,0,0,1-.5-.843,10.882,10.882,0,0,1,.257-1.694c.077-.231.308-.308.513.154a2.256,2.256,0,0,1,.18,1.078,5.1,5.1,0,0,0,.205.8l-.513.719Z" transform="translate(-177.923 -89.003)" fill="#fff"/>
        <path id="Trazado_912121" data-name="Trazado 912121" d="M323.86,164.7h0a.225.225,0,0,1-.184-.1l-.136-.207a4.045,4.045,0,0,1-.54-.932,10.018,10.018,0,0,1,.265-1.8.443.443,0,0,1,.406-.338c.144,0,.353.082.526.471a2.484,2.484,0,0,1,.2,1.2,6.928,6.928,0,0,0,.2.7.225.225,0,0,1-.031.2l-.513.719A.225.225,0,0,1,323.86,164.7Zm-.419-1.316a5.69,5.69,0,0,0,.426.694l.258-.361c-.2-.651-.193-.755-.173-.817a2.153,2.153,0,0,0-.169-.926.783.783,0,0,0-.1-.168A12.331,12.331,0,0,0,323.441,163.385Z" transform="translate(-177.649 -88.728)" fill="#4045ab"/>
        <path id="Trazado_912122" data-name="Trazado 912122" d="M325.615,167.17a7.693,7.693,0,0,1-1-1.368,10.058,10.058,0,0,1,.6-1.394c.027-.079,1.341-.158,1.552-.237s.657-.131.552.211a1.121,1.121,0,0,1-.631.736,3.486,3.486,0,0,0-.657.368l-.079.369.368.526" transform="translate(-178.542 -90.264)" fill="#fff"/>
        <path id="Trazado_912123" data-name="Trazado 912123" d="M325.341,167.121a.224.224,0,0,1-.17-.078c-.01-.012-.256-.3-.506-.612-.506-.64-.548-.792-.548-.9a4.338,4.338,0,0,1,.516-1.26c.045-.092.092-.187.1-.211.056-.155.223-.179.434-.21.151-.022.35-.044.543-.065a7.077,7.077,0,0,0,.708-.1.793.793,0,0,1,.755.049.4.4,0,0,1,.091.438,1.347,1.347,0,0,1-.769.881,2.949,2.949,0,0,0-.533.291l-.04.185.312.446a.225.225,0,0,1-.369.258l-.368-.526a.225.225,0,0,1-.036-.176l.079-.369a.225.225,0,0,1,.089-.136,3.677,3.677,0,0,1,.711-.4.9.9,0,0,0,.486-.569.716.716,0,0,0-.251.044,4.861,4.861,0,0,1-.816.122c-.211.023-.512.056-.649.082l-.076.155a9.605,9.605,0,0,0-.467,1.049,9.52,9.52,0,0,0,.942,1.233.225.225,0,0,1-.17.372Z" transform="translate(-178.267 -89.99)" fill="#4045ab"/>
        <path id="Trazado_912124" data-name="Trazado 912124" d="M327.138,168.7a8.605,8.605,0,0,1-1.12-1.534,11.311,11.311,0,0,1,.678-1.563c.03-.088,1.5-.177,1.74-.266s.738-.147.62.236a1.258,1.258,0,0,1-.708.826,3.9,3.9,0,0,0-.737.413l-.089.413.413.59" transform="translate(-179.313 -90.902)" fill="#fff"/>
        <path id="Trazado_912125" data-name="Trazado 912125" d="M326.864,168.651a.224.224,0,0,1-.17-.078s-.286-.332-.566-.686c-.562-.71-.609-.881-.609-1a4.881,4.881,0,0,1,.575-1.4c.052-.106.106-.215.116-.241.057-.159.237-.185.465-.218.168-.024.391-.049.606-.072a7.73,7.73,0,0,0,.8-.11.865.865,0,0,1,.819.05.425.425,0,0,1,.094.463,1.485,1.485,0,0,1-.846.971,3.332,3.332,0,0,0-.613.336l-.049.229.356.51a.225.225,0,1,1-.369.258l-.413-.59a.225.225,0,0,1-.036-.176l.089-.413a.225.225,0,0,1,.089-.136,4.083,4.083,0,0,1,.791-.441,1.032,1.032,0,0,0,.57-.681l0-.007a.766.766,0,0,0-.328.048,5.461,5.461,0,0,1-.91.136c-.243.027-.592.065-.741.095l-.092.188a10.282,10.282,0,0,0-.527,1.188,9.811,9.811,0,0,0,1.063,1.4.225.225,0,0,1-.17.372Z" transform="translate(-179.038 -90.628)" fill="#4045ab"/>
        <path id="Trazado_912126" data-name="Trazado 912126" d="M329.34,171.227a14.794,14.794,0,0,1-1.356-1.563,13.926,13.926,0,0,1,.707-1.475s2.743-.442,2.89-.413.236.206-.206.619a3.261,3.261,0,0,1-1.357.59c-.177.059-.206.825-.206.825l.826,1.032" transform="translate(-180.394 -92.278)" fill="#fff"/>
        <path id="Trazado_912127" data-name="Trazado 912127" d="M329.065,171.178a.224.224,0,0,1-.163-.069s-.345-.36-.682-.73c-.737-.809-.737-.888-.737-.988,0-.065,0-.146.378-.894.176-.348.354-.683.356-.686a.225.225,0,0,1,.163-.116c.007,0,.695-.112,1.392-.218a7.775,7.775,0,0,1,1.578-.193.361.361,0,0,1,.287.254c.059.208-.066.454-.384.751a2.976,2.976,0,0,1-1.308.6l-.087.022a2.189,2.189,0,0,0-.092.551l.772.965a.225.225,0,1,1-.351.281l-.826-1.032a.225.225,0,0,1-.049-.149c0-.008.008-.206.039-.415.039-.264.108-.544.321-.615.04-.013.095-.027.164-.044a2.6,2.6,0,0,0,1.111-.5,1.506,1.506,0,0,0,.2-.221c-.4.043-1.537.215-2.585.383-.263.5-.542,1.055-.615,1.247.144.21.749.877,1.28,1.43a.225.225,0,0,1-.162.381Z" transform="translate(-180.119 -92.004)" fill="#4045ab"/>
        <path id="Trazado_912128" data-name="Trazado 912128" d="M302.019,174.844a12.407,12.407,0,0,0-2.23,1.066c-.873.582-2.327,1.358-2.327,1.358l-1.494,5.109a6.278,6.278,0,0,1,3.239,1.1c1.455,1.066,4.557.776,5.333.291s1.842-4.266.873-5.139-3.393-3.781-3.393-3.781" transform="translate(-162.785 -96.166)" fill="#fff"/>
        <path id="Trazado_912129" data-name="Trazado 912129" d="M301.744,174.344a.225.225,0,0,1,.173.081c.024.029,2.425,2.906,3.371,3.758a2.469,2.469,0,0,1,.439,1.953,8.693,8.693,0,0,1-.491,2.148,3.143,3.143,0,0,1-.853,1.4,5.613,5.613,0,0,1-2.531.47,5.511,5.511,0,0,1-3.055-.771,6.075,6.075,0,0,0-3.11-1.052.225.225,0,0,1-.212-.288l1.494-5.109a.225.225,0,0,1,.11-.135c.014-.008,1.455-.777,2.308-1.346a12.474,12.474,0,0,1,2.279-1.091A.224.224,0,0,1,301.744,174.344Zm.11,9.356a5.271,5.271,0,0,0,2.292-.4,2.636,2.636,0,0,0,.669-1.17,8.223,8.223,0,0,0,.465-2.032,2.053,2.053,0,0,0-.292-1.579c-.868-.781-2.836-3.113-3.313-3.682a11.6,11.6,0,0,0-2.035.987c-.762.508-1.938,1.149-2.262,1.324l-1.389,4.749a6.4,6.4,0,0,1,3.078,1.121A5.081,5.081,0,0,0,301.854,183.7Z" transform="translate(-162.51 -95.891)" fill="#4045ab"/>
        <path id="Trazado_912130" data-name="Trazado 912130" d="M315.307,180.694l-2.715-.873s-2.036-1.357-2.521-1.551a10.765,10.765,0,0,0-2.23-.194s-4.654,6.69-4.848,7.175-.291,1.551.388,1.745a5.934,5.934,0,0,0,2.327-.388,5.194,5.194,0,0,0,2.521.582,20.707,20.707,0,0,0,3.878-2.23l3.393-.1Z" transform="translate(-166.571 -97.944)" fill="#fff"/>
        <path id="Trazado_912131" data-name="Trazado 912131" d="M307.566,177.576a10.261,10.261,0,0,1,2.314.21c.476.19,2.285,1.389,2.536,1.555l2.685.863a.225.225,0,0,1,.156.2l.194,4.17a.225.225,0,0,1-.218.235l-3.326.095A19.39,19.39,0,0,1,308,187.135a1.979,1.979,0,0,1-.386.035,5.991,5.991,0,0,1-2.194-.6,7.523,7.523,0,0,1-1.97.41,1.471,1.471,0,0,1-.4-.048.875.875,0,0,1-.553-.474,2.17,2.17,0,0,1,.018-1.571c.2-.495,4.394-6.533,4.872-7.22A.225.225,0,0,1,307.566,177.576Zm7.248,3.009-2.566-.825a.225.225,0,0,1-.056-.027c-.561-.374-2.1-1.378-2.48-1.529a9.339,9.339,0,0,0-2.029-.177c-1.864,2.681-4.622,6.7-4.756,7.033a1.742,1.742,0,0,0-.032,1.206.425.425,0,0,0,.273.239,1.053,1.053,0,0,0,.281.031,7.622,7.622,0,0,0,1.909-.415.225.225,0,0,1,.176.011,5.87,5.87,0,0,0,2.078.589,1.53,1.53,0,0,0,.3-.027A19.308,19.308,0,0,0,311.7,184.5a.225.225,0,0,1,.123-.041l3.164-.09Z" transform="translate(-166.295 -97.669)" fill="#4045ab"/>
        <path id="Trazado_912132" data-name="Trazado 912132" d="M307.865,176.2s2.133,3.3,2.909,3.393,1.551-.388.97-1.454-1.26-2.715-1.648-3.587-1.939-.873-2.618.582" transform="translate(-169.115 -95.675)" fill="#fff"/>
        <path id="Trazado_912133" data-name="Trazado 912133" d="M310.7,179.551a1.815,1.815,0,0,1-.226-.014c-.249-.031-.716-.254-1.9-1.821-.628-.833-1.167-1.665-1.173-1.674a.225.225,0,0,1,.378-.244c.005.008.537.829,1.156,1.649,1.144,1.518,1.527,1.635,1.592,1.643a.878.878,0,0,0,.838-.268.862.862,0,0,0-.093-.856c-.456-.835-.975-2.036-1.355-2.913-.11-.255-.214-.495-.3-.691a.829.829,0,0,0-.788-.462,1.617,1.617,0,0,0-1.421,1.047.225.225,0,1,1-.408-.19,2.059,2.059,0,0,1,1.833-1.307,1.283,1.283,0,0,1,1.195.729c.088.2.192.439.3.695.376.869.891,2.059,1.337,2.876a1.205,1.205,0,0,1,.07,1.325A1.228,1.228,0,0,1,310.7,179.551Z" transform="translate(-168.84 -95.4)" fill="#4045ab"/>
        <path id="Trazado_912134" data-name="Trazado 912134" d="M320.915,189.761a1.47,1.47,0,0,0-.117,1.7c.235.4.5.818.6.818a.972.972,0,0,0,.945-1.009c-.052-.663-.656-2.37-1.43-1.5" transform="translate(-176.325 -104.239)" fill="#fff"/>
        <path id="Trazado_912135" data-name="Trazado 912135" d="M321.067,189.022h0c.338,0,.648.277.9.8a3.65,3.65,0,0,1,.327,1.151,1.077,1.077,0,0,1-.275.838,1.373,1.373,0,0,1-.894.413c-.154,0-.275-.13-.433-.354-.1-.141-.221-.335-.362-.575a1.685,1.685,0,0,1,.143-1.959A.809.809,0,0,1,321.067,189.022Zm.11,2.747a.964.964,0,0,0,.508-.262.623.623,0,0,0,.157-.5c-.044-.564-.444-1.536-.775-1.536h0a.421.421,0,0,0-.262.165,1.248,1.248,0,0,0-.091,1.431A4.647,4.647,0,0,0,321.177,191.768Z" transform="translate(-176.047 -103.964)" fill="#4045ab"/>
        <path id="Trazado_912136" data-name="Trazado 912136" d="M318.39,192.506a1.47,1.47,0,0,0-.117,1.7c.235.4.5.818.6.818a.972.972,0,0,0,.945-1.009c-.052-.663-.656-2.37-1.429-1.5" transform="translate(-174.936 -105.749)" fill="#fff"/>
        <path id="Trazado_912137" data-name="Trazado 912137" d="M318.542,191.767h0c.338,0,.648.277.9.8a3.65,3.65,0,0,1,.327,1.151,1.077,1.077,0,0,1-.275.838,1.373,1.373,0,0,1-.894.413c-.155,0-.272-.125-.433-.354-.1-.141-.221-.334-.362-.575a1.685,1.685,0,0,1,.143-1.959A.808.808,0,0,1,318.542,191.767Zm.11,2.747a.964.964,0,0,0,.508-.262.623.623,0,0,0,.157-.5c-.044-.564-.444-1.536-.775-1.536h0a.42.42,0,0,0-.262.164,1.248,1.248,0,0,0-.091,1.431A4.675,4.675,0,0,0,318.652,194.513Z" transform="translate(-174.659 -105.473)" fill="#4045ab"/>
        <path id="Trazado_912138" data-name="Trazado 912138" d="M315.561,195.328a1.187,1.187,0,0,0-.094,1.368c.19.324.406.661.485.661a.785.785,0,0,0,.763-.814c-.042-.535-.53-1.912-1.154-1.214" transform="translate(-173.415 -107.326)" fill="#fff"/>
        <path id="Trazado_912139" data-name="Trazado 912139" d="M315.632,194.634h0c.644,0,.994,1.14,1.031,1.615a.912.912,0,0,1-.234.71,1.151,1.151,0,0,1-.754.347c-.16,0-.29-.107-.679-.772a1.4,1.4,0,0,1,.121-1.632A.694.694,0,0,1,315.632,194.634Zm.105,2.213a.722.722,0,0,0,.363-.195.462.462,0,0,0,.115-.368c-.036-.463-.361-1.2-.582-1.2a.292.292,0,0,0-.179.118.963.963,0,0,0-.068,1.1A4.289,4.289,0,0,0,315.737,196.847Z" transform="translate(-173.139 -107.051)" fill="#4045ab"/>
        <path id="Trazado_912140" data-name="Trazado 912140" d="M313.075,196.569a.908.908,0,0,0-.072,1.048c.145.248.311.505.372.505a.6.6,0,0,0,.584-.623c-.032-.41-.405-1.465-.883-.93" transform="translate(-172.082 -108.033)" fill="#fff"/>
        <path id="Trazado_912141" data-name="Trazado 912141" d="M313.064,195.921h0c.559,0,.816.956.842,1.285a.749.749,0,0,1-.192.583.94.94,0,0,1-.616.283c-.151,0-.259-.093-.566-.617a1.128,1.128,0,0,1,.1-1.311A.581.581,0,0,1,313.064,195.921Zm.1,1.688a.474.474,0,0,0,.222-.129.3.3,0,0,0,.07-.238,1.92,1.92,0,0,0-.168-.584c-.113-.238-.206-.286-.225-.286s-.046.015-.1.073a.684.684,0,0,0-.046.784A3.846,3.846,0,0,0,313.165,197.608Z" transform="translate(-171.806 -107.758)" fill="#4045ab"/>
        <path id="Trazado_912142" data-name="Trazado 912142" d="M295.917,178.155l-1.234,6.627-2.355-.1,1.438-7.139Z" transform="translate(-160.783 -97.649)" fill="#f6ccb3"/>
        <path id="Trazado_912143" data-name="Trazado 912143" d="M293.491,177.041a.226.226,0,0,1,.062.009l2.151.614a.225.225,0,0,1,.159.258l-1.234,6.627a.225.225,0,0,1-.231.184l-2.355-.1a.225.225,0,0,1-.211-.269l1.438-7.139a.225.225,0,0,1,.221-.181Zm1.892,1-1.719-.491-1.338,6.642,1.9.082Z" transform="translate(-160.508 -97.374)" fill="#4045ab"/>
        <path id="Trazado_912144" data-name="Trazado 912144" d="M283.012,169.951s-1.131,8.266-1.746,8.983-8.908-1.536-9.318-1.638.512-11.878.512-11.878,9.63,4.125,10.552,4.534" transform="translate(-149.516 -90.981)" fill="#f6ccb3"/>
        <path id="Trazado_912145" data-name="Trazado 912145" d="M272.185,164.917a.225.225,0,0,1,.089.018c.1.041,9.642,4.13,10.555,4.535a.225.225,0,0,1,.132.236c0,.021-.287,2.094-.643,4.229-.209,1.256-.4,2.287-.574,3.065a4.7,4.7,0,0,1-.581,1.8c-.13.151-.381.219-.814.219a46.112,46.112,0,0,1-8.518-1.73l-.211-.055c-.2-.051-.246-.272-.266-.749-.013-.32-.013-.782,0-1.375.026-.992.091-2.367.2-4.086.177-2.925.408-5.875.41-5.9a.225.225,0,0,1,.224-.207Zm10.306,4.9c-1.367-.6-8.567-3.682-10.105-4.341-.061.8-.228,3.033-.368,5.3-.1,1.658-.17,3.011-.2,4.023a13.26,13.26,0,0,0,.017,2.03l.113.03a46.739,46.739,0,0,0,8.4,1.716.961.961,0,0,0,.475-.065,5.234,5.234,0,0,0,.481-1.6c.169-.771.361-1.795.569-3.042C282.169,172.085,282.416,170.349,282.49,169.813Z" transform="translate(-149.241 -90.706)" fill="#4045ab"/>
        <path id="Trazado_912146" data-name="Trazado 912146" d="M354.915,48.388s-1.507,3.5-1.507,4.884a18.15,18.15,0,0,1-.241,4.522c-.362,1.085-2.11,1.688-1.688,2.593a3.691,3.691,0,0,0,1.628,1.447s.844,4.342,1.327,5.668,1.266,1.507,1.99,1.387,2.593-.6,2.593-.6l1.386,7.175,9.1-5.065L368,65.693s2.592-4.522-.181-10.853-8.742-10.13-12.9-6.452" transform="translate(-193.281 -25.821)" fill="#fff"/>
        <path id="Trazado_912147" data-name="Trazado 912147" d="M358.308,46.447h0a6.811,6.811,0,0,1,2.718.6,10.321,10.321,0,0,1,2.594,1.666,14.583,14.583,0,0,1,2.3,2.536,17.64,17.64,0,0,1,1.831,3.224,15.3,15.3,0,0,1,1.216,4.432A13.137,13.137,0,0,1,368.9,62.4a10.256,10.256,0,0,1-.928,3.04l1.478,4.612a.225.225,0,0,1-.1.265l-9.1,5.065a.225.225,0,0,1-.33-.154l-1.341-6.941c-.526.133-1.8.451-2.38.548a2.409,2.409,0,0,1-.394.034c-.846,0-1.467-.527-1.845-1.566-.445-1.225-1.177-4.891-1.314-5.592a3.735,3.735,0,0,1-1.633-1.5.912.912,0,0,1,.1-.932,4.1,4.1,0,0,1,.679-.718,2.991,2.991,0,0,0,.9-1.109,13.315,13.315,0,0,0,.239-3.591c0-.305-.009-.593-.009-.86,0-1.417,1.464-4.828,1.526-4.973a.225.225,0,0,1,.058-.08A5.637,5.637,0,0,1,358.308,46.447Zm10.653,23.568-1.451-4.528a.225.225,0,0,1,.019-.181,9.587,9.587,0,0,0,.926-3,13.751,13.751,0,0,0-1.118-7.654,15.686,15.686,0,0,0-4.011-5.6,7.862,7.862,0,0,0-5.018-2.159h0a5.189,5.189,0,0,0-3.481,1.352A19.817,19.817,0,0,0,353.358,53c0,.263,0,.55.009.853a13.271,13.271,0,0,1-.262,3.741,3.352,3.352,0,0,1-1.026,1.3c-.522.474-.833.783-.672,1.127a3.47,3.47,0,0,0,1.517,1.337.225.225,0,0,1,.129.162c.008.043.846,4.339,1.317,5.634.414,1.138,1.01,1.27,1.422,1.27a1.957,1.957,0,0,0,.32-.028c.706-.118,2.555-.594,2.574-.6a.225.225,0,0,1,.277.175l1.328,6.87Z" transform="translate(-193.006 -25.546)" fill="#4045ab"/>
        <path id="Trazado_912148" data-name="Trazado 912148" d="M357.592,64.782a.225.225,0,0,1-.2-.327,1.494,1.494,0,0,1,.786-.687,1.207,1.207,0,0,1,.947.107.225.225,0,0,1-.206.4.721.721,0,0,0-.817.032,1.163,1.163,0,0,0-.309.353A.226.226,0,0,1,357.592,64.782Z" transform="translate(-196.555 -35.044)" fill="#4045ab"/>
        <path id="Trazado_912149" data-name="Trazado 912149" d="M359.9,68.741c0,.5-.188.9-.419.9s-.419-.4-.419-.9.188-.9.419-.9.419.4.419.9" transform="translate(-197.488 -37.311)" fill="#4045ab"/>
        <path id="Trazado_912150" data-name="Trazado 912150" d="M358.251,80.282a.225.225,0,0,1-.006-.45c.023,0,2.257-.076,3.263-1.417a.225.225,0,0,1,.36.27,5.124,5.124,0,0,1-3.611,1.6Z" transform="translate(-196.918 -43.08)" fill="#4045ab"/>
        <path id="Trazado_912151" data-name="Trazado 912151" d="M377.955,94.885s-10.375,6.3-10.762,6.787-.679,3.685-.679,3.685l12.992-8.532Z" transform="translate(-201.586 -52.188)" fill="#fff"/>
        <path id="Trazado_912152" data-name="Trazado 912152" d="M377.68,94.385a.225.225,0,0,1,.176.084l1.551,1.939a.225.225,0,0,1-.052.329l-12.992,8.532a.225.225,0,0,1-.348-.208c0-.008.075-.815.2-1.671a5.022,5.022,0,0,1,.532-2.133c.073-.091.267-.333,5.584-3.626,2.613-1.618,5.211-3.2,5.237-3.213A.224.224,0,0,1,377.68,94.385ZM378.9,96.5l-1.273-1.592c-.615.374-2.811,1.712-5.027,3.084-4.707,2.914-5.422,3.453-5.509,3.55a5.427,5.427,0,0,0-.436,1.912c-.062.443-.112.873-.146,1.183Z" transform="translate(-201.311 -51.913)" fill="#4045ab"/>
        <path id="Trazado_912153" data-name="Trazado 912153" d="M355.949,286.154s-.846,6.13-.528,7.822,10.569,32.862,10.675,33.919,1.057,5.919,1.057,5.919a39.294,39.294,0,0,0-2.537,5.179c-.423,1.48-2.326,3.065-3.065,3.594s-3.171,1.48-3.488,1.9.747.339,1.43.487a24.389,24.389,0,0,0,3.221.041,17.5,17.5,0,0,0,3.805-.211c.846-.317,2.008-3.488,2.537-4.122a2.925,2.925,0,0,1,1.374-.846l-.951,5.39h1.48s1.057-4.333,1.48-5.813.951-2.325.317-3.8a22.15,22.15,0,0,0-1.9-3.277s-.423-11.838-.317-12.367-.74-10.887-1.057-13.635-2.643-10.032-2.749-10.666.634-7.822.634-7.822Z" transform="translate(-195.446 -157.388)" fill="#b8b8b8"/>
        <path id="Trazado_912154" data-name="Trazado 912154" d="M355.675,285.654l.033,0,11.415,1.691a.225.225,0,0,1,.191.246c-.3,2.877-.71,7.318-.636,7.762.028.169.253.937.537,1.91a75.414,75.414,0,0,1,2.213,8.767c.288,2.5,1.174,13.1,1.054,13.7-.072.415.151,7.526.319,12.248a21.722,21.722,0,0,1,1.887,3.263,3.942,3.942,0,0,1-.072,3.2c-.078.24-.158.487-.236.758-.417,1.459-1.467,5.762-1.477,5.8a.225.225,0,0,1-.219.172H369.2a.225.225,0,0,1-.222-.264l.884-5.01a2.478,2.478,0,0,0-.912.648,9.718,9.718,0,0,0-.743,1.374c-.739,1.511-1.307,2.6-1.887,2.815a9.932,9.932,0,0,1-2.787.242c-.574,0-1.029-.014-1.1-.017-.094,0-.934.037-1.747.037a8.741,8.741,0,0,1-1.522-.083,5.984,5.984,0,0,0-.633-.085c-.516-.052-.889-.089-1-.35a.389.389,0,0,1,.074-.407,6.949,6.949,0,0,1,1.915-1.1,14.054,14.054,0,0,0,1.622-.852c.864-.617,2.6-2.136,2.98-3.472a37.243,37.243,0,0,1,2.516-5.156c-.129-.664-.945-4.866-1.044-5.858-.051-.509-2.845-9.2-5.31-16.866-2.676-8.321-5.2-16.181-5.362-17.034-.32-1.708.492-7.642.527-7.894a.225.225,0,0,1,.223-.194Zm11.17,2.107-10.977-1.626c-.147,1.118-.773,6.069-.5,7.524.155.825,2.795,9.037,5.348,16.979,3.186,9.908,5.278,16.441,5.329,16.959.1,1.035,1.044,5.85,1.054,5.9a.225.225,0,0,1-.026.155,39.35,39.35,0,0,0-2.516,5.129c-.52,1.82-3.044,3.638-3.151,3.715a13.865,13.865,0,0,1-1.688.892,11.4,11.4,0,0,0-1.711.921,4.561,4.561,0,0,0,.575.081,6.293,6.293,0,0,1,.683.093,8.115,8.115,0,0,0,1.427.073c.85,0,1.728-.036,1.737-.037h.017s.478.017,1.09.017a10.045,10.045,0,0,0,2.629-.214c.457-.172,1.17-1.628,1.641-2.591a9.386,9.386,0,0,1,.8-1.464,3.136,3.136,0,0,1,1.492-.92.225.225,0,0,1,.276.257l-.9,5.126h1.035c.2-.821,1.069-4.351,1.44-5.65.079-.278.161-.53.24-.773a3.542,3.542,0,0,0,.086-2.881,22.052,22.052,0,0,0-1.88-3.236.225.225,0,0,1-.041-.122c-.043-1.214-.421-11.88-.313-12.419.087-.537-.728-10.693-1.059-13.565a75.365,75.365,0,0,0-2.2-8.692c-.339-1.161-.518-1.775-.549-1.962C366.133,294.825,366.707,289.106,366.844,287.761Z" transform="translate(-195.171 -157.113)" fill="#4045ab"/>
        <path id="Trazado_912155" data-name="Trazado 912155" d="M368.707,288.8s1.2,8.91,1.889,12.655,3.427,28.483,3.25,30.721a26.222,26.222,0,0,1-.387,3.185s-3.01,6.311-3.7,7.034-1.867,2.272-2.569,2.408-3.349.569-2.743,1.259,7.074.756,8.475.366,3.2-3.376,3.782-3.744l.578-.368.457,3.986,1.527-.04a23.4,23.4,0,0,0,1.136-6.026,12.266,12.266,0,0,0-1.539-4.9s1.553-8.036,2.47-13.469,2.574-9.474,1.406-13.676a50.867,50.867,0,0,1-1.606-7.483c-.009-.353.694-12.586.694-12.586s-10.025,2.241-13.123.675" transform="translate(-200.402 -158.469)" fill="#fff"/>
        <path id="Trazado_912156" data-name="Trazado 912156" d="M381.555,287.621a.225.225,0,0,1,.225.238c-.2,3.393-.7,12.264-.694,12.567a50.83,50.83,0,0,0,1.6,7.428c.87,3.129.2,6.167-.575,9.684-.286,1.3-.582,2.638-.826,4.09-.857,5.082-2.289,12.532-2.455,13.393a12.194,12.194,0,0,1,1.527,4.931,23.261,23.261,0,0,1-1.147,6.1.225.225,0,0,1-.208.155l-1.527.04a.225.225,0,0,1-.229-.2l-.416-3.629-.275.175a6.976,6.976,0,0,0-.891,1.023c-.825,1.042-1.955,2.47-2.951,2.747a16.645,16.645,0,0,1-3.454.246c-1.2,0-2.355-.052-3.263-.148-1.5-.157-1.852-.379-1.987-.533a.49.49,0,0,1-.12-.5c.174-.5,1.251-.8,2.813-1.095l.177-.033c.464-.09,1.295-1.038,1.9-1.73.2-.227.387-.441.548-.612a70.39,70.39,0,0,0,3.645-6.952,27.779,27.779,0,0,0,.377-3.13c.076-.966-.422-6.619-1.3-14.754-.806-7.463-1.625-14.153-1.946-15.909-.679-3.707-1.879-12.576-1.891-12.665a.225.225,0,0,1,.324-.231,8.062,8.062,0,0,0,3.4.531,54.33,54.33,0,0,0,9.57-1.225A.225.225,0,0,1,381.555,287.621Zm-2.726,58.141a22.4,22.4,0,0,0,1.077-5.8,12.1,12.1,0,0,0-1.509-4.791.225.225,0,0,1-.026-.156c.016-.08,1.563-8.1,2.469-13.463.247-1.463.543-2.809.831-4.112.762-3.458,1.421-6.445.581-9.466a51.152,51.152,0,0,1-1.615-7.537c-.009-.331.568-10.4.677-12.31a53.213,53.213,0,0,1-9.377,1.174,9.844,9.844,0,0,1-3.228-.417c.241,1.765,1.239,9,1.834,12.252.366,2,1.258,9.533,1.951,15.942.335,3.1,1.42,13.346,1.3,14.838a26.235,26.235,0,0,1-.392,3.216.225.225,0,0,1-.017.048c-.124.259-3.033,6.351-3.736,7.092-.155.164-.34.375-.536.6-.721.823-1.538,1.756-2.154,1.875l-.18.034a15.966,15.966,0,0,0-1.578.357c-.853.256-.893.444-.893.445a.123.123,0,0,0,.033.053c.02.023.24.23,1.7.382.894.094,2.036.145,3.216.145a16.912,16.912,0,0,0,3.333-.23c.855-.238,1.932-1.6,2.719-2.593a5.99,5.99,0,0,1,1-1.124l.578-.368a.225.225,0,0,1,.344.164l.434,3.781Z" transform="translate(-200.127 -158.194)" fill="#4045ab"/>
        <path id="Trazado_912157" data-name="Trazado 912157" d="M380.405,399.785a10.059,10.059,0,0,0-.817-3.388c-.154.055-.309.109-.479.177-1.823.726-4.59,4.289-6.868,6.191a6.14,6.14,0,0,1-4.664,1.48l-.056-.034a1.051,1.051,0,0,1-.328.141c-.7.136-3.349.569-2.743,1.259s7.074.756,8.475.366,3.2-3.376,3.782-3.743l.578-.368.457,3.986,1.528-.04a23.4,23.4,0,0,0,1.136-6.026" transform="translate(-200.402 -218.022)" fill="#4045ab"/>
        <path id="Trazado_912158" data-name="Trazado 912158" d="M379.314,395.9a.225.225,0,0,1,.208.14,10.02,10.02,0,0,1,.833,3.467,23.261,23.261,0,0,1-1.147,6.1.225.225,0,0,1-.208.155l-1.528.04h-.006a.225.225,0,0,1-.223-.2l-.416-3.629-.275.175a6.975,6.975,0,0,0-.891,1.023c-.825,1.043-1.955,2.47-2.952,2.747a16.633,16.633,0,0,1-3.455.246c-1.2,0-2.354-.052-3.263-.148-1.5-.157-1.852-.38-1.987-.533a.49.49,0,0,1-.12-.5c.174-.5,1.249-.8,2.809-1.094l.18-.034a.84.84,0,0,0,.255-.113.225.225,0,0,1,.233,0l.017.011a4.062,4.062,0,0,0,.526.031,6.128,6.128,0,0,0,3.916-1.467c.863-.721,1.814-1.7,2.734-2.647,1.556-1.6,3.025-3.115,4.195-3.581.165-.066.316-.119.461-.171l.026-.009A.224.224,0,0,1,379.314,395.9Zm-.485,9.418a22.4,22.4,0,0,0,1.077-5.8,9.657,9.657,0,0,0-.72-3.109c-.086.031-.175.065-.268.1-1.081.43-2.584,1.979-4.039,3.476-.928.955-1.887,1.943-2.768,2.679a6.579,6.579,0,0,1-4.2,1.572,4.039,4.039,0,0,1-.643-.043l-.01,0a1.093,1.093,0,0,1-.293.108l-.183.035a15.974,15.974,0,0,0-1.575.357c-.851.255-.892.443-.892.445h0a.124.124,0,0,0,.033.053c.02.023.24.23,1.7.383.893.094,2.036.145,3.216.145a16.9,16.9,0,0,0,3.334-.23c.855-.238,1.933-1.6,2.719-2.593a5.991,5.991,0,0,1,1-1.124l.578-.368a.225.225,0,0,1,.344.164l.433,3.781Z" transform="translate(-200.127 -217.747)" fill="#4045ab"/>
        <path id="Trazado_912159" data-name="Trazado 912159" d="M349.753,208.452l.94,9.52-2.586,27.986s9.4,4,17.16,3.526,11.989-2.7,11.989-2.7-1.058-20.581-.94-21.757,1.528-5.759.353-10.931a27.981,27.981,0,0,0-2.351-7.17s-16.338,4.232-24.565,1.528" transform="translate(-191.462 -113.81)" fill="#4045ab"/>
        <path id="Trazado_912160" data-name="Trazado 912160" d="M374.043,206.424a.225.225,0,0,1,.194.111c.049.083,1.207,2.088,2.376,7.234a20.39,20.39,0,0,1,.417,5.9,31.536,31.536,0,0,1-.593,4.135c-.084.427-.151.764-.172.972-.114,1.145.931,21.517.941,21.723a.225.225,0,0,1-.12.211,19.364,19.364,0,0,1-3.125,1.192,39.158,39.158,0,0,1-8.956,1.537c-.425.026-.869.039-1.319.039a31.989,31.989,0,0,1-5.668-.561,50.028,50.028,0,0,1-5.123-1.231,52.746,52.746,0,0,1-5.152-1.791.225.225,0,0,1-.136-.228l2.584-27.965-.938-9.5a.225.225,0,0,1,.294-.236,22.929,22.929,0,0,0,6.985.891,69.9,69.9,0,0,0,11.762-1.212c3.315-.6,5.668-1.206,5.692-1.212A.225.225,0,0,1,374.043,206.424Zm2.706,39.947c-.1-2-1.046-20.5-.932-21.643.023-.23.091-.576.178-1.015a23.426,23.426,0,0,0,.179-9.844,30.939,30.939,0,0,0-2.247-6.959c-.6.15-2.733.666-5.553,1.176a70.352,70.352,0,0,1-11.842,1.219,24.2,24.2,0,0,1-6.8-.811l.907,9.182a.223.223,0,0,1,0,.043l-2.571,27.821c.533.218,2.429.969,4.958,1.713a39.963,39.963,0,0,0,10.658,1.771c.441,0,.876-.013,1.292-.038a38.7,38.7,0,0,0,8.852-1.519A21,21,0,0,0,376.749,246.371Z" transform="translate(-191.187 -113.535)" fill="#4045ab"/>
        <path id="Trazado_912161" data-name="Trazado 912161" d="M370.09,96.825s-12.6,8.241-14.156,10.181S350.8,118.349,350.8,120s2.133,18.713,2.133,18.713l-3.006,10.665s1.939,2.812,12.023,2.036,15.125-3.2,15.125-3.2S372.417,137.45,372.32,136s3.2-15.319,3.393-18.325-1.434-11.263-2.424-13.768a76,76,0,0,0-3.2-7.078" transform="translate(-192.461 -53.255)" fill="#ffbd45"/>
        <path id="Trazado_912162" data-name="Trazado 912162" d="M369.815,96.325a.225.225,0,0,1,.2.119,77.016,77.016,0,0,1,3.21,7.1,44.173,44.173,0,0,1,1.668,6.738,34.894,34.894,0,0,1,.771,7.127c-.1,1.547-.993,5.845-1.857,10-.778,3.741-1.582,7.61-1.536,8.293.077,1.161,3.442,9.158,4.733,12.142a.225.225,0,0,1-.109.292,25.366,25.366,0,0,1-3.818,1.323,59.868,59.868,0,0,1-11.387,1.9c-1.173.09-2.3.136-3.337.136-7.24,0-8.825-2.176-8.889-2.268a.225.225,0,0,1-.031-.189l2.994-10.621c-.146-1.171-2.129-17.078-2.129-18.7a31.448,31.448,0,0,1,2-6.469,35.135,35.135,0,0,1,3.185-6.664c1.556-1.945,13.693-9.891,14.208-10.228A.225.225,0,0,1,369.815,96.325Zm6.686,51.5c-.293-.682-1.274-2.972-2.253-5.363a42.366,42.366,0,0,1-2.428-6.724,78.641,78.641,0,0,1,1.545-8.414c.861-4.142,1.751-8.425,1.849-9.94.193-3-1.45-11.245-2.409-13.671-1.37-3.466-2.687-6.085-3.075-6.836-1.644,1.081-12.492,8.242-13.9,10a33.218,33.218,0,0,0-3.117,6.546,30.722,30.722,0,0,0-1.972,6.305c0,1.616,2.11,18.514,2.131,18.685a.225.225,0,0,1-.007.089l-2.973,10.55a4.5,4.5,0,0,0,1.55.958,18.2,18.2,0,0,0,6.9,1.042c1.029,0,2.14-.045,3.3-.135a59.45,59.45,0,0,0,11.284-1.878A28.456,28.456,0,0,0,376.5,147.822Z" transform="translate(-192.186 -52.98)" fill="#4045ab"/>
        <path id="Trazado_912163" data-name="Trazado 912163" d="M357.558,34.592s-3.84,1.477-3.742,2.856,2.166,5.219,3.84,6.794,6.3,5.219,6.7,8.468-.492,6.4-1.772,6.5l-1.28.1s.493,2.363,4.924,3.053,9.453.591,11.914-3.644,1.871-13.589-.591-17.921-8.566-6.991-11.914-7.484-8.075,1.28-8.075,1.28" transform="translate(-194.602 -18.274)" fill="#4045ab"/>
        <path id="Trazado_912164" data-name="Trazado 912164" d="M364.082,32.725h0a9.055,9.055,0,0,1,1.308.089,19.817,19.817,0,0,1,6.367,2.328,15.042,15.042,0,0,1,5.71,5.267,21.528,21.528,0,0,1,2.171,9.1c.162,3.742-.414,7.039-1.581,9.047a7.592,7.592,0,0,1-3.637,3.225,12.006,12.006,0,0,1-4.737.85,24.5,24.5,0,0,1-3.77-.323,9.821,9.821,0,0,1-2.7-.787,5.537,5.537,0,0,1-1.547-1.061,3.047,3.047,0,0,1-.861-1.381.225.225,0,0,1,.2-.27l1.28-.1a.934.934,0,0,0,.621-.395,5.264,5.264,0,0,0,.876-2.336,12.465,12.465,0,0,0,.069-3.517c-.327-2.7-3.715-5.721-5.739-7.527-.346-.309-.645-.576-.888-.8a15.356,15.356,0,0,1-2.553-3.526,10.309,10.309,0,0,1-1.357-3.417c-.048-.665.607-1.391,1.947-2.156a15.849,15.849,0,0,1,1.939-.925c.011,0,.939-.35,2.24-.691A19.4,19.4,0,0,1,364.082,32.725Zm5.6,29.455c3.866,0,6.478-1.26,7.985-3.852,1.125-1.935,1.679-5.142,1.521-8.8a21.073,21.073,0,0,0-2.113-8.9c-2.387-4.2-8.423-6.883-11.751-7.372a8.6,8.6,0,0,0-1.242-.084,22.955,22.955,0,0,0-6.72,1.352,15.692,15.692,0,0,0-1.879.9c-1.14.652-1.75,1.267-1.717,1.731.094,1.312,2.132,5.105,3.77,6.647.238.224.535.489.879.8,2.072,1.849,5.539,4.942,5.886,7.809a12.743,12.743,0,0,1-.072,3.647,5.692,5.692,0,0,1-.972,2.545,1.358,1.358,0,0,1-.935.558l-.986.076a3.147,3.147,0,0,0,.675.934,7.044,7.044,0,0,0,3.972,1.695A24.063,24.063,0,0,0,369.684,62.18Z" transform="translate(-194.327 -17.999)" fill="#4045ab"/>
        <path id="Trazado_912165" data-name="Trazado 912165" d="M360.143,115.313a.225.225,0,0,1-.182-.357,25.467,25.467,0,0,1,1.986-2.488,17.2,17.2,0,0,1,4.174-3.023l1.033-1.691a.225.225,0,0,1,.276-.092l.862.345c.5-.326,2.849-1.859,4.639-3.223a14.223,14.223,0,0,0,2.86-2.761.225.225,0,0,1,.37.256,14.346,14.346,0,0,1-2.957,2.862c-2.02,1.539-4.738,3.289-4.766,3.307a.225.225,0,0,1-.205.02l-.793-.317-.967,1.583a.225.225,0,0,1-.091.084,17.188,17.188,0,0,0-4.106,2.959,25.039,25.039,0,0,0-1.948,2.442A.225.225,0,0,1,360.143,115.313Z" transform="translate(-197.958 -56.061)" fill="#4045ab"/>
        <path id="Trazado_912166" data-name="Trazado 912166" d="M355.682,135.351a.225.225,0,0,1-.19-.345c.005-.009.55-.869,1.286-1.94a.225.225,0,0,1,.371.255c-.732,1.064-1.271,1.917-1.277,1.925A.225.225,0,0,1,355.682,135.351Z" transform="translate(-195.505 -73.134)" fill="#4045ab"/>
        <path id="Trazado_912167" data-name="Trazado 912167" d="M352.25,121.266s-3.005,3.685-3.3,4.945-2.327,16.159-2.327,16.159-1.454,0-1.648.388a23.593,23.593,0,0,0-.485,3.005s-.776.873-1.164.97l-14.737,2.327.679,5.817s9.4,0,12.023-.291,6.011,0,7.659-.679a9.74,9.74,0,0,0,4.46-2.715l1.312-3.165s5.087-13.027,5.281-15.645a10.188,10.188,0,0,0-.2-3.408" transform="translate(-180.729 -66.698)" fill="#ffbd45"/>
        <path id="Trazado_912168" data-name="Trazado 912168" d="M329,154.827a.225.225,0,0,1-.223-.2l-.679-5.817a.225.225,0,0,1,.188-.248l14.726-2.325a3.782,3.782,0,0,0,.995-.846,19.774,19.774,0,0,1,.5-3.009c.119-.239.46-.386,1.07-.462.223-.028.435-.04.582-.046.248-1.814,2.029-14.8,2.3-15.989.3-1.3,3.217-4.884,3.342-5.037a.225.225,0,0,1,.349.284c-.03.036-2.976,3.658-3.252,4.853-.285,1.236-2.3,15.99-2.323,16.139a.225.225,0,0,1-.223.195,6.7,6.7,0,0,0-.72.046c-.634.079-.727.216-.727.217a20.573,20.573,0,0,0-.462,2.93.225.225,0,0,1-.055.125,4.071,4.071,0,0,1-1.277,1.038l-.02,0-14.524,2.293.63,5.4c1.377,0,9.433-.027,11.8-.289.984-.109,2.078-.137,3.136-.164a14.8,14.8,0,0,0,4.462-.5.223.223,0,0,1,.042-.013,9.47,9.47,0,0,0,4.312-2.618l1.3-3.125c.091-.235,5.077-13.033,5.265-15.577a9.968,9.968,0,0,0-.19-3.331.225.225,0,0,1,.433-.121,10.41,10.41,0,0,1,.206,3.485c-.194,2.622-5.088,15.177-5.3,15.71l0,0L353.347,151a.224.224,0,0,1-.042.066,11.017,11.017,0,0,1-1.351,1.2,8.346,8.346,0,0,1-3.21,1.576,15.143,15.143,0,0,1-4.6.524c-1.048.027-2.133.055-3.1.162C338.444,154.824,329.381,154.827,329,154.827Z" transform="translate(-180.454 -66.422)" fill="#4045ab"/>
        <path id="Trazado_912169" data-name="Trazado 912169" d="M253.118,35.226s1.75,3.341,1.83,5.091-.636,3.739-.4,5.17,1.75,1.989,1.432,2.943-1.75,1.273-1.75,1.273-.716,3.262-1.273,5.17a3.153,3.153,0,0,1-3.262,2.148,14.429,14.429,0,0,1-2.864-.636l-.955,5.489-10.739-7.8.875-4.693,1.75-3.261s-2.307-5.171-.238-8.83,5.648-4.852,9.625-5.33,5.966,3.262,5.966,3.262" transform="translate(-129.329 -17.558)" fill="#fff"/>
        <path id="Trazado_912170" data-name="Trazado 912170" d="M247.572,31.422a5.949,5.949,0,0,1,4.108,1.713,7.331,7.331,0,0,1,1.362,1.71c.073.139,1.775,3.407,1.856,5.187a13.107,13.107,0,0,1-.233,2.569,8.708,8.708,0,0,0-.168,2.575,3.147,3.147,0,0,0,.834,1.494c.409.485.795.943.59,1.558a2.61,2.61,0,0,1-1.773,1.385c-.142.636-.758,3.376-1.247,5.051a2.954,2.954,0,0,1-1.632,1.931,4.428,4.428,0,0,1-1.845.379,12.592,12.592,0,0,1-2.686-.571l-.911,5.237a.225.225,0,0,1-.354.144l-10.739-7.8a.225.225,0,0,1-.089-.223l.875-4.693a.226.226,0,0,1,.023-.065l1.7-3.166a15.2,15.2,0,0,1-.867-2.992,11.592,11.592,0,0,1-.182-2.921,7.165,7.165,0,0,1,.864-3.017,9.489,9.489,0,0,1,4.193-3.949,17.014,17.014,0,0,1,5.6-1.493A6.078,6.078,0,0,1,247.572,31.422Zm1.851,25.1a2.914,2.914,0,0,0,3.046-1.986c.548-1.88,1.262-5.123,1.269-5.156a.225.225,0,0,1,.171-.171c.013,0,1.312-.3,1.585-1.125.119-.358-.1-.646-.507-1.125a3.556,3.556,0,0,1-.933-1.71,8.991,8.991,0,0,1,.167-2.718,12.781,12.781,0,0,0,.228-2.479c-.076-1.681-1.787-4.964-1.8-5a7.023,7.023,0,0,0-1.283-1.6,5.432,5.432,0,0,0-3.789-1.581,5.625,5.625,0,0,0-.668.041c-3.25.39-7.262,1.336-9.456,5.217a8.588,8.588,0,0,0-.631,5.636,14.6,14.6,0,0,0,.879,2.991.225.225,0,0,1-.007.2l-1.733,3.23-.843,4.519,10.332,7.5.893-5.133a.225.225,0,0,1,.29-.176A14.334,14.334,0,0,0,249.423,56.522Z" transform="translate(-129.054 -17.283)" fill="#4045ab"/>
        <path id="Trazado_912171" data-name="Trazado 912171" d="M247.815,70.99a.225.225,0,0,1-.177-.086,5.21,5.21,0,0,1-.9-3.374,10.129,10.129,0,0,1,.14-1.477,2.848,2.848,0,0,1-1.664.157,1.771,1.771,0,0,1-1.2-1.373.225.225,0,0,1,.444-.075h0a1.318,1.318,0,0,0,.872,1.014,2.821,2.821,0,0,0,1.743-.3.225.225,0,0,1,.325.251c-.008.031-.752,3.178.595,4.9a.225.225,0,0,1-.177.364Z" transform="translate(-134.208 -35.516)" fill="#4045ab"/>
        <path id="Trazado_912172" data-name="Trazado 912172" d="M268.152,71.476a2.766,2.766,0,0,1-2.312-1.289,4.431,4.431,0,0,1-.61-1.264.225.225,0,0,1,.435-.116,4.047,4.047,0,0,0,.551,1.133,2.3,2.3,0,0,0,1.936,1.087.225.225,0,1,1,0,.45Z" transform="translate(-145.875 -37.753)" fill="#4045ab"/>
        <path id="Trazado_912173" data-name="Trazado 912173" d="M272.51,50.215a.224.224,0,0,1-.149-.057c-1.271-1.13-2.162-.4-2.171-.394a.225.225,0,0,1-.291-.343,1.687,1.687,0,0,1,.811-.33,2.416,2.416,0,0,1,1.95.731.225.225,0,0,1-.15.393Z" transform="translate(-148.403 -26.991)" fill="#4045ab"/>
        <path id="Trazado_912174" data-name="Trazado 912174" d="M271.438,51.681a2.118,2.118,0,0,1,1.711.979,4.142,4.142,0,0,1,0,4.533,1.986,1.986,0,0,1-3.423,0,4.142,4.142,0,0,1,0-4.533A2.118,2.118,0,0,1,271.438,51.681Zm0,6.041a1.683,1.683,0,0,0,1.345-.791,3.7,3.7,0,0,0,0-4.01,1.54,1.54,0,0,0-2.691,0,3.695,3.695,0,0,0,0,4.01A1.683,1.683,0,0,0,271.438,57.722Z" transform="translate(-147.981 -28.425)" fill="#4045ab"/>
        <path id="Trazado_912175" data-name="Trazado 912175" d="M274.1,59.262c0,.549-.214.994-.477.994s-.477-.445-.477-.994.214-.994.477-.994.477.445.477.994" transform="translate(-150.234 -32.048)" fill="#4045ab"/>
        <path id="Línea_139" data-name="Línea 139" d="M8.157.149H8.152L-.28-.05A.225.225,0,0,1-.5-.28.225.225,0,0,1-.27-.5l8.432.2a.225.225,0,0,1,.22.23A.225.225,0,0,1,8.157.149Z" transform="translate(113.007 26.933)" fill="#4045ab"/>
        <path id="Trazado_912176" data-name="Trazado 912176" d="M258.016,84.44a4.35,4.35,0,0,1-1.352-.636c-.477-.4-1.193-.875-1.193-.875l1.989,4.773Z" transform="translate(-140.511 -45.611)" fill="#4045ab"/>
        <path id="Trazado_912177" data-name="Trazado 912177" d="M254.373,81.6l.618.412c.03.02.731.489,1.213.89a4.132,4.132,0,0,0,1.267.592l.2.054-.722,4.229Zm2.784,2.268a4.1,4.1,0,0,1-1.241-.621c-.165-.137-.36-.285-.543-.419l1.392,3.341Z" transform="translate(-139.908 -44.878)" fill="#4045ab"/>
        <path id="Trazado_912178" data-name="Trazado 912178" d="M251.44,27.476s-2.307-2.148-4.216-1.512-2.466,1.591-1.591,3.5.557,3.739-.318,4.3-3.659,1.034-3.977,1.591a5.356,5.356,0,0,1-.954,1.114s-.716-2.148-1.909-1.512-1.512,3.1-.8,4.137l-3.341,2.545a18.5,18.5,0,0,0-1.114-6.841c-1.273-3.023-1.909-9.7.477-11.694s5.409-1.591,6.284-2.386.8-2.625,3.58-2.864,3.977,1.83,5.171,2.307,1.67-1.193,3.659.159,3.58,3.262,2.943,5.25-3.9,1.909-3.9,1.909" transform="translate(-127.651 -9.808)" fill="#4045ab"/>
        <path id="Trazado_912179" data-name="Trazado 912179" d="M243.728,17.332a5.637,5.637,0,0,1,3.729,1.6,4.781,4.781,0,0,0,1.086.742.947.947,0,0,0,.357.072,1.84,1.84,0,0,0,.705-.2,2.634,2.634,0,0,1,1.067-.271,2.831,2.831,0,0,1,1.574.579,8.866,8.866,0,0,1,2.52,2.452,3.526,3.526,0,0,1,.511,3.053,2.37,2.37,0,0,1-.87,1.187,4.016,4.016,0,0,1-1.267.606,7.238,7.238,0,0,1-1.923.274h-.057a.226.226,0,0,1-.148-.06A6.052,6.052,0,0,0,247.7,25.8a2.153,2.153,0,0,0-.682.106,2.612,2.612,0,0,0-1.729,1.2,2.5,2.5,0,0,0,.271,1.99,5.455,5.455,0,0,1,.517,2.772,2.376,2.376,0,0,1-.918,1.808,9.358,9.358,0,0,1-1.963.733c-.462.14-.941.285-1.309.428-.512.2-.612.32-.631.352a5.527,5.527,0,0,1-1,1.171.225.225,0,0,1-.362-.1c-.137-.41-.632-1.476-1.258-1.476a.707.707,0,0,0-.332.091,2.227,2.227,0,0,0-.941,1.482,3.174,3.174,0,0,0,.225,2.328.225.225,0,0,1-.049.307L234.2,41.539a.225.225,0,0,1-.361-.188,18.4,18.4,0,0,0-1.1-6.744,18.2,18.2,0,0,1-1.151-6.32,12.369,12.369,0,0,1,.358-3.278,4.5,4.5,0,0,1,1.334-2.356,9.52,9.52,0,0,1,4.544-1.835,4.2,4.2,0,0,0,1.732-.545,3.161,3.161,0,0,0,.566-.828,3.419,3.419,0,0,1,3.145-2.093C243.424,17.338,243.579,17.332,243.728,17.332ZM248.9,20.2a1.389,1.389,0,0,1-.524-.1,5.052,5.052,0,0,1-1.2-.81,5.261,5.261,0,0,0-3.446-1.5c-.137,0-.278.006-.42.018a2.974,2.974,0,0,0-2.789,1.861,3.475,3.475,0,0,1-.659.945,4.253,4.253,0,0,1-1.95.654A9.015,9.015,0,0,0,233.57,23c-1.009.841-1.552,2.717-1.53,5.284a17.72,17.72,0,0,0,1.116,6.149,16.087,16.087,0,0,1,1.051,4.621c.07.786.086,1.438.087,1.848l2.813-2.143a3.806,3.806,0,0,1-.181-2.5,2.625,2.625,0,0,1,1.167-1.774,1.151,1.151,0,0,1,.543-.144,1.6,1.6,0,0,1,1.276.921,4.486,4.486,0,0,1,.283.541,4.372,4.372,0,0,0,.673-.833c.211-.369.973-.615,2.2-.987a9.422,9.422,0,0,0,1.852-.682c.775-.493,1.054-2.224.234-4.012a2.859,2.859,0,0,1-.275-2.356,3,3,0,0,1,2-1.451,2.6,2.6,0,0,1,.824-.129,6.238,6.238,0,0,1,3.55,1.63c.445,0,3.068-.1,3.6-1.753a3.1,3.1,0,0,0-.463-2.675,8.421,8.421,0,0,0-2.393-2.321,2.41,2.41,0,0,0-1.32-.5,2.207,2.207,0,0,0-.891.235A2.232,2.232,0,0,1,248.9,20.2Z" transform="translate(-127.376 -9.533)" fill="#4045ab"/>
        <path id="Trazado_912180" data-name="Trazado 912180" d="M222.453,334.112s-1.6,11.1-1.6,13.443-.247,9.663-.247,9.663a22.549,22.549,0,0,0-.864,3.207c0,.617.123,2.1.123,2.1l.494,6.537h5.92s2.343-9.373,2.1-17.143-4.563-22.243-4.563-22.243Z" transform="translate(-120.859 -181.323)" fill="#30359a"/>
        <path id="Trazado_912181" data-name="Trazado 912181" d="M223.535,329.172a.224.224,0,0,1,.216.161c.011.036,1.093,3.676,2.192,8.219a80.369,80.369,0,0,1,2.38,14.081,62.175,62.175,0,0,1-.959,11.529c-.55,3.285-1.138,5.652-1.144,5.675a.225.225,0,0,1-.218.17h-5.92a.225.225,0,0,1-.224-.208l-.494-6.537c0-.059-.124-1.495-.124-2.113a20.606,20.606,0,0,1,.865-3.247c.018-.534.245-7.389.245-9.623,0-2.333,1.54-13.021,1.606-13.475a.228.228,0,0,1,.008-.034l1.357-4.44A.225.225,0,0,1,223.535,329.172Zm2.29,39.385c.143-.6.633-2.707,1.1-5.474a61.717,61.717,0,0,0,.952-11.437,79.958,79.958,0,0,0-2.367-13.987c-.808-3.342-1.608-6.194-1.976-7.476l-1.131,3.7c-.071.5-1.6,11.135-1.6,13.394,0,2.32-.244,9.6-.247,9.67a.225.225,0,0,1-.011.064,21.006,21.006,0,0,0-.852,3.135c0,.6.121,2.063.123,2.078l.478,6.33Z" transform="translate(-120.584 -181.048)" fill="#4045ab"/>
        <path id="Trazado_912182" data-name="Trazado 912182" d="M214.281,206.156s.3,14.426,1.215,17.767,3.037,7.441,3.037,8.5,1.367,13.515,2.278,16.856-2.582,13.667-1.67,19.589,3.492,20.81,3.492,20.81-.607-.152-.607,1.974v4.4l.152,5.163h6.53s-.456-1.063,1.063-1.063,2.43.911,3.189,1.063,10.63,0,10.63,0,.76-1.215.456-1.974-1.367-.759-3.341-1.822a29.654,29.654,0,0,1-5.163-3.492c-.76-.76-1.063-2.734-1.519-3.644a9.508,9.508,0,0,1-1.215-2.582c0-.607.911-14.584.911-22.784s1.215-13.211,2.582-20.8,1.215-21.716,1.367-25.815.456-11.237.456-11.237Z" transform="translate(-117.857 -113.388)" fill="#4045ab"/>
        <path id="Trazado_912183" data-name="Trazado 912183" d="M214.006,205.656h.009l23.841.911a.225.225,0,0,1,.216.234c0,.071-.305,7.183-.456,11.236-.033.88-.051,2.2-.074,3.874-.083,5.983-.221,16-1.3,21.973-.211,1.172-.418,2.281-.618,3.353a84.981,84.981,0,0,0-1.96,17.411c0,6.452-.564,16.477-.8,20.758-.064,1.145-.107,1.9-.107,2.026a4.662,4.662,0,0,0,.716,1.615c.164.287.334.583.475.866a9.576,9.576,0,0,1,.483,1.351,6.067,6.067,0,0,0,.993,2.235,29.58,29.58,0,0,0,5.11,3.453,16.894,16.894,0,0,0,1.911.868c.791.314,1.314.522,1.533,1.069.342.855-.44,2.123-.474,2.177a.225.225,0,0,1-.187.106c-.044,0-4.425.067-7.54.067a26.883,26.883,0,0,1-3.137-.072,3.8,3.8,0,0,1-.95-.4,4.533,4.533,0,0,0-2.195-.661c-.433,0-.723.092-.839.267a.593.593,0,0,0-.017.482.225.225,0,0,1-.207.314H221.9a.225.225,0,0,1-.225-.218l-.152-5.163s0,0,0-.007v-4.4a4.305,4.305,0,0,1,.271-1.786.79.79,0,0,1,.3-.35c-.312-1.8-2.615-15.13-3.458-20.613-.491-3.192.281-7.641.963-11.567.579-3.335,1.126-6.485.713-8-.526-1.927-1.157-6.662-1.487-9.313-.457-3.677-.8-7.046-.8-7.6A15.3,15.3,0,0,0,216.9,228.9a47.854,47.854,0,0,1-1.893-5.19c-.908-3.329-1.21-17.231-1.223-17.821a.225.225,0,0,1,.225-.23Zm23.607,1.352-23.377-.893c.045,1.894.372,14.432,1.2,17.474a46.775,46.775,0,0,0,1.875,5.138,14.374,14.374,0,0,1,1.17,3.425c0,.98,1.342,13.393,2.27,16.8.439,1.609-.091,4.66-.7,8.193-.675,3.892-1.441,8.3-.961,11.421.9,5.852,3.466,20.657,3.492,20.806a.225.225,0,0,1-.246.262c-.035.017-.357.219-.357,1.75v4.4l.145,4.942h6.029a.9.9,0,0,1,.131-.593,1.361,1.361,0,0,1,1.214-.47,4.973,4.973,0,0,1,2.4.712,3.525,3.525,0,0,0,.831.355c.118.023.671.063,3.049.063,2.815,0,6.665-.055,7.407-.065a2.4,2.4,0,0,0,.376-1.667c-.141-.352-.495-.505-1.281-.818a17.276,17.276,0,0,1-1.958-.89,29.79,29.79,0,0,1-5.215-3.531A6.286,6.286,0,0,1,234,291.4a9.327,9.327,0,0,0-.456-1.282c-.135-.271-.3-.562-.463-.844a4.643,4.643,0,0,1-.776-1.839c0-.136.04-.857.108-2.051.24-4.277.8-14.294.8-20.733a85.339,85.339,0,0,1,1.967-17.493c.2-1.071.407-2.179.618-3.35,1.069-5.939,1.207-15.93,1.289-21.9.023-1.675.041-3,.074-3.884C237.3,214.376,237.56,208.257,237.613,207.008Z" transform="translate(-117.582 -113.113)" fill="#4045ab"/>
        <path id="Trazado_912184" data-name="Trazado 912184" d="M261.018,102.71s2.584,2.808,2.134,4.718a12.888,12.888,0,0,0-.337,3.482s2.7,4.493,2.921,12.694,1.685,19.659,1.685,19.659l-2.583,5.617-3.145-6.179s.9-14.941,1.011-18.648a45.672,45.672,0,0,0-.225-9.1,33.9,33.9,0,0,1-.562-4.157l-1.8-6.515Z" transform="translate(-143.068 -56.492)" fill="#4045ab"/>
        <path id="Trazado_912185" data-name="Trazado 912185" d="M260.743,102.21a.225.225,0,0,1,.166.073c.109.118,2.659,2.919,2.188,4.922a12.971,12.971,0,0,0-.334,3.364,18.373,18.373,0,0,1,1.368,3.268,30.276,30.276,0,0,1,1,4.009,36.553,36.553,0,0,1,.555,5.477c.222,8.1,1.668,19.522,1.683,19.636a.225.225,0,0,1-.019.122l-2.583,5.617a.225.225,0,0,1-.4.008l-3.145-6.179a.225.225,0,0,1-.024-.116c.009-.149.9-14.98,1.011-18.641l.011-.351a43.549,43.549,0,0,0-.231-8.7,34.692,34.692,0,0,1-.564-4.163l-1.791-6.493a.225.225,0,0,1,.022-.171l.9-1.573a.225.225,0,0,1,.17-.112Zm6.172,40.742c-.118-.937-1.465-11.816-1.678-19.617a33.259,33.259,0,0,0-1.534-9.358,17.486,17.486,0,0,0-1.355-3.226.225.225,0,0,1-.031-.1,13,13,0,0,1,.342-3.55c.345-1.466-1.29-3.58-1.877-4.28l-.695,1.216,1.772,6.425a.225.225,0,0,1,.008.047,34,34,0,0,0,.558,4.126,43.757,43.757,0,0,1,.24,8.8l-.011.351c-.108,3.548-.945,17.544-1.008,18.593l2.907,5.71Z" transform="translate(-142.793 -56.216)" fill="#4045ab"/>
        <path id="Trazado_912186" data-name="Trazado 912186" d="M231.974,77.327l13.626,9.82-1.636,6.208L230.747,80.519Z" transform="translate(-126.913 -42.531)" fill="#f6ccb3"/>
        <path id="Trazado_912187" data-name="Trazado 912187" d="M231.7,76.827a.225.225,0,0,1,.132.042l13.626,9.82a.225.225,0,0,1,.086.24l-1.636,6.208a.225.225,0,0,1-.374.1L230.315,80.406a.225.225,0,0,1-.053-.242l1.228-3.192a.225.225,0,0,1,.21-.144Zm13.369,10.137L231.8,77.406l-1.069,2.781,12.834,12.464Z" transform="translate(-126.638 -42.256)" fill="#4045ab"/>
        <path id="Trazado_912188" data-name="Trazado 912188" d="M218.849,84.42s-8.014,11.263-9.137,15.869-.337,13.255-.225,14.379.562,25.051,1.123,26.062,3.82,1.348,3.82,1.348h20.894a3.308,3.308,0,0,0,1.461-3.257c-.113-2.471-.45-5.168-.45-5.168s.113-24.264-.113-27.522S232.066,95.8,232.066,95.8Z" transform="translate(-115.015 -46.432)" fill="#f6ccb3"/>
        <path id="Trazado_912189" data-name="Trazado 912189" d="M218.573,83.92a.225.225,0,0,1,.147.054L231.937,95.35a.225.225,0,0,1,.05.061c.01.018,1,1.8,2,3.96a21.367,21.367,0,0,1,2.183,6.468c.221,3.2.116,26.816.113,27.524.027.218.342,2.812.449,5.171a4.076,4.076,0,0,1-.733,2.7,2.7,2.7,0,0,1-.852.768.225.225,0,0,1-.1.024H214.131a14.965,14.965,0,0,1-1.728-.3c-1.238-.295-2-.686-2.265-1.163-.087-.156-.29-.522-.58-7.96-.163-4.168-.3-9.206-.4-12.885-.077-2.792-.137-5-.168-5.3-.028-.281-.278-2.838-.352-5.9a35.022,35.022,0,0,1,.582-8.554c.472-1.934,2.16-5.207,5.018-9.729,2.123-3.358,4.134-6.189,4.154-6.218a.225.225,0,0,1,.156-.093Zm13.04,11.745-13-11.188c-.495.7-2.208,3.162-4,6-2.792,4.416-4.507,7.734-4.96,9.593-1.158,4.745-.258,13.915-.219,14.3.032.323.09,2.426.17,5.336.1,3.665.239,8.683.4,12.841.088,2.266.176,4.066.26,5.349a11.761,11.761,0,0,0,.266,2.449,3.3,3.3,0,0,0,1.975.943,14.817,14.817,0,0,0,1.659.289h20.823a2.44,2.44,0,0,0,.667-.632,3.65,3.65,0,0,0,.629-2.39c-.111-2.434-.445-5.123-.448-5.15a.227.227,0,0,1,0-.029c0-.243.11-24.293-.112-27.505C235.512,102.816,231.911,96.206,231.613,95.665Z" transform="translate(-114.74 -46.157)" fill="#4045ab"/>
        <path id="Trazado_912190" data-name="Trazado 912190" d="M224.084,265.4a.9.9,0,0,1-.9-.9v-3.649a2.023,2.023,0,0,1,2.02-2.02h2.837a.9.9,0,1,1,0,1.8H225.2a.221.221,0,0,0-.22.221V264.5a.9.9,0,0,1-.9.9" transform="translate(-122.753 -142.357)" fill="#fff"/>
        <path id="Trazado_912191" data-name="Trazado 912191" d="M223.809,265.347a1.126,1.126,0,0,1-1.125-1.125v-3.649a2.248,2.248,0,0,1,2.245-2.245h2.837a1.125,1.125,0,1,1,0,2.25h-2.833v3.645A1.126,1.126,0,0,1,223.809,265.347Zm1.12-6.57a1.8,1.8,0,0,0-1.8,1.8v3.649a.675.675,0,1,0,1.35,0v-3.649a.446.446,0,0,1,.445-.445h2.837a.675.675,0,0,0,0-1.35Z" transform="translate(-122.478 -142.082)" fill="#4045ab"/>
        <path id="Trazado_912192" data-name="Trazado 912192" d="M233.291,243.038a14.1,14.1,0,0,0,1.724,2.207c.552.414.759,1.172,1.379,2.689a8.993,8.993,0,0,1,.689,2.483,8.005,8.005,0,0,1,.552,1.793c0,.482-2.207,1.448-2.207,1.448s.069.9-.345,1.1a2.671,2.671,0,0,1-1.793.207,10.463,10.463,0,0,1-1.655-1.31,7.856,7.856,0,0,1-2-.414,5.08,5.08,0,0,1-2.482-1.31c-.552-.759-.759-1.31-.552-3.1s1.241-5.93,1.241-5.93Z" transform="translate(-124.59 -133.597)" fill="#fff"/>
        <path id="Trazado_912193" data-name="Trazado 912193" d="M227.567,242.4h.006l5.448.138a.225.225,0,0,1,.183.1,13.178,13.178,0,0,0,1.671,2.15,4.263,4.263,0,0,1,1.136,1.993c.093.235.2.5.316.791a9.5,9.5,0,0,1,.7,2.513,7.452,7.452,0,0,1,.556,1.847c0,.215-.145.514-1.22,1.1-.393.215-.781.4-.981.489,0,.309-.051.95-.474,1.161a3.448,3.448,0,0,1-1.385.316,1.523,1.523,0,0,1-.6-.1,9.39,9.39,0,0,1-1.662-1.3,7.886,7.886,0,0,1-1.985-.422c-.18-.069-.371-.135-.556-.2a3.876,3.876,0,0,1-2.028-1.19c-.618-.849-.8-1.47-.593-3.261s1.2-5.79,1.246-5.959A.225.225,0,0,1,227.567,242.4Zm5.325.585-5.15-.131c-.2.805-1.014,4.177-1.193,5.727-.2,1.753,0,2.244.51,2.945a3.5,3.5,0,0,0,1.809,1.029c.189.065.384.131.571.2a7.68,7.68,0,0,0,1.933.4.225.225,0,0,1,.14.061,9.758,9.758,0,0,0,1.589,1.267,1.1,1.1,0,0,0,.42.068,3.042,3.042,0,0,0,1.184-.269c.2-.1.241-.625.221-.885a.225.225,0,0,1,.134-.223c.005,0,.516-.227,1.035-.507.917-.5,1.026-.713,1.037-.742a7.564,7.564,0,0,0-.534-1.7.225.225,0,0,1-.017-.071,8.923,8.923,0,0,0-.673-2.413c-.12-.293-.225-.56-.318-.8a4.069,4.069,0,0,0-.988-1.8A12.748,12.748,0,0,1,232.892,242.985Z" transform="translate(-124.314 -133.322)" fill="#4045ab"/>
        <path id="Trazado_912194" data-name="Trazado 912194" d="M228.231,236.312s.138,3.31.483,3.517a7.881,7.881,0,0,0,3.586.69,10.028,10.028,0,0,0,2.9-.828l-.069-3.241s-5.723.483-6.9-.138" transform="translate(-125.529 -129.974)" fill="#f6ccb3"/>
        <path id="Trazado_912195" data-name="Trazado 912195" d="M227.956,235.812a.225.225,0,0,1,.105.026,7.141,7.141,0,0,0,2.745.291c1.892,0,4.005-.176,4.027-.178a.225.225,0,0,1,.244.219l.069,3.241a.225.225,0,0,1-.128.208,10.149,10.149,0,0,1-2.971.848c-.145.014-.3.021-.457.021a8.253,8.253,0,0,1-3.266-.742c-.159-.1-.326-.329-.479-2.008-.077-.849-.112-1.683-.113-1.692a.225.225,0,0,1,.225-.234Zm2.85.767a11.038,11.038,0,0,1-2.609-.213c.016.3.045.764.086,1.241a5.576,5.576,0,0,0,.289,1.765,8.111,8.111,0,0,0,3.016.667c.144,0,.283-.006.414-.019a9.666,9.666,0,0,0,2.689-.748l-.061-2.854C234.021,236.464,232.342,236.579,230.806,236.579Z" transform="translate(-125.254 -129.699)" fill="#4045ab"/>
        <path id="Trazado_912196" data-name="Trazado 912196" d="M220.866,106.58s-3.384,6.894-3.51,10.028,1.379,21.059,1.379,28.455,1.63,18.678,2.257,19.806,2.131,1.379,3.259,1.379,4.764.627,5.516-1,0-18.3,0-21.06,4.262-18.678,2.632-28.079" transform="translate(-119.544 -58.62)" fill="#f6ccb3"/>
        <path id="Trazado_912197" data-name="Trazado 912197" d="M226.419,166.317c-.589,0-1.164-.041-1.642-.075-.326-.023-.608-.043-.8-.043a5.865,5.865,0,0,1-1.89-.279,2.7,2.7,0,0,1-1.565-1.217c-.388-.7-.978-4.338-1.39-7.634a106.2,106.2,0,0,1-.9-12.281c0-4.026-.443-11.115-.833-17.371-.324-5.182-.6-9.657-.545-11.094a21.493,21.493,0,0,1,1.818-6.265c.855-2.1,1.706-3.836,1.714-3.853a.225.225,0,0,1,.4.2c-.034.069-3.365,6.888-3.487,9.938-.057,1.414.222,5.878.545,11.048.391,6.262.834,13.359.834,17.4a105.737,105.737,0,0,0,.892,12.225,41.274,41.274,0,0,0,1.337,7.471c.61,1.1,2.18,1.263,3.062,1.263.21,0,.5.021.834.044a14.633,14.633,0,0,0,2.646.02c.983-.117,1.6-.432,1.832-.937.16-.347.344-1.784.309-6.656-.024-3.357-.143-7.344-.229-10.255-.056-1.89-.1-3.382-.1-4.054a41.815,41.815,0,0,1,.784-5.026c1.129-6.092,3.017-16.287,1.851-23.015a.225.225,0,0,1,.443-.077,30.905,30.905,0,0,1,.37,5.636c-.027,1.84-.17,3.924-.424,6.194-.467,4.163-1.236,8.313-1.8,11.344a43.172,43.172,0,0,0-.777,4.944c0,.665.044,2.155.1,4.041.238,8.01.425,15.929-.121,17.113C229.219,166.1,227.782,166.317,226.419,166.317Z" transform="translate(-119.269 -58.345)" fill="#4045ab"/>
        <path id="Trazado_912198" data-name="Trazado 912198" d="M249.322,258.827h-2.837a.894.894,0,0,0-.471.136v1.528a.89.89,0,0,0,.471.136h2.837a.221.221,0,0,1,.22.22v3.65a.9.9,0,0,0,1.8,0v-3.65a2.023,2.023,0,0,0-2.02-2.02" transform="translate(-135.31 -142.357)" fill="#fff"/>
        <path id="Trazado_912199" data-name="Trazado 912199" d="M246.21,258.327h2.837a2.248,2.248,0,0,1,2.245,2.245v3.65a1.125,1.125,0,1,1-2.25,0v-3.645H246.21a1.119,1.119,0,0,1-.589-.17.225.225,0,0,1-.106-.191v-1.528a.225.225,0,0,1,.107-.192A1.123,1.123,0,0,1,246.21,258.327Zm3.958,6.57a.676.676,0,0,0,.675-.675v-3.65a1.8,1.8,0,0,0-1.8-1.8H246.21a.649.649,0,0,0-.246.048v1.254a.647.647,0,0,0,.246.048h2.837a.446.446,0,0,1,.445.445v3.65A.676.676,0,0,0,250.167,264.9Z" transform="translate(-135.035 -142.082)" fill="#4045ab"/>
        <path id="Trazado_912200" data-name="Trazado 912200" d="M234.017,298.046h-32.6a2.171,2.171,0,0,1-2.171-2.171v-22.4a2.171,2.171,0,0,1,2.171-2.171h32.6a2.171,2.171,0,0,1,2.171,2.171v22.4a2.171,2.171,0,0,1-2.171,2.171" transform="translate(-109.589 -149.217)" fill="#ffbd45"/>
        <path id="Rectángulo_403113" data-name="Rectángulo 403113" d="M1.9-.5h32.6a2.4,2.4,0,0,1,2.4,2.4V24.3a2.4,2.4,0,0,1-2.4,2.4H1.9A2.4,2.4,0,0,1-.5,24.3V1.9A2.4,2.4,0,0,1,1.9-.5Zm32.6,26.747A1.948,1.948,0,0,0,36.439,24.3V1.9A1.948,1.948,0,0,0,34.493-.05H1.9A1.948,1.948,0,0,0-.05,1.9V24.3A1.948,1.948,0,0,0,1.9,26.247Z" transform="translate(89.935 122.357)" fill="#4045ab"/>
        <path id="Línea_140" data-name="Línea 140" d="M-.2,2.688a.225.225,0,0,1-.225-.219L-.5-.269A.225.225,0,0,1-.281-.5.225.225,0,0,1-.05-.281L.024,2.457A.225.225,0,0,1-.2,2.688Z" transform="translate(110.831 116.332)" fill="#4045ab"/>
      </g>
    </g>
  </g>
</svg>
