<svg xmlns="http://www.w3.org/2000/svg" xmlns:xlink="http://www.w3.org/1999/xlink" width="65" height="65" viewBox="0 0 65 65">
  <defs>
    <clipPath id="clip-path">
      <rect id="Rectángulo_403123" data-name="Rectángulo 403123" width="65" height="65" transform="translate(1227.385 3957)" fill="#ee4f47" stroke="#707070" stroke-width="1"/>
    </clipPath>
  </defs>
  <g id="Enmascarar_grupo_1098721" data-name="Enmascarar grupo 1098721" transform="translate(-1227.385 -3957)" clip-path="url(#clip-path)">
    <path id="negociacion-de-contrato" d="M28.386,26.84a.88.88,0,0,1,0-1.759H46.621a.88.88,0,0,1,0,1.759Zm-4.513,0a.88.88,0,0,1,0-1.759h.213a.88.88,0,1,1,0,1.759Zm4.513,4.983a.88.88,0,0,1,0-1.759H46.621a.88.88,0,0,1,0,1.759Zm-4.513,0a.88.88,0,1,1,0-1.759h.213a.88.88,0,1,1,0,1.759Zm4.513-9.966a.88.88,0,0,1,0-1.759H46.621a.88.88,0,1,1,0,1.759Zm-4.513,0a.88.88,0,1,1,0-1.759h.213a.88.88,0,1,1,0,1.759ZM46.613,5.75V9.432H50.3ZM24.282,54.8c.081-1.089-1.775-1.349-2.469-.485L20.59,55.835a1.3,1.3,0,0,0,.639,1.959.978.978,0,0,0,.575.088Zm-1.247,4.352,2.759-3.433a1.063,1.063,0,0,1,1.678,1.3l-2.806,3.492a1.062,1.062,0,0,1-1.675-1.306q.023-.027.044-.055Zm6.454,4.6a1.34,1.34,0,0,0,2.294.652l.53-.659a1.36,1.36,0,0,0-1.063-2.184Zm-1.514-.917L28,62.811l2.078-2.585a1.206,1.206,0,0,0-.625-1.875,1.046,1.046,0,0,0-.76-.044l-2.657,3.306a1,1,0,0,0,.183,1.521v0a1.133,1.133,0,0,0,1.659-.171l.1-.125ZM55.035,50.75a.856.856,0,0,1,.038.1l1.079,2.775a.246.246,0,0,0,.31.134l5.67-2.2a.246.246,0,0,0,.134-.31L55.393,33.57a.246.246,0,0,0-.31-.133l-5.67,2.2a.246.246,0,0,0-.134.31l5.755,14.8ZM15.053,51.7l-.817,1.857a.236.236,0,0,1-.312.122l-5.568-2.45a.236.236,0,0,1-.122-.312l7.636-17.355a.236.236,0,0,1,.312-.122l5.569,2.45a.236.236,0,0,1,.121.312L15.092,51.61a.867.867,0,0,0-.04.09ZM31.686,40.882l2.3-2.161c1.173-1.026,1.431-1.078,3.091-.849,2.275.314,5.4.966,7.649,1.141a9.587,9.587,0,0,0,3.737-.318l4.6,11.835c-2.4.922-1.465,2.845-4.56,4.461L36.1,45.019a2.78,2.78,0,0,0-1.513-.692,2.109,2.109,0,0,0-1.655.534,2.381,2.381,0,0,0-.668,1.353,14.4,14.4,0,0,1-.646,2.805,2.951,2.951,0,0,1-1.862,1.847c-.992.175-1.177.026-1.215-1.114l-.136-4.56c-.01-1.049.006-1,.944-1.97.564-.581,1.394-1.417,2.25-2.255a.882.882,0,0,0,.088-.086ZM46.652,60.977c2.621,1.081,5.428-2.586,3.307-4.787,2.745-1.691,2.291-3.367,3.752-4.006l.805,2.07a1.991,1.991,0,0,0,2.577,1.137l5.67-2.2A1.991,1.991,0,0,0,63.9,50.609L57.028,32.938A1.991,1.991,0,0,0,54.451,31.8L53.3,32.25V10.311a.877.877,0,0,0-.258-.622L46.36,3.01a.877.877,0,0,0-.627-.263H18.075a.88.88,0,0,0-.88.88V31.969l-.307-.135a2,2,0,0,0-2.628,1.022L6.625,50.21a2,2,0,0,0,1.022,2.628l5.568,2.45a2,2,0,0,0,2.628-1.022l.568-1.291a2.591,2.591,0,0,1,1.182.468,6.615,6.615,0,0,1,1.3,1.8A3.131,3.131,0,0,0,21,59.568a2.94,2.94,0,0,0,3.033,3.119,2.969,2.969,0,0,0,1.093,1.82v0a2.936,2.936,0,0,0,2.916.48A3.192,3.192,0,0,0,32.651,66l1.234,1.028c2.022,1.685,4.427.087,5.268-1.608a3.045,3.045,0,0,0,3.394-2.347,3.038,3.038,0,0,0,4.106-2.1Zm-1.067-2.969-3.621-2.931a.877.877,0,0,0-1.106,1.36l3.795,3.071c1.01.888-.47,2.727-1.62,1.816l-4.079-3.262a.877.877,0,1,0-1.1,1.367l2.641,2.123c1.04.836-.247,2.863-1.545,1.88l-2.217-1.678a.878.878,0,1,0-1.058,1.4l2.217,1.678c.115.086-.31-.187-.333-.144-.414.772-1.615,1.777-2.555.994l-1.2-1a3.1,3.1,0,0,0-1.732-4.757,3.152,3.152,0,0,0-2.6-3.393,2.932,2.932,0,0,0-3.665-2.885,3.3,3.3,0,0,0-5.362-.435l-.41.511a4.455,4.455,0,0,0-2.9-2.393l5.415-12.308a14.264,14.264,0,0,0,6.515,1.987c-.368.37-.7.708-.973.989-1.225,1.262-1.454,1.587-1.439,3.206.012,1.3.091,3.4.135,4.6.075,2.077,1.064,3.18,3.27,2.79a3.548,3.548,0,0,0,1.4-.606,5.86,5.86,0,0,0,2.214-3.677c.137-.619.174-1.175.284-1.611.131-.519.134-.666.456-.632a1.112,1.112,0,0,1,.585.308l13.562,10.9c1.106.889-.481,2.743-1.521,1.9l-1.45-1.173Zm-32.722-7.8.085-.146a.877.877,0,1,0-1.519-.879l-.085.146a.877.877,0,1,0,1.519.879Zm45.705,0a.877.877,0,1,1-1.519-.879l.085-.146a.877.877,0,0,1,1.519.879ZM24.854,4.506h4.109V9.615L27.423,8.5a.878.878,0,0,0-1.046.011L24.854,9.615V4.506Zm5.868,0V11.34a.879.879,0,0,1-1.434.683l-2.38-1.729-2.419,1.757A.882.882,0,0,1,23.1,11.34h0V4.506h-4.14V32.742l3.457,1.521a2,2,0,0,1,1.047,2.691l-.2.455c2.721,1.541,4.094,1.716,7.444,1.981l2.132-1.99c1.588-1.389,2.321-1.565,4.479-1.268,2.266.313,5.372.958,7.546,1.127a8.1,8.1,0,0,0,2.968-.207,2.275,2.275,0,0,1-.15-1.993,1.99,1.99,0,0,1,1.1-1.055l2.758-1.072V11.191H45.733a.88.88,0,0,1-.88-.88V4.506H30.722Z" transform="translate(1224.638 3954.253)" fill="#ee4f47" fill-rule="evenodd"/>
  </g>
</svg>
