<svg xmlns="http://www.w3.org/2000/svg" xmlns:xlink="http://www.w3.org/1999/xlink" width="65" height="65" viewBox="0 0 65 65">
  <defs>
    <clipPath id="clip-path">
      <rect id="Rectángulo_403122" data-name="Rectángulo 403122" width="65" height="65" transform="translate(922.385 3957)" fill="#ffbd45" stroke="#707070" stroke-width="1"/>
    </clipPath>
  </defs>
  <g id="Enmascarar_grupo_1098720" data-name="Enmascarar grupo 1098720" transform="translate(-922.385 -3957)" clip-path="url(#clip-path)">
    <path id="habilidades-de-negociacion" d="M9.564,27.206a2.857,2.857,0,0,1-3.324,1.84l-2.976-.681a2.855,2.855,0,0,1-2.141-3.41L4.826,8.79a2.855,2.855,0,0,1,3.41-2.14l2.977.681A2.858,2.858,0,0,1,13.4,9.746H23.421a7.442,7.442,0,0,1,2.315-1.6h0a5.563,5.563,0,0,1,4.613.236C31.756,9,33.433,10.1,35.939,11.5a3.139,3.139,0,0,0,2.855.163L40,11.133l-.09-.392h0a2.856,2.856,0,0,1,2.14-3.41l2.977-.681a2.855,2.855,0,0,1,3.41,2.14L51.8,23.455H62.776a3.284,3.284,0,0,1,3.276,3.276v13.86a3.284,3.284,0,0,1-3.276,3.276H60.027l-.656,4.139a.921.921,0,0,1-1.523.543L52.6,43.868H39.737v8.467a3.284,3.284,0,0,1-3.276,3.276H21.473l-5.244,4.682a.921.921,0,0,1-1.523-.543l-.656-4.139H11.3a3.284,3.284,0,0,1-3.276-3.276V38.475A3.284,3.284,0,0,1,11.3,35.2h6.347Zm3.594-15.618-3.1,13.52,11.58,11.449,0,0A1.595,1.595,0,0,0,23.9,34.3l-2.878-2.878a.921.921,0,0,1,1.3-1.3l6.218,6.218A1.595,1.595,0,0,0,30.8,34.093l-5.661-5.661a.921.921,0,0,1,1.3-1.3l7.66,7.66a1.6,1.6,0,0,0,2.253,0h0a1.6,1.6,0,0,0,0-2.257l-7.416-7.415a.921.921,0,0,1,1.3-1.3l7.121,7.121a1.595,1.595,0,0,0,2.254-2.257l-9.239-9.239h0a3.248,3.248,0,0,0-4.175-.376c-2.448,1.7-4.948,3.006-7.325,2.363a6.271,6.271,0,0,1-3.169-2.2.921.921,0,0,1,.116-1.3,57.315,57.315,0,0,0,5.849-6.348ZM40.422,12.96l-.894.389h0a4.93,4.93,0,0,1-4.485-.244h0c-2.439-1.363-4.066-2.439-5.434-3.041a3.894,3.894,0,0,0-3.225-.2,9.438,9.438,0,0,0-3.06,2.642c-1.681,1.9-3.538,4.308-5.579,6.2a3.9,3.9,0,0,0,1.62.946,4.175,4.175,0,0,0,2.673-.292,16.514,16.514,0,0,0,3.122-1.808h0a5.077,5.077,0,0,1,6.526.59l9.171,9.171,2.59-1.144ZM41.807,28.9a3.452,3.452,0,0,1,.074.341h17.17a.921.921,0,0,1,0,1.842H41.683a3.421,3.421,0,0,1-3.044,2.153,3.45,3.45,0,0,1-.58,2.378,3.282,3.282,0,0,1,1.678,2.858v3.551H52.956a.921.921,0,0,1,.613.234l4.247,3.792.515-3.249a.921.921,0,0,1,.91-.777h3.536a1.437,1.437,0,0,0,1.434-1.434V26.732A1.437,1.437,0,0,0,62.776,25.3H52.2A2.856,2.856,0,0,1,50,28.364l-2.974.682h0a2.858,2.858,0,0,1-2.965-1.139Zm-5.962,8.137a3.443,3.443,0,0,1-2.893-.808,3.408,3.408,0,0,1-.85,1.412,3.448,3.448,0,0,1-4.862,0l-1.189-1.189a3.406,3.406,0,0,1-.849,1.408,3.445,3.445,0,0,1-4.857,0l-.834-.824H11.3a1.437,1.437,0,0,0-1.434,1.434v13.86A1.437,1.437,0,0,0,11.3,53.769h3.536a.921.921,0,0,1,.91.777l.515,3.249L20.509,54a.92.92,0,0,1,.613-.234H36.461A1.437,1.437,0,0,0,37.9,52.335V38.475a1.437,1.437,0,0,0-1.434-1.434Zm6.139-25.513,3.427,14.966a1.011,1.011,0,0,0,1.207.757l2.973-.681h0a1.007,1.007,0,0,0,.754-1.2L46.645,9.2h0a1.007,1.007,0,0,0-1.2-.755l-2.977.682a1.008,1.008,0,0,0-.755,1.2l.246,1.076a.93.93,0,0,1,.028.12ZM7.825,8.445a1.007,1.007,0,0,0-1.2.755L2.92,25.365a1.007,1.007,0,0,0,.755,1.2l2.977.682a1.009,1.009,0,0,0,1.2-.757l3.7-16.163a1.008,1.008,0,0,0-.755-1.2ZM59.051,35.582a.921.921,0,0,1,0,1.842H41.342a.921.921,0,1,1,0-1.842Zm-43.968,8.74a.921.921,0,1,1,0-1.842h17.6a.921.921,0,0,1,0,1.842Zm0,5.455a.921.921,0,1,1,0-1.842h17.6a.921.921,0,0,1,0,1.842Z" transform="translate(921.332 3955.947)" fill="#ffbd45" fill-rule="evenodd"/>
  </g>
</svg>
