<svg xmlns="http://www.w3.org/2000/svg" width="287" height="59.688" viewBox="0 0 287 59.688">
  <g id="Grupo_1101302" data-name="Grupo 1101302" transform="translate(-180.719 -925.001)">
    <path id="Unión_7" data-name="Unión 7" d="M8667.478,11668.958l-1.285-25.957h-1.141a11,11,0,0,1-11-11v-9a11,11,0,0,1,11-11h265a11,11,0,0,1,11,11v9a11,11,0,0,1-11,11H8698.418l-23.219,25.957a4.094,4.094,0,0,1-7.722,0Z" transform="translate(-8473.333 -10687)" fill="#ffbd45"/>
    <path id="Trazado_911295" data-name="Trazado 911295" d="M-8453.8-10064.8l21.8-22.4h110.634" transform="translate(8654.718 11040)" fill="none" stroke="#ca7441" stroke-linecap="round" stroke-width="1"/>
    <path id="Trazado_911296" data-name="Trazado 911296" d="M-8242.2-10087.2h55.584" transform="translate(8581.718 11040)" fill="none" stroke="#ca7441" stroke-linecap="round" stroke-width="1"/>
    <path id="Trazado_911297" data-name="Trazado 911297" d="M-8197.366-10087.2H-8155s11-1.8,10.6-9,0-4.6,0-4.6" transform="translate(8599.718 11040)" fill="none" stroke="#ca7441" stroke-linecap="round" stroke-width="1"/>
  </g>
</svg>
