<svg xmlns="http://www.w3.org/2000/svg" width="105" height="96.516" viewBox="0 0 105 96.516">
  <g id="conflicto-de-intereses" transform="translate(0 -20.686)">
    <path id="Trazado_912267" data-name="Trazado 912267" d="M210.094,165.484c-4.1,5.072-11.843,11.53-11.843,18.563s7.739,13.491,11.843,18.563c4.1-5.072,11.843-11.53,11.843-18.563S214.2,170.556,210.094,165.484Z" transform="translate(-157.594 -115.103)" fill="#ffc344"/>
    <path id="Trazado_912268" data-name="Trazado 912268" d="M229.908,203.576h-14a1.538,1.538,0,0,1,0-3.076h14a1.538,1.538,0,1,1,0,3.076Z" transform="translate(-170.41 -142.938)" fill="#feb237"/>
    <path id="Trazado_912269" data-name="Trazado 912269" d="M223.718,235.576h-18.3a1.538,1.538,0,0,1,0-3.076h18.3a1.538,1.538,0,0,1,0,3.076Z" transform="translate(-162.067 -168.376)" fill="#feb237"/>
    <path id="Trazado_912270" data-name="Trazado 912270" d="M223.718,267.576h-18.3a1.538,1.538,0,0,1,0-3.076h18.3a1.538,1.538,0,0,1,0,3.076Z" transform="translate(-162.067 -193.813)" fill="#feb237"/>
    <path id="Trazado_912271" data-name="Trazado 912271" d="M229.908,299.576h-14a1.538,1.538,0,1,1,0-3.076h14a1.538,1.538,0,1,1,0,3.076Z" transform="translate(-170.41 -219.251)" fill="#feb237"/>
    <path id="Trazado_912272" data-name="Trazado 912272" d="M52.5,122.968a29.531,29.531,0,1,0,0,37.126,29.535,29.535,0,0,1,0-37.126Z" transform="translate(0 -72.587)" fill="#80d261"/>
    <path id="Trazado_912273" data-name="Trazado 912273" d="M102.648,224.961a3.281,3.281,0,0,0-4.64,0l-6.961,6.961-4.641-4.64a3.281,3.281,0,0,0-4.64,4.64l6.293,6.293a4.225,4.225,0,0,0,5.976,0l8.613-8.613A3.281,3.281,0,0,0,102.648,224.961Z" transform="translate(-64.234 -161.619)" fill="#f2fbff"/>
    <path id="Trazado_912274" data-name="Trazado 912274" d="M278.969,112A29.474,29.474,0,0,0,256,122.968a29.535,29.535,0,0,1,0,37.126A29.532,29.532,0,1,0,278.969,112Z" transform="translate(-203.5 -72.587)" fill="#e53950"/>
    <path id="Trazado_912275" data-name="Trazado 912275" d="M309.94,118.5a29.54,29.54,0,0,1-26.046,52.172A29.535,29.535,0,1,0,309.94,118.5Z" transform="translate(-225.674 -77.754)" fill="#ca2e43"/>
    <path id="Trazado_912276" data-name="Trazado 912276" d="M331,216.3l4.64-4.64a3.281,3.281,0,0,0-4.64-4.64l-4.64,4.64-4.64-4.64a3.281,3.281,0,0,0-4.64,4.64l4.64,4.64-4.64,4.64a3.281,3.281,0,0,0,4.64,4.64l4.64-4.64,4.64,4.64a3.281,3.281,0,1,0,4.64-4.64Z" transform="translate(-251.289 -147.358)" fill="#0055a3"/>
    <g id="Grupo_1101279" data-name="Grupo 1101279" transform="translate(33.774 20.686)">
      <path id="Trazado_912277" data-name="Trazado 912277" d="M246.563,27.249V23.967a3.281,3.281,0,0,0-6.562,0v3.281a3.281,3.281,0,0,0,6.563,0Z" transform="translate(-224.555 -20.686)" fill="#01c0fa"/>
      <path id="Trazado_912278" data-name="Trazado 912278" d="M172.609,39.968l-2.32-2.32a3.281,3.281,0,1,0-4.64,4.64l2.32,2.32a3.281,3.281,0,0,0,4.64-4.641Z" transform="translate(-164.687 -33.406)" fill="#01c0fa"/>
      <path id="Trazado_912279" data-name="Trazado 912279" d="M304.961,39.968l2.32-2.32a3.281,3.281,0,1,1,4.64,4.64l-2.32,2.32a3.281,3.281,0,0,1-4.64-4.641Z" transform="translate(-275.43 -33.406)" fill="#01c0fa"/>
      <path id="Trazado_912280" data-name="Trazado 912280" d="M246.563,446.6v3.281a3.281,3.281,0,0,1-6.562,0V446.6a3.281,3.281,0,0,1,6.563,0Z" transform="translate(-224.555 -356.642)" fill="#01c0fa"/>
      <path id="Trazado_912281" data-name="Trazado 912281" d="M172.609,437.6l-2.32,2.32a3.281,3.281,0,0,1-4.64-4.64l2.32-2.32a3.281,3.281,0,0,1,4.64,4.641Z" transform="translate(-164.687 -347.648)" fill="#01c0fa"/>
      <path id="Trazado_912282" data-name="Trazado 912282" d="M304.961,437.6l2.32,2.32a3.281,3.281,0,0,0,4.64-4.64l-2.32-2.32a3.281,3.281,0,0,0-4.64,4.641Z" transform="translate(-275.43 -347.648)" fill="#01c0fa"/>
    </g>
  </g>
</svg>
