<svg xmlns="http://www.w3.org/2000/svg" xmlns:xlink="http://www.w3.org/1999/xlink" width="100" height="100" viewBox="0 0 100 100">
  <defs>
    <clipPath id="clip-path">
      <rect id="Rectángulo_403161" data-name="Rectángulo 403161" width="100" height="100" transform="translate(863.385 1749)" fill="#ee4f47" stroke="#ffbd45" stroke-width="1"/>
    </clipPath>
  </defs>
  <g id="Enmascarar_grupo_1098747" data-name="Enmascarar grupo 1098747" transform="translate(-863.385 -1749)" clip-path="url(#clip-path)">
    <g id="pensamiento-critico" transform="translate(863.393 1749)">
      <g id="Grupo_1101374" data-name="Grupo 1101374">
        <path id="Trazado_912770" data-name="Trazado 912770" d="M94.792,13.841V24.647a5.5,5.5,0,0,1-5.5,5.5H69.324L65.413,36.26a1.628,1.628,0,0,1-3-.878V6.966a5.5,5.5,0,0,1,5.5-5.5H89.294a5.5,5.5,0,0,1,5.5,5.5" fill="none" stroke="#ffbd45" stroke-linecap="round" stroke-linejoin="round" stroke-miterlimit="10" stroke-width="2.937"/>
        <g id="Grupo_1101373" data-name="Grupo 1101373">
          <path id="Trazado_912771" data-name="Trazado 912771" d="M74.991,12.387A4.289,4.289,0,1,1,81.027,16.3,2.907,2.907,0,0,0,79.28,18.95h0" fill="none" stroke="#ffbd45" stroke-linecap="round" stroke-linejoin="round" stroke-miterlimit="10" stroke-width="2.937"/>
          <line id="Línea_665" data-name="Línea 665" transform="translate(79.28 24.183)" fill="none" stroke="#ffbd45" stroke-linecap="round" stroke-linejoin="round" stroke-miterlimit="10" stroke-width="2.937"/>
        </g>
      </g>
      <g id="Grupo_1101376" data-name="Grupo 1101376">
        <path id="Trazado_912772" data-name="Trazado 912772" d="M39.643,18.459V13.791a5.5,5.5,0,0,0-5.5-5.5H12.762a5.5,5.5,0,0,0-5.5,5.5v17.68a5.5,5.5,0,0,0,5.5,5.5H32.731l3.911,6.115a1.628,1.628,0,0,0,3-.878V25.39" fill="none" stroke="#ffbd45" stroke-linecap="round" stroke-linejoin="round" stroke-miterlimit="10" stroke-width="2.937"/>
        <g id="Grupo_1101375" data-name="Grupo 1101375">
          <line id="Línea_666" data-name="Línea 666" transform="translate(23.167 31.008)" fill="none" stroke="#ffbd45" stroke-linecap="round" stroke-linejoin="round" stroke-miterlimit="10" stroke-width="2.937"/>
        </g>
        <line id="Línea_667" data-name="Línea 667" y1="10.841" transform="translate(23.167 15.005)" fill="none" stroke="#ffbd45" stroke-linecap="round" stroke-linejoin="round" stroke-miterlimit="10" stroke-width="2.937"/>
      </g>
      <g id="Grupo_1101377" data-name="Grupo 1101377">
        <path id="Trazado_912773" data-name="Trazado 912773" d="M75.009,61.542,77.747,56.8l-3.417-1.973a7.949,7.949,0,0,0,0-2.8l3.417-1.973-2.737-4.741-3.418,1.973a8.014,8.014,0,0,0-2.423-1.4V41.942H63.694v3.943a8.013,8.013,0,0,0-2.423,1.4l-3.417-1.973-2.737,4.741,3.417,1.973a7.948,7.948,0,0,0,0,2.8L55.116,56.8l2.737,4.741,3.417-1.973a8.008,8.008,0,0,0,2.424,1.4v3.943h5.475V60.971a8.012,8.012,0,0,0,2.423-1.4Z" fill="none" stroke="#ffbd45" stroke-linecap="round" stroke-linejoin="round" stroke-miterlimit="10" stroke-width="2.937"/>
        <line id="Línea_668" data-name="Línea 668" transform="translate(66.431 53.428)" fill="none" stroke="#ffbd45" stroke-linecap="round" stroke-linejoin="round" stroke-miterlimit="10" stroke-width="2.937"/>
      </g>
      <g id="Grupo_1101378" data-name="Grupo 1101378">
        <line id="Línea_669" data-name="Línea 669" y2="5.082" transform="translate(49.779 30.241)" fill="none" stroke="#ffbd45" stroke-linecap="round" stroke-linejoin="round" stroke-miterlimit="10" stroke-width="2.937"/>
        <line id="Línea_670" data-name="Línea 670" x1="5.082" transform="translate(47.238 32.783)" fill="none" stroke="#ffbd45" stroke-linecap="round" stroke-linejoin="round" stroke-miterlimit="10" stroke-width="2.937"/>
      </g>
      <line id="Línea_671" data-name="Línea 671" transform="translate(83.196 63.86)" fill="none" stroke="#ffbd45" stroke-linecap="round" stroke-linejoin="round" stroke-miterlimit="10" stroke-width="2.937"/>
      <path id="Trazado_912774" data-name="Trazado 912774" d="M66.278,35.068a23.226,23.226,0,0,1,.956,6.615v.249" fill="none" stroke="#ffbd45" stroke-linecap="round" stroke-linejoin="round" stroke-miterlimit="10" stroke-width="2.937"/>
      <path id="Trazado_912775" data-name="Trazado 912775" d="M39.643,18.459h4.368a23.181,23.181,0,0,1,18.165,8.753" fill="none" stroke="#ffbd45" stroke-linecap="round" stroke-linejoin="round" stroke-miterlimit="10" stroke-width="2.937"/>
      <path id="Trazado_912776" data-name="Trazado 912776" d="M31.537,98.532V84.876L19.6,86.231a8.247,8.247,0,0,1-9.177-8.186l-.01-9.036H7.644A2.434,2.434,0,0,1,5.3,65.91L9.257,52V41.682a23.284,23.284,0,0,1,.657-5.506" fill="none" stroke="#ffbd45" stroke-linecap="round" stroke-linejoin="round" stroke-miterlimit="10" stroke-width="2.937"/>
      <path id="Trazado_912777" data-name="Trazado 912777" d="M65.964,64.914a35.5,35.5,0,0,1-4.62,10.175h0a26.6,26.6,0,0,0-4.412,14.67v8.772" fill="none" stroke="#ffbd45" stroke-linecap="round" stroke-linejoin="round" stroke-miterlimit="10" stroke-width="2.937"/>
    </g>
  </g>
</svg>
