<svg xmlns="http://www.w3.org/2000/svg" xmlns:xlink="http://www.w3.org/1999/xlink" width="77.229" height="77.313" viewBox="0 0 77.229 77.313">
  <defs>
    <clipPath id="clip-path">
      <path id="Rectángulo_403179" data-name="Rectángulo 403179" d="M0,0H77a0,0,0,0,1,0,0V77a0,0,0,0,1,0,0H37A37,37,0,0,1,0,40V0A0,0,0,0,1,0,0Z" transform="translate(551.385 5323)" fill="#4045ab" stroke="#707070" stroke-width="1"/>
    </clipPath>
  </defs>
  <g id="Grupo_1101404" data-name="Grupo 1101404" transform="translate(-551.385 -5322.687)">
    <g id="Grupo_1101403" data-name="Grupo 1101403">
      <ellipse id="Elipse_11564" data-name="Elipse 11564" cx="38.614" cy="38.614" rx="38.614" ry="38.614" transform="translate(551.385 5322.687)" fill="#ffbd45"/>
      <g id="Enmascarar_grupo_1098725" data-name="Enmascarar grupo 1098725" clip-path="url(#clip-path)">
        <g id="apreciacion" transform="translate(547.922 5319.563)">
          <path id="Trazado_912398" data-name="Trazado 912398" d="M76.1,48.552a4.349,4.349,0,0,0-3.757,2.156L70.4,53.82V32.827a4.363,4.363,0,0,0-4.36-4.356A4.307,4.307,0,0,0,64,29a4.532,4.532,0,0,0-8.746.378,4.461,4.461,0,0,0-1.635-.317A4.525,4.525,0,0,0,49.1,33.581v3.909a3.813,3.813,0,0,0-1.232-.278,3.9,3.9,0,0,0-4.1,3.736l-.4,12.777a1,1,0,0,0,.008.112A115.2,115.2,0,0,0,43.61,70.3a1.123,1.123,0,0,0,.112.4,14.19,14.19,0,0,0,4.028,8.2,1.259,1.259,0,0,0,.891.368l18.29,0a1.257,1.257,0,0,0,.891-.37A14.325,14.325,0,0,0,69.4,77a7.207,7.207,0,0,0,.808-1.145c.015-.024.029-.049.043-.074a6.028,6.028,0,0,0,.317-.684l9.1-19.688a4.311,4.311,0,0,0,.787-2.5A4.37,4.37,0,0,0,76.1,48.552Zm1.48,5.461a1.412,1.412,0,0,0-.137.229L68.254,74.119a4.183,4.183,0,0,1-.191.424c-.008.013-.016.026-.023.041a4.709,4.709,0,0,1-.579.818,1.371,1.371,0,0,0-.086.11,11.751,11.751,0,0,1-.984,1.232l-17.214,0a11.663,11.663,0,0,1-3-6.717,1.123,1.123,0,0,0-.1-.357,113.913,113.913,0,0,1-.147-16.763,1.268,1.268,0,0,0-.014-.272l.347-10.865.016-.731a1.387,1.387,0,0,1,2.766-.063,1.346,1.346,0,0,0,.054.261V51.2a1.285,1.285,0,0,0,.026.256v1.91a1.258,1.258,0,0,0,2.516,0v-3.2a1.278,1.278,0,0,0-.026-.256V33.579a1.983,1.983,0,0,1,3.553-1.233V52.824a1.258,1.258,0,0,0,2.516,0V49.607s0,0,0-.005,0-.005,0-.007V30.189a2,2,0,0,1,3.992,0V52.234a1.258,1.258,0,0,0,2.516,0V32.827a1.844,1.844,0,0,1,3.688,0V57.17A17.316,17.316,0,0,0,55.9,67.978a1.258,1.258,0,0,0,.752,1.612,1.273,1.273,0,0,0,.431.075,1.257,1.257,0,0,0,1.182-.827,14.78,14.78,0,0,1,10.868-9.375,1.255,1.255,0,0,0,1.074-.583L74.5,52a1.842,1.842,0,0,1,3.443.918,1.8,1.8,0,0,1-.366,1.1Z" fill="#4045ab"/>
          <path id="Trazado_912399" data-name="Trazado 912399" d="M40.559,53.722l-.384-12.007-.018-.807a3.9,3.9,0,0,0-4.1-3.7,3.806,3.806,0,0,0-1.238.28v-3.91a4.525,4.525,0,0,0-4.518-4.521,4.471,4.471,0,0,0-1.634.317A4.532,4.532,0,0,0,19.925,29a4.314,4.314,0,0,0-2.04-.528,4.363,4.363,0,0,0-4.361,4.356V53.82l-1.917-3.071a4.36,4.36,0,0,0-8.145,2.167,4.318,4.318,0,0,0,.786,2.494l9.076,19.612a6.338,6.338,0,0,0,.356.777,7.2,7.2,0,0,0,.844,1.2,14,14,0,0,0,1.584,1.889,1.257,1.257,0,0,0,.89.368l18.291,0a1.262,1.262,0,0,0,.891-.368A14.188,14.188,0,0,0,40.2,70.73a1.25,1.25,0,0,0,.121-.434,115.133,115.133,0,0,0,.232-16.47c0-.034.007-.066.006-.1ZM37.851,69.633a1.3,1.3,0,0,0-.1.392,11.654,11.654,0,0,1-3,6.717l-17.216,0a11.772,11.772,0,0,1-.981-1.23,1.167,1.167,0,0,0-.089-.115,4.7,4.7,0,0,1-.58-.816,4.5,4.5,0,0,1-.243-.541l-9.161-19.8a1.233,1.233,0,0,0-.135-.226,1.819,1.819,0,0,1-.367-1.1,1.848,1.848,0,0,1,1.845-1.848,1.874,1.874,0,0,1,1.625.971l4.267,6.837a1.252,1.252,0,0,0,1.074.585,14.78,14.78,0,0,1,10.872,9.375,1.258,1.258,0,0,0,1.182.827,1.276,1.276,0,0,0,.431-.075,1.259,1.259,0,0,0,.752-1.614A17.321,17.321,0,0,0,16.043,57.17V32.827a1.846,1.846,0,0,1,3.691,0V52.234a1.258,1.258,0,0,0,2.516,0V30.189a2,2,0,0,1,3.992,0V52.825a1.258,1.258,0,1,0,2.516,0V49.607s0,0,0-.005,0-.005,0-.007V32.347A1.982,1.982,0,0,1,32.31,33.58V49.913a1.258,1.258,0,0,0-.027.259v3.2a1.258,1.258,0,0,0,2.516,0V51.464a1.258,1.258,0,0,0,.027-.259V41.233a1.246,1.246,0,0,0,.053-.259,1.391,1.391,0,0,1,1.313-1.252,1.339,1.339,0,0,1,1,.351,1.363,1.363,0,0,1,.455.924l.365,11.635a1.268,1.268,0,0,0-.014.272,114.081,114.081,0,0,1-.143,16.729Z" fill="#4045ab"/>
          <path id="Trazado_912400" data-name="Trazado 912400" d="M48.152,7.917a1.258,1.258,0,1,0,0,2.516,1.632,1.632,0,0,1,1.6,1.334,1.258,1.258,0,1,0,2.474-.457,4.148,4.148,0,0,0-4.079-3.393Z" fill="#4045ab"/>
          <path id="Trazado_912401" data-name="Trazado 912401" d="M55.6,12.012a7.44,7.44,0,0,0-13.64-4.071,7.44,7.44,0,0,0-13.64,4.071c-.07.979-.387,10.5,12.962,17.738a1.254,1.254,0,0,0,.674.2h.008a1.25,1.25,0,0,0,.663-.19C55.989,22.519,55.673,12.991,55.6,12.012ZM41.961,27.25C30.264,20.665,30.8,12.527,30.832,12.186a1.164,1.164,0,0,0,.006-.121,4.934,4.934,0,0,1,9.868-.1,1.258,1.258,0,0,0,1.257,1.231h0a1.258,1.258,0,0,0,1.257-1.233,4.933,4.933,0,0,1,9.865.106c0,.04,0,.081.006.121.008.086.668,8.421-11.131,15.065Z" fill="#4045ab"/>
        </g>
      </g>
    </g>
  </g>
</svg>
