<svg xmlns="http://www.w3.org/2000/svg" xmlns:xlink="http://www.w3.org/1999/xlink" width="77.229" height="77.313" viewBox="0 0 77.229 77.313">
  <defs>
    <clipPath id="clip-path">
      <path id="Rectángulo_403181" data-name="Rectángulo 403181" d="M0,0H77a0,0,0,0,1,0,0V77a0,0,0,0,1,0,0H38A38,38,0,0,1,0,39V0A0,0,0,0,1,0,0Z" transform="translate(971.385 5323)" fill="#4045ab" stroke="#4045ab" stroke-width="1"/>
    </clipPath>
  </defs>
  <g id="Grupo_1101406" data-name="Grupo 1101406" transform="translate(-971.385 -5322.687)">
    <ellipse id="Elipse_11566" data-name="Elipse 11566" cx="38.614" cy="38.614" rx="38.614" ry="38.614" transform="translate(971.385 5322.687)" fill="#ffbd45"/>
    <g id="Enmascarar_grupo_1098727" data-name="Enmascarar grupo 1098727" clip-path="url(#clip-path)">
      <g id="capacitacion" transform="translate(971.385 5323)">
        <g id="Grupo_1101319" data-name="Grupo 1101319">
          <line id="Línea_618" data-name="Línea 618" y1="23.099" transform="translate(5.64 6.492)" fill="none" stroke="#4045ab" stroke-linecap="round" stroke-linejoin="round" stroke-miterlimit="10" stroke-width="2.256"/>
          <line id="Línea_619" data-name="Línea 619" y1="18.86" transform="translate(5.64 34.855)" fill="none" stroke="#4045ab" stroke-linecap="round" stroke-linejoin="round" stroke-miterlimit="10" stroke-width="2.256"/>
          <line id="Línea_620" data-name="Línea 620" y2="43.914" transform="translate(71.36 6.488)" fill="none" stroke="#4045ab" stroke-linecap="round" stroke-linejoin="round" stroke-miterlimit="10" stroke-width="2.256"/>
          <path id="Trazado_912403" data-name="Trazado 912403" d="M21.688,6.392H1.88a.752.752,0,0,1-.752-.752V1.88a.752.752,0,0,1,.752-.752H75.12a.752.752,0,0,1,.752.752V5.64a.752.752,0,0,1-.752.752H26.952" fill="none" stroke="#4045ab" stroke-linecap="round" stroke-linejoin="round" stroke-miterlimit="10" stroke-width="2.256"/>
          <line id="Línea_621" data-name="Línea 621" x2="12.61" transform="translate(32.35 53.765)" fill="none" stroke="#4045ab" stroke-linecap="round" stroke-linejoin="round" stroke-miterlimit="10" stroke-width="2.256"/>
          <path id="Trazado_912404" data-name="Trazado 912404" d="M29.121,58.276H3.91a.752.752,0,0,1-.752-.752V54.517a.752.752,0,0,1,.752-.752H24.229" fill="none" stroke="#4045ab" stroke-linecap="round" stroke-linejoin="round" stroke-miterlimit="10" stroke-width="2.256"/>
          <circle id="Elipse_11570" data-name="Elipse 11570" cx="2.632" cy="2.632" r="2.632" transform="translate(35.868 70.608)" fill="none" stroke="#4045ab" stroke-linecap="round" stroke-linejoin="round" stroke-miterlimit="10" stroke-width="2.256"/>
          <line id="Línea_622" data-name="Línea 622" y1="4.813" transform="translate(38.5 65.758)" fill="none" stroke="#4045ab" stroke-linecap="round" stroke-linejoin="round" stroke-miterlimit="10" stroke-width="2.256"/>
        </g>
        <g id="Grupo_1101321" data-name="Grupo 1101321">
          <path id="Trazado_912405" data-name="Trazado 912405" d="M58.615,44.253v3.369A1.5,1.5,0,0,1,57.3,49.115l-4.046.51a12.032,12.032,0,0,0-5.5,2.153l-9.291,6.65L28,50.493a2.475,2.475,0,0,0-3.354.337l-.041.047a2.557,2.557,0,0,0,.227,3.62l11.96,10.465a3.007,3.007,0,0,0,3.444.364L51.81,58.878V75.872" fill="none" stroke="#4045ab" stroke-linecap="round" stroke-linejoin="round" stroke-miterlimit="10" stroke-width="2.256"/>
          <path id="Trazado_912406" data-name="Trazado 912406" d="M70.623,75.872V69.856h0a5.249,5.249,0,0,0,5.249-5.249v-9.5a4.512,4.512,0,0,0-3.511-4.4L65.8,49.215a1.5,1.5,0,0,1-1.17-1.466V44.191" fill="none" stroke="#4045ab" stroke-linecap="round" stroke-linejoin="round" stroke-miterlimit="10" stroke-width="2.256"/>
          <line id="Línea_623" data-name="Línea 623" y1="8.271" transform="translate(70.623 61.585)" fill="none" stroke="#4045ab" stroke-linecap="round" stroke-linejoin="round" stroke-miterlimit="10" stroke-width="2.256"/>
          <g id="Grupo_1101320" data-name="Grupo 1101320">
            <path id="Trazado_912407" data-name="Trazado 912407" d="M65.4,43.448h2.955A3.008,3.008,0,0,0,71.36,40.44" fill="none" stroke="#4045ab" stroke-linecap="round" stroke-linejoin="round" stroke-miterlimit="10" stroke-width="2.256"/>
            <path id="Trazado_912408" data-name="Trazado 912408" d="M51.915,31.069a6.6,6.6,0,0,0-.105,1.176V40.44a3.008,3.008,0,0,0,3.008,3.009h2.961" fill="none" stroke="#4045ab" stroke-linecap="round" stroke-linejoin="round" stroke-miterlimit="10" stroke-width="2.256"/>
            <path id="Trazado_912409" data-name="Trazado 912409" d="M71.36,32.245a6.6,6.6,0,0,0-3.921-6.035h0a6.6,6.6,0,0,0-5.634.128l-.221.111-.221-.111a6.6,6.6,0,0,0-5.634-.128h0a6.6,6.6,0,0,0-.976.537" fill="none" stroke="#4045ab" stroke-linecap="round" stroke-linejoin="round" stroke-miterlimit="10" stroke-width="2.256"/>
            <path id="Trazado_912410" data-name="Trazado 912410" d="M62.93,45.3h0a3.007,3.007,0,0,1-2.69,0h0a8.452,8.452,0,0,1-4.671-7.559v-2.6h0a4.249,4.249,0,0,1,4.249-4.212h0a3.433,3.433,0,0,1,2.794,1.438l.233.326A5.844,5.844,0,0,0,67.6,35.137h0v2.6A8.451,8.451,0,0,1,62.93,45.3Z" fill="none" stroke="#4045ab" stroke-linecap="round" stroke-linejoin="round" stroke-miterlimit="10" stroke-width="2.256"/>
            <path id="Trazado_912411" data-name="Trazado 912411" d="M56.422,49.3a5.48,5.48,0,0,0,5.157,4.087,5.263,5.263,0,0,0,5.109-3.935" fill="none" stroke="#4045ab" stroke-linecap="round" stroke-linejoin="round" stroke-miterlimit="10" stroke-width="2.256"/>
            <line id="Línea_624" data-name="Línea 624" y2="5.941" transform="translate(61.585 69.856)" fill="none" stroke="#4045ab" stroke-linecap="round" stroke-linejoin="round" stroke-miterlimit="10" stroke-width="2.256"/>
            <line id="Línea_625" data-name="Línea 625" y2="11.205" transform="translate(61.585 53.387)" fill="none" stroke="#4045ab" stroke-linecap="round" stroke-linejoin="round" stroke-miterlimit="10" stroke-width="2.256"/>
          </g>
          <line id="Línea_626" data-name="Línea 626" y1="4.181" x2="3.435" transform="translate(28.373 53.389)" fill="none" stroke="#4045ab" stroke-linecap="round" stroke-linejoin="round" stroke-miterlimit="10" stroke-width="2.256"/>
          <line id="Línea_627" data-name="Línea 627" x1="7.444" y1="13.836" transform="translate(17.145 36.921)" fill="none" stroke="#4045ab" stroke-linecap="round" stroke-linejoin="round" stroke-miterlimit="10" stroke-width="2.256"/>
        </g>
        <rect id="Rectángulo_403187" data-name="Rectángulo 403187" width="51.133" height="4.662" transform="translate(12.934 11.204)" fill="none" stroke="#4045ab" stroke-linecap="round" stroke-linejoin="round" stroke-miterlimit="10" stroke-width="2.256"/>
        <line id="Línea_628" data-name="Línea 628" x2="25.566" transform="translate(13.009 21.13)" fill="none" stroke="#4045ab" stroke-linecap="round" stroke-linejoin="round" stroke-miterlimit="10" stroke-width="2.256"/>
        <line id="Línea_629" data-name="Línea 629" x2="25.566" transform="translate(13.009 26.394)" fill="none" stroke="#4045ab" stroke-linecap="round" stroke-linejoin="round" stroke-miterlimit="10" stroke-width="2.256"/>
        <rect id="Rectángulo_403188" data-name="Rectángulo 403188" width="5.264" height="5.264" transform="translate(33.312 31.657)" fill="none" stroke="#4045ab" stroke-linecap="round" stroke-linejoin="round" stroke-miterlimit="10" stroke-width="2.256"/>
        <rect id="Rectángulo_403189" data-name="Rectángulo 403189" width="5.264" height="5.264" transform="translate(33.312 41.433)" fill="none" stroke="#4045ab" stroke-linecap="round" stroke-linejoin="round" stroke-miterlimit="10" stroke-width="2.256"/>
        <line id="Línea_630" data-name="Línea 630" x1="4.888" transform="translate(23.16 36.921)" fill="none" stroke="#4045ab" stroke-linecap="round" stroke-linejoin="round" stroke-miterlimit="10" stroke-width="2.256"/>
        <line id="Línea_631" data-name="Línea 631" x2="15.039" transform="translate(13.009 31.657)" fill="none" stroke="#4045ab" stroke-linecap="round" stroke-linejoin="round" stroke-miterlimit="10" stroke-width="2.256"/>
      </g>
    </g>
  </g>
</svg>
