<svg xmlns="http://www.w3.org/2000/svg" xmlns:xlink="http://www.w3.org/1999/xlink" width="77.229" height="77.313" viewBox="0 0 77.229 77.313">
  <defs>
    <clipPath id="clip-path">
      <path id="Rectángulo_403182" data-name="Rectángulo 403182" d="M0,0H77a0,0,0,0,1,0,0V77a0,0,0,0,1,0,0H37A37,37,0,0,1,0,40V0A0,0,0,0,1,0,0Z" transform="translate(1181.385 5323)" fill="#4045ab" stroke="#707070" stroke-width="1"/>
    </clipPath>
  </defs>
  <g id="Grupo_1101408" data-name="Grupo 1101408" transform="translate(-1181.385 -5322.687)">
    <g id="Grupo_1101407" data-name="Grupo 1101407">
      <ellipse id="Elipse_11567" data-name="Elipse 11567" cx="38.614" cy="38.614" rx="38.614" ry="38.614" transform="translate(1181.385 5322.687)" fill="#ffbd45"/>
      <g id="Enmascarar_grupo_1098728" data-name="Enmascarar grupo 1098728" clip-path="url(#clip-path)">
        <path id="programa-de-fidelidad" d="M53.581,46.242a1.069,1.069,0,0,0,1.067-1.521l-3.91-8.284a5.7,5.7,0,0,0,2.578-1.53,5.839,5.839,0,0,0,1.616-5.459A3.736,3.736,0,0,1,56.482,25.7a5.963,5.963,0,0,0,0-10,3.736,3.736,0,0,1-1.551-3.745A5.963,5.963,0,0,0,47.857,4.88a3.736,3.736,0,0,1-3.745-1.551,5.963,5.963,0,0,0-10,0,3.736,3.736,0,0,1-3.745,1.551,5.963,5.963,0,0,0-7.074,7.074A3.736,3.736,0,0,1,21.738,15.7a5.963,5.963,0,0,0,0,10,3.736,3.736,0,0,1,1.551,3.745,5.841,5.841,0,0,0,1.616,5.458,5.693,5.693,0,0,0,2.64,1.547L23.63,44.747A1.069,1.069,0,0,0,24.7,46.268l4.5-.423,2.89,3.48A1.069,1.069,0,0,0,33.921,49l3.065-8.581a6.284,6.284,0,0,0,4.308-.023l3.064,8.577a1.069,1.069,0,0,0,1.83.324l2.89-3.48Zm-21.043.274-2.052-2.471a1.069,1.069,0,0,0-.923-.381l-3.2.3,3.48-7.372c.171-.018.343-.04.519-.07a3.736,3.736,0,0,1,3.744,1.551,7.671,7.671,0,0,0,1.024,1.181l-2.594,7.262Zm3.314-9.682a5.811,5.811,0,0,0-4.8-2.511,6.29,6.29,0,0,0-1.05.089A3.83,3.83,0,0,1,25.4,29.8a5.833,5.833,0,0,0-2.421-5.846,3.83,3.83,0,0,1,0-6.517A5.832,5.832,0,0,0,25.4,11.6a3.83,3.83,0,0,1,4.608-4.608,5.832,5.832,0,0,0,5.846-2.421,3.83,3.83,0,0,1,6.517,0,5.834,5.834,0,0,0,5.846,2.421A3.83,3.83,0,0,1,52.823,11.6a5.832,5.832,0,0,0,2.421,5.846,3.83,3.83,0,0,1,0,6.517A5.832,5.832,0,0,0,52.823,29.8a3.83,3.83,0,0,1-4.608,4.608,5.832,5.832,0,0,0-5.846,2.421,3.83,3.83,0,0,1-6.517,0Zm11.94,7.184L45.74,46.488l-2.6-7.284a7.718,7.718,0,0,0,.974-1.133,3.736,3.736,0,0,1,3.745-1.551c.2.034.4.058.592.077l3.464,7.338-3.2-.3a1.069,1.069,0,0,0-.923.382ZM52.125,20.7A13.014,13.014,0,1,0,39.11,33.715,13.029,13.029,0,0,0,52.125,20.7ZM39.11,31.576A10.875,10.875,0,1,1,49.986,20.7,10.888,10.888,0,0,1,39.11,31.576ZM47.68,17.953a1.654,1.654,0,0,0-1.379-1.14l-3.976-.5-1.7-3.627a1.668,1.668,0,0,0-3.02,0l-1.7,3.627-3.976.5a1.668,1.668,0,0,0-.933,2.872l2.923,2.742-.753,3.936A1.668,1.668,0,0,0,35.6,28.138L39.11,26.2l3.511,1.933a1.653,1.653,0,0,0,1.785-.112,1.654,1.654,0,0,0,.658-1.664l-.753-3.936,2.923-2.742a1.654,1.654,0,0,0,.445-1.732Zm-5.261,3.317a1.069,1.069,0,0,0-.319.981l.676,3.531-3.149-1.734a1.07,1.07,0,0,0-1.032,0l-3.149,1.734.676-3.531a1.069,1.069,0,0,0-.319-.981L33.18,18.81l3.567-.448a1.069,1.069,0,0,0,.834-.606L39.111,14.5l1.529,3.254a1.07,1.07,0,0,0,.834.606l3.567.448-2.622,2.46ZM30.071,54.2c-.921-3.131-3.21-4.886-5.86-6.917a31.012,31.012,0,0,1-9.084-9.791,3.863,3.863,0,0,0-5.752-1.228A119.261,119.261,0,0,1,8.109,21.5c0-2.449-1.409-3.829-2.805-4.11A3.346,3.346,0,0,0,1.611,19.7C.617,22.07.509,31.423.673,35.9c.151,4.137.432,7.384,2.688,11.5a66.868,66.868,0,0,0,3.655,5.7c.534.774,1.038,1.5,1.5,2.209,2.028,3.072,3.394,5.615,3.779,8.371a3.154,3.154,0,0,0-2.414,2.27l-1.511,5.64a1.069,1.069,0,0,0,.756,1.31l17.435,4.672a1.069,1.069,0,0,0,1.31-.756l1.511-5.64A3.156,3.156,0,0,0,28.2,67.822c2.213-6.272,2.788-10.489,1.867-13.62ZM27.319,70.624l-1.234,4.607L10.716,71.113l1.234-4.607a1.016,1.016,0,0,1,1.243-.718L26.6,69.381A1.016,1.016,0,0,1,27.319,70.624ZM26.2,67.06,14.481,63.919c-.385-3.761-2.344-7.01-4.176-9.786-.477-.723-.988-1.463-1.528-2.246a65.34,65.34,0,0,1-3.54-5.513C3.2,42.662,2.955,39.787,2.81,35.824c-.2-5.606.1-13.681.774-15.3.314-.75.8-1.138,1.3-1.037.524.105,1.088.78,1.088,2.013,0,3.844.761,13.863,2.005,18.7h0c.6,4.35,5.573,10.129,7.793,11.543a1.069,1.069,0,0,0,1.149-1.8,21.092,21.092,0,0,1-4.875-5.517c-1.683-2.642-2.371-4.922-1.8-5.949a1.71,1.71,0,0,1,3,.038l.02.035A33.267,33.267,0,0,0,22.91,48.983c2.546,1.951,4.385,3.361,5.109,5.823.774,2.631.2,6.536-1.815,12.254ZM76.61,19.7a3.346,3.346,0,0,0-3.693-2.307c-1.4.281-2.805,1.661-2.805,4.11a119.253,119.253,0,0,1-1.267,14.766,3.864,3.864,0,0,0-5.752,1.228,31.014,31.014,0,0,1-9.084,9.791c-2.65,2.031-4.939,3.785-5.86,6.917s-.346,7.348,1.867,13.62a3.156,3.156,0,0,0-1.181,3.355l1.511,5.64a1.069,1.069,0,0,0,1.31.756L69.092,72.9a1.069,1.069,0,0,0,.756-1.31l-1.511-5.64a3.155,3.155,0,0,0-2.414-2.27c.385-2.756,1.751-5.3,3.779-8.371.465-.7.969-1.435,1.5-2.209a66.947,66.947,0,0,0,3.656-5.7c2.256-4.115,2.538-7.362,2.688-11.5.163-4.48.056-13.832-.938-16.2ZM66.271,66.506l1.234,4.607L52.136,75.231,50.9,70.624a1.016,1.016,0,0,1,.717-1.243l13.409-3.593a1.014,1.014,0,0,1,1.243.717Zm9.14-30.681c-.145,3.963-.391,6.837-2.427,10.549a65.32,65.32,0,0,1-3.541,5.514c-.54.783-1.05,1.523-1.528,2.245-1.832,2.776-3.791,6.026-4.176,9.786L52.017,67.06C50,61.342,49.428,57.437,50.2,54.806c.724-2.462,2.564-3.872,5.109-5.823a33.267,33.267,0,0,0,9.644-10.435l.02-.035a1.71,1.71,0,0,1,3-.038c.576,1.027-.112,3.307-1.8,5.949A21.1,21.1,0,0,1,61.3,49.941a1.069,1.069,0,0,0,1.149,1.8c2.219-1.414,7.2-7.193,7.793-11.543h0c1.244-4.839,2-14.858,2-18.7,0-1.233.564-1.908,1.088-2.013.5-.1.984.287,1.3,1.037.679,1.619.978,9.694.774,15.3ZM58.669,11.938a1.069,1.069,0,0,1,.391-1.461l2.633-1.52a1.069,1.069,0,0,1,1.069,1.852l-2.633,1.52a1.069,1.069,0,0,1-1.461-.391Zm4.094,18.654a1.069,1.069,0,1,1-1.069,1.852l-2.633-1.52a1.069,1.069,0,1,1,1.069-1.852Zm-.676-10.961h3.04a1.069,1.069,0,0,1,0,2.139h-3.04a1.069,1.069,0,1,1,0-2.139ZM18.091,29.072a1.069,1.069,0,1,1,1.069,1.852l-2.633,1.52a1.069,1.069,0,0,1-1.069-1.852ZM12.025,20.7a1.069,1.069,0,0,1,1.069-1.069h3.04a1.069,1.069,0,0,1,0,2.139h-3.04A1.069,1.069,0,0,1,12.025,20.7ZM15.067,9.348a1.069,1.069,0,0,1,1.461-.391l2.633,1.52a1.069,1.069,0,1,1-1.069,1.852l-2.633-1.52a1.069,1.069,0,0,1-.391-1.461Z" transform="translate(1180.774 5322.389)" fill="#4045ab"/>
      </g>
    </g>
  </g>
</svg>
