<svg xmlns="http://www.w3.org/2000/svg" xmlns:xlink="http://www.w3.org/1999/xlink" width="85" height="85" viewBox="0 0 85 85">
  <defs>
    <clipPath id="clip-path">
      <rect id="Rectángulo_403261" data-name="Rectángulo 403261" width="85" height="85" transform="translate(810.385 1202)" fill="#ffbd45" stroke="#707070" stroke-width="1"/>
    </clipPath>
  </defs>
  <g id="Grupo_1101395" data-name="Grupo 1101395" transform="translate(-810.385 -1202)">
    <g id="Grupo_1101394" data-name="Grupo 1101394">
      <circle id="Elipse_11561" data-name="Elipse 11561" cx="42.5" cy="42.5" r="42.5" transform="translate(810.385 1202)" fill="#4045ab"/>
      <g id="Enmascarar_grupo_1098744" data-name="Enmascarar grupo 1098744" clip-path="url(#clip-path)">
        <g id="eleccion" transform="translate(810.385 1202)">
          <path id="Trazado_912765" data-name="Trazado 912765" d="M17.859,10.347a1.245,1.245,0,0,0,0,1.761l3.413,3.413a1.246,1.246,0,0,0,1.761,0L29.14,9.414a1.245,1.245,0,0,0-1.761-1.761L22.153,12.88l-2.532-2.533a1.246,1.246,0,0,0-1.761,0Z" fill="#ffbd45"/>
          <path id="Trazado_912766" data-name="Trazado 912766" d="M66.128,6.96a1.245,1.245,0,0,0-1.761,0L61.5,9.826,58.633,6.96A1.245,1.245,0,0,0,56.872,8.72l2.867,2.867-2.867,2.867a1.245,1.245,0,1,0,1.761,1.761L61.5,13.348l2.867,2.867a1.245,1.245,0,1,0,1.761-1.761l-2.867-2.867L66.128,8.72a1.245,1.245,0,0,0,0-1.761Z" fill="#ffbd45"/>
          <path id="Trazado_912767" data-name="Trazado 912767" d="M45.115,39.989V31.568a3.151,3.151,0,0,0-3.25-3.033H40.524a3.379,3.379,0,0,0-2,.651,3.379,3.379,0,0,0-2-.651H35.174a3.38,3.38,0,0,0-2.005.651,3.379,3.379,0,0,0-2-.651H29.823a3.454,3.454,0,0,0-.76.087V23.175h3.461a2.566,2.566,0,0,0,2.563-2.563V2.563A2.566,2.566,0,0,0,32.524,0H24.083a1.245,1.245,0,0,0,0,2.49h8.441a.073.073,0,0,1,.073.073V20.612a.073.073,0,0,1-.073.073H29.063v-.449a4.068,4.068,0,0,0-3.92-4.193,4.068,4.068,0,0,0-3.92,4.193v.449H14.475a.073.073,0,0,1-.073-.073V2.563a.073.073,0,0,1,.073-.073h4.63a1.245,1.245,0,0,0,0-2.49h-4.63a2.566,2.566,0,0,0-2.563,2.563V20.612a2.566,2.566,0,0,0,2.563,2.563h6.747V38.207l-3.6-1.753a3.644,3.644,0,0,0-4.347.9,4.26,4.26,0,0,0,.047,5.675l6.99,7.568a3.586,3.586,0,0,1,.911,2.416v5.331h-.939a2.342,2.342,0,0,0-2.34,2.34V82.66A2.342,2.342,0,0,0,20.282,85h23.3a2.342,2.342,0,0,0,2.34-2.34V60.681a2.342,2.342,0,0,0-2.34-2.34H42.439V55.814a4.151,4.151,0,0,1,.621-2.208l1.431-2.285A1.245,1.245,0,1,0,42.38,50L40.95,52.285a6.639,6.639,0,0,0-1,3.529v2.527H23.712V53.01A6.019,6.019,0,0,0,22.141,48.9l-6.99-7.568a1.793,1.793,0,0,1-.017-2.329,1.163,1.163,0,0,1,1.4-.315l5.392,2.625a1.248,1.248,0,0,0,1.79-1.119V20.235a1.586,1.586,0,0,1,1.43-1.7,1.586,1.586,0,0,1,1.43,1.7V40.2a1.245,1.245,0,0,0,2.49,0v-8.63c0-.257.312-.543.76-.543h1.341c.448,0,.76.286.76.543V40.2a1.245,1.245,0,0,0,2.49,0v-8.63c0-.257.312-.543.76-.543h1.341c.448,0,.76.286.76.543V40.2a1.245,1.245,0,1,0,2.49,0v-8.63c0-.257.312-.543.76-.543h1.341c.448,0,.76.286.76.543V40.2a1.369,1.369,0,0,0,.068.4l1.1,3.191a5.734,5.734,0,0,1,.286,2.322,1.245,1.245,0,0,0,2.482.207,8.243,8.243,0,0,0-.413-3.338Zm-1.688,42.52H20.433V60.831H43.427Z" fill="#ffbd45"/>
          <path id="Trazado_912768" data-name="Trazado 912768" d="M24.715,66.115a1.245,1.245,0,0,0-1.245,1.245v1.953a1.245,1.245,0,0,0,2.49,0V67.36A1.245,1.245,0,0,0,24.715,66.115Z" fill="#ffbd45"/>
          <path id="Trazado_912769" data-name="Trazado 912769" d="M71.842,10.343A1.245,1.245,0,0,0,73.087,9.1V2.563A2.566,2.566,0,0,0,70.525,0H52.476a2.566,2.566,0,0,0-2.563,2.563V20.612a2.566,2.566,0,0,0,2.563,2.563H70.525a2.566,2.566,0,0,0,2.563-2.563V14.076a1.245,1.245,0,1,0-2.49,0v6.535a.073.073,0,0,1-.073.073H52.476a.073.073,0,0,1-.073-.073V2.563a.073.073,0,0,1,.073-.073H70.525a.073.073,0,0,1,.073.073V9.1a1.245,1.245,0,0,0,1.245,1.245Z" fill="#ffbd45"/>
        </g>
      </g>
    </g>
  </g>
</svg>
