<svg xmlns="http://www.w3.org/2000/svg" xmlns:xlink="http://www.w3.org/1999/xlink" width="85" height="85" viewBox="0 0 85 85">
  <defs>
    <clipPath id="clip-path">
      <path id="Rectángulo_403259" data-name="Rectángulo 403259" d="M0,0H85a0,0,0,0,1,0,0V43A42,42,0,0,1,43,85H0a0,0,0,0,1,0,0V0A0,0,0,0,1,0,0Z" transform="translate(180.385 1202)" fill="#ffbd45" stroke="#ffbd45" stroke-width="1"/>
    </clipPath>
    <clipPath id="clip-path-2">
      <path id="path891" d="M0-85H85V0H0Z" fill="#ffbd45"/>
    </clipPath>
  </defs>
  <g id="Grupo_1101390" data-name="Grupo 1101390" transform="translate(-180.385 -1202)">
    <g id="Grupo_1101389" data-name="Grupo 1101389">
      <circle id="Elipse_11559" data-name="Elipse 11559" cx="42.5" cy="42.5" r="42.5" transform="translate(180.385 1202)" fill="#4045ab"/>
      <g id="Enmascarar_grupo_1098742" data-name="Enmascarar grupo 1098742" clip-path="url(#clip-path)">
        <g id="g885" transform="translate(180.385 1287)">
          <g id="g887">
            <g id="g889" clip-path="url(#clip-path-2)">
              <g id="g895" transform="translate(46.026 -58.722)">
                <path id="path897" d="M0,0A15.48,15.48,0,0,1,0,21.893a15.48,15.48,0,0,1-21.892,0A15.48,15.48,0,0,1-21.892,0,15.48,15.48,0,0,1,0,0Z" fill="none" stroke="#ffbd45" stroke-linecap="round" stroke-linejoin="round" stroke-miterlimit="10" stroke-width="2.49"/>
              </g>
              <g id="g899" transform="translate(40.683 -38.913)">
                <path id="path901" d="M0,0A10.411,10.411,0,0,1-5.6,1.619a10.413,10.413,0,0,1-7.412-3.07,10.493,10.493,0,0,1,0-14.823A10.413,10.413,0,0,1-5.6-19.344a10.413,10.413,0,0,1,7.411,3.07A10.5,10.5,0,0,1,3.894-4.427" fill="none" stroke="#ffbd45" stroke-linecap="round" stroke-linejoin="round" stroke-miterlimit="10" stroke-width="2.49"/>
              </g>
              <g id="g903" transform="translate(46.026 -36.829)">
                <path id="path905" d="M0,0,4.723,4.723" fill="none" stroke="#ffbd45" stroke-linecap="round" stroke-linejoin="round" stroke-miterlimit="10" stroke-width="2.49"/>
              </g>
              <g id="g907" transform="translate(49.838 -31.195)">
                <path id="path909" d="M0,0,1.823-1.823a3.409,3.409,0,0,1,4.822,0l5.611,5.611a3.409,3.409,0,0,1,0,4.822l-1.823,1.823a3.41,3.41,0,0,1-4.822,0L0,4.822A3.409,3.409,0,0,1,0,0Z" fill="none" stroke="#ffbd45" stroke-linecap="round" stroke-linejoin="round" stroke-miterlimit="10" stroke-width="2.49"/>
              </g>
              <g id="g911" transform="translate(20.433 -52.793)">
                <path id="path913" d="M0,0H-11.2a4.341,4.341,0,0,1-4.343-4.343V-26.619A4.341,4.341,0,0,1-11.2-30.962H13.336a4.341,4.341,0,0,1,4.341,4.343V-16.19" fill="none" stroke="#ffbd45" stroke-linecap="round" stroke-linejoin="round" stroke-miterlimit="10" stroke-width="2.49"/>
              </g>
              <g id="g915" transform="translate(38.111 -79.412)">
                <path id="path917" d="M0,0V5.141H-33.22V0a4.342,4.342,0,0,1,4.343-4.342H-4.341A4.342,4.342,0,0,1,0,0Z" fill="none" stroke="#ffbd45" stroke-linecap="round" stroke-linejoin="round" stroke-miterlimit="10" stroke-width="2.49"/>
              </g>
              <g id="g919" transform="translate(49.454 -53.528)">
                <path id="path921" d="M0,0A0,0,0,0,0,0,0a5.058,5.058,0,0,0,2.63.734H7.217V8.043a1.352,1.352,0,0,0,2.493.724l5.1-8.032H25.586a5.069,5.069,0,0,0,5.068-5.07V-25.083a5.069,5.069,0,0,0-5.068-5.07H2.631a5.071,5.071,0,0,0-5.072,5.07V-4.335q0,.117,0,.234" fill="none" stroke="#ffbd45" stroke-linecap="round" stroke-linejoin="round" stroke-miterlimit="10" stroke-width="2.49"/>
              </g>
              <g id="g923" transform="translate(56.67 -52.793)">
                <path id="path925" d="M0,0V-4.978" fill="none" stroke="#ffbd45" stroke-linecap="round" stroke-linejoin="round" stroke-miterlimit="10" stroke-width="2.49"/>
              </g>
              <g id="g927" transform="translate(62.206 -58.039)">
                <path id="path929" d="M0,0A1.267,1.267,0,0,0,1.267,1.267,1.267,1.267,0,0,0,2.534,0,1.267,1.267,0,0,0,1.267-1.267,1.267,1.267,0,0,0,0,0" fill="#ffbd45"/>
              </g>
              <g id="g931" transform="translate(58.146 -73.98)">
                <path id="path933" d="M0,0A5.35,5.35,0,0,1,.051-.743,5.327,5.327,0,0,1,5.436-5.325,5.348,5.348,0,0,1,10.646-.283a5.329,5.329,0,0,1-5.319,5.61V10.9" fill="none" stroke="#ffbd45" stroke-linecap="round" stroke-linejoin="round" stroke-miterlimit="10" stroke-width="2.49"/>
              </g>
              <g id="g935" transform="translate(9.89 -78.987)">
                <path id="path937" d="M0,0A1.267,1.267,0,0,0,1.267,1.267,1.267,1.267,0,0,0,2.534,0,1.267,1.267,0,0,0,1.267-1.267,1.267,1.267,0,0,0,0,0" fill="#ffbd45"/>
              </g>
              <g id="g939" transform="translate(9.89 -38.859)">
                <path id="path941" d="M0,0A1.267,1.267,0,0,0,1.267,1.267,1.267,1.267,0,0,0,2.534,0,1.267,1.267,0,0,0,1.267-1.267,1.267,1.267,0,0,0,0,0" fill="#ffbd45"/>
              </g>
              <g id="g943" transform="translate(11.157 -24.314)">
                <path id="path945" d="M0,0H20.162" fill="none" stroke="#ffbd45" stroke-linecap="round" stroke-linejoin="round" stroke-miterlimit="10" stroke-width="2.49"/>
              </g>
              <g id="g947" transform="translate(11.157 -17.364)">
                <path id="path949" d="M0,0H20.162" fill="none" stroke="#ffbd45" stroke-linecap="round" stroke-linejoin="round" stroke-miterlimit="10" stroke-width="2.49"/>
              </g>
              <g id="g951" transform="translate(15.307 -10.414)">
                <path id="path953" d="M0,0H11.529" fill="none" stroke="#ffbd45" stroke-linecap="round" stroke-linejoin="round" stroke-miterlimit="10" stroke-width="2.49"/>
              </g>
              <g id="g955" transform="translate(38.111 -32.594)">
                <path id="path957" d="M0,0V27.007a4.34,4.34,0,0,1-4.341,4.341H-28.877a4.34,4.34,0,0,1-4.343-4.341V-6.569a4.355,4.355,0,0,1,4.343-4.34" fill="none" stroke="#ffbd45" stroke-linecap="round" stroke-linejoin="round" stroke-miterlimit="10" stroke-width="2.49"/>
              </g>
              <g id="g959" transform="translate(28.057 -33.977)">
                <path id="path961" d="M0,0H-23.166V-5.186a4.355,4.355,0,0,1,4.343-4.34H-13.7" fill="none" stroke="#ffbd45" stroke-linecap="round" stroke-linejoin="round" stroke-miterlimit="10" stroke-width="2.49"/>
              </g>
            </g>
          </g>
        </g>
      </g>
    </g>
  </g>
</svg>
