<svg xmlns="http://www.w3.org/2000/svg" xmlns:xlink="http://www.w3.org/1999/xlink" width="81.584" height="81.584" viewBox="0 0 81.584 81.584">
  <defs>
    <clipPath id="clip-path">
      <rect id="Rectángulo_403226" data-name="Rectángulo 403226" width="81" height="81" transform="translate(1180.385 3466)" fill="#4045ab" stroke="#707070" stroke-width="1"/>
    </clipPath>
  </defs>
  <g id="Grupo_1101421" data-name="Grupo 1101421" transform="translate(-1180.131 -3465.763)">
    <g id="Grupo_1101420" data-name="Grupo 1101420">
      <ellipse id="Elipse_11531" data-name="Elipse 11531" cx="40.792" cy="40.792" rx="40.792" ry="40.792" transform="translate(1180.131 3465.763)" fill="#ffbd45"/>
      <g id="Enmascarar_grupo_1098750" data-name="Enmascarar grupo 1098750" clip-path="url(#clip-path)">
        <path id="desarrollo" d="M31.908,24.139c.219.255.622.725,1.042,1.319a2.967,2.967,0,0,0-.641,4.194A2.972,2.972,0,0,0,34.445,34.4a6.437,6.437,0,0,0,12.355,0,2.972,2.972,0,0,0,2.132-4.747,2.966,2.966,0,0,0-.592-4.157c.429-.611.844-1.095,1.067-1.355l.036-.042A17.258,17.258,0,0,0,54,12.937a12.361,12.361,0,0,0-3.923-9.006,13.812,13.812,0,0,0-9.4-3.773h-.029a13.812,13.812,0,0,0-9.4,3.773,12.361,12.361,0,0,0-3.923,9.006A17.259,17.259,0,0,0,31.873,24.1Zm8.714,12.507a4.057,4.057,0,0,1-3.632-2.235h7.27A4,4,0,0,1,40.622,36.646Zm5.93-4.617H34.689a.593.593,0,0,1,0-1.186H46.553a.593.593,0,1,1,0,1.186Zm0-3.569H34.689a.593.593,0,0,1,0-1.186H46.553a.593.593,0,1,1,0,1.186ZM37.983,15.507l1.832,1.837a1.191,1.191,0,0,0,1.687,0l1.8-1.809-2.253,9.357h-.859ZM40.659,2.541c6.045.082,10.96,4.743,10.96,10.4a14.926,14.926,0,0,1-3.983,9.609l-.035.041a17.69,17.69,0,0,0-1.713,2.3H43.5L46.616,11.97a1.191,1.191,0,0,0-2-1.12l-3.955,3.965L36.7,10.85a1.191,1.191,0,0,0-2,1.114l3.047,12.927H35.429a17.688,17.688,0,0,0-1.713-2.3l-.034-.04A14.926,14.926,0,0,1,29.7,12.938c0-5.654,4.915-10.315,10.96-10.4ZM54.544,21.518a1.191,1.191,0,0,1,1.627-.436l3.163,1.826a1.191,1.191,0,1,1-1.191,2.063L54.98,23.145a1.191,1.191,0,0,1-.436-1.627Zm-33-19.05a1.191,1.191,0,0,1,1.627-.436l3.163,1.826a1.191,1.191,0,1,1-1.191,2.063L21.984,4.095a1.191,1.191,0,0,1-.436-1.627Zm5.226,19.05a1.191,1.191,0,0,1-.436,1.627l-3.163,1.826a1.191,1.191,0,0,1-1.191-2.063l3.163-1.826a1.191,1.191,0,0,1,1.627.436ZM54.544,5.485a1.191,1.191,0,0,1,.436-1.627l3.163-1.826a1.191,1.191,0,0,1,1.191,2.063L56.171,5.921a1.191,1.191,0,0,1-1.627-.436ZM9.508,55.875a1.013,1.013,0,0,1,1.729.716V58.1a2.02,2.02,0,0,0,2.018,2.018h3.191A2.02,2.02,0,0,0,18.463,58.1V56.592a1.013,1.013,0,0,1,1.729-.716l1.064,1.064a2.02,2.02,0,0,0,2.853,0l2.256-2.256a2.02,2.02,0,0,0,0-2.854L25.3,50.766a1.013,1.013,0,0,1,.716-1.729h1.505a2.02,2.02,0,0,0,2.018-2.018V43.828a2.02,2.02,0,0,0-2.018-2.018H26.018a1.013,1.013,0,0,1-.716-1.729l1.064-1.064a2.02,2.02,0,0,0,0-2.854L24.11,33.907a2.02,2.02,0,0,0-2.853,0l-1.064,1.064a1.013,1.013,0,0,1-1.729-.716V32.75a2.02,2.02,0,0,0-2.018-2.018H13.255a2.02,2.02,0,0,0-2.018,2.018v1.505a1.013,1.013,0,0,1-1.729.716L8.443,33.907a2.02,2.02,0,0,0-2.853,0L3.334,36.163a2.02,2.02,0,0,0,0,2.853L4.4,40.081a1.013,1.013,0,0,1-.716,1.729H2.177A2.02,2.02,0,0,0,.159,43.828v3.191a2.02,2.02,0,0,0,2.018,2.018H3.682A1.013,1.013,0,0,1,4.4,50.766L3.334,51.83a2.02,2.02,0,0,0,0,2.853L5.59,56.94a2.02,2.02,0,0,0,2.853,0ZM7.017,55,5.276,53.257l.807-.807a3.4,3.4,0,0,0-2.4-5.8H2.541V44.193H3.682a3.4,3.4,0,0,0,2.4-5.8l-.807-.807,1.741-1.741.807.807a3.4,3.4,0,0,0,5.8-2.4V33.115h2.461v1.141a3.4,3.4,0,0,0,5.8,2.4l.807-.807,1.741,1.741-.806.807a3.4,3.4,0,0,0,2.4,5.8h1.141v2.462H26.018a3.4,3.4,0,0,0-2.4,5.8l.807.807L22.683,55l-.807-.807a3.4,3.4,0,0,0-5.8,2.4v1.141H13.619V56.591a3.4,3.4,0,0,0-5.8-2.4Zm14.864-9.574a7.031,7.031,0,1,0-7.031,7.031A7.038,7.038,0,0,0,21.881,45.423Zm-11.679,0a4.648,4.648,0,1,1,4.648,4.648A4.654,4.654,0,0,1,10.2,45.423ZM66.467,30.732A14.691,14.691,0,1,0,81.159,45.423,14.708,14.708,0,0,0,66.467,30.732Zm0,27A12.309,12.309,0,1,1,78.776,45.423,12.323,12.323,0,0,1,66.467,57.732Zm0-22.962A10.654,10.654,0,1,0,77.121,45.424,10.666,10.666,0,0,0,66.467,34.77Zm0,18.925a8.272,8.272,0,1,1,8.271-8.272,8.281,8.281,0,0,1-8.271,8.272Zm3.7-5.978a3.491,3.491,0,0,1-2.507,3.345v.5a1.191,1.191,0,1,1-2.382,0v-.572a3.49,3.49,0,0,1-2.293-3.275,1.191,1.191,0,1,1,2.382,0,1.1,1.1,0,0,0,1.1,1.1h.214a1.1,1.1,0,1,0,0-2.2h-.427a3.485,3.485,0,0,1-.977-6.829v-.5a1.191,1.191,0,1,1,2.382,0v.572a3.491,3.491,0,0,1,2.293,3.275,1.191,1.191,0,1,1-2.382,0,1.1,1.1,0,0,0-1.1-1.1h-.214a1.1,1.1,0,1,0,0,2.2h.427A3.488,3.488,0,0,1,70.166,47.717ZM33.264,69.21H27.456A1.191,1.191,0,0,0,26.264,70.4v9.566a1.191,1.191,0,0,0,1.191,1.191h5.808a1.191,1.191,0,0,0,1.191-1.191V70.4A1.191,1.191,0,0,0,33.264,69.21Zm-1.191,9.566H28.647V71.593h3.426ZM43.563,64.92H37.755a1.191,1.191,0,0,0-1.191,1.191V79.967a1.191,1.191,0,0,0,1.191,1.191h5.808a1.191,1.191,0,0,0,1.191-1.191V66.111A1.191,1.191,0,0,0,43.563,64.92ZM42.372,78.776H38.946V67.3h3.426ZM53.862,60.63H48.054a1.191,1.191,0,0,0-1.191,1.191V79.967a1.191,1.191,0,0,0,1.191,1.191h5.808a1.191,1.191,0,0,0,1.191-1.191V61.821A1.191,1.191,0,0,0,53.862,60.63ZM52.671,78.776H49.245V63.012h3.426ZM47.128,58.849a1.192,1.192,0,0,1-1.153-1.492l.414-1.587L32.8,63.612a1.191,1.191,0,1,1-1.191-2.063l13.537-7.816-1.535-.4a1.191,1.191,0,0,1,.6-2.305l4.344,1.133a1.191,1.191,0,0,1,.852,1.453L48.28,57.958a1.192,1.192,0,0,1-1.152.891ZM67.952,18.206a33.321,33.321,0,0,1,4.5,5.588l.533-2.264a1.191,1.191,0,0,1,2.319.546l-1.222,5.191a1.189,1.189,0,0,1-1.433.886l-5.191-1.222A1.191,1.191,0,1,1,68,24.612l2.523.594a31.01,31.01,0,0,0-12.3-11.112,1.191,1.191,0,0,1,1.063-2.132,33.16,33.16,0,0,1,8.659,6.244ZM70.5,63.822a33.483,33.483,0,0,1-8.812,8.236l2.264.533a1.191,1.191,0,1,1-.546,2.319l-5.191-1.222a1.191,1.191,0,0,1-.887-1.432l1.222-5.191a1.191,1.191,0,0,1,2.319.546l-.594,2.523a31.113,31.113,0,0,0,8.31-7.73A1.191,1.191,0,0,1,70.5,63.822ZM24.682,74.333a1.19,1.19,0,0,1-1.555.648,33.436,33.436,0,0,1-12.179-8.635l-.169,2.32a1.191,1.191,0,0,1-1.187,1.1q-.044,0-.088,0a1.191,1.191,0,0,1-1.1-1.275l.387-5.319a1.191,1.191,0,0,1,1.275-1.1l5.319.387a1.191,1.191,0,0,1-.173,2.376l-2.584-.188a31.052,31.052,0,0,0,11.407,8.13,1.192,1.192,0,0,1,.648,1.555ZM9.6,26.314A33.385,33.385,0,0,1,19.427,11.6l-2.317-.2a1.191,1.191,0,0,1,.209-2.373l5.312.468a1.191,1.191,0,0,1,1.082,1.291L23.245,16.1a1.191,1.191,0,0,1-1.185,1.087q-.053,0-.106,0a1.191,1.191,0,0,1-1.082-1.291L21.1,13.3a31,31,0,0,0-9.242,13.757A1.191,1.191,0,0,1,9.6,26.314Z" transform="translate(1180.226 3465.842)" fill="#4045ab"/>
      </g>
    </g>
  </g>
</svg>
