<svg xmlns="http://www.w3.org/2000/svg" xmlns:xlink="http://www.w3.org/1999/xlink" width="100.468" height="84.272" viewBox="0 0 100.468 84.272">
  <defs>
    <clipPath id="clip-path">
      <path id="Trazado_911856" data-name="Trazado 911856" d="M40.792,0C53.313,0,77.846-6.927,85.535,2.251c13,18.666,0,30,0,30s-3.951,5.95-3.951,8.541A40.792,40.792,0,1,1,0,40.792C0,38.156-12.8,20.251-8.131,8.584-4.577-10,20.9,0,40.792,0Z" transform="translate(340.849 1696.416)" fill="#ffbd45"/>
    </clipPath>
  </defs>
  <g id="Grupo_1101401" data-name="Grupo 1101401" transform="translate(-331.694 -1693.728)">
    <g id="Grupo_1101400" data-name="Grupo 1101400">
      <g id="Grupo_1101399" data-name="Grupo 1101399">
        <g id="Grupo_1101398" data-name="Grupo 1101398">
          <g id="Grupo_1101397" data-name="Grupo 1101397">
            <g id="Grupo_1101396" data-name="Grupo 1101396">
              <ellipse id="Elipse_11525" data-name="Elipse 11525" cx="40.792" cy="40.792" rx="40.792" ry="40.792" transform="translate(340.849 1696.416)" fill="#ffbd45"/>
              <g id="Enmascarar_grupo_1098707" data-name="Enmascarar grupo 1098707" clip-path="url(#clip-path)">
                <g id="conductual" transform="translate(337.92 1680.22)">
                  <g id="Grupo_1101068" data-name="Grupo 1101068" transform="translate(0 19.196)">
                    <g id="Grupo_1101061" data-name="Grupo 1101061" transform="translate(6.527 2.512)">
                      <path id="Trazado_911856-2" data-name="Trazado 911856" d="M160.136,39.872a1.283,1.283,0,0,1-.548-2.444q.418-.2.843-.385a1.283,1.283,0,0,1,1.037,2.347q-.395.174-.784.358A1.278,1.278,0,0,1,160.136,39.872Zm30.675,0a1.278,1.278,0,0,1-.547-.123q-1.116-.526-2.274-.975a1.283,1.283,0,0,1,.926-2.393q1.243.481,2.443,1.047a1.283,1.283,0,0,1-.548,2.444Zm-25.036-2.1a1.283,1.283,0,0,1-.345-2.519q1.274-.356,2.584-.623a1.283,1.283,0,0,1,.512,2.515q-1.218.248-2.4.58A1.284,1.284,0,0,1,165.774,37.769Zm17.777-.414a1.287,1.287,0,0,1-.288-.033q-1.2-.275-2.43-.466a1.283,1.283,0,0,1,.393-2.536q1.321.2,2.61.5a1.283,1.283,0,0,1-.286,2.534Zm-10.2-.849a1.283,1.283,0,0,1-.073-2.564q1.09-.064,2.2-.064l.458,0a1.283,1.283,0,1,1-.031,2.566l-.427,0q-1.031,0-2.048.059Z" transform="translate(-138.202 -33.878)" fill="#ee4f47"/>
                      <path id="Trazado_911857" data-name="Trazado 911857" d="M337.034,243.033a1.283,1.283,0,0,1-.533-2.451q1.128-.515,2.213-1.107a1.283,1.283,0,1,1,1.229,2.253q-1.164.635-2.377,1.189A1.279,1.279,0,0,1,337.034,243.033Zm6.61-3.919a1.283,1.283,0,0,1-.769-2.311q.992-.742,1.928-1.551a1.283,1.283,0,1,1,1.678,1.941q-1,.868-2.07,1.665A1.278,1.278,0,0,1,343.645,239.114Zm5.63-5.229a1.283,1.283,0,0,1-.967-2.125q.812-.933,1.557-1.923a1.283,1.283,0,0,1,2.05,1.543q-.8,1.062-1.672,2.065A1.28,1.28,0,0,1,349.274,233.885Zm4.4-6.3a1.284,1.284,0,0,1-1.123-1.9q.595-1.082,1.114-2.209a1.283,1.283,0,1,1,2.331,1.072q-.557,1.21-1.2,2.373A1.283,1.283,0,0,1,353.673,227.585Zm2.96-7.091a1.284,1.284,0,0,1-1.231-1.647q.349-1.181.616-2.4a1.283,1.283,0,0,1,2.507.549q-.286,1.3-.662,2.574A1.284,1.284,0,0,1,356.633,220.494Zm1.376-7.56c-.031,0-.063,0-.095,0a1.283,1.283,0,0,1-1.186-1.373q.09-1.226.093-2.474a1.283,1.283,0,0,1,2.566.007q0,1.339-.1,2.654A1.283,1.283,0,0,1,358.009,212.934Zm-.254-7.681a1.283,1.283,0,0,1-1.269-1.106q-.172-1.232-.43-2.436a1.283,1.283,0,0,1,2.51-.536q.276,1.293.462,2.617a1.283,1.283,0,0,1-1.093,1.448A1.3,1.3,0,0,1,357.755,205.253Z" transform="translate(-284.837 -171.712)" fill="#ee4f47"/>
                      <path id="Trazado_911858" data-name="Trazado 911858" d="M56.8,229.049a1.277,1.277,0,0,1-.664-.186q-.411-.249-.814-.508A1.283,1.283,0,1,1,56.7,226.2q.376.241.758.473a1.283,1.283,0,0,1-.666,2.381ZM51.9,225.489a1.278,1.278,0,0,1-.839-.312q-1.005-.869-1.947-1.807a1.283,1.283,0,0,1,1.811-1.818q.877.873,1.814,1.684a1.283,1.283,0,0,1-.84,2.254Zm-5.246-5.614a1.281,1.281,0,0,1-1.026-.511q-.8-1.06-1.522-2.178a1.283,1.283,0,1,1,2.155-1.394q.673,1.04,1.417,2.029a1.283,1.283,0,0,1-1.024,2.055Zm-3.941-6.6a1.283,1.283,0,0,1-1.166-.747q-.554-1.2-1.024-2.453a1.283,1.283,0,0,1,2.4-.9q.437,1.162.953,2.283a1.284,1.284,0,0,1-1.165,1.82Zm-2.446-7.285a1.284,1.284,0,0,1-1.252-1.008q-.283-1.291-.476-2.615a1.283,1.283,0,1,1,2.54-.369q.179,1.231.443,2.434a1.284,1.284,0,0,1-1.255,1.558Zm-.834-7.692a1.239,1.239,0,0,1-1.283-1.226c0-.965.029-1.814.086-2.655a1.283,1.283,0,0,1,2.56.173q-.08,1.176-.08,2.372a1.33,1.33,0,0,1-1.281,1.336Zm.793-7.59a1.284,1.284,0,0,1-1.256-1.551q.279-1.306.647-2.578a1.283,1.283,0,0,1,2.465.714q-.342,1.183-.6,2.4A1.284,1.284,0,0,1,40.229,190.711Z" transform="translate(-38.153 -159.69)" fill="#ee4f47"/>
                    </g>
                    <path id="Trazado_911859" data-name="Trazado 911859" d="M62.59,38.981a1.284,1.284,0,0,1-1.273-1.457,14.043,14.043,0,0,0,.131-1.9A13.867,13.867,0,0,0,39.6,24.288a1.283,1.283,0,1,1-1.479-2.1A16.433,16.433,0,0,1,64.014,35.629a16.618,16.618,0,0,1-.155,2.243A1.283,1.283,0,0,1,62.59,38.981Z" transform="translate(-31.149 -19.196)" fill="#ee4f47"/>
                    <path id="Trazado_911860" data-name="Trazado 911860" d="M16.433,86.5A16.434,16.434,0,0,1,2.505,61.347a1.283,1.283,0,1,1,2.174,1.364,13.867,13.867,0,0,0,16.731,20.3,1.283,1.283,0,0,1,.922,2.395A16.358,16.358,0,0,1,16.433,86.5Z" transform="translate(0 -53.638)" fill="#ee4f47"/>
                    <g id="Grupo_1101063" data-name="Grupo 1101063" transform="translate(10.283 8.362)">
                      <path id="Trazado_911861" data-name="Trazado 911861" d="M67.014,133.159a6,6,0,0,1-5.993-5.993,1.283,1.283,0,0,1,2.566,0,3.427,3.427,0,1,0,6.853,0,1.283,1.283,0,0,1,2.566,0A6,6,0,0,1,67.014,133.159Z" transform="translate(-60.864 -115.993)" fill="#ee4f47"/>
                      <g id="Grupo_1101062" data-name="Grupo 1101062">
                        <path id="Línea_612" data-name="Línea 612" d="M-6.217-1.794A1.283,1.283,0,0,1-7.5-3.077v-3.14A1.283,1.283,0,0,1-6.217-7.5,1.283,1.283,0,0,1-4.934-6.217v3.14A1.283,1.283,0,0,1-6.217-1.794Z" transform="translate(7.5 7.5)" fill="#ee4f47"/>
                        <path id="Línea_613" data-name="Línea 613" d="M-6.217-1.794A1.283,1.283,0,0,1-7.5-3.077v-3.14A1.283,1.283,0,0,1-6.217-7.5,1.283,1.283,0,0,1-4.934-6.217v3.14A1.283,1.283,0,0,1-6.217-1.794Z" transform="translate(17.233 7.5)" fill="#ee4f47"/>
                      </g>
                    </g>
                    <path id="Trazado_911862" data-name="Trazado 911862" d="M378.714,52.061a16.292,16.292,0,0,1-6.945-1.538,1.283,1.283,0,1,1,1.086-2.325,13.867,13.867,0,1,0,5.859-26.436,13.951,13.951,0,0,0-3.161.362,1.283,1.283,0,0,1-.582-2.5,16.434,16.434,0,1,1,3.743,32.436Z" transform="translate(-307.552 -19.196)" fill="#ee4f47"/>
                    <path id="Trazado_911863" data-name="Trazado 911863" d="M321.414,53.547a1.283,1.283,0,0,1-1.262-1.061,16.41,16.41,0,0,1,6.526-16.163,1.283,1.283,0,0,1,1.509,2.076,13.844,13.844,0,0,0-5.508,13.642,1.284,1.284,0,0,1-1.265,1.506Z" transform="translate(-265.169 -33.19)" fill="#ee4f47"/>
                    <path id="Trazado_911864" data-name="Trazado 911864" d="M391.624,133.158a1.283,1.283,0,0,1-1.283-1.283,3.427,3.427,0,1,0-6.853,0,1.283,1.283,0,1,1-2.566,0,5.993,5.993,0,0,1,11.986,0A1.283,1.283,0,0,1,391.624,133.158Z" transform="translate(-315.752 -107.63)" fill="#ee4f47"/>
                    <g id="Grupo_1101065" data-name="Grupo 1101065" transform="translate(65.012 8.362)">
                      <g id="Grupo_1101064" data-name="Grupo 1101064">
                        <path id="Línea_614" data-name="Línea 614" d="M-6.217-1.794A1.283,1.283,0,0,1-7.5-3.077v-3.14A1.283,1.283,0,0,1-6.217-7.5,1.283,1.283,0,0,1-4.934-6.217v3.14A1.283,1.283,0,0,1-6.217-1.794Z" transform="translate(7.5 7.5)" fill="#ee4f47"/>
                        <path id="Línea_615" data-name="Línea 615" d="M-6.217-1.794A1.283,1.283,0,0,1-7.5-3.077v-3.14A1.283,1.283,0,0,1-6.217-7.5,1.283,1.283,0,0,1-4.934-6.217v3.14A1.283,1.283,0,0,1-6.217-1.794Z" transform="translate(17.233 7.5)" fill="#ee4f47"/>
                      </g>
                    </g>
                    <g id="Grupo_1101066" data-name="Grupo 1101066" transform="translate(52.258 30.63)">
                      <path id="Línea_616" data-name="Línea 616" d="M-6.217-2.3A1.283,1.283,0,0,1-7.5-3.585V-6.217A1.283,1.283,0,0,1-6.217-7.5,1.283,1.283,0,0,1-4.934-6.217v2.632A1.283,1.283,0,0,1-6.217-2.3Z" transform="translate(12.681 12.972)" fill="#ee4f47"/>
                      <path id="Línea_617" data-name="Línea 617" d="M1.234-4.934h-7.45A1.283,1.283,0,0,1-7.5-6.217,1.283,1.283,0,0,1-6.217-7.5h7.45A1.283,1.283,0,0,1,2.517-6.217,1.283,1.283,0,0,1,1.234-4.934Z" transform="translate(10.63 31.039)" fill="#ee4f47"/>
                      <path id="Línea_618" data-name="Línea 618" d="M-6.217-1.257a1.279,1.279,0,0,1-.907-.376,1.283,1.283,0,0,1,0-1.815l3.676-3.676a1.283,1.283,0,0,1,1.815,0,1.283,1.283,0,0,1,0,1.815L-5.31-1.633A1.279,1.279,0,0,1-6.217-1.257Z" transform="translate(7.5 7.5)" fill="#ee4f47"/>
                    </g>
                    <path id="Trazado_911865" data-name="Trazado 911865" d="M186.766,246.987h-1.627a6.516,6.516,0,0,1-6.509-6.509v-3.1a6.5,6.5,0,0,1,11.933-3.586,1.283,1.283,0,1,1-2.138,1.42,3.944,3.944,0,0,0-7.229,2.166v3.1a3.947,3.947,0,0,0,3.943,3.943h1.627a1.283,1.283,0,0,1,0,2.566Z" transform="translate(-148.07 -194.657)" fill="#ee4f47"/>
                    <g id="Grupo_1101067" data-name="Grupo 1101067" transform="translate(34.711 41.045)">
                      <path id="Línea_619" data-name="Línea 619" d="M-6.217-.594A1.283,1.283,0,0,1-7.5-1.877v-4.34A1.283,1.283,0,0,1-6.217-7.5,1.283,1.283,0,0,1-4.934-6.217v4.34A1.283,1.283,0,0,1-6.217-.594Z" transform="translate(10.357 7.5)" fill="#ee4f47"/>
                      <path id="Línea_620" data-name="Línea 620" d="M-3.36-4.934H-6.217A1.283,1.283,0,0,1-7.5-6.217,1.283,1.283,0,0,1-6.217-7.5H-3.36A1.283,1.283,0,0,1-2.077-6.217,1.283,1.283,0,0,1-3.36-4.934Z" transform="translate(7.5 9.67)" fill="#ee4f47"/>
                    </g>
                    <path id="Trazado_911866" data-name="Trazado 911866" d="M171.833,432.5H140.5a3.152,3.152,0,0,1-3.148-3.148V423.2a3.152,3.152,0,0,1,3.148-3.148h26.936a7.559,7.559,0,0,1,7.551,7.551v1.747A3.152,3.152,0,0,1,171.833,432.5Zm-31.338-9.88a.583.583,0,0,0-.582.582v6.15a.582.582,0,0,0,.582.582h31.338a.583.583,0,0,0,.582-.582V427.6a4.99,4.99,0,0,0-4.985-4.985Z" transform="translate(-113.849 -351.473)" fill="#ee4f47"/>
                    <path id="Trazado_911867" data-name="Trazado 911867" d="M143.318,157.149H124.394a1.283,1.283,0,0,1-1.283-1.283v-4.372a1.283,1.283,0,0,1,2.566,0v3.089h16.358v-2.433a3.612,3.612,0,0,1,3.608-3.608h6a5.272,5.272,0,0,0,5.266-5.266v-7.288a2.263,2.263,0,0,1,2.261-2.261h1.518a1.2,1.2,0,0,0,1.018-1.821l-2.335-3.8a4.166,4.166,0,0,1-.6-2.547q.075-.892.075-1.8a21.4,21.4,0,1,0-34.538,16.884,3.6,3.6,0,0,1,1.369,2.828v2.038a1.283,1.283,0,0,1-2.566,0v-2.038a1.021,1.021,0,0,0-.38-.8,23.963,23.963,0,1,1,38.682-18.909q0,1.019-.084,2.017a1.617,1.617,0,0,0,.226.989l2.335,3.8a3.761,3.761,0,0,1-3.2,5.731h-1.212v6.983a7.841,7.841,0,0,1-7.832,7.832h-6a1.043,1.043,0,0,0-1.042,1.042v3.717A1.283,1.283,0,0,1,143.318,157.149Z" transform="translate(-94.069 -86.003)" fill="#ee4f47"/>
                  </g>
                </g>
              </g>
            </g>
          </g>
        </g>
      </g>
    </g>
  </g>
</svg>
