<svg id="Grupo_1101338" data-name="Grupo 1101338" xmlns="http://www.w3.org/2000/svg" xmlns:xlink="http://www.w3.org/1999/xlink" width="153.5" height="108.659" viewBox="0 0 153.5 108.659">
  <defs>
    <clipPath id="clip-path">
      <rect id="Rectángulo_402861" data-name="Rectángulo 402861" width="153.5" height="108.659" fill="none"/>
    </clipPath>
    <clipPath id="clip-path-3">
      <rect id="Rectángulo_403194" data-name="Rectángulo 403194" width="45.129" height="68.118" transform="translate(0 0)" fill="none"/>
    </clipPath>
  </defs>
  <g id="Grupo_1100872" data-name="Grupo 1100872">
    <g id="Grupo_1100871" data-name="Grupo 1100871" clip-path="url(#clip-path)">
      <path id="Trazado_911270" data-name="Trazado 911270" d="M126.432,0H27.068A27.068,27.068,0,0,0,0,27.069V62.727A27.07,27.07,0,0,0,22.238,89.356c-.008,4.4-.024,11.6-.033,16s3.788,4.405,8.438,0L47.071,89.793h79.361A27.067,27.067,0,0,0,153.5,62.727V27.069A27.068,27.068,0,0,0,126.432,0" transform="translate(0 0)" fill="#4045ab"/>
    </g>
  </g>
  <g id="Grupo_1100874" data-name="Grupo 1100874">
    <g id="Grupo_1100873" data-name="Grupo 1100873" clip-path="url(#clip-path)">
      <rect id="Rectángulo_402862" data-name="Rectángulo 402862" width="69.301" height="4.506" transform="translate(18.017 37.133)" fill="#fff2db"/>
      <rect id="Rectángulo_402863" data-name="Rectángulo 402863" width="59.845" height="4.508" transform="translate(18.017 48.079)" fill="#fff2db"/>
      <rect id="Rectángulo_402864" data-name="Rectángulo 402864" width="39.694" height="4.506" transform="translate(18.017 59.028)" fill="#fff2db"/>
      <path id="Trazado_911283" data-name="Trazado 911283" d="M185.249,120.829c9.991-.4,20.7-6.753,22.827-17.079.088-.428-.568-.611-.656-.181-2.066,10.028-12.466,16.2-22.171,16.579-.437.017-.439.7,0,.68" transform="translate(-59.136 -33.042)" fill="#1f0e03"/>
      <path id="Trazado_911284" data-name="Trazado 911284" d="M173.1,128.819c1.823.065,3.646.1,5.47.141a.34.34,0,0,0,0-.68c-1.824-.041-3.647-.076-5.47-.141-.439-.016-.437.665,0,.68" transform="translate(-55.25 -40.978)" fill="#1f0e03"/>
      <path id="Trazado_911285" data-name="Trazado 911285" d="M44.546,143.631c3.426-3.081,6.864-6.148,10.083-9.447,1.49-1.526,2.819-3.519,4.617-4.727a7.105,7.105,0,0,1,3.631-.9c2.451-.141,4.918-.078,7.371-.111,4.45-.061,8.893-.3,13.344-.29,4.768.01,9.534.224,14.3.442,9.276.423,18.574.861,27.833-.093.432-.045.436-.726,0-.68-9.473.975-18.987.5-28.476.063-4.989-.227-9.979-.422-14.973-.413-4.456.008-8.909.258-13.365.306-3.038.033-7.269-.639-10.005,1.09-1.7,1.072-2.968,2.956-4.315,4.376-3.315,3.5-6.944,6.686-10.524,9.905-.327.294.156.773.481.481" transform="translate(-14.057 -40.765)" fill="#1f0e03"/>
      <g id="Grupo_1101323" data-name="Grupo 1101323" transform="translate(98.019 7.58)">
        <g id="Grupo_1101322" data-name="Grupo 1101322" clip-path="url(#clip-path-3)">
          <path id="Trazado_912412" data-name="Trazado 912412" d="M7.162,18.434A49.032,49.032,0,0,0,6.92,35.507c1.046,6.37,5.732-15.736,5.732-15.736Z" fill="#371300"/>
          <path id="Trazado_912413" data-name="Trazado 912413" d="M8.252,36.268S1.556,31.6.164,37.96c-1.531,6.991,8.17,5.18,8.17,5.18Z" fill="#ffb16d"/>
          <path id="Trazado_912414" data-name="Trazado 912414" d="M8.68,26.04A16.214,16.214,0,0,1,2.641,8.282,97.459,97.459,0,0,1,27.75,0a13.675,13.675,0,0,0-.394,11.035A14.487,14.487,0,0,1,29.277.627a18.176,18.176,0,0,0,3.4,10.48,5.871,5.871,0,0,1,4.854,1.118,4.409,4.409,0,0,1,1.5,4.765,11.535,11.535,0,0,1,3.564,1.186,4.8,4.8,0,0,1,2.4,2.8,4.909,4.909,0,0,1-.218,2.94,14.561,14.561,0,0,1-1.39,2.647c1.926,2.45.312,6.66-2.27,10.092L32,51.871Z" fill="#371300"/>
          <path id="Trazado_912415" data-name="Trazado 912415" d="M30.6,62.413,34.544,43.55s7.362,2.768,8.12-3.29c.675-5.4-5.2-5.977-8.106-3.515,0,0,5.631-18.753-10.682-20.722-5.79-.7-10.246.437-12.794,4.028-1.278,1.8-1.519,3.208-2.327,7.331a128.783,128.783,0,0,0-2.2,14.488c-.383,9.545,6.339,14.323,11.278,14.939l-.548,5.843s-.539,5.113,4.27,5.442c6.409.44,9.05-5.681,9.05-5.681" fill="#ffb16d"/>
          <path id="Trazado_912416" data-name="Trazado 912416" d="M14.947,34.788A1.758,1.758,0,1,1,13,33.238a1.758,1.758,0,0,1,1.944,1.55" fill="#371300"/>
          <path id="Trazado_912417" data-name="Trazado 912417" d="M23.012,35.163a1.758,1.758,0,1,1-1.944-1.55,1.758,1.758,0,0,1,1.944,1.55" fill="#371300"/>
          <path id="Trazado_912418" data-name="Trazado 912418" d="M35.732,41.036a.422.422,0,0,1-.339-.463,3.414,3.414,0,0,1,4.885-2.685.423.423,0,0,1-.369.761,2.569,2.569,0,0,0-3.676,2.019.423.423,0,0,1-.468.373l-.033-.005" fill="#371300"/>
          <path id="Trazado_912419" data-name="Trazado 912419" d="M37.965,40.53a.419.419,0,0,1-.263-.169l-1.01-1.4a.423.423,0,1,1,.687-.494l1.009,1.406a.423.423,0,0,1-.423.661" fill="#371300"/>
          <path id="Trazado_912420" data-name="Trazado 912420" d="M24.313,41.645a2.53,2.53,0,1,0,1.762-3.115,2.53,2.53,0,0,0-1.762,3.115" fill="#ff7652"/>
          <path id="Trazado_912421" data-name="Trazado 912421" d="M7.861,40.47a2.53,2.53,0,1,0,1.763-3.115A2.531,2.531,0,0,0,7.861,40.47" fill="#ff7652"/>
          <path id="Trazado_912422" data-name="Trazado 912422" d="M14.932,40.35a.423.423,0,0,1-.3-.234,1.647,1.647,0,0,1-.067-1.5,1.97,1.97,0,0,1,1.162-.907l1.224-3.223a.423.423,0,1,1,.79.3l-1.3,3.424a.421.421,0,0,1-.312.264,1.284,1.284,0,0,0-.808.523.86.86,0,0,0,.075.751.423.423,0,0,1-.2.564.417.417,0,0,1-.261.033" fill="#371300"/>
          <path id="Trazado_912423" data-name="Trazado 912423" d="M14.9,46.837a4.031,4.031,0,0,1,7.118-3.721Z" fill="#fff"/>
          <path id="Trazado_912424" data-name="Trazado 912424" d="M15.992,32.24a.473.473,0,0,1-.083-.007,12.074,12.074,0,0,1-4.555-1.766.5.5,0,1,1,.544-.839,11.071,11.071,0,0,0,4.175,1.619.5.5,0,0,1-.081.993" fill="#371300"/>
          <path id="Trazado_912425" data-name="Trazado 912425" d="M18.836,32.2a.5.5,0,0,1-.235-.941l5.223-2.779a.5.5,0,0,1,.47.883L19.07,32.143a.493.493,0,0,1-.234.059" fill="#371300"/>
          <path id="Trazado_912426" data-name="Trazado 912426" d="M34.558,36.746c-1.572,1.741-1.813,3.866-3.46,3.048-2.135-1.06-3.137-8.4-3.285-13.858,0,0-11.739,1.989-19.458-1.392S17.55,11.72,25.022,13.937a24.639,24.639,0,0,1,11.741,7.969l.778,7.385Z" fill="#371300"/>
          <path id="Trazado_912427" data-name="Trazado 912427" d="M27.156,56.058a27.026,27.026,0,0,1-9.327.751l-.185,1.965c4.538.513,9.512-2.716,9.512-2.716" fill="#ff7652"/>
        </g>
      </g>
    </g>
  </g>
</svg>
