<svg id="Grupo_1101337" data-name="Grupo 1101337" xmlns="http://www.w3.org/2000/svg" xmlns:xlink="http://www.w3.org/1999/xlink" width="166" height="117.51" viewBox="0 0 166 117.51">
  <defs>
    <clipPath id="clip-path">
      <rect id="Rectángulo_402855" data-name="Rectángulo 402855" width="166" height="117.509" fill="#f6ccb3"/>
    </clipPath>
    <clipPath id="clip-path-2">
      <rect id="Rectángulo_402860" data-name="Rectángulo 402860" width="166" height="117.509" fill="none"/>
    </clipPath>
    <clipPath id="clip-path-3">
      <rect id="Rectángulo_403199" data-name="Rectángulo 403199" width="39.732" height="74.325" fill="none"/>
    </clipPath>
    <clipPath id="clip-path-5">
      <rect id="Rectángulo_403195" data-name="Rectángulo 403195" width="5.367" height="8.81" fill="none"/>
    </clipPath>
    <clipPath id="clip-path-6">
      <rect id="Rectángulo_403196" data-name="Rectángulo 403196" width="8.274" height="7.571" fill="none"/>
    </clipPath>
    <clipPath id="clip-path-7">
      <rect id="Rectángulo_403197" data-name="Rectángulo 403197" width="1.821" height="2.27" fill="none"/>
    </clipPath>
  </defs>
  <g id="Grupo_1100867" data-name="Grupo 1100867">
    <g id="Grupo_1100866" data-name="Grupo 1100866" clip-path="url(#clip-path)">
      <path id="Trazado_911255" data-name="Trazado 911255" d="M136.728,0H29.272A29.272,29.272,0,0,0,0,29.271V67.833A29.266,29.266,0,0,0,28.283,97.081c5.059,4.793,12.923,12.242,17.792,16.855,5.028,4.765,9.134,4.765,9.125,0-.011-4.6-.026-12.036-.035-16.83h81.563A29.271,29.271,0,0,0,166,67.833V29.271A29.272,29.272,0,0,0,136.728,0" fill="#f6ccb3"/>
    </g>
  </g>
  <text id="HELP_" data-name="HELP!" transform="translate(73.635 29.328)" fill="#c97440" font-size="16" font-family="Raleway-Bold, Raleway" font-weight="700"><tspan x="0" y="0">HELP!</tspan></text>
  <g id="Grupo_1100869" data-name="Grupo 1100869">
    <g id="Grupo_1100868" data-name="Grupo 1100868" clip-path="url(#clip-path-2)">
      <rect id="Rectángulo_402856" data-name="Rectángulo 402856" width="74.944" height="4.874" transform="translate(75.364 38.114)" fill="#4045ab"/>
      <rect id="Rectángulo_402857" data-name="Rectángulo 402857" width="64.718" height="4.872" transform="translate(75.364 49.954)" fill="#4045ab"/>
      <rect id="Rectángulo_402858" data-name="Rectángulo 402858" width="42.927" height="4.872" transform="translate(75.364 61.794)" fill="#4045ab"/>
      <rect id="Rectángulo_402859" data-name="Rectángulo 402859" width="69.429" height="4.875" transform="translate(75.364 73.632)" fill="#4045ab"/>
      <path id="Trazado_911268" data-name="Trazado 911268" d="M66.8,136.068c5.569,1.105,2.378-17.788,2.341-20.637l-.381.381c11.986.106,23.973.138,35.958.033,8.567-.075,17.128-.294,25.7-.294,5.269,0,10.51-.194,15.773-.4,5.643-.218,11.269-.2,16.766-1.66C173.468,110.7,177.3,99.579,178.383,89.82c.055-.489-.708-.483-.763,0-.806,7.244-3,15.181-8.829,20.006-4.389,3.634-10.858,4.1-16.3,4.36-5.424.264-10.871.493-16.3.571-17.176.246-34.367.414-51.545.375q-7.942-.017-15.885-.082a.384.384,0,0,0-.381.381c.031,2.4,2.515,20.674-1.375,19.9-.48-.1-.685.639-.2.735" transform="translate(-15.79 -21.233)" fill="#1f0e03"/>
      <path id="Trazado_911269" data-name="Trazado 911269" d="M212.659,47.017c.006,9.473.413,19-.233,28.458-.034.491.729.488.763,0,.646-9.459.239-18.985.233-28.458a.382.382,0,0,0-.763,0" transform="translate(-50.422 -11.073)" fill="#1f0e03"/>
      <g id="Grupo_1101336" data-name="Grupo 1101336" transform="translate(23 8.264)">
        <g id="Grupo_1101335" data-name="Grupo 1101335" clip-path="url(#clip-path-3)">
          <g id="Grupo_1101334" data-name="Grupo 1101334">
            <g id="Grupo_1101333" data-name="Grupo 1101333" clip-path="url(#clip-path-3)">
              <path id="Trazado_912428" data-name="Trazado 912428" d="M66.46,529.741v-8.446H50.728v8.494L44.288,532.4s-.722,7.5,10.728,7.837c5.555.162,11.339-.219,15.561-4.071a40.406,40.406,0,0,0,3.559-4.206Z" transform="translate(-39.577 -465.946)" fill="#ff925c"/>
              <path id="Trazado_912429" data-name="Trazado 912429" d="M116.086,530.822a11.345,11.345,0,0,0,4.67-1.121v-8.406H105.024V524.1a15.7,15.7,0,0,0,4.375,4.655,13.846,13.846,0,0,0,6.687,2.066" transform="translate(-93.873 -465.946)" fill="#d97645"/>
              <path id="Trazado_912430" data-name="Trazado 912430" d="M.152,193.4a35.487,35.487,0,0,0,.9,12.337s2.663-5.453,3.438,1.782,1.684,5.4,3.21,6.558c4.15,3.16,11.117,2.232,15.946,1.977,1.723-.091,4,.052,5.589-.677a18.528,18.528,0,0,0,9.134-9.636,17.583,17.583,0,0,0,.8-2.547,33.878,33.878,0,0,0,.538-8.221,13.044,13.044,0,0,0-1.006-5.527,55.141,55.141,0,0,0-2.764-6.768c-.383-.742-1.027-1.579-1.845-1.412a2.456,2.456,0,0,0-.824.434,14.627,14.627,0,0,1-4.919,1.57,18.515,18.515,0,0,1-4.2.768,16.258,16.258,0,0,1-2.854-.393,35.645,35.645,0,0,0-5.121-.566q-1.315-.05-2.63,0a5.964,5.964,0,0,1-2.063-.078,16.561,16.561,0,0,1-1.809-.563c-.577-.236-1.118-.551-1.695-.789a4.387,4.387,0,0,0-3.673-.2c-.188.059-.378-.152-.526-.021A34.229,34.229,0,0,0,.152,193.4" transform="translate(0 -161.901)" fill="#753434"/>
              <path id="Trazado_912431" data-name="Trazado 912431" d="M39.7,226.788c-1.8,3.3-2.358,7.376-2.063,12.221.429,7.051,1.813,12.9,4.564,17.141s6.976,7.109,9.908,7.109,8.1-2.583,10.8-6.42a34.487,34.487,0,0,0,5.744-17.829c.3-4.846-.261-8.92-2.062-12.223Z" transform="translate(-33.572 -202.708)" fill="#ff925c"/>
              <path id="Trazado_912432" data-name="Trazado 912432" d="M231.455,357.588c0,1.149.518,2.081,1.156,2.081s1.156-.932,1.156-2.081-.518-2.081-1.156-2.081-1.156.932-1.156,2.081" transform="translate(-206.88 -317.76)" fill="#160d0b"/>
              <path id="Trazado_912433" data-name="Trazado 912433" d="M106.886,357.581c0,1.149.517,2.081,1.156,2.081s1.156-.932,1.156-2.081-.518-2.081-1.156-2.081-1.156.932-1.156,2.081" transform="translate(-95.537 -317.754)" fill="#160d0b"/>
              <path id="Trazado_912434" data-name="Trazado 912434" d="M153.135,378.568a1.866,1.866,0,0,1-1.8-1.467,13.959,13.959,0,0,1-.056-4.156c.122-1.539.3-2.906.307-2.92a.215.215,0,1,1,.425.057c0,.014-.183,1.369-.3,2.9a13.957,13.957,0,0,0,.039,4,1.41,1.41,0,0,0,1.595,1.144.215.215,0,1,1,.081.421,1.5,1.5,0,0,1-.282.025" transform="translate(-135.112 -330.571)" fill="#d97645"/>
              <path id="Trazado_912435" data-name="Trazado 912435" d="M214.184,321.722a.9.9,0,0,0,.455,1.5c.7.174,2.579.061,3.841.382,1.22.31,2.506,1.077,2.8.985s.143-.712-.675-1.383a6.286,6.286,0,0,0-2.955-1.678c-1.483-.324-3.046-.223-3.467.19" transform="translate(-191.219 -287.222)" fill="#753434"/>
              <path id="Trazado_912436" data-name="Trazado 912436" d="M69.88,317.774a.9.9,0,0,1-.518,1.483c-.712.145-2.58-.048-3.853.219-1.232.258-2.549.969-2.841.866s-.113-.717.733-1.353a7.145,7.145,0,0,1,3.171-1.553c1.557-.32,2.906-.092,3.309.338" transform="translate(-55.895 -283.597)" fill="#753434"/>
              <path id="Trazado_912437" data-name="Trazado 912437" d="M298.378,359.293c1.368-1.671,4.459.114,4.038,3.253s-3.325,6.306-5.134,6.294-.747-7.295,1.1-9.546" transform="translate(-264.881 -320.573)" fill="#ff925c"/>
              <path id="Trazado_912438" data-name="Trazado 912438" d="M29.934,359.276c-1.368-1.671-4.459.114-4.038,3.252s3.324,6.306,5.134,6.294.748-7.295-1.1-9.546" transform="translate(-23.111 -320.558)" fill="#ff925c"/>
              <path id="Trazado_912439" data-name="Trazado 912439" d="M37.456,223.761c.459.814.9,1.649,1.4,2.488a16.914,16.914,0,0,1,2.308,8.729,2.583,2.583,0,0,1-.968,2.374c-.641.344-1,.611-1.678.339a37,37,0,0,1-6.083-3.756,13.2,13.2,0,0,1-2.095-1.634,13.192,13.192,0,0,1-1.607-2.175,12.118,12.118,0,0,1-2.146-4.781,5.241,5.241,0,0,1-2.467,3.062,24.9,24.9,0,0,1-3.63,1.235,8.931,8.931,0,0,0-3.405,2.227,39.024,39.024,0,0,1-2.828,3.108c-.986.839-2.335,1.777-2.867,2.974a10.534,10.534,0,0,0-.9,4.378,21.03,21.03,0,0,0,.521,3.842,44.258,44.258,0,0,1,1.178,9.469,15.234,15.234,0,0,1-.764,4.472,15.031,15.031,0,0,1-.873,2.1c-.317.624-.848,1.211-1.114,1.844a11.309,11.309,0,0,0,.43-5.85,34.721,34.721,0,0,0-1.834-7.433c-.83-2.259-1.96-4.35-2.721-6.627a17.918,17.918,0,0,1-.763-5.968,22.039,22.039,0,0,1,.364-3.853c.192-.99.475-1.961.757-2.929.7-2.4,1.019-5,2.746-6.885a3.75,3.75,0,0,1,.689-.619c1.075-.707,2.432-.45,3.654-.435l3.349.041,8.2.1,12.7.155a1.926,1.926,0,0,1,.447.006" transform="translate(-4.067 -199.682)" fill="#753434"/>
              <path id="Trazado_912440" data-name="Trazado 912440" d="M324.834,389.59a.215.215,0,0,1-.16-.358,4.056,4.056,0,0,0,.962-2.434.215.215,0,0,1,.21-.219.218.218,0,0,1,.219.21,4.424,4.424,0,0,1-1.072,2.729.214.214,0,0,1-.16.071" transform="translate(-290.153 -345.533)" fill="#d97645"/>
              <g id="Grupo_1101326" data-name="Grupo 1101326" transform="translate(3.427 29.543)" opacity="0.4">
                <g id="Grupo_1101325" data-name="Grupo 1101325">
                  <g id="Grupo_1101324" data-name="Grupo 1101324" clip-path="url(#clip-path-5)">
                    <path id="Trazado_912441" data-name="Trazado 912441" d="M32.5,287.053a.226.226,0,0,1-.211-.307c1.13-2.916,2.41-6.222,4.978-8.448a.226.226,0,1,1,.3.341c-2.483,2.152-3.742,5.4-4.853,8.27a.226.226,0,0,1-.211.144" transform="translate(-32.275 -278.242)"/>
                  </g>
                </g>
              </g>
              <g id="Grupo_1101329" data-name="Grupo 1101329" transform="translate(27.483 25.926)" opacity="0.4">
                <g id="Grupo_1101328" data-name="Grupo 1101328">
                  <g id="Grupo_1101327" data-name="Grupo 1101327" clip-path="url(#clip-path-6)">
                    <path id="Trazado_912442" data-name="Trazado 912442" d="M266.889,251.748a.226.226,0,0,1-.095-.021,14.42,14.42,0,0,0-1.482-.556c-.367-.122-.745-.249-1.113-.4-2.8-1.12-4.223-3.829-5.337-6.279a.226.226,0,0,1,.411-.187c1.078,2.371,2.449,4.988,5.094,6.046.356.142.728.267,1.088.387a14.776,14.776,0,0,1,1.529.575.226.226,0,0,1-.095.431" transform="translate(-258.842 -244.177)"/>
                  </g>
                </g>
              </g>
              <g id="Grupo_1101332" data-name="Grupo 1101332" transform="translate(33.196 25.905)" opacity="0.4">
                <g id="Grupo_1101331" data-name="Grupo 1101331">
                  <g id="Grupo_1101330" data-name="Grupo 1101330" clip-path="url(#clip-path-7)">
                    <path id="Trazado_912443" data-name="Trazado 912443" d="M314.246,246.249a.225.225,0,0,1-.143-.051,5.089,5.089,0,0,1-1.433-1.9.226.226,0,1,1,.414-.18,4.635,4.635,0,0,0,1.305,1.734.226.226,0,0,1-.143.4" transform="translate(-312.651 -243.979)"/>
                  </g>
                </g>
              </g>
              <path id="Trazado_912444" data-name="Trazado 912444" d="M149.683,470.56c-.029.393-1.718,1.629-3.333,1.655-1.856.03-3.557-1.293-3.48-1.745.081-.476,1.913.121,3.528.146,1.727.027,3.317-.492,3.285-.056" transform="translate(-127.698 -420.352)" fill="#fff"/>
              <path id="Trazado_912445" data-name="Trazado 912445" d="M33.412,157.781c0-2.137,6.435-3.869,15.558-3.869s16.519,1.732,16.519,3.869-7.4,3.869-16.519,3.869-15.558-1.732-15.558-3.869" transform="translate(-29.864 -137.57)" fill="#4f2626"/>
              <path id="Trazado_912446" data-name="Trazado 912446" d="M135.432,64.021c0,3.477-3.211,6.3-7.172,6.3s-7.172-2.819-7.172-6.3,3.211-6.3,7.172-6.3,7.172,2.819,7.172,6.3" transform="translate(-108.232 -51.596)" fill="#f7c934"/>
              <path id="Trazado_912447" data-name="Trazado 912447" d="M140.652,119.11a.977.977,0,1,1-.969-.851.916.916,0,0,1,.969.851" transform="translate(-123.986 -105.703)" fill="#ff925c"/>
              <path id="Trazado_912448" data-name="Trazado 912448" d="M217.525,119.11a.977.977,0,1,1-.969-.851.916.916,0,0,1,.969.851" transform="translate(-192.697 -105.703)" fill="#ff925c"/>
              <path id="Trazado_912449" data-name="Trazado 912449" d="M143.532,103.534c.059-.038.1-.062.155-.089s.1-.05.152-.072a2.483,2.483,0,0,1,.318-.114,2.118,2.118,0,0,1,.688-.079,2.049,2.049,0,0,1,.355.052,1.937,1.937,0,0,1,.339.127,2.153,2.153,0,0,1,.578.416.341.341,0,0,1-.466.5l-.014-.013-.021-.022a1.5,1.5,0,0,0-.371-.312,1.3,1.3,0,0,0-.216-.1,1.451,1.451,0,0,0-.236-.052,1.543,1.543,0,0,0-.5.021,1.96,1.96,0,0,0-.255.07,1.739,1.739,0,0,0-.234.1l-.018.009a.253.253,0,0,1-.251-.438" transform="translate(-128.187 -92.223)" fill="#4f2626"/>
              <path id="Trazado_912450" data-name="Trazado 912450" d="M209.8,103.964a1.77,1.77,0,0,0-.234-.1,1.954,1.954,0,0,0-.254-.07,1.544,1.544,0,0,0-.5-.021,1.459,1.459,0,0,0-.236.052,1.3,1.3,0,0,0-.216.1,1.5,1.5,0,0,0-.371.312l-.02.021a.341.341,0,1,1-.495-.47l.014-.014a2.148,2.148,0,0,1,.578-.416,1.929,1.929,0,0,1,.339-.127,2.049,2.049,0,0,1,.355-.052,2.118,2.118,0,0,1,.688.079,2.5,2.5,0,0,1,.318.113c.052.022.1.046.152.072s.1.051.155.089a.253.253,0,0,1-.25.439Z" transform="translate(-185.355 -92.223)" fill="#4f2626"/>
              <path id="Trazado_912451" data-name="Trazado 912451" d="M176.97,123.485a.226.226,0,0,0-.22.277,1.265,1.265,0,0,0,2.469,0,.227.227,0,0,0-.22-.277Z" transform="translate(-157.978 -110.374)" fill="#fff"/>
              <path id="Trazado_912452" data-name="Trazado 912452" d="M181.945,106.13a.224.224,0,0,1-.048-.005l-.66-.144a.505.505,0,0,1-.226-.872l.542-.478a.223.223,0,0,1,.294.334l-.542.478a.06.06,0,0,0,.027.1l.66.144a.223.223,0,0,1-.047.44" transform="translate(-161.638 -93.471)" fill="#4f2626"/>
              <path id="Trazado_912453" data-name="Trazado 912453" d="M286.794,100.069a2.978,2.978,0,1,1-2.953-2.592,2.79,2.79,0,0,1,2.953,2.592" transform="translate(-251.064 -87.127)" fill="#f7c934"/>
              <path id="Trazado_912454" data-name="Trazado 912454" d="M288.943,122.75a.4.4,0,1,1-.4-.35.377.377,0,0,1,.4.35" transform="translate(-257.551 -109.404)" fill="#ff925c"/>
              <path id="Trazado_912455" data-name="Trazado 912455" d="M320.594,122.75a.4.4,0,1,1-.4-.35.377.377,0,0,1,.4.35" transform="translate(-285.841 -109.404)" fill="#ff925c"/>
              <path id="Trazado_912456" data-name="Trazado 912456" d="M290.12,116.338a1,1,0,0,1,.258-.113.874.874,0,0,1,.283-.033.712.712,0,0,1,.286.074.884.884,0,0,1,.238.171.141.141,0,1,1-.192.205l-.006-.006-.009-.009a.618.618,0,0,0-.153-.129.461.461,0,0,0-.186-.063.632.632,0,0,0-.208.009.808.808,0,0,0-.2.07l-.008,0a.1.1,0,0,1-.1-.181" transform="translate(-259.272 -103.854)" fill="#4f2626"/>
              <path id="Trazado_912457" data-name="Trazado 912457" d="M317.412,116.515a.815.815,0,0,0-.2-.07.638.638,0,0,0-.208-.009.459.459,0,0,0-.186.063.619.619,0,0,0-.153.129l-.008.008a.14.14,0,0,1-.2-.193l.006-.006a.883.883,0,0,1,.238-.171.713.713,0,0,1,.286-.074.866.866,0,0,1,.283.033.991.991,0,0,1,.257.113.1.1,0,0,1-.1.181Z" transform="translate(-282.818 -103.855)" fill="#4f2626"/>
              <path id="Trazado_912458" data-name="Trazado 912458" d="M303.9,124.552a.093.093,0,0,0-.091.114.521.521,0,0,0,1.017,0,.093.093,0,0,0-.091-.114Z" transform="translate(-271.546 -111.327)" fill="#fff"/>
              <path id="Trazado_912459" data-name="Trazado 912459" d="M305.944,117.407l-.02,0-.272-.059a.208.208,0,0,1-.093-.359l.223-.2a.092.092,0,0,1,.121.137l-.223.2a.025.025,0,0,0,.011.043l.272.059a.092.092,0,0,1-.02.181" transform="translate(-273.053 -104.368)" fill="#4f2626"/>
              <path id="Trazado_912460" data-name="Trazado 912460" d="M104.213,189.091a2.373,2.373,0,0,0-2.511,2.2,2.021,2.021,0,0,0,.493,1.308c1.124.156,2.347.278,3.655.362a2.1,2.1,0,0,0,.874-1.67,2.373,2.373,0,0,0-2.511-2.2" transform="translate(-90.904 -169.014)" fill="#f7c934"/>
              <path id="Trazado_912461" data-name="Trazado 912461" d="M108.553,210.586a.342.342,0,1,1-.339-.3.321.321,0,0,1,.339.3" transform="translate(-96.42 -187.96)" fill="#ff925c"/>
              <path id="Trazado_912462" data-name="Trazado 912462" d="M135.472,210.586a.342.342,0,1,1-.339-.3.321.321,0,0,1,.339.3" transform="translate(-120.481 -187.96)" fill="#ff925c"/>
              <path id="Trazado_912463" data-name="Trazado 912463" d="M109.554,205.132a.848.848,0,0,1,.219-.1.744.744,0,0,1,.241-.028.607.607,0,0,1,.243.063.756.756,0,0,1,.2.146.12.12,0,1,1-.163.175l0,0-.007-.008a.526.526,0,0,0-.13-.109.391.391,0,0,0-.158-.054.539.539,0,0,0-.177.007.687.687,0,0,0-.171.059l-.007,0a.089.089,0,0,1-.087-.154" transform="translate(-97.885 -183.24)" fill="#4f2626"/>
              <path id="Trazado_912464" data-name="Trazado 912464" d="M132.767,205.283a.689.689,0,0,0-.171-.059.539.539,0,0,0-.177-.007.39.39,0,0,0-.158.054.523.523,0,0,0-.13.109l-.007.007a.12.12,0,1,1-.173-.165l.005-.005a.752.752,0,0,1,.2-.145.606.606,0,0,1,.243-.063.745.745,0,0,1,.241.028.848.848,0,0,1,.219.1.089.089,0,0,1-.087.154Z" transform="translate(-117.911 -183.241)" fill="#4f2626"/>
              <path id="Trazado_912465" data-name="Trazado 912465" d="M121.271,212.118a.079.079,0,0,0-.077.1.443.443,0,0,0,.865,0,.079.079,0,0,0-.077-.1Z" transform="translate(-108.324 -189.596)" fill="#fff"/>
              <path id="Trazado_912466" data-name="Trazado 912466" d="M123.013,206.042l-.017,0-.231-.051a.177.177,0,0,1-.079-.305l.19-.167a.078.078,0,0,1,.1.117l-.19.167a.021.021,0,0,0,.009.036l.231.051a.078.078,0,0,1-.017.154" transform="translate(-109.606 -183.678)" fill="#4f2626"/>
              <path id="Trazado_912467" data-name="Trazado 912467" d="M39.766,123.634a4,4,0,0,1-4.228,3.712,3.744,3.744,0,1,1,0-7.424,4,4,0,0,1,4.228,3.712" transform="translate(-27.986 -107.189)" fill="#5594c9"/>
              <path id="Trazado_912468" data-name="Trazado 912468" d="M66.167,150.779a.128.128,0,0,1-.028,0l-.389-.085a.3.3,0,0,1-.133-.514l.319-.282a.131.131,0,1,1,.174.2l-.32.282a.035.035,0,0,0,.016.061l.389.085a.131.131,0,0,1-.028.259" transform="translate(-58.559 -133.95)" fill="#4f2626"/>
              <path id="Trazado_912469" data-name="Trazado 912469" d="M51.35,147.64c0,.382-.176.692-.393.692s-.393-.31-.393-.692.176-.692.393-.692.393.31.393.692" transform="translate(-45.194 -131.346)" fill="#4f2626"/>
              <path id="Trazado_912470" data-name="Trazado 912470" d="M84.7,147.64c0,.382-.176.692-.393.692s-.393-.31-.393-.692.176-.692.393-.692.393.31.393.692" transform="translate(-75.007 -131.346)" fill="#4f2626"/>
              <path id="Trazado_912471" data-name="Trazado 912471" d="M65.894,161.589A.593.593,0,0,1,65.3,161a.131.131,0,0,1,.262,0,.33.33,0,0,0,.66,0,.131.131,0,0,1,.262,0,.593.593,0,0,1-.593.592" transform="translate(-58.368 -143.785)" fill="#4f2626"/>
              <path id="Trazado_912472" data-name="Trazado 912472" d="M73.77,27.6a1.987,1.987,0,1,1-1.97-1.73,1.862,1.862,0,0,1,1.97,1.73" transform="translate(-62.416 -23.123)" fill="#f7c934"/>
              <path id="Trazado_912473" data-name="Trazado 912473" d="M86.072,40.249h-.013l-.181-.04a.139.139,0,0,1-.062-.24l.149-.131a.061.061,0,1,1,.081.092l-.149.131a.015.015,0,0,0-.005.016.016.016,0,0,0,.012.012l.181.04a.061.061,0,0,1-.013.121" transform="translate(-76.662 -35.594)" fill="#4f2626"/>
              <path id="Trazado_912474" data-name="Trazado 912474" d="M79.167,38.785c0,.178-.082.322-.183.322s-.183-.144-.183-.322.082-.322.183-.322.183.144.183.322" transform="translate(-70.433 -34.379)" fill="#4f2626"/>
              <path id="Trazado_912475" data-name="Trazado 912475" d="M94.708,38.785c0,.178-.082.322-.183.322s-.183-.144-.183-.322.082-.322.183-.322.183.144.183.322" transform="translate(-84.324 -34.379)" fill="#4f2626"/>
              <path id="Trazado_912476" data-name="Trazado 912476" d="M85.945,45.284a.276.276,0,0,1-.276-.276.061.061,0,1,1,.122,0,.154.154,0,1,0,.308,0,.061.061,0,1,1,.122,0,.276.276,0,0,1-.276.276" transform="translate(-76.573 -40.175)" fill="#4f2626"/>
              <path id="Trazado_912477" data-name="Trazado 912477" d="M266.522,24.937a2.363,2.363,0,0,1-4.686,0,2.363,2.363,0,0,1,4.686,0" transform="translate(-234.035 -20.451)" fill="#5594c9"/>
              <path id="Trazado_912478" data-name="Trazado 912478" d="M281.152,39.98l-.016,0-.216-.047a.165.165,0,0,1-.074-.285l.177-.156a.073.073,0,1,1,.1.109l-.177.156a.019.019,0,0,0-.006.02.018.018,0,0,0,.015.014l.216.047a.073.073,0,0,1-.016.144" transform="translate(-250.977 -35.281)" fill="#4f2626"/>
              <path id="Trazado_912479" data-name="Trazado 912479" d="M272.942,38.24c0,.212-.1.383-.218.383s-.218-.172-.218-.383.1-.384.218-.384.218.172.218.384" transform="translate(-243.572 -33.837)" fill="#4f2626"/>
              <path id="Trazado_912480" data-name="Trazado 912480" d="M291.423,38.24c0,.212-.1.383-.218.383s-.218-.172-.218-.383.1-.384.218-.384.218.172.218.384" transform="translate(-260.091 -33.837)" fill="#4f2626"/>
              <path id="Trazado_912481" data-name="Trazado 912481" d="M281,45.969a.329.329,0,0,1-.328-.328.073.073,0,1,1,.145,0,.183.183,0,0,0,.366,0,.073.073,0,1,1,.145,0,.329.329,0,0,1-.328.328" transform="translate(-250.872 -40.73)" fill="#4f2626"/>
              <path id="Trazado_912482" data-name="Trazado 912482" d="M246.349,171.176a3.112,3.112,0,0,0-3.293,2.891,2.843,2.843,0,0,0,1.615,2.488,32.9,32.9,0,0,0,4.414-.878,2.637,2.637,0,0,0,.558-1.61,3.112,3.112,0,0,0-3.293-2.891" transform="translate(-217.249 -153.001)" fill="#5594c9"/>
              <path id="Trazado_912483" data-name="Trazado 912483" d="M270.206,195.212l-.022,0-.3-.066a.232.232,0,0,1-.1-.4l.249-.22a.1.1,0,1,1,.135.153l-.249.22a.028.028,0,0,0,.012.048l.3.066a.1.1,0,0,1-.022.2" transform="translate(-241.063 -173.847)" fill="#4f2626"/>
              <path id="Trazado_912484" data-name="Trazado 912484" d="M258.666,192.766c0,.3-.137.539-.306.539s-.307-.241-.307-.539.137-.539.307-.539.306.241.306.539" transform="translate(-230.654 -171.817)" fill="#4f2626"/>
              <path id="Trazado_912485" data-name="Trazado 912485" d="M284.645,192.766c0,.3-.137.539-.307.539s-.306-.241-.306-.539.137-.539.306-.539.307.241.307.539" transform="translate(-253.874 -171.817)" fill="#4f2626"/>
              <path id="Trazado_912486" data-name="Trazado 912486" d="M269.994,203.631a.462.462,0,0,1-.461-.462.1.1,0,1,1,.2,0,.257.257,0,0,0,.514,0,.1.1,0,0,1,.2,0,.462.462,0,0,1-.462.462" transform="translate(-240.915 -181.506)" fill="#4f2626"/>
              <path id="Trazado_912487" data-name="Trazado 912487" d="M201.142,207.113c0,.267-.009.536.005.8a.122.122,0,0,0,.244,0c.015-.267.007-.536.008-.8a.128.128,0,0,0-.257,0" transform="translate(-179.783 -185.012)" fill="#5594c9"/>
              <path id="Trazado_912488" data-name="Trazado 912488" d="M189.294,201.357c-.267,0-.536-.009-.8.005a.122.122,0,0,0,0,.244c.267.015.536.007.8.008a.128.128,0,0,0,0-.257" transform="translate(-168.372 -179.975)" fill="#5594c9"/>
              <path id="Trazado_912489" data-name="Trazado 912489" d="M201.648,189.51c0-.267.009-.536-.005-.8a.122.122,0,0,0-.244,0c-.015.267-.007.536-.008.8a.128.128,0,0,0,.257,0" transform="translate(-180.006 -168.565)" fill="#5594c9"/>
              <path id="Trazado_912490" data-name="Trazado 912490" d="M206.9,201.863c.267,0,.536.009.8-.005a.122.122,0,0,0,0-.244c-.267-.015-.536-.007-.8-.008a.128.128,0,0,0,0,.257" transform="translate(-184.82 -180.199)" fill="#5594c9"/>
              <path id="Trazado_912491" data-name="Trazado 912491" d="M271.478,84.054c0,.175-.006.352,0,.527a.08.08,0,0,0,.16,0c.01-.175,0-.351.005-.527a.084.084,0,0,0-.168,0" transform="translate(-242.652 -75.057)" fill="#f7c934"/>
              <path id="Trazado_912492" data-name="Trazado 912492" d="M263.707,80.278c-.175,0-.352-.006-.527,0a.08.08,0,0,0,0,.16c.175.01.352,0,.527,0a.084.084,0,0,0,0-.168" transform="translate(-235.167 -71.753)" fill="#f7c934"/>
              <path id="Trazado_912493" data-name="Trazado 912493" d="M271.81,72.508c0-.175.006-.352,0-.527a.08.08,0,0,0-.16,0c-.01.175,0,.352,0,.527a.084.084,0,0,0,.168,0" transform="translate(-242.798 -64.269)" fill="#f7c934"/>
              <path id="Trazado_912494" data-name="Trazado 912494" d="M275.254,80.611c.175,0,.352.006.527,0a.08.08,0,0,0,0-.16c-.175-.01-.351,0-.527,0a.084.084,0,0,0,0,.168" transform="translate(-245.956 -71.9)" fill="#f7c934"/>
              <path id="Trazado_912495" data-name="Trazado 912495" d="M220.734,12.151c0,.175-.006.352,0,.527a.08.08,0,0,0,.16,0c.01-.175,0-.352,0-.527a.084.084,0,0,0-.168,0" transform="translate(-197.295 -10.788)" fill="#f7c934"/>
              <path id="Trazado_912496" data-name="Trazado 912496" d="M212.963,8.375c-.175,0-.352-.006-.527,0a.08.08,0,0,0,0,.16c.175.01.352,0,.527,0a.084.084,0,0,0,0-.168" transform="translate(-189.811 -7.484)" fill="#f7c934"/>
              <path id="Trazado_912497" data-name="Trazado 912497" d="M221.066.6c0-.175.006-.352,0-.527a.08.08,0,0,0-.16,0c-.01.175,0,.351,0,.527a.084.084,0,0,0,.168,0" transform="translate(-197.442 0)" fill="#f7c934"/>
              <path id="Trazado_912498" data-name="Trazado 912498" d="M224.509,8.707c.175,0,.352.006.527,0a.08.08,0,0,0,0-.16c-.175-.01-.352,0-.527,0a.084.084,0,0,0,0,.168" transform="translate(-200.599 -7.631)" fill="#f7c934"/>
              <path id="Trazado_912499" data-name="Trazado 912499" d="M146.657,44.3c0,.34-.012.682.006,1.022a.155.155,0,0,0,.31,0c.019-.339.009-.682.01-1.022a.163.163,0,0,0-.327,0" transform="translate(-131.082 -39.456)" fill="#5594c9"/>
              <path id="Trazado_912500" data-name="Trazado 912500" d="M131.585,36.977c-.34,0-.682-.012-1.022.006a.155.155,0,0,0,0,.31c.339.019.682.009,1.022.01a.163.163,0,0,0,0-.327" transform="translate(-116.566 -33.047)" fill="#5594c9"/>
              <path id="Trazado_912501" data-name="Trazado 912501" d="M147.3,21.9c0-.34.012-.682-.006-1.022a.155.155,0,0,0-.31,0c-.019.339-.009.682-.01,1.022a.163.163,0,0,0,.327,0" transform="translate(-131.368 -18.53)" fill="#5594c9"/>
              <path id="Trazado_912502" data-name="Trazado 912502" d="M153.981,37.62c.34,0,.682.012,1.022-.006a.155.155,0,0,0,0-.311c-.339-.019-.682-.009-1.022-.01a.163.163,0,0,0,0,.327" transform="translate(-137.492 -33.332)" fill="#5594c9"/>
              <path id="Trazado_912503" data-name="Trazado 912503" d="M166.844,14.835a.62.62,0,1,1,.69-.617.657.657,0,0,1-.69.617m0-1.053a.442.442,0,1,0,.51.436.478.478,0,0,0-.51-.436" transform="translate(-148.512 -12.158)" fill="#5594c9"/>
              <path id="Trazado_912504" data-name="Trazado 912504" d="M90.128,94.434a.62.62,0,1,1,.69-.617.657.657,0,0,1-.69.617m0-1.053a.442.442,0,1,0,.51.436.478.478,0,0,0-.51-.436" transform="translate(-79.942 -83.305)" fill="#f7c934"/>
              <path id="Trazado_912505" data-name="Trazado 912505" d="M310.383,168.258a.62.62,0,1,1,.69-.617.657.657,0,0,1-.69.617m0-1.053a.442.442,0,1,0,.509.436.478.478,0,0,0-.509-.436" transform="translate(-276.811 -149.291)" fill="#f7c934"/>
            </g>
          </g>
        </g>
      </g>
    </g>
  </g>
</svg>
