<svg id="Grupo_1101018" data-name="Grupo 1101018" xmlns="http://www.w3.org/2000/svg" xmlns:xlink="http://www.w3.org/1999/xlink" width="235.596" height="61.048" viewBox="0 0 235.596 61.048">
  <defs>
    <clipPath id="clip-path">
      <rect id="Rect치ngulo_402867" data-name="Rect치ngulo 402867" width="235.596" height="61.048" transform="translate(0 0)" fill="none"/>
    </clipPath>
  </defs>
  <g id="Grupo_1100876" data-name="Grupo 1100876" clip-path="url(#clip-path)">
    <path id="Rect치ngulo_402866" data-name="Rect치ngulo 402866" d="M20.829,0H214.767A20.829,20.829,0,0,1,235.6,20.829v19.39a20.829,20.829,0,0,1-20.829,20.829H20.83A20.83,20.83,0,0,1,0,40.218V20.829A20.829,20.829,0,0,1,20.829,0Z" transform="translate(0 0)" fill="#4045ab"/>
    <path id="Trazado_911286" data-name="Trazado 911286" d="M32.4,14.578c.73-1.48,1.925-1.48,2.654,0L37.39,19.3a6.413,6.413,0,0,0,4.3,3.122l5.215.757c1.633.238,2,1.375.82,2.526L43.95,29.384a6.409,6.409,0,0,0-1.642,5.05l.892,5.193c.278,1.626-.689,2.329-2.148,1.561l-4.666-2.453a6.411,6.411,0,0,0-5.31,0l-4.663,2.451c-1.46.769-2.427.066-2.148-1.56l.891-5.193a6.4,6.4,0,0,0-1.641-5.05l-3.771-3.676c-1.182-1.151-.813-2.288.82-2.526l5.213-.759a6.411,6.411,0,0,0,4.3-3.122Z" fill="#ee4f47"/>
    <path id="Trazado_911287" data-name="Trazado 911287" d="M74.072,14.578c.73-1.48,1.925-1.48,2.655,0L79.056,19.3a6.415,6.415,0,0,0,4.3,3.122l5.214.757c1.633.238,2,1.375.82,2.526l-3.77,3.676a6.4,6.4,0,0,0-1.641,5.05l.891,5.193c.279,1.626-.688,2.329-2.147,1.56l-4.664-2.451a6.411,6.411,0,0,0-5.31,0l-4.666,2.453c-1.46.768-2.427.065-2.148-1.561l.891-5.193a6.4,6.4,0,0,0-1.641-5.05l-3.77-3.676c-1.182-1.151-.813-2.288.82-2.526l5.214-.759a6.417,6.417,0,0,0,4.3-3.122Z" fill="#ee4f47"/>
    <path id="Trazado_911288" data-name="Trazado 911288" d="M115.738,14.578c.731-1.48,1.926-1.48,2.655,0l2.331,4.725a6.413,6.413,0,0,0,4.3,3.122l5.214.757c1.633.238,2,1.375.82,2.526l-3.77,3.676a6.409,6.409,0,0,0-1.642,5.05l.892,5.193c.278,1.626-.689,2.329-2.149,1.56l-4.664-2.451a6.407,6.407,0,0,0-5.31,0l-4.662,2.451c-1.46.769-2.427.066-2.149-1.56l.89-5.193a6.405,6.405,0,0,0-1.642-5.05l-3.769-3.676c-1.182-1.151-.813-2.288.82-2.526l5.21-.758a6.419,6.419,0,0,0,4.3-3.123Z" fill="#ee4f47"/>
    <path id="Trazado_911289" data-name="Trazado 911289" d="M157.406,14.578c.73-1.48,1.926-1.48,2.655,0l2.33,4.725a6.413,6.413,0,0,0,4.3,3.122l5.214.757c1.633.238,2,1.375.82,2.526l-3.771,3.676a6.4,6.4,0,0,0-1.641,5.05l.891,5.193c.279,1.626-.688,2.329-2.148,1.56l-4.663-2.451a6.407,6.407,0,0,0-5.31,0l-4.664,2.451c-1.46.769-2.427.066-2.149-1.56l.891-5.193a6.41,6.41,0,0,0-1.642-5.05l-3.77-3.676c-1.182-1.151-.813-2.288.82-2.526l5.213-.759a6.417,6.417,0,0,0,4.3-3.122Z" fill="#ee4f47"/>
    <path id="Trazado_911290" data-name="Trazado 911290" d="M199.071,14.578c.731-1.48,1.926-1.48,2.656,0l2.332,4.725a6.417,6.417,0,0,0,4.3,3.122l5.214.757c1.633.238,2,1.375.82,2.526l-3.773,3.676a6.4,6.4,0,0,0-1.641,5.05l.891,5.193c.279,1.626-.688,2.329-2.148,1.561l-4.665-2.453a6.411,6.411,0,0,0-5.31,0l-4.661,2.451c-1.46.769-2.427.066-2.149-1.56l.892-5.193a6.409,6.409,0,0,0-1.642-5.05l-3.771-3.676c-1.182-1.151-.813-2.288.82-2.526l5.211-.758a6.422,6.422,0,0,0,4.3-3.123Z" fill="#ee4f47"/>
    <path id="Trazado_911291" data-name="Trazado 911291" d="M104.228,57.987c3.289-.038,6.574-.327,9.864-.365a.5.5,0,0,0,0-1c-3.29.038-6.575.327-9.864.365a.5.5,0,0,0,0,1" fill="#f6ccb3"/>
    <path id="Trazado_911292" data-name="Trazado 911292" d="M118.674,57.623c11.758-.265,23.516.26,35.273.068,5.867-.1,11.686-.644,17.539-.931,6.153-.3,12.32-.2,18.474-.039,5.879.151,11.755.38,17.636.466,4.056.061,8.179.256,12.17-.607,6.531-1.412,9.309-6.7,9.743-12.983.045-.644-.956-.64-1,0-.241,3.487-1.049,6.914-3.645,9.411-2.362,2.272-5.918,2.884-9.049,3.13a136.616,136.616,0,0,1-14.108-.072c-5.542-.143-11.083-.356-16.627-.452-11.067-.193-22.038.964-33.093,1.106-11.1.142-22.208-.347-33.313-.1a.5.5,0,0,0,0,1" fill="#f6ccb3"/>
  </g>
</svg>
