<svg xmlns="http://www.w3.org/2000/svg" xmlns:xlink="http://www.w3.org/1999/xlink" width="715" height="489" viewBox="0 0 715 489">
  <defs>
    <clipPath id="clip-path">
      <rect id="Rectángulo_403209" data-name="Rectángulo 403209" width="659.977" height="468.928" fill="none"/>
    </clipPath>
    <clipPath id="clip-path-2">
      <rect id="Rectángulo_403216" data-name="Rectángulo 403216" width="659.977" height="468.928" fill="#4045ab"/>
    </clipPath>
  </defs>
  <g id="Grupo_1101416" data-name="Grupo 1101416" transform="translate(-705.385 -928)">
    <g id="Grupo_1101415" data-name="Grupo 1101415">
      <g id="Grupo_1101414" data-name="Grupo 1101414">
        <rect id="Rectángulo_403220" data-name="Rectángulo 403220" width="715" height="489" transform="translate(705.385 928)" fill="#4045ab" opacity="0.1"/>
        <g id="Grupo_1101353" data-name="Grupo 1101353" transform="translate(732.385 938)">
          <g id="Grupo_1101340" data-name="Grupo 1101340">
            <g id="Grupo_1101339" data-name="Grupo 1101339" clip-path="url(#clip-path)">
              <path id="Trazado_912506" data-name="Trazado 912506" d="M551.2,413.9c1.723.752,5.937.657,5.94.657.044,0-.905-2.758-.985-2.925-.925-1.935-3.849-5.128-6.228-4.807a2.842,2.842,0,0,0-2.28,3.561c.4,1.648,2.086,2.873,3.553,3.514" fill="#4045ab"/>
              <path id="Trazado_912507" data-name="Trazado 912507" d="M552.654,426.111c1.787.26,5.548-.83,5.847-.918a50.4,50.4,0,0,0,2.281,6.311c.517,1.2,1.076,2.388,1.65,3.575-.343-.5-.653-.95-.7-1.008-1.4-1.621-5.067-3.929-7.276-2.99a2.84,2.84,0,0,0-1.259,4.036c.816,1.485,2.771,2.22,4.355,2.45,1.608.235,4.833-.631,5.683-.871.226.453.445.907.673,1.359,1.089,2.169,2.185,4.328,3.195,6.479.356.757.679,1.517,1.006,2.276-.3-.447-.566-.82-.612-.873-1.4-1.621-5.066-3.929-7.276-2.99a2.841,2.841,0,0,0-1.259,4.036c.817,1.485,2.771,2.22,4.355,2.45,1.535.224,4.519-.548,5.531-.829.31.787.623,1.575.888,2.351.169.535.37,1.037.509,1.584l.446,1.6c.246,1.026.506,2.083.721,3.089.155.7.289,1.368.427,2.042-.346-.758-1.054-2.229-1.128-2.345-1.14-1.815-4.412-4.651-6.739-4.059a2.841,2.841,0,0,0-1.855,3.8c.582,1.592,2.4,2.614,3.933,3.082,1.686.516,5.419.045,5.885-.017.224,1.115.431,2.2.61,3.231q.2,1.143.368,2.2h1.5q-.212-1.174-.465-2.457c-.223-1.134-.483-2.34-.763-3.577a31.082,31.082,0,0,0,3.284-1.544,20.759,20.759,0,0,0,4.785,3.086c-.429,1.054-.856,2.075-1.274,3.032-.221.507-.435.985-.648,1.46h1.581c.126-.3.25-.594.377-.907.44-1.068.889-2.219,1.338-3.4.452.1,4.147.845,5.869.457,1.561-.354,3.454-1.237,4.153-2.781a2.841,2.841,0,0,0-1.569-3.927c-2.275-.764-5.749,1.82-7.022,3.545-.075.1-.766,1.3-1.19,2.058.181-.485.362-.954.542-1.456.364-.99.7-1.989,1.059-3.062l.476-1.589c.17-.527.282-1.105.427-1.663.31-1.3.56-2.631.783-3.978.867.315,3.965,1.393,5.57,1.28s3.6-.7,4.525-2.119a2.841,2.841,0,0,0-.955-4.12c-2.133-1.1-5.959.929-7.478,2.441-.095.094-1.063,1.3-1.582,1.976.127-.811.258-1.62.36-2.445.3-2.38.521-4.8.756-7.211.072-.739.152-1.474.23-2.21.307.115,3.961,1.476,5.758,1.349,1.6-.111,3.6-.7,4.526-2.119a2.841,2.841,0,0,0-.955-4.119c-2.133-1.1-5.959.928-7.478,2.441-.114.114-1.505,1.853-1.838,2.313.172-1.622.358-3.236.605-4.82a50.17,50.17,0,0,1,1.384-6.341c.143.055,3.951,1.491,5.791,1.362,1.6-.112,3.6-.7,4.526-2.119a2.84,2.84,0,0,0-.955-4.119c-2.134-1.1-5.958.928-7.478,2.44-.119.119-1.615,1.992-1.862,2.351.036-.121.059-.25.1-.369a36.556,36.556,0,0,1,2.512-6c.546-1.068,1.128-2.059,1.715-3.01.682.34,3.814,1.861,5.484,1.928,1.6.064,3.656-.3,4.731-1.61a2.84,2.84,0,0,0-.5-4.2c-2-1.329-6.025.268-7.7,1.6-.091.073-.936.914-1.543,1.535.272-.425.544-.869.813-1.271,1-1.512,2.017-2.835,2.924-4,.52-.658,1-1.243,1.463-1.785.843-.015,4.24-.118,5.725-.815,1.449-.681,3.107-1.951,3.458-3.609a2.84,2.84,0,0,0-2.376-3.5c-2.387-.258-5.224,3.013-6.1,4.972-.075.17-.95,2.952-.906,2.951h.051c-.452.513-.93,1.068-1.441,1.685-.933,1.147-1.978,2.452-3.019,3.948a50.582,50.582,0,0,0-3.13,4.988,37.052,37.052,0,0,0-2.675,6.02c-.008.024-.013.051-.021.076.012-.7-.019-2.671-.039-2.821-.275-2.126-2.057-6.073-4.418-6.509a2.841,2.841,0,0,0-3.277,2.672c-.138,1.689,1.086,3.38,2.281,4.447,1.347,1.2,5.085,2.367,5.383,2.46a50.263,50.263,0,0,0-1.58,6.521c-.229,1.285-.42,2.586-.6,3.893-.009-.609-.021-1.153-.031-1.229-.276-2.126-2.058-6.072-4.419-6.508a2.84,2.84,0,0,0-3.276,2.672c-.139,1.689,1.086,3.38,2.28,4.446,1.212,1.083,4.379,2.14,5.221,2.409-.062.5-.129,1-.189,1.5-.288,2.41-.565,4.815-.909,7.167-.12.828-.27,1.64-.416,2.452-.009-.54-.021-.995-.029-1.064-.276-2.126-2.058-6.072-4.419-6.509a2.842,2.842,0,0,0-3.277,2.673c-.138,1.688,1.087,3.379,2.281,4.446,1.156,1.033,4.071,2.035,5.07,2.359-.175.828-.349,1.657-.556,2.451-.154.539-.265,1.069-.449,1.6l-.509,1.578c-.361.991-.727,2.016-1.1,2.974-.256.669-.514,1.3-.77,1.939.129-.824.35-2.441.353-2.578a11.03,11.03,0,0,0-1.48-5.367,3.226,3.226,0,0,0-.039-.628,2.841,2.841,0,0,0-3.474-2.411c-2.32.618-3.791,4.691-3.9,6.831-.007.127.076,1.505.143,2.374-.118-.505-.225-1-.351-1.514-.244-1.026-.517-2.043-.806-3.139q-.237-.786-.481-1.587c-.149-.533-.374-1.078-.56-1.623-.459-1.254-.985-2.5-1.543-3.75.9-.215,4.076-1.025,5.352-2.005s2.618-2.57,2.606-4.264a2.842,2.842,0,0,0-3.069-2.909c-2.386.259-4.458,4.062-4.891,6.161-.027.131-.168,1.673-.23,2.521-.341-.746-.678-1.493-1.048-2.238-1.066-2.149-2.213-4.29-3.347-6.431-.348-.656-.687-1.313-1.029-1.97.321-.074,4.119-.955,5.548-2.052,1.271-.974,2.618-2.569,2.606-4.264a2.841,2.841,0,0,0-3.068-2.909c-2.387.259-4.459,4.062-4.892,6.161-.032.159-.233,2.377-.256,2.943-.752-1.446-1.487-2.9-2.155-4.354a50.089,50.089,0,0,1-2.343-6.051c.149-.034,4.117-.936,5.581-2.059,1.271-.975,2.618-2.57,2.606-4.265a2.841,2.841,0,0,0-3.069-2.908c-2.386.259-4.458,4.061-4.891,6.161-.034.165-.248,2.552-.256,2.987-.037-.12-.089-.24-.124-.36a36.677,36.677,0,0,1-1.215-6.391c-.134-1.192-.2-2.339-.229-3.456.756-.093,4.208-.552,5.637-1.417,1.37-.83,2.884-2.267,3.058-3.952a2.842,2.842,0,0,0-2.73-3.229c-2.4-.005-4.878,3.548-5.539,5.587-.036.111-.277,1.278-.44,2.132-.007-.505-.025-1.026-.023-1.509,0-1.815.118-3.478.232-4.949.071-.837.152-1.591.236-2.3.694-.478,3.471-2.438,4.325-3.839.834-1.367,1.515-3.341.893-4.917a2.841,2.841,0,0,0-3.911-1.607c-2.133,1.1-2.694,5.4-2.341,7.511.031.182.836,2.985.873,2.961l.042-.029c-.1.677-.187,1.4-.272,2.2-.146,1.472-.3,3.136-.34,4.958a50.3,50.3,0,0,0,.14,5.887,37.009,37.009,0,0,0,1.091,6.5c.006.025.017.05.024.075-.378-.593-1.49-2.217-1.589-2.332-1.4-1.621-5.066-3.929-7.276-2.991a2.84,2.84,0,0,0-1.259,4.036c.817,1.486,2.771,2.22,4.355,2.451" fill="#4045ab"/>
              <path id="Trazado_912508" data-name="Trazado 912508" d="M593.825,414.831c.037.023.766-2.8.792-2.984.295-2.123-.382-6.4-2.544-7.445a2.84,2.84,0,0,0-3.865,1.713c-.58,1.592.154,3.546,1.026,4.89,1.021,1.579,4.587,3.824,4.591,3.826" fill="#4045ab"/>
              <path id="Trazado_912509" data-name="Trazado 912509" d="M25.287,413.9c1.723.752,5.937.657,5.94.657.044,0-.9-2.758-.985-2.925-.925-1.935-3.849-5.128-6.228-4.807a2.842,2.842,0,0,0-2.28,3.561c.4,1.648,2.086,2.873,3.553,3.514" fill="#4045ab"/>
              <path id="Trazado_912510" data-name="Trazado 912510" d="M26.742,426.111c1.787.26,5.548-.83,5.847-.918A50.4,50.4,0,0,0,34.87,431.5c.517,1.2,1.076,2.388,1.65,3.575-.343-.5-.653-.95-.7-1.008-1.4-1.621-5.067-3.929-7.276-2.99a2.84,2.84,0,0,0-1.259,4.036c.816,1.485,2.771,2.22,4.355,2.45,1.608.235,4.833-.631,5.683-.871.226.453.445.907.673,1.359,1.089,2.169,2.185,4.328,3.195,6.479.356.757.679,1.517,1.006,2.276-.305-.447-.566-.82-.612-.873-1.4-1.621-5.066-3.929-7.276-2.99a2.841,2.841,0,0,0-1.259,4.036c.817,1.485,2.771,2.22,4.355,2.45,1.535.224,4.519-.548,5.531-.829.31.787.623,1.575.888,2.351.169.535.37,1.037.509,1.584l.446,1.6c.246,1.026.506,2.083.721,3.089.155.7.289,1.368.427,2.042-.346-.758-1.054-2.229-1.128-2.345-1.14-1.815-4.412-4.651-6.738-4.059a2.841,2.841,0,0,0-1.856,3.8c.582,1.592,2.4,2.614,3.933,3.082,1.686.516,5.419.045,5.885-.017.224,1.115.431,2.2.61,3.231q.2,1.143.368,2.2h1.495q-.211-1.174-.465-2.457c-.223-1.134-.483-2.34-.763-3.577a31.082,31.082,0,0,0,3.284-1.544,20.757,20.757,0,0,0,4.785,3.086c-.429,1.054-.856,2.075-1.274,3.032-.22.507-.435.985-.648,1.46h1.581c.126-.3.25-.594.377-.907.44-1.068.889-2.219,1.338-3.4.452.1,4.147.845,5.869.457,1.561-.354,3.453-1.237,4.153-2.781a2.841,2.841,0,0,0-1.569-3.927c-2.275-.764-5.749,1.82-7.022,3.545-.075.1-.766,1.3-1.19,2.058.181-.485.362-.954.542-1.456.364-.99.7-1.989,1.059-3.062l.476-1.589c.17-.527.282-1.105.428-1.663.309-1.3.559-2.631.782-3.978.867.315,3.965,1.393,5.57,1.28s3.6-.7,4.525-2.119a2.842,2.842,0,0,0-.954-4.12c-2.134-1.1-5.96.929-7.479,2.441-.095.094-1.063,1.3-1.582,1.976.127-.811.258-1.62.36-2.445.3-2.38.521-4.8.756-7.211.072-.739.152-1.474.23-2.21.307.115,3.961,1.476,5.758,1.349,1.6-.111,3.6-.7,4.526-2.119a2.841,2.841,0,0,0-.955-4.119c-2.133-1.1-5.959.928-7.478,2.441-.115.114-1.505,1.853-1.838,2.313.172-1.622.357-3.236.6-4.82a50.173,50.173,0,0,1,1.384-6.341c.143.055,3.951,1.491,5.791,1.362,1.6-.112,3.6-.7,4.526-2.119a2.841,2.841,0,0,0-.954-4.119c-2.135-1.1-5.959.928-7.479,2.44-.119.119-1.615,1.992-1.862,2.351.036-.121.059-.25.1-.369a36.549,36.549,0,0,1,2.512-6c.546-1.068,1.128-2.059,1.715-3.01.682.34,3.814,1.861,5.484,1.928,1.6.064,3.656-.3,4.731-1.61a2.841,2.841,0,0,0-.5-4.2c-2-1.329-6.026.268-7.7,1.6-.091.073-.936.914-1.543,1.535.272-.425.544-.869.813-1.271,1-1.512,2.017-2.835,2.924-4,.52-.658,1-1.243,1.463-1.785.843-.015,4.24-.118,5.725-.815,1.449-.681,3.107-1.951,3.458-3.609a2.84,2.84,0,0,0-2.376-3.5c-2.387-.258-5.224,3.013-6.1,4.972-.075.17-.95,2.952-.906,2.951h.051c-.452.513-.93,1.068-1.44,1.685-.934,1.147-1.979,2.452-3.02,3.948a50.592,50.592,0,0,0-3.13,4.988,37.051,37.051,0,0,0-2.675,6.02c-.008.024-.013.051-.021.076.012-.7-.019-2.671-.038-2.821-.276-2.126-2.058-6.073-4.419-6.509a2.841,2.841,0,0,0-3.277,2.672c-.138,1.689,1.086,3.38,2.281,4.447,1.347,1.2,5.085,2.367,5.383,2.46a50.264,50.264,0,0,0-1.58,6.521c-.229,1.285-.42,2.586-.6,3.893-.009-.609-.021-1.153-.031-1.229-.276-2.126-2.057-6.072-4.419-6.508a2.84,2.84,0,0,0-3.276,2.672c-.139,1.689,1.086,3.38,2.28,4.446,1.212,1.083,4.379,2.14,5.221,2.409-.062.5-.129,1-.189,1.5-.288,2.41-.565,4.815-.909,7.167-.12.828-.27,1.64-.416,2.452-.009-.54-.021-.995-.029-1.064-.276-2.126-2.058-6.072-4.419-6.509a2.842,2.842,0,0,0-3.277,2.673c-.138,1.688,1.087,3.379,2.281,4.446,1.156,1.033,4.071,2.035,5.07,2.359-.175.828-.349,1.657-.556,2.451-.154.539-.265,1.069-.449,1.6l-.509,1.578c-.361.991-.727,2.016-1.1,2.974-.256.669-.514,1.3-.77,1.939.129-.824.35-2.441.353-2.578a11.029,11.029,0,0,0-1.48-5.367,3.223,3.223,0,0,0-.039-.628,2.841,2.841,0,0,0-3.474-2.411c-2.32.618-3.791,4.691-3.9,6.831-.006.127.076,1.505.143,2.374-.118-.505-.225-1-.351-1.514-.244-1.026-.517-2.043-.806-3.139q-.237-.786-.481-1.587c-.149-.533-.374-1.078-.56-1.623-.459-1.254-.985-2.5-1.543-3.75.9-.215,4.076-1.025,5.352-2.005s2.618-2.57,2.606-4.264a2.842,2.842,0,0,0-3.069-2.909c-2.386.259-4.458,4.062-4.891,6.161-.027.131-.168,1.673-.23,2.521-.341-.746-.678-1.493-1.048-2.238-1.066-2.149-2.213-4.29-3.347-6.431-.348-.656-.687-1.313-1.029-1.97.321-.074,4.119-.955,5.549-2.052,1.27-.974,2.617-2.569,2.6-4.264a2.841,2.841,0,0,0-3.068-2.909c-2.387.259-4.459,4.062-4.892,6.161-.032.159-.233,2.377-.256,2.943-.752-1.446-1.487-2.9-2.155-4.354a50.1,50.1,0,0,1-2.343-6.051c.149-.034,4.117-.936,5.581-2.059,1.271-.975,2.618-2.57,2.606-4.265a2.841,2.841,0,0,0-3.069-2.908c-2.386.259-4.458,4.061-4.891,6.161-.034.165-.248,2.552-.256,2.987-.037-.12-.089-.24-.124-.36a36.68,36.68,0,0,1-1.215-6.391c-.134-1.192-.195-2.339-.229-3.456.756-.093,4.208-.552,5.637-1.417,1.37-.83,2.884-2.267,3.058-3.952a2.841,2.841,0,0,0-2.73-3.229c-2.4-.005-4.878,3.548-5.539,5.587-.036.111-.277,1.278-.44,2.132-.007-.505-.025-1.026-.023-1.509,0-1.815.118-3.478.232-4.949.071-.837.152-1.591.236-2.3.694-.478,3.471-2.438,4.325-3.839.834-1.367,1.515-3.341.893-4.917a2.841,2.841,0,0,0-3.911-1.607c-2.133,1.1-2.694,5.4-2.341,7.511.031.182.836,2.985.873,2.961l.042-.029c-.095.677-.187,1.4-.272,2.2-.146,1.472-.3,3.136-.34,4.958a50.31,50.31,0,0,0,.14,5.887,37.006,37.006,0,0,0,1.091,6.5c.006.025.017.05.024.075-.378-.593-1.49-2.217-1.589-2.332-1.4-1.621-5.066-3.929-7.276-2.991a2.84,2.84,0,0,0-1.259,4.036c.817,1.486,2.771,2.22,4.355,2.451" fill="#4045ab"/>
              <path id="Trazado_912511" data-name="Trazado 912511" d="M67.912,414.831c.037.023.766-2.8.792-2.984.3-2.123-.381-6.4-2.543-7.445a2.841,2.841,0,0,0-3.866,1.713c-.58,1.592.155,3.546,1.026,4.89,1.021,1.579,4.588,3.824,4.591,3.826" fill="#4045ab"/>
            </g>
          </g>
          <g id="Grupo_1101357" data-name="Grupo 1101357">
            <path id="Trazado_912512" data-name="Trazado 912512" d="M657.972,417.842H575.94a.5.5,0,0,1-.5-.5V319.986a.5.5,0,0,1,.5-.5h82.032a.5.5,0,0,1,.5.5v40.2a.5.5,0,1,1-1,0v-39.7H576.44v96.356h81.032V367.7a.5.5,0,0,1,1,0v49.639A.5.5,0,0,1,657.972,417.842Z" fill="#4045ab"/>
            <path id="Rectángulo_403210" data-name="Rectángulo 403210" d="M0-.5H82.032a.5.5,0,0,1,.5.5V11.825a.5.5,0,0,1-.5.5H0a.5.5,0,0,1-.5-.5V0A.5.5,0,0,1,0-.5ZM81.532.5H.5V11.325H81.532Z" transform="translate(575.94 319.986)" fill="#4045ab"/>
            <path id="Rectángulo_403211" data-name="Rectángulo 403211" d="M0-.5H10.26a.5.5,0,0,1,.5.5V10.26a.5.5,0,0,1-.5.5H0a.5.5,0,0,1-.5-.5V0A.5.5,0,0,1,0-.5ZM9.76.5H.5V9.76H9.76Z" transform="translate(582.951 346.629)" fill="#4045ab"/>
            <path id="Rectángulo_403212" data-name="Rectángulo 403212" d="M0-.5H10.26a.5.5,0,0,1,.5.5V10.26a.5.5,0,0,1-.5.5H0a.5.5,0,0,1-.5-.5V0A.5.5,0,0,1,0-.5ZM9.76.5H.5V9.76H9.76Z" transform="translate(582.951 367.149)" fill="#4045ab"/>
            <path id="Rectángulo_403213" data-name="Rectángulo 403213" d="M0-.5H10.26a.5.5,0,0,1,.5.5V10.26a.5.5,0,0,1-.5.5H0a.5.5,0,0,1-.5-.5V0A.5.5,0,0,1,0-.5ZM9.76.5H.5V9.76H9.76Z" transform="translate(582.951 387.669)" fill="#4045ab"/>
            <path id="Línea_640" data-name="Línea 640" d="M47.392.5H0A.5.5,0,0,1-.5,0,.5.5,0,0,1,0-.5H47.392a.5.5,0,0,1,.5.5A.5.5,0,0,1,47.392.5Z" transform="translate(599.562 351.025)" fill="#4045ab"/>
            <path id="Línea_641" data-name="Línea 641" d="M47.392.5H0A.5.5,0,0,1-.5,0,.5.5,0,0,1,0-.5H47.392a.5.5,0,0,1,.5.5A.5.5,0,0,1,47.392.5Z" transform="translate(599.562 373.012)" fill="#4045ab"/>
            <path id="Línea_642" data-name="Línea 642" d="M47.392.5H0A.5.5,0,0,1-.5,0,.5.5,0,0,1,0-.5H47.392a.5.5,0,0,1,.5.5A.5.5,0,0,1,47.392.5Z" transform="translate(599.562 393.043)" fill="#4045ab"/>
          </g>
          <path id="Trazado_912513" data-name="Trazado 912513" d="M286.222,444.164a.5.5,0,0,1-.5-.5v-64.1a.5.5,0,0,1,.5-.5h59.9a.5.5,0,1,1,0,1h-59.4v62.709l22.392-13.6a.5.5,0,0,1,.26-.073h99.567V380.066h-52.79a.5.5,0,0,1,0-1h53.29a.5.5,0,0,1,.5.5V429.6a.5.5,0,0,1-.5.5H309.514l-23.032,13.991A.5.5,0,0,1,286.222,444.164Z" fill="#4045ab"/>
          <g id="Grupo_1101342" data-name="Grupo 1101342">
            <g id="Grupo_1101356" data-name="Grupo 1101356">
              <path id="Trazado_912514" data-name="Trazado 912514" d="M306.406,411.437a11.4,11.4,0,0,1-6.921-2.321,11.619,11.619,0,0,1-3.318-3.963,11.35,11.35,0,0,1-1.241-5.2,11.485,11.485,0,1,1,22.97,0,11.351,11.351,0,0,1-1.241,5.2,11.619,11.619,0,0,1-3.317,3.963A11.411,11.411,0,0,1,306.406,411.437Zm0-21.97a10.487,10.487,0,1,0,10.49,10.49A10.5,10.5,0,0,0,306.406,389.467Z" fill="#4045ab"/>
              <path id="Trazado_912515" data-name="Trazado 912515" d="M306.409,392.343a3.987,3.987,0,1,1-3.986,3.987A3.992,3.992,0,0,1,306.409,392.343Zm0,6.974a2.987,2.987,0,1,0-2.986-2.987A2.99,2.99,0,0,0,306.409,399.317Z" fill="#4045ab"/>
              <path id="Trazado_912516" data-name="Trazado 912516" d="M306.406,411.437a11.4,11.4,0,0,1-6.921-2.321.5.5,0,0,1-.181-.266,7.375,7.375,0,1,1,14.214,0,.5.5,0,0,1-.181.266A11.41,11.41,0,0,1,306.406,411.437Zm-6.181-3.017a10.5,10.5,0,0,0,12.372,0,6.375,6.375,0,1,0-12.372,0Z" fill="#4045ab"/>
              <path id="Línea_643" data-name="Línea 643" d="M37.192.5H0A.5.5,0,0,1-.5,0,.5.5,0,0,1,0-.5H37.192a.5.5,0,0,1,.5.5A.5.5,0,0,1,37.192.5Z" transform="translate(328.858 394.006)" fill="#4045ab"/>
              <path id="Línea_644" data-name="Línea 644" d="M73.028.5H0A.5.5,0,0,1-.5,0,.5.5,0,0,1,0-.5H73.028a.5.5,0,0,1,.5.5A.5.5,0,0,1,73.028.5Z" transform="translate(328.858 401.754)" fill="#4045ab"/>
              <path id="Línea_645" data-name="Línea 645" d="M73.028.5H0A.5.5,0,0,1-.5,0,.5.5,0,0,1,0-.5H73.028a.5.5,0,0,1,.5.5A.5.5,0,0,1,73.028.5Z" transform="translate(328.858 410.665)" fill="#4045ab"/>
              <path id="Línea_646" data-name="Línea 646" d="M73.028.5H0A.5.5,0,0,1-.5,0,.5.5,0,0,1,0-.5H73.028a.5.5,0,0,1,.5.5A.5.5,0,0,1,73.028.5Z" transform="translate(328.858 419.769)" fill="#4045ab"/>
              <path id="Trazado_912517" data-name="Trazado 912517" d="M411.609,147.717h35.65a.5.5,0,0,1,.5.5v31.42a.5.5,0,0,1-.764.425L436.26,173.4l-24.247,33.334a.5.5,0,0,1-.9-.294v-58.22A.5.5,0,0,1,411.609,147.717Zm35.15,1h-34.65V204.9l23.616-32.467a.5.5,0,0,1,.668-.131l10.366,6.436Z" fill="#4045ab"/>
              <path id="Trazado_912518" data-name="Trazado 912518" d="M447.259,123.657h70.48a.5.5,0,0,1,.392.811l-28.19,35.55a.5.5,0,0,1-.655.114l-7.46-4.63-3.65-2.26-6.266-3.9-22.876,31.434-1.369,1.889a.5.5,0,0,1-.9-.293v-58.22A.5.5,0,0,1,447.259,123.657Zm69.445,1H447.759v56.178l.465-.642,23.151-31.811a.5.5,0,0,1,.668-.13l6.66,4.14,3.649,2.26,7.082,4.4Zm-54.735,7.1a7.728,7.728,0,1,1-7.72,7.72A7.734,7.734,0,0,1,461.969,131.757Zm0,14.45a6.725,6.725,0,1,0-6.72-6.73A6.738,6.738,0,0,0,461.969,146.207Z" fill="#4045ab"/>
              <path id="Trazado_912519" data-name="Trazado 912519" d="M436.13,172.227a.5.5,0,0,1,.263.075l11.13,6.91a.5.5,0,0,1,.236.425v2.24h34.33a.5.5,0,0,1,.5.5v24.06a.5.5,0,0,1-.5.5h-70.48a.5.5,0,0,1-.4-.794l24.52-33.71A.5.5,0,0,1,436.13,172.227Zm10.63,7.688-10.5-6.518-23.669,32.54h69v-23.06h-34.33a.5.5,0,0,1-.5-.5Z" fill="#4045ab"/>
              <path id="Elipse_11575" data-name="Elipse 11575" d="M7.225-.5A7.725,7.725,0,1,1-.5,7.225,7.734,7.734,0,0,1,7.225-.5Zm0,14.45A6.725,6.725,0,1,0,.5,7.225,6.733,6.733,0,0,0,7.225,13.95Z" transform="translate(418.03 157.561) rotate(-9.217)" fill="#4045ab"/>
              <path id="Trazado_912520" data-name="Trazado 912520" d="M461.969,131.757a7.728,7.728,0,1,1-7.72,7.72A7.734,7.734,0,0,1,461.969,131.757Zm0,14.45a6.725,6.725,0,1,0-6.72-6.73A6.738,6.738,0,0,0,461.969,146.207Z" fill="#4045ab"/>
              <path id="Trazado_912521" data-name="Trazado 912521" d="M517.739,182.877h-70.48a.5.5,0,0,1-.4-.793l1.37-1.89,23.151-31.811a.5.5,0,0,1,.668-.13l6.66,4.14,3.649,2.26,7.082,4.4,27.913-35.2a.5.5,0,0,1,.892.311v32.2a.5.5,0,0,1-1,0V125.592l-27.3,34.425a.5.5,0,0,1-.655.114l-7.46-4.63-3.65-2.26-6.266-3.9-22.876,31.434-.794,1.1h69V164.714a.5.5,0,0,1,1,0v17.663A.5.5,0,0,1,517.739,182.877Z" fill="#4045ab"/>
              <path id="Trazado_912522" data-name="Trazado 912522" d="M461.969,131.757a7.728,7.728,0,1,1-7.72,7.72A7.734,7.734,0,0,1,461.969,131.757Zm0,14.45a6.725,6.725,0,1,0-6.72-6.73A6.738,6.738,0,0,0,461.969,146.207Z" fill="#4045ab"/>
              <path id="Rectángulo_403214" data-name="Rectángulo 403214" d="M4.583-.5H40.3a5.089,5.089,0,0,1,5.083,5.083v75.25A5.089,5.089,0,0,1,40.3,84.916H4.583A5.089,5.089,0,0,1-.5,79.833V4.583A5.089,5.089,0,0,1,4.583-.5ZM40.3,83.916a4.088,4.088,0,0,0,4.083-4.083V4.583A4.088,4.088,0,0,0,40.3.5H4.583A4.088,4.088,0,0,0,.5,4.583v75.25a4.088,4.088,0,0,0,4.083,4.083Z" transform="translate(295.039 0.5)" fill="#4045ab"/>
              <path id="Trazado_912523" data-name="Trazado 912523" d="M336.278,78.563h-37.6a.5.5,0,0,1-.5-.5V7.354a.5.5,0,0,1,.5-.5h7.946a.5.5,0,0,1,.5.5V9.568h20.7V7.354a.5.5,0,0,1,.5-.5h7.946a.5.5,0,0,1,.5.5V29.388a.5.5,0,0,1-1,0V7.854h-6.946v2.214a.5.5,0,0,1-.5.5h-21.7a.5.5,0,0,1-.5-.5V7.854h-6.946V77.563h36.6V37.741a.5.5,0,1,1,1,0V78.063A.5.5,0,0,1,336.278,78.563Z" fill="#4045ab"/>
              <path id="Trazado_912524" data-name="Trazado 912524" d="M38.576,289.68a13.471,13.471,0,1,1-9.525,3.946A13.383,13.383,0,0,1,38.576,289.68Zm0,25.942a12.471,12.471,0,1,0-12.47-12.471A12.485,12.485,0,0,0,38.576,315.622Z" fill="#4045ab"/>
              <path id="Trazado_912525" data-name="Trazado 912525" d="M72.7,346.9a13.471,13.471,0,1,1,9.526-3.946A13.381,13.381,0,0,1,72.7,346.9Zm0-25.942a12.471,12.471,0,1,0,12.471,12.471A12.485,12.485,0,0,0,72.7,320.962Z" fill="#4045ab"/>
              <path id="Trazado_912526" data-name="Trazado 912526" d="M38.576,350.21a13.471,13.471,0,1,1-9.525,3.946A13.383,13.383,0,0,1,38.576,350.21Zm0,25.942a12.471,12.471,0,1,0-12.47-12.471A12.485,12.485,0,0,0,38.576,376.152Z" fill="#4045ab"/>
              <path id="Línea_647" data-name="Línea 647" d="M13.222,13.3a.5.5,0,0,1-.348-.141L-.348.359A.5.5,0,0,1-.359-.348.5.5,0,0,1,.348-.359l13.222,12.8a.5.5,0,0,1-.348.859Z" transform="translate(48.561 311.642)" fill="#4045ab"/>
              <path id="Línea_648" data-name="Línea 648" d="M0,13.722a.5.5,0,0,1-.359-.152.5.5,0,0,1,.011-.707L13.3-.359a.5.5,0,0,1,.707.011A.5.5,0,0,1,14,.359L.348,13.581A.5.5,0,0,1,0,13.722Z" transform="translate(49.415 342.778)" fill="#4045ab"/>
            </g>
          </g>
          <path id="Trazado_912527" data-name="Trazado 912527" d="M221.188,219.705a.5.5,0,0,1-.276-.083l-25.969-17.2-28.892,11.641a.5.5,0,0,1-.669-.6l8.335-30.014-20-23.88a.5.5,0,0,1,.362-.821L185.2,157.4,201.731,131a.5.5,0,0,1,.892.09l10.9,29.181,30.216,7.564a.5.5,0,0,1,.19.876L219.544,188.1l.794,11.507a.5.5,0,0,1-1,.069l-.812-11.769a.5.5,0,0,1,.188-.426l23.8-18.916-29.488-7.382a.5.5,0,0,1-.347-.31L202.041,132.39l-16.133,25.764a.5.5,0,0,1-.4.234L155.135,159.7l19.518,23.305a.5.5,0,0,1,.1.455l-8.134,29.291,28.2-11.36a.5.5,0,0,1,.463.047l25.343,16.788-.694-10.072a.5.5,0,1,1,1-.069l.764,11.083a.5.5,0,0,1-.5.534Z" fill="#4045ab"/>
          <g id="Grupo_1101344" data-name="Grupo 1101344">
            <g id="Grupo_1101343" data-name="Grupo 1101343" clip-path="url(#clip-path-2)">
              <path id="Trazado_912528" data-name="Trazado 912528" d="M632.565,134.657a.5.5,0,0,1-.474-.34l-5.45-16.124-16.372-4.652a.5.5,0,0,1-.162-.882l13.651-10.166-.636-17.008a.5.5,0,0,1,.789-.427L637.8,94.9l15.979-5.86a.5.5,0,0,1,.649.618l-5.069,16.248,10.512,13.387a.5.5,0,0,1-.387.809l-17.019.2-9.484,14.134A.5.5,0,0,1,632.565,134.657Zm-21.048-21.8,15.651,4.447a.5.5,0,0,1,.337.321l5.21,15.413,9.065-13.511a.5.5,0,0,1,.409-.221l16.269-.191-10.048-12.8a.5.5,0,0,1-.084-.458l4.845-15.532L637.9,95.93a.5.5,0,0,1-.461-.061L624.16,86.46l.608,16.259a.5.5,0,0,1-.2.42Z" fill="#4045ab"/>
            </g>
          </g>
          <path id="Trazado_912529" data-name="Trazado 912529" d="M129.8,161.325a.5.5,0,0,1-.474-.34l-5.45-16.124L107.5,140.209a.5.5,0,0,1-.162-.882l13.651-10.166-.635-17.008a.5.5,0,0,1,.789-.427l13.887,9.842,15.979-5.86a.5.5,0,0,1,.649.618l-5.069,16.248,10.512,13.387a.5.5,0,0,1-.387.809l-17.019.2L130.216,161.1A.5.5,0,0,1,129.8,161.325Zm-21.048-21.8,15.651,4.447a.5.5,0,0,1,.337.321l5.21,15.413,9.066-13.511a.5.5,0,0,1,.409-.221l16.269-.191-10.048-12.8a.5.5,0,0,1-.084-.458L150.407,117l-15.275,5.6a.5.5,0,0,1-.461-.061L121.4,113.128,122,129.386a.5.5,0,0,1-.2.42Z" fill="#4045ab"/>
          <path id="Trazado_912530" data-name="Trazado 912530" d="M236.79,449.136a.5.5,0,0,1-.474-.34l-3.574-10.575-10.737-3.05a.5.5,0,0,1-.162-.882l8.952-6.667-.416-11.154a.5.5,0,0,1,.789-.427l9.107,6.454,10.48-3.844a.5.5,0,0,1,.649.618l-3.325,10.656,6.894,8.779a.5.5,0,0,1-.387.809l-11.161.131-6.22,9.27A.5.5,0,0,1,236.79,449.136Zm-13.537-14.65,10.015,2.845a.5.5,0,0,1,.337.321l3.334,9.864,5.8-8.647a.5.5,0,0,1,.409-.221l10.411-.122-6.43-8.189a.5.5,0,0,1-.084-.458l3.1-9.94-9.776,3.585a.5.5,0,0,1-.461-.061l-8.494-6.02.388,10.4a.5.5,0,0,1-.2.42Z" fill="#4045ab"/>
          <path id="Trazado_912531" data-name="Trazado 912531" d="M14.389,53.018l2.372,7.3h7.675l-6.209,4.512,2.371,7.3-6.209-4.511L8.18,72.128l2.371-7.3L4.342,60.317h7.675Z" fill="#ffbd45"/>
          <path id="Trazado_912532" data-name="Trazado 912532" d="M14.389,52.518a.5.5,0,0,1,.476.345l2.26,6.954h7.312a.5.5,0,0,1,.294.9l-5.915,4.3,2.259,6.954a.5.5,0,0,1-.769.559l-5.915-4.3-5.915,4.3a.5.5,0,0,1-.769-.559L9.963,65.02l-5.915-4.3a.5.5,0,0,1,.294-.9h7.312l2.26-6.954A.5.5,0,0,1,14.389,52.518Zm8.508,8.3H16.761a.5.5,0,0,1-.476-.345l-1.9-5.836-1.9,5.836a.5.5,0,0,1-.476.345H5.881l4.964,3.608a.5.5,0,0,1,.182.559l-1.9,5.836L14.1,67.213a.5.5,0,0,1,.588,0l4.964,3.607-1.9-5.836a.5.5,0,0,1,.182-.559Z" fill="#4045ab"/>
          <path id="Trazado_912533" data-name="Trazado 912533" d="M39.147,53.018l2.372,7.3h7.675l-6.209,4.512,2.371,7.3-6.209-4.511-6.209,4.511,2.371-7.3L29.1,60.317h7.675Z" fill="#ffbd45"/>
          <path id="Trazado_912534" data-name="Trazado 912534" d="M39.147,52.518a.5.5,0,0,1,.476.345l2.26,6.954h7.312a.5.5,0,0,1,.294.9l-5.915,4.3,2.259,6.954a.5.5,0,0,1-.769.559l-5.915-4.3-5.915,4.3a.5.5,0,0,1-.769-.559l2.259-6.954-5.915-4.3a.5.5,0,0,1,.294-.9h7.312l2.26-6.954A.5.5,0,0,1,39.147,52.518Zm8.508,8.3H41.519a.5.5,0,0,1-.476-.345l-1.9-5.836-1.9,5.836a.5.5,0,0,1-.476.345H30.638L35.6,64.425a.5.5,0,0,1,.182.559l-1.9,5.836,4.964-3.607a.5.5,0,0,1,.588,0l4.964,3.607-1.9-5.836a.5.5,0,0,1,.182-.559Z" fill="#4045ab"/>
          <path id="Trazado_912535" data-name="Trazado 912535" d="M63.9,53.018l2.372,7.3h7.675l-6.209,4.512,2.371,7.3L63.9,67.617,57.7,72.128l2.371-7.3-6.209-4.512h7.675Z" fill="#ffbd45"/>
          <path id="Trazado_912536" data-name="Trazado 912536" d="M63.9,52.518a.5.5,0,0,1,.476.345l2.26,6.954h7.312a.5.5,0,0,1,.294.9l-5.915,4.3,2.259,6.954a.5.5,0,0,1-.769.559l-5.915-4.3-5.915,4.3a.5.5,0,0,1-.769-.559l2.259-6.954-5.915-4.3a.5.5,0,0,1,.294-.9h7.312l2.26-6.954A.5.5,0,0,1,63.9,52.518Zm8.508,8.3H66.277a.5.5,0,0,1-.476-.345l-1.9-5.836-1.9,5.836a.5.5,0,0,1-.476.345H55.4l4.964,3.608a.5.5,0,0,1,.182.559l-1.9,5.836,4.964-3.607a.5.5,0,0,1,.588,0l4.964,3.607-1.9-5.836a.5.5,0,0,1,.182-.559Z" fill="#4045ab"/>
          <path id="Trazado_912537" data-name="Trazado 912537" d="M88.662,53.018l2.372,7.3h7.675L92.5,64.829l2.371,7.3-6.209-4.511-6.209,4.511,2.371-7.3-6.209-4.512H86.29Z" fill="#4045ab"/>
          <path id="Trazado_912538" data-name="Trazado 912538" d="M88.662,52.518a.5.5,0,0,1,.476.345l2.26,6.954h7.312a.5.5,0,0,1,.294.9l-5.915,4.3,2.259,6.954a.5.5,0,0,1-.769.559l-5.915-4.3-5.915,4.3a.5.5,0,0,1-.769-.559l2.259-6.954-5.915-4.3a.5.5,0,0,1,.294-.9h7.312l2.26-6.954A.5.5,0,0,1,88.662,52.518Zm8.508,8.3H91.034a.5.5,0,0,1-.476-.345l-1.9-5.836-1.9,5.836a.5.5,0,0,1-.476.345H80.154l4.964,3.608a.5.5,0,0,1,.182.559l-1.9,5.836,4.964-3.607a.5.5,0,0,1,.588,0l4.964,3.607-1.9-5.836a.5.5,0,0,1,.182-.559Z" fill="#4045ab"/>
          <path id="Trazado_912539" data-name="Trazado 912539" d="M113.42,53.018l2.372,7.3h7.675l-6.209,4.512,2.371,7.3-6.209-4.511-6.209,4.511,2.372-7.3-6.21-4.512h7.675Z" fill="#4045ab"/>
          <path id="Trazado_912540" data-name="Trazado 912540" d="M113.42,52.518a.5.5,0,0,1,.476.345l2.26,6.954h7.312a.5.5,0,0,1,.294.9l-5.915,4.3,2.259,6.954a.5.5,0,0,1-.769.559l-5.915-4.3-5.915,4.3a.5.5,0,0,1-.769-.559L109,65.02l-5.916-4.3a.5.5,0,0,1,.294-.9h7.312l2.26-6.954A.5.5,0,0,1,113.42,52.518Zm8.508,8.3h-6.136a.5.5,0,0,1-.476-.345l-1.9-5.836-1.9,5.836a.5.5,0,0,1-.476.345h-6.136l4.965,3.607a.5.5,0,0,1,.182.559l-1.9,5.835,4.964-3.606a.5.5,0,0,1,.588,0l4.964,3.607-1.9-5.836a.5.5,0,0,1,.182-.559Z" fill="#4045ab"/>
          <path id="Trazado_912541" data-name="Trazado 912541" d="M8.484,244.824H.809l6.21,4.511-2.373,7.3,6.21-4.512,6.209,4.512-2.371-7.3,6.209-4.511H13.228l-2.372-7.3Z" fill="#ca7441"/>
          <g id="Grupo_1101346" data-name="Grupo 1101346">
            <g id="Grupo_1101345" data-name="Grupo 1101345" clip-path="url(#clip-path-2)">
              <path id="Trazado_912542" data-name="Trazado 912542" d="M10.856,237.025a.5.5,0,0,1,.476.345l2.26,6.954H20.9a.5.5,0,0,1,.294.9l-5.915,4.3,2.259,6.954a.5.5,0,0,1-.769.559l-5.915-4.3-5.915,4.3a.5.5,0,0,1-.769-.559l2.259-6.954-5.915-4.3a.5.5,0,0,1,.294-.9H8.121l2.26-6.954A.5.5,0,0,1,10.856,237.025Zm8.508,8.3H13.228a.5.5,0,0,1-.476-.345l-1.9-5.836-1.9,5.836a.5.5,0,0,1-.476.345H2.348l4.964,3.608a.5.5,0,0,1,.182.559l-1.9,5.836,4.964-3.607a.5.5,0,0,1,.588,0l4.964,3.607-1.9-5.836a.5.5,0,0,1,.182-.559Z" fill="#4045ab"/>
            </g>
          </g>
          <path id="Trazado_912543" data-name="Trazado 912543" d="M35.614,237.525l2.372,7.3h7.675l-6.209,4.512,2.371,7.3-6.209-4.511-6.209,4.511,2.371-7.3-6.209-4.512h7.675Z" fill="#ca7441"/>
          <path id="Trazado_912544" data-name="Trazado 912544" d="M35.614,237.025a.5.5,0,0,1,.476.345l2.26,6.954h7.312a.5.5,0,0,1,.294.9l-5.915,4.3L42.3,256.48a.5.5,0,0,1-.769.559l-5.915-4.3-5.915,4.3a.5.5,0,0,1-.769-.559l2.259-6.954-5.915-4.3a.5.5,0,0,1,.294-.9h7.312l2.26-6.954A.5.5,0,0,1,35.614,237.025Zm8.508,8.3H37.986a.5.5,0,0,1-.476-.345l-1.9-5.836-1.9,5.836a.5.5,0,0,1-.476.345H27.106l4.964,3.608a.5.5,0,0,1,.182.559l-1.9,5.836,4.964-3.607a.5.5,0,0,1,.588,0l4.964,3.607-1.9-5.836a.5.5,0,0,1,.182-.559Z" fill="#4045ab"/>
          <path id="Trazado_912545" data-name="Trazado 912545" d="M60.372,237.525l2.372,7.3h7.675l-6.209,4.512,2.371,7.3-6.209-4.511-6.209,4.511,2.371-7.3-6.209-4.512H58Z" fill="#4045ab"/>
          <path id="Trazado_912546" data-name="Trazado 912546" d="M60.372,237.025a.5.5,0,0,1,.476.345l2.26,6.954h7.312a.5.5,0,0,1,.294.9l-5.915,4.3,2.259,6.954a.5.5,0,0,1-.769.559l-5.915-4.3-5.915,4.3a.5.5,0,0,1-.769-.559l2.259-6.954-5.915-4.3a.5.5,0,0,1,.294-.9h7.312l2.26-6.954A.5.5,0,0,1,60.372,237.025Zm8.508,8.3H62.744a.5.5,0,0,1-.476-.345l-1.9-5.836-1.9,5.836a.5.5,0,0,1-.476.345H51.863l4.964,3.608a.5.5,0,0,1,.182.559l-1.9,5.836,4.964-3.607a.5.5,0,0,1,.588,0l4.964,3.607-1.9-5.836a.5.5,0,0,1,.182-.559Z" fill="#4045ab"/>
          <path id="Trazado_912547" data-name="Trazado 912547" d="M85.129,237.525l2.372,7.3h7.675l-6.209,4.512,2.371,7.3-6.209-4.511-6.209,4.511,2.372-7.3-6.21-4.512h7.675Z" fill="#4045ab"/>
          <path id="Trazado_912548" data-name="Trazado 912548" d="M85.129,237.025a.5.5,0,0,1,.476.345l2.26,6.954h7.312a.5.5,0,0,1,.294.9l-5.915,4.3,2.259,6.954a.5.5,0,0,1-.769.559l-5.915-4.3-5.915,4.3a.5.5,0,0,1-.769-.559l2.26-6.954-5.916-4.3a.5.5,0,0,1,.294-.9h7.312l2.26-6.954A.5.5,0,0,1,85.129,237.025Zm8.508,8.3H87.5a.5.5,0,0,1-.476-.345l-1.9-5.836-1.9,5.836a.5.5,0,0,1-.476.345H76.621l4.965,3.607a.5.5,0,0,1,.182.559l-1.9,5.835,4.964-3.606a.5.5,0,0,1,.588,0l4.964,3.607-1.9-5.836a.5.5,0,0,1,.182-.559Z" fill="#4045ab"/>
          <path id="Trazado_912549" data-name="Trazado 912549" d="M109.887,237.525l2.372,7.3h7.675l-6.209,4.512,2.371,7.3-6.209-4.511-6.209,4.511,2.371-7.3-6.209-4.512h7.675Z" fill="#4045ab"/>
          <path id="Trazado_912550" data-name="Trazado 912550" d="M109.887,237.025a.5.5,0,0,1,.476.345l2.26,6.954h7.312a.5.5,0,0,1,.294.9l-5.915,4.3,2.259,6.954a.5.5,0,0,1-.769.559l-5.915-4.3-5.915,4.3a.5.5,0,0,1-.769-.559l2.259-6.954-5.915-4.3a.5.5,0,0,1,.294-.9h7.312l2.26-6.954A.5.5,0,0,1,109.887,237.025Zm8.508,8.3h-6.136a.5.5,0,0,1-.476-.345l-1.9-5.836-1.9,5.836a.5.5,0,0,1-.476.345h-6.136l4.964,3.608a.5.5,0,0,1,.182.559l-1.9,5.836,4.964-3.607a.5.5,0,0,1,.588,0l4.964,3.607-1.9-5.836a.5.5,0,0,1,.182-.559Z" fill="#4045ab"/>
          <path id="Trazado_912551" data-name="Trazado 912551" d="M518.911,53.018l2.372,7.3h7.675l-6.209,4.512,2.371,7.3-6.209-4.511L512.7,72.128l2.371-7.3-6.209-4.512h7.675Z" fill="#ffbd45"/>
          <path id="Trazado_912552" data-name="Trazado 912552" d="M518.911,52.518a.5.5,0,0,1,.476.345l2.26,6.954h7.312a.5.5,0,0,1,.294.9l-5.915,4.3,2.259,6.954a.5.5,0,0,1-.769.559l-5.915-4.3L513,72.533a.5.5,0,0,1-.769-.559l2.259-6.954-5.915-4.3a.5.5,0,0,1,.294-.9h7.312l2.26-6.954A.5.5,0,0,1,518.911,52.518Zm8.508,8.3h-6.136a.5.5,0,0,1-.476-.345l-1.9-5.836-1.9,5.836a.5.5,0,0,1-.476.345H510.4l4.964,3.608a.5.5,0,0,1,.182.559l-1.9,5.836,4.964-3.607a.5.5,0,0,1,.588,0l4.964,3.607-1.9-5.836a.5.5,0,0,1,.182-.559Z" fill="#4045ab"/>
          <path id="Trazado_912553" data-name="Trazado 912553" d="M543.668,53.018l2.372,7.3h7.675l-6.209,4.512,2.371,7.3-6.209-4.511-6.209,4.511,2.371-7.3-6.209-4.512H541.3Z" fill="#ffbd45"/>
          <path id="Trazado_912554" data-name="Trazado 912554" d="M543.668,52.518a.5.5,0,0,1,.476.345l2.26,6.954h7.312a.5.5,0,0,1,.294.9l-5.915,4.3,2.259,6.954a.5.5,0,0,1-.769.559l-5.915-4.3-5.915,4.3a.5.5,0,0,1-.769-.559l2.259-6.954-5.915-4.3a.5.5,0,0,1,.294-.9h7.312l2.26-6.954A.5.5,0,0,1,543.668,52.518Zm8.508,8.3H546.04a.5.5,0,0,1-.476-.345l-1.9-5.836-1.9,5.836a.5.5,0,0,1-.476.345H535.16l4.964,3.608a.5.5,0,0,1,.182.559l-1.9,5.836,4.964-3.607a.5.5,0,0,1,.588,0l4.964,3.607-1.9-5.836a.5.5,0,0,1,.182-.559Z" fill="#4045ab"/>
          <path id="Trazado_912555" data-name="Trazado 912555" d="M568.426,53.018l2.372,7.3h7.675l-6.209,4.512,2.371,7.3-6.209-4.511-6.209,4.511,2.371-7.3-6.209-4.512h7.675Z" fill="#ffbd45"/>
          <path id="Trazado_912556" data-name="Trazado 912556" d="M568.426,52.518a.5.5,0,0,1,.476.345l2.26,6.954h7.312a.5.5,0,0,1,.294.9l-5.915,4.3,2.259,6.954a.5.5,0,0,1-.769.559l-5.915-4.3-5.915,4.3a.5.5,0,0,1-.769-.559L564,65.02l-5.915-4.3a.5.5,0,0,1,.294-.9h7.312l2.26-6.954A.5.5,0,0,1,568.426,52.518Zm8.508,8.3H570.8a.5.5,0,0,1-.476-.345l-1.9-5.836-1.9,5.836a.5.5,0,0,1-.476.345h-6.136l4.964,3.608a.5.5,0,0,1,.182.559l-1.9,5.836,4.964-3.607a.5.5,0,0,1,.588,0l4.964,3.607-1.9-5.836a.5.5,0,0,1,.182-.559Z" fill="#4045ab"/>
          <path id="Trazado_912557" data-name="Trazado 912557" d="M593.184,53.018l2.372,7.3h7.675l-6.209,4.512,2.371,7.3-6.209-4.511-6.209,4.511,2.371-7.3-6.209-4.512h7.675Z" fill="#ffbd45"/>
          <path id="Trazado_912558" data-name="Trazado 912558" d="M593.184,52.518a.5.5,0,0,1,.476.345l2.26,6.954h7.312a.5.5,0,0,1,.294.9l-5.915,4.3,2.259,6.954a.5.5,0,0,1-.769.559l-5.915-4.3-5.915,4.3a.5.5,0,0,1-.769-.559l2.259-6.954-5.915-4.3a.5.5,0,0,1,.294-.9h7.312l2.26-6.954A.5.5,0,0,1,593.184,52.518Zm8.508,8.3h-6.136a.5.5,0,0,1-.476-.345l-1.9-5.836-1.9,5.836a.5.5,0,0,1-.476.345h-6.136l4.964,3.608a.5.5,0,0,1,.182.559l-1.9,5.836,4.964-3.607a.5.5,0,0,1,.588,0l4.964,3.607-1.9-5.836a.5.5,0,0,1,.182-.559Z" fill="#4045ab"/>
          <path id="Trazado_912559" data-name="Trazado 912559" d="M617.941,53.018l2.372,7.3h7.675l-6.209,4.512,2.371,7.3-6.209-4.511-6.209,4.511,2.371-7.3-6.209-4.512h7.675Z" fill="#ffbd45"/>
          <path id="Trazado_912560" data-name="Trazado 912560" d="M617.941,52.518a.5.5,0,0,1,.476.345l2.26,6.954h7.312a.5.5,0,0,1,.294.9l-5.915,4.3,2.259,6.954a.5.5,0,0,1-.769.559l-5.915-4.3-5.915,4.3a.5.5,0,0,1-.769-.559l2.259-6.954-5.915-4.3a.5.5,0,0,1,.294-.9h7.312l2.26-6.954A.5.5,0,0,1,617.941,52.518Zm8.508,8.3h-6.136a.5.5,0,0,1-.476-.345l-1.9-5.836-1.9,5.836a.5.5,0,0,1-.476.345h-6.136l4.964,3.608a.5.5,0,0,1,.182.559l-1.9,5.836,4.964-3.607a.5.5,0,0,1,.588,0l4.964,3.607-1.9-5.836a.5.5,0,0,1,.182-.559Z" fill="#4045ab"/>
          <path id="Trazado_912561" data-name="Trazado 912561" d="M543.176,275.6l2.372,7.3h7.675l-6.209,4.512,2.371,7.3-6.209-4.511-6.209,4.511,2.371-7.3-6.209-4.512H540.8Z" fill="#ca7441"/>
          <path id="Trazado_912562" data-name="Trazado 912562" d="M543.176,275.1a.5.5,0,0,1,.476.345l2.26,6.954h7.312a.5.5,0,0,1,.294.9l-5.915,4.3,2.259,6.954a.5.5,0,0,1-.769.559l-5.915-4.3-5.915,4.3a.5.5,0,0,1-.769-.559l2.259-6.954-5.915-4.3a.5.5,0,0,1,.294-.9h7.312l2.26-6.954A.5.5,0,0,1,543.176,275.1Zm8.508,8.3h-6.136a.5.5,0,0,1-.476-.345l-1.9-5.836-1.9,5.836a.5.5,0,0,1-.476.345h-6.136l4.964,3.608a.5.5,0,0,1,.182.559l-1.9,5.836,4.964-3.607a.5.5,0,0,1,.588,0l4.964,3.607-1.9-5.836a.5.5,0,0,1,.182-.559Z" fill="#4045ab"/>
          <path id="Trazado_912563" data-name="Trazado 912563" d="M567.934,275.6l2.372,7.3h7.675l-6.209,4.512,2.371,7.3-6.209-4.511-6.209,4.511,2.371-7.3-6.209-4.512h7.675Z" fill="#ca7441"/>
          <path id="Trazado_912564" data-name="Trazado 912564" d="M567.934,275.1a.5.5,0,0,1,.476.345l2.26,6.954h7.312a.5.5,0,0,1,.294.9l-5.915,4.3,2.259,6.954a.5.5,0,0,1-.769.559l-5.915-4.3-5.915,4.3a.5.5,0,0,1-.769-.559l2.259-6.954-5.915-4.3a.5.5,0,0,1,.294-.9H565.2l2.26-6.954A.5.5,0,0,1,567.934,275.1Zm8.508,8.3h-6.136a.5.5,0,0,1-.476-.345l-1.9-5.836-1.9,5.836a.5.5,0,0,1-.476.345h-6.136l4.964,3.608a.5.5,0,0,1,.182.559l-1.9,5.836,4.964-3.607a.5.5,0,0,1,.588,0l4.964,3.607-1.9-5.836a.5.5,0,0,1,.182-.559Z" fill="#4045ab"/>
          <path id="Trazado_912565" data-name="Trazado 912565" d="M592.692,275.6l2.372,7.3h7.675l-6.21,4.512,2.372,7.3-6.209-4.511-6.209,4.511,2.371-7.3-6.209-4.512h7.675Z" fill="#4045ab"/>
          <path id="Trazado_912566" data-name="Trazado 912566" d="M592.692,275.1a.5.5,0,0,1,.476.345l2.26,6.954h7.312a.5.5,0,0,1,.294.9l-5.916,4.3,2.26,6.954a.5.5,0,0,1-.769.559l-5.915-4.3-5.915,4.3a.5.5,0,0,1-.769-.559l2.259-6.954-5.915-4.3a.5.5,0,0,1,.294-.9h7.312l2.26-6.954A.5.5,0,0,1,592.692,275.1Zm8.508,8.3h-6.136a.5.5,0,0,1-.476-.345l-1.9-5.836-1.9,5.836a.5.5,0,0,1-.476.345h-6.136l4.964,3.608a.5.5,0,0,1,.182.559l-1.9,5.836L592.4,289.8a.5.5,0,0,1,.588,0l4.964,3.606-1.9-5.835a.5.5,0,0,1,.182-.559Z" fill="#4045ab"/>
          <path id="Trazado_912567" data-name="Trazado 912567" d="M617.449,275.6l2.372,7.3H627.5l-6.209,4.512,2.371,7.3-6.209-4.511-6.209,4.511,2.372-7.3L607.4,282.9h7.675Z" fill="#4045ab"/>
          <path id="Trazado_912568" data-name="Trazado 912568" d="M617.449,275.1a.5.5,0,0,1,.476.345l2.26,6.954H627.5a.5.5,0,0,1,.294.9l-5.915,4.3,2.259,6.954a.5.5,0,0,1-.769.559l-5.915-4.3-5.915,4.3a.5.5,0,0,1-.769-.559l2.26-6.954-5.916-4.3a.5.5,0,0,1,.294-.9h7.312l2.26-6.954A.5.5,0,0,1,617.449,275.1Zm8.508,8.3h-6.136a.5.5,0,0,1-.476-.345l-1.9-5.836-1.9,5.836a.5.5,0,0,1-.476.345h-6.136l4.965,3.607a.5.5,0,0,1,.182.559l-1.9,5.835,4.964-3.606a.5.5,0,0,1,.588,0l4.964,3.607-1.9-5.836a.5.5,0,0,1,.182-.559Z" fill="#4045ab"/>
          <path id="Trazado_912569" data-name="Trazado 912569" d="M642.207,275.6l2.372,7.3h7.675l-6.209,4.512,2.371,7.3-6.209-4.511L636,294.714l2.372-7.3-6.21-4.512h7.675Z" fill="#4045ab"/>
          <path id="Trazado_912570" data-name="Trazado 912570" d="M642.207,275.1a.5.5,0,0,1,.476.345l2.26,6.954h7.312a.5.5,0,0,1,.294.9l-5.915,4.3,2.259,6.954a.5.5,0,0,1-.769.559l-5.915-4.3-5.915,4.3a.5.5,0,0,1-.769-.559l2.26-6.954-5.916-4.3a.5.5,0,0,1,.294-.9h7.312l2.26-6.954A.5.5,0,0,1,642.207,275.1Zm8.508,8.3h-6.136a.5.5,0,0,1-.476-.345l-1.9-5.836-1.9,5.836a.5.5,0,0,1-.476.345H633.7l4.965,3.607a.5.5,0,0,1,.182.559l-1.9,5.835,4.964-3.606a.5.5,0,0,1,.588,0l4.964,3.607-1.9-5.836a.5.5,0,0,1,.182-.559Z" fill="#4045ab"/>
          <path id="Trazado_912571" data-name="Trazado 912571" d="M270.251,100.047l2.372,7.3H280.3l-6.209,4.512,2.371,7.3-6.209-4.511-6.209,4.511,2.371-7.3-6.209-4.512h7.675Z" fill="#ffbd45"/>
          <path id="Trazado_912572" data-name="Trazado 912572" d="M270.251,99.547a.5.5,0,0,1,.476.345l2.26,6.954H280.3a.5.5,0,0,1,.294.9l-5.915,4.3L276.935,119a.5.5,0,0,1-.769.559l-5.915-4.3-5.915,4.3a.5.5,0,0,1-.769-.559l2.259-6.954-5.915-4.3a.5.5,0,0,1,.294-.9h7.312l2.26-6.954A.5.5,0,0,1,270.251,99.547Zm8.508,8.3h-6.136a.5.5,0,0,1-.476-.345l-1.9-5.836-1.9,5.836a.5.5,0,0,1-.476.345h-6.136l4.964,3.608a.5.5,0,0,1,.182.559l-1.9,5.836,4.964-3.607a.5.5,0,0,1,.588,0l4.964,3.607-1.9-5.836a.5.5,0,0,1,.182-.559Z" fill="#4045ab"/>
          <path id="Trazado_912573" data-name="Trazado 912573" d="M295.008,100.047l2.372,7.3h7.675l-6.21,4.512,2.372,7.3-6.209-4.511-6.209,4.511,2.371-7.3-6.209-4.512h7.675Z" fill="#ffbd45"/>
          <path id="Trazado_912574" data-name="Trazado 912574" d="M295.008,99.547a.5.5,0,0,1,.476.345l2.26,6.954h7.312a.5.5,0,0,1,.294.9l-5.916,4.3,2.26,6.954a.5.5,0,0,1-.769.559l-5.915-4.3-5.915,4.3a.5.5,0,0,1-.769-.559l2.259-6.954-5.915-4.3a.5.5,0,0,1,.294-.9h7.312l2.26-6.954A.5.5,0,0,1,295.008,99.547Zm8.508,8.3H297.38a.5.5,0,0,1-.476-.345l-1.9-5.836-1.9,5.836a.5.5,0,0,1-.476.345H286.5l4.964,3.608a.5.5,0,0,1,.182.559l-1.9,5.836,4.964-3.607a.5.5,0,0,1,.588,0l4.964,3.606-1.9-5.835a.5.5,0,0,1,.182-.559Z" fill="#4045ab"/>
          <path id="Trazado_912575" data-name="Trazado 912575" d="M319.766,100.047l2.372,7.3h7.675l-6.209,4.512,2.371,7.3-6.209-4.511-6.209,4.511,2.372-7.3-6.21-4.512h7.675Z" fill="#ffbd45"/>
          <path id="Trazado_912576" data-name="Trazado 912576" d="M319.766,99.547a.5.5,0,0,1,.476.345l2.26,6.954h7.312a.5.5,0,0,1,.294.9l-5.915,4.3L326.451,119a.5.5,0,0,1-.769.559l-5.915-4.3-5.915,4.3a.5.5,0,0,1-.769-.559l2.26-6.954-5.916-4.3a.5.5,0,0,1,.294-.9h7.312l2.26-6.954A.5.5,0,0,1,319.766,99.547Zm8.508,8.3h-6.136a.5.5,0,0,1-.476-.345l-1.9-5.836-1.9,5.836a.5.5,0,0,1-.476.345h-6.136l4.965,3.607a.5.5,0,0,1,.182.559l-1.9,5.835,4.964-3.606a.5.5,0,0,1,.588,0l4.964,3.607-1.9-5.836a.5.5,0,0,1,.182-.559Z" fill="#4045ab"/>
          <path id="Trazado_912577" data-name="Trazado 912577" d="M344.524,100.047l2.372,7.3h7.675l-6.209,4.512,2.371,7.3-6.209-4.511-6.209,4.511,2.372-7.3-6.21-4.512h7.675Z" fill="#ffbd45"/>
          <path id="Trazado_912578" data-name="Trazado 912578" d="M344.524,99.547a.5.5,0,0,1,.476.345l2.26,6.954h7.312a.5.5,0,0,1,.294.9l-5.915,4.3L351.208,119a.5.5,0,0,1-.769.559l-5.915-4.3-5.915,4.3a.5.5,0,0,1-.769-.559l2.26-6.954-5.916-4.3a.5.5,0,0,1,.294-.9h7.312l2.26-6.954A.5.5,0,0,1,344.524,99.547Zm8.508,8.3H346.9a.5.5,0,0,1-.476-.345l-1.9-5.836-1.9,5.836a.5.5,0,0,1-.476.345h-6.136l4.965,3.607a.5.5,0,0,1,.182.559l-1.9,5.835,4.964-3.606a.5.5,0,0,1,.588,0l4.964,3.607-1.9-5.836a.5.5,0,0,1,.182-.559Z" fill="#4045ab"/>
          <path id="Trazado_912579" data-name="Trazado 912579" d="M369.281,100.047l2.372,7.3h7.675l-6.209,4.512,2.371,7.3-6.209-4.511-6.209,4.511,2.371-7.3-6.209-4.512h7.675Z" fill="#4045ab"/>
          <path id="Trazado_912580" data-name="Trazado 912580" d="M369.281,99.547a.5.5,0,0,1,.476.345l2.26,6.954h7.312a.5.5,0,0,1,.294.9l-5.915,4.3L375.966,119a.5.5,0,0,1-.769.559l-5.915-4.3-5.915,4.3A.5.5,0,0,1,362.6,119l2.259-6.954-5.915-4.3a.5.5,0,0,1,.294-.9h7.312l2.26-6.954A.5.5,0,0,1,369.281,99.547Zm8.508,8.3h-6.136a.5.5,0,0,1-.476-.345l-1.9-5.836-1.9,5.836a.5.5,0,0,1-.476.345h-6.136l4.964,3.608a.5.5,0,0,1,.182.559l-1.9,5.836,4.964-3.607a.5.5,0,0,1,.588,0l4.964,3.607-1.9-5.836a.5.5,0,0,1,.182-.559Z" fill="#4045ab"/>
          <g id="Grupo_1101348" data-name="Grupo 1101348">
            <g id="Grupo_1101354" data-name="Grupo 1101354">
              <path id="Trazado_912581" data-name="Trazado 912581" d="M381.971,220.4a66.163,66.163,0,1,1-45.049-82.01,66.162,66.162,0,0,1,45.049,82.01" fill="#4045ab"/>
              <path id="Trazado_912582" data-name="Trazado 912582" d="M318.472,268.6a66.753,66.753,0,1,1,20.992-3.413A66.755,66.755,0,0,1,318.472,268.6Zm-.061-132.36a65.716,65.716,0,1,0,18.371,2.63A65.983,65.983,0,0,0,318.412,136.237Z" fill="#4045ab"/>
              <path id="Trazado_912583" data-name="Trazado 912583" d="M375.848,218.616a59.785,59.785,0,1,1-40.707-74.1,59.786,59.786,0,0,1,40.707,74.1" fill="#ffbd45"/>
              <path id="Trazado_912584" data-name="Trazado 912584" d="M318.469,262.218a60.368,60.368,0,1,1,18.984-3.086A60.371,60.371,0,0,1,318.469,262.218Zm-.053-119.6a59.3,59.3,0,1,0,56.952,75.86,59.333,59.333,0,0,0-56.952-75.86Z" fill="#4045ab"/>
              <path id="Trazado_912585" data-name="Trazado 912585" d="M286.77,205.136a29.923,29.923,0,0,0,56.675,16.487Z" fill="#fff"/>
              <path id="Trazado_912586" data-name="Trazado 912586" d="M286.77,203.636a1.5,1.5,0,0,1,.419.06l56.675,16.487a1.5,1.5,0,0,1,.932,2.091,31.424,31.424,0,0,1-59.516-17.313,1.5,1.5,0,0,1,1.49-1.325Zm54.5,18.916-53.163-15.465a28.42,28.42,0,0,0,53.163,15.465Z" fill="#4045ab"/>
              <path id="Trazado_912587" data-name="Trazado 912587" d="M308.092,188.71c-1.634,5.618-6.444,9.159-10.744,7.909s-6.459-6.819-4.825-12.438,6.445-9.159,10.744-7.909,6.459,6.82,4.825,12.438" fill="#4045ab"/>
              <path id="Trazado_912588" data-name="Trazado 912588" d="M299.117,197.37a6.835,6.835,0,0,1-1.909-.271,7.732,7.732,0,0,1-4.964-4.88,12.852,12.852,0,0,1-.2-8.177,13.29,13.29,0,0,1,3.747-6.133,8.676,8.676,0,0,1,5.709-2.387,6.832,6.832,0,0,1,1.908.271,7.732,7.732,0,0,1,4.964,4.881,12.851,12.851,0,0,1,.2,8.177,13.29,13.29,0,0,1-3.746,6.133A8.675,8.675,0,0,1,299.117,197.37Zm2.381-20.849c-3.608,0-7.181,3.28-8.5,7.8-1.554,5.345.458,10.646,4.485,11.818a5.835,5.835,0,0,0,1.629.231c3.608,0,7.18-3.28,8.495-7.8,1.555-5.345-.457-10.646-4.485-11.818A5.832,5.832,0,0,0,301.5,176.521Z" fill="#4045ab"/>
              <path id="Trazado_912589" data-name="Trazado 912589" d="M349.829,200.851c-1.634,5.618-6.444,9.159-10.744,7.909s-6.459-6.819-4.825-12.438,6.445-9.159,10.744-7.909,6.459,6.82,4.825,12.438" fill="#4045ab"/>
              <path id="Trazado_912590" data-name="Trazado 912590" d="M340.854,209.511a6.835,6.835,0,0,1-1.909-.271,7.732,7.732,0,0,1-4.964-4.88,12.852,12.852,0,0,1-.2-8.177,13.29,13.29,0,0,1,3.747-6.133,8.675,8.675,0,0,1,5.709-2.387,6.832,6.832,0,0,1,1.908.271,7.732,7.732,0,0,1,4.964,4.881,12.851,12.851,0,0,1,.2,8.177,13.29,13.29,0,0,1-3.746,6.133A8.675,8.675,0,0,1,340.854,209.511Zm2.381-20.849c-3.608,0-7.181,3.28-8.5,7.8-1.554,5.345.458,10.646,4.485,11.818a5.835,5.835,0,0,0,1.629.231c3.608,0,7.18-3.28,8.495-7.8,1.555-5.345-.457-10.646-4.485-11.818A5.832,5.832,0,0,0,343.235,188.662Z" fill="#4045ab"/>
              <path id="Trazado_912591" data-name="Trazado 912591" d="M494.409,69.538A55.485,55.485,0,1,1,449.687,5.063a55.485,55.485,0,0,1,44.722,64.475" fill="#4045ab"/>
              <path id="Trazado_912592" data-name="Trazado 912592" d="M439.874,115.656a56.5,56.5,0,0,1-10.029-.9,55.726,55.726,0,0,1-29.1-14.981A56.148,56.148,0,0,1,385.17,71.922,56,56,0,0,1,439.746,3.667a56.5,56.5,0,0,1,10.03.9,55.727,55.727,0,0,1,29.1,14.981A56.146,56.146,0,0,1,494.451,47.4a56,56,0,0,1-54.577,68.256ZM439.746,4.667a54.99,54.99,0,0,0-9.723,109.1,55.5,55.5,0,0,0,9.851.888A54.99,54.99,0,0,0,449.6,5.555,55.494,55.494,0,0,0,439.746,4.667Z" fill="#4045ab"/>
              <path id="Trazado_912593" data-name="Trazado 912593" d="M489.251,68.605a50.243,50.243,0,1,1-40.5-58.384,50.244,50.244,0,0,1,40.5,58.384" fill="#ffbd45"/>
              <path id="Trazado_912594" data-name="Trazado 912594" d="M439.868,110.413a51.207,51.207,0,0,1-9.09-.819,50.753,50.753,0,0,1-8.35-97.614,50.3,50.3,0,0,1,17.324-3.07,51.205,51.205,0,0,1,9.091.819,50.752,50.752,0,0,1,8.349,97.614A50.3,50.3,0,0,1,439.868,110.413Zm-.116-100.5a49.748,49.748,0,0,0-8.8,98.7,50.2,50.2,0,0,0,8.912.8,49.747,49.747,0,0,0,8.8-98.7A50.2,50.2,0,0,0,439.752,9.91Z" fill="#4045ab"/>
              <path id="Trazado_912595" data-name="Trazado 912595" d="M414.247,61.643a25.147,25.147,0,0,0,48.812,8.83Z" fill="#fff"/>
              <path id="Trazado_912596" data-name="Trazado 912596" d="M414.247,60.143a1.5,1.5,0,0,1,.267.024L463.326,69a1.5,1.5,0,0,1,1.145,1.983,26.649,26.649,0,0,1-51.723-9.357,1.5,1.5,0,0,1,1.5-1.481Zm46.734,11.478L415.79,63.446a23.575,23.575,0,0,0,19.393,21.8,23.614,23.614,0,0,0,25.8-13.622Z" fill="#4045ab"/>
              <path id="Trazado_912597" data-name="Trazado 912597" d="M414.156,54.214a2,2,0,0,1-.638-3.9l10.251-3.451-8.1-7.811a2,2,0,0,1,2.776-2.88l10.475,10.1a2,2,0,0,1-.75,3.336l-13.372,4.5A2,2,0,0,1,414.156,54.214Z" fill="#4045ab"/>
              <path id="Trazado_912598" data-name="Trazado 912598" d="M466.021,63.6a1.992,1.992,0,0,1-1.26-.448l-10.948-8.9a2,2,0,0,1,.466-3.387l13.348-5.786a2,2,0,0,1,1.591,3.67l-10.327,4.476,8.393,6.823a2,2,0,0,1-1.263,3.552Z" fill="#4045ab"/>
              <path id="Trazado_912599" data-name="Trazado 912599" d="M107.5,151.385a55.618,55.618,0,1,1-72.687-30.056A55.619,55.619,0,0,1,107.5,151.385" fill="#4045ab"/>
              <path id="Trazado_912600" data-name="Trazado 912600" d="M56.111,116.568a56.306,56.306,0,1,1-21.485,4.3A56.059,56.059,0,0,1,56.111,116.568Zm.044,111.265a55.133,55.133,0,1,0-50.932-34.01A54.8,54.8,0,0,0,56.155,227.833Z" fill="#4045ab"/>
              <path id="Trazado_912601" data-name="Trazado 912601" d="M102.539,153.445a50.243,50.243,0,1,1-65.662-27.152,50.243,50.243,0,0,1,65.662,27.152" fill="#ee4f47"/>
              <path id="Trazado_912602" data-name="Trazado 912602" d="M56.112,121.944a50.91,50.91,0,1,1-19.427,3.887A50.689,50.689,0,0,1,56.112,121.944Zm.04,100.512a49.752,49.752,0,1,0-45.966-30.693A49.451,49.451,0,0,0,56.152,222.456Z" fill="#4045ab"/>
              <path id="Trazado_912603" data-name="Trazado 912603" d="M45.114,212.364a1.5,1.5,0,0,1-1.46-1.162A26.648,26.648,0,0,1,92.2,191.058a1.5,1.5,0,1,1-2.543,1.592,23.647,23.647,0,0,0-43.084,17.876,1.5,1.5,0,0,1-1.463,1.838Z" fill="#4045ab"/>
              <path id="Trazado_912604" data-name="Trazado 912604" d="M42.4,169.489c1.885,4.542.6,9.393-2.881,10.835s-7.82-1.071-9.7-5.613-.595-9.393,2.881-10.835,7.821,1.071,9.705,5.613" fill="#4045ab"/>
              <path id="Trazado_912605" data-name="Trazado 912605" d="M34.763,162.969a7.657,7.657,0,0,1,4.673,1.737,11.233,11.233,0,0,1,3.428,4.591,10.877,10.877,0,0,1,.591,6.9,6.575,6.575,0,0,1-3.742,4.588,5.858,5.858,0,0,1-2.257.445,7.656,7.656,0,0,1-4.673-1.737,11.238,11.238,0,0,1-3.429-4.591,10.881,10.881,0,0,1-.591-6.9,6.575,6.575,0,0,1,3.742-4.588A5.858,5.858,0,0,1,34.763,162.969Zm2.693,17.262a4.863,4.863,0,0,0,1.874-.369,5.6,5.6,0,0,0,3.159-3.922,9.874,9.874,0,0,0-.548-6.26c-1.417-3.416-4.3-5.711-7.178-5.711a4.863,4.863,0,0,0-1.874.369c-3.215,1.334-4.386,5.9-2.611,10.182C31.7,177.936,34.58,180.231,37.456,180.231Z" fill="#4045ab"/>
              <path id="Trazado_912606" data-name="Trazado 912606" d="M76.143,155.49c1.885,4.542.6,9.393-2.881,10.835s-7.82-1.071-9.705-5.613-.595-9.393,2.881-10.835,7.821,1.071,9.7,5.613" fill="#4045ab"/>
              <path id="Trazado_912607" data-name="Trazado 912607" d="M68.5,148.97a7.657,7.657,0,0,1,4.673,1.737A11.233,11.233,0,0,1,76.6,155.3a10.877,10.877,0,0,1,.591,6.9,6.575,6.575,0,0,1-3.742,4.588,5.858,5.858,0,0,1-2.257.445,7.656,7.656,0,0,1-4.673-1.737A11.238,11.238,0,0,1,63.1,160.9,10.881,10.881,0,0,1,62.5,154a6.575,6.575,0,0,1,3.742-4.588A5.858,5.858,0,0,1,68.5,148.97ZM71.2,166.232a4.863,4.863,0,0,0,1.874-.369,5.6,5.6,0,0,0,3.159-3.922,9.874,9.874,0,0,0-.548-6.26c-1.417-3.416-4.3-5.712-7.178-5.712a4.863,4.863,0,0,0-1.874.369c-3.215,1.334-4.386,5.9-2.611,10.182C65.437,163.937,68.321,166.232,71.2,166.232Z" fill="#4045ab"/>
              <path id="Trazado_912608" data-name="Trazado 912608" d="M250.156,71.122a57.261,57.261,0,1,1-52.69-61.494,57.262,57.262,0,0,1,52.69,61.494" fill="#4045ab"/>
              <path id="Trazado_912609" data-name="Trazado 912609" d="M193.125,124.484c-1.492,0-3.007-.058-4.5-.174a57.493,57.493,0,0,1-31.441-12.319,57.929,57.929,0,0,1-18.911-26.946A57.782,57.782,0,0,1,193,8.956c1.492,0,3.007.058,4.5.174a57.493,57.493,0,0,1,31.441,12.319,57.929,57.929,0,0,1,18.911,26.946,57.782,57.782,0,0,1-54.731,76.09ZM193,9.956a56.994,56.994,0,0,0-56.532,52.4,56.762,56.762,0,0,0,52.23,60.957c1.47.113,2.958.171,4.425.171a56.763,56.763,0,0,0,4.3-113.358C195.958,10.013,194.469,9.956,193,9.956Z" fill="#4045ab"/>
              <path id="Trazado_912610" data-name="Trazado 912610" d="M243.158,70.582a50.243,50.243,0,1,1-46.232-53.957,50.243,50.243,0,0,1,46.232,53.957" fill="#fff"/>
              <path id="Trazado_912611" data-name="Trazado 912611" d="M193.117,117.465c-1.311,0-2.641-.051-3.955-.153A50.745,50.745,0,0,1,193.01,15.974c1.311,0,2.641.051,3.955.153a50.745,50.745,0,0,1-3.847,101.339ZM193.01,16.974A49.946,49.946,0,0,0,143.469,62.9a49.742,49.742,0,0,0,45.771,53.42c1.288.1,2.593.15,3.878.15a49.744,49.744,0,0,0,3.77-99.342C195.6,17.024,194.3,16.974,193.01,16.974Z" fill="#4045ab"/>
              <path id="Trazado_912612" data-name="Trazado 912612" d="M182.279,57.636c-.378,4.9-3.726,8.643-7.477,8.354s-6.487-4.5-6.109-9.4,3.726-8.643,7.477-8.354,6.487,4.5,6.109,9.4" fill="#4045ab"/>
              <path id="Trazado_912613" data-name="Trazado 912613" d="M175.209,66.506c-.148,0-.3-.006-.446-.017a6.577,6.577,0,0,1-4.984-3.2,11.449,11.449,0,0,1,.86-12.982,6.76,6.76,0,0,1,5.123-2.59c.148,0,.3.006.446.017a6.575,6.575,0,0,1,4.984,3.2,11.45,11.45,0,0,1-.86,12.983A6.76,6.76,0,0,1,175.209,66.506Zm.554-17.786c-3.343,0-6.229,3.474-6.571,7.908-.356,4.619,2.178,8.6,5.649,8.864.122.009.246.014.369.014,3.343,0,6.229-3.474,6.571-7.908a9.876,9.876,0,0,0-1.426-6.12,5.6,5.6,0,0,0-4.222-2.744C176.009,48.724,175.885,48.719,175.763,48.719Z" fill="#4045ab"/>
              <path id="Trazado_912614" data-name="Trazado 912614" d="M218.7,60.445c-.378,4.9-3.726,8.643-7.477,8.354s-6.487-4.5-6.109-9.4,3.726-8.643,7.477-8.354,6.487,4.5,6.109,9.4" fill="#4045ab"/>
              <path id="Trazado_912615" data-name="Trazado 912615" d="M211.63,69.315c-.148,0-.3-.006-.446-.017a6.577,6.577,0,0,1-4.984-3.2,11.449,11.449,0,0,1,.86-12.982,6.76,6.76,0,0,1,5.123-2.59c.148,0,.3.006.446.017a6.575,6.575,0,0,1,4.984,3.2,11.45,11.45,0,0,1-.86,12.983A6.76,6.76,0,0,1,211.63,69.315Zm.554-17.786c-3.343,0-6.229,3.474-6.571,7.908-.356,4.619,2.178,8.6,5.649,8.864.122.009.246.014.369.014,3.343,0,6.229-3.474,6.571-7.908a9.876,9.876,0,0,0-1.426-6.12,5.6,5.6,0,0,0-4.222-2.744C212.43,51.533,212.306,51.528,212.184,51.528Z" fill="#4045ab"/>
              <path id="Línea_649" data-name="Línea 649" d="M48.6,5.247q-.058,0-.117,0L-.115,1.5A1.5,1.5,0,0,1-1.5-.115,1.5,1.5,0,0,1,.115-1.5l48.6,3.747a1.5,1.5,0,0,1-.114,3Z" transform="translate(168.993 80.744)" fill="#4045ab"/>
              <path id="Trazado_912616" data-name="Trazado 912616" d="M654.47,202.889A64.785,64.785,0,1,1,589.685,138.1a64.785,64.785,0,0,1,64.785,64.785" fill="#4045ab"/>
              <path id="Elipse_11576" data-name="Elipse 11576" d="M64.785-.5a64.982,64.982,0,0,1,36.5,11.15,65.474,65.474,0,0,1,23.653,28.723,65.2,65.2,0,0,1-6.019,61.914A65.474,65.474,0,0,1,90.2,124.939a65.2,65.2,0,0,1-61.914-6.019A65.474,65.474,0,0,1,4.631,90.2,65.2,65.2,0,0,1,10.65,28.283,65.474,65.474,0,0,1,39.373,4.631,64.877,64.877,0,0,1,64.785-.5Zm0,129.57A64.285,64.285,0,1,0,.5,64.785,64.358,64.358,0,0,0,64.785,129.07Z" transform="translate(524.9 138.104)" fill="#4045ab"/>
              <path id="Trazado_912617" data-name="Trazado 912617" d="M648.09,202.889a58.4,58.4,0,1,1-58.405-58.405,58.405,58.405,0,0,1,58.405,58.405" fill="#ee4f47"/>
              <path id="Trazado_912618" data-name="Trazado 912618" d="M589.685,143.984a58.633,58.633,0,0,1,32.935,10.06,59.077,59.077,0,0,1,21.341,25.916,58.827,58.827,0,0,1-5.431,55.863,59.076,59.076,0,0,1-25.916,21.341,58.827,58.827,0,0,1-55.863-5.431,59.075,59.075,0,0,1-21.341-25.916,58.829,58.829,0,0,1,5.431-55.863,59.074,59.074,0,0,1,25.916-21.341A58.535,58.535,0,0,1,589.685,143.984Zm0,116.81a57.9,57.9,0,1,0-57.9-57.9A57.971,57.971,0,0,0,589.685,260.794Z" fill="#4045ab"/>
              <path id="Trazado_912619" data-name="Trazado 912619" d="M560.856,240.456a1.5,1.5,0,0,1-1.481-1.748,30.734,30.734,0,0,1,60.621,0,1.5,1.5,0,1,1-2.959.5,27.732,27.732,0,0,0-54.7,0A1.5,1.5,0,0,1,560.856,240.456Z" fill="#4045ab"/>
              <path id="Trazado_912620" data-name="Trazado 912620" d="M576.373,193.325c0,5.716-3.546,10.35-7.92,10.35s-7.92-4.634-7.92-10.35,3.546-10.35,7.92-10.35,7.92,4.634,7.92,10.35" fill="#4045ab"/>
              <path id="Elipse_11577" data-name="Elipse 11577" d="M7.92-.5a7.564,7.564,0,0,1,6,3.228A12.564,12.564,0,0,1,16.34,10.35a12.564,12.564,0,0,1-2.423,7.622,7.564,7.564,0,0,1-6,3.228,7.564,7.564,0,0,1-6-3.228A12.564,12.564,0,0,1-.5,10.35,12.564,12.564,0,0,1,1.923,2.728,7.564,7.564,0,0,1,7.92-.5Zm0,20.7c4.091,0,7.42-4.419,7.42-9.85S12.011.5,7.92.5.5,4.919.5,10.35,3.829,20.2,7.92,20.2Z" transform="translate(560.533 182.975)" fill="#4045ab"/>
              <path id="Trazado_912621" data-name="Trazado 912621" d="M618.837,193.325c0,5.716-3.546,10.35-7.92,10.35s-7.92-4.634-7.92-10.35,3.546-10.35,7.92-10.35,7.92,4.634,7.92,10.35" fill="#4045ab"/>
              <path id="Elipse_11578" data-name="Elipse 11578" d="M7.92-.5a7.564,7.564,0,0,1,6,3.228A12.564,12.564,0,0,1,16.34,10.35a12.564,12.564,0,0,1-2.423,7.622,7.564,7.564,0,0,1-6,3.228,7.564,7.564,0,0,1-6-3.228A12.564,12.564,0,0,1-.5,10.35,12.564,12.564,0,0,1,1.923,2.728,7.564,7.564,0,0,1,7.92-.5Zm0,20.7c4.091,0,7.42-4.419,7.42-9.85S12.011.5,7.92.5.5,4.919.5,10.35,3.829,20.2,7.92,20.2Z" transform="translate(602.997 182.975)" fill="#4045ab"/>
              <path id="Trazado_912622" data-name="Trazado 912622" d="M557.558,180.967,582.2,194.04h16.09l25.643-12.57" fill="#ee4f47"/>
            </g>
          </g>
          <g id="Grupo_1101350" data-name="Grupo 1101350">
            <g id="Grupo_1101349" data-name="Grupo 1101349" clip-path="url(#clip-path)">
              <path id="Trazado_912623" data-name="Trazado 912623" d="M535.009,442.956s1.034,15.336-.172,18.437-5.514,7.926-8.1,6.893-1.895-7.065-1.895-11.2-1.034-10.338-1.034-11.372,11.2-2.757,11.2-2.757" fill="#fff"/>
              <path id="Trazado_912624" data-name="Trazado 912624" d="M535.009,442.456a.5.5,0,0,1,.5.466c.042.631,1.027,15.484-.2,18.652-1.151,2.961-4.932,7.354-7.8,7.354a2.562,2.562,0,0,1-.955-.178c-1.14-.456-1.834-1.692-2.12-3.778a37,37,0,0,1-.129-5.672c.021-.783.04-1.523.04-2.216a79.678,79.678,0,0,0-.762-8.821c-.158-1.263-.272-2.175-.272-2.551,0-.539.552-.892,2.11-1.347.943-.276,2.252-.582,3.892-.91,2.779-.556,5.594-.99,5.622-.995A.5.5,0,0,1,535.009,442.456Zm-7.5,25.472c1.028,0,2.439-.843,3.871-2.313a14.445,14.445,0,0,0,2.993-4.4c.918-2.359.465-13.073.175-17.676-.884.142-2.734.45-4.63.821-4.3.842-5.351,1.327-5.6,1.494.024.408.134,1.289.259,2.29a80.4,80.4,0,0,1,.77,8.945c0,.706-.02,1.452-.04,2.242-.091,3.46-.2,7.765,1.621,8.495A1.567,1.567,0,0,0,527.508,467.928Z" fill="#4045ab"/>
              <path id="Trazado_912625" data-name="Trazado 912625" d="M455.574,453.294s.345,10.511-1.551,11.2-12.751-.517-14.646-.172-7.926.689-10.166,0-5.17-1.9-4.308-3.619,11.889-6.375,14.3-7.926,6.721-4.48,6.721-4.48Z" fill="#fff"/>
              <path id="Trazado_912626" data-name="Trazado 912626" d="M445.925,447.8a.5.5,0,0,1,.23.056l9.649,5a.5.5,0,0,1,.27.428c0,.026.085,2.681-.065,5.386a26.022,26.022,0,0,1-.455,3.9c-.306,1.415-.738,2.179-1.36,2.4a9.112,9.112,0,0,1-2.68.247c-1.74,0-4-.126-6.182-.248-1.872-.1-3.64-.2-4.8-.2a6.908,6.908,0,0,0-1.064.055,40.594,40.594,0,0,1-5.984.406,17.767,17.767,0,0,1-4.418-.42c-2.691-.827-4.219-1.743-4.671-2.8a1.76,1.76,0,0,1,.063-1.52c.218-.435.818-1.087,3.621-2.615,1.792-.977,4.032-2.065,6.008-3.024,2.072-1.006,4.029-1.957,4.849-2.484,2.38-1.53,6.667-4.444,6.71-4.473A.5.5,0,0,1,445.925,447.8Zm9.157,5.805-9.122-4.724c-.951.645-4.426,3-6.485,4.32-.87.56-2.762,1.478-4.953,2.542-1.966.955-4.2,2.037-5.966,3-2.622,1.43-3.115,2-3.205,2.184a.76.76,0,0,0-.038.68c.183.427.952,1.286,4.046,2.238a16.037,16.037,0,0,0,4.124.376,40.261,40.261,0,0,0,5.805-.39,7.5,7.5,0,0,1,1.243-.072c1.189,0,2.971.1,4.857.205,2.17.121,4.414.247,6.126.247a8.291,8.291,0,0,0,2.338-.187c.09-.033.883-.461,1.158-5.416C455.129,456.466,455.1,454.357,455.082,453.6Z" fill="#4045ab"/>
              <path id="Trazado_912627" data-name="Trazado 912627" d="M512.264,325.44s.862,6.031,1.206,16.542-3.274,32.394-3.274,32.394l4.48,25.5,17.231,39.287s4.136,1.033,3.1,3.791-4.652,5.686-6.72,5.686-4.825-.862-5.686-2.24-1.206-4.825-1.206-4.825-29.982-39.976-30.5-41.354-5.342-22.573-5.342-22.573L473.15,394.364l-17.231,51.521a4.349,4.349,0,0,1,.517,3.791c-.69,2.24-1.9,5.341-1.9,5.341a15.593,15.593,0,0,1-4.652-1.034,21.486,21.486,0,0,1-5.859-3.618,5.245,5.245,0,0,1-.344-3.1c.344-1.723,1.378-2.412,1.206-3.79s6.031-50.487,7.065-53.761,24.812-52.555,24.812-52.555l1.723-12.578a56.189,56.189,0,0,0,33.773.861" fill="#4045ab"/>
              <path id="Trazado_912628" data-name="Trazado 912628" d="M478.491,324.079a.5.5,0,0,1,.187.036,38.512,38.512,0,0,0,5.05,1.5,58.062,58.062,0,0,0,13.064,1.5,55.069,55.069,0,0,0,15.333-2.15.5.5,0,0,1,.634.41c.009.061.87,6.179,1.211,16.6.332,10.109-3.021,30.9-3.267,32.407l4.455,25.359,17.112,39.017a5.453,5.453,0,0,1,3.113,2.179,2.6,2.6,0,0,1,.094,2.2c-1.075,2.865-4.837,6.01-7.188,6.01-2.243,0-5.142-.926-6.11-2.475a15.067,15.067,0,0,1-1.264-4.9c-.84-1.121-7.922-10.569-14.974-20.052-15.162-20.389-15.415-21.063-15.51-21.316-.461-1.23-4.126-17.225-5.12-21.578L473.6,394.6l-17.128,51.214a4.909,4.909,0,0,1,.443,4.011c-.687,2.232-1.9,5.344-1.908,5.375a.5.5,0,0,1-.466.319,15.979,15.979,0,0,1-4.818-1.062,21.739,21.739,0,0,1-6.023-3.715.5.5,0,0,1-.116-.151,5.733,5.733,0,0,1-.387-3.424,7.121,7.121,0,0,1,.736-1.945,2.753,2.753,0,0,0,.464-1.685c-.111-.893,1.83-16.6,3.081-26.3.767-5.948,3.323-25.522,4-27.678,1.022-3.239,23.426-49.694,24.8-52.551l1.712-12.5a.5.5,0,0,1,.5-.432Zm18.3,4.031a59.065,59.065,0,0,1-13.318-1.529,43.914,43.914,0,0,1-4.573-1.316l-1.638,11.959a.5.5,0,0,1-.045.149c-.238.492-23.775,49.286-24.785,52.488-.434,1.374-1.946,11.852-3.945,27.344-1.731,13.412-3.149,25.4-3.1,26.21a3.653,3.653,0,0,1-.566,2.257,6.2,6.2,0,0,0-.646,1.687,4.838,4.838,0,0,0,.265,2.7,20.79,20.79,0,0,0,5.614,3.452,17.376,17.376,0,0,0,4.15.985c.33-.864,1.21-3.2,1.754-4.968a3.847,3.847,0,0,0-.434-3.337.5.5,0,0,1-.08-.466l17.231-51.521a.5.5,0,0,1,.073-.139l12.406-16.714a.5.5,0,0,1,.889.187c1.663,7.3,4.91,21.388,5.32,22.5.589,1.268,18.515,25.345,30.433,41.236a.5.5,0,0,1,.1.25,14.594,14.594,0,0,0,1.133,4.61c.749,1.2,3.326,2.005,5.262,2.005,1.773,0,5.254-2.7,6.252-5.362a1.619,1.619,0,0,0-.043-1.387,4.712,4.712,0,0,0-2.712-1.743.5.5,0,0,1-.337-.284l-17.231-39.287a.5.5,0,0,1-.035-.114l-4.48-25.5a.5.5,0,0,1,0-.168c.036-.218,3.607-21.955,3.267-32.3-.28-8.554-.911-14.184-1.127-15.919A56.143,56.143,0,0,1,496.792,328.11Z" fill="#4045ab"/>
              <path id="Trazado_912629" data-name="Trazado 912629" d="M488.137,218.144s6.8-2.652,12.313-1.242,14.056,8.955,13.432,13.393-10.723,14.138-10.723,14.138l.387,8.863L485.925,260.9l-2.509-11.324s-6.473-1.654-6.228-2.613,1.731-9.773,1.731-9.773a2.465,2.465,0,0,1-.641-3.484,44.989,44.989,0,0,1,4.194-5.357s-.886-3.671,5.665-10.208" fill="#fff"/>
              <path id="Trazado_912630" data-name="Trazado 912630" d="M496.881,215.989a14.966,14.966,0,0,1,3.693.429c2.76.705,6.3,2.883,9.239,5.683,3.209,3.058,4.873,6.07,4.564,8.264-.272,1.938-2.194,4.963-5.714,8.992-2.212,2.532-4.392,4.69-5,5.279l.377,8.639a.5.5,0,0,1-.3.481l-17.621,7.607a.5.5,0,0,1-.686-.351l-2.443-11.026c-.546-.146-1.759-.481-2.943-.879a17.433,17.433,0,0,1-2.219-.881c-.393-.2-1.312-.664-1.128-1.383s1.147-6.323,1.673-9.438a3.288,3.288,0,0,1-.715-.882,2.927,2.927,0,0,1,.189-3.071,43,43,0,0,1,4.1-5.262c-.086-1.011.095-4.668,5.838-10.4a.5.5,0,0,1,.172-.112A27.585,27.585,0,0,1,496.881,215.989Zm6.151,36.985-.372-8.519a.5.5,0,0,1,.153-.382c.025-.024,2.543-2.449,5.1-5.379,3.339-3.823,5.231-6.751,5.472-8.468.259-1.843-1.335-4.61-4.264-7.4-2.779-2.648-6.232-4.783-8.8-5.438a13.971,13.971,0,0,0-3.445-.4,27.028,27.028,0,0,0-8.467,1.585c-3.2,3.21-4.513,5.668-5.052,7.17a5.176,5.176,0,0,0-.4,2.494.479.479,0,0,1-.117.451,44.764,44.764,0,0,0-4.135,5.278,1.99,1.99,0,0,0-.185,2.043,2.288,2.288,0,0,0,.671.764.5.5,0,0,1,.22.5c-.059.349-1.4,8.284-1.711,9.691a9.093,9.093,0,0,0,3,1.3c1.437.467,2.821.822,2.834.825a.5.5,0,0,1,.364.376l2.378,10.733Z" fill="#4045ab"/>
              <path id="Trazado_912631" data-name="Trazado 912631" d="M483.415,249.579s4.144.021,4.824-.115a51.463,51.463,0,0,0,4.9-2.588l-7.626,11.031Z" fill="#4045ab"/>
              <path id="Trazado_912632" data-name="Trazado 912632" d="M493.142,246.376a.5.5,0,0,1,.411.784l-7.626,11.031a.5.5,0,0,1-.9-.162l-2.1-8.328a.5.5,0,0,1,.091-.431.494.494,0,0,1,.4-.192h.59c2.221,0,3.8-.041,4.133-.106a45.577,45.577,0,0,0,4.75-2.53A.5.5,0,0,1,493.142,246.376Zm-7.41,10.34,5.753-8.321a21.131,21.131,0,0,1-3.147,1.559c-.515.1-2.6.125-4.28.126Z" fill="#4045ab"/>
              <path id="Trazado_912633" data-name="Trazado 912633" d="M483.5,230.616c-.434.679-.559,1.375-.279,1.554s.858-.228,1.292-.907.559-1.375.279-1.554-.858.228-1.292.907" fill="#4045ab"/>
              <path id="Trazado_912634" data-name="Trazado 912634" fill="#263238"/>
              <path id="Trazado_912635" data-name="Trazado 912635" d="M480.992,240.447a4.343,4.343,0,0,1-1.232-.16.5.5,0,0,1,.3-.953,4.1,4.1,0,0,0,3.044-.451.5.5,0,0,1,.493.87A5.262,5.262,0,0,1,480.992,240.447Z" fill="#4045ab"/>
              <path id="Trazado_912636" data-name="Trazado 912636" d="M486.967,219.7l7.206,3.766s-2.77,1.846-2.178,3.529l.591,1.684-.155,6.6,1.857.73s5.6-3.932,6.963-.264-3.394,6.284-3.394,6.284,1.958,4.331,3.753,5.3.791-2.1,4.336-2.977,10.24-7.088,10.378-10.628-1.619-11.651-7.6-15.223-10.119-4.374-13.48-4.212-6.69-1.772-7.782.5a8.42,8.42,0,0,0-.493,4.908" fill="#4045ab"/>
              <path id="Trazado_912637" data-name="Trazado 912637" d="M489.525,213.18h0a14.331,14.331,0,0,1,2.333.283,17.371,17.371,0,0,0,2.967.34c.133,0,.266,0,.393-.009.276-.013.555-.02.828-.02,3.907,0,8.017,1.367,12.932,4.3a15.961,15.961,0,0,1,6.3,7.867,20.362,20.362,0,0,1,1.541,7.805c-.1,2.482-2.871,5.475-4.06,6.647-2.291,2.259-4.92,4-6.7,4.446a3.592,3.592,0,0,0-2.589,2.09c-.291.536-.591,1.09-1.279,1.09a1.757,1.757,0,0,1-.826-.248c-1.921-1.037-3.888-5.351-3.971-5.534a.5.5,0,0,1,.215-.644,9.322,9.322,0,0,0,2.1-1.683,3.762,3.762,0,0,0,1.071-3.989,1.729,1.729,0,0,0-1.8-1.238c-1.909,0-4.382,1.72-4.407,1.738a.5.5,0,0,1-.47.056l-1.857-.73a.5.5,0,0,1-.317-.477l.153-6.509-.561-1.6c-.214-.609-.22-1.606.971-2.9a8.227,8.227,0,0,1,.752-.715l-6.511-3.4a.5.5,0,0,1-.256-.332,8.862,8.862,0,0,1,.53-5.235A2.509,2.509,0,0,1,489.525,213.18Zm5.3,1.623a18.409,18.409,0,0,1-3.138-.355,13.69,13.69,0,0,0-2.162-.268h0a1.527,1.527,0,0,0-1.614.832,7.783,7.783,0,0,0-.5,4.361l6.991,3.654a.5.5,0,0,1,.046.859c-.634.424-2.36,1.876-1.984,2.947l.591,1.684a.5.5,0,0,1,.028.177l-.147,6.251,1.288.506a10.222,10.222,0,0,1,4.755-1.767,2.721,2.721,0,0,1,2.738,1.891,4.753,4.753,0,0,1-1.287,5.029,10.288,10.288,0,0,1-1.933,1.622c.663,1.367,2.132,4.011,3.347,4.667a.826.826,0,0,0,.351.127c.092,0,.263-.314.4-.567a4.556,4.556,0,0,1,3.227-2.583c1.616-.4,4.064-2.046,6.236-4.188,2.3-2.266,3.7-4.5,3.762-5.974.13-3.31-1.5-11.275-7.359-14.774-4.754-2.839-8.7-4.161-12.42-4.161-.258,0-.52.006-.78.019C495.123,214.8,494.974,214.8,494.824,214.8Z" fill="#4045ab"/>
              <path id="Trazado_912638" data-name="Trazado 912638" d="M460.589,267.56l-7.294.591-32.723-13.6-.985-4.14-4.337-7.885s-2.169-.2-1.774.986,1.027,5.749,1.027,5.749l-3.257,7.619s1.047,1.613,1.835,1.81,4.337.592,4.337.592l35.68,20.5,9.265.986Z" fill="#fff"/>
              <path id="Trazado_912639" data-name="Trazado 912639" d="M462.363,281.268l-.053,0-9.265-.986a.5.5,0,0,1-.2-.064l-35.59-20.449c-.6-.068-3.555-.407-4.3-.592-.932-.233-1.941-1.726-2.133-2.023a.5.5,0,0,1-.04-.469l3.2-7.491c-.108-.766-.649-4.509-.987-5.523a1.094,1.094,0,0,1,.119-1.033,2.115,2.115,0,0,1,1.8-.624c.213,0,.361.013.378.014a.5.5,0,0,1,.393.257l4.337,7.885a.5.5,0,0,1,.048.125l.926,3.892,32.376,13.457,7.173-.581a.5.5,0,0,1,.536.432l1.774,13.208a.5.5,0,0,1-.5.567Zm-9.107-1.972,8.527.907L460.157,268.1l-6.821.553a.5.5,0,0,1-.232-.037l-32.723-13.6a.5.5,0,0,1-.295-.346l-.969-4.074-4.169-7.579h-.03a1.54,1.54,0,0,0-.986.208c-.006.008-.009.051.018.132.4,1.212,1.022,5.65,1.048,5.839a.5.5,0,0,1-.036.265l-3.149,7.367c.4.57,1.031,1.29,1.389,1.38.62.155,3.293.471,4.271.58a.5.5,0,0,1,.194.063Z" fill="#4045ab"/>
              <path id="Trazado_912640" data-name="Trazado 912640" d="M489.567,263.617l-28.978,3.943,1.774,13.207,24.838,7.294Z" fill="#fff"/>
              <path id="Trazado_912641" data-name="Trazado 912641" d="M489.567,263.117a.5.5,0,0,1,.5.548L487.7,288.109a.5.5,0,0,1-.639.432l-24.838-7.294a.5.5,0,0,1-.355-.413l-1.774-13.207a.5.5,0,0,1,.428-.562l28.978-3.943A.5.5,0,0,1,489.567,263.117Zm-2.805,24.294,2.247-23.213-27.857,3.791,1.664,12.391Z" fill="#4045ab"/>
              <path id="Trazado_912642" data-name="Trazado 912642" d="M464.532,266.18l1.774,16.953-5.914-1.183-2.168-15.967Z" fill="#fff"/>
              <path id="Trazado_912643" data-name="Trazado 912643" d="M458.224,265.483h.016l6.308.2a.5.5,0,0,1,.482.448l1.774,16.953a.5.5,0,0,1-.6.542l-5.914-1.183a.5.5,0,0,1-.4-.423l-2.168-15.967a.5.5,0,0,1,.5-.567Zm5.856,1.183L458.8,266.5l2.041,15.028,4.9.98Z" fill="#4045ab"/>
              <path id="Trazado_912644" data-name="Trazado 912644" d="M504.854,253.242a60.569,60.569,0,0,1,9.132,19.643c2.585,10.856,3.1,23.779.862,30.327s-1.9,18.093-1.9,18.093,1.723,3.273-.173,5.341-13.957,5.859-24.468,4.308-10.855-4.136-11.372-5.859-.345-25.157,1.895-35.668a248.689,248.689,0,0,1,6.376-24.3c1.55-4.652,19.643-11.889,19.643-11.889" fill="#fff"/>
              <path id="Trazado_912645" data-name="Trazado 912645" d="M504.854,252.742a.5.5,0,0,1,.4.2,55.067,55.067,0,0,1,3.634,5.808,57.648,57.648,0,0,1,5.584,14.018,87.11,87.11,0,0,1,2.254,16.879c.184,5.756-.3,10.5-1.405,13.726-2.07,6.051-1.9,16.62-1.871,17.808.3.627,1.626,3.7-.3,5.8-1.783,1.946-10.814,4.833-19.634,4.833a36.311,36.311,0,0,1-5.275-.369c-4.545-.671-7.641-1.594-9.464-2.822a5.076,5.076,0,0,1-2.255-3.187c-.02-.068-.039-.135-.059-.2-.572-1.905-.336-25.493,1.885-35.916a249.1,249.1,0,0,1,6.391-24.35c.394-1.182,1.673-2.514,3.912-4.072a57.911,57.911,0,0,1,6.739-3.9c4.683-2.373,9.235-4.2,9.281-4.218A.5.5,0,0,1,504.854,252.742Zm-11.34,78.075c9.015,0,17.479-2.961,18.9-4.509,1.632-1.78.114-4.741.1-4.771a.5.5,0,0,1-.057-.217c0-.029-.085-2.949.108-6.632a44.937,44.937,0,0,1,1.814-11.638c2.145-6.272,1.777-18.909-.875-30.049a56.641,56.641,0,0,0-5.486-13.766,58.634,58.634,0,0,0-3.335-5.381c-1.164.478-4.96,2.068-8.844,4.037a56.9,56.9,0,0,0-6.617,3.832c-2.522,1.757-3.313,2.909-3.532,3.566a248.023,248.023,0,0,0-6.361,24.242c-1.285,6.031-1.786,15.773-1.971,21.043-.275,7.857-.147,13.669.066,14.377.021.068.041.138.061.209a4.1,4.1,0,0,0,1.854,2.637c1.7,1.143,4.657,2.014,9.051,2.662A35.305,35.305,0,0,0,493.514,330.817Z" fill="#4045ab"/>
              <path id="Trazado_912646" data-name="Trazado 912646" d="M504.627,247.461l-21.829,14.4.345,7.754,23.779-16.025Z" fill="#fff"/>
              <path id="Trazado_912647" data-name="Trazado 912647" d="M504.627,246.961a.5.5,0,0,1,.468.325l2.295,6.126a.5.5,0,0,1-.189.59l-23.779,16.025a.5.5,0,0,1-.779-.392l-.345-7.754a.5.5,0,0,1,.224-.44l21.829-14.4A.5.5,0,0,1,504.627,246.961Zm1.688,6.432-1.937-5.169-21.069,13.9.293,6.58Z" fill="#4045ab"/>
              <path id="Trazado_912648" data-name="Trazado 912648" d="M455.913,343.8l-35.844-23.743-39.88,16.068,11.5-41.427-27.605-32.963,42.955-1.861,22.819-36.439L444.9,263.714l41.708,10.442-33.658,26.753Z" fill="#ffbd45"/>
              <path id="Trazado_912649" data-name="Trazado 912649" d="M455.913,344.3a.5.5,0,0,1-.276-.083l-35.625-23.6-39.636,15.97a.5.5,0,0,1-.669-.6l11.434-41.174L363.7,262.058a.5.5,0,0,1,.362-.821l42.692-1.85,22.679-36.216a.5.5,0,0,1,.892.09l14.951,40.031,41.453,10.378a.5.5,0,0,1,.19.876l-33.452,26.589,2.94,42.631a.5.5,0,0,1-.5.534Zm-35.844-24.743a.5.5,0,0,1,.276.083l35,23.183-2.888-41.882a.5.5,0,0,1,.188-.426l32.865-26.123-40.725-10.2a.5.5,0,0,1-.347-.31l-14.689-39.328-22.281,35.58a.5.5,0,0,1-.4.234l-41.943,1.817,26.955,32.186a.5.5,0,0,1,.1.455l-11.233,40.451,38.94-15.689A.5.5,0,0,1,420.069,319.559Z" fill="#4045ab"/>
              <path id="Trazado_912650" data-name="Trazado 912650" d="M485.039,309.76l-37.391,18.609a38.2,38.2,0,0,1-4.308-4.135,5.577,5.577,0,0,0-4.136-2.412c-1.55-.173-2.584.517-4.48-1.034s-2.24-1.206-1.55.517.861,2.412,2.412,2.584a6.33,6.33,0,0,1,2.585.862s-4.48,2.757-5.514,3.274-1.9,1.378-1.551,1.9,0,1.379,1.034,1.379h2.24a25.418,25.418,0,0,1,2.757,2.929,6.434,6.434,0,0,0,4.308,2.757,29.375,29.375,0,0,0,9.3-1.034c3.619-1.034,33.6-10.338,37.564-11.889a50.914,50.914,0,0,0,8.96-5.17Z" fill="#fff"/>
              <path id="Trazado_912651" data-name="Trazado 912651" d="M485.039,309.26a.5.5,0,0,1,.3.1l12.234,9.132a.5.5,0,0,1-.006.806,50.694,50.694,0,0,1-9.071,5.231c-4.083,1.6-34.333,10.968-37.609,11.9a31.838,31.838,0,0,1-8.113,1.111,13.173,13.173,0,0,1-1.384-.061,6.887,6.887,0,0,1-4.643-2.942,25.718,25.718,0,0,0-2.559-2.741H432.14a1.235,1.235,0,0,1-1.335-1.208,1.2,1.2,0,0,0-.115-.393.987.987,0,0,1-.123-.823,3.545,3.545,0,0,1,1.866-1.8c.746-.373,3.386-1.975,4.708-2.783a6.172,6.172,0,0,0-1.611-.409c-1.751-.194-2.087-1.042-2.7-2.58l-.125-.315c-.4-1-.464-1.53-.224-1.884a.713.713,0,0,1,.6-.309c.314,0,.767.134,1.952,1.1a3.369,3.369,0,0,0,2.361.93c.185,0,.37-.009.566-.019s.423-.021.649-.021a5.745,5.745,0,0,1,.642.034,6.048,6.048,0,0,1,4.471,2.6,35.263,35.263,0,0,0,3.988,3.854l37.1-18.463A.5.5,0,0,1,485.039,309.26Zm11.382,9.62-11.435-8.535-37.116,18.472a.5.5,0,0,1-.541-.062,38.1,38.1,0,0,1-4.381-4.208,5.094,5.094,0,0,0-3.8-2.228,4.754,4.754,0,0,0-.531-.027c-.2,0-.4.01-.6.019s-.406.02-.615.02a4.336,4.336,0,0,1-2.995-1.156,8.35,8.35,0,0,0-1-.731,6.25,6.25,0,0,0,.234.675l.126.318c.584,1.476.723,1.827,1.876,1.955a6.813,6.813,0,0,1,2.807.943.5.5,0,0,1-.015.842c-.184.113-4.511,2.775-5.552,3.3-.878.439-1.345,1-1.352,1.18a1.993,1.993,0,0,1,.259.754c.073.392.073.392.353.392h2.24a.5.5,0,0,1,.329.124,25.689,25.689,0,0,1,2.818,2.993,5.966,5.966,0,0,0,3.973,2.572,12.2,12.2,0,0,0,1.274.055,30.762,30.762,0,0,0,7.838-1.073c4.077-1.165,33.675-10.37,37.519-11.874A47.622,47.622,0,0,0,496.421,318.88Z" fill="#4045ab"/>
              <path id="Trazado_912652" data-name="Trazado 912652" d="M508.3,267.544s5,3.963,4.48,9.132-9.994,39.976-9.994,39.976l-17.059-10.511s5.342-29.12,8.444-34.117,6.72-5.858,6.72-5.858" fill="#fff"/>
              <path id="Trazado_912653" data-name="Trazado 912653" d="M502.787,317.152a.5.5,0,0,1-.262-.074l-17.059-10.511a.5.5,0,0,1-.229-.516c.219-1.193,5.395-29.271,8.511-34.29,3.173-5.113,6.873-6.044,7.029-6.081l.231.973a7.632,7.632,0,0,0-2.088,1.019,14.707,14.707,0,0,0-4.323,4.616c-2.84,4.575-7.708,30.351-8.315,33.607l16.2,9.98c1.3-4.784,9.335-34.565,9.8-39.249a9.209,9.209,0,0,0-1.938-6.14,14.214,14.214,0,0,0-2.355-2.551l.622-.783a14.943,14.943,0,0,1,2.528,2.726,10.04,10.04,0,0,1,2.139,6.847c-.515,5.152-9.622,38.635-10.009,40.058a.5.5,0,0,1-.482.369Z" fill="#4045ab"/>
              <path id="Trazado_912654" data-name="Trazado 912654" d="M485.728,301.317l20.16,12.579s-2.068,7.237-3.618,8.443l-1.551,1.206s-16.542-11.373-17.576-12.923,2.068-8.444,2.585-9.305" fill="#fff"/>
              <path id="Trazado_912655" data-name="Trazado 912655" d="M485.728,300.817a.5.5,0,0,1,.265.076l20.16,12.579a.5.5,0,0,1,.216.562c-.005.018-.53,1.849-1.238,3.8-1.471,4.056-2.286,4.69-2.553,4.9l-1.551,1.206a.5.5,0,0,1-.59.017c-.041-.028-4.188-2.88-8.407-5.885-8.6-6.127-9.129-6.914-9.3-7.173a3.322,3.322,0,0,1-.181-2.351,19.624,19.624,0,0,1,.837-3,33.944,33.944,0,0,1,1.917-4.486.5.5,0,0,1,.429-.243Zm19.574,13.3-19.382-12.093a38.463,38.463,0,0,0-1.595,3.85c-.952,2.713-1.021,4.087-.767,4.468.179.268,1.419,1.479,9.049,6.912,3.558,2.534,7.065,4.959,8.093,5.669l1.262-.981C502.954,321.173,504.487,316.886,505.3,314.12Z" fill="#4045ab"/>
              <path id="Trazado_912656" data-name="Trazado 912656" d="M410.107,245.648l-.068.155a1.38,1.38,0,0,0,.712,1.817l3.629,1.585a1.379,1.379,0,0,0,1.817-.712l.068-.154a1.382,1.382,0,0,0-.712-1.818l-3.629-1.585a1.38,1.38,0,0,0-1.817.712" fill="#fff"/>
              <path id="Trazado_912657" data-name="Trazado 912657" d="M411.373,244.32h0a1.866,1.866,0,0,1,.752.158l3.629,1.585a1.885,1.885,0,0,1,.97,2.476l-.069.156a1.877,1.877,0,0,1-2.475.968l-3.628-1.585a1.882,1.882,0,0,1-.97-2.475l.068-.156A1.881,1.881,0,0,1,411.373,244.32Zm3.56,4.5a.88.88,0,0,0,.806-.528l.069-.156a.883.883,0,0,0-.455-1.158l-3.628-1.585a.879.879,0,0,0-1.159.454L410.5,246a.881.881,0,0,0,.454,1.158l3.629,1.585A.871.871,0,0,0,414.932,248.821Z" fill="#4045ab"/>
              <path id="Trazado_912658" data-name="Trazado 912658" d="M408.932,248.6l-.068.155a1.38,1.38,0,0,0,.713,1.817l2.683,1.173a1.38,1.38,0,0,0,1.817-.713l.068-.154a1.381,1.381,0,0,0-.712-1.818l-2.684-1.172a1.38,1.38,0,0,0-1.817.712" fill="#fff"/>
              <path id="Trazado_912659" data-name="Trazado 912659" d="M410.2,247.274h0a1.868,1.868,0,0,1,.752.158l2.684,1.172a1.883,1.883,0,0,1,.97,2.476l-.069.156a1.879,1.879,0,0,1-2.475.969l-2.683-1.173a1.88,1.88,0,0,1-.971-2.475l.068-.156A1.879,1.879,0,0,1,410.2,247.274Zm2.614,4.088a.881.881,0,0,0,.807-.529l.069-.156a.882.882,0,0,0-.455-1.158l-2.684-1.172a.874.874,0,0,0-.352-.074h0a.88.88,0,0,0-.807.528l-.068.156a.88.88,0,0,0,.455,1.158l2.683,1.173A.872.872,0,0,0,412.811,251.363Z" fill="#4045ab"/>
              <path id="Trazado_912660" data-name="Trazado 912660" d="M407.413,251.515l-.068.155a1.38,1.38,0,0,0,.713,1.817l2.683,1.173a1.38,1.38,0,0,0,1.817-.713l.068-.155a1.38,1.38,0,0,0-.712-1.817L409.23,250.8a1.38,1.38,0,0,0-1.817.712" fill="#fff"/>
              <path id="Trazado_912661" data-name="Trazado 912661" d="M408.678,250.187h0a1.868,1.868,0,0,1,.752.158l2.684,1.172a1.88,1.88,0,0,1,.97,2.475l-.068.156a1.879,1.879,0,0,1-2.475.97l-2.683-1.173a1.88,1.88,0,0,1-.971-2.475l.068-.156A1.879,1.879,0,0,1,408.678,250.187Zm2.614,4.088a.881.881,0,0,0,.807-.529l.068-.156a.88.88,0,0,0-.454-1.158l-2.684-1.172a.874.874,0,0,0-.352-.074h0a.88.88,0,0,0-.807.528l-.068.156a.88.88,0,0,0,.455,1.158l2.683,1.173A.872.872,0,0,0,411.292,254.276Z" fill="#4045ab"/>
              <path id="Trazado_912662" data-name="Trazado 912662" d="M406.8,254.606l-.068.155a1.38,1.38,0,0,0,.713,1.817l2.035.889a1.38,1.38,0,0,0,1.818-.712l.068-.154a1.382,1.382,0,0,0-.712-1.818l-2.037-.889a1.38,1.38,0,0,0-1.817.712" fill="#fff"/>
              <path id="Trazado_912663" data-name="Trazado 912663" d="M408.067,253.278h0a1.868,1.868,0,0,1,.752.158l2.037.889a1.885,1.885,0,0,1,.97,2.476l-.069.156a1.879,1.879,0,0,1-2.476.968l-2.035-.889a1.88,1.88,0,0,1-.971-2.475l.068-.156A1.879,1.879,0,0,1,408.067,253.278Zm1.968,3.805a.88.88,0,0,0,.807-.528l.069-.156a.883.883,0,0,0-.455-1.158l-2.036-.889a.874.874,0,0,0-.352-.074h0a.88.88,0,0,0-.807.528l-.068.156a.88.88,0,0,0,.455,1.158l2.035.889A.874.874,0,0,0,410.035,257.083Z" fill="#4045ab"/>
            </g>
          </g>
          <g id="Grupo_1101352" data-name="Grupo 1101352">
            <g id="Grupo_1101355" data-name="Grupo 1101355">
              <path id="Trazado_912664" data-name="Trazado 912664" d="M187.2,244.47a13.673,13.673,0,0,0,2.911-5.683c.93-3.623-1.57-7.115-6.814-8.516s-21.306-2.313-28.424,3.15,1.164,18.426.138,21.518-9.7,5.715-8.353,17.036,11.582,15.431,20.1,12.509,17.679-10.676,21.1-15.081-.651-24.933-.651-24.933" fill="#4045ab"/>
              <path id="Trazado_912665" data-name="Trazado 912665" d="M172.7,228.7h0a47.136,47.136,0,0,1,10.731,1.088,11.007,11.007,0,0,1,5.988,3.6,6.294,6.294,0,0,1,1.181,5.522,14.528,14.528,0,0,1-2.857,5.707c.208,1.093,1.054,5.673,1.567,10.614.8,7.674.441,12.544-1.059,14.477a49.538,49.538,0,0,1-8.733,8.19,48.126,48.126,0,0,1-12.6,7.058,17.157,17.157,0,0,1-5.581.936,15.341,15.341,0,0,1-9.865-3.46,15.616,15.616,0,0,1-5.308-10.4,15.1,15.1,0,0,1,1.6-9.447,20.355,20.355,0,0,1,4.476-5.185,8.128,8.128,0,0,0,2.3-2.621c.28-.843-.383-2.948-1.084-5.177a37.377,37.377,0,0,1-1.971-8.695,11.087,11.087,0,0,1,.508-4.315,7.557,7.557,0,0,1,2.58-3.57C159.472,229.262,168.029,228.7,172.7,228.7Zm-11.36,56.193a16.159,16.159,0,0,0,5.256-.882c8.261-2.835,17.426-10.483,20.865-14.915.918-1.183,1.812-4.53.855-13.753-.581-5.6-1.591-10.725-1.6-10.776a.5.5,0,0,1,.13-.444,13.335,13.335,0,0,0,2.787-5.461,5.246,5.246,0,0,0-1-4.661,10.032,10.032,0,0,0-5.456-3.248A45.177,45.177,0,0,0,172.7,229.7h0c-4.539,0-12.848.535-17.517,4.118-4.546,3.489-2.364,10.424-.771,15.487.816,2.594,1.461,4.642,1.079,5.792a8.4,8.4,0,0,1-2.575,3.048c-2.819,2.545-6.679,6.031-5.757,13.771C148.3,281.494,155.508,284.893,161.335,284.893Z" fill="#4045ab"/>
              <path id="Trazado_912666" data-name="Trazado 912666" d="M147.873,385.572l2.339,14.732L117.33,429.616l2.75,5.59s48.7-21.518,50-23.076.185-24.626.185-24.626Z" fill="#f6ccb3"/>
              <path id="Trazado_912667" data-name="Trazado 912667" d="M147.873,385.072l.043,0,22.392,1.932a.5.5,0,0,1,.456.474c0,.058.281,5.842.4,11.743.068,3.47.067,6.3,0,8.418-.12,3.65-.418,4.479-.694,4.809-.243.29-.887,1.062-25.666,12.257-12.2,5.511-24.394,10.9-24.516,10.955a.5.5,0,0,1-.651-.237l-2.75-5.59a.5.5,0,0,1,.116-.594l32.678-29.13-2.3-14.462a.5.5,0,0,1,.494-.578Zm21.913,2.893-21.319-1.839,2.239,14.1a.5.5,0,0,1-.161.452l-32.6,29.059,2.37,4.818c2.278-1.008,13.054-5.782,23.88-10.672,7.123-3.218,12.872-5.855,17.089-7.838,7.023-3.3,8.228-4.064,8.414-4.239.062-.093.35-.719.463-4.306.066-2.1.065-4.913,0-8.347C170.062,394.232,169.852,389.411,169.786,387.965Z" fill="#4045ab"/>
              <path id="Trazado_912668" data-name="Trazado 912668" d="M117.329,429.616s-7.2,4.372-6.761,6.547,5.547,5.023,6.484,6.451.449,5.408,4.187,7.886,5.354,2.474,4.85-.012-6.009-15.282-6.009-15.282Z" fill="#4045ab"/>
              <path id="Trazado_912669" data-name="Trazado 912669" d="M117.329,429.116a.5.5,0,0,1,.449.279l2.751,5.59.011.023c.226.524,5.531,12.871,6.04,15.38a2.356,2.356,0,0,1-.235,2,1.34,1.34,0,0,1-1.094.467c-.918,0-2.32-.634-4.288-1.939-2.765-1.833-3.351-4.408-3.779-6.288a6.109,6.109,0,0,0-.55-1.74,13.227,13.227,0,0,0-2.293-2.019c-1.853-1.444-3.953-3.081-4.263-4.607-.227-1.118.884-2.617,3.4-4.582a41.581,41.581,0,0,1,3.594-2.491A.5.5,0,0,1,117.329,429.116Zm2.3,6.3-2.5-5.081c-.643.411-1.861,1.216-3.04,2.138-3.007,2.353-3.077,3.343-3.027,3.591.236,1.164,2.266,2.745,3.9,4.017a12.938,12.938,0,0,1,2.515,2.26,6.581,6.581,0,0,1,.689,2.067c.412,1.811.925,4.065,3.356,5.677,2.209,1.465,3.25,1.772,3.735,1.772.237,0,.3-.075.319-.1.05-.061.2-.326.029-1.168C125.117,448.211,119.82,435.867,119.626,435.415Z" fill="#4045ab"/>
              <path id="Trazado_912670" data-name="Trazado 912670" d="M151.309,309.206s-17.932,11.117-20.427,28.85,9.158,36.6,13.192,44.482,15.447,23.84,15.447,23.84l3.108,50.529,4.474-2.821s7.851-41.961,7.892-52.062-3.971-22.165-3.971-22.165,3.014-24.624,1.959-31.544-.411-16.622-.411-16.622Z" fill="#f6ccb3"/>
              <path id="Trazado_912671" data-name="Trazado 912671" d="M151.309,308.706a.5.5,0,0,1,.364.156l21.263,22.487a.5.5,0,0,1,.136.377c-.006.1-.628,9.727.406,16.514,1.028,6.744-1.7,29.547-1.944,31.57.188.579,1.091,3.427,1.978,7.231a68.887,68.887,0,0,1,1.983,14.986c-.017,4.216-1.352,14.276-3.968,29.9-1.946,11.623-3.913,22.148-3.932,22.253a.5.5,0,0,1-.225.331L162.9,457.33a.5.5,0,0,1-.766-.392l-3.1-50.386c-1.049-1.473-11.579-16.316-15.4-23.786-.454-.887-1-1.9-1.626-3.071a129.35,129.35,0,0,1-8.464-18.27,63.853,63.853,0,0,1-2.962-11.463,41.244,41.244,0,0,1-.19-11.976,33.924,33.924,0,0,1,4.306-12.168,47.672,47.672,0,0,1,6.978-9.183,54.62,54.62,0,0,1,9.375-7.854A.5.5,0,0,1,151.309,308.706Zm20.751,23.173-20.828-22.027a55.183,55.183,0,0,0-8.858,7.495c-4.316,4.5-9.727,11.76-11,20.779-2.191,15.565,6.72,32.174,11.507,41.1.631,1.176,1.176,2.192,1.635,3.088,3.971,7.76,15.295,23.618,15.409,23.777a.5.5,0,0,1,.092.26l3.056,49.687,3.575-2.254c.606-3.259,7.8-42.187,7.844-51.758a67.877,67.877,0,0,0-1.955-14.744c-.981-4.21-1.981-7.231-1.991-7.261a.5.5,0,0,1-.022-.219c.03-.246,2.994-24.635,1.961-31.408C171.525,342.071,171.973,333.365,172.06,331.879Z" fill="#4045ab"/>
              <path id="Trazado_912672" data-name="Trazado 912672" d="M170.119,379.325a.5.5,0,0,1-.476-.348c-.1-.3-9.578-29.966-13.615-38.055a.5.5,0,1,1,.895-.447c4.071,8.157,13.577,37.9,13.673,38.2a.5.5,0,0,1-.476.652Z" fill="#4045ab"/>
              <path id="Trazado_912673" data-name="Trazado 912673" d="M162.629,456.907s-.581,8.3.858,8.527,14.625-9.4,15.926-10.711.3-1.974-1.075-1.87-11.234,1.233-11.234,1.233Z" fill="#4045ab"/>
              <path id="Trazado_912674" data-name="Trazado 912674" d="M178.611,452.342h0a1.818,1.818,0,0,1,1.821.88c.158.381.172,1.012-.666,1.854-.7.707-4.372,3.464-7.85,5.9-7.089,4.963-8.056,4.963-8.374,4.963a.858.858,0,0,1-.135-.01c-.757-.121-1.021-1.1-1.154-1.834a19.318,19.318,0,0,1-.236-3c-.035-2.1.11-4.2.112-4.22a.5.5,0,0,1,.232-.388l4.475-2.821a.5.5,0,0,1,.21-.074c.4-.046,9.888-1.131,11.253-1.235C178.405,452.346,178.51,452.342,178.611,452.342ZM163.58,464.934a10.769,10.769,0,0,0,2.742-1.432c1.336-.824,3.081-1.987,5.045-3.363,3.685-2.581,7.1-5.174,7.691-5.768.429-.431.483-.689.451-.765-.045-.109-.354-.263-.9-.263h0c-.076,0-.156,0-.235.009-1.267.1-10,1.092-11.1,1.218l-4.162,2.624c-.035.581-.112,2.082-.1,3.629C163.048,464.174,163.48,464.827,163.58,464.934Z" fill="#4045ab"/>
              <path id="Trazado_912675" data-name="Trazado 912675" d="M258.219,313.1l-7.579-1.424c1.261-.158,2.523-.307,3.791-.416.444-.039,1.764.333,2.008-.193.764-1.649-3.111-1.606-3.544-1.666l-2.369-.328-5.215-1.516s3.622-1.1,4.433-2.092-.237-2.449-1.667-1.607-3.882.8-5.339,1.071-4.6,3.816-4.6,3.816l-1.546.984L210.9,299.864l-4.57-7.039-8.522,4.491,6.471,11.693,29.512,6.777.04-.085a40.676,40.676,0,0,0,4.96.528c.938.014,5.138.925,6.749.979,1.642.707,6.7,2.827,7.061,2.784.455-.053.9-.344.785-.584-.088-.189-3.682-2.254-4.471-2.938l1.751.284c1.04.392,4.081,1.509,4.744,1.432,1.363-.158.195-1.249.195-1.249L249.23,314l1.388.066c1.056.074,7.164.484,7.705.165.593-.349-.1-1.134-.1-1.134" fill="#fff"/>
              <path id="Trazado_912676" data-name="Trazado 912676" d="M252.591,320.493c-.147,0-.393,0-3.272-1.166-1.369-.555-2.952-1.22-3.89-1.622-.942-.047-2.575-.33-4.021-.581-1.153-.2-2.241-.388-2.622-.394a38.907,38.907,0,0,1-4.659-.476l-.052.111-30.122-6.917-6.826-12.335,9.377-4.942,4.73,7.286,25.305,9.717,1.275-.812c.186-.208.887-.979,1.735-1.786a7.619,7.619,0,0,1,3.1-2.137c.444-.081.965-.134,1.516-.19a9.823,9.823,0,0,0,3.659-.82,2.141,2.141,0,0,1,1.089-.321,1.6,1.6,0,0,1,1.46.909,1.654,1.654,0,0,1-.241,1.766,8.775,8.775,0,0,1-3.16,1.738l3.659,1.064,1.148.159,1.185.164c.035,0,.165.012.279.018,1.579.084,3.111.281,3.629,1.142a1.236,1.236,0,0,1,.021,1.211,1.182,1.182,0,0,1-1.195.574,6.953,6.953,0,0,1-.771-.058,3.133,3.133,0,0,0-.452-.036l-.467.042,4.472.84.114.128a1.687,1.687,0,0,1,.457,1.224.948.948,0,0,1-.474.673c-.162.1-.429.189-1.728.189h0c-1.458,0-3.62-.117-5.015-.2l4.056,1.866.059.055c.189.176.789.8.582,1.431-.127.385-.483.613-1.061.68a1.127,1.127,0,0,1-.131.007,18.1,18.1,0,0,1-3.817-1.088l.435.27c1.724,1.068,1.792,1.126,1.885,1.325a.7.7,0,0,1-.03.645,1.559,1.559,0,0,1-1.15.647A.6.6,0,0,1,252.591,320.493Zm-19.05-5.344.371.059a40.185,40.185,0,0,0,4.889.522,26.586,26.586,0,0,1,2.778.409,38.975,38.975,0,0,0,3.98.57l.094,0,.087.037c2.094.9,6.222,2.607,6.852,2.74l.047-.009c-.327-.211-.8-.5-1.208-.758a32.175,32.175,0,0,1-2.84-1.874l-1.33-1.153,3.538.574.047.018a23.954,23.954,0,0,0,4.494,1.4h.016a1.17,1.17,0,0,0,.187-.035,1.554,1.554,0,0,0-.224-.3l-8.636-3.972,3.971.189c.676.047,4.151.284,6.195.284h0a7.536,7.536,0,0,0,1.208-.057.952.952,0,0,0-.119-.241l-10.531-1.979,3.171-.4c1.138-.143,2.481-.3,3.81-.418a3.733,3.733,0,0,1,.651.038,6.214,6.214,0,0,0,.659.051.972.972,0,0,0,.3-.034c.062-.154.028-.211.013-.236-.042-.069-.248-.31-1.144-.483a12.616,12.616,0,0,0-1.682-.176c-.173-.009-.286-.015-.363-.026l-1.185-.164-1.183-.164-.036,0-.035-.01-6.832-1.986,1.612-.489c1.344-.407,3.67-1.291,4.19-1.929a.656.656,0,0,0,.112-.705.6.6,0,0,0-.556-.338,1.163,1.163,0,0,0-.582.183,10.456,10.456,0,0,1-4.065.953c-.531.054-1.033.105-1.438.179-.938.171-3.143,2.333-4.313,3.655l-.047.053-1.818,1.157-26.079-10.015-4.41-6.792-7.667,4.04,6.116,11.051,28.9,6.637Z" fill="#263238"/>
              <path id="Trazado_912677" data-name="Trazado 912677" d="M245.31,307.558l-1.331,1.152s-.278,3.028-1.589,3.889a2.3,2.3,0,0,1-2.648-.355" fill="#fff"/>
              <path id="Trazado_912678" data-name="Trazado 912678" d="M241.386,313.4a3.133,3.133,0,0,1-1.981-.789.5.5,0,1,1,.673-.74,1.789,1.789,0,0,0,2.037.307c.907-.6,1.293-2.741,1.365-3.517l.019-.2,1.483-1.284a.5.5,0,1,1,.654.756l-1.182,1.023c-.093.767-.484,3.2-1.79,4.058A2.3,2.3,0,0,1,241.386,313.4Z" fill="#263238"/>
              <path id="Trazado_912679" data-name="Trazado 912679" d="M183.37,267.972s11.1,3.8,15.98,9.852S209.88,296.3,209.88,296.3l-13.23,4.247s-3.356-17.845-7.683-23.752a53.651,53.651,0,0,1-5.6-8.825" fill="#fff"/>
              <path id="Trazado_912680" data-name="Trazado 912680" d="M182.461,267.133l1.071.366a55.429,55.429,0,0,1,6.223,2.682c4.556,2.3,7.915,4.762,9.985,7.33,4.863,6.034,10.539,18.46,10.6,18.585l.233.511-14.3,4.592-.1-.557c-.033-.177-3.385-17.8-7.595-23.549a53.719,53.719,0,0,1-5.652-8.921ZM209.189,296c-1.119-2.4-6-12.617-10.228-17.861-2.465-3.059-6.612-5.53-9.656-7.064-2-1.007-3.792-1.752-4.909-2.186a69.327,69.327,0,0,0,4.974,7.614c1.832,2.5,3.7,7.3,5.544,14.259,1.088,4.1,1.848,7.782,2.119,9.141Z" fill="#4045ab"/>
              <path id="Trazado_912681" data-name="Trazado 912681" d="M171.681,269.464s-9.575,5.212-12.383,13.55-14.771,32.026-14.771,32.026a30.942,30.942,0,0,0,13.237,12.855c9.6,5.005,15.185,6.327,15.185,6.327s14.336-18.035,15.116-20.238,10.976-11.753,11.74-20.086-8.614-18.29-11.374-21.82-13.061-4.588-16.75-2.614" fill="#fff"/>
              <path id="Trazado_912682" data-name="Trazado 912682" d="M177.1,267.98h0c4.219,0,9.688,1.186,11.724,3.79.349.446.809,1,1.342,1.644a73.462,73.462,0,0,1,6.673,9.07,29.1,29.1,0,0,1,2.668,5.659,14.4,14.4,0,0,1,.8,5.8c-.246,2.685-1.426,5.683-3.607,9.166a77.584,77.584,0,0,1-5.641,7.62,21.46,21.46,0,0,0-2.519,3.421c-.785,2.217-13.723,18.529-15.2,20.382l-.2.249-.309-.073c-.23-.055-5.753-1.394-15.3-6.37a33.381,33.381,0,0,1-10.375-8.432,24.454,24.454,0,0,1-3.084-4.656l-.1-.22.109-.216c.119-.237,11.98-23.751,14.743-31.96a19.767,19.767,0,0,1,3.2-5.782,30,30,0,0,1,4.195-4.34,33.733,33.733,0,0,1,5.224-3.707A12.668,12.668,0,0,1,177.1,267.98Zm-4.34,65.676c4.113-5.182,14.227-18.125,14.833-19.839a19.068,19.068,0,0,1,2.684-3.717c3.179-3.922,8.5-10.487,9.029-16.248.278-3.03-.842-6.682-3.327-10.856a72.619,72.619,0,0,0-6.584-8.944c-.538-.649-1-1.209-1.36-1.666-1.748-2.236-6.825-3.406-10.936-3.406h0a11.722,11.722,0,0,0-5.183.925,33.424,33.424,0,0,0-5.067,3.6c-2.45,2.1-5.667,5.475-7.078,9.667-2.64,7.842-13.457,29.424-14.686,31.868a25.517,25.517,0,0,0,2.87,4.262A32.379,32.379,0,0,0,158,327.452,79.113,79.113,0,0,0,172.76,333.656Z" fill="#4045ab"/>
              <path id="Trazado_912683" data-name="Trazado 912683" d="M175.777,267.427s-4.624,4.491-4.952,7.167,5.631,17.478,7.334,16.437,2.923-7.9,2.923-7.9,7.505,5.265,9,.612-4.955-15-7.166-16.47-6.356-.452-6.356-.452" fill="#fff"/>
              <path id="Trazado_912684" data-name="Trazado 912684" d="M177.972,291.583a1.146,1.146,0,0,1-.623-.2c-1.579-1.016-3.853-6.4-4.512-8.02-1.272-3.133-2.691-7.324-2.508-8.825.346-2.819,4.906-7.277,5.1-7.465a.352.352,0,1,0,.644-.13.5.5,0,0,1,.367-.6c.178-.044,4.384-1.048,6.751.521,1.265.838,3.475,3.947,5.142,7.23,1.229,2.422,3.153,6.916,2.224,9.809a3.01,3.01,0,0,1-1.932,2.083c-2.315.778-5.774-1.135-7.193-2.021-.139.678-.375,1.744-.69,2.869-.733,2.61-1.492,4.125-2.321,4.633A.857.857,0,0,1,177.972,291.583Zm-1.759-24.4a.5.5,0,0,1-.087.6c-1.251,1.216-4.553,4.819-4.8,6.869-.131,1.076,1,4.859,2.636,8.8a46.5,46.5,0,0,0,2.38,4.993c.993,1.737,1.481,2.064,1.611,2.124.3-.22.992-1.032,1.828-4.01.506-1.8.811-3.5.814-3.519l.137-.772.642.45c1.245.872,4.919,2.988,6.937,2.309a2.037,2.037,0,0,0,1.3-1.44c.6-1.864-.19-5.163-2.164-9.051-1.732-3.412-3.841-6.212-4.8-6.849-2-1.326-5.922-.393-5.961-.383A.5.5,0,0,1,176.213,267.182Z" fill="#4045ab"/>
              <path id="Trazado_912685" data-name="Trazado 912685" d="M169.766,265.517s2.772,8.6,4.847,10.957,7.031,8.2,7.981,7.1.775-15.6.775-15.6Z" fill="#fff"/>
              <path id="Trazado_912686" data-name="Trazado 912686" d="M169.034,264.877l14.83,2.676,0,.413c0,.036.043,3.675-.032,7.4-.044,2.194-.119,3.99-.223,5.339-.183,2.361-.416,2.929-.641,3.191a.9.9,0,0,1-.7.312c-1.307,0-3.759-2.515-7.554-6.859l-.478-.547c-2.119-2.412-4.833-10.778-4.947-11.133Zm13.839,3.514-12.366-2.232c.737,2.168,2.861,8.141,4.481,9.985l.48.549c1.048,1.2,2.483,2.843,3.84,4.207,2,2.007,2.713,2.28,2.924,2.307a10.2,10.2,0,0,0,.394-2.715c.1-1.338.171-3.107.212-5.257C182.9,272.3,182.881,269.432,182.873,268.391Z" fill="#4045ab"/>
              <path id="Trazado_912687" data-name="Trazado 912687" d="M181.188,270.179l-8.812,1.574-2.61-6.236Z" fill="#4045ab"/>
              <path id="Trazado_912688" data-name="Trazado 912688" d="M172.376,272.253a.5.5,0,0,1-.461-.307l-2.61-6.236a.5.5,0,0,1,.65-.656l11.422,4.662a.5.5,0,0,1-.1.955l-8.812,1.574A.5.5,0,0,1,172.376,272.253Zm-1.683-5.818,1.99,4.755,6.72-1.2Z" fill="#4045ab"/>
              <path id="Trazado_912689" data-name="Trazado 912689" d="M170.505,240.989l-5.449,19.137s-2.1-3.125-3.376-.481,1.676,5.889,3.924,6.8a4.2,4.2,0,0,0,4.162-.923s5.443,4.6,9.529,5.665,6.739.581,8.556-1.778,3.991-9.389,2.711-14.911A57.917,57.917,0,0,0,187.2,244.47Z" fill="#fff"/>
              <path id="Trazado_912690" data-name="Trazado 912690" d="M170.152,240.4l17.4,3.627.106.228a59.011,59.011,0,0,1,3.394,10.12,20.625,20.625,0,0,1-.193,8.863,18,18,0,0,1-2.609,6.466,6.306,6.306,0,0,1-5.333,2.509,14.953,14.953,0,0,1-3.745-.552c-3.621-.944-8.159-4.488-9.4-5.5a4.957,4.957,0,0,1-2.874,1.027,3.926,3.926,0,0,1-1.474-.288,8.245,8.245,0,0,1-4.219-4.256,3.971,3.971,0,0,1,.031-3.22c.535-1.112,1.235-1.345,1.728-1.345a2.851,2.851,0,0,1,1.877.993Zm16.7,4.5-15.991-3.334L165.242,261.3l-.6-.893c-.346-.511-1.109-1.322-1.683-1.322-.3,0-.579.262-.827.779a2.96,2.96,0,0,0,0,2.425,7.262,7.262,0,0,0,3.66,3.689,2.931,2.931,0,0,0,1.1.216,4.145,4.145,0,0,0,2.531-1.037l.325-.307.342.287c.054.045,5.4,4.539,9.332,5.563a13.985,13.985,0,0,0,3.493.52,5.3,5.3,0,0,0,4.541-2.119,17.27,17.27,0,0,0,2.425-6.073,19.617,19.617,0,0,0,.195-8.42A58.55,58.55,0,0,0,186.849,244.907Z" fill="#4045ab"/>
              <path id="Trazado_912691" data-name="Trazado 912691" d="M184.544,260.43c-.153,0-.273,0-.347,0a.5.5,0,0,1,.017-1,13.763,13.763,0,0,0,3.074-.233,16.878,16.878,0,0,0-1.3-2.248,40.542,40.542,0,0,1-2.855-5.033,7.912,7.912,0,0,1-.868-4.557,2.741,2.741,0,0,1,.7-1.5l.679.734.008-.007a1.954,1.954,0,0,0-.417,1.052,7.033,7.033,0,0,0,.812,3.866,39.73,39.73,0,0,0,2.787,4.908c1.151,1.807,1.613,2.563,1.465,3.139a.713.713,0,0,1-.35.454A9.893,9.893,0,0,1,184.544,260.43Z" fill="#4045ab"/>
              <path id="Trazado_912692" data-name="Trazado 912692" d="M182.837,264.365c-1.045,0-2.9-.4-5.182-2.621a.5.5,0,0,1,.7-.718,7.9,7.9,0,0,0,3.7,2.253,2.784,2.784,0,0,0,1.364.017l-.006,0,.352.936A2.809,2.809,0,0,1,182.837,264.365Z" fill="#4045ab"/>
              <path id="Trazado_912693" data-name="Trazado 912693" d="M172.588,252.017l-.045,0a.5.5,0,0,1-.453-.54,4.637,4.637,0,0,1,4.1-4.028.5.5,0,1,1,.149.989,3.628,3.628,0,0,0-3.255,3.127A.5.5,0,0,1,172.588,252.017Z" fill="#4045ab"/>
              <path id="Trazado_912694" data-name="Trazado 912694" d="M177.849,254.369c.385.7.329,1.473-.125,1.722s-1.134-.118-1.52-.819-.329-1.473.125-1.722,1.135.117,1.52.819" fill="#4045ab"/>
              <path id="Trazado_912695" data-name="Trazado 912695" d="M186.867,249.711c.385.7.329,1.473-.125,1.722s-1.134-.118-1.52-.819-.329-1.473.125-1.722,1.135.117,1.52.819" fill="#4045ab"/>
              <path id="Trazado_912696" data-name="Trazado 912696" d="M272.62,377.668l-40.08-22.041-40.878,20.521,8.577-44.929L168.09,298.683l45.38-5.727,21.01-40.63,19.469,41.39,45.134,7.426-33.348,31.307Z" fill="#ee4f47"/>
              <path id="Trazado_912697" data-name="Trazado 912697" d="M272.62,378.168a.5.5,0,0,1-.241-.062l-39.85-21.914-40.643,20.4a.5.5,0,0,1-.715-.541l8.528-44.671-31.964-32.349a.5.5,0,0,1,.293-.848l45.119-5.694,20.889-40.4a.5.5,0,0,1,.9.017l19.357,41.152,44.875,7.383a.5.5,0,0,1,.261.858l-33.156,31.127,6.845,44.959a.5.5,0,0,1-.494.575Zm-40.08-23.041a.5.5,0,0,1,.241.062l39.192,21.553-6.733-44.217a.5.5,0,0,1,.152-.44L298,301.471l-44.134-7.262a.5.5,0,0,1-.371-.281l-19.038-40.473-20.545,39.73a.5.5,0,0,1-.382.266l-44.375,5.6,31.437,31.815a.5.5,0,0,1,.135.445l-8.387,43.934,39.973-20.066A.5.5,0,0,1,232.54,355.127Z" fill="#4045ab"/>
              <path id="Trazado_912698" data-name="Trazado 912698" d="M245.48,327.782l-9.46-1.228c1.589-.219,3.18-.427,4.775-.594.559-.058,2.2.288,2.529-.284,1.024-1.8-3.842-1.6-4.384-1.645l-2.962-.258-6.488-1.419s4.591-1.316,5.648-2.412-.2-2.612-2.031-1.655-4.9,1.014-6.745,1.355-5.922,4.264-5.922,4.264l-1.979,1.114-31.871-9.554-5.464-7.356-10.875,5.141,7.667,12.262,36.788,6.1.054-.093a58.812,58.812,0,0,0,6.207.372c1.178-.022,6.415.788,8.436.783,2.033.693,8.3,2.764,8.757,2.7.572-.074,1.14-.4,1.008-.656-.1-.2-4.535-2.269-5.5-2.97l2.187.236c1.29.379,5.065,1.455,5.9,1.347,1.717-.223.294-1.345.294-1.345l-7.892-2.889,1.74.016c1.323.037,8.975.237,9.667-.125.758-.4-.086-1.21-.086-1.21" fill="#fff"/>
              <path id="Trazado_912699" data-name="Trazado 912699" d="M238.137,335.879c-.811,0-7.984-2.423-8.817-2.706-1.161-.009-3.216-.249-5.032-.462-1.446-.169-2.812-.33-3.311-.321-.128,0-.262,0-.4,0-1.816,0-4.14-.2-5.547-.345l-.065.112-37.351-6.192-8.085-12.93,11.754-5.557,5.61,7.552L218.4,324.48l1.739-.979c.6-.577,4.256-4,6.131-4.351.552-.1,1.2-.179,1.891-.26a14.866,14.866,0,0,0,4.713-1.047,2.911,2.911,0,0,1,1.349-.361,1.759,1.759,0,0,1,1.681,1.011,1.629,1.629,0,0,1-.407,1.795,12.785,12.785,0,0,1-4.071,1.977l4.627,1.012,2.93.255c.051,0,.2.007.365.009,2,.028,3.931.185,4.473,1.135a1.2,1.2,0,0,1-.063,1.247c-.3.527-1.013.588-1.524.588-.267,0-.542-.018-.784-.034-.188-.012-.365-.024-.5-.024-.057,0-.09,0-.109,0q-.46.048-.915.1l5.777.75.119.115a1.646,1.646,0,0,1,.545,1.257,1,1,0,0,1-.574.756c-.181.095-.518.27-4.265.27h0c-1.564,0-3.235-.03-4.425-.058l5.191,1.9.063.049c.214.169.9.771.713,1.441-.12.434-.541.7-1.252.793a1.57,1.57,0,0,1-.2.012,31.826,31.826,0,0,1-5.327-1.207c.344.176.691.352,1.017.518,2.11,1.069,2.192,1.128,2.3,1.337a.678.678,0,0,1-.006.635,1.876,1.876,0,0,1-1.381.748A.667.667,0,0,1,238.137,335.879Zm-8.652-3.705.079.027c3.106,1.059,7.939,2.612,8.562,2.677a1.618,1.618,0,0,0,.244-.056c-.4-.215-1-.516-1.513-.777a38.207,38.207,0,0,1-3.482-1.888l-1.516-1.1,4.1.442.043.013a35.2,35.2,0,0,0,5.622,1.334.605.605,0,0,0,.074,0,1.493,1.493,0,0,0,.382-.09,1.559,1.559,0,0,0-.278-.32l-10.531-3.855,4.647.043c.948.026,3.395.088,5.619.088h0a19.407,19.407,0,0,0,3.811-.162.293.293,0,0,0,.036-.023.81.81,0,0,0-.149-.267l-12.981-1.685,3.7-.51c1.408-.194,3.078-.417,4.791-.6a2.065,2.065,0,0,1,.212-.01c.163,0,.356.013.561.026.238.016.484.032.718.032a1.332,1.332,0,0,0,.662-.1c.039-.07.09-.184.056-.243s-.246-.333-1.446-.5a18.086,18.086,0,0,0-2.173-.13c-.211,0-.35,0-.437-.013l-2.994-.261-8.454-1.849,1.9-.546c1.241-.356,4.636-1.459,5.426-2.278a.657.657,0,0,0,.206-.709.784.784,0,0,0-.76-.4,1.956,1.956,0,0,0-.885.247,15.493,15.493,0,0,1-5.06,1.154c-.672.079-1.307.154-1.825.25-1.388.258-4.561,3.071-5.667,4.133l-.046.044-2.22,1.249L186.288,315.9l-5.318-7.16-10,4.725,7.249,11.594,36.225,6.006.043-.074.322.034c1.33.139,3.848.373,5.765.373.132,0,.26,0,.381,0h.059c.588,0,1.885.152,3.387.328,1.824.214,3.891.456,4.981.456Z" fill="#4045ab"/>
              <path id="Trazado_912700" data-name="Trazado 912700" d="M160.809,284.7s-2.28,1.441-.621,8.251,9.876,23.014,9.876,23.014l13.924-6.777s-6.318-17.722-6.1-22.184c.262-5.453-9.788-10.8-12.887-7.986" fill="#fff"/>
              <path id="Trazado_912701" data-name="Trazado 912701" d="M169.841,316.631l-.222-.439c-.337-.664-8.262-16.334-9.916-23.122a13.816,13.816,0,0,1-.3-6.941,3.245,3.245,0,0,1,1.145-1.851l.534.845.01-.007c-.02.014-1.938,1.454-.413,7.717,1.475,6.054,8.3,19.831,9.615,22.467l13.079-6.366c-.98-2.782-6.183-17.78-5.982-21.954.141-2.931-3.014-5.786-6-7.2-2.589-1.222-4.962-1.377-6.047-.394a.5.5,0,1,1-.672-.741,4.239,4.239,0,0,1,3.213-.887,11.268,11.268,0,0,1,3.932,1.117,14.446,14.446,0,0,1,4.6,3.393,6.843,6.843,0,0,1,1.972,4.757c-.208,4.313,6.012,21.816,6.075,21.992l.15.422Z" fill="#4045ab"/>
            </g>
          </g>
        </g>
      </g>
    </g>
  </g>
</svg>
