<svg xmlns="http://www.w3.org/2000/svg" xmlns:xlink="http://www.w3.org/1999/xlink" width="85" height="85" viewBox="0 0 85 85">
  <defs>
    <clipPath id="clip-path">
      <path id="path1839" d="M0-682.665H85v85H0Z" transform="translate(0 682.665)"/>
    </clipPath>
  </defs>
  <g id="g1833" transform="translate(0 682.665)">
    <g id="g1835" transform="translate(0 -682.665)">
      <g id="g1837" clip-path="url(#clip-path)">
        <g id="g1843" transform="translate(17.598)">
          <path id="path1845" d="M-175.1,0A24.911,24.911,0,0,0-200,24.9a24.855,24.855,0,0,0,12.6,21.615l12.3-4.183,12.351,4.183A24.81,24.81,0,0,0-150.195,24.9,24.911,24.911,0,0,0-175.1,0" transform="translate(200)" fill="#f66"/>
        </g>
        <g id="g1847" transform="translate(42.5 0)">
          <path id="path1849" d="M-86.847-327.08A24.81,24.81,0,0,0-74.3-348.7a24.911,24.911,0,0,0-24.9-24.9v42.334Z" transform="translate(99.198 373.598)" fill="#e62e6b"/>
        </g>
        <g id="g1851" transform="translate(32.539 12.451)">
          <path id="path1853" d="M-70.039-140.078A9.972,9.972,0,0,1-80-150.039,9.972,9.972,0,0,1-70.039-160a9.972,9.972,0,0,1,9.961,9.961,9.972,9.972,0,0,1-9.961,9.961" transform="translate(80 160)" fill="#ffe6cc"/>
        </g>
        <g id="g1855" transform="translate(30.077 32.373)">
          <path id="path1857" d="M-174.2-99.454a24.73,24.73,0,0,1-12.351,3.287,24.545,24.545,0,0,1-12.3-3.287,12.393,12.393,0,0,1,12.3-14.144A12.482,12.482,0,0,1-174.2-99.454" transform="translate(198.969 113.598)" fill="#69f"/>
        </g>
        <g id="g1859" transform="translate(0.283 56.803)">
          <path id="path1861" d="M-593.689-75.716-603.932-77.2l-4.582-9.28L-613.1-77.2l-9.115,1.324-9.115-1.324-4.582-9.28-4.582,9.28-9.115,1.324-9.115-1.324-4.582-9.28-4.582,9.28-10.243,1.488,7.412,7.225-1.751,10.2L-663.3-63.1l9.163,4.817-1.751-10.2,6.284-6.125,6.284,6.125-1.751,10.2,9.163-4.817,9.163,4.817-1.751-10.2,6.284-6.125,6.284,6.125-1.751,10.2,9.163-4.817,9.163,4.817-1.751-10.2Z" transform="translate(678.124 86.484)" fill="#ffda45"/>
        </g>
        <g id="g1863" transform="translate(42.5 32.373)">
          <path id="path1865" d="M-86.847-99.454A12.482,12.482,0,0,0-99.2-113.6v17.432a24.73,24.73,0,0,0,12.351-3.287" transform="translate(99.198 113.598)" fill="#66f"/>
        </g>
        <g id="g1867" transform="translate(42.5 12.451)">
          <path id="path1869" d="M-70.039-70.039A9.972,9.972,0,0,0-80-80v19.922a9.972,9.972,0,0,0,9.961-9.961" transform="translate(80 80)" fill="#ffccb3"/>
        </g>
        <g id="g1871" transform="translate(42.5 56.802)">
          <path id="path1873" d="M-64.43-198.267l-1.751-10.2L-59.9-214.6l6.284,6.125-1.751,10.2,9.163-4.818,9.163,4.818-1.751-10.2,7.412-7.225-10.243-1.488-4.582-9.28-4.582,9.28L-59.9-215.86l-9.115-1.324-4.582-9.28v23.38Z" transform="translate(73.593 226.465)" fill="#ffbe40"/>
        </g>
      </g>
    </g>
  </g>
</svg>
