<svg xmlns="http://www.w3.org/2000/svg" xmlns:xlink="http://www.w3.org/1999/xlink" width="85" height="85" viewBox="0 0 85 85">
  <defs>
    <clipPath id="clip-path">
      <rect id="Rectángulo_403066" data-name="Rectángulo 403066" width="85" height="85" transform="translate(1335.385 604)" fill="#fff" stroke="#707070" stroke-width="1"/>
    </clipPath>
  </defs>
  <g id="Enmascarar_grupo_1098717" data-name="Enmascarar grupo 1098717" transform="translate(-1335.385 -604)" clip-path="url(#clip-path)">
    <g id="negociacion-salarial" transform="translate(1332.729 601.344)">
      <g id="Grupo_1101181" data-name="Grupo 1101181">
        <path id="Trazado_912041" data-name="Trazado 912041" d="M15.12,27.867,9.361,36.378a.885.885,0,0,1-1.619-.5V27.867H5.421a3.012,3.012,0,0,1-2.765-3.2V5.853a3.011,3.011,0,0,1,2.765-3.2H34.954a3.011,3.011,0,0,1,2.765,3.2V24.67a3.012,3.012,0,0,1-2.765,3.2Z" fill="#c6ea94" fill-rule="evenodd"/>
        <path id="Trazado_912042" data-name="Trazado 912042" d="M18.926,8.522l-.017-.7a1.24,1.24,0,0,1,2.478-.06l.019.79a6.591,6.591,0,0,1,1.287.508,3.956,3.956,0,0,1,1.442,1.212,1.24,1.24,0,1,1-2.072,1.362,1.439,1.439,0,0,0-.529-.382,3.294,3.294,0,0,0-1.347-.414,1.886,1.886,0,0,0-2.043,1.691,1.886,1.886,0,0,0,2.043,1.691,4.36,4.36,0,0,1,4.522,4.171A4.246,4.246,0,0,1,21.452,22.4l.015.593a1.24,1.24,0,0,1-2.478.061l-.015-.622a5.2,5.2,0,0,1-2.382-1.464,1.24,1.24,0,1,1,1.7-1.8,2.511,2.511,0,0,0,1.9.923,1.887,1.887,0,0,0,2.043-1.691A1.886,1.886,0,0,0,20.187,16.7a4.36,4.36,0,0,1-4.522-4.171,4.245,4.245,0,0,1,3.26-4.007Z" fill="#fdcd56" fill-rule="evenodd"/>
      </g>
      <g id="Grupo_1101183" data-name="Grupo 1101183">
        <path id="Trazado_912043" data-name="Trazado 912043" d="M75.192,27.867l5.759,8.511a.885.885,0,0,0,1.619-.5V27.867h2.322a3.012,3.012,0,0,0,2.765-3.2V5.853a3.011,3.011,0,0,0-2.765-3.2H55.358a3.011,3.011,0,0,0-2.765,3.2V24.67a3.012,3.012,0,0,0,2.765,3.2Z" fill="#afe269" fill-rule="evenodd"/>
        <g id="Grupo_1101182" data-name="Grupo 1101182">
          <path id="Trazado_912044" data-name="Trazado 912044" d="M73.447,7.171a1.24,1.24,0,1,1,2.147,1.24L66.8,23.64a1.24,1.24,0,0,1-2.147-1.24Z" fill="#f76c82" fill-rule="evenodd"/>
          <path id="Trazado_912045" data-name="Trazado 912045" d="M75.115,21.97c-1.234,0-2.234-1.29-2.234-2.88s1-2.88,2.234-2.88,2.234,1.29,2.234,2.88S76.349,21.97,75.115,21.97Z" fill="#f76c82" fill-rule="evenodd"/>
          <path id="Trazado_912046" data-name="Trazado 912046" d="M65.134,14.6c-1.234,0-2.234-1.288-2.234-2.88s1-2.878,2.234-2.878,2.234,1.288,2.234,2.878S66.368,14.6,65.134,14.6Z" fill="#f76c82" fill-rule="evenodd"/>
        </g>
      </g>
      <g id="Grupo_1101184" data-name="Grupo 1101184">
        <path id="Trazado_912047" data-name="Trazado 912047" d="M40.865,46.579l-17.606.02L18.452,68.516,36.663,86.551a3.789,3.789,0,0,0,5.4-5.317l4.991,4.991a3.789,3.789,0,0,0,5.408-5.307l2.968,2.968a3.789,3.789,0,0,0,5.358-5.358l-.443-.441a3.789,3.789,0,0,0,5.923-4.634L67.288,73Z" fill="#efc7a4" fill-rule="evenodd"/>
        <path id="Trazado_912048" data-name="Trazado 912048" d="M61.084,78.865a3.8,3.8,0,0,0-.3-.338l-.442-.441a3.8,3.8,0,0,0,5.354,0L53.225,65.61a1.908,1.908,0,1,0-2.7,2.7ZM52.709,81.2a3.678,3.678,0,0,0-.251-.288l2.968,2.968a3.8,3.8,0,0,0,5.358,0L48.313,71.413a1.908,1.908,0,0,0-2.7,2.7Zm-10.39.325-5.08-5.08a1.913,1.913,0,0,1,0-2.7h0a1.913,1.913,0,0,1,2.7,0L52.409,86.224a3.8,3.8,0,0,1-5.358,0L42.06,81.233a3.8,3.8,0,0,1,.259.3M32.87,82.8l3.793,3.756a3.8,3.8,0,0,0,5.358,0L29.549,74.079a1.908,1.908,0,1,0-2.7,2.7Z" fill="#d5a889" fill-rule="evenodd"/>
        <path id="Trazado_912049" data-name="Trazado 912049" d="M18.229,70.724,23.8,46.381a2.908,2.908,0,0,0-2.179-3.474l-4.481-1.026A2.909,2.909,0,0,0,13.67,44.06L8.095,68.4a2.908,2.908,0,0,0,2.179,3.474L14.755,72.9a2.909,2.909,0,0,0,3.474-2.179" fill="#e6e6e6" fill-rule="evenodd"/>
        <path id="Trazado_912050" data-name="Trazado 912050" d="M67.089,48.021l-3.071,1.323a6.063,6.063,0,0,1-5.526-.307c-7.446-4.161-9.95-6.551-14.2-4.961a10.589,10.589,0,0,0-3.425,2.5c-3.067,3.046-6.55,8-10.5,11.5a.774.774,0,0,0-.048,1.112c4.274,4.5,8.862,2.039,13.413-1.112a6.265,6.265,0,0,1,8.054.726L65.7,72.724a3.755,3.755,0,0,1,.568.728l6.048-2.645Z" fill="#d5a889" fill-rule="evenodd"/>
        <path id="Trazado_912051" data-name="Trazado 912051" d="M72.083,70.724A2.908,2.908,0,0,0,75.557,72.9l4.481-1.026A2.908,2.908,0,0,0,82.217,68.4L76.642,44.06a2.909,2.909,0,0,0-3.474-2.179l-4.481,1.026a2.908,2.908,0,0,0-2.179,3.474Z" fill="#e4e8eb" fill-rule="evenodd"/>
      </g>
    </g>
  </g>
</svg>
