<svg xmlns="http://www.w3.org/2000/svg" width="399.718" height="333" viewBox="0 0 399.718 333">
  <g id="Grupo_1101395" data-name="Grupo 1101395" transform="translate(-1020 -1290.667)">
    <g id="Grupo_1101394" data-name="Grupo 1101394">
      <g id="Grupo_1101393" data-name="Grupo 1101393">
        <g id="Grupo_1101392" data-name="Grupo 1101392">
          <g id="Grupo_1101391" data-name="Grupo 1101391">
            <rect id="Rectángulo_403032" data-name="Rectángulo 403032" width="399.718" height="333" rx="20" transform="translate(1020 1290.667)" fill="#f6ccb3" opacity="0.3"/>
            <g id="Grupo_1101060" data-name="Grupo 1101060" transform="translate(3 -56.333)">
              <g id="Grupo_1101059" data-name="Grupo 1101059">
                <circle id="Elipse_11524" data-name="Elipse 11524" cx="85" cy="85" r="85" transform="translate(1130.718 1396)" fill="#ffbd45" opacity="0.62" style="mix-blend-mode: multiply;isolation: isolate"/>
                <ellipse id="Elipse_11525" data-name="Elipse 11525" cx="85.5" cy="85" rx="85.5" ry="85" transform="translate(1189.718 1483)" fill="#ffbd45" opacity="0.62" style="mix-blend-mode: multiply;isolation: isolate"/>
                <ellipse id="Elipse_11526" data-name="Elipse 11526" cx="85.5" cy="85" rx="85.5" ry="85" transform="translate(1069.718 1483)" fill="#ffbd45" opacity="0.62" style="mix-blend-mode: multiply;isolation: isolate"/>
                <g id="Polígono_5" data-name="Polígono 5" transform="translate(1081.718 1396)" fill="none">
                  <path d="M133.5,0,267,214H0Z" stroke="none"/>
                  <path d="M 133.5 1.889328002929688 L 1.802459716796875 213 L 265.1975402832031 213 L 133.5 1.889328002929688 M 133.5 0 L 267 214 L 0 214 L 133.5 0 Z" stroke="none" fill="#ee4f47"/>
                </g>
                <g id="Elipse_11527" data-name="Elipse 11527" transform="translate(1130.718 1396)" fill="none" stroke="#ee4f47" stroke-width="1">
                  <circle cx="85" cy="85" r="85" stroke="none"/>
                  <circle cx="85" cy="85" r="84.5" fill="none"/>
                </g>
                <g id="Elipse_11528" data-name="Elipse 11528" transform="translate(1189.718 1483)" fill="none" stroke="#ee4f47" stroke-width="1">
                  <ellipse cx="85.5" cy="85" rx="85.5" ry="85" stroke="none"/>
                  <ellipse cx="85.5" cy="85" rx="85" ry="84.5" fill="none"/>
                </g>
                <g id="Elipse_11529" data-name="Elipse 11529" transform="translate(1069.718 1483)" fill="none" stroke="#ee4f47" stroke-width="1">
                  <ellipse cx="85.5" cy="85" rx="85.5" ry="85" stroke="none"/>
                  <ellipse cx="85.5" cy="85" rx="85" ry="84.5" fill="none"/>
                </g>
              </g>
              <path id="Trazado_912805" data-name="Trazado 912805" d="M-19.185-3.507V0h-2.051V-9.953h3.883a4.492,4.492,0,0,1,1.972.41,3.022,3.022,0,0,1,1.309,1.166,3.25,3.25,0,0,1,.458,1.719,2.858,2.858,0,0,1-1,2.307,4.171,4.171,0,0,1-2.772.844Zm0-1.661h1.832a1.8,1.8,0,0,0,1.241-.383,1.392,1.392,0,0,0,.427-1.094,1.642,1.642,0,0,0-.431-1.183,1.609,1.609,0,0,0-1.189-.465h-1.88ZM-8.931.137a3.631,3.631,0,0,1-2.649-1A3.548,3.548,0,0,1-12.6-3.521v-.191A4.468,4.468,0,0,1-12.171-5.7a3.161,3.161,0,0,1,1.22-1.354,3.425,3.425,0,0,1,1.8-.475,3.07,3.07,0,0,1,2.389.957,3.889,3.889,0,0,1,.872,2.714v.807H-10.6a1.835,1.835,0,0,0,.578,1.162,1.746,1.746,0,0,0,1.22.438,2.132,2.132,0,0,0,1.784-.827L-6.046-1.2a2.966,2.966,0,0,1-1.2.981A3.947,3.947,0,0,1-8.931.137Zm-.226-6.07a1.237,1.237,0,0,0-.954.4A2.048,2.048,0,0,0-10.579-4.4h2.748V-4.56a1.46,1.46,0,0,0-.355-1.015A1.277,1.277,0,0,0-9.157-5.934ZM-2.95-7.4l.062.854A2.582,2.582,0,0,1-.762-7.533a2.146,2.146,0,0,1,1.75.69,3.221,3.221,0,0,1,.588,2.064V0H-.4V-4.73a1.282,1.282,0,0,0-.273-.913,1.224,1.224,0,0,0-.909-.284,1.359,1.359,0,0,0-1.251.711V0H-4.809V-7.4ZM7.079-2.044a.637.637,0,0,0-.359-.571,4.077,4.077,0,0,0-1.152-.373Q2.929-3.541,2.929-5.229a2.032,2.032,0,0,1,.817-1.644,3.3,3.3,0,0,1,2.136-.66,3.547,3.547,0,0,1,2.252.663,2.09,2.09,0,0,1,.844,1.723H7a.956.956,0,0,0-.273-.7,1.157,1.157,0,0,0-.854-.277A1.182,1.182,0,0,0,5.1-5.9a.712.712,0,0,0-.273.574.609.609,0,0,0,.311.53,3.2,3.2,0,0,0,1.049.349,8.571,8.571,0,0,1,1.244.332A2.044,2.044,0,0,1,9-2.126,1.929,1.929,0,0,1,8.131-.489,3.745,3.745,0,0,1,5.889.137,3.912,3.912,0,0,1,4.238-.195,2.77,2.77,0,0,1,3.107-1.1,2.113,2.113,0,0,1,2.7-2.352H4.57a1.031,1.031,0,0,0,.39.807,1.546,1.546,0,0,0,.971.28,1.43,1.43,0,0,0,.858-.215A.67.67,0,0,0,7.079-2.044ZM14.557,0a2.194,2.194,0,0,1-.2-.663,2.39,2.39,0,0,1-1.866.8,2.626,2.626,0,0,1-1.8-.629,2.023,2.023,0,0,1-.714-1.586,2.09,2.09,0,0,1,.872-1.8,4.3,4.3,0,0,1,2.519-.636h.909v-.424a1.219,1.219,0,0,0-.263-.82,1.035,1.035,0,0,0-.831-.308,1.177,1.177,0,0,0-.783.239.813.813,0,0,0-.284.656H10.141a1.984,1.984,0,0,1,.4-1.189,2.621,2.621,0,0,1,1.121-.858,4.086,4.086,0,0,1,1.627-.311,3.228,3.228,0,0,1,2.17.687,2.4,2.4,0,0,1,.8,1.931v3.206a3.536,3.536,0,0,0,.294,1.593V0ZM12.923-1.374a1.7,1.7,0,0,0,.807-.195,1.28,1.28,0,0,0,.547-.523V-3.363h-.738q-1.483,0-1.579,1.025l-.007.116a.791.791,0,0,0,.26.608A1.009,1.009,0,0,0,12.923-1.374Zm9.01-4.17a5.367,5.367,0,0,0-.711-.055,1.447,1.447,0,0,0-1.47.759V0H17.777V-7.4h1.866l.055.882a1.831,1.831,0,0,1,1.647-1.019,2.07,2.07,0,0,1,.615.089Z" transform="translate(1215.218 1387)" fill="#12263f"/>
              <path id="Trazado_912811" data-name="Trazado 912811" d="M-12.732-2.611a1.052,1.052,0,0,0-.41-.892,5.38,5.38,0,0,0-1.477-.656,10.467,10.467,0,0,1-1.688-.68A2.759,2.759,0,0,1-18-7.308a2.4,2.4,0,0,1,.455-1.439,2.965,2.965,0,0,1,1.306-.988,4.914,4.914,0,0,1,1.911-.355,4.473,4.473,0,0,1,1.9.386,3.026,3.026,0,0,1,1.3,1.09,2.853,2.853,0,0,1,.461,1.6h-2.051a1.342,1.342,0,0,0-.431-1.063,1.77,1.77,0,0,0-1.21-.379,1.891,1.891,0,0,0-1.169.318,1,1,0,0,0-.417.837.96.96,0,0,0,.489.813,5.522,5.522,0,0,0,1.439.615,6.217,6.217,0,0,1,2.55,1.306,2.6,2.6,0,0,1,.8,1.941A2.4,2.4,0,0,1-11.652-.6a4.279,4.279,0,0,1-2.632.735,5.082,5.082,0,0,1-2.092-.42,3.31,3.31,0,0,1-1.439-1.152,2.95,2.95,0,0,1-.5-1.7h2.058q0,1.647,1.969,1.647a1.915,1.915,0,0,0,1.142-.3A.967.967,0,0,0-12.732-2.611ZM-6.012.137a3.631,3.631,0,0,1-2.649-1A3.548,3.548,0,0,1-9.683-3.521v-.191A4.468,4.468,0,0,1-9.252-5.7a3.161,3.161,0,0,1,1.22-1.354,3.425,3.425,0,0,1,1.8-.475,3.07,3.07,0,0,1,2.389.957A3.889,3.889,0,0,1-2.97-3.862v.807H-7.68A1.835,1.835,0,0,0-7.1-1.894a1.746,1.746,0,0,0,1.22.438A2.132,2.132,0,0,0-4.1-2.283L-3.127-1.2a2.966,2.966,0,0,1-1.2.981A3.947,3.947,0,0,1-6.012.137Zm-.226-6.07a1.237,1.237,0,0,0-.954.4A2.048,2.048,0,0,0-7.66-4.4h2.748V-4.56a1.46,1.46,0,0,0-.355-1.015A1.277,1.277,0,0,0-6.238-5.934ZM-.031-7.4l.062.854a2.582,2.582,0,0,1,2.126-.991,2.146,2.146,0,0,1,1.75.69,3.221,3.221,0,0,1,.588,2.064V0H2.519V-4.73a1.282,1.282,0,0,0-.273-.913,1.224,1.224,0,0,0-.909-.284,1.359,1.359,0,0,0-1.251.711V0H-1.89V-7.4ZM8.357-9.215V-7.4H9.622v1.449H8.357v3.691a.881.881,0,0,0,.157.588.79.79,0,0,0,.6.178A3.151,3.151,0,0,0,9.7-1.538v1.5A4.067,4.067,0,0,1,8.5.137a1.886,1.886,0,0,1-2.119-2.1V-5.947H5.3V-7.4h1.08V-9.215ZM12.807,0H10.825V-7.4h1.982Zm-2.1-9.311a.973.973,0,0,1,.3-.731,1.117,1.117,0,0,1,.81-.287,1.12,1.12,0,0,1,.807.287.967.967,0,0,1,.3.731.97.97,0,0,1-.3.738,1.122,1.122,0,0,1-.8.287,1.122,1.122,0,0,1-.8-.287A.97.97,0,0,1,10.708-9.311ZM18.59-5.544a5.367,5.367,0,0,0-.711-.055,1.447,1.447,0,0,0-1.47.759V0H14.434V-7.4H16.3l.055.882A1.831,1.831,0,0,1,18-7.533a2.07,2.07,0,0,1,.615.089Z" transform="translate(1050.718 1606)" fill="#12263f"/>
              <path id="Trazado_912810" data-name="Trazado 912810" d="M-14.441-2.051h-3.6L-18.72,0H-20.9L-17.2-9.953h1.9L-11.57,0H-13.75Zm-3.042-1.661h2.488l-1.251-3.726Zm9.789,2.256a1.3,1.3,0,0,0,.889-.3,1.054,1.054,0,0,0,.355-.8H-4.6a2.534,2.534,0,0,1-.41,1.377,2.706,2.706,0,0,1-1.1.971A3.455,3.455,0,0,1-7.66.137a3.211,3.211,0,0,1-2.5-1.008,3.99,3.99,0,0,1-.916-2.786v-.13a3.944,3.944,0,0,1,.909-2.728,3.174,3.174,0,0,1,2.5-1.019,3.111,3.111,0,0,1,2.225.79,2.8,2.8,0,0,1,.851,2.1H-6.45a1.346,1.346,0,0,0-.355-.933,1.188,1.188,0,0,0-.9-.359,1.19,1.19,0,0,0-1.042.5A2.908,2.908,0,0,0-9.1-3.8V-3.6a2.945,2.945,0,0,0,.349,1.641A1.205,1.205,0,0,0-7.694-1.456ZM-1.1-9.215V-7.4H.161v1.449H-1.1v3.691a.881.881,0,0,0,.157.588.79.79,0,0,0,.6.178,3.151,3.151,0,0,0,.581-.048v1.5A4.067,4.067,0,0,1-.96.137a1.886,1.886,0,0,1-2.119-2.1V-5.947H-4.16V-7.4h1.08V-9.215ZM5.691-.752A2.477,2.477,0,0,1,3.667.137,2.337,2.337,0,0,1,1.853-.547a2.918,2.918,0,0,1-.639-2V-7.4H3.189v4.778q0,1.155,1.053,1.155a1.427,1.427,0,0,0,1.381-.7V-7.4H7.6V0H5.746ZM13.381,0a2.194,2.194,0,0,1-.2-.663,2.39,2.39,0,0,1-1.866.8,2.626,2.626,0,0,1-1.8-.629A2.023,2.023,0,0,1,8.8-2.078a2.09,2.09,0,0,1,.872-1.8,4.3,4.3,0,0,1,2.519-.636H13.1v-.424a1.219,1.219,0,0,0-.263-.82,1.035,1.035,0,0,0-.831-.308,1.177,1.177,0,0,0-.783.239.813.813,0,0,0-.284.656H8.965a1.984,1.984,0,0,1,.4-1.189,2.621,2.621,0,0,1,1.121-.858,4.086,4.086,0,0,1,1.627-.311,3.228,3.228,0,0,1,2.17.687,2.4,2.4,0,0,1,.8,1.931v3.206a3.536,3.536,0,0,0,.294,1.593V0ZM11.748-1.374a1.7,1.7,0,0,0,.807-.195,1.28,1.28,0,0,0,.547-.523V-3.363h-.738q-1.483,0-1.579,1.025l-.007.116a.791.791,0,0,0,.26.608A1.009,1.009,0,0,0,11.748-1.374Zm9.01-4.17a5.367,5.367,0,0,0-.711-.055,1.447,1.447,0,0,0-1.47.759V0H16.6V-7.4h1.866l.055.882a1.831,1.831,0,0,1,1.647-1.019,2.07,2.07,0,0,1,.615.089Z" transform="translate(1381.718 1606)" fill="#12263f"/>
              <path id="Trazado_912806" data-name="Trazado 912806" d="M-33.151,0V-9.953h3.063a4.651,4.651,0,0,1,2.348.591A4.123,4.123,0,0,1-26.124-7.68,5.187,5.187,0,0,1-25.542-5.2v.458a5.2,5.2,0,0,1-.571,2.468A4.088,4.088,0,0,1-27.723-.6a4.686,4.686,0,0,1-2.345.6ZM-31.1-8.292v6.645h.991a2.227,2.227,0,0,0,1.839-.786,3.552,3.552,0,0,0,.649-2.249v-.526a3.609,3.609,0,0,0-.629-2.3,2.219,2.219,0,0,0-1.839-.783ZM-20.778.137a3.631,3.631,0,0,1-2.649-1,3.548,3.548,0,0,1-1.022-2.659v-.191A4.468,4.468,0,0,1-24.018-5.7,3.161,3.161,0,0,1-22.8-7.058,3.425,3.425,0,0,1-21-7.533a3.07,3.07,0,0,1,2.389.957,3.889,3.889,0,0,1,.872,2.714v.807h-4.71a1.835,1.835,0,0,0,.578,1.162,1.746,1.746,0,0,0,1.22.438,2.132,2.132,0,0,0,1.784-.827l.971,1.087a2.966,2.966,0,0,1-1.2.981A3.947,3.947,0,0,1-20.778.137ZM-21-5.934a1.237,1.237,0,0,0-.954.4A2.048,2.048,0,0,0-22.425-4.4h2.748V-4.56a1.46,1.46,0,0,0-.355-1.015A1.277,1.277,0,0,0-21-5.934Zm8.395,3.89a.637.637,0,0,0-.359-.571,4.077,4.077,0,0,0-1.152-.373q-2.639-.554-2.639-2.242a2.032,2.032,0,0,1,.817-1.644,3.3,3.3,0,0,1,2.136-.66,3.547,3.547,0,0,1,2.252.663,2.09,2.09,0,0,1,.844,1.723h-1.976a.956.956,0,0,0-.273-.7,1.157,1.157,0,0,0-.854-.277,1.182,1.182,0,0,0-.772.226.712.712,0,0,0-.273.574.609.609,0,0,0,.311.53,3.2,3.2,0,0,0,1.049.349,8.571,8.571,0,0,1,1.244.332,2.044,2.044,0,0,1,1.565,1.989,1.929,1.929,0,0,1-.868,1.637A3.745,3.745,0,0,1-13.8.137a3.912,3.912,0,0,1-1.651-.332A2.77,2.77,0,0,1-16.581-1.1a2.113,2.113,0,0,1-.41-1.248h1.873a1.031,1.031,0,0,0,.39.807,1.546,1.546,0,0,0,.971.28A1.43,1.43,0,0,0-12.9-1.48.67.67,0,0,0-12.609-2.044ZM-5.13,0a2.194,2.194,0,0,1-.2-.663,2.39,2.39,0,0,1-1.866.8A2.626,2.626,0,0,1-9-.492,2.023,2.023,0,0,1-9.71-2.078a2.09,2.09,0,0,1,.872-1.8A4.3,4.3,0,0,1-6.32-4.519h.909v-.424a1.219,1.219,0,0,0-.263-.82A1.035,1.035,0,0,0-6.5-6.07a1.177,1.177,0,0,0-.783.239.813.813,0,0,0-.284.656H-9.546a1.984,1.984,0,0,1,.4-1.189,2.621,2.621,0,0,1,1.121-.858A4.086,4.086,0,0,1-6.4-7.533a3.228,3.228,0,0,1,2.17.687,2.4,2.4,0,0,1,.8,1.931v3.206A3.536,3.536,0,0,0-3.134-.116V0ZM-6.764-1.374a1.7,1.7,0,0,0,.807-.195,1.28,1.28,0,0,0,.547-.523V-3.363h-.738q-1.483,0-1.579,1.025l-.007.116a.791.791,0,0,0,.26.608A1.009,1.009,0,0,0-6.764-1.374Zm9.01-4.17A5.367,5.367,0,0,0,1.535-5.6a1.447,1.447,0,0,0-1.47.759V0H-1.911V-7.4H-.044l.055.882A1.831,1.831,0,0,1,1.658-7.533a2.07,2.07,0,0,1,.615.089Zm5.106,0A5.367,5.367,0,0,0,6.641-5.6a1.447,1.447,0,0,0-1.47.759V0H3.2V-7.4H5.062l.055.882A1.831,1.831,0,0,1,6.764-7.533a2.07,2.07,0,0,1,.615.089Zm.4,1.777a4.387,4.387,0,0,1,.424-1.962,3.1,3.1,0,0,1,1.22-1.333,3.56,3.56,0,0,1,1.849-.472,3.368,3.368,0,0,1,2.444.916,3.676,3.676,0,0,1,1.056,2.488l.014.506a3.866,3.866,0,0,1-.95,2.731A3.3,3.3,0,0,1,11.255.137,3.319,3.319,0,0,1,8.7-.889a3.934,3.934,0,0,1-.954-2.789Zm1.976.144a2.757,2.757,0,0,0,.4,1.61,1.309,1.309,0,0,0,1.135.557,1.312,1.312,0,0,0,1.121-.55,3.017,3.017,0,0,0,.4-1.76,2.73,2.73,0,0,0-.4-1.6,1.312,1.312,0,0,0-1.135-.567,1.29,1.29,0,0,0-1.121.564A3.068,3.068,0,0,0,9.724-3.623ZM18.057,0H16.075V-10.5h1.982Zm3.712,0H19.787V-10.5h1.982Zm1.319-3.767a4.387,4.387,0,0,1,.424-1.962,3.1,3.1,0,0,1,1.22-1.333,3.56,3.56,0,0,1,1.849-.472,3.368,3.368,0,0,1,2.444.916,3.676,3.676,0,0,1,1.056,2.488l.014.506a3.866,3.866,0,0,1-.95,2.731A3.3,3.3,0,0,1,26.6.137,3.319,3.319,0,0,1,24.042-.889a3.934,3.934,0,0,1-.954-2.789Zm1.976.144a2.757,2.757,0,0,0,.4,1.61,1.309,1.309,0,0,0,1.135.557,1.312,1.312,0,0,0,1.121-.55,3.017,3.017,0,0,0,.4-1.76,2.73,2.73,0,0,0-.4-1.6,1.312,1.312,0,0,0-1.135-.567,1.29,1.29,0,0,0-1.121.564A3.068,3.068,0,0,0,25.064-3.623ZM-25.211,13.544a1.3,1.3,0,0,0,.889-.3,1.054,1.054,0,0,0,.355-.8h1.853a2.534,2.534,0,0,1-.41,1.377,2.706,2.706,0,0,1-1.1.971,3.455,3.455,0,0,1-1.548.345,3.211,3.211,0,0,1-2.5-1.008,3.99,3.99,0,0,1-.916-2.786v-.13a3.944,3.944,0,0,1,.909-2.728,3.174,3.174,0,0,1,2.5-1.019,3.111,3.111,0,0,1,2.225.79,2.8,2.8,0,0,1,.851,2.1h-1.853a1.346,1.346,0,0,0-.355-.933,1.188,1.188,0,0,0-.9-.359,1.19,1.19,0,0,0-1.042.5,2.908,2.908,0,0,0-.352,1.63V11.4a2.945,2.945,0,0,0,.349,1.641A1.205,1.205,0,0,0-25.211,13.544Zm3.917-2.311a4.387,4.387,0,0,1,.424-1.962,3.1,3.1,0,0,1,1.22-1.333A3.56,3.56,0,0,1-17.8,7.467a3.368,3.368,0,0,1,2.444.916A3.676,3.676,0,0,1-14.3,10.871l.014.506a3.866,3.866,0,0,1-.95,2.731,3.3,3.3,0,0,1-2.55,1.029,3.319,3.319,0,0,1-2.553-1.025,3.934,3.934,0,0,1-.954-2.789Zm1.976.144a2.757,2.757,0,0,0,.4,1.61,1.309,1.309,0,0,0,1.135.557,1.312,1.312,0,0,0,1.121-.55,3.017,3.017,0,0,0,.4-1.76,2.73,2.73,0,0,0-.4-1.6A1.312,1.312,0,0,0-17.8,9.066a1.29,1.29,0,0,0-1.121.564A3.068,3.068,0,0,0-19.318,11.377Zm5.961-.13a4.335,4.335,0,0,1,.81-2.741,2.625,2.625,0,0,1,2.184-1.039A2.3,2.3,0,0,1-8.47,8.3l.082-.7H-6.6v7.15a3.161,3.161,0,0,1-.441,1.688,2.832,2.832,0,0,1-1.241,1.094,4.362,4.362,0,0,1-1.873.376,4.056,4.056,0,0,1-1.586-.325,2.815,2.815,0,0,1-1.169-.837l.875-1.2a2.314,2.314,0,0,0,1.791.827,1.694,1.694,0,0,0,1.224-.42,1.577,1.577,0,0,0,.438-1.193v-.4a2.285,2.285,0,0,1-1.8.772,2.618,2.618,0,0,1-2.157-1.042,4.334,4.334,0,0,1-.824-2.765Zm1.976.144a2.692,2.692,0,0,0,.4,1.576,1.284,1.284,0,0,0,1.107.571,1.372,1.372,0,0,0,1.292-.677V9.75a1.369,1.369,0,0,0-1.278-.677,1.292,1.292,0,0,0-1.118.581A3.034,3.034,0,0,0-11.382,11.391ZM-3.261,7.6l.062.854a2.582,2.582,0,0,1,2.126-.991,2.146,2.146,0,0,1,1.75.69,3.221,3.221,0,0,1,.588,2.064V15H-.711V10.27a1.282,1.282,0,0,0-.273-.913,1.224,1.224,0,0,0-.909-.284,1.359,1.359,0,0,0-1.251.711V15H-5.12V7.6ZM4.847,15H2.864V7.6H4.847Zm-2.1-9.311a.973.973,0,0,1,.3-.731,1.117,1.117,0,0,1,.81-.287,1.12,1.12,0,0,1,.807.287.967.967,0,0,1,.3.731.97.97,0,0,1-.3.738,1.122,1.122,0,0,1-.8.287,1.122,1.122,0,0,1-.8-.287A.97.97,0,0,1,2.748,5.689Zm6.091.1V7.6H10.1V9.053H8.839v3.691A.881.881,0,0,0,9,13.332a.79.79,0,0,0,.6.178,3.15,3.15,0,0,0,.581-.048v1.5a4.067,4.067,0,0,1-1.2.178,1.886,1.886,0,0,1-2.119-2.1V9.053H5.783V7.6h1.08V5.785ZM13.289,15H11.307V7.6h1.982Zm-2.1-9.311a.973.973,0,0,1,.3-.731,1.281,1.281,0,0,1,1.617,0,.967.967,0,0,1,.3.731.97.97,0,0,1-.3.738,1.267,1.267,0,0,1-1.606,0A.97.97,0,0,1,11.19,5.689Zm6.494,6.9L19.059,7.6h2.064l-2.5,7.4H16.741l-2.5-7.4h2.064Zm3.9-1.354A4.387,4.387,0,0,1,22,9.271a3.1,3.1,0,0,1,1.22-1.333,3.56,3.56,0,0,1,1.849-.472,3.368,3.368,0,0,1,2.444.916,3.676,3.676,0,0,1,1.056,2.488l.014.506a3.866,3.866,0,0,1-.95,2.731,3.3,3.3,0,0,1-2.55,1.029,3.319,3.319,0,0,1-2.553-1.025,3.934,3.934,0,0,1-.954-2.789Zm1.976.144a2.757,2.757,0,0,0,.4,1.61,1.426,1.426,0,0,0,2.256.007,3.017,3.017,0,0,0,.4-1.76,2.73,2.73,0,0,0-.4-1.6,1.312,1.312,0,0,0-1.135-.567,1.29,1.29,0,0,0-1.121.564A3.068,3.068,0,0,0,23.557,11.377Z" transform="translate(1214 1470)" fill="#12263f"/>
              <path id="Trazado_912808" data-name="Trazado 912808" d="M-3.5,0H-6.574V-12.8H-3.5ZM6.583-5.423H1.731v3.05h5.73V0H-1.354V-12.8H7.479v2.382H1.731v2.7H6.583Z" transform="translate(1213.718 1548)" fill="#12263f"/>
              <path id="Trazado_912807" data-name="Trazado 912807" d="M-33.151,0V-9.953h3.063a4.651,4.651,0,0,1,2.348.591A4.123,4.123,0,0,1-26.124-7.68,5.187,5.187,0,0,1-25.542-5.2v.458a5.2,5.2,0,0,1-.571,2.468A4.088,4.088,0,0,1-27.723-.6a4.686,4.686,0,0,1-2.345.6ZM-31.1-8.292v6.645h.991a2.227,2.227,0,0,0,1.839-.786,3.552,3.552,0,0,0,.649-2.249v-.526a3.609,3.609,0,0,0-.629-2.3,2.219,2.219,0,0,0-1.839-.783ZM-20.778.137a3.631,3.631,0,0,1-2.649-1,3.548,3.548,0,0,1-1.022-2.659v-.191A4.468,4.468,0,0,1-24.018-5.7,3.161,3.161,0,0,1-22.8-7.058,3.425,3.425,0,0,1-21-7.533a3.07,3.07,0,0,1,2.389.957,3.889,3.889,0,0,1,.872,2.714v.807h-4.71a1.835,1.835,0,0,0,.578,1.162,1.746,1.746,0,0,0,1.22.438,2.132,2.132,0,0,0,1.784-.827l.971,1.087a2.966,2.966,0,0,1-1.2.981A3.947,3.947,0,0,1-20.778.137ZM-21-5.934a1.237,1.237,0,0,0-.954.4A2.048,2.048,0,0,0-22.425-4.4h2.748V-4.56a1.46,1.46,0,0,0-.355-1.015A1.277,1.277,0,0,0-21-5.934Zm8.395,3.89a.637.637,0,0,0-.359-.571,4.077,4.077,0,0,0-1.152-.373q-2.639-.554-2.639-2.242a2.032,2.032,0,0,1,.817-1.644,3.3,3.3,0,0,1,2.136-.66,3.547,3.547,0,0,1,2.252.663,2.09,2.09,0,0,1,.844,1.723h-1.976a.956.956,0,0,0-.273-.7,1.157,1.157,0,0,0-.854-.277,1.182,1.182,0,0,0-.772.226.712.712,0,0,0-.273.574.609.609,0,0,0,.311.53,3.2,3.2,0,0,0,1.049.349,8.571,8.571,0,0,1,1.244.332,2.044,2.044,0,0,1,1.565,1.989,1.929,1.929,0,0,1-.868,1.637A3.745,3.745,0,0,1-13.8.137a3.912,3.912,0,0,1-1.651-.332A2.77,2.77,0,0,1-16.581-1.1a2.113,2.113,0,0,1-.41-1.248h1.873a1.031,1.031,0,0,0,.39.807,1.546,1.546,0,0,0,.971.28A1.43,1.43,0,0,0-12.9-1.48.67.67,0,0,0-12.609-2.044ZM-5.13,0a2.194,2.194,0,0,1-.2-.663,2.39,2.39,0,0,1-1.866.8A2.626,2.626,0,0,1-9-.492,2.023,2.023,0,0,1-9.71-2.078a2.09,2.09,0,0,1,.872-1.8A4.3,4.3,0,0,1-6.32-4.519h.909v-.424a1.219,1.219,0,0,0-.263-.82A1.035,1.035,0,0,0-6.5-6.07a1.177,1.177,0,0,0-.783.239.813.813,0,0,0-.284.656H-9.546a1.984,1.984,0,0,1,.4-1.189,2.621,2.621,0,0,1,1.121-.858A4.086,4.086,0,0,1-6.4-7.533a3.228,3.228,0,0,1,2.17.687,2.4,2.4,0,0,1,.8,1.931v3.206A3.536,3.536,0,0,0-3.134-.116V0ZM-6.764-1.374a1.7,1.7,0,0,0,.807-.195,1.28,1.28,0,0,0,.547-.523V-3.363h-.738q-1.483,0-1.579,1.025l-.007.116a.791.791,0,0,0,.26.608A1.009,1.009,0,0,0-6.764-1.374Zm9.01-4.17A5.367,5.367,0,0,0,1.535-5.6a1.447,1.447,0,0,0-1.47.759V0H-1.911V-7.4H-.044l.055.882A1.831,1.831,0,0,1,1.658-7.533a2.07,2.07,0,0,1,.615.089Zm5.106,0A5.367,5.367,0,0,0,6.641-5.6a1.447,1.447,0,0,0-1.47.759V0H3.2V-7.4H5.062l.055.882A1.831,1.831,0,0,1,6.764-7.533a2.07,2.07,0,0,1,.615.089Zm.4,1.777a4.387,4.387,0,0,1,.424-1.962,3.1,3.1,0,0,1,1.22-1.333,3.56,3.56,0,0,1,1.849-.472,3.368,3.368,0,0,1,2.444.916,3.676,3.676,0,0,1,1.056,2.488l.014.506a3.866,3.866,0,0,1-.95,2.731A3.3,3.3,0,0,1,11.255.137,3.319,3.319,0,0,1,8.7-.889a3.934,3.934,0,0,1-.954-2.789Zm1.976.144a2.757,2.757,0,0,0,.4,1.61,1.309,1.309,0,0,0,1.135.557,1.312,1.312,0,0,0,1.121-.55,3.017,3.017,0,0,0,.4-1.76,2.73,2.73,0,0,0-.4-1.6,1.312,1.312,0,0,0-1.135-.567,1.29,1.29,0,0,0-1.121.564A3.068,3.068,0,0,0,9.724-3.623ZM18.057,0H16.075V-10.5h1.982Zm3.712,0H19.787V-10.5h1.982Zm1.319-3.767a4.387,4.387,0,0,1,.424-1.962,3.1,3.1,0,0,1,1.22-1.333,3.56,3.56,0,0,1,1.849-.472,3.368,3.368,0,0,1,2.444.916,3.676,3.676,0,0,1,1.056,2.488l.014.506a3.866,3.866,0,0,1-.95,2.731A3.3,3.3,0,0,1,26.6.137,3.319,3.319,0,0,1,24.042-.889a3.934,3.934,0,0,1-.954-2.789Zm1.976.144a2.757,2.757,0,0,0,.4,1.61,1.309,1.309,0,0,0,1.135.557,1.312,1.312,0,0,0,1.121-.55,3.017,3.017,0,0,0,.4-1.76,2.73,2.73,0,0,0-.4-1.6,1.312,1.312,0,0,0-1.135-.567,1.29,1.29,0,0,0-1.121.564A3.068,3.068,0,0,0,25.064-3.623Zm-53.7,18.76a3.631,3.631,0,0,1-2.649-1A3.548,3.548,0,0,1-32.3,11.479v-.191A4.468,4.468,0,0,1-31.873,9.3a3.161,3.161,0,0,1,1.22-1.354,3.425,3.425,0,0,1,1.8-.475,3.07,3.07,0,0,1,2.389.957,3.889,3.889,0,0,1,.872,2.714v.807H-30.3a1.835,1.835,0,0,0,.578,1.162,1.746,1.746,0,0,0,1.22.438,2.132,2.132,0,0,0,1.784-.827l.971,1.087a2.966,2.966,0,0,1-1.2.981A3.947,3.947,0,0,1-28.632,15.137Zm-.226-6.07a1.237,1.237,0,0,0-.954.4A2.048,2.048,0,0,0-30.28,10.6h2.748V10.44a1.46,1.46,0,0,0-.355-1.015A1.277,1.277,0,0,0-28.858,9.066ZM-22.617,7.6l.062.827a2.6,2.6,0,0,1,2.126-.964,1.973,1.973,0,0,1,1.962,1.128,2.54,2.54,0,0,1,2.222-1.128,2.206,2.206,0,0,1,1.791.7,3.221,3.221,0,0,1,.588,2.109V15h-1.982V10.283a1.408,1.408,0,0,0-.246-.919,1.091,1.091,0,0,0-.868-.291,1.233,1.233,0,0,0-1.23.848L-18.187,15h-1.976V10.29a1.391,1.391,0,0,0-.253-.93,1.1,1.1,0,0,0-.861-.287,1.28,1.28,0,0,0-1.217.7V15h-1.976V7.6Zm9.96,3.63a4.387,4.387,0,0,1,.424-1.962,3.1,3.1,0,0,1,1.22-1.333,3.56,3.56,0,0,1,1.849-.472,3.368,3.368,0,0,1,2.444.916,3.676,3.676,0,0,1,1.056,2.488l.014.506a3.866,3.866,0,0,1-.95,2.731,3.3,3.3,0,0,1-2.55,1.029A3.319,3.319,0,0,1-11.7,14.111a3.934,3.934,0,0,1-.954-2.789Zm1.976.144a2.757,2.757,0,0,0,.4,1.61,1.309,1.309,0,0,0,1.135.557,1.312,1.312,0,0,0,1.121-.55,3.017,3.017,0,0,0,.4-1.76,2.73,2.73,0,0,0-.4-1.6,1.312,1.312,0,0,0-1.135-.567,1.29,1.29,0,0,0-1.121.564A3.068,3.068,0,0,0-10.681,11.377Zm9.324,2.167a1.3,1.3,0,0,0,.889-.3,1.054,1.054,0,0,0,.355-.8H1.74a2.534,2.534,0,0,1-.41,1.377,2.706,2.706,0,0,1-1.1.971,3.455,3.455,0,0,1-1.548.345,3.211,3.211,0,0,1-2.5-1.008,3.99,3.99,0,0,1-.916-2.786v-.13a3.944,3.944,0,0,1,.909-2.728,3.174,3.174,0,0,1,2.5-1.019,3.111,3.111,0,0,1,2.225.79,2.8,2.8,0,0,1,.851,2.1H-.113a1.346,1.346,0,0,0-.355-.933,1.188,1.188,0,0,0-.9-.359,1.19,1.19,0,0,0-1.042.5,2.908,2.908,0,0,0-.352,1.63V11.4a2.945,2.945,0,0,0,.349,1.641A1.205,1.205,0,0,0-1.357,13.544ZM4.953,15H2.97V7.6H4.953Zm-2.1-9.311a.973.973,0,0,1,.3-.731,1.117,1.117,0,0,1,.81-.287,1.12,1.12,0,0,1,.807.287.967.967,0,0,1,.3.731.97.97,0,0,1-.3.738,1.122,1.122,0,0,1-.8.287,1.122,1.122,0,0,1-.8-.287A.97.97,0,0,1,2.854,5.689Zm3.418,5.544A4.387,4.387,0,0,1,6.7,9.271a3.1,3.1,0,0,1,1.22-1.333,3.56,3.56,0,0,1,1.849-.472,3.368,3.368,0,0,1,2.444.916,3.676,3.676,0,0,1,1.056,2.488l.014.506a3.866,3.866,0,0,1-.95,2.731,3.3,3.3,0,0,1-2.55,1.029,3.319,3.319,0,0,1-2.553-1.025,3.934,3.934,0,0,1-.954-2.789Zm1.976.144a2.757,2.757,0,0,0,.4,1.61,1.309,1.309,0,0,0,1.135.557,1.312,1.312,0,0,0,1.121-.55,3.017,3.017,0,0,0,.4-1.76,2.73,2.73,0,0,0-.4-1.6,1.312,1.312,0,0,0-1.135-.567,1.29,1.29,0,0,0-1.121.564A3.068,3.068,0,0,0,8.248,11.377ZM16.314,7.6l.062.854A2.582,2.582,0,0,1,18.5,7.467a2.146,2.146,0,0,1,1.75.69,3.221,3.221,0,0,1,.588,2.064V15H18.864V10.27a1.282,1.282,0,0,0-.273-.913,1.224,1.224,0,0,0-.909-.284,1.359,1.359,0,0,0-1.251.711V15H14.455V7.6ZM26.623,15a2.194,2.194,0,0,1-.2-.663,2.39,2.39,0,0,1-1.866.8,2.626,2.626,0,0,1-1.8-.629,2.023,2.023,0,0,1-.714-1.586,2.09,2.09,0,0,1,.872-1.8,4.3,4.3,0,0,1,2.519-.636h.909v-.424a1.219,1.219,0,0,0-.263-.82,1.035,1.035,0,0,0-.831-.308,1.177,1.177,0,0,0-.783.239.813.813,0,0,0-.284.656H22.207a1.984,1.984,0,0,1,.4-1.189,2.621,2.621,0,0,1,1.121-.858,4.086,4.086,0,0,1,1.627-.311,3.228,3.228,0,0,1,2.17.687,2.4,2.4,0,0,1,.8,1.931v3.206a3.536,3.536,0,0,0,.294,1.593V15Zm-1.634-1.374a1.7,1.7,0,0,0,.807-.195,1.28,1.28,0,0,0,.547-.523V11.637H25.6q-1.483,0-1.579,1.025l-.007.116a.791.791,0,0,0,.26.608A1.009,1.009,0,0,0,24.989,13.626ZM31.927,15H29.945V4.5h1.982Z" transform="translate(1149 1580)" fill="#12263f"/>
              <path id="Trazado_912809" data-name="Trazado 912809" d="M-33.151,0V-9.953h3.063a4.651,4.651,0,0,1,2.348.591A4.123,4.123,0,0,1-26.124-7.68,5.187,5.187,0,0,1-25.542-5.2v.458a5.2,5.2,0,0,1-.571,2.468A4.088,4.088,0,0,1-27.723-.6a4.686,4.686,0,0,1-2.345.6ZM-31.1-8.292v6.645h.991a2.227,2.227,0,0,0,1.839-.786,3.552,3.552,0,0,0,.649-2.249v-.526a3.609,3.609,0,0,0-.629-2.3,2.219,2.219,0,0,0-1.839-.783ZM-20.778.137a3.631,3.631,0,0,1-2.649-1,3.548,3.548,0,0,1-1.022-2.659v-.191A4.468,4.468,0,0,1-24.018-5.7,3.161,3.161,0,0,1-22.8-7.058,3.425,3.425,0,0,1-21-7.533a3.07,3.07,0,0,1,2.389.957,3.889,3.889,0,0,1,.872,2.714v.807h-4.71a1.835,1.835,0,0,0,.578,1.162,1.746,1.746,0,0,0,1.22.438,2.132,2.132,0,0,0,1.784-.827l.971,1.087a2.966,2.966,0,0,1-1.2.981A3.947,3.947,0,0,1-20.778.137ZM-21-5.934a1.237,1.237,0,0,0-.954.4A2.048,2.048,0,0,0-22.425-4.4h2.748V-4.56a1.46,1.46,0,0,0-.355-1.015A1.277,1.277,0,0,0-21-5.934Zm8.395,3.89a.637.637,0,0,0-.359-.571,4.077,4.077,0,0,0-1.152-.373q-2.639-.554-2.639-2.242a2.032,2.032,0,0,1,.817-1.644,3.3,3.3,0,0,1,2.136-.66,3.547,3.547,0,0,1,2.252.663,2.09,2.09,0,0,1,.844,1.723h-1.976a.956.956,0,0,0-.273-.7,1.157,1.157,0,0,0-.854-.277,1.182,1.182,0,0,0-.772.226.712.712,0,0,0-.273.574.609.609,0,0,0,.311.53,3.2,3.2,0,0,0,1.049.349,8.571,8.571,0,0,1,1.244.332,2.044,2.044,0,0,1,1.565,1.989,1.929,1.929,0,0,1-.868,1.637A3.745,3.745,0,0,1-13.8.137a3.912,3.912,0,0,1-1.651-.332A2.77,2.77,0,0,1-16.581-1.1a2.113,2.113,0,0,1-.41-1.248h1.873a1.031,1.031,0,0,0,.39.807,1.546,1.546,0,0,0,.971.28A1.43,1.43,0,0,0-12.9-1.48.67.67,0,0,0-12.609-2.044ZM-5.13,0a2.194,2.194,0,0,1-.2-.663,2.39,2.39,0,0,1-1.866.8A2.626,2.626,0,0,1-9-.492,2.023,2.023,0,0,1-9.71-2.078a2.09,2.09,0,0,1,.872-1.8A4.3,4.3,0,0,1-6.32-4.519h.909v-.424a1.219,1.219,0,0,0-.263-.82A1.035,1.035,0,0,0-6.5-6.07a1.177,1.177,0,0,0-.783.239.813.813,0,0,0-.284.656H-9.546a1.984,1.984,0,0,1,.4-1.189,2.621,2.621,0,0,1,1.121-.858A4.086,4.086,0,0,1-6.4-7.533a3.228,3.228,0,0,1,2.17.687,2.4,2.4,0,0,1,.8,1.931v3.206A3.536,3.536,0,0,0-3.134-.116V0ZM-6.764-1.374a1.7,1.7,0,0,0,.807-.195,1.28,1.28,0,0,0,.547-.523V-3.363h-.738q-1.483,0-1.579,1.025l-.007.116a.791.791,0,0,0,.26.608A1.009,1.009,0,0,0-6.764-1.374Zm9.01-4.17A5.367,5.367,0,0,0,1.535-5.6a1.447,1.447,0,0,0-1.47.759V0H-1.911V-7.4H-.044l.055.882A1.831,1.831,0,0,1,1.658-7.533a2.07,2.07,0,0,1,.615.089Zm5.106,0A5.367,5.367,0,0,0,6.641-5.6a1.447,1.447,0,0,0-1.47.759V0H3.2V-7.4H5.062l.055.882A1.831,1.831,0,0,1,6.764-7.533a2.07,2.07,0,0,1,.615.089Zm.4,1.777a4.387,4.387,0,0,1,.424-1.962,3.1,3.1,0,0,1,1.22-1.333,3.56,3.56,0,0,1,1.849-.472,3.368,3.368,0,0,1,2.444.916,3.676,3.676,0,0,1,1.056,2.488l.014.506a3.866,3.866,0,0,1-.95,2.731A3.3,3.3,0,0,1,11.255.137,3.319,3.319,0,0,1,8.7-.889a3.934,3.934,0,0,1-.954-2.789Zm1.976.144a2.757,2.757,0,0,0,.4,1.61,1.309,1.309,0,0,0,1.135.557,1.312,1.312,0,0,0,1.121-.55,3.017,3.017,0,0,0,.4-1.76,2.73,2.73,0,0,0-.4-1.6,1.312,1.312,0,0,0-1.135-.567,1.29,1.29,0,0,0-1.121.564A3.068,3.068,0,0,0,9.724-3.623ZM18.057,0H16.075V-10.5h1.982Zm3.712,0H19.787V-10.5h1.982Zm1.319-3.767a4.387,4.387,0,0,1,.424-1.962,3.1,3.1,0,0,1,1.22-1.333,3.56,3.56,0,0,1,1.849-.472,3.368,3.368,0,0,1,2.444.916,3.676,3.676,0,0,1,1.056,2.488l.014.506a3.866,3.866,0,0,1-.95,2.731A3.3,3.3,0,0,1,26.6.137,3.319,3.319,0,0,1,24.042-.889a3.934,3.934,0,0,1-.954-2.789Zm1.976.144a2.757,2.757,0,0,0,.4,1.61,1.309,1.309,0,0,0,1.135.557,1.312,1.312,0,0,0,1.121-.55,3.017,3.017,0,0,0,.4-1.76,2.73,2.73,0,0,0-.4-1.6,1.312,1.312,0,0,0-1.135-.567,1.29,1.29,0,0,0-1.121.564A3.068,3.068,0,0,0,25.064-3.623ZM-31.1,13.544a1.3,1.3,0,0,0,.889-.3,1.054,1.054,0,0,0,.355-.8H-28a2.534,2.534,0,0,1-.41,1.377,2.706,2.706,0,0,1-1.1.971,3.455,3.455,0,0,1-1.548.345,3.211,3.211,0,0,1-2.5-1.008,3.99,3.99,0,0,1-.916-2.786v-.13a3.944,3.944,0,0,1,.909-2.728,3.174,3.174,0,0,1,2.5-1.019,3.111,3.111,0,0,1,2.225.79,2.8,2.8,0,0,1,.851,2.1h-1.853a1.346,1.346,0,0,0-.355-.933,1.188,1.188,0,0,0-.9-.359,1.19,1.19,0,0,0-1.042.5A2.908,2.908,0,0,0-32.5,11.2V11.4a2.945,2.945,0,0,0,.349,1.641A1.205,1.205,0,0,0-31.1,13.544Zm3.917-2.311a4.387,4.387,0,0,1,.424-1.962,3.1,3.1,0,0,1,1.22-1.333,3.56,3.56,0,0,1,1.849-.472,3.368,3.368,0,0,1,2.444.916,3.676,3.676,0,0,1,1.056,2.488l.014.506a3.866,3.866,0,0,1-.95,2.731,3.3,3.3,0,0,1-2.55,1.029,3.319,3.319,0,0,1-2.553-1.025,3.934,3.934,0,0,1-.954-2.789Zm1.976.144a2.757,2.757,0,0,0,.4,1.61,1.309,1.309,0,0,0,1.135.557,1.312,1.312,0,0,0,1.121-.55,3.017,3.017,0,0,0,.4-1.76,2.73,2.73,0,0,0-.4-1.6,1.312,1.312,0,0,0-1.135-.567,1.29,1.29,0,0,0-1.121.564A3.068,3.068,0,0,0-25.2,11.377ZM-17.138,7.6l.062.854a2.582,2.582,0,0,1,2.126-.991,2.146,2.146,0,0,1,1.75.69,3.221,3.221,0,0,1,.588,2.064V15h-1.976V10.27a1.282,1.282,0,0,0-.273-.913,1.224,1.224,0,0,0-.909-.284,1.359,1.359,0,0,0-1.251.711V15H-19V7.6Zm5.715,3.644a4.457,4.457,0,0,1,.776-2.755A2.517,2.517,0,0,1-8.524,7.467a2.265,2.265,0,0,1,1.784.807V4.5h1.982V15H-6.542l-.1-.786a2.325,2.325,0,0,1-1.9.923,2.511,2.511,0,0,1-2.1-1.029A4.6,4.6,0,0,1-11.423,11.247Zm1.976.144a2.912,2.912,0,0,0,.362,1.593,1.181,1.181,0,0,0,1.053.554,1.322,1.322,0,0,0,1.292-.772V9.846a1.3,1.3,0,0,0-1.278-.772Q-9.447,9.073-9.447,11.391ZM1.2,14.248a2.477,2.477,0,0,1-2.023.889,2.337,2.337,0,0,1-1.815-.684,2.918,2.918,0,0,1-.639-2V7.6H-1.3v4.778q0,1.155,1.053,1.155a1.427,1.427,0,0,0,1.381-.7V7.6H3.117V15H1.258Zm6.48-.7a1.3,1.3,0,0,0,.889-.3,1.054,1.054,0,0,0,.355-.8H10.78a2.534,2.534,0,0,1-.41,1.377,2.706,2.706,0,0,1-1.1.971,3.455,3.455,0,0,1-1.548.345,3.211,3.211,0,0,1-2.5-1.008A3.99,3.99,0,0,1,4.3,11.343v-.13a3.944,3.944,0,0,1,.909-2.728A3.174,3.174,0,0,1,7.7,7.467a3.111,3.111,0,0,1,2.225.79,2.8,2.8,0,0,1,.851,2.1H8.928a1.346,1.346,0,0,0-.355-.933,1.188,1.188,0,0,0-.9-.359,1.19,1.19,0,0,0-1.042.5,2.908,2.908,0,0,0-.352,1.63V11.4a2.945,2.945,0,0,0,.349,1.641A1.205,1.205,0,0,0,7.684,13.544Zm6.59-7.759V7.6h1.265V9.053H14.273v3.691a.881.881,0,0,0,.157.588.79.79,0,0,0,.6.178,3.15,3.15,0,0,0,.581-.048v1.5a4.067,4.067,0,0,1-1.2.178,1.886,1.886,0,0,1-2.119-2.1V9.053h-1.08V7.6H12.3V5.785Zm6.795,8.463a2.477,2.477,0,0,1-2.023.889,2.337,2.337,0,0,1-1.815-.684,2.918,2.918,0,0,1-.639-2V7.6h1.976v4.778q0,1.155,1.053,1.155A1.427,1.427,0,0,0,21,12.84V7.6h1.982V15H21.123Zm7.69.752a2.194,2.194,0,0,1-.2-.663,2.39,2.39,0,0,1-1.866.8,2.626,2.626,0,0,1-1.8-.629,2.023,2.023,0,0,1-.714-1.586,2.09,2.09,0,0,1,.872-1.8,4.3,4.3,0,0,1,2.519-.636h.909v-.424a1.219,1.219,0,0,0-.263-.82,1.035,1.035,0,0,0-.831-.308,1.177,1.177,0,0,0-.783.239.813.813,0,0,0-.284.656H24.343a1.984,1.984,0,0,1,.4-1.189,2.621,2.621,0,0,1,1.121-.858,4.086,4.086,0,0,1,1.627-.311,3.228,3.228,0,0,1,2.17.687,2.4,2.4,0,0,1,.8,1.931v3.206a3.536,3.536,0,0,0,.294,1.593V15Zm-1.634-1.374a1.7,1.7,0,0,0,.807-.195,1.28,1.28,0,0,0,.547-.523V11.637H27.74q-1.483,0-1.579,1.025l-.007.116a.791.791,0,0,0,.26.608A1.009,1.009,0,0,0,27.125,13.626ZM34.063,15H32.081V4.5h1.982Z" transform="translate(1286 1580)" fill="#12263f"/>
            </g>
          </g>
        </g>
      </g>
    </g>
  </g>
</svg>
