<svg xmlns="http://www.w3.org/2000/svg" xmlns:xlink="http://www.w3.org/1999/xlink" width="400" height="230.23" viewBox="0 0 400 230.23">
  <defs>
    <clipPath id="clip-path">
      <rect id="Rectángulo_403145" data-name="Rectángulo 403145" width="339.813" height="210.923" fill="none" stroke="#ca7441" stroke-width="1"/>
    </clipPath>
    <clipPath id="clip-path-2">
      <rect id="Rectángulo_403147" data-name="Rectángulo 403147" width="339.813" height="230" fill="none"/>
    </clipPath>
  </defs>
  <g id="Grupo_1101389" data-name="Grupo 1101389" transform="translate(-180.385 -867)">
    <g id="Grupo_1101388" data-name="Grupo 1101388">
      <g id="Grupo_1101387" data-name="Grupo 1101387">
        <g id="Grupo_1101386" data-name="Grupo 1101386">
          <g id="Grupo_1101385" data-name="Grupo 1101385">
            <path id="Rectángulo_403154" data-name="Rectángulo 403154" d="M30,0H370a30,30,0,0,1,30,30V194a0,0,0,0,1,0,0H0a0,0,0,0,1,0,0V30A30,30,0,0,1,30,0Z" transform="translate(180.385 902)" fill="#ffbd45"/>
            <g id="Grupo_1101296" data-name="Grupo 1101296" transform="translate(214.086 867)">
              <g id="Grupo_1101297" data-name="Grupo 1101297">
                <g id="Grupo_1101281" data-name="Grupo 1101281">
                  <g id="Grupo_1101299" data-name="Grupo 1101299">
                    <path id="Trazado_912283" data-name="Trazado 912283" d="M293.925,340.28c1.476.645,5.085.563,5.088.563.037,0-.776-2.363-.844-2.506-.792-1.657-3.3-4.392-5.335-4.117a2.434,2.434,0,0,0-1.953,3.05,5.085,5.085,0,0,0,3.044,3.01" transform="translate(-133.929 -153.913)" fill="#4045ab"/>
                    <path id="Trazado_912284" data-name="Trazado 912284" d="M295.431,341.8c1.531.223,4.752-.711,5.008-.787a43.118,43.118,0,0,0,1.954,5.406c.443,1.027.921,2.046,1.413,3.062-.293-.431-.56-.813-.6-.863-1.2-1.389-4.339-3.366-6.232-2.561a2.433,2.433,0,0,0-1.079,3.457,5.088,5.088,0,0,0,3.73,2.1,16.148,16.148,0,0,0,4.869-.747c.193.388.381.777.576,1.164.933,1.857,1.872,3.707,2.737,5.549.305.649.582,1.3.862,1.95-.262-.382-.485-.7-.524-.747-1.2-1.389-4.339-3.366-6.232-2.562a2.433,2.433,0,0,0-1.078,3.457,5.086,5.086,0,0,0,3.73,2.1,15.526,15.526,0,0,0,4.737-.71c.266.674.534,1.349.761,2.014.145.458.317.888.436,1.356s.256.917.382,1.369c.21.878.434,1.783.618,2.646.133.6.248,1.172.366,1.749-.3-.65-.9-1.909-.966-2.009-.976-1.555-3.779-3.984-5.772-3.476a2.433,2.433,0,0,0-1.589,3.254,5.086,5.086,0,0,0,3.369,2.64c1.444.441,4.641.038,5.04-.015.192.955.369,1.887.522,2.768.083.466.154.9.226,1.345h1.272c-.094-.508-.192-1.027-.3-1.569-.19-.97-.414-2-.653-3.064a26.583,26.583,0,0,0,2.813-1.322,17.793,17.793,0,0,0,4.1,2.643c-.367.9-.733,1.777-1.091,2.6-.108.249-.212.479-.317.715h1.34c.034-.08.067-.158.1-.241.377-.915.761-1.9,1.146-2.915.387.081,3.552.723,5.027.391a5.088,5.088,0,0,0,3.557-2.382,2.433,2.433,0,0,0-1.343-3.363c-1.949-.655-4.925,1.559-6.015,3.037-.065.087-.657,1.111-1.02,1.763.155-.415.31-.818.464-1.248.311-.848.6-1.7.907-2.622q.2-.674.408-1.361c.145-.452.242-.947.366-1.424.265-1.113.48-2.254.671-3.408a15.991,15.991,0,0,0,4.77,1.1,5.086,5.086,0,0,0,3.877-1.815,2.433,2.433,0,0,0-.817-3.529c-1.828-.942-5.1.8-6.407,2.091-.081.08-.91,1.115-1.355,1.692.11-.694.222-1.387.309-2.094.253-2.039.446-4.111.647-6.177.061-.633.13-1.263.2-1.893.264.1,3.393,1.264,4.933,1.156a5.083,5.083,0,0,0,3.877-1.815,2.432,2.432,0,0,0-.818-3.527c-1.828-.943-5.1.795-6.406,2.09-.1.1-1.289,1.588-1.574,1.982.147-1.39.306-2.772.518-4.13a42.91,42.91,0,0,1,1.185-5.431c.122.047,3.384,1.277,4.961,1.167a5.087,5.087,0,0,0,3.877-1.816,2.434,2.434,0,0,0-.818-3.528c-1.828-.942-5.1.8-6.406,2.09-.1.1-1.383,1.706-1.595,2.013.031-.1.051-.214.083-.316a31.328,31.328,0,0,1,2.151-5.139c.468-.915.966-1.764,1.469-2.579a16.369,16.369,0,0,0,4.7,1.652,5.089,5.089,0,0,0,4.052-1.378,2.434,2.434,0,0,0-.425-3.6c-1.714-1.138-5.161.23-6.6,1.375-.078.062-.8.783-1.322,1.315.232-.365.466-.744.7-1.089.86-1.3,1.728-2.429,2.5-3.426.446-.564.86-1.065,1.254-1.529a16.258,16.258,0,0,0,4.9-.7,5.088,5.088,0,0,0,2.962-3.091,2.434,2.434,0,0,0-2.035-3c-2.045-.221-4.474,2.582-5.221,4.26-.064.145-.814,2.528-.776,2.528h.044c-.388.44-.8.915-1.235,1.444-.8.983-1.694,2.1-2.586,3.382a43.2,43.2,0,0,0-2.682,4.272,31.753,31.753,0,0,0-2.291,5.157c-.007.021-.011.044-.018.065.011-.6-.016-2.288-.033-2.417-.236-1.821-1.762-5.2-3.785-5.575a2.434,2.434,0,0,0-2.807,2.289,5.089,5.089,0,0,0,1.953,3.809c1.154,1.03,4.356,2.028,4.611,2.107a43.119,43.119,0,0,0-1.353,5.586c-.2,1.1-.36,2.215-.51,3.334-.008-.521-.018-.987-.027-1.052-.236-1.821-1.762-5.2-3.784-5.575a2.433,2.433,0,0,0-2.807,2.288,5.087,5.087,0,0,0,1.953,3.809,16.136,16.136,0,0,0,4.472,2.063c-.053.43-.111.859-.162,1.289-.247,2.064-.483,4.124-.778,6.139-.1.71-.231,1.4-.357,2.1-.007-.463-.017-.852-.025-.912-.236-1.821-1.762-5.2-3.784-5.575a2.434,2.434,0,0,0-2.807,2.289,5.086,5.086,0,0,0,1.954,3.809,15.523,15.523,0,0,0,4.342,2.021c-.149.709-.3,1.419-.476,2.1-.132.461-.226.915-.384,1.371s-.292.906-.436,1.352c-.31.849-.623,1.727-.945,2.548-.22.573-.44,1.115-.66,1.66.111-.705.3-2.091.3-2.208a9.455,9.455,0,0,0-1.268-4.6,2.814,2.814,0,0,0-.034-.538,2.433,2.433,0,0,0-2.976-2.064c-1.987.529-3.248,4.017-3.341,5.851-.005.108.065,1.289.122,2.033-.1-.432-.192-.853-.3-1.3-.208-.879-.442-1.749-.69-2.688q-.2-.673-.412-1.36c-.128-.456-.32-.923-.48-1.39-.393-1.075-.844-2.145-1.322-3.212a15.976,15.976,0,0,0,4.585-1.717,5.087,5.087,0,0,0,2.232-3.652,2.434,2.434,0,0,0-2.628-2.492c-2.045.222-3.819,3.48-4.191,5.278-.023.112-.144,1.433-.2,2.159-.292-.639-.581-1.28-.9-1.917-.913-1.841-1.9-3.675-2.868-5.509-.3-.562-.588-1.124-.88-1.687.275-.063,3.528-.817,4.752-1.757a5.088,5.088,0,0,0,2.232-3.653,2.434,2.434,0,0,0-2.629-2.491c-2.045.222-3.818,3.479-4.19,5.278-.027.135-.2,2.035-.219,2.521-.644-1.24-1.274-2.481-1.846-3.73a42.908,42.908,0,0,1-2.007-5.184c.128-.029,3.527-.8,4.781-1.764a5.086,5.086,0,0,0,2.232-3.653,2.433,2.433,0,0,0-2.628-2.492c-2.045.222-3.819,3.479-4.19,5.278-.029.141-.213,2.186-.219,2.558-.032-.1-.076-.206-.106-.308a31.352,31.352,0,0,1-1.041-5.474c-.115-1.021-.167-2-.2-2.961a16.379,16.379,0,0,0,4.829-1.214,5.085,5.085,0,0,0,2.62-3.385,2.434,2.434,0,0,0-2.339-2.766c-2.056,0-4.178,3.039-4.744,4.786-.031.095-.237,1.1-.377,1.826-.006-.432-.022-.878-.02-1.292,0-1.555.1-2.979.2-4.24.061-.716.131-1.363.2-1.967a16.291,16.291,0,0,0,3.705-3.288,5.084,5.084,0,0,0,.764-4.212,2.433,2.433,0,0,0-3.349-1.377c-1.827.945-2.308,4.622-2.006,6.434.026.156.716,2.558.748,2.536l.036-.025c-.081.58-.16,1.2-.233,1.885-.125,1.261-.255,2.686-.291,4.248a43.193,43.193,0,0,0,.12,5.042,31.723,31.723,0,0,0,.934,5.565c.005.022.015.043.021.065-.324-.508-1.276-1.9-1.361-2-1.2-1.389-4.339-3.366-6.232-2.562A2.434,2.434,0,0,0,291.7,339.7a5.089,5.089,0,0,0,3.73,2.1" transform="translate(-134.189 -144.975)" fill="#4045ab"/>
                    <path id="Trazado_912285" data-name="Trazado 912285" d="M360.008,339.119c.032.02.657-2.4.679-2.556.253-1.819-.327-5.482-2.179-6.377a2.434,2.434,0,0,0-3.311,1.467,5.086,5.086,0,0,0,.878,4.189c.875,1.352,3.931,3.275,3.933,3.277" transform="translate(-163.501 -151.958)" fill="#4045ab"/>
                    <path id="Trazado_912286" data-name="Trazado 912286" d="M52.712,366.7a12.047,12.047,0,0,0,3.517.39c.026,0-.537-1.633-.584-1.733-.548-1.145-2.279-3.036-3.688-2.846a1.682,1.682,0,0,0-1.35,2.108,3.516,3.516,0,0,0,2.1,2.081" transform="translate(-23.284 -166.946)" fill="#4045ab"/>
                    <path id="Trazado_912287" data-name="Trazado 912287" d="M53.752,367.753a11.691,11.691,0,0,0,3.462-.544,29.778,29.778,0,0,0,1.351,3.737c.306.709.637,1.414.977,2.116-.2-.3-.387-.562-.416-.6-.831-.96-3-2.327-4.308-1.771a1.682,1.682,0,0,0-.745,2.39,3.515,3.515,0,0,0,2.578,1.451,11.15,11.15,0,0,0,3.365-.516c.133.268.263.537.4.8.645,1.284,1.294,2.562,1.892,3.836.211.448.4.9.6,1.347-.181-.264-.336-.485-.363-.516-.83-.96-3-2.327-4.308-1.771a1.682,1.682,0,0,0-.746,2.389,3.514,3.514,0,0,0,2.579,1.451,10.731,10.731,0,0,0,3.275-.491c.183.466.368.932.526,1.392.1.317.218.614.3.938s.176.633.264.946c.146.607.3,1.233.427,1.829.092.414.172.81.253,1.209-.205-.449-.624-1.32-.668-1.389-.675-1.075-2.612-2.754-3.99-2.4a1.682,1.682,0,0,0-1.1,2.25,3.515,3.515,0,0,0,2.329,1.825,11.539,11.539,0,0,0,3.484-.011c.133.661.255,1.3.361,1.913.057.322.106.625.156.929h.879c-.065-.351-.133-.709-.207-1.084-.132-.671-.286-1.385-.452-2.118a18.232,18.232,0,0,0,1.944-.914,12.312,12.312,0,0,0,2.833,1.827c-.254.624-.506,1.228-.754,1.795-.074.172-.146.331-.219.494h.926l.07-.167c.26-.632.526-1.314.792-2.015a11.572,11.572,0,0,0,3.475.27,3.517,3.517,0,0,0,2.459-1.646,1.682,1.682,0,0,0-.928-2.325c-1.348-.453-3.4,1.077-4.158,2.1-.044.06-.454.768-.7,1.219.107-.288.215-.565.321-.863.216-.586.413-1.177.627-1.813l.282-.941c.1-.312.167-.655.253-.984.183-.77.331-1.559.463-2.356a11.055,11.055,0,0,0,3.3.758,3.513,3.513,0,0,0,2.679-1.255A1.682,1.682,0,0,0,79,378.041c-1.263-.652-3.528.55-4.428,1.445-.057.056-.63.771-.937,1.17.076-.48.153-.959.214-1.447.175-1.409.308-2.841.447-4.269.043-.437.09-.873.136-1.309a11.686,11.686,0,0,0,3.41.8,3.516,3.516,0,0,0,2.679-1.255,1.682,1.682,0,0,0-.565-2.438c-1.263-.652-3.528.549-4.428,1.445-.067.067-.891,1.1-1.088,1.37.1-.96.211-1.916.359-2.854a29.572,29.572,0,0,1,.819-3.754,11.882,11.882,0,0,0,3.429.807,3.519,3.519,0,0,0,2.68-1.255,1.682,1.682,0,0,0-.565-2.438c-1.263-.652-3.528.55-4.428,1.445-.07.071-.955,1.179-1.1,1.392.022-.071.035-.148.057-.219a21.68,21.68,0,0,1,1.487-3.552c.324-.633.668-1.219,1.016-1.782a11.3,11.3,0,0,0,3.246,1.141,3.515,3.515,0,0,0,2.8-.953,1.682,1.682,0,0,0-.294-2.486c-1.184-.786-3.567.159-4.56.95-.054.043-.554.541-.913.909.16-.252.322-.515.481-.753.594-.9,1.194-1.679,1.731-2.369.309-.389.6-.736.866-1.057a11.247,11.247,0,0,0,3.39-.483,3.518,3.518,0,0,0,2.047-2.136,1.682,1.682,0,0,0-1.407-2.071c-1.413-.153-3.093,1.785-3.609,2.944-.044.1-.563,1.748-.536,1.748h.03c-.268.3-.551.632-.853,1-.553.679-1.171,1.452-1.787,2.337a29.752,29.752,0,0,0-1.854,2.953,21.914,21.914,0,0,0-1.584,3.564c0,.015-.008.031-.012.045.007-.416-.011-1.582-.023-1.671-.163-1.259-1.218-3.6-2.616-3.854a1.682,1.682,0,0,0-1.94,1.582,3.516,3.516,0,0,0,1.35,2.633,11.734,11.734,0,0,0,3.187,1.457,29.772,29.772,0,0,0-.935,3.861c-.135.761-.249,1.531-.352,2.3,0-.36-.012-.682-.018-.727-.163-1.259-1.218-3.595-2.616-3.853a1.682,1.682,0,0,0-1.94,1.582,3.517,3.517,0,0,0,1.35,2.633,11.167,11.167,0,0,0,3.091,1.426c-.036.3-.077.593-.112.891-.17,1.426-.334,2.85-.538,4.243-.071.49-.16.971-.247,1.452,0-.32-.012-.589-.017-.63-.163-1.259-1.218-3.6-2.616-3.853a1.682,1.682,0,0,0-1.94,1.582,3.517,3.517,0,0,0,1.351,2.633,10.744,10.744,0,0,0,3,1.4c-.1.49-.207.981-.33,1.451-.091.319-.156.633-.265.948l-.3.934c-.214.587-.43,1.194-.653,1.761-.152.4-.3.77-.456,1.148.077-.488.207-1.445.209-1.527a6.533,6.533,0,0,0-.876-3.177,1.948,1.948,0,0,0-.023-.372,1.682,1.682,0,0,0-2.057-1.427c-1.373.366-2.245,2.777-2.309,4.044,0,.075.045.891.084,1.405-.07-.3-.133-.59-.208-.9-.144-.608-.306-1.21-.477-1.858q-.14-.465-.284-.94c-.088-.316-.221-.638-.332-.961-.272-.743-.583-1.482-.913-2.22a11.042,11.042,0,0,0,3.169-1.187,3.518,3.518,0,0,0,1.543-2.525,1.682,1.682,0,0,0-1.817-1.722c-1.413.153-2.64,2.4-2.9,3.648-.016.078-.1.99-.136,1.493-.2-.442-.4-.885-.62-1.325-.631-1.272-1.31-2.54-1.982-3.808-.206-.388-.406-.777-.609-1.166a11.708,11.708,0,0,0,3.285-1.215,3.516,3.516,0,0,0,1.543-2.525,1.682,1.682,0,0,0-1.817-1.722c-1.413.153-2.64,2.4-2.9,3.648-.019.093-.138,1.407-.152,1.742-.445-.857-.88-1.715-1.276-2.578a29.7,29.7,0,0,1-1.387-3.583,11.875,11.875,0,0,0,3.3-1.219,3.516,3.516,0,0,0,1.543-2.525,1.682,1.682,0,0,0-1.817-1.722c-1.413.153-2.64,2.4-2.9,3.648-.02.1-.147,1.511-.151,1.768-.022-.071-.053-.142-.074-.213a21.73,21.73,0,0,1-.719-3.784c-.079-.706-.115-1.385-.136-2.046a11.325,11.325,0,0,0,3.338-.839,3.515,3.515,0,0,0,1.811-2.34,1.683,1.683,0,0,0-1.617-1.912c-1.421,0-2.888,2.1-3.279,3.308-.021.066-.163.757-.26,1.262,0-.3-.015-.607-.014-.893,0-1.075.07-2.059.137-2.93.043-.5.091-.942.14-1.359a11.244,11.244,0,0,0,2.561-2.273,3.515,3.515,0,0,0,.529-2.911,1.682,1.682,0,0,0-2.315-.951c-1.263.652-1.595,3.195-1.386,4.447.018.108.495,1.768.517,1.753l.025-.017c-.056.4-.111.831-.161,1.3-.086.871-.176,1.856-.2,2.936a29.91,29.91,0,0,0,.083,3.485,21.951,21.951,0,0,0,.646,3.846c0,.015.01.03.015.045-.224-.352-.882-1.313-.941-1.381-.83-.96-3-2.327-4.308-1.771a1.683,1.683,0,0,0-.746,2.39,3.518,3.518,0,0,0,2.579,1.451" transform="translate(-23.463 -160.769)" fill="#4045ab"/>
                    <path id="Trazado_912288" data-name="Trazado 912288" d="M98.389,365.9c.022.014.454-1.658.469-1.767.175-1.257-.225-3.789-1.506-4.408a1.683,1.683,0,0,0-2.289,1.014,3.514,3.514,0,0,0,.607,2.9,12.03,12.03,0,0,0,2.718,2.265" transform="translate(-43.724 -165.595)" fill="#4045ab"/>
                    <path id="Trazado_912289" data-name="Trazado 912289" d="M547.09,366.7a12.046,12.046,0,0,0,3.517.39c.026,0-.536-1.633-.583-1.733-.548-1.145-2.279-3.036-3.688-2.846a1.682,1.682,0,0,0-1.35,2.108,3.516,3.516,0,0,0,2.1,2.081" transform="translate(-250.964 -166.946)" fill="#4045ab"/>
                    <path id="Trazado_912290" data-name="Trazado 912290" d="M548.13,367.753a11.688,11.688,0,0,0,3.462-.544,29.764,29.764,0,0,0,1.351,3.737c.306.709.637,1.414.977,2.116-.2-.3-.387-.562-.417-.6-.831-.96-3-2.327-4.307-1.771a1.682,1.682,0,0,0-.746,2.39,3.515,3.515,0,0,0,2.578,1.451,11.15,11.15,0,0,0,3.365-.516c.133.268.263.537.4.8.645,1.284,1.294,2.562,1.892,3.836.211.448.4.9.6,1.347-.181-.264-.335-.485-.362-.516-.831-.96-3-2.327-4.308-1.771a1.682,1.682,0,0,0-.745,2.389,3.514,3.514,0,0,0,2.578,1.451,10.731,10.731,0,0,0,3.275-.491c.183.466.369.932.526,1.392.1.317.219.614.3.938s.177.633.264.946c.146.607.3,1.233.427,1.829.092.414.171.81.253,1.209-.2-.449-.624-1.32-.668-1.389-.675-1.075-2.612-2.754-3.99-2.4a1.682,1.682,0,0,0-1.1,2.25,3.514,3.514,0,0,0,2.329,1.825,11.538,11.538,0,0,0,3.484-.011c.133.661.255,1.3.361,1.913.057.322.106.625.156.929h.879c-.065-.351-.133-.709-.207-1.084-.132-.671-.286-1.385-.452-2.118a18.234,18.234,0,0,0,1.944-.914,12.306,12.306,0,0,0,2.833,1.827c-.254.624-.507,1.228-.755,1.795-.074.172-.146.331-.219.494h.926l.07-.167c.26-.632.526-1.314.792-2.015a11.574,11.574,0,0,0,3.475.27,3.517,3.517,0,0,0,2.459-1.646,1.682,1.682,0,0,0-.928-2.325c-1.348-.453-3.4,1.077-4.158,2.1-.045.06-.454.768-.705,1.219.107-.288.215-.565.321-.863.216-.586.413-1.177.627-1.813l.282-.941c.1-.312.167-.655.253-.984.183-.77.331-1.559.463-2.356a11.054,11.054,0,0,0,3.3.758,3.513,3.513,0,0,0,2.679-1.255,1.682,1.682,0,0,0-.565-2.439c-1.263-.652-3.528.55-4.428,1.445-.056.056-.63.771-.937,1.17.076-.48.153-.959.214-1.447.175-1.409.308-2.841.447-4.269.043-.437.09-.873.136-1.309a11.686,11.686,0,0,0,3.41.8,3.516,3.516,0,0,0,2.679-1.255,1.682,1.682,0,0,0-.565-2.438c-1.263-.652-3.528.549-4.428,1.445-.068.067-.891,1.1-1.088,1.37.1-.96.211-1.916.358-2.854a29.54,29.54,0,0,1,.819-3.754,11.883,11.883,0,0,0,3.429.807,3.519,3.519,0,0,0,2.68-1.255,1.682,1.682,0,0,0-.565-2.438c-1.263-.652-3.528.55-4.428,1.445-.071.071-.956,1.179-1.1,1.392.021-.071.035-.148.057-.219a21.678,21.678,0,0,1,1.487-3.552c.324-.633.668-1.219,1.016-1.782a11.3,11.3,0,0,0,3.247,1.141,3.515,3.515,0,0,0,2.8-.953,1.681,1.681,0,0,0-.294-2.486c-1.184-.786-3.567.159-4.559.95-.054.043-.555.541-.913.909.16-.252.322-.515.481-.753.595-.9,1.194-1.679,1.731-2.369.309-.389.6-.736.866-1.057a11.246,11.246,0,0,0,3.39-.483,3.517,3.517,0,0,0,2.047-2.136,1.683,1.683,0,0,0-1.407-2.071c-1.413-.153-3.093,1.785-3.609,2.944-.044.1-.563,1.748-.536,1.748h.03c-.268.3-.551.632-.853,1-.553.679-1.171,1.452-1.787,2.337a29.838,29.838,0,0,0-1.854,2.953,21.9,21.9,0,0,0-1.584,3.564c0,.015-.008.031-.013.045.008-.416-.011-1.582-.022-1.671-.163-1.259-1.218-3.6-2.616-3.854a1.682,1.682,0,0,0-1.94,1.582,3.516,3.516,0,0,0,1.35,2.633,11.733,11.733,0,0,0,3.187,1.457,29.836,29.836,0,0,0-.935,3.861c-.135.761-.249,1.531-.352,2.3-.005-.36-.013-.682-.019-.727-.163-1.259-1.218-3.595-2.616-3.853a1.682,1.682,0,0,0-1.94,1.582,3.518,3.518,0,0,0,1.35,2.633,11.168,11.168,0,0,0,3.091,1.426c-.037.3-.077.593-.112.891-.17,1.426-.334,2.85-.538,4.243-.071.49-.16.971-.247,1.452,0-.32-.012-.589-.017-.63-.163-1.259-1.218-3.6-2.616-3.853a1.682,1.682,0,0,0-1.94,1.582,3.517,3.517,0,0,0,1.351,2.633,10.744,10.744,0,0,0,3,1.4c-.1.49-.207.981-.33,1.451-.091.319-.156.633-.265.948l-.3.934c-.214.587-.431,1.194-.653,1.761-.152.4-.3.77-.456,1.148.077-.488.207-1.445.209-1.527a6.534,6.534,0,0,0-.876-3.177,1.942,1.942,0,0,0-.023-.372,1.682,1.682,0,0,0-2.057-1.427c-1.374.366-2.245,2.777-2.309,4.044,0,.075.045.891.084,1.405-.069-.3-.133-.59-.208-.9-.144-.608-.306-1.21-.477-1.858l-.285-.94c-.088-.316-.221-.638-.332-.961-.272-.743-.583-1.482-.913-2.22a11.041,11.041,0,0,0,3.169-1.187,3.518,3.518,0,0,0,1.543-2.525,1.682,1.682,0,0,0-1.817-1.722c-1.413.153-2.64,2.4-2.9,3.648-.016.078-.1.99-.136,1.493-.2-.442-.4-.885-.62-1.325-.631-1.272-1.31-2.54-1.982-3.808-.206-.388-.406-.777-.609-1.166a11.708,11.708,0,0,0,3.285-1.215,3.516,3.516,0,0,0,1.543-2.525,1.682,1.682,0,0,0-1.817-1.722c-1.413.153-2.64,2.4-2.9,3.648-.019.093-.138,1.407-.152,1.742-.445-.857-.88-1.715-1.276-2.578a29.7,29.7,0,0,1-1.388-3.583,11.875,11.875,0,0,0,3.3-1.219,3.514,3.514,0,0,0,1.543-2.525,1.682,1.682,0,0,0-1.817-1.722c-1.413.153-2.64,2.4-2.9,3.648-.021.1-.147,1.511-.151,1.768-.022-.071-.053-.142-.074-.213a21.729,21.729,0,0,1-.719-3.784c-.079-.706-.115-1.385-.136-2.046a11.324,11.324,0,0,0,3.338-.839,3.515,3.515,0,0,0,1.811-2.34,1.683,1.683,0,0,0-1.617-1.912c-1.421,0-2.888,2.1-3.279,3.308-.021.066-.163.757-.26,1.262,0-.3-.015-.607-.014-.893,0-1.075.069-2.059.137-2.93.043-.5.091-.942.14-1.359a11.256,11.256,0,0,0,2.561-2.273,3.514,3.514,0,0,0,.528-2.911,1.682,1.682,0,0,0-2.315-.951c-1.263.652-1.595,3.195-1.386,4.447.018.108.5,1.768.517,1.753l.025-.017c-.056.4-.111.831-.161,1.3-.086.871-.176,1.856-.2,2.936a29.944,29.944,0,0,0,.083,3.485,21.952,21.952,0,0,0,.646,3.846c0,.015.01.03.015.045-.224-.352-.882-1.313-.941-1.381-.83-.96-3-2.327-4.308-1.771a1.683,1.683,0,0,0-.746,2.39,3.518,3.518,0,0,0,2.579,1.451" transform="translate(-251.144 -160.769)" fill="#4045ab"/>
                    <path id="Trazado_912291" data-name="Trazado 912291" d="M592.766,365.9c.022.014.454-1.658.469-1.767.175-1.257-.226-3.789-1.506-4.408a1.683,1.683,0,0,0-2.289,1.014,3.514,3.514,0,0,0,.607,2.9,12.029,12.029,0,0,0,2.718,2.265" transform="translate(-271.405 -165.595)" fill="#4045ab"/>
                  </g>
                </g>
                <g id="Grupo_1101286" data-name="Grupo 1101286">
                  <g id="Grupo_1101300" data-name="Grupo 1101300">
                    <g id="Grupo_1101284" data-name="Grupo 1101284" opacity="0.3">
                      <g id="Grupo_1101283" data-name="Grupo 1101283">
                        <g id="Grupo_1101282" data-name="Grupo 1101282" clip-path="url(#clip-path)">
                          <path id="Línea_139" data-name="Línea 139" d="M6.825,7.532-.354.354.354-.354,7.532,6.825Z" transform="translate(24.002 102.516)" fill="#ca7441"/>
                          <path id="Línea_140" data-name="Línea 140" d="M.354,7.532l-.707-.707L6.825-.354l.707.707Z" transform="translate(24.002 102.516)" fill="#ca7441"/>
                          <path id="Línea_141" data-name="Línea 141" d="M6.825,7.532-.354.354.354-.354,7.532,6.825Z" transform="translate(332.444 203.553)" fill="#ca7441"/>
                          <path id="Línea_142" data-name="Línea 142" d="M.354,7.532l-.707-.707L6.825-.354l.707.707Z" transform="translate(332.444 203.553)" fill="#ca7441"/>
                          <path id="Línea_143" data-name="Línea 143" d="M6.826,7.532-.354.354.354-.354,7.533,6.825Z" transform="translate(139.014 83.836)" fill="#ca7441"/>
                          <path id="Línea_144" data-name="Línea 144" d="M.354,7.532l-.707-.707L6.826-.354l.707.707Z" transform="translate(139.014 83.836)" fill="#ca7441"/>
                          <path id="Línea_145" data-name="Línea 145" d="M6.826,7.532-.354.354.354-.354,7.533,6.825Z" transform="translate(307.21 110.498)" fill="#ca7441"/>
                          <path id="Línea_146" data-name="Línea 146" d="M.354,7.532l-.707-.707L6.826-.354l.707.707Z" transform="translate(307.21 110.498)" fill="#ca7441"/>
                          <path id="Línea_147" data-name="Línea 147" d="M6.826,7.533-.354.354.354-.354,7.533,6.826Z" transform="translate(141.488 169.049)" fill="#ca7441"/>
                          <path id="Línea_148" data-name="Línea 148" d="M.354,7.533l-.707-.707L6.826-.354l.707.707Z" transform="translate(141.488 169.049)" fill="#ca7441"/>
                          <path id="Línea_149" data-name="Línea 149" d="M6.825,7.533-.354.354.354-.354,7.532,6.826Z" transform="translate(169.718 0.191)" fill="#ca7441"/>
                          <path id="Línea_150" data-name="Línea 150" d="M.354,7.533l-.707-.707L6.825-.354l.707.707Z" transform="translate(169.719 0.191)" fill="#ca7441"/>
                          <path id="Línea_151" data-name="Línea 151" d="M6.826,7.533-.354.354.354-.354,7.533,6.826Z" transform="translate(50.001 181.596)" fill="#ca7441"/>
                          <path id="Línea_152" data-name="Línea 152" d="M.354,7.533l-.707-.707L6.826-.354l.707.707Z" transform="translate(50.001 181.596)" fill="#ca7441"/>
                          <path id="Línea_153" data-name="Línea 153" d="M6.826,7.533-.354.354.354-.354,7.533,6.826Z" transform="translate(275.983 28.804)" fill="#ca7441"/>
                          <path id="Línea_154" data-name="Línea 154" d="M.354,7.533l-.707-.707L6.826-.354l.707.707Z" transform="translate(275.983 28.804)" fill="#ca7441"/>
                          <path id="Trazado_912292" data-name="Trazado 912292" d="M113.134,134.048a2.658,2.658,0,1,1-2.658,2.658A2.661,2.661,0,0,1,113.134,134.048Zm0,4.316a1.658,1.658,0,1,0-1.658-1.658A1.66,1.66,0,0,0,113.134,138.364Z" transform="translate(-51.109 -61.965)" fill="#ca7441"/>
                          <path id="Trazado_912293" data-name="Trazado 912293" d="M71.463,316.235a2.658,2.658,0,1,1-2.658,2.658A2.662,2.662,0,0,1,71.463,316.235Zm0,4.317a1.658,1.658,0,1,0-1.658-1.658A1.661,1.661,0,0,0,71.463,320.552Z" transform="translate(-31.918 -145.869)" fill="#ca7441"/>
                          <path id="Trazado_912294" data-name="Trazado 912294" d="M53.175,114.293a2.658,2.658,0,1,1,2.658-2.658A2.661,2.661,0,0,1,53.175,114.293Zm0-4.317a1.658,1.658,0,1,0,1.658,1.658A1.66,1.66,0,0,0,53.175,109.976Z" transform="translate(-23.495 -50.418)" fill="#ca7441"/>
                          <path id="Trazado_912295" data-name="Trazado 912295" d="M532.748,142.4a2.658,2.658,0,1,1,2.658-2.658A2.661,2.661,0,0,1,532.748,142.4Zm0-4.317a1.658,1.658,0,1,0,1.658,1.658A1.66,1.66,0,0,0,532.748,138.079Z" transform="translate(-244.358 -63.361)" fill="#ca7441"/>
                          <path id="Trazado_912296" data-name="Trazado 912296" d="M409.674,348.34A2.658,2.658,0,1,1,407.016,351,2.661,2.661,0,0,1,409.674,348.34Zm0,4.317A1.658,1.658,0,1,0,408.016,351,1.66,1.66,0,0,0,409.674,352.657Z" transform="translate(-187.677 -160.655)" fill="#ca7441"/>
                          <path id="Elipse_11559" data-name="Elipse 11559" d="M2.158-.5A2.658,2.658,0,1,1-.5,2.158,2.661,2.661,0,0,1,2.158-.5Zm0,4.317A1.658,1.658,0,1,0,.5,2.158,1.66,1.66,0,0,0,2.158,3.817Z" transform="translate(331.511 164.048) rotate(-84.345)" fill="#ca7441"/>
                          <path id="Trazado_912297" data-name="Trazado 912297" d="M2.658,371.6A2.658,2.658,0,1,1,0,374.256,2.661,2.661,0,0,1,2.658,371.6Zm0,4.317A1.658,1.658,0,1,0,1,374.256,1.66,1.66,0,0,0,2.658,375.915Z" transform="translate(-0.23 -171.366)" fill="#ca7441"/>
                          <path id="Trazado_912298" data-name="Trazado 912298" d="M353.592,262.563a2.658,2.658,0,1,1,2.658-2.658A2.661,2.661,0,0,1,353.592,262.563Zm0-4.317a1.658,1.658,0,1,0,1.658,1.658A1.66,1.66,0,0,0,353.592,258.246Z" transform="translate(-161.849 -118.702)" fill="#ca7441"/>
                        </g>
                      </g>
                    </g>
                  </g>
                </g>
                <g id="Grupo_1101288" data-name="Grupo 1101288">
                  <g id="Grupo_1101287" data-name="Grupo 1101287" clip-path="url(#clip-path-2)">
                    <path id="Trazado_912299" data-name="Trazado 912299" d="M362.241,14.953c20.2,0,36.569,12.55,36.569,28.031,0,11.818-9.546,21.92-23.045,26.043l5.813,15.39-14.02-13.7a47.828,47.828,0,0,1-5.317.3c-20.2,0-36.569-12.55-36.569-28.031s16.373-28.031,36.569-28.031" transform="translate(-149.985 -6.886)" fill="#4045ab"/>
                    <path id="Trazado_912300" data-name="Trazado 912300" d="M362.241,14.453A46.576,46.576,0,0,1,376.63,16.68,39.059,39.059,0,0,1,388.4,22.766a29.349,29.349,0,0,1,7.97,9.065,22.868,22.868,0,0,1,2.936,11.153,24.111,24.111,0,0,1-6.589,16.242,33.466,33.466,0,0,1-7.4,6.081,40.672,40.672,0,0,1-8.9,4.04l5.626,14.894a.5.5,0,0,1-.817.534L367.378,71.24a48.5,48.5,0,0,1-5.137.276,46.577,46.577,0,0,1-14.389-2.227A39.06,39.06,0,0,1,336.079,63.2a29.349,29.349,0,0,1-7.971-9.065,22.65,22.65,0,0,1,0-22.305,29.349,29.349,0,0,1,7.971-9.065,39.06,39.06,0,0,1,11.774-6.086A46.576,46.576,0,0,1,362.241,14.453Zm18.071,68.029L375.3,69.2a.5.5,0,0,1,.322-.655C389.4,64.339,398.31,54.3,398.31,42.984c0-7.328-3.734-14.227-10.515-19.424-6.82-5.228-15.9-8.107-25.554-8.107s-18.734,2.879-25.554,8.107c-6.781,5.2-10.515,12.1-10.515,19.424s3.734,14.227,10.515,19.424c6.82,5.228,15.9,8.107,25.554,8.107a47.539,47.539,0,0,0,5.262-.3.5.5,0,0,1,.405.139Z" transform="translate(-149.985 -6.886)" fill="#4045ab"/>
                    <path id="Trazado_912301" data-name="Trazado 912301" d="M360.112,12.824c20.2,0,36.569,12.55,36.569,28.031,0,11.818-9.546,21.92-23.045,26.043l5.814,15.39-14.019-13.7a47.835,47.835,0,0,1-5.318.3c-20.2,0-36.569-12.55-36.569-28.031s16.373-28.031,36.569-28.031" transform="translate(-149.005 -5.906)" fill="#fff"/>
                    <path id="Trazado_912302" data-name="Trazado 912302" d="M360.112,12.324A46.576,46.576,0,0,1,374.5,14.551a39.058,39.058,0,0,1,11.774,6.086,29.348,29.348,0,0,1,7.971,9.065,22.868,22.868,0,0,1,2.936,11.153A24.111,24.111,0,0,1,390.592,57.1a33.465,33.465,0,0,1-7.4,6.081,40.673,40.673,0,0,1-8.9,4.04l5.626,14.894a.5.5,0,0,1-.817.534L365.249,69.111a48.515,48.515,0,0,1-5.137.276,46.575,46.575,0,0,1-14.388-2.227,39.06,39.06,0,0,1-11.774-6.086,29.349,29.349,0,0,1-7.971-9.065,22.65,22.65,0,0,1,0-22.305,29.35,29.35,0,0,1,7.971-9.065,39.06,39.06,0,0,1,11.774-6.086A46.575,46.575,0,0,1,360.112,12.324Zm18.072,68.028-5.016-13.277a.5.5,0,0,1,.322-.655c13.784-4.21,22.691-14.244,22.691-25.565,0-7.328-3.734-14.227-10.515-19.424-6.82-5.228-15.9-8.107-25.554-8.107s-18.734,2.879-25.554,8.107c-6.781,5.2-10.515,12.1-10.515,19.424s3.734,14.226,10.515,19.424c6.82,5.228,15.9,8.107,25.554,8.107a47.538,47.538,0,0,0,5.262-.3.5.5,0,0,1,.405.139Z" transform="translate(-149.005 -5.906)" fill="#4045ab"/>
                  </g>
                </g>
                <g id="Grupo_1101290" data-name="Grupo 1101290">
                  <g id="Grupo_1101289" data-name="Grupo 1101289" clip-path="url(#clip-path-2)">
                    <path id="Trazado_912303" data-name="Trazado 912303" d="M218.022,14.953c-20.2,0-36.569,12.55-36.569,28.031C181.453,54.8,191,64.9,204.5,69.027l-5.814,15.39,14.019-13.7a47.83,47.83,0,0,0,5.318.3c20.2,0,36.569-12.55,36.569-28.031s-16.373-28.031-36.569-28.031" transform="translate(-83.566 -6.886)" fill="#4045ab"/>
                    <path id="Trazado_912304" data-name="Trazado 912304" d="M218.022,14.453A46.575,46.575,0,0,1,232.41,16.68a39.06,39.06,0,0,1,11.774,6.086,29.35,29.35,0,0,1,7.971,9.065,22.65,22.65,0,0,1,0,22.305,29.35,29.35,0,0,1-7.971,9.065,39.06,39.06,0,0,1-11.774,6.086,46.575,46.575,0,0,1-14.388,2.227,48.506,48.506,0,0,1-5.138-.276L199.034,84.775a.5.5,0,0,1-.817-.534l5.626-14.894a40.673,40.673,0,0,1-8.9-4.04,33.465,33.465,0,0,1-7.4-6.081,24.111,24.111,0,0,1-6.589-16.242,22.868,22.868,0,0,1,2.936-11.153,29.349,29.349,0,0,1,7.971-9.065,39.059,39.059,0,0,1,11.774-6.086A46.576,46.576,0,0,1,218.022,14.453Zm0,56.063c9.658,0,18.734-2.879,25.554-8.107,6.781-5.2,10.515-12.1,10.515-19.424s-3.734-14.227-10.515-19.424c-6.82-5.228-15.9-8.107-25.554-8.107s-18.734,2.879-25.554,8.107c-6.781,5.2-10.515,12.1-10.515,19.424,0,11.32,8.907,21.355,22.691,25.565a.5.5,0,0,1,.322.655L199.95,82.481l12.4-12.122a.5.5,0,0,1,.405-.139A47.543,47.543,0,0,0,218.022,70.516Z" transform="translate(-83.566 -6.886)" fill="#4045ab"/>
                    <path id="Trazado_912305" data-name="Trazado 912305" d="M215.893,12.824c-20.2,0-36.569,12.55-36.569,28.031,0,11.818,9.546,21.92,23.046,26.043l-5.814,15.39,14.019-13.7a47.834,47.834,0,0,0,5.318.3c20.2,0,36.569-12.55,36.569-28.031s-16.373-28.031-36.569-28.031" transform="translate(-82.586 -5.906)" fill="#fff"/>
                    <path id="Trazado_912306" data-name="Trazado 912306" d="M215.893,12.324a46.575,46.575,0,0,1,14.388,2.227,39.059,39.059,0,0,1,11.774,6.086,29.349,29.349,0,0,1,7.971,9.065,22.65,22.65,0,0,1,0,22.305,29.349,29.349,0,0,1-7.971,9.065,39.06,39.06,0,0,1-11.774,6.086,46.575,46.575,0,0,1-14.388,2.227,48.515,48.515,0,0,1-5.138-.276L196.9,82.646a.5.5,0,0,1-.817-.534l5.627-14.894a40.674,40.674,0,0,1-8.9-4.04,33.465,33.465,0,0,1-7.4-6.081,24.111,24.111,0,0,1-6.589-16.242A22.868,22.868,0,0,1,181.76,29.7a29.349,29.349,0,0,1,7.971-9.065A39.059,39.059,0,0,1,201.5,14.551,46.576,46.576,0,0,1,215.893,12.324Zm0,56.062c9.658,0,18.734-2.879,25.554-8.107,6.781-5.2,10.515-12.1,10.515-19.424s-3.734-14.227-10.515-19.424c-6.82-5.228-15.9-8.107-25.554-8.107s-18.734,2.879-25.554,8.107c-6.781,5.2-10.515,12.1-10.515,19.424,0,11.32,8.907,21.355,22.692,25.565a.5.5,0,0,1,.322.655l-5.016,13.277,12.4-12.122a.5.5,0,0,1,.405-.139A47.538,47.538,0,0,0,215.893,68.386Z" transform="translate(-82.586 -5.906)" fill="#4045ab"/>
                  </g>
                </g>
                <path id="Trazado_912307" data-name="Trazado 912307" d="M378.341,36.9,363.823,64.065h29.035Z" transform="translate(-167.555 -16.995)" fill="#4045ab"/>
                <path id="Trazado_912308" data-name="Trazado 912308" d="M378.341,36.4a.5.5,0,0,1,.441.264L393.3,63.829a.5.5,0,0,1-.441.736H363.823a.5.5,0,0,1-.441-.736L377.9,36.666A.5.5,0,0,1,378.341,36.4Zm13.683,27.163-13.683-25.6-13.683,25.6Z" transform="translate(-167.555 -16.995)" fill="#4045ab"/>
                <rect id="Rectángulo_403149" data-name="Rectángulo 403149" width="23.358" height="23.358" transform="translate(121.245 23.157)" fill="#ee4f47"/>
                <path id="Rectángulo_403150" data-name="Rectángulo 403150" d="M0-1H23.358a1,1,0,0,1,1,1V23.358a1,1,0,0,1-1,1H0a1,1,0,0,1-1-1V0A1,1,0,0,1,0-1ZM22.358,1H1V22.358H22.358Z" transform="translate(121.245 23.157)" fill="#4045ab"/>
                <g id="Grupo_1101292" data-name="Grupo 1101292">
                  <g id="Grupo_1101291" data-name="Grupo 1101291" clip-path="url(#clip-path-2)">
                    <path id="Trazado_912309" data-name="Trazado 912309" d="M435.691,257.765,417.128,245.1l-5.552,5.552s14.226,19.083,17.522,22.9a46.627,46.627,0,0,0,5.725,5.725Z" transform="translate(-189.547 -112.878)" fill="#fff"/>
                    <path id="Trazado_912310" data-name="Trazado 912310" d="M417.128,244.6a.5.5,0,0,1,.282.087l18.563,12.665a.5.5,0,0,1,.218.433l-.867,21.513a.5.5,0,0,1-.809.373,46.723,46.723,0,0,1-5.795-5.792c-3.27-3.786-17.4-22.737-17.545-22.928a.5.5,0,0,1,.047-.652l5.552-5.552A.5.5,0,0,1,417.128,244.6Zm18.052,13.422-17.992-12.275-4.953,4.953c1.944,2.6,14.239,19.049,17.241,22.526a52.991,52.991,0,0,0,4.889,5.007Z" transform="translate(-189.547 -112.878)" fill="#4045ab"/>
                    <path id="Trazado_912311" data-name="Trazado 912311" d="M407.594,227.893s-1.849-7.077-2.742-8.765-5.262-6.255-6.751-7.942-5.56-3.872-6.553-3.376a1.394,1.394,0,0,0,0,2.383c.794.6,2.78,1.787,2.78,1.787l3.376,4.964s-6.156,9.233-5.262,10.127,3.177,3.078,4.865,3.674a20.631,20.631,0,0,0,2.184.695l2.552,2.006Z" transform="translate(-180.014 -95.672)" fill="#fff"/>
                    <path id="Trazado_912312" data-name="Trazado 912312" d="M402.043,233.945a.5.5,0,0,1-.309-.107l-2.466-1.938c-.239-.061-.847-.232-2.128-.684-1.695-.6-3.893-2.632-5.052-3.792-.4-.4-.3-1.1.344-2.52.407-.893,1.038-2.066,1.875-3.486,1.129-1.915,2.341-3.779,2.8-4.47l-3.126-4.6c-.411-.248-2.014-1.223-2.728-1.759a2.16,2.16,0,0,1-.865-1.87,1.666,1.666,0,0,1,.941-1.36,1.318,1.318,0,0,1,.6-.124c1.539,0,5.09,1.96,6.551,3.617.333.377.813.9,1.368,1.508,2,2.181,4.728,5.167,5.45,6.531.91,1.72,2.708,8.582,2.784,8.873a.5.5,0,0,1-.13.48L402.4,233.8A.5.5,0,0,1,402.043,233.945Zm-9.191-7.171c.921.916,3.088,2.958,4.621,3.5a21.482,21.482,0,0,0,2.118.677.51.51,0,0,1,.209.1l2.2,1.732,5.035-5.035a72.471,72.471,0,0,0-2.627-8.381c-.662-1.251-3.456-4.3-5.3-6.324-.559-.611-1.041-1.138-1.38-1.522-1.341-1.52-4.653-3.278-5.8-3.278a.407.407,0,0,0-.153.019.66.66,0,0,0-.392.555,1.156,1.156,0,0,0,.469.98c.765.573,2.717,1.747,2.737,1.758a.5.5,0,0,1,.156.148l3.376,4.964a.5.5,0,0,1,0,.559c-.014.021-1.419,2.131-2.768,4.4-.789,1.324-1.4,2.439-1.828,3.315A5.309,5.309,0,0,0,392.852,226.774Z" transform="translate(-180.014 -95.672)" fill="#4045ab"/>
                    <path id="Trazado_912313" data-name="Trazado 912313" d="M397.367,221.826s-3.872-.2-4.17.3-.695,1.787-.3,2.383a22.839,22.839,0,0,0,4.468,3.972c1.291.695,2.284.3,2.482-.6s-1.986-3.078-1.986-3.078l.7-1.39Z" transform="translate(-180.869 -102.142)" fill="#fff"/>
                    <path id="Trazado_912314" data-name="Trazado 912314" d="M395.726,221.286h0c.879,0,1.635.038,1.667.04a.5.5,0,0,1,.374.2l1.192,1.589a.5.5,0,0,1,.047.524l-.537,1.074c.214.229.537.586.854.985,1.067,1.346,1.09,1.954,1.015,2.293a1.7,1.7,0,0,1-1.74,1.341,3.116,3.116,0,0,1-1.468-.414,23.283,23.283,0,0,1-4.647-4.134c-.588-.883,0-2.447.285-2.917C392.952,221.561,393.316,221.286,395.726,221.286Zm1.383,1.028c-.289-.011-.815-.028-1.383-.028a7.594,7.594,0,0,0-2.141.167,2.5,2.5,0,0,0-.27,1.776,22.647,22.647,0,0,0,4.289,3.809,2.171,2.171,0,0,0,.994.294.7.7,0,0,0,.763-.558s.055-.351-.83-1.465a15.371,15.371,0,0,0-1.021-1.151.5.5,0,0,1-.094-.577l.557-1.113Z" transform="translate(-180.869 -102.142)" fill="#4045ab"/>
                    <path id="Trazado_912315" data-name="Trazado 912315" d="M391.895,226.828s-1.886,2.681-1.191,3.375,3.772,3.376,4.368,3.376,2.085-.3,2.085-.993a4.307,4.307,0,0,0-.794-1.787,43.1,43.1,0,0,1-4.468-3.971" transform="translate(-179.864 -104.463)" fill="#fff"/>
                    <path id="Trazado_912316" data-name="Trazado 912316" d="M391.895,226.328h.006a.5.5,0,0,1,.41.223,38.955,38.955,0,0,0,4.363,3.857.5.5,0,0,1,.093.1,4.475,4.475,0,0,1,.89,2.081c0,1.227-2.072,1.493-2.585,1.493-.2,0-.57,0-2.462-1.539-.916-.745-1.886-1.61-2.259-1.983-.619-.619-.158-1.739.243-2.528a13.645,13.645,0,0,1,.893-1.488A.5.5,0,0,1,391.895,226.328Zm4.1,4.819c-.5-.4-2.927-2.347-4.044-3.492-.13.21-.28.465-.42.733-.572,1.094-.481,1.433-.469,1.467a25.48,25.48,0,0,0,4.038,3.224,2.548,2.548,0,0,0,1.556-.5A3.574,3.574,0,0,0,396,231.147Z" transform="translate(-179.864 -104.463)" fill="#4045ab"/>
                    <path id="Trazado_912317" data-name="Trazado 912317" d="M390.107,233.085s-1.291,3.078-.695,3.773,4.269,2.581,4.865,2.383,1.191-.795.4-1.787l-.794-.993Z" transform="translate(-179.267 -107.345)" fill="#fff"/>
                    <path id="Trazado_912318" data-name="Trazado 912318" d="M390.107,232.585a.5.5,0,0,1,.333.127l3.773,3.375a.5.5,0,0,1,.057.06l.794.993a1.69,1.69,0,0,1,.44,1.566,1.578,1.578,0,0,1-1.069,1.007.839.839,0,0,1-.269.04,8.744,8.744,0,0,1-2.708-1.006,10.951,10.951,0,0,1-2.426-1.566c-.379-.442-.372-1.248.023-2.612a17.357,17.357,0,0,1,.59-1.68.5.5,0,0,1,.461-.307Zm3.409,4.22-3.2-2.864c-.09.249-.191.547-.282.857-.4,1.372-.25,1.713-.237,1.739a13.983,13.983,0,0,0,4.356,2.219.621.621,0,0,0,.394-.331c.046-.156-.047-.39-.262-.659Z" transform="translate(-179.267 -107.345)" fill="#4045ab"/>
                    <path id="Trazado_912319" data-name="Trazado 912319" d="M408.639,230.737s-1.092-4.865-1.688-5.758a3.721,3.721,0,0,0-2.681-1.291c-.4.1-4.17,2.085-5.163,2.681s-2.581,1.986-1.688,2.78,4.468-.4,4.468-.4l1.291-.794s-.795,4.369-.1,5.857S406.355,236,406.355,236" transform="translate(-182.906 -103.012)" fill="#fff"/>
                    <path id="Trazado_912320" data-name="Trazado 912320" d="M406.355,236.5a.5.5,0,0,1-.13-.017c-.115-.031-2.815-.775-3.6-2.456-.537-1.15-.308-3.623-.11-5.075l-.367.226a.5.5,0,0,1-.1.048,17.871,17.871,0,0,1-1.96.513c-1.538.3-2.491.235-3-.216a1.213,1.213,0,0,1-.425-1.052c.117-1.254,1.976-2.4,2.188-2.53.82-.492,4.774-2.606,5.3-2.737a4.073,4.073,0,0,1,3.218,1.5c.629.943,1.646,5.419,1.76,5.926a.5.5,0,0,1-.976.219,33.392,33.392,0,0,0-1.616-5.59,3.414,3.414,0,0,0-2.149-1.081c-.452.155-3.966,1.989-5.021,2.622-.9.54-1.666,1.332-1.707,1.766a.225.225,0,0,0,.094.212c.038.034.423.322,2.14-.017a17.209,17.209,0,0,0,1.785-.463l1.24-.763a.5.5,0,0,1,.754.515c-.213,1.172-.653,4.455-.138,5.556.487,1.045,2.3,1.735,2.954,1.913a.5.5,0,0,1-.13.983Z" transform="translate(-182.906 -103.012)" fill="#4045ab"/>
                    <path id="Línea_155" data-name="Línea 155" d="M0,7.251A.5.5,0,0,1-.348,7.11.5.5,0,0,1-.359,6.4L6.194-.348A.5.5,0,0,1,6.9-.359a.5.5,0,0,1,.011.707L.359,7.1A.5.5,0,0,1,0,7.251Z" transform="translate(225.037 135.073)" fill="#4045ab"/>
                    <path id="Trazado_912321" data-name="Trazado 912321" d="M450.9,389.62l.773-21.739.693-18.139,39.6-1.662a45.387,45.387,0,0,1,4.569,10.8,75.58,75.58,0,0,1,1.8,15.646c-.139,1.523-1.466,15.508-1.466,15.508" transform="translate(-207.659 -160.305)" fill="#4045ab"/>
                    <path id="Trazado_912322" data-name="Trazado 912322" d="M496.875,390.535l-.048,0a.5.5,0,0,1-.451-.545c.013-.14,1.329-14,1.466-15.506A75.282,75.282,0,0,0,496.055,359a44.847,44.847,0,0,0-4.363-10.409l-38.84,1.63-.675,17.678-.773,21.738a.5.5,0,1,1-1-.036l.773-21.739.693-18.14a.5.5,0,0,1,.479-.48l39.6-1.662a.5.5,0,0,1,.449.241,45.363,45.363,0,0,1,4.626,10.938,74.994,74.994,0,0,1,1.813,15.813c-.137,1.507-1.453,15.371-1.466,15.51A.5.5,0,0,1,496.875,390.535Z" transform="translate(-207.659 -160.305)" fill="#4045ab"/>
                    <path id="Trazado_912323" data-name="Trazado 912323" d="M479.547,193.936s5.76,7.1,7.9,11.253,4.555,15.54,4.555,15.54l.536,30.811s.938,20.228,1.34,20.764a4.334,4.334,0,0,1,.268,3.081,5.042,5.042,0,0,1-2.277,3.215,215.375,215.375,0,0,1-24.515,2.143c-13.128.536-17.415-.268-17.549-2.143s-.268-5.091-.268-5.091l.8-16.343,2.144-45.815.669-7.1Z" transform="translate(-207.031 -89.315)" fill="#fff"/>
                    <path id="Trazado_912324" data-name="Trazado 912324" d="M479.547,193.436a.5.5,0,0,1,.388.185c.237.292,5.817,7.188,7.96,11.338s4.5,15.2,4.6,15.665a.5.5,0,0,1,.011.095l.536,30.8c.344,7.414.991,19.435,1.282,20.538a4.9,4.9,0,0,1,.316,3.422c-.294,1.471-1.586,3.25-2.609,3.591a213.319,213.319,0,0,1-24.653,2.169c-2.655.108-5.009.163-6.994.163a39.622,39.622,0,0,1-8.261-.607c-.669-.157-2.7-.634-2.813-2.164-.133-1.862-.268-5.073-.269-5.106q0-.023,0-.045l.8-16.343,2.144-45.814c0-.008,0-.016,0-.024l.669-7.1a.5.5,0,0,1,.316-.419l26.39-10.315A.5.5,0,0,1,479.547,193.436Zm11.959,27.349c-.171-.8-2.48-11.455-4.5-15.368-1.855-3.594-6.531-9.521-7.619-10.883L453.626,204.6l-.639,6.781-2.143,45.8-.8,16.321c.012.291.14,3.289.266,5.054.038.528.725.953,2.043,1.262a38.787,38.787,0,0,0,8.033.58c1.972,0,4.312-.055,6.954-.162a220.437,220.437,0,0,0,24.378-2.118,4.679,4.679,0,0,0,1.945-2.839,3.966,3.966,0,0,0-.177-2.684c-.121-.162-.226-.3-.477-3.734-.128-1.747-.277-4.143-.442-7.121-.282-5.068-.517-10.135-.52-10.186q0-.007,0-.014Z" transform="translate(-207.031 -89.315)" fill="#4045ab"/>
                    <path id="Trazado_912325" data-name="Trazado 912325" d="M460.98,200.144l-8.707,4.555,3.349,6.832,6.162-6.3Z" transform="translate(-208.29 -92.175)" fill="#fff"/>
                    <path id="Trazado_912326" data-name="Trazado 912326" d="M460.98,199.644a.5.5,0,0,1,.494.422l.8,5.09a.5.5,0,0,1-.137.428l-6.162,6.3a.5.5,0,0,1-.806-.13l-3.349-6.832a.5.5,0,0,1,.217-.663l8.707-4.555A.5.5,0,0,1,460.98,199.644Zm.271,5.42-.656-4.154-7.659,4.006,2.823,5.759Z" transform="translate(-208.29 -92.175)" fill="#4045ab"/>
                    <path id="Trazado_912327" data-name="Trazado 912327" d="M451.7,208.587l-.67,8.037,2.947-3.215Z" transform="translate(-207.718 -96.063)" fill="#fff"/>
                    <path id="Trazado_912328" data-name="Trazado 912328" d="M451.7,208.087a.5.5,0,0,1,.452.287l2.277,4.823a.5.5,0,0,1-.084.551l-2.947,3.215a.5.5,0,0,1-.867-.379l.67-8.037a.5.5,0,0,1,.5-.458Zm1.681,5.233-1.338-2.834-.394,4.723Z" transform="translate(-207.718 -96.063)" fill="#4045ab"/>
                    <path id="Trazado_912329" data-name="Trazado 912329" d="M444.3,119.761s-3.215,9.377-2.813,11.253.67,4.019.67,4.019S437.2,140.525,437.6,142s3.215,3.081,3.215,3.081,1.206,11.119,2.545,12.458,7.9.67,7.9.67l2.411,5.76,18.352-8.172-1.473-7.368s3.617-13.4,3.617-17.951-8.574-13.4-16.477-13.8a24.666,24.666,0,0,0-13.4,3.081" transform="translate(-201.522 -53.721)" fill="#fff"/>
                    <path id="Trazado_912330" data-name="Trazado 912330" d="M456.424,116.147h0c.431,0,.866.011,1.3.033,3.677.187,7.873,2.181,11.512,5.47a22.26,22.26,0,0,1,3.9,4.54,8.552,8.552,0,0,1,1.54,4.287c0,4.4-3.228,16.568-3.6,17.967l1.45,7.253a.5.5,0,0,1-.287.555l-18.352,8.172a.5.5,0,0,1-.665-.264l-2.27-5.422c-.59.05-1.808.136-3.13.136-2.573,0-4.146-.322-4.808-.984-.409-.409-1.052-1.579-1.915-7.006-.385-2.42-.66-4.752-.746-5.5-.731-.444-2.841-1.832-3.228-3.253-.147-.54-.029-1.536,2.212-4.471.943-1.235,1.928-2.368,2.3-2.789-.08-.595-.316-2.269-.633-3.753-.069-.32-.278-1.3,1.265-6.574.748-2.56,1.556-4.921,1.564-4.945a.5.5,0,0,1,.205-.26,19.418,19.418,0,0,1,3.453-1.6A26.352,26.352,0,0,1,456.424,116.147ZM471.46,155.5l-1.395-6.976a.5.5,0,0,1,.008-.228c.036-.133,3.6-13.384,3.6-17.82,0-2.074-2.054-5.323-5.11-8.085-3.472-3.138-7.442-5.038-10.893-5.213-.412-.021-.831-.032-1.245-.032h0a25.343,25.343,0,0,0-8.567,1.515,20.157,20.157,0,0,0-3.145,1.433c-1.225,3.6-3.006,9.566-2.738,10.813.4,1.875.675,4.04.677,4.062a.5.5,0,0,1-.125.4c-.012.014-1.242,1.38-2.405,2.9-2.162,2.832-2.057,3.526-2.038,3.6.284,1.039,2.3,2.388,2.981,2.778a.5.5,0,0,1,.249.38c0,.028.306,2.8.768,5.706.846,5.318,1.465,6.284,1.634,6.453.208.208,1.023.691,4.1.691,1.76,0,3.383-.163,3.4-.165a.5.5,0,0,1,.512.3l2.214,5.289Z" transform="translate(-201.522 -53.721)" fill="#4045ab"/>
                    <path id="Trazado_912331" data-name="Trazado 912331" d="M447.792,110.826s-7.5,3.483-5.894,5.76,14.2,1.875,14.2,1.875-2.813,3.885-1.875,5.091,6.7,6.564,6.7,6.564-1.474,3.215-.4,4.153,3.483-.938,3.483-.938,3.751-2.813,5.493,1.072-3.35,7.368-4.019,7.636,3.483,2.546,4.822,2.948,1.474.938,2.144.268a26.384,26.384,0,0,0,7.769-14.6c1.742-9.243-3.483-13.932-6.832-16.745s-12.86-4.153-16.075-4.153a79.572,79.572,0,0,0-9.511,1.072" transform="translate(-203.408 -50.546)" fill="#4045ab"/>
                    <path id="Trazado_912332" data-name="Trazado 912332" d="M457.3,109.254c3.116,0,12.876,1.313,16.4,4.27a22.319,22.319,0,0,1,5.439,6.1,14.771,14.771,0,0,1,1.7,4.827,18.016,18.016,0,0,1-.14,6.3,28.262,28.262,0,0,1-4.08,10.278,24.493,24.493,0,0,1-3.677,4.44c-.063.06-.113.109-.149.145a1.327,1.327,0,0,1-.925.464,1.887,1.887,0,0,1-.8-.245,6.2,6.2,0,0,0-.914-.361,18.713,18.713,0,0,1-3.005-1.417,16.082,16.082,0,0,1-1.438-.9c-.575-.415-.794-.684-.807-.992a.6.6,0,0,1,.386-.582,8.41,8.41,0,0,0,1.683-1.237,8.112,8.112,0,0,0,2.071-2.775,3.642,3.642,0,0,0-.005-2.954,2.477,2.477,0,0,0-2.291-1.761,4.743,4.743,0,0,0-2.443.883,6.094,6.094,0,0,1-3.012,1.3,1.621,1.621,0,0,1-1.1-.386c-.6-.523-.718-1.508-.356-2.928a11.824,11.824,0,0,1,.49-1.474c-1.144-1.069-5.648-5.295-6.5-6.384-.527-.678-.352-1.834.537-3.536.262-.5.544-.971.781-1.342-.334,0-.741.008-1.2.008a67.874,67.874,0,0,1-7.009-.323c-4.065-.448-5.055-1.237-5.446-1.791a1.7,1.7,0,0,1-.252-1.464c.273-1.023,1.44-2.188,3.469-3.463a28.917,28.917,0,0,1,2.874-1.576.5.5,0,0,1,.127-.039A78.687,78.687,0,0,1,457.3,109.254Zm14.567,35.818s.06-.015.217-.172c.04-.04.095-.093.164-.159a26.158,26.158,0,0,0,7.467-14.182c1.737-9.215-3.727-13.8-6.662-16.27-3.17-2.663-12.479-4.036-15.754-4.036a77.816,77.816,0,0,0-9.36,1.054,28.681,28.681,0,0,0-2.713,1.493c-1.752,1.1-2.827,2.12-3.026,2.868a.7.7,0,0,0,.1.629c.2.277,1.05.967,4.739,1.374a66.884,66.884,0,0,0,6.9.317c1.272,0,2.128-.027,2.137-.027a.5.5,0,0,1,.421.793,18.85,18.85,0,0,0-1.256,2.04c-.969,1.858-.695,2.367-.63,2.45.9,1.161,6.587,6.452,6.644,6.505a.5.5,0,0,1,.114.574c-.531,1.16-1.065,3.1-.527,3.568a.647.647,0,0,0,.444.139,5.186,5.186,0,0,0,2.4-1.1l.007-.005a5.753,5.753,0,0,1,3.045-1.084,3.427,3.427,0,0,1,3.2,2.352,4.607,4.607,0,0,1,.02,3.739,10.268,10.268,0,0,1-3.816,4.3,14.362,14.362,0,0,0,1.684,1.055,17.115,17.115,0,0,0,2.6,1.22,7.163,7.163,0,0,1,1.052.414A1.706,1.706,0,0,0,471.87,145.072Z" transform="translate(-203.408 -50.546)" fill="#4045ab"/>
                    <path id="Trazado_912333" data-name="Trazado 912333" d="M442.464,169.331s-1.741,2.009-1.206,3.081a3.664,3.664,0,0,0,2.143,1.474s3.215.536,4.019.8,1.608-.938.67-2.278-4.823-3.349-5.627-3.081" transform="translate(-203.17 -77.973)" fill="#4045ab"/>
                    <path id="Trazado_912334" data-name="Trazado 912334" d="M442.645,168.807h0a8.8,8.8,0,0,1,3.043,1.144,9.65,9.65,0,0,1,2.812,2.174,2.267,2.267,0,0,1,.312,2.344,1.321,1.321,0,0,1-1.164.758,1.218,1.218,0,0,1-.386-.063c-.629-.21-3.059-.638-3.943-.785l-.039-.008a4.135,4.135,0,0,1-2.469-1.735,2.593,2.593,0,0,1,.417-2.416,8.774,8.774,0,0,1,.859-1.216.5.5,0,0,1,.22-.147A1.059,1.059,0,0,1,442.645,168.807Zm5,5.42a.353.353,0,0,0,.277-.22,1.3,1.3,0,0,0-.244-1.309,11.286,11.286,0,0,0-4.965-2.889c-.588.73-1.255,1.889-1.01,2.378a3.091,3.091,0,0,0,1.8,1.208c.309.052,3.268.551,4.073.819A.22.22,0,0,0,447.649,174.227Z" transform="translate(-203.17 -77.973)" fill="#4045ab"/>
                    <path id="Trazado_912335" data-name="Trazado 912335" d="M462.95,192.773,467.5,191.7l-2.813,4.555Z" transform="translate(-213.207 -88.286)" fill="#4045ab"/>
                    <path id="Trazado_912336" data-name="Trazado 912336" d="M467.5,191.2a.5.5,0,0,1,.425.763l-2.813,4.555a.5.5,0,0,1-.873-.039L462.5,193a.5.5,0,0,1,.333-.71l4.555-1.072A.5.5,0,0,1,467.5,191.2Zm-2.767,4.029,1.708-2.766-2.766.651Z" transform="translate(-213.207 -88.286)" fill="#4045ab"/>
                    <path id="Trazado_912337" data-name="Trazado 912337" d="M448.546,145.5a.5.5,0,0,1-.377-.829,3.44,3.44,0,0,1,1.409-.9,3.681,3.681,0,0,1,3.566.835.5.5,0,1,1-.62.785,2.769,2.769,0,0,0-2.592-.684,2.462,2.462,0,0,0-1.009.621A.5.5,0,0,1,448.546,145.5Z" transform="translate(-206.574 -66.366)" fill="#4045ab"/>
                    <path id="Trazado_912338" data-name="Trazado 912338" d="M451.263,150.96c0,.814-.33,1.474-.737,1.474s-.736-.66-.736-1.474.33-1.474.736-1.474.737.66.737,1.474" transform="translate(-207.146 -68.844)" fill="#4045ab"/>
                    <path id="Trazado_912339" data-name="Trazado 912339" d="M452.847,211.071s-4.019,1.876-5.09,4.287-.268,10.583-.268,10.583l-5.894,47.422,4.287,8.037,4.823-6.43-.8-48.627,4.555-10.047Z" transform="translate(-203.372 -97.207)" fill="#ee4f47"/>
                    <path id="Trazado_912340" data-name="Trazado 912340" d="M452.847,210.571a.5.5,0,0,1,.478.353l1.608,5.225a.5.5,0,0,1-.022.353l-4.508,9.945.8,48.515a.5.5,0,0,1-.1.308l-4.823,6.43a.5.5,0,0,1-.841-.065l-4.287-8.037a.5.5,0,0,1-.055-.3l5.887-47.367c-.075-.79-.763-8.356.314-10.779,1.134-2.552,5.165-4.457,5.336-4.537A.5.5,0,0,1,452.847,210.571Zm1.074,5.691-1.377-4.475c-1.085.58-3.567,2.056-4.331,3.774-.835,1.879-.447,8.095-.227,10.331a.5.5,0,0,1,0,.111l-5.875,47.265,3.842,7.2,4.249-5.665-.8-48.456a.5.5,0,0,1,.045-.215Z" transform="translate(-203.372 -97.207)" fill="#4045ab"/>
                    <path id="Trazado_912341" data-name="Trazado 912341" d="M481.79,185.493l-23.309,12.592,3.349,7.5,23.711-14.87Z" transform="translate(-211.149 -85.427)" fill="#fff"/>
                    <path id="Trazado_912342" data-name="Trazado 912342" d="M481.789,184.993a.5.5,0,0,1,.406.208l3.751,5.225a.5.5,0,0,1-.141.715L462.1,206.011a.5.5,0,0,1-.722-.22l-3.349-7.5a.5.5,0,0,1,.219-.644l23.309-12.592A.5.5,0,0,1,481.789,184.993Zm3.035,5.584-3.184-4.435L459.126,198.3l2.925,6.553Z" transform="translate(-211.149 -85.427)" fill="#4045ab"/>
                    <path id="Trazado_912343" data-name="Trazado 912343" d="M477.825,216.107s5.725-7.98,9.021-9.542,10.583,3.123,13.532,6.072,14.4,15.787,20.992,21.339,9.021,8.675,7.46,11.624-11.624,18.91-19.084,26.023-8.674,8.5-8.674,8.5a17.282,17.282,0,0,1-3.99-2.255c-2.082-1.561-2.255-2.949-2.255-2.949l11.451-27.932-22.727-19.6" transform="translate(-220.058 -94.988)" fill="#fff"/>
                    <path id="Trazado_912344" data-name="Trazado 912344" d="M501.072,280.624a.5.5,0,0,1-.17-.03,17.651,17.651,0,0,1-4.119-2.325c-2.226-1.669-2.443-3.222-2.452-3.287a.5.5,0,0,1,.033-.252l11.314-27.6-22.454-19.369a.5.5,0,0,1,.653-.757l22.727,19.6a.5.5,0,0,1,.136.568l-11.39,27.785a5.207,5.207,0,0,0,2.033,2.506,17.635,17.635,0,0,0,3.558,2.063c.621-.655,2.642-2.721,8.461-8.271,3.972-3.787,8.549-9.973,11.688-14.5,3.474-5,6.471-9.835,7.3-11.4,1.321-2.5-.531-5.273-7.341-11.007-4.82-4.059-12.151-11.917-17-17.116-1.8-1.93-3.223-3.454-4.02-4.252a28.5,28.5,0,0,0-6.512-4.637c-2.861-1.478-5.152-1.953-6.452-1.337-3.143,1.489-8.773,9.3-8.829,9.382a.5.5,0,1,1-.812-.583c.237-.33,5.839-8.1,9.214-9.7,2.036-.964,5.115.2,7.34,1.352a29.583,29.583,0,0,1,6.76,4.818c.81.809,2.237,2.339,4.045,4.277,4.835,5.182,12.142,13.013,16.916,17.033,3.638,3.064,5.7,5.125,6.881,6.892,1.346,2.007,1.568,3.707.7,5.348-.808,1.525-3.706,6.236-7.361,11.5-3.166,4.561-7.787,10.8-11.82,14.65-7.318,6.979-8.631,8.455-8.643,8.469A.5.5,0,0,1,501.072,280.624Z" transform="translate(-220.058 -94.988)" fill="#4045ab"/>
                    <path id="Trazado_912345" data-name="Trazado 912345" d="M478.389,259.824c-.458,0-.872-.007-1.23-.024a.5.5,0,0,1,.045-1c3.741.17,14.23-.684,14.336-.693a.5.5,0,1,1,.082,1C491.229,259.138,482.8,259.824,478.389,259.824Z" transform="translate(-219.762 -119.099)" fill="#4045ab"/>
                    <path id="Trazado_912346" data-name="Trazado 912346" d="M478.467,267.227a.5.5,0,0,1-.082-.993c3.037-.506,10.066-3.241,10.136-3.269a.5.5,0,0,1,.364.932c-.292.114-7.2,2.8-10.335,3.323A.5.5,0,0,1,478.467,267.227Z" transform="translate(-220.354 -121.321)" fill="#4045ab"/>
                    <path id="Línea_156" data-name="Línea 156" d="M1.909,1.021A.5.5,0,0,1,1.777,1L-.132.482A.5.5,0,0,1-.482-.132.5.5,0,0,1,.132-.482L2.04.038a.5.5,0,0,1-.131.983Z" transform="translate(253.604 139.335)" fill="#4045ab"/>
                    <path id="Trazado_912347" data-name="Trazado 912347" d="M538.548,288.507a.5.5,0,0,1-.1-.01,12,12,0,0,1-5.872-3.585,21.778,21.778,0,0,1-2.424-2.87.5.5,0,0,1,.828-.561h0c.035.052,3.582,5.219,7.664,6.036a.5.5,0,0,1-.1.99Z" transform="translate(-244.347 -129.763)" fill="#4045ab"/>
                    <path id="Trazado_912348" data-name="Trazado 912348" d="M539.533,294.542a.5.5,0,0,1-.19-.038c-3.036-1.25-6.145-5.192-6.276-5.359a.5.5,0,0,1,.787-.616h0c.03.039,3.078,3.9,5.869,5.051a.5.5,0,0,1-.191.962Z" transform="translate(-245.68 -133.021)" fill="#4045ab"/>
                    <path id="Trazado_912349" data-name="Trazado 912349" d="M519.87,332.54l-.046,0a9.212,9.212,0,0,1-6.3-3.319,10.33,10.33,0,0,1-1.759-2.91.5.5,0,0,1,.942-.335h0a9.52,9.52,0,0,0,1.6,2.626,8.121,8.121,0,0,0,5.6,2.942.5.5,0,0,1-.045,1Z" transform="translate(-235.905 -150.202)" fill="#4045ab"/>
                    <path id="Trazado_912350" data-name="Trazado 912350" d="M502.7,333.539a78.005,78.005,0,0,0-5.393,6.525c-1.235,1.954-2.572,3.7-2.366,4.217s1.543,4.835,2.263,5.555a5.214,5.214,0,0,0,3.189,1.132c.309-.206,4.629,0,5.143-.412s2.675-1.234,2.778-2.469a4.2,4.2,0,0,0-.514-2.263s1.851-3.086,1.851-4.218a9.929,9.929,0,0,0-.706-2.863s-5.481-3.088-6.245-5.2" transform="translate(-227.93 -153.608)" fill="#fff"/>
                    <path id="Trazado_912351" data-name="Trazado 912351" d="M502.7,333.039a.5.5,0,0,1,.47.33c.575,1.592,4.541,4.1,6.021,4.939a.5.5,0,0,1,.218.247,10.294,10.294,0,0,1,.743,3.052c0,1.081-1.28,3.377-1.781,4.234a4.652,4.652,0,0,1,.441,2.288c-.1,1.2-1.491,1.973-2.411,2.487a5.483,5.483,0,0,0-.553.331c-.371.3-1.214.362-3.556.4-.657.012-1.468.026-1.685.07a.915.915,0,0,1-.427.087,6.338,6.338,0,0,1-3.33-1.318c-.544-.544-1.244-2.4-2.129-5.016-.111-.33-.208-.614-.245-.707-.242-.6.286-1.443,1.5-3.282.3-.447.6-.909.9-1.388a76.845,76.845,0,0,1,5.446-6.594A.5.5,0,0,1,502.7,333.039Zm5.844,6.051c-.4-.233-1.524-.9-2.724-1.747a13.1,13.1,0,0,1-3.225-2.941,67.146,67.146,0,0,0-4.866,5.928c-.308.488-.617.955-.916,1.406a12.029,12.029,0,0,0-1.393,2.4c.05.131.131.372.248.717.346,1.024,1.4,4.139,1.889,4.629a5.523,5.523,0,0,0,2.622,1.025h.013a6.92,6.92,0,0,1,2.08-.157,16.575,16.575,0,0,0,2.969-.2,5.873,5.873,0,0,1,.671-.408c.691-.385,1.846-1.03,1.9-1.7a3.742,3.742,0,0,0-.445-1.964.5.5,0,0,1,0-.514,13.754,13.754,0,0,0,1.78-3.96A8.776,8.776,0,0,0,508.543,339.09Z" transform="translate(-227.93 -153.608)" fill="#4045ab"/>
                    <path id="Trazado_912352" data-name="Trazado 912352" d="M514.14,356.312s-1.954,2.366-3.189,2.88a8.81,8.81,0,0,1-2.263.617" transform="translate(-234.271 -164.096)" fill="#fff"/>
                    <path id="Trazado_912353" data-name="Trazado 912353" d="M508.687,360.309a.5.5,0,0,1-.049-1,8.425,8.425,0,0,0,2.12-.581,12.232,12.232,0,0,0,3-2.737.5.5,0,1,1,.771.637c-.208.252-2.071,2.477-3.382,3.023a9.27,9.27,0,0,1-2.406.653Z" transform="translate(-234.271 -164.096)" fill="#4045ab"/>
                  </g>
                </g>
                <g id="Grupo_1101294" data-name="Grupo 1101294">
                  <g id="Grupo_1101298" data-name="Grupo 1101298">
                    <path id="Trazado_912354" data-name="Trazado 912354" d="M128.054,386.289s1.026-14.95,2.785-28,5.423-18.028,5.423-18.028h53.205s5.57,26.53,8.648,46.17" transform="translate(-58.974 -156.706)" fill="#4045ab"/>
                    <path id="Trazado_912355" data-name="Trazado 912355" d="M198.114,386.936a.5.5,0,0,1-.493-.423c-2.836-18.1-7.854-42.359-8.56-45.748H136.529a22.772,22.772,0,0,0-1.877,3.865,59.607,59.607,0,0,0-3.318,13.73c-1.736,12.88-2.771,27.813-2.781,27.963a.5.5,0,0,1-1-.068c.01-.15,1.047-15.116,2.788-28.028a60.441,60.441,0,0,1,3.4-14.023,20.388,20.388,0,0,1,2.114-4.235.5.5,0,0,1,.4-.2h53.205a.5.5,0,0,1,.489.4c.056.265,5.608,26.767,8.652,46.2a.5.5,0,0,1-.495.577Z" transform="translate(-58.974 -156.706)" fill="#4045ab"/>
                    <path id="Trazado_912356" data-name="Trazado 912356" d="M126.8,199.26s-19.325,8.386-19.568,9.48S78.75,240.655,79.723,242.113s17.691,17.619,17.691,17.619l6.277-7.49L99.21,243.5l15.07-15.922s7.657,22,7.657,23.335-3.16,6.32-4.74,11.06-5.348,14.949-5.348,14.949,14.463,7.292,21.026,9.237,11.546,2.917,11.546,2.917l3.16-8.629,2.431,8.629s6.684-1.945,10.938-4.74a42.192,42.192,0,0,0,8.022-7.414l-6.563-28.8.243-9.845s12.033,13.126,13.491,12.154,16.651-28.683,16.651-28.683l-7.778-6.563-9.966,10.209s-7.536-13.734-7.778-15.314-1.945-6.806-2.917-7.657-11.059-3.282-14.22-3.646a24.8,24.8,0,0,1-4.254-.729s-13.855.121-19.081,1.215" transform="translate(-36.704 -91.208)" fill="#f6ccb3"/>
                    <path id="Trazado_912357" data-name="Trazado 912357" d="M145.88,197.545a.5.5,0,0,1,.157.025,25.249,25.249,0,0,0,4.155.707,78.6,78.6,0,0,1,7.994,1.652c2.607.652,5.85,1.547,6.5,2.114,1.156,1.011,2.86,6.511,3.082,7.957.161,1.048,4.491,9.238,7.4,14.558l9.494-9.726a.5.5,0,0,1,.68-.033l7.779,6.563a.5.5,0,0,1,.116.622c-.038.069-3.845,7.011-7.782,13.982-8.02,14.2-8.754,14.692-9.03,14.876a.836.836,0,0,1-.473.135c-.423,0-1.179-.23-3.29-2.026-1.2-1.021-2.714-2.441-4.5-4.222-2.037-2.031-3.973-4.079-5.035-5.216l-.211,8.553,6.549,28.743a.5.5,0,0,1-.1.427,42.182,42.182,0,0,1-8.135,7.516,48.865,48.865,0,0,1-11.073,4.8.5.5,0,0,1-.621-.345l-2.012-7.141-2.629,7.178a.5.5,0,0,1-.565.319c-.05-.01-5.082-1-11.592-2.928-6.531-1.935-20.517-8.972-21.109-9.27a.5.5,0,0,1-.244-.62c.038-.1,3.783-10.256,5.342-14.934a58.366,58.366,0,0,1,3.089-7.074,17.3,17.3,0,0,0,1.625-3.828c-.036-.9-3.769-12.058-7.359-22.394L99.816,243.587l4.319,8.427a.5.5,0,0,1-.062.549l-6.277,7.49a.5.5,0,0,1-.731.038c-.684-.661-16.768-16.215-17.759-17.7-.281-.422-.12-1.021,1.554-3.284,1.037-1.4,2.553-3.3,4.635-5.787,3.8-4.543,8.612-10.047,12.862-14.9,4.144-4.735,8.06-9.21,8.4-9.833.073-.246.3-.491,1.127-.992.533-.323,1.3-.74,2.282-1.239,1.639-.835,3.9-1.917,6.733-3.216,4.811-2.21,9.654-4.313,9.7-4.334a.5.5,0,0,1,.1-.031c5.215-1.092,18.612-1.221,19.179-1.226Zm29.17,28.346a.5.5,0,0,1-.438-.259c-.019-.034-1.908-3.479-3.8-7.072-3.868-7.336-3.991-8.142-4.032-8.407a27.883,27.883,0,0,0-1.162-4.009,10.76,10.76,0,0,0-1.591-3.347c-.29-.254-2.317-.955-6.081-1.9a78.982,78.982,0,0,0-7.866-1.629,27.939,27.939,0,0,1-4.269-.725c-1.111.012-13.9.173-18.857,1.194-.5.217-4.862,2.117-9.291,4.147-8.342,3.822-9.737,4.812-9.964,5.047-.076.213-.4.695-2.61,3.275-1.53,1.785-3.59,4.139-5.976,6.866-4.078,4.66-8.7,9.942-12.426,14.383-2.035,2.425-3.553,4.3-4.64,5.737a13.812,13.812,0,0,0-1.824,2.751C81.5,243.554,92.609,254.387,97.375,259l5.719-6.824-4.329-8.447a.5.5,0,0,1,.082-.572l15.07-15.922a.5.5,0,0,1,.835.179c.019.055,1.937,5.567,3.83,11.171,3.855,11.411,3.855,12.078,3.855,12.329,0,.728-.592,1.965-1.728,4.269a57.592,57.592,0,0,0-3.037,6.949c-1.383,4.147-4.472,12.57-5.2,14.544,2.373,1.183,14.7,7.274,20.544,9,5.389,1.6,9.753,2.544,11.082,2.82l3.012-8.225a.5.5,0,0,1,.951.036l2.292,8.137a46.953,46.953,0,0,0,10.321-4.53,41.4,41.4,0,0,0,7.754-7.127l-6.508-28.563a.5.5,0,0,1-.012-.123l.243-9.845a.5.5,0,0,1,.868-.326c.028.03,2.826,3.08,5.844,6.089,5.358,5.342,6.743,5.9,7.04,5.951.372-.368,1.964-2.611,8.739-14.612,3.4-6.024,6.69-12,7.515-13.5l-7.11-6-9.641,9.876A.5.5,0,0,1,175.05,225.891Z" transform="translate(-36.704 -91.208)" fill="#4045ab"/>
                    <path id="Trazado_912358" data-name="Trazado 912358" d="M134.492,238.831l1.3,11.578,3.723-4.046Z" transform="translate(-61.939 -109.991)" fill="#4045ab"/>
                    <path id="Trazado_912359" data-name="Trazado 912359" d="M134.492,238.331a.5.5,0,0,1,.416.223l5.023,7.531a.5.5,0,0,1-.048.616l-3.723,4.046a.5.5,0,0,1-.865-.283L134,238.887a.5.5,0,0,1,.5-.556Zm4.389,7.982-3.662-5.491.948,8.442Z" transform="translate(-61.939 -109.991)" fill="#4045ab"/>
                    <path id="Trazado_912360" data-name="Trazado 912360" d="M129.811,230.833a.5.5,0,0,1-.424-.234c-.669-1.065-1.089-1.73-1.324-2.093a.5.5,0,0,1,.84-.542c.237.367.659,1.035,1.33,2.1a.5.5,0,0,1-.423.766Z" transform="translate(-59.172 -105.111)" fill="#4045ab"/>
                    <path id="Trazado_912361" data-name="Trazado 912361" d="M138.648,241.671a.5.5,0,0,1-.425-.237c-.035-.057-3.561-5.747-6.038-9.713a.5.5,0,0,1,.848-.53c1.049,1.68,2.286,3.668,3.367,5.408l-3.324-8.865a.5.5,0,1,1,.936-.351l5.1,13.612a.5.5,0,0,1-.468.676Z" transform="translate(-61.071 -104.8)" fill="#4045ab"/>
                    <path id="Trazado_912362" data-name="Trazado 912362" d="M233.056,251.018a.5.5,0,0,1-.444-.728h0a10.553,10.553,0,0,0,.754-2.66,28.284,28.284,0,0,0,.045-8.354c-.963-7.707-1.336-14.551-1.34-14.62a.5.5,0,0,1,1-.054c0,.068.375,6.879,1.334,14.549.98,7.842-.825,11.445-.9,11.595A.5.5,0,0,1,233.056,251.018Z" transform="translate(-107.108 -103.451)" fill="#4045ab"/>
                    <path id="Trazado_912363" data-name="Trazado 912363" d="M233.921,230.347a.5.5,0,0,1-.5-.5c0-3.457,2.364-9.641,2.465-9.9a.5.5,0,0,1,.933.359c-.024.062-2.4,6.273-2.4,9.544A.5.5,0,0,1,233.921,230.347Z" transform="translate(-107.73 -101.376)" fill="#4045ab"/>
                    <path id="Trazado_912364" data-name="Trazado 912364" d="M233.02,224.128a.5.5,0,0,1-.5-.5,50,50,0,0,1,.81-8.121.5.5,0,0,1,.985.172,49.007,49.007,0,0,0-.795,7.949A.5.5,0,0,1,233.02,224.128Z" transform="translate(-107.315 -99.289)" fill="#4045ab"/>
                    <path id="Trazado_912365" data-name="Trazado 912365" d="M235.174,211.4a.5.5,0,0,1-.49-.6c.174-.851.3-1.359.3-1.38a.5.5,0,0,1,.972.233c0,.005-.123.514-.293,1.347A.5.5,0,0,1,235.174,211.4Z" transform="translate(-108.307 -96.499)" fill="#4045ab"/>
                    <path id="Línea_157" data-name="Línea 157" d="M0,6.82H-.038A.5.5,0,0,1-.5,6.281l.486-6.32A.5.5,0,0,1,.524-.5a.5.5,0,0,1,.46.537L.5,6.358A.5.5,0,0,1,0,6.82Z" transform="translate(137.859 134.183)" fill="#4045ab"/>
                    <path id="Línea_158" data-name="Línea 158" d="M1.215,7.549a.5.5,0,0,1-.492-.415L-.493.085A.5.5,0,0,1-.085-.493a.5.5,0,0,1,.578.408L1.708,6.964a.5.5,0,0,1-.493.585Z" transform="translate(61.29 145.243)" fill="#4045ab"/>
                    <path id="Línea_159" data-name="Línea 159" d="M.294,8.519a.5.5,0,0,1-.5-.482L-.5.018A.5.5,0,0,1-.018-.5.5.5,0,0,1,.5-.018L.794,8a.5.5,0,0,1-.481.518Z" transform="translate(110.584 173.686)" fill="#4045ab"/>
                    <path id="Trazado_912366" data-name="Trazado 912366" d="M202.045,278.927a.5.5,0,0,1-.5-.482l-.475-12.957q0-.015,0-.03c0-.052.123-5.323.243-13.851.119-8.452-2.986-19.07-3.018-19.176a.5.5,0,0,1,.959-.283c.008.027.8,2.737,1.575,6.467a64.15,64.15,0,0,1,1.484,13.006c-.117,8.309-.235,13.529-.243,13.845l.474,12.942a.5.5,0,0,1-.481.518Z" transform="translate(-91.544 -106.979)" fill="#4045ab"/>
                    <path id="Línea_160" data-name="Línea 160" d="M0,7.876A.5.5,0,0,1-.363,7.72a.5.5,0,0,1,.019-.707L7.442-.363a.5.5,0,0,1,.707.019A.5.5,0,0,1,8.13.363L.344,7.739A.5.5,0,0,1,0,7.876Z" transform="translate(56.785 157.154)" fill="#4045ab"/>
                    <path id="Línea_161" data-name="Línea 161" d="M8.872,8.157a.5.5,0,0,1-.326-.121L-.327.379A.5.5,0,0,1-.379-.327.5.5,0,0,1,.327-.379L9.2,7.279a.5.5,0,0,1-.327.879Z" transform="translate(143.814 128.471)" fill="#4045ab"/>
                    <path id="Trazado_912367" data-name="Trazado 912367" d="M169.487,185l1.7,7.535L184.679,207.6l2.552-16.408-.729-8.022s-3.646,3.4-4.74,3.768S169.487,185,169.487,185" transform="translate(-78.056 -84.359)" fill="#fff"/>
                    <path id="Trazado_912368" data-name="Trazado 912368" d="M186.5,182.675a.5.5,0,0,1,.5.455l.729,8.022a.5.5,0,0,1,0,.122l-2.552,16.408a.5.5,0,0,1-.867.257l-13.491-15.071a.5.5,0,0,1-.115-.223l-1.7-7.535a.5.5,0,0,1,.589-.6c.1.02,9.581,1.973,11.78,1.973a1.237,1.237,0,0,0,.24-.015,27.743,27.743,0,0,0,4.553-3.658A.5.5,0,0,1,186.5,182.675Zm.225,8.506-.632-6.956a21.461,21.461,0,0,1-4.175,3.192,1.761,1.761,0,0,1-.552.065c-1.946,0-8.889-1.368-11.223-1.839l1.5,6.654,12.7,14.187Z" transform="translate(-78.056 -84.359)" fill="#4045ab"/>
                    <path id="Trazado_912369" data-name="Trazado 912369" d="M181.426,191.356l-8.668,4.079-1.7-3.4-1.572-3.9Z" transform="translate(-78.056 -86.642)" fill="#4045ab"/>
                    <path id="Trazado_912370" data-name="Trazado 912370" d="M169.487,187.632a.5.5,0,0,1,.13.017l11.939,3.224a.5.5,0,0,1,.083.935l-8.668,4.079a.5.5,0,0,1-.66-.229l-1.7-3.4q-.009-.018-.017-.037l-1.572-3.9a.5.5,0,0,1,.464-.687Zm10.493,3.852-9.655-2.607,1.189,2.954,1.472,2.944Z" transform="translate(-78.056 -86.642)" fill="#4045ab"/>
                    <path id="Trazado_912371" data-name="Trazado 912371" d="M167.308,193.088l12.4,8.872-1.7,9.845L164.756,197.1Z" transform="translate(-75.877 -88.925)" fill="#f6ccb3"/>
                    <path id="Trazado_912372" data-name="Trazado 912372" d="M167.308,192.588a.5.5,0,0,1,.291.093l12.4,8.872a.5.5,0,0,1,.2.492l-1.7,9.845a.5.5,0,0,1-.864.25l-13.248-14.706a.5.5,0,0,1-.05-.6l2.552-4.011a.5.5,0,0,1,.422-.232Zm11.851,9.6L167.446,193.8l-2.065,3.245,12.3,13.659Z" transform="translate(-75.877 -88.925)" fill="#4045ab"/>
                    <path id="Trazado_912373" data-name="Trazado 912373" d="M199.665,193.764l-2.917,8.629,5.955,7.657-.851-13.369Z" transform="translate(-90.61 -89.236)" fill="#f6ccb3"/>
                    <path id="Trazado_912374" data-name="Trazado 912374" d="M199.665,193.264a.5.5,0,0,1,.4.2l2.188,2.917a.5.5,0,0,1,.1.268l.851,13.369a.5.5,0,0,1-.894.339l-5.955-7.657a.5.5,0,0,1-.079-.467l2.917-8.629a.5.5,0,0,1,.474-.34Zm1.7,3.6-1.528-2.038-2.527,7.475,4.793,6.163Z" transform="translate(-90.61 -89.236)" fill="#4045ab"/>
                    <path id="Trazado_912375" data-name="Trazado 912375" d="M143.441,163.988s-2.674,4.011-3.038,5.834,3.4,7.657,4.254,8.265,5.1.122,6.442-.486,2.917-1.7,3.282-3.038.729-2.917.364-3.89-3.038-8.021-5.348-9.358-5.955,2.674-5.955,2.674" transform="translate(-64.65 -74.166)" fill="#4045ab"/>
                    <path id="Trazado_912376" data-name="Trazado 912376" d="M148.339,160.541h0a2.573,2.573,0,0,1,1.308.34c1.058.612,2.27,2.3,3.6,5.029.947,1.937,1.689,3.853,1.963,4.586.4,1.077.07,2.653-.35,4.2-.5,1.849-2.85,3.041-3.557,3.362a15.11,15.11,0,0,1-4.96.81,3.63,3.63,0,0,1-1.979-.373,17.467,17.467,0,0,1-2.726-3.836c-.916-1.61-1.959-3.773-1.727-4.934.379-1.9,3-5.846,3.113-6.013a.5.5,0,0,1,.046-.059C143.187,163.524,145.926,160.541,148.339,160.541Zm-1.994,17.324a14.482,14.482,0,0,0,4.546-.721c1.25-.568,2.7-1.58,3.006-2.715.358-1.315.683-2.769.378-3.582-1.353-3.612-3.508-8.162-5.13-9.1a1.565,1.565,0,0,0-.807-.206c-1.62,0-3.773,1.962-4.5,2.755-.247.375-2.619,4-2.943,5.623-.1.5.271,1.881,1.615,4.243a17.467,17.467,0,0,0,2.439,3.517A3.185,3.185,0,0,0,146.345,177.865Z" transform="translate(-64.65 -74.166)" fill="#4045ab"/>
                    <path id="Trazado_912377" data-name="Trazado 912377" d="M201.479,149.6s1.094-2.309,2.066-.121-.365,7.292-.365,7.292Z" transform="translate(-92.789 -68.407)" fill="#fff"/>
                    <path id="Trazado_912378" data-name="Trazado 912378" d="M202.61,148.037c.558,0,1.027.417,1.392,1.239,1.031,2.32-.282,7.407-.338,7.622a.5.5,0,0,1-.97-.011l-1.7-7.172a.5.5,0,0,1,.035-.33C201.134,149.16,201.712,148.037,202.61,148.037Zm.535,6.419c.266-1.669.422-3.7-.057-4.774-.235-.529-.425-.645-.478-.645-.123,0-.4.277-.6.628Z" transform="translate(-92.789 -68.407)" fill="#4045ab"/>
                    <path id="Trazado_912379" data-name="Trazado 912379" d="M174.108,136.968s-.486-3.16-.486-4.132,1.945-4.376.243-8.994-5.834-6.32-8.751-7.17-4.132.486-4.132.486-2.917-2.309-7.778-.122S143.115,127,141.657,130.4s-.243,11.3.972,13.734,8.508,1.58,8.508,1.58,1.823,1.823,2.431.486-1.459-5.712-1.459-5.712l11.668-12.519,7.9,5.712s.729,3.889,1.459,4.254.972-.972.972-.972" transform="translate(-64.932 -53.466)" fill="#4045ab"/>
                    <path id="Trazado_912380" data-name="Trazado 912380" d="M152.875,147.194a3.383,3.383,0,0,1-1.913-.955c-.434.042-1.426.123-2.6.123-3.436,0-5.515-.673-6.179-2a22.674,22.674,0,0,1-1.539-6.676c-.189-1.869-.368-5.326.555-7.479a35.716,35.716,0,0,1,4.565-7.254c1.754-2.212,4.433-5.113,7.236-6.374a10.391,10.391,0,0,1,4.258-.986,7.238,7.238,0,0,1,3.7.945,4.08,4.08,0,0,1,2.339-.651,7.047,7.047,0,0,1,1.962.3,17.218,17.218,0,0,1,4.975,2.241,10.8,10.8,0,0,1,4.105,5.237,12.306,12.306,0,0,1,.016,8.24,5.18,5.18,0,0,0-.228.927c0,.923.475,4.025.48,4.056a.5.5,0,0,1,0,.166c-.121.667-.514,1.446-1.222,1.446h0a1.037,1.037,0,0,1-.466-.116c-.325-.162-.729-.6-1.262-2.581-.2-.763-.358-1.491-.426-1.83l-7.382-5.338L152.7,140.589c.187.418.527,1.211.836,2.093.637,1.824.8,3.044.485,3.729A1.225,1.225,0,0,1,152.875,147.194Zm-1.738-1.976a.5.5,0,0,1,.354.146,2.823,2.823,0,0,0,1.384.83c.066,0,.148,0,.238-.2.07-.153.238-.82-.516-2.978-.427-1.223-.935-2.3-.94-2.313a.5.5,0,0,1,.086-.554l11.668-12.519a.5.5,0,0,1,.659-.064l7.9,5.712a.5.5,0,0,1,.2.313c0,.009.172.911.424,1.865a5.454,5.454,0,0,0,.773,2.033,1.424,1.424,0,0,0,.235-.538c-.081-.537-.478-3.2-.478-4.118a4.877,4.877,0,0,1,.269-1.21,11.25,11.25,0,0,0,0-7.611c-1.631-4.426-5.587-6.037-8.421-6.863a6.054,6.054,0,0,0-1.682-.263,2.749,2.749,0,0,0-1.942.608.487.487,0,0,1-.678.053,5.939,5.939,0,0,0-3.416-.956,9.4,9.4,0,0,0-3.847.9c-4.615,2.077-9.8,9.639-11.292,13.11-.609,1.422-.784,3.967-.479,6.984a21.69,21.69,0,0,0,1.439,6.329c.46.92,2.386,1.447,5.284,1.447a26.492,26.492,0,0,0,2.718-.141A.5.5,0,0,1,151.137,145.218Z" transform="translate(-64.932 -53.466)" fill="#4045ab"/>
                    <path id="Trazado_912381" data-name="Trazado 912381" d="M170.366,132.033s-3.646,7.171-9.115,11.425-4.254,4.5-4.254,4.5,2.309,4.862,1.459,5.1-1.459-.851-1.459-.851,5.956,9.359,6.685,10.088,8.143,3.768,10.087,3.889a9.861,9.861,0,0,0,5.47-1.215c1.337-.851,4.983-9.115,4.375-11.181s-3.768-15.557-4.375-16.408-8.873-5.348-8.873-5.348" transform="translate(-72.25 -60.807)" fill="#fff"/>
                    <path id="Trazado_912382" data-name="Trazado 912382" d="M170.366,131.533a.5.5,0,0,1,.239.061c.021.011,2.1,1.141,4.218,2.36,4.379,2.515,4.689,2.95,4.822,3.136.395.553,1.351,4.219,3.215,11.717.557,2.24,1.037,4.174,1.233,4.84.434,1.475-.887,4.952-1.476,6.378-.874,2.118-2.213,4.795-3.111,5.366a10.127,10.127,0,0,1-5.137,1.312c-.213,0-.426-.007-.633-.019a29.159,29.159,0,0,1-5.653-1.751c-.419-.166-4.113-1.639-4.757-2.284-.686-.686-5.264-7.837-6.66-10.026-.065-.094-.1-.16-.109-.173a.5.5,0,0,1,.859-.511l.083.131a1.2,1.2,0,0,0,.642.518,8.663,8.663,0,0,0-.7-2.343c-.338-.857-.7-1.652-.839-1.951a.657.657,0,0,1-.2-.345c-.094-.4.133-.868.759-1.569a30.846,30.846,0,0,1,3.783-3.317c5.319-4.138,8.941-11.186,8.977-11.257a.5.5,0,0,1,.446-.273Zm8.464,6.136c-.382-.486-4.417-2.852-8.26-4.955-.371.68-1.16,2.059-2.3,3.719a34.049,34.049,0,0,1-6.714,7.419c-3.279,2.55-3.985,3.536-4.137,3.838a.5.5,0,0,1,.027.05c.02.043.506,1.067.953,2.211.855,2.183.809,2.834.651,3.183a.719.719,0,0,1-.46.406q-.065.019-.132.031c2.617,4.083,5.166,7.964,5.574,8.372A24.69,24.69,0,0,0,168.453,164a25.888,25.888,0,0,0,5.347,1.683c.186.012.378.017.57.017a9.22,9.22,0,0,0,4.6-1.156c.457-.291,1.628-2.248,2.723-4.9s1.669-4.939,1.441-5.715c-.2-.687-.662-2.538-1.244-4.881C180.891,145.03,179.221,138.311,178.83,137.669Z" transform="translate(-72.25 -60.807)" fill="#4045ab"/>
                    <path id="Trazado_912383" data-name="Trazado 912383" d="M164.079,157.84a1,1,0,0,1-.831-1.555c.1-.151,2.514-3.709,6.264-3.848a1,1,0,0,1,.074,2c-2.739.1-4.655,2.93-4.674,2.958A1,1,0,0,1,164.079,157.84Z" transform="translate(-75.565 -70.664)" fill="#4045ab"/>
                    <path id="Trazado_912384" data-name="Trazado 912384" d="M184.358,149.092a1,1,0,0,1-.563-1.827A11.843,11.843,0,0,1,186,146.14a5.92,5.92,0,0,1,4.6-.175,1,1,0,0,1-.821,1.824c-1.566-.7-4.041.578-4.863,1.132A1,1,0,0,1,184.358,149.092Z" transform="translate(-84.903 -67.507)" fill="#4045ab"/>
                    <path id="Trazado_912385" data-name="Trazado 912385" d="M169.8,164.785a5.291,5.291,0,0,1-1.355-.173.5.5,0,0,1,.279-.96h0c.1.029,2.525.7,3.42-1.192a.5.5,0,0,1,.9.428,3.257,3.257,0,0,1-2.824,1.879C170.079,164.78,169.937,164.785,169.8,164.785Z" transform="translate(-77.641 -74.918)" fill="#4045ab"/>
                    <path id="Trazado_912386" data-name="Trazado 912386" d="M189.518,157.913a6.561,6.561,0,0,1-1.454-.159.5.5,0,0,1,.242-.97h0a5.688,5.688,0,0,0,1.7.107,2.491,2.491,0,0,0,2.224-1.407.5.5,0,1,1,.912.41,3.475,3.475,0,0,1-3.069,1.994C189.88,157.906,189.695,157.913,189.518,157.913Z" transform="translate(-86.667 -71.701)" fill="#4045ab"/>
                    <path id="Trazado_912387" data-name="Trazado 912387" d="M184.772,173.41a7.048,7.048,0,0,1-1.67-.234.5.5,0,0,1,.257-.966h0a3.807,3.807,0,0,0,2.146.067,1.759,1.759,0,0,0,.632-1.1.5.5,0,0,1,.992.124,2.766,2.766,0,0,1-1.07,1.813A2.364,2.364,0,0,1,184.772,173.41Z" transform="translate(-84.385 -78.86)" fill="#4045ab"/>
                    <path id="Trazado_912388" data-name="Trazado 912388" d="M189.184,180.144a.989.989,0,0,0-.345-1.575,3.432,3.432,0,0,0-2.854.06c-2.239,1.021-2.52,2.084-1.99,2.655s2.471.734,3.954-.153a5.519,5.519,0,0,0,1.235-.988" transform="translate(-84.631 -82.109)" fill="#4045ab"/>
                    <path id="Trazado_912389" data-name="Trazado 912389" d="M154.689,168.74s-1.945-1.823-2.674,0,1.458,3.282,2.309,4.254,3.646.851,3.646.851Z" transform="translate(-69.942 -77.338)" fill="#fff"/>
                    <path id="Trazado_912390" data-name="Trazado 912390" d="M153.032,167.43h0a3.457,3.457,0,0,1,2,.946.5.5,0,0,1,.079.094l3.282,5.1a.5.5,0,0,1-.4.77c-.005,0-.125.005-.32.005-1.055,0-2.943-.133-3.724-1.026-.156-.178-.376-.388-.608-.611-.994-.951-2.5-2.387-1.788-4.158A1.562,1.562,0,0,1,153.032,167.43Zm1.272,1.637a2.479,2.479,0,0,0-1.272-.637c-.105,0-.354,0-.553.5-.423,1.058.452,2.013,1.551,3.064.249.238.485.463.67.675a3.829,3.829,0,0,0,2.346.667Z" transform="translate(-69.942 -77.338)" fill="#4045ab"/>
                    <path id="Trazado_912391" data-name="Trazado 912391" d="M274.926,209.78l14.054-17.06a8.1,8.1,0,0,1,2.409-2.986c1.348-.77,7.7-1.445,7.7-1.445s2.793-2.793,3.852-1.734,0,2.023-.385,2.408-3.66,2.312-3.66,2.312l6.356,2.5s7.513,2.5,7.417,2.889-2.12.578-2.12.578l-3.179,1.059s-1.637,1.156-2.312,1.541-13.773-.1-13.773-.1L282.7,216.343Z" transform="translate(-126.614 -85.806)" fill="#fff"/>
                    <path id="Trazado_912392" data-name="Trazado 912392" d="M282.7,216.843a.5.5,0,0,1-.322-.118l-7.778-6.563a.5.5,0,0,1-.063-.7l14.017-17.015a8.312,8.312,0,0,1,2.584-3.147c1.314-.751,6.554-1.36,7.727-1.489.5-.481,2.187-2,3.457-2a1.344,1.344,0,0,1,.974.386,1.838,1.838,0,0,1,.6,1.317,2.638,2.638,0,0,1-.943,1.752l-.047.047a28.7,28.7,0,0,1-2.88,1.867l5.395,2.125c.17.057,1.973.66,3.743,1.3,1.091.394,1.958.725,2.577.984.383.16.668.291.871.4s.651.349.54.8c-.1.4-.518.624-1.49.8-.436.081-.858.129-1.009.145l-3.056,1.019c-.308.217-1.671,1.169-2.291,1.524-.159.091-.377.215-3.272.215-3.523,0-9.073-.187-10.451-.235l-8.442,16.312a.5.5,0,0,1-.444.27Zm-7.078-7.127,6.922,5.841,8.3-16.037a.5.5,0,0,1,.462-.27c.067,0,6.723.246,10.731.246a17.965,17.965,0,0,0,2.806-.1c.664-.386,2.225-1.487,2.241-1.5a.5.5,0,0,1,.13-.066l3.179-1.059a.5.5,0,0,1,.111-.023c.364-.035.738-.09,1.051-.152-1.289-.55-3.977-1.516-6.459-2.343l-.025-.009-6.356-2.5a.5.5,0,0,1-.07-.9c1.577-.928,3.34-2.017,3.559-2.234l.05-.05c.226-.224.646-.64.646-1.044a.876.876,0,0,0-.311-.607.341.341,0,0,0-.267-.094c-.766,0-2.172,1.121-2.878,1.827a.5.5,0,0,1-.3.144c-1.739.185-6.479.792-7.509,1.382a7.653,7.653,0,0,0-2.206,2.768.5.5,0,0,1-.065.1Z" transform="translate(-126.614 -85.806)" fill="#4045ab"/>
                    <path id="Trazado_912393" data-name="Trazado 912393" d="M304.5,200.208a19.235,19.235,0,0,1,5.008-.385c1.637.289,8.187,2.408,8.187,2.408s4.623-5.875,4.334-3.467-4.141,6.55-4.141,6.55-8.957-.1-13.773-.1a3.023,3.023,0,0,1-1.349-1.541" transform="translate(-139.435 -91.272)" fill="#fff"/>
                    <path id="Trazado_912394" data-name="Trazado 912394" d="M317.886,205.813h-.005c-.09,0-9.01-.1-13.767-.1a.5.5,0,0,1-.224-.053,3.531,3.531,0,0,1-1.6-1.818.5.5,0,0,1,.94-.342,2.523,2.523,0,0,0,1.013,1.212c4.366,0,12.02.08,13.421.094,1.1-1.213,3.51-4.174,3.839-5.954a12.606,12.606,0,0,0-1.8,1.761c-.86.961-1.61,1.913-1.618,1.922a.5.5,0,0,1-.547.167c-.065-.021-6.535-2.111-8.12-2.391a18.879,18.879,0,0,0-4.823.383.5.5,0,1,1-.2-.981,19.356,19.356,0,0,1,5.193-.387c1.458.257,6.56,1.88,7.925,2.318.316-.391.936-1.145,1.613-1.889,1.783-1.961,2.449-2.227,2.948-2.02.25.1.53.376.445,1.084-.305,2.54-4.11,6.657-4.272,6.831A.5.5,0,0,1,317.886,205.813Z" transform="translate(-139.435 -91.272)" fill="#4045ab"/>
                    <path id="Trazado_912395" data-name="Trazado 912395" d="M118.814,298.511l9.416,12.126,5.422-6.99,6.777-1.641s5.136,1.926,5.207,2.14a.731.731,0,0,1-.571.856,31.611,31.611,0,0,1-4.209-1.142l-4.422,1.356,4.28.142s5.849,2.14,5.921,2.425-.214.785-1.284.927-4.78-1-4.78-1l-4.066.713,5.136.856s3.353,1.5,3.5,2.068-1.284.714-1.284.714l-3.5-1.569h-3.638l3.21,1.569,2.211,2a2.559,2.559,0,0,1-1.426.5,8.276,8.276,0,0,1-2.14-1.07s-3.139-1.284-3.353-1.426-3.5,3.638-4.851,4.423a6.541,6.541,0,0,1-2.782,1.07c-.5,0-15.051-11.556-15.051-11.556Z" transform="translate(-51.828 -137.476)" fill="#fff"/>
                    <path id="Trazado_912396" data-name="Trazado 912396" d="M118.814,298.011h.009a.5.5,0,0,1,.386.193l9.021,11.618,5.027-6.481a.5.5,0,0,1,.277-.18l6.777-1.641a.5.5,0,0,1,.293.018c.013,0,1.3.489,2.584.993.755.3,1.361.543,1.8.731.925.4,1.045.5,1.121.727a1.227,1.227,0,0,1-.156.966,1.141,1.141,0,0,1-.818.542.85.85,0,0,1-.121.008,28.828,28.828,0,0,1-4.163-1.12l-1.407.431,1.286.043a.5.5,0,0,1,.155.03c.015.005,1.484.543,2.943,1.109.86.334,1.549.612,2.049.827.963.415,1.172.556,1.242.837a.959.959,0,0,1-.159.775,2.071,2.071,0,0,1-1.544.769,2.125,2.125,0,0,1-.281.017,23.857,23.857,0,0,1-4.6-1l-1.069.188,2.253.375a.5.5,0,0,1,.122.037c.035.016.862.386,1.721.833,1.764.919,1.983,1.279,2.055,1.57a.8.8,0,0,1-.125.664,2.459,2.459,0,0,1-1.594.668.5.5,0,0,1-.255-.041L140.25,311h-1.37l1.268.62a.5.5,0,0,1,.116.078l2.211,2a.5.5,0,0,1-.041.775,3.165,3.165,0,0,1-1.606.6,1.545,1.545,0,0,1-.17-.009,7.711,7.711,0,0,1-2.32-1.123c-1.151-.471-2.49-1.026-3.093-1.3-.283.247-.838.809-1.3,1.278a22.7,22.7,0,0,1-3.324,3.01,7.074,7.074,0,0,1-3.032,1.137c-.219,0-.339,0-2.864-1.907-1.271-.96-3.006-2.3-5.157-3.977-3.66-2.857-7.305-5.752-7.342-5.781a.5.5,0,0,1-.072-.713l6.277-7.49A.5.5,0,0,1,118.814,298.011Zm9.416,13.126a.5.5,0,0,1-.4-.193L118.8,299.307l-5.549,6.621c5.445,4.32,13.381,10.531,14.429,11.124a6.509,6.509,0,0,0,2.44-1,23.685,23.685,0,0,0,3.114-2.847c1.422-1.44,1.648-1.647,1.973-1.647a.525.525,0,0,1,.282.081c.219.122,2.043.882,3.275,1.386a.5.5,0,0,1,.088.047,7.576,7.576,0,0,0,1.918.989.539.539,0,0,0,.059,0,1.291,1.291,0,0,0,.456-.105l-1.638-1.479-3.146-1.538a.5.5,0,0,1,.22-.949h3.638a.5.5,0,0,1,.2.044l3.367,1.512a2.888,2.888,0,0,0,.6-.153,19.247,19.247,0,0,0-3.037-1.632l-5.073-.846a.5.5,0,0,1,0-.986l4.066-.713a.5.5,0,0,1,.233.015,23.736,23.736,0,0,0,4.418.989,1.148,1.148,0,0,0,.149-.008,1.728,1.728,0,0,0,.732-.232c-.822-.4-3.205-1.324-5.4-2.128l-4.2-.14a.5.5,0,0,1-.13-.978l4.423-1.356a.5.5,0,0,1,.3,0,31.673,31.673,0,0,0,3.994,1.12.168.168,0,0,0,.107-.094c-.674-.323-2.77-1.151-4.717-1.883l-6.457,1.564-5.314,6.852A.5.5,0,0,1,128.23,311.137Z" transform="translate(-51.828 -137.476)" fill="#4045ab"/>
                    <path id="Trazado_912397" data-name="Trazado 912397" d="M234.669,256.7v3.188a16.619,16.619,0,0,1-1.2,4.282l6.17,5.663-5.1-15.556Z" transform="translate(-107.523 -117.106)" fill="#4045ab"/>
                    <path id="Trazado_912398" data-name="Trazado 912398" d="M234.542,253.78a.5.5,0,0,1,.475.344l5.1,15.556a.5.5,0,0,1-.813.524l-6.17-5.663a.5.5,0,0,1-.124-.56,15.513,15.513,0,0,0,1.159-4.09v-3.175l-.127-2.41a.5.5,0,0,1,.5-.526Zm4.029,14.394-3.4-10.376v2.092a15,15,0,0,1-1.1,4.148Z" transform="translate(-107.523 -117.106)" fill="#4045ab"/>
                  </g>
                </g>
              </g>
            </g>
          </g>
        </g>
      </g>
    </g>
  </g>
</svg>
