<svg xmlns="http://www.w3.org/2000/svg" xmlns:xlink="http://www.w3.org/1999/xlink" width="100" height="100" viewBox="0 0 100 100">
  <defs>
    <clipPath id="clip-path">
      <rect id="Rectángulo_403160" data-name="Rectángulo 403160" width="100" height="100" transform="translate(234.385 1749)" fill="#ee4f47" stroke="#ca7441" stroke-width="1"/>
    </clipPath>
    <clipPath id="clip-path-2">
      <path id="path813" d="M0-100H100V0H0Z" fill="#ee4f47"/>
    </clipPath>
  </defs>
  <g id="Enmascarar_grupo_1098746" data-name="Enmascarar grupo 1098746" transform="translate(-234.385 -1749)" clip-path="url(#clip-path)">
    <g id="g807" transform="translate(234.385 1849)">
      <g id="g809">
        <g id="g811" clip-path="url(#clip-path-2)">
          <g id="g817" transform="translate(81.647 -76.748)">
            <path id="path819" d="M0,0A18.787,18.787,0,0,0-10.078-2.912a19.034,19.034,0,0,0-2.694.191" fill="none" stroke="#ca7441" stroke-linecap="round" stroke-linejoin="round" stroke-miterlimit="10" stroke-width="2.93"/>
          </g>
          <g id="g821" transform="translate(79.681 -31.125)">
            <path id="path823" d="M0,0H4.228A12.21,12.21,0,0,0,14.387-5.437l1.567-2.35a.2.2,0,0,0-.162-.3H14.7a3.936,3.936,0,0,1-3.936-3.936V-29.66A18.791,18.791,0,0,0,7.071-40.876" fill="none" stroke="#ca7441" stroke-linecap="round" stroke-linejoin="round" stroke-miterlimit="10" stroke-width="2.93"/>
          </g>
          <g id="g825" transform="translate(55.931 -71.358)">
            <path id="path827" d="M0,0A18.788,18.788,0,0,0-3.237,10.573V28.208a3.936,3.936,0,0,1-3.936,3.936H-8.266a.194.194,0,0,0-.162.3l1.566,2.35A12.21,12.21,0,0,0,3.3,40.233h4.23" fill="none" stroke="#ca7441" stroke-linecap="round" stroke-linejoin="round" stroke-miterlimit="10" stroke-width="2.93"/>
          </g>
          <g id="g829" transform="translate(72.918 -52.628)">
            <path id="path831" d="M0,0V3.06A2.333,2.333,0,0,1-2.333,5.393H-2.7" fill="none" stroke="#ca7441" stroke-linecap="round" stroke-linejoin="round" stroke-miterlimit="10" stroke-width="2.93"/>
          </g>
          <g id="g833" transform="translate(87.749 -6.855)">
            <path id="path835" d="M0,0V5.39" fill="none" stroke="#ca7441" stroke-linecap="round" stroke-linejoin="round" stroke-miterlimit="10" stroke-width="2.93"/>
          </g>
          <g id="g837" transform="translate(12.251 -6.858)">
            <path id="path839" d="M0,0V5.39" fill="none" stroke="#ca7441" stroke-linecap="round" stroke-linejoin="round" stroke-miterlimit="10" stroke-width="2.93"/>
          </g>
          <g id="g841" transform="translate(50 -6.858)">
            <path id="path843" d="M0,0V5.39" fill="none" stroke="#ca7441" stroke-linecap="round" stroke-linejoin="round" stroke-miterlimit="10" stroke-width="2.93"/>
          </g>
          <g id="g845" transform="translate(33.775 -34.069)">
            <path id="path847" d="M0,0A14.362,14.362,0,0,1-2.649.245,14.37,14.37,0,0,1-5.3,0" fill="none" stroke="#ca7441" stroke-linecap="round" stroke-linejoin="round" stroke-miterlimit="10" stroke-width="2.93"/>
          </g>
          <g id="g849" transform="translate(11.501 -25.546)">
            <path id="path851" d="M0,0-1.834.459a10.829,10.829,0,0,0-8.2,10.506V23.846a.232.232,0,0,0,.232.232H49.251a.035.035,0,0,0,.035-.035V10.964A10.829,10.829,0,0,0,41.084.459L32.21-1.76a5.928,5.928,0,0,1-1.521-.613A26.665,26.665,0,0,1,19.624-.186,26.67,26.67,0,0,1,8.561-2.373a5.928,5.928,0,0,1-1.52.613l-.429.107" fill="none" stroke="#ca7441" stroke-linecap="round" stroke-linejoin="round" stroke-miterlimit="10" stroke-width="2.93"/>
          </g>
          <g id="g853" transform="translate(31.125 -80.913)">
            <path id="path855" d="M0,0V9.342a.213.213,0,0,0,.213.213H5.092a.213.213,0,0,1,.213.213V17.13a.213.213,0,0,0,.363.15l7.663-7.663a.213.213,0,0,1,.151-.062H37.537a.213.213,0,0,0,.213-.213V-17.409a.213.213,0,0,0-.213-.213H.213A.213.213,0,0,0,0-17.409V-6.836" fill="none" stroke="#ca7441" stroke-linecap="round" stroke-linejoin="round" stroke-miterlimit="10" stroke-width="2.93"/>
          </g>
          <g id="g857" transform="translate(41.911 -85.053)">
            <path id="path859" d="M0,0A2.7,2.7,0,0,1-2.7,2.7,2.7,2.7,0,0,1-5.393,0,2.7,2.7,0,0,1-2.7-2.7,2.7,2.7,0,0,1,0,0Z" fill="none" stroke="#ca7441" stroke-linecap="round" stroke-linejoin="round" stroke-miterlimit="10" stroke-width="2.93"/>
          </g>
          <g id="g861" transform="translate(52.696 -85.053)">
            <path id="path863" d="M0,0A2.7,2.7,0,0,1-2.7,2.7,2.7,2.7,0,0,1-5.393,0,2.7,2.7,0,0,1-2.7-2.7,2.7,2.7,0,0,1,0,0Z" fill="none" stroke="#ca7441" stroke-linecap="round" stroke-linejoin="round" stroke-miterlimit="10" stroke-width="2.93"/>
          </g>
          <g id="g865" transform="translate(63.482 -85.053)">
            <path id="path867" d="M0,0A2.7,2.7,0,0,1-2.7,2.7,2.7,2.7,0,0,1-5.393,0,2.7,2.7,0,0,1-2.7-2.7,2.7,2.7,0,0,1,0,0Z" fill="none" stroke="#ca7441" stroke-linecap="round" stroke-linejoin="round" stroke-miterlimit="10" stroke-width="2.93"/>
          </g>
          <g id="g869" transform="translate(68.873 -41.911)">
            <path id="path871" d="M0,0H0A3.813,3.813,0,0,0,5.393,0" fill="none" stroke="#ca7441" stroke-linecap="round" stroke-linejoin="round" stroke-miterlimit="10" stroke-width="2.93"/>
          </g>
          <g id="g873" transform="translate(85.148 -53.803)">
            <path id="path875" d="M0,0A13.05,13.05,0,0,0-5.519-6.471a16.17,16.17,0,0,1-4.824-4.287l-3.065-4.087a.213.213,0,0,0-.341,0l-3.065,4.087a16.166,16.166,0,0,1-4.824,4.287A13.05,13.05,0,0,0-27.157,0a11.533,11.533,0,0,0-.8,5.017l.1,1.567a14.31,14.31,0,0,0,14.281,13.4h0A14.31,14.31,0,0,0,.7,6.584L.8,5.022A11.532,11.532,0,0,0,0,0Z" fill="none" stroke="#ca7441" stroke-linecap="round" stroke-linejoin="round" stroke-miterlimit="10" stroke-width="2.93"/>
          </g>
          <g id="g877" transform="translate(75.646 -71.577)">
            <path id="path879" d="M0,0,3.065,4.087A11.237,11.237,0,0,0,6.433,7.08,17.221,17.221,0,0,1,8.841,8.769" fill="none" stroke="#ca7441" stroke-linecap="round" stroke-linejoin="round" stroke-miterlimit="10" stroke-width="2.93"/>
          </g>
          <g id="g881" transform="translate(63.481 -36.325)">
            <path id="path883" d="M0,0V4.78A4.133,4.133,0,0,1-2.452,8.556" fill="none" stroke="#ca7441" stroke-linecap="round" stroke-linejoin="round" stroke-miterlimit="10" stroke-width="2.93"/>
          </g>
          <g id="g885" transform="translate(82.11 -27.769)">
            <path id="path887" d="M0,0A4.134,4.134,0,0,1-2.45-3.775v-4.78" fill="none" stroke="#ca7441" stroke-linecap="round" stroke-linejoin="round" stroke-miterlimit="10" stroke-width="2.93"/>
          </g>
          <g id="g889" transform="translate(90.767 -24.76)">
            <path id="path891" d="M0,0C-2.466,7.235-10.128,12.509-19.2,12.509A22.058,22.058,0,0,1-29.987,9.752q.008.212.008.426V23.256a.035.035,0,0,1-.035.035l37.585,0a.2.2,0,0,0,.2-.2v-9.6A15.6,15.6,0,0,0,0,0Z" fill="none" stroke="#ca7441" stroke-linecap="round" stroke-linejoin="round" stroke-miterlimit="10" stroke-width="2.93"/>
          </g>
          <g id="g893" transform="translate(90.767 -24.76)">
            <path id="path895" d="M0,0A15.594,15.594,0,0,0-3.547-1.507l-4.562-1.3a4.111,4.111,0,0,1-.547-.2C-9.708,1.238-14.028,4.42-19.2,4.42s-9.489-3.182-10.541-7.429a4.128,4.128,0,0,1-.546.2l-4.561,1.3A15.6,15.6,0,0,0-37.925-.261" fill="none" stroke="#ca7441" stroke-linecap="round" stroke-linejoin="round" stroke-miterlimit="10" stroke-width="2.93"/>
          </g>
          <g id="g897" transform="translate(31.125 -76.967)">
            <path id="path899" d="M0,0A15.179,15.179,0,0,0-15.148,16.146l.168,2.635a.09.09,0,0,1-.024.067.089.089,0,0,1-.065.028h-2.864a3.638,3.638,0,0,0-3.638,3.638,7.148,7.148,0,0,0,7.148,7.148h.054a.089.089,0,0,1,.089.084,14.278,14.278,0,0,0,4.93,9.921,3.585,3.585,0,0,1,1.262,2.708V43.9a5.935,5.935,0,0,1-2.975,5.144" fill="none" stroke="#ca7441" stroke-linecap="round" stroke-linejoin="round" stroke-miterlimit="10" stroke-width="2.93"/>
          </g>
          <g id="g901" transform="translate(42.19 -27.92)">
            <path id="path903" d="M0,0A5.935,5.935,0,0,1-2.974-5.144v-1.53A3.584,3.584,0,0,1-1.712-9.381,14.277,14.277,0,0,0,3.218-19.3a.089.089,0,0,1,.089-.083h.054a7.148,7.148,0,0,0,7.148-7.148,3.638,3.638,0,0,0-3.638-3.638H4.006a.089.089,0,0,1-.065-.028.088.088,0,0,1-.024-.067L4.085-32.9A15.1,15.1,0,0,0,1.411-42.52" fill="none" stroke="#ca7441" stroke-linecap="round" stroke-linejoin="round" stroke-miterlimit="10" stroke-width="2.93"/>
          </g>
          <g id="g905" transform="translate(15.978 -60.82)">
            <path id="path907" d="M0,0C.332,5.2.538,8.5.674,10.63A10.6,10.6,0,0,0,4.468,18.1a16.682,16.682,0,0,0,21.358,0l0,0a10.6,10.6,0,0,0,3.789-7.4C29.938,6.166,30.3-.016,30.3,0" fill="none" stroke="#ca7441" stroke-linecap="round" stroke-linejoin="round" stroke-miterlimit="10" stroke-width="2.93"/>
          </g>
        </g>
      </g>
    </g>
  </g>
</svg>
