<svg id="Grupo_1101100" data-name="Grupo 1101100" xmlns="http://www.w3.org/2000/svg" xmlns:xlink="http://www.w3.org/1999/xlink" width="190" height="160" viewBox="0 0 190 160">
  <defs>
    <clipPath id="clip-path">
      <rect id="Rectángulo_403042" data-name="Rectángulo 403042" width="190" height="145.071" fill="none"/>
    </clipPath>
    <clipPath id="clip-path-2">
      <rect id="Rectángulo_403039" data-name="Rectángulo 403039" width="20.45" height="16.014" fill="none"/>
    </clipPath>
    <clipPath id="clip-path-3">
      <rect id="Rectángulo_403040" data-name="Rectángulo 403040" width="28.879" height="18.696" fill="none"/>
    </clipPath>
    <clipPath id="clip-path-4">
      <rect id="Rectángulo_403041" data-name="Rectángulo 403041" width="154.259" height="145.071" fill="none"/>
    </clipPath>
  </defs>
  <g id="Grupo_1101122" data-name="Grupo 1101122">
    <g id="Grupo_1101098" data-name="Grupo 1101098">
      <g id="Grupo_1101097" data-name="Grupo 1101097" clip-path="url(#clip-path)">
        <path id="Trazado_911867" data-name="Trazado 911867" d="M753.511,646.361a1.554,1.554,0,0,1-.808-.227l-3.3-2a1.561,1.561,0,0,1-.5-2.181c3.625-5.626,4.366-10.368,2.087-13.352a8.3,8.3,0,0,0-8.616-2.567,1.561,1.561,0,0,1-.941-2.978c3.614-1.141,9.06-.25,12.039,3.649,1.725,2.259,3.763,7.207-1.1,15.571l1.958,1.188a1.562,1.562,0,0,1-.811,2.9" transform="translate(-612.821 -515.358)" fill="#133441"/>
        <path id="Trazado_911868" data-name="Trazado 911868" d="M575.061,698.7a1.561,1.561,0,0,1-1.56-1.519l-.064-2.367c-3.119-.146-10.011-1.065-13.674-6.166-3.029-4.218-3.08-10.172-.152-17.7a1.562,1.562,0,0,1,2.911,1.133c-2.518,6.471-2.595,11.428-.229,14.734,3.73,5.21,12.507,4.9,12.6,4.892a1.563,1.563,0,0,1,1.63,1.517l.105,3.869a1.562,1.562,0,0,1-1.519,1.6h-.043" transform="translate(-461.435 -554.561)" fill="#133441"/>
        <path id="Trazado_911869" data-name="Trazado 911869" d="M189.213,614.687c-4.79,0-9.176-3.557-13.042-10.577a1.562,1.562,0,1,1,2.736-1.506c3.323,6.034,6.84,9.047,10.47,8.958,6.133-.152,11.9-9.253,13.6-12.747a1.561,1.561,0,1,1,2.807,1.369c-.284.583-7.065,14.27-16.332,14.5-.08,0-.161,0-.241,0" transform="translate(-145.666 -494.948)" fill="#133441"/>
        <path id="Trazado_911870" data-name="Trazado 911870" d="M162.023,592.4s4.12-2.429,4.293-4.473-.992-2.223-.992-2.223.564-3.392-2.637-3.486-5.928,2.719-5.734,4.764c.553,5.831,5.07,5.418,5.07,5.418" transform="translate(-129.911 -481.935)" fill="#133441"/>
        <path id="Trazado_911871" data-name="Trazado 911871" d="M915.81,256.439a1.562,1.562,0,0,1-.223-3.107,26.276,26.276,0,0,0,9.749-4.16c6.734-4.577,10.985-11.58,12.636-20.815a1.562,1.562,0,0,1,3.074.55c-2.262,12.652-8.909,19.457-14.087,22.937a28.834,28.834,0,0,1-10.926,4.58,1.562,1.562,0,0,1-.224.016" transform="translate(-756.778 -187.959)" fill="#133441"/>
        <path id="Trazado_911872" data-name="Trazado 911872" d="M1028.559,202.457c-3.3,0-5.164-3.347-5.719-5.314a1.562,1.562,0,0,1,3-.853c.043.149,1.039,3.473,3.2,2.985.149-.033.31-.065.481-.1,1.448-.286,3.09-.609,4.033-3.634a1.561,1.561,0,1,1,2.981.929c-1.5,4.8-4.815,5.455-6.41,5.769-.142.028-.276.054-.4.082a5.333,5.333,0,0,1-1.176.135" transform="translate(-846.615 -160.953)" fill="#133441"/>
        <path id="Trazado_911873" data-name="Trazado 911873" d="M1046.959,194.686a2.026,2.026,0,0,1-.389-.039c-1.454-.283-2.008-1.952-2.393-4.371-.244-1.527-.346-3-.35-3.064a1.561,1.561,0,0,1,3.116-.213c.052.752.135,1.525.234,2.232.208-.7.41-1.479.577-2.239a1.562,1.562,0,0,1,3.05.672c-.014.064-.351,1.585-.833,3.108-.442,1.4-1.239,3.914-3.011,3.914" transform="translate(-864.033 -153.586)" fill="#133441"/>
        <path id="Trazado_911874" data-name="Trazado 911874" d="M171.99,42.484s-18.635-18.167-47.7-11.828c-21.659,4.724-41.332,30.227-8.75,63.433,21.375,21.784,57.653,30.15,73.676,32.895a16.833,16.833,0,0,0,14.127-4.081c12.666-11.422,40.985-40.028,45.586-71.1,5.814-39.276-23.665-54.555-47.911-41.261A67.991,67.991,0,0,0,171.99,42.484" transform="translate(-81.349 -4.834)" fill="#fd4c75"/>
        <path id="Trazado_911875" data-name="Trazado 911875" d="M964.2,314.116c.009-.031.016-.062.025-.094l-.025.094" transform="translate(-798.121 -259.934)" fill="#d13257"/>
        <path id="Trazado_911876" data-name="Trazado 911876" d="M324.84,373.43c-21.241,6.5-49.651-1.352-69.741-15.43,21.38,15.644,50.145,22.175,63.929,24.536a16.833,16.833,0,0,0,14.127-4.081c11.679-10.531,36.648-35.673,44.08-63.888-7.128,26.44-29.917,51.985-52.395,58.863" transform="translate(-211.16 -260.385)" fill="#d13257"/>
        <path id="Trazado_911877" data-name="Trazado 911877" d="M969.84,289.112c.018-.093.037-.186.055-.279-.019.093-.036.186-.055.279" transform="translate(-802.793 -239.084)" fill="#d13257"/>
        <g id="Grupo_1101090" data-name="Grupo 1101090" transform="translate(25.112 33.03)" style="mix-blend-mode: soft-light;isolation: isolate">
          <g id="Grupo_1101089" data-name="Grupo 1101089">
            <g id="Grupo_1101088" data-name="Grupo 1101088" clip-path="url(#clip-path-2)">
              <path id="Trazado_911878" data-name="Trazado 911878" d="M157.993,203.808c-5.383,3.621-9.863,5.346-11.665,2.667s1.1-7.785,6.486-11.406,11.208-4.384,13.009-1.706-2.447,6.824-7.83,10.444" transform="translate(-145.794 -191.764)" fill="#fff"/>
            </g>
          </g>
        </g>
        <g id="Grupo_1101093" data-name="Grupo 1101093" transform="translate(109.462 5.881)" style="mix-blend-mode: soft-light;isolation: isolate">
          <g id="Grupo_1101092" data-name="Grupo 1101092">
            <g id="Grupo_1101091" data-name="Grupo 1101091" clip-path="url(#clip-path-3)">
              <path id="Trazado_911879" data-name="Trazado 911879" d="M701.583,36.426c1.077,2.712-3.486,5.649-9.22,7.937s-10.468,3.059-11.545.347,2.7-6.765,8.432-9.053,11.256-1.944,12.333.769" transform="translate(-672.863 -34.143)" fill="#fff"/>
              <path id="Trazado_911880" data-name="Trazado 911880" d="M639.76,116.065c-1.207,1.106-2.767,1.355-3.686.353a3.016,3.016,0,0,1,4.371-4.005c.919,1,.522,2.546-.686,3.653" transform="translate(-635.514 -98.352)" fill="#fff"/>
            </g>
          </g>
        </g>
        <path id="Trazado_911881" data-name="Trazado 911881" d="M687.491,300.92a8.323,8.323,0,0,1-.783-.531,7.269,7.269,0,0,0-.878-.8,8.78,8.78,0,0,0-2.482-.989,14.093,14.093,0,0,0-4.593-.159,21.371,21.371,0,0,0-7.821,2.431,27.906,27.906,0,0,0-9.315,8.357c-.775,1.052-1.874,2.406-2.051,3.727a3.027,3.027,0,0,0,4.514,3.025,5.613,5.613,0,0,0,1.7-2.1q.5-.785,1.055-1.535c.1-.142.216-.28.318-.423-.629.881-.218.283-.053.079q.4-.492.815-.965a26.381,26.381,0,0,1,1.959-1.995q.527-.482,1.081-.933c.084-.068.17-.134.254-.2.454-.376-.5.355-.162.126.253-.173.494-.363.746-.537a20.82,20.82,0,0,1,3.112-1.775,3.572,3.572,0,0,0,.415-.185c-.313.2-.514.209-.051.03q.435-.168.878-.315a18.692,18.692,0,0,1,1.946-.53c.356-.077.715-.141,1.074-.2.141-.023.894-.249,1-.16-.058-.049-.654.071-.186.03.211-.019.421-.043.632-.059q.594-.046,1.189-.056a13.017,13.017,0,0,0,1.752-.162c.142-.021.283-.044.425-.064-.665.093.116,0,.2-.012a5.021,5.021,0,0,0,1.811-.5c.044-.021.555-.2.211-.123-.329.07.533-.022.617-.029a1.336,1.336,0,0,0,.668-2.467" transform="translate(-545.94 -246.947)" fill="#133441"/>
        <path id="Trazado_911882" data-name="Trazado 911882" d="M367.095,442.7a16.493,16.493,0,0,0-2.1-.85c-.506-.161.551.345.12.033a2.93,2.93,0,0,0-.319-.191,4.583,4.583,0,0,0-1.637-.506,25.437,25.437,0,0,0-3.151-.338,25.034,25.034,0,0,0-13.9,4.025,24.2,24.2,0,0,0-3.933,3.235,15.965,15.965,0,0,0-3.719,5.2,3.09,3.09,0,0,0,1.415,3.477,3.157,3.157,0,0,0,3.731-.481,19.982,19.982,0,0,0,1.659-2.258c.087-.12.378-.446-.047.058.1-.121.2-.248.3-.37q.373-.448.768-.875.684-.738,1.436-1.408c.215-.191.438-.373.657-.56.42-.358-.081.042-.132.094a4.021,4.021,0,0,1,.5-.373,20.218,20.218,0,0,1,3.1-1.821c.1-.05.985-.456.5-.231s.359-.135.5-.187q.77-.284,1.56-.509a29.8,29.8,0,0,1,3.031-.651c.6-.105-.675.075-.258.034.107-.011.213-.026.32-.038q.354-.04.709-.07.679-.057,1.361-.08c.815-.027,1.626-.1,2.442-.111a5.686,5.686,0,0,0,2.558-.294c.25-.131-.364.053-.409.04a1.063,1.063,0,0,0,.261-.013c.132,0,.264-.011.4-.015.211-.006.423-.009.635-.008.189,0,.378,0,.567.013,2.06.123,2.976-3.062,1.076-3.972" transform="translate(-280.05 -364.909)" fill="#133441"/>
        <path id="Trazado_911883" data-name="Trazado 911883" d="M604.338,477.626c2.932,4.4,5.714,14.589,3.116,15.683s-8.112-8.79-9.064-13.179c-.545-2.511,4.495-4.685,5.948-2.5" transform="translate(-495.288 -394.616)" fill="#133441"/>
        <path id="Trazado_911884" data-name="Trazado 911884" d="M650.366,218.56c1.511,3.236-2.45,5.622-6.258,8.421-4.253,3.126-8.754,5.145-10.3,2.946-4.647-6.623,13.446-18.027,16.556-11.367" transform="translate(-524.014 -179.245)" fill="#b31e40"/>
        <path id="Trazado_911885" data-name="Trazado 911885" d="M315.905,346.467c1.1,3.357,5.379,2.351,9.827,1.745,4.969-.677,9.378-2.316,8.986-4.952-1.182-7.936-21.071-3.7-18.813,3.207" transform="translate(-261.345 -280.58)" fill="#b31e40"/>
        <path id="Trazado_911886" data-name="Trazado 911886" d="M813.186,354.994c.608,1.469-1.126,3.581-3.873,4.717s-5.466.867-6.074-.6,1.126-3.581,3.873-4.717,5.466-.867,6.074.6" transform="translate(-664.787 -292.769)" fill="#ffc2d3"/>
        <path id="Trazado_911887" data-name="Trazado 911887" d="M349.115,549.031c.492,1.512-1.4,3.482-4.229,4.4s-5.517.439-6.009-1.073,1.4-3.482,4.229-4.4,5.517-.439,6.009,1.073" transform="translate(-280.444 -453.191)" fill="#ffc2d3"/>
        <g id="Grupo_1101096" data-name="Grupo 1101096" style="mix-blend-mode: multiply;isolation: isolate">
          <g id="Grupo_1101095" data-name="Grupo 1101095">
            <g id="Grupo_1101094" data-name="Grupo 1101094" clip-path="url(#clip-path-4)">
              <path id="Trazado_911888" data-name="Trazado 911888" d="M532.023,786.881a9.727,9.727,0,0,0,2.762,5.977c1.207,1.27,3.831,3.5,5.721,2.578a.753.753,0,0,0,.417-.828c-.324-.807-1.718-1.083-2.43-1.46A10.838,10.838,0,0,1,536,791.331,12.774,12.774,0,0,1,532.9,786.1c-.172-.51-.889.509-.872.784" transform="translate(-440.386 -650.582)" fill="#b8c7e6"/>
              <path id="Trazado_911889" data-name="Trazado 911889" d="M823.039,528.723a61.22,61.22,0,0,0,6.715-6.528c1.009-1.161,1.978-2.36,2.917-3.578a17.589,17.589,0,0,0,2.546-4.048c.134-.331-.076-.493-.344-.241A27.359,27.359,0,0,0,832,517.764c-.927,1.211-1.895,2.387-2.885,3.546-2,2.346-4.074,4.67-6.246,6.86-.225.227-.252.914.174.553" transform="translate(-681 -425.638)" fill="#b8c7e6"/>
              <path id="Trazado_911890" data-name="Trazado 911890" d="M834.822,605.953a11.03,11.03,0,0,0,2.172-1.764c.277-.341.34-1.1-.284-.872a3.889,3.889,0,0,0-1.039.729l-1.007.82a1.156,1.156,0,0,0-.494.978c.075.358.425.275.652.109" transform="translate(-690.481 -499.365)" fill="#b8c7e6"/>
              <path id="Trazado_911891" data-name="Trazado 911891" d="M522.038,21.737a66.089,66.089,0,0,1,9.527-11.445,61.333,61.333,0,0,1,5.539-4.7c.98-.743,1.975-1.464,2.995-2.151,1.053-.709,2.357-1.4,2.918-2.6a.572.572,0,0,0-.01-.663c-.664-.664-2.414.749-2.962,1.107-1.1.721-2.186,1.476-3.236,2.272a62.685,62.685,0,0,0-6.043,5.258,59.622,59.622,0,0,0-9.658,12.563c-.511.875.462,1.079.93.36" transform="translate(-431.232 0)" fill="#b8c7e6"/>
              <path id="Trazado_911892" data-name="Trazado 911892" d="M530.524,51.635a16.03,16.03,0,0,1,1.768-1.754c.563-.471,1.329-.919,1.619-1.622.053-.128.14-.359-.007-.464l-.066-.048a.369.369,0,0,0-.358.012,11.623,11.623,0,0,0-3.421,3.016c-.192.227-.526.7-.322,1.011s.615.044.786-.152" transform="translate(-438.442 -39.489)" fill="#b8c7e6"/>
              <path id="Trazado_911893" data-name="Trazado 911893" d="M61.4,167.688a45.312,45.312,0,0,0-9.471,13.631,39.4,39.4,0,0,0-2.745,8.226,27.971,27.971,0,0,0-.156,9.585,45.557,45.557,0,0,0,1.046,5.248,13.851,13.851,0,0,0,1.892,4.87c.171.22.482-.2.483-.367.016-3.031-1.133-6.06-1.7-9.024a31.9,31.9,0,0,1-.554-9.021,36.475,36.475,0,0,1,5.8-15.5,43.769,43.769,0,0,1,5.67-7.146c.329-.337.188-.951-.27-.5" transform="translate(-40.302 -138.673)" fill="#b8c7e6"/>
              <path id="Trazado_911894" data-name="Trazado 911894" d="M8.079,198.209A39.773,39.773,0,0,0,2.151,209.17a41.412,41.412,0,0,0-1.587,5.966C.37,216.154.2,217.186.1,218.218c-.06.636-.333,2.017.354,2.4.2.114.462-.117.562-.276.983-1.563.808-3.79,1.105-5.573a37.679,37.679,0,0,1,1.4-5.621A39.54,39.54,0,0,1,8.78,198.7c.546-.771-.132-1.237-.7-.491" transform="translate(0 -163.757)" fill="#b8c7e6"/>
            </g>
          </g>
        </g>
      </g>
    </g>
    <ellipse id="Elipse_11532" data-name="Elipse 11532" cx="51" cy="5" rx="51" ry="5" transform="translate(70.718 150)" fill="#e8e8e8"/>
  </g>
</svg>
