<svg id="Grupo_1101119" data-name="Grupo 1101119" xmlns="http://www.w3.org/2000/svg" xmlns:xlink="http://www.w3.org/1999/xlink" width="189.999" height="152.001" viewBox="0 0 189.999 152.001">
  <defs>
    <clipPath id="clip-path">
      <rect id="Rectángulo_403049" data-name="Rectángulo 403049" width="189.999" height="131.001" fill="none"/>
    </clipPath>
    <clipPath id="clip-path-2">
      <rect id="Rectángulo_403044" data-name="Rectángulo 403044" width="16.732" height="10.903" fill="none"/>
    </clipPath>
    <clipPath id="clip-path-3">
      <rect id="Rectángulo_403045" data-name="Rectángulo 403045" width="14.601" height="13.805" fill="none"/>
    </clipPath>
    <clipPath id="clip-path-4">
      <rect id="Rectángulo_403046" data-name="Rectángulo 403046" width="14.053" height="3.461" fill="none"/>
    </clipPath>
    <clipPath id="clip-path-5">
      <rect id="Rectángulo_403047" data-name="Rectángulo 403047" width="13.782" height="4.612" fill="none"/>
    </clipPath>
    <clipPath id="clip-path-6">
      <rect id="Rectángulo_403048" data-name="Rectángulo 403048" width="188.007" height="127.288" fill="none"/>
    </clipPath>
  </defs>
  <g id="Grupo_1101123" data-name="Grupo 1101123">
    <g id="Grupo_1101117" data-name="Grupo 1101117">
      <g id="Grupo_1101116" data-name="Grupo 1101116" clip-path="url(#clip-path)">
        <path id="Trazado_911895" data-name="Trazado 911895" d="M948.382,298.33a17.022,17.022,0,0,1-3.606-.36,1.632,1.632,0,0,1,.743-3.178c.1.022,6.545,1.434,10.462-2.483,3.5-3.5,4.17-10.5,1.933-20.25a1.632,1.632,0,1,1,3.181-.73c2.541,11.072,1.589,18.915-2.828,23.309a13.8,13.8,0,0,1-9.886,3.692" transform="translate(-773.665 -221.445)" fill="#133441"/>
        <path id="Trazado_911896" data-name="Trazado 911896" d="M1003.956,245.645s-5-.136-6.19-1.918-.217-2.535-.217-2.535-2.232-2.817.647-4.523,6.8-.513,7.655,1.455c2.445,5.612-1.9,7.521-1.9,7.521" transform="translate(-817.294 -193.393)" fill="#133441"/>
        <path id="Trazado_911897" data-name="Trazado 911897" d="M38.439,188.445a1.628,1.628,0,0,1-.686-.152,30.138,30.138,0,0,1-9.558-7.872c-4.135-5.042-8.74-13.854-7.2-27.2a1.632,1.632,0,1,1,3.243.375c-1.134,9.8,1.045,18.128,6.477,24.752a27.093,27.093,0,0,0,8.408,6.981,1.632,1.632,0,0,1-.688,3.113" transform="translate(-16.969 -124.456)" fill="#133441"/>
        <path id="Trazado_911898" data-name="Trazado 911898" d="M7.593,121.25a5.108,5.108,0,0,1-2.538-.7c-.115-.065-.241-.131-.375-.2-1.5-.795-4.627-2.449-4.68-7.7A1.632,1.632,0,0,1,1.616,111h.017a1.632,1.632,0,0,1,1.632,1.616c.033,3.311,1.579,4.129,2.942,4.851.161.085.313.166.452.244,2.049,1.156,4.082-1.987,4.1-2.019a1.632,1.632,0,1,1,2.753,1.753c-.982,1.541-3.224,3.806-5.922,3.806" transform="translate(0 -91.017)" fill="#133441"/>
        <path id="Trazado_911899" data-name="Trazado 911899" d="M21.837,118.831q-.106,0-.214-.011c-2.169-.216-2.213-3.264-2.237-4.9-.024-1.669.1-3.293.1-3.361a1.632,1.632,0,0,1,3.255.245c-.061.811-.092,1.648-.1,2.416.313-.678.628-1.427.907-2.165a1.632,1.632,0,1,1,3.054,1.151c-.023.061-.569,1.506-1.273,2.961-1.061,2.2-2.071,3.665-3.5,3.665" transform="translate(-15.894 -89.417)" fill="#133441"/>
        <path id="Trazado_911900" data-name="Trazado 911900" d="M558.5,635.541a1.632,1.632,0,0,1-1.613-1.395l-.469-3.188c-4.48,1.007-7.6.524-9.5-1.461-3.256-3.4-1.207-9.541-.331-12.166.059-.176.128-.383.169-.517a1.633,1.633,0,0,1,2.364-1.33,1.7,1.7,0,0,1,.792,2.168c-.054.186-.131.418-.229.712-.569,1.707-2.3,6.9-.41,8.874,1.18,1.231,4.038,1.273,8.047.12a1.632,1.632,0,0,1,2.066,1.331l.733,4.983a1.635,1.635,0,0,1-1.617,1.87m-11.5-17.726a1.6,1.6,0,0,0,.641.581,1.627,1.627,0,0,1-.641-.581" transform="translate(-447.007 -504.54)" fill="#133441"/>
        <path id="Trazado_911901" data-name="Trazado 911901" d="M359.274,609.177a1.633,1.633,0,0,1-1.613-1.395l-.469-3.188c-4.48,1.007-7.6.524-9.5-1.461-3.256-3.395-1.206-9.541-.331-12.166.059-.176.128-.383.169-.517a1.633,1.633,0,0,1,2.364-1.33,1.7,1.7,0,0,1,.792,2.168c-.054.186-.131.418-.229.712-.569,1.707-2.3,6.9-.41,8.874,1.18,1.231,4.038,1.273,8.047.12a1.632,1.632,0,0,1,2.066,1.331l.733,4.983a1.632,1.632,0,0,1-1.377,1.852,1.613,1.613,0,0,1-.24.018m-11.5-17.725a1.6,1.6,0,0,0,.641.581,1.626,1.626,0,0,1-.641-.581" transform="translate(-283.642 -482.922)" fill="#133441"/>
        <path id="Trazado_911902" data-name="Trazado 911902" d="M236.126,78.573c.174-26.714-25.883-29.928-25.883-29.928-16.469-18.539-40.929-8.431-40.929-8.431s-15.992-16.6-41.585-4.126c0,0-25.833-4.682-33.614,20.874,0,0-20.65,17.807-5.756,37.5,0,0-1.095,19.885,24.517,27.34.26,2.121,14.8,21.073,42.115,12.527,22.115,13.41,42.935,2.782,43.935.568,26.67.5,31.54-18.81,31.54-18.81,22.036-16.386,5.66-37.516,5.66-37.516" transform="translate(-68.026 -25.784)" fill="#f9796b"/>
        <path id="Trazado_911903" data-name="Trazado 911903" d="M240.538,78.743c.171-26.3-23.825-31-23.825-31-16.215-18.253-41.266-8.353-41.266-8.353S159.274,22.722,134.076,35c0,0-25.008-4.285-32.668,20.877,0,0-20.332,17.532-5.668,36.923,0,0-1.078,19.578,24.139,26.919.257,2.088,14.569,20.748,41.465,12.334,21.774,13.2,42.272,2.74,43.257.559,26.259.493,31.053-18.52,31.053-18.52,21.7-16.133,4.882-35.349,4.882-35.349" transform="translate(-74.147 -24.999)" fill="#ff9c87"/>
        <path id="Trazado_911904" data-name="Trazado 911904" d="M228.4,417.308c-1.049,2.207-23.278,12.62-47.166-1.06C152,424.5,136.189,405.357,135.885,403.23c-12.732-3.58-19.374-9.75-22.844-15.356.222,4.32,2.566,19.81,24.5,26.2.26,2.121,14.8,21.073,42.115,12.527,22.115,13.41,42.935,2.782,43.935.568,22.841.429,29.687-13.664,31.183-17.722-4.981,4.32-13.157,8.234-26.378,7.865" transform="translate(-92.691 -318.049)" fill="#f9796b"/>
        <path id="Trazado_911905" data-name="Trazado 911905" d="M456.692,515.58c-8.038-4.742-5.254-11.516-6.208-11.661s-1.02,7.993-10.548,9.206c-5.209.663,20.057,4.4,16.757,2.455" transform="translate(-360.156 -413.202)" fill="#f9796b"/>
        <g id="Grupo_1101103" data-name="Grupo 1101103" transform="translate(37.866 13.907)" style="mix-blend-mode: soft-light;isolation: isolate">
          <g id="Grupo_1101102" data-name="Grupo 1101102">
            <g id="Grupo_1101101" data-name="Grupo 1101101" clip-path="url(#clip-path-2)">
              <path id="Trazado_911906" data-name="Trazado 911906" d="M226.874,79.354c1.153,2.487-2.882,4.241-7.375,6.324s-7.74,3.7-8.893,1.218,1.554-6.191,6.046-8.274,9.068-1.755,10.222.732" transform="translate(-210.341 -77.251)" fill="#ffdee7"/>
            </g>
          </g>
        </g>
        <g id="Grupo_1101106" data-name="Grupo 1101106" transform="translate(143.161 27.717)" style="mix-blend-mode: soft-light;isolation: isolate">
          <g id="Grupo_1101105" data-name="Grupo 1101105">
            <g id="Grupo_1101104" data-name="Grupo 1101104" clip-path="url(#clip-path-3)">
              <path id="Trazado_911907" data-name="Trazado 911907" d="M795.774,155c-1.841,2.031,1.49,4.907,5.16,8.231s6.287,5.84,8.128,3.808.358-6.373-3.311-9.7-8.136-4.373-9.977-2.342" transform="translate(-795.251 -153.967)" fill="#ffdee7"/>
            </g>
          </g>
        </g>
        <g id="Grupo_1101109" data-name="Grupo 1101109" transform="translate(72.956 7.525)" style="mix-blend-mode: soft-light;isolation: isolate">
          <g id="Grupo_1101108" data-name="Grupo 1101108">
            <g id="Grupo_1101107" data-name="Grupo 1101107" clip-path="url(#clip-path-4)">
              <path id="Trazado_911908" data-name="Trazado 911908" d="M419.315,44.505c-.092,1.133-3.227.747-7.106.431s-7.035-.443-6.943-1.576,3.312-1.794,7.191-1.478,6.949,1.491,6.857,2.623" transform="translate(-405.264 -41.803)" fill="#ffdee7"/>
            </g>
          </g>
        </g>
        <g id="Grupo_1101112" data-name="Grupo 1101112" transform="translate(117.676 13.908)" style="mix-blend-mode: soft-light;isolation: isolate">
          <g id="Grupo_1101111" data-name="Grupo 1101111">
            <g id="Grupo_1101110" data-name="Grupo 1101110" clip-path="url(#clip-path-5)">
              <path id="Trazado_911909" data-name="Trazado 911909" d="M653.7,78.246c-.249,1.109,2.858,1.673,6.656,2.525s6.848,1.669,7.1.561-2.628-2.7-6.426-3.551-7.078-.644-7.327.465" transform="translate(-653.684 -77.257)" fill="#ffdee7"/>
            </g>
          </g>
        </g>
        <path id="Trazado_911910" data-name="Trazado 911910" d="M887.932,254.2c5.274,3.228,6.546,8.95,5.441,14.751-.243,1.278,1.754,1.58,2,.3,1.294-6.8-.544-13.185-6.615-16.9-1.107-.678-1.918,1.176-.824,1.845" transform="translate(-727.661 -206.806)" fill="#f9796b"/>
        <path id="Trazado_911911" data-name="Trazado 911911" d="M709.924,522.823c-3.228,5.274-8.95,6.546-14.751,5.441-1.278-.243-1.58,1.755-.3,2,6.8,1.294,13.185-.544,16.9-6.615.678-1.107-1.176-1.918-1.845-.824" transform="translate(-569.107 -428.279)" fill="#f9796b"/>
        <path id="Trazado_911912" data-name="Trazado 911912" d="M522.966,93.791c-5.258-4.5-11.714-6.075-17.954-2.651-1.138.625.068,2.249,1.192,1.632,5.421-2.975,11.02-1.237,15.506,2.6.989.846,2.243-.738,1.256-1.583" transform="translate(-413.724 -73.214)" fill="#f9796b"/>
        <path id="Trazado_911913" data-name="Trazado 911913" d="M587.724,89.433,587,89.055c.716-1.37,6.37-3.889,12.236-2.591l-.176.8c-5.709-1.265-10.882,1.3-11.336,2.172" transform="translate(-481.329 -70.603)" fill="#f9796b"/>
        <path id="Trazado_911914" data-name="Trazado 911914" d="M692.214,186.406a7.586,7.586,0,0,0-3.663,4.208c-.527,1.489-.858,4.348.88,5.148.487.224.93-.565.909-.959-.069-1.311-.62-2.616-.382-3.941a4,4,0,0,1,2.075-2.795,1.619,1.619,0,0,0,.84-1.2c.021-.415-.253-.672-.66-.462" transform="translate(-564.252 -152.788)" fill="#c93b2c"/>
        <path id="Trazado_911915" data-name="Trazado 911915" d="M395.263,126.148a4.778,4.778,0,0,1,1.668,5.647c-.355,1.142.962.6,1.255-.054a5.141,5.141,0,0,0-2.3-6.481c-.363-.191-.963.654-.622.888" transform="translate(-324.025 -102.688)" fill="#c93b2c"/>
        <path id="Trazado_911916" data-name="Trazado 911916" d="M476.866,69.556a12.514,12.514,0,0,0-4.836-3.72,11,11,0,0,0-6.006-.761l-.132-.805a11.829,11.829,0,0,1,6.457.816,13.326,13.326,0,0,1,5.154,3.962Z" transform="translate(-382.022 -52.583)" fill="#f9796b"/>
        <path id="Trazado_911917" data-name="Trazado 911917" d="M203.3,425.859c1.513,6,6.6,8.912,12.465,9.583,1.293.148.987,2.145-.3,2-6.875-.787-12.426-4.442-14.168-11.342-.318-1.259,1.693-1.482,2.007-.238" transform="translate(-165.031 -348.517)" fill="#f9796b"/>
        <path id="Trazado_911918" data-name="Trazado 911918" d="M120.538,140.317a17.7,17.7,0,0,0-7.9,14.271c-2.581,1.158-4.316,3.815-5.161,6.429-.4,1.226,1.445,2.06,1.845.824a9.436,9.436,0,0,1,3.353-4.978,20.637,20.637,0,0,0,1.381,6.009,1.011,1.011,0,0,0,1.878-.746c-2.906-7.368-.97-15.68,5.806-20.183,1.085-.721-.116-2.346-1.2-1.627" transform="translate(-88.08 -114.91)" fill="#f9796b"/>
        <path id="Trazado_911919" data-name="Trazado 911919" d="M746.361,217.268c-2.43,2.806-6.372.037-10.641-2.413-4.768-2.736-8.591-6.174-7.158-8.574,4.314-7.223,22.8,5.213,17.8,10.987" transform="translate(-597.156 -167.347)" fill="#c93b2c"/>
        <path id="Trazado_911920" data-name="Trazado 911920" d="M256.879,135.114c1.4,3.436,6.025,2.074,10.853,1.12,5.393-1.066,10.115-3.1,9.526-5.831-1.774-8.224-23.268-2.359-20.379,4.711" transform="translate(-210.417 -103.64)" fill="#c93b2c"/>
        <path id="Trazado_911921" data-name="Trazado 911921" d="M653.7,331.787a14.293,14.293,0,1,0,14.8-13.765,14.294,14.294,0,0,0-14.8,13.765" transform="translate(-536.009 -260.764)" fill="#fff"/>
        <path id="Trazado_911922" data-name="Trazado 911922" d="M677.485,356.731a9.845,9.845,0,1,0-10.194,9.481,9.844,9.844,0,0,0,10.194-9.481m-10.779-2.025c-1.845,1.384-4.271,1.265-5.42-.266s-.585-3.893,1.259-5.277,4.271-1.265,5.42.266.585,3.893-1.259,5.277m7.539,7.392a2.04,2.04,0,1,1,.339-3.121,2.24,2.24,0,0,1-.339,3.121" transform="translate(-539.384 -284.147)" fill="#231f20"/>
        <path id="Trazado_911923" data-name="Trazado 911923" d="M230.557,260.822a14.293,14.293,0,1,0,14.8-13.765,14.294,14.294,0,0,0-14.8,13.765" transform="translate(-189.045 -202.574)" fill="#fff"/>
        <path id="Trazado_911924" data-name="Trazado 911924" d="M254.347,285.767a9.845,9.845,0,1,0-10.194,9.481,9.844,9.844,0,0,0,10.194-9.481m-10.779-2.025c-1.845,1.384-4.271,1.265-5.42-.266s-.585-3.893,1.259-5.277,4.271-1.265,5.42.266.585,3.893-1.259,5.277m7.539,7.392a2.04,2.04,0,1,1,.339-3.121,2.239,2.239,0,0,1-.339,3.121" transform="translate(-192.419 -225.958)" fill="#231f20"/>
        <path id="Trazado_911925" data-name="Trazado 911925" d="M224.249,366.317c-1.148,3.825-8.222,5.082-15.8,2.808s-12.79-7.219-11.642-11.044,8.221-5.082,15.8-2.808,12.79,7.219,11.642,11.044" transform="translate(-161.248 -290.388)" fill="#ff9c87"/>
        <path id="Trazado_911926" data-name="Trazado 911926" d="M663.067,445.137c-1.148,3.825-8.222,5.082-15.8,2.808s-12.79-7.219-11.642-11.044,8.221-5.082,15.8-2.808,12.79,7.219,11.642,11.044" transform="translate(-521.07 -355.019)" fill="#ff9c87"/>
        <path id="Trazado_911927" data-name="Trazado 911927" d="M740.156,478.8c-.528,3.121-5.469,4.888-11.035,3.945s-9.651-4.237-9.123-7.358,5.469-4.888,11.035-3.945,9.651,4.237,9.123,7.358" transform="translate(-590.346 -386.367)" fill="#f9d3cf"/>
        <path id="Trazado_911928" data-name="Trazado 911928" d="M168.287,355.63c-1.053,2.984-6.226,3.888-11.555,2.018s-8.8-5.8-7.743-8.789,6.226-3.888,11.555-2.018,8.8,5.8,7.743,8.789" transform="translate(-122.014 -283.604)" fill="#f9d3cf"/>
        <path id="Trazado_911929" data-name="Trazado 911929" d="M487.971,392.781c.048-5.508,3.2-16.077,5.737-15.633s1.616,12.235.072,16.651c-.884,2.531-1.995,3.059-3.484,2.8s-2.349-1.086-2.326-3.817" transform="translate(-400.126 -309.243)" fill="#231f20"/>
        <g id="Grupo_1101115" data-name="Grupo 1101115" transform="translate(1.993)" style="mix-blend-mode: multiply;isolation: isolate">
          <g id="Grupo_1101114" data-name="Grupo 1101114">
            <g id="Grupo_1101113" data-name="Grupo 1101113" clip-path="url(#clip-path-6)">
              <path id="Trazado_911930" data-name="Trazado 911930" d="M746.19,599.169a36.34,36.34,0,0,0,14.082-2.867,39.7,39.7,0,0,0,6.353-3.478,37.34,37.34,0,0,0,3.047-2.275,10.7,10.7,0,0,0,2.58-2.64c.226-.389.131-1.037-.438-.779a13.337,13.337,0,0,0-2.584,2.114q-1.357,1.126-2.816,2.123a37.6,37.6,0,0,1-6.1,3.369,40.8,40.8,0,0,1-13.732,3.463c-.339.023-.8.974-.391.971" transform="translate(-613.722 -481.386)" fill="#b8c7e6"/>
              <path id="Trazado_911931" data-name="Trazado 911931" d="M784.422,672.569l2.734-.953a5.588,5.588,0,0,0,2.183-1.132c.1-.1.444-.65.167-.769-.654-.282-1.405.151-2.027.384l-2.751,1.034c-.478.18-1.018,1.684-.305,1.436" transform="translate(-644.922 -549.078)" fill="#b8c7e6"/>
              <path id="Trazado_911932" data-name="Trazado 911932" d="M136.2,510.779A16.242,16.242,0,0,0,141.9,517.3a14.7,14.7,0,0,0,3.849,1.771c1.355.411,3,.9,4.313.175.214-.118.715-.656.472-.937A2.1,2.1,0,0,0,149,517.7a16.46,16.46,0,0,1-2.083-.393,17.074,17.074,0,0,1-3.9-1.6,14.941,14.941,0,0,1-5.912-5.87c-.268-.486-1.1.521-.9.945" transform="translate(-113.652 -417.948)" fill="#b8c7e6"/>
              <path id="Trazado_911933" data-name="Trazado 911933" d="M812.5,90c2.487,1.241,4.967,2.467,7.369,3.87q1.775,1.037,3.466,2.208a11.043,11.043,0,0,0,3.506,1.981c.244.056.526-.4.423-.6a8.66,8.66,0,0,0-3.081-2.863q-1.712-1.141-3.508-2.147a35.567,35.567,0,0,0-7.693-3.254c-.286-.08-.781.66-.481.809" transform="translate(-668.153 -73.13)" fill="#b8c7e6"/>
              <path id="Trazado_911934" data-name="Trazado 911934" d="M851.687,87.191a19.321,19.321,0,0,1,2.336,1.338c.627.41,1.29,1.241,2.071,1.017a.683.683,0,0,0,.458-.654c-.016-.881-1.123-1.27-1.83-1.612a13.959,13.959,0,0,0-2.554-.9c-.287-.075-.783.667-.481.809" transform="translate(-700.283 -70.827)" fill="#b8c7e6"/>
              <path id="Trazado_911935" data-name="Trazado 911935" d="M446.715.864a53.754,53.754,0,0,1,7.838,2.069q1.985.67,3.9,1.53A10.153,10.153,0,0,0,462.3,5.7c.227.009.6-.4.441-.629a6.372,6.372,0,0,0-3.2-2.159c-1.288-.521-2.6-.988-3.928-1.393A40.159,40.159,0,0,0,447.143,0c-.336-.027-.842.79-.428.863" transform="translate(-368.163 0)" fill="#b8c7e6"/>
              <path id="Trazado_911936" data-name="Trazado 911936" d="M213.288,22.232a29.934,29.934,0,0,0-9.291.627,32.44,32.44,0,0,0-4.513,1.346c-1.4.537-3.117,1.119-4.1,2.291-.147.175-.491.734-.092.845a2.906,2.906,0,0,0,1.621-.384c.7-.261,1.377-.559,2.075-.816a42.265,42.265,0,0,1,4.426-1.388,46.006,46.006,0,0,1,9.27-1.3c.449-.017,1.2-1.173.608-1.225" transform="translate(-161.972 -18.134)" fill="#b8c7e6"/>
              <path id="Trazado_911937" data-name="Trazado 911937" d="M338.124,684.294c.766,1.6,2.839,4.071,4.847,3.341.153-.056.395-.386.279-.553-.5-.714-1.6-.839-2.328-1.281a6.364,6.364,0,0,1-2.154-2.182c-.209-.347-.786.377-.643.675" transform="translate(-279.23 -560.479)" fill="#b8c7e6"/>
              <path id="Trazado_911938" data-name="Trazado 911938" d="M997.65,423.849a13.122,13.122,0,0,0,5.9-2.265,11.58,11.58,0,0,0,4.2-4.91c.342-.9-.662-.586-.987-.152-.543.725-.959,1.512-1.569,2.195a13.258,13.258,0,0,1-2.037,1.837,12.652,12.652,0,0,1-5.18,2.218c-.4.075-.948,1.151-.333,1.077" transform="translate(-819.82 -341.193)" fill="#b8c7e6"/>
              <path id="Trazado_911939" data-name="Trazado 911939" d="M11.088,279.462a44.551,44.551,0,0,0,4.311,8.114,25.276,25.276,0,0,0,2.414,3.144c.717.768,1.939,2.122,3.1,1.848.245-.058.515-.424.4-.677-.247-.569-.862-.744-1.351-1.081a10.276,10.276,0,0,1-1.491-1.277,25.741,25.741,0,0,1-2.556-3.187,43.753,43.753,0,0,1-4.252-7.492c-.139-.312-.695.323-.579.608" transform="translate(-11.073 -228.586)" fill="#b8c7e6"/>
              <path id="Trazado_911940" data-name="Trazado 911940" d="M13.1,330.43a14.358,14.358,0,0,0,2.2,3.439c.752.869,1.981,2.37,3.178,2.491.194.02.459-.323.353-.5a4.745,4.745,0,0,0-1.344-1.159A13.612,13.612,0,0,1,16,333.352a13.877,13.877,0,0,1-2.386-3.462c-.136-.276-.629.291-.515.54" transform="translate(-12.721 -270.443)" fill="#b8c7e6"/>
            </g>
          </g>
        </g>
      </g>
    </g>
    <ellipse id="Elipse_11533" data-name="Elipse 11533" cx="51" cy="5" rx="51" ry="5" transform="translate(45.718 142.001)" fill="#e8e8e8"/>
  </g>
</svg>
