<svg xmlns="http://www.w3.org/2000/svg" xmlns:xlink="http://www.w3.org/1999/xlink" width="54.894" height="53.282" viewBox="0 0 54.894 53.282">
  <defs>
    <clipPath id="clip-path">
      <path id="Trazado_911685" data-name="Trazado 911685" d="M22.762-1.26A26.187,26.187,0,1,1-3.424,24.926c0-2.6-9.357-27.444,8.358-26.745,1.931-1.852,4.046,4.306,6.624,3.07A25.961,25.961,0,0,1,22.762-1.26Z" transform="translate(5.894 2.169)" fill="#ffbd45"/>
    </clipPath>
  </defs>
  <g id="Grupo_1101399" data-name="Grupo 1101399" transform="translate(-180.532 -2383)">
    <g id="Grupo_1101398" data-name="Grupo 1101398">
      <g id="Grupo_1100926" data-name="Grupo 1100926" transform="translate(-554.625 -3277.83)">
        <circle id="Elipse_11527" data-name="Elipse 11527" cx="26" cy="26" r="26" transform="translate(738.051 5662.113)" fill="#ee4f47"/>
        <g id="Enmascarar_grupo_1098695" data-name="Enmascarar grupo 1098695" transform="translate(735.157 5660.831)" clip-path="url(#clip-path)">
          <g id="servicio-al-cliente" transform="translate(2.609 2.864)">
            <path id="Trazado_911684" data-name="Trazado 911684" d="M11.806,9.535a.757.757,0,1,0-.757-.757A.757.757,0,0,0,11.806,9.535Zm-6.056,0a.757.757,0,1,0-.757-.757A.757.757,0,0,0,5.75,9.535Zm3.028,0a.757.757,0,1,0-.757-.757A.757.757,0,0,0,8.778,9.535Zm-.166,8.019h.014l6.844,0h0A1.036,1.036,0,0,0,16,15.628l-1.041-.616A8.778,8.778,0,1,0,0,8.778,8.872,8.872,0,0,0,8.612,17.554ZM3.679,3.6a7.211,7.211,0,0,1,5.206-2.09,7.264,7.264,0,0,1,4.667,12.738,1.105,1.105,0,0,0,.163,1.784l.008,0H8.633A7.264,7.264,0,0,1,3.679,3.6Zm47.24,46.557h-.757V38.889a7.483,7.483,0,0,0-4.454-6.836l-3.989-1.71a5.976,5.976,0,0,0,2.561-1.61,6.271,6.271,0,0,0,1.694-4.255,6.022,6.022,0,0,0-1.45-3.916,7.837,7.837,0,0,1-1.84-5.041V11.892a11.893,11.893,0,0,0-23.786,0V15.4a8.181,8.181,0,0,1-1.966,5.193,6.131,6.131,0,0,0,2.926,9.774L15.9,32.091a7.458,7.458,0,0,0-4.575,6.889v8.911a.757.757,0,1,0,1.514,0V38.98a5.951,5.951,0,0,1,3.657-5.5l4.965-2.159V35.88H19.176a2.271,2.271,0,0,0-2.258,2.51l1.248,11.771H.757a.757.757,0,0,0,0,1.514H50.918a.757.757,0,0,0,0-1.514ZM43.365,21.536a4.526,4.526,0,0,1,1.094,2.941,4.742,4.742,0,0,1-1.282,3.217,4.531,4.531,0,0,1-3.337,1.42h-.986l-1.3-.555a3.454,3.454,0,0,1-2.064-2.724,7.451,7.451,0,0,0,3.927-6.559V13.586c.222.015.443.023.664.023a9.647,9.647,0,0,0,1.086-.061V15.52a9.352,9.352,0,0,0,2.2,6.016ZM30.974,33.486a28.044,28.044,0,0,1-8-1.018v-1.8l.219-.1.005,0,1.35-.587a4.971,4.971,0,0,0,2.888-3.556,7.419,7.419,0,0,0,2.075.3h2.467a7.419,7.419,0,0,0,2.083-.3,4.968,4.968,0,0,0,2.9,3.529l1.441.618h0l.107.046v1.7a28.1,28.1,0,0,1-7.537,1.167Zm7.537.409V35.88H22.971V34.035a29.586,29.586,0,0,0,7.51.969q.259,0,.519,0A29.607,29.607,0,0,0,38.511,33.895ZM41.17,12.021a8.408,8.408,0,0,1-6.055-1.531.757.757,0,0,0-.927,1.2,9.146,9.146,0,0,0,3.718,1.689V17.5a5.538,5.538,0,0,1-1.682,2.272,5.8,5.8,0,0,1-1.256.789,2.221,2.221,0,0,0-1.976-1.211H31.219a2.219,2.219,0,1,0,0,4.438h1.774a2.223,2.223,0,0,0,2.147-1.658A13.509,13.509,0,0,0,37.8,20.364a5.939,5.939,0,0,1-5.829,4.843H29.508a5.937,5.937,0,0,1-5.931-5.931V13.425a20.3,20.3,0,0,0,7.227-2.591,20.562,20.562,0,0,0,6.88-6.7,10.373,10.373,0,0,1,3.485,7.886ZM33.7,21.568a.706.706,0,0,1-.7.7H31.219a.7.7,0,0,1,0-1.41h1.774a.706.706,0,0,1,.7.7ZM20.412,11.892A10.382,10.382,0,0,1,36.48,3.209a19.06,19.06,0,0,1-6.445,6.322A18.822,18.822,0,0,1,22.869,12H20.412v-.106ZM17.471,26.464a4.568,4.568,0,0,1,.624-4.9A9.669,9.669,0,0,0,20.412,15.4V13.512h1.652v5.764A7.451,7.451,0,0,0,26,25.837a3.456,3.456,0,0,1-2.053,2.755l-1.2.523h-1.1A4.568,4.568,0,0,1,17.471,26.464ZM43.822,38.231,42.558,50.161H19.688L18.423,38.231a.757.757,0,0,1,.753-.837H43.07a.757.757,0,0,1,.753.837Zm4.825,11.931H44.08L45.328,38.39a2.271,2.271,0,0,0-2.258-2.51H40.025V31.264L45.1,33.44a5.965,5.965,0,0,1,3.546,5.448ZM31.123,40.9A2.876,2.876,0,1,0,34,43.778,2.88,2.88,0,0,0,31.123,40.9Zm0,4.239a1.363,1.363,0,1,1,1.363-1.363A1.364,1.364,0,0,1,31.123,45.14Z" transform="translate(0 0)" fill="#4045ab"/>
          </g>
        </g>
      </g>
    </g>
  </g>
</svg>
