<svg id="Grupo_1101243" data-name="Grupo 1101243" xmlns="http://www.w3.org/2000/svg" xmlns:xlink="http://www.w3.org/1999/xlink" width="295" height="190.319" viewBox="0 0 295 190.319">
  <defs>
    <clipPath id="clip-path">
      <rect id="Rectángulo_403116" data-name="Rectángulo 403116" width="25.515" height="25.514" fill="#4045ab"/>
    </clipPath>
    <clipPath id="clip-path-2">
      <rect id="Rectángulo_403117" data-name="Rectángulo 403117" width="25.515" height="25.515" fill="#4045ab"/>
    </clipPath>
    <clipPath id="clip-path-3">
      <rect id="Rectángulo_403118" data-name="Rectángulo 403118" width="37.501" height="37.5" fill="#4045ab"/>
    </clipPath>
    <clipPath id="clip-path-4">
      <rect id="Rectángulo_403119" data-name="Rectángulo 403119" width="25.514" height="25.515" fill="#4045ab"/>
    </clipPath>
  </defs>
  <g id="Grupo_1101237" data-name="Grupo 1101237">
    <g id="Grupo_1101244" data-name="Grupo 1101244">
      <g id="Grupo_1101226" data-name="Grupo 1101226" transform="translate(248.109 18.315)">
        <g id="Grupo_1101225" data-name="Grupo 1101225">
          <g id="Grupo_1101224" data-name="Grupo 1101224" clip-path="url(#clip-path)">
            <path id="Trazado_912201" data-name="Trazado 912201" d="M411.959,52.9h-1.235V51.665a3.491,3.491,0,0,1-2.65-1.3,5.51,5.51,0,0,1-1.041-3.159l-.012-.254,2.39-.645.027.382a7.732,7.732,0,0,0,.23,1.415,2.344,2.344,0,0,0,.537,1.027,1.244,1.244,0,0,0,.959.352,1.218,1.218,0,0,0,.948-.332,1.5,1.5,0,0,0,.316-1.038,2.269,2.269,0,0,0-.381-1.382,7.956,7.956,0,0,0-1.075-1.152l-2.417-2.133a5.364,5.364,0,0,1-.82-.944,3.725,3.725,0,0,1-.5-1.114,5.194,5.194,0,0,1-.162-1.351,3.546,3.546,0,0,1,.963-2.629,3.59,3.59,0,0,1,2.266-.986V35.217h1.252v1.219a3.866,3.866,0,0,1,1.121.309,2.951,2.951,0,0,1,1.052.8,3.8,3.8,0,0,1,.66,1.229,6.947,6.947,0,0,1,.308,1.627l.021.261-2.325.63-.028-.381a7.179,7.179,0,0,0-.2-1.266,1.707,1.707,0,0,0-.469-.834,1.049,1.049,0,0,0-.749-.241c-.051,0-.1,0-.158.006a1.6,1.6,0,0,0-.975.347,1.183,1.183,0,0,0-.311.918,1.991,1.991,0,0,0,.185.926,3.178,3.178,0,0,0,.652.792l2.431,2.13a9.042,9.042,0,0,1,1.039,1.113,5.669,5.669,0,0,1,.808,1.4,4.679,4.679,0,0,1,.316,1.751,4.072,4.072,0,0,1-.407,1.856,3.224,3.224,0,0,1-1.15,1.285,3.7,3.7,0,0,1-1.407.526ZM407.68,47.43a4.751,4.751,0,0,0,.895,2.552,2.975,2.975,0,0,0,2.472,1.066l.309.006v0l.256-.026a3.179,3.179,0,0,0,1.414-.467,2.6,2.6,0,0,0,.927-1.039,3.45,3.45,0,0,0,.339-1.571,4.053,4.053,0,0,0-.27-1.515A5.038,5.038,0,0,0,413.3,45.2a8.41,8.41,0,0,0-.965-1.033L409.9,42.029a3.8,3.8,0,0,1-.783-.961,2.6,2.6,0,0,1-.259-1.222,1.774,1.774,0,0,1,.522-1.389,2.209,2.209,0,0,1,1.351-.505,1.761,1.761,0,0,1,1.383.4,2.327,2.327,0,0,1,.649,1.136,7.492,7.492,0,0,1,.186,1l1.086-.294a5.966,5.966,0,0,0-.253-1.218,3.175,3.175,0,0,0-.547-1.026,2.325,2.325,0,0,0-.829-.632,3.443,3.443,0,0,0-1.2-.283l-.283-.02v.01l-.3.011a3.1,3.1,0,0,0-2.149.823,2.905,2.905,0,0,0-.776,2.181,4.569,4.569,0,0,0,.14,1.186,3.1,3.1,0,0,0,.419.927,4.728,4.728,0,0,0,.721.829l2.411,2.127a8.587,8.587,0,0,1,1.162,1.246,2.877,2.877,0,0,1,.506,1.759,2.1,2.1,0,0,1-.482,1.465,1.831,1.831,0,0,1-1.413.537,1.863,1.863,0,0,1-1.419-.551,2.966,2.966,0,0,1-.688-1.3,8.225,8.225,0,0,1-.214-1.151Z" transform="translate(-398.221 -31.303)" fill="#4045ab"/>
            <path id="Trazado_912202" data-name="Trazado 912202" d="M405.837,29.016a12.719,12.719,0,1,1-4.966,1A12.677,12.677,0,0,1,405.837,29.016Zm0,24.883A12.126,12.126,0,1,0,393.71,41.773,12.14,12.14,0,0,0,405.837,53.9Z" transform="translate(-393.079 -29.016)" fill="#4045ab"/>
            <path id="Trazado_912203" data-name="Trazado 912203" d="M406.614,31.123a11.391,11.391,0,1,1-4.448.9A11.356,11.356,0,0,1,406.614,31.123Zm0,22.223a10.8,10.8,0,1,0-10.8-10.8A10.808,10.808,0,0,0,406.614,53.346Z" transform="translate(-393.856 -29.793)" fill="#4045ab"/>
          </g>
        </g>
      </g>
      <g id="Grupo_1101229" data-name="Grupo 1101229" transform="translate(21.564)">
        <g id="Grupo_1101228" data-name="Grupo 1101228">
          <g id="Grupo_1101227" data-name="Grupo 1101227" clip-path="url(#clip-path-2)">
            <path id="Trazado_912204" data-name="Trazado 912204" d="M53.044,23.888H51.809V22.65a3.491,3.491,0,0,1-2.65-1.3,5.5,5.5,0,0,1-1.041-3.159l-.012-.254,2.39-.645.027.383a7.677,7.677,0,0,0,.23,1.415,2.344,2.344,0,0,0,.537,1.027,1.245,1.245,0,0,0,.959.352,1.218,1.218,0,0,0,.948-.332,1.5,1.5,0,0,0,.316-1.038,2.269,2.269,0,0,0-.381-1.382,7.991,7.991,0,0,0-1.075-1.152l-2.417-2.133a5.361,5.361,0,0,1-.82-.944,3.723,3.723,0,0,1-.5-1.114,5.2,5.2,0,0,1-.162-1.351,3.551,3.551,0,0,1,.963-2.63,3.6,3.6,0,0,1,2.267-.985V6.2h1.252v1.22a3.866,3.866,0,0,1,1.121.309,2.951,2.951,0,0,1,1.052.8,3.815,3.815,0,0,1,.66,1.228,6.949,6.949,0,0,1,.308,1.628l.021.261-2.325.63-.028-.381a7.137,7.137,0,0,0-.2-1.266A1.7,1.7,0,0,0,52.77,9.8a1.046,1.046,0,0,0-.747-.241c-.051,0-.1,0-.16.006a1.6,1.6,0,0,0-.975.347,1.183,1.183,0,0,0-.311.918,1.991,1.991,0,0,0,.185.926,3.178,3.178,0,0,0,.652.792l2.431,2.13a9.075,9.075,0,0,1,1.039,1.112,5.708,5.708,0,0,1,.808,1.4,4.679,4.679,0,0,1,.316,1.751A4.072,4.072,0,0,1,55.6,20.8a3.223,3.223,0,0,1-1.15,1.285,3.7,3.7,0,0,1-1.407.526Zm-4.279-5.474a4.746,4.746,0,0,0,.894,2.552,2.975,2.975,0,0,0,2.472,1.066l.309.006v0l.256-.026a3.179,3.179,0,0,0,1.414-.467,2.6,2.6,0,0,0,.927-1.039,3.45,3.45,0,0,0,.339-1.571,4.052,4.052,0,0,0-.27-1.515,5.075,5.075,0,0,0-.718-1.245,8.44,8.44,0,0,0-.965-1.032l-2.436-2.135a3.8,3.8,0,0,1-.783-.961,2.6,2.6,0,0,1-.258-1.222,1.774,1.774,0,0,1,.522-1.389,2.208,2.208,0,0,1,1.351-.505c.07-.005.139-.008.2-.008a1.664,1.664,0,0,1,1.178.411,2.317,2.317,0,0,1,.649,1.136,7.443,7.443,0,0,1,.186,1l1.086-.294a5.969,5.969,0,0,0-.253-1.218,3.188,3.188,0,0,0-.547-1.026,2.324,2.324,0,0,0-.829-.632,3.443,3.443,0,0,0-1.2-.283L52.014,8v.01l-.3.011a3.064,3.064,0,0,0-2.15.822,2.91,2.91,0,0,0-.775,2.181,4.575,4.575,0,0,0,.14,1.186,3.094,3.094,0,0,0,.419.927,4.73,4.73,0,0,0,.722.829L52.476,16.1a8.624,8.624,0,0,1,1.162,1.246,2.877,2.877,0,0,1,.506,1.759,2.1,2.1,0,0,1-.482,1.465,1.831,1.831,0,0,1-1.413.537,1.865,1.865,0,0,1-1.419-.551,2.966,2.966,0,0,1-.688-1.3,8.207,8.207,0,0,1-.215-1.151Z" transform="translate(-39.306 -2.287)" fill="#4045ab"/>
            <path id="Trazado_912205" data-name="Trazado 912205" d="M46.921,0a12.76,12.76,0,0,1,4.966,24.511A12.76,12.76,0,0,1,41.955,1,12.679,12.679,0,0,1,46.921,0Zm0,24.883A12.126,12.126,0,1,0,34.794,12.758,12.14,12.14,0,0,0,46.921,24.884Z" transform="translate(-34.163 0)" fill="#4045ab"/>
            <path id="Elipse_11555" data-name="Elipse 11555" d="M11.427,0a11.43,11.43,0,0,1,4.448,21.956A11.43,11.43,0,0,1,6.979.9,11.356,11.356,0,0,1,11.427,0Zm0,22.223a10.8,10.8,0,1,0-10.8-10.8A10.808,10.808,0,0,0,11.427,22.223Z" transform="translate(-0.625 3.698) rotate(-10.901)" fill="#4045ab"/>
          </g>
        </g>
      </g>
      <g id="Grupo_1101232" data-name="Grupo 1101232" transform="translate(183.356 152.819)">
        <g id="Grupo_1101231" data-name="Grupo 1101231">
          <g id="Grupo_1101230" data-name="Grupo 1101230" clip-path="url(#clip-path-3)">
            <path id="Trazado_912206" data-name="Trazado 912206" d="M318.166,277.2H316.64v-1.826a5.078,5.078,0,0,1-3.958-1.873,8.014,8.014,0,0,1-1.512-4.595l-.012-.254,3.245-.876.027.383a11.624,11.624,0,0,0,.346,2.125,3.625,3.625,0,0,0,.832,1.586,1.987,1.987,0,0,0,1.532.571,1.943,1.943,0,0,0,1.516-.542,2.358,2.358,0,0,0,.509-1.64,3.513,3.513,0,0,0-.6-2.139,12.023,12.023,0,0,0-1.614-1.728l-3.58-3.159a7.832,7.832,0,0,1-1.192-1.37,5.357,5.357,0,0,1-.727-1.607,7.554,7.554,0,0,1-.234-1.962,5.11,5.11,0,0,1,1.382-3.787,5.228,5.228,0,0,1,3.4-1.429V251.3h1.551v1.789a5.659,5.659,0,0,1,1.749.462,4.228,4.228,0,0,1,1.505,1.15,5.49,5.49,0,0,1,.95,1.771,10.172,10.172,0,0,1,.449,2.376l.021.261-3.147.852-.028-.381a10.736,10.736,0,0,0-.306-1.9,2.669,2.669,0,0,0-.738-1.308,1.7,1.7,0,0,0-1.212-.4c-.079,0-.162,0-.246.009a2.521,2.521,0,0,0-1.535.552A1.9,1.9,0,0,0,314.51,258a3.079,3.079,0,0,0,.292,1.442,4.842,4.842,0,0,0,1,1.216l3.6,3.155a13.27,13.27,0,0,1,1.522,1.629,8.241,8.241,0,0,1,1.176,2.037,6.782,6.782,0,0,1,.456,2.537,5.886,5.886,0,0,1-.586,2.681,4.633,4.633,0,0,1-1.65,1.845,5.378,5.378,0,0,1-2.155.777Zm-.894-.631h.263v-1.811l.284-.028a4.86,4.86,0,0,0,2.162-.715,4.01,4.01,0,0,0,1.427-1.6,5.264,5.264,0,0,0,.518-2.4,6.156,6.156,0,0,0-.411-2.3,7.61,7.61,0,0,0-1.086-1.881,12.631,12.631,0,0,0-1.448-1.551l-3.607-3.16a5.46,5.46,0,0,1-1.129-1.386,3.688,3.688,0,0,1-.366-1.738,2.486,2.486,0,0,1,.723-1.945,3.127,3.127,0,0,1,1.91-.711,2.466,2.466,0,0,1,1.934.557,3.287,3.287,0,0,1,.918,1.61,11.039,11.039,0,0,1,.291,1.636l1.906-.516a9.19,9.19,0,0,0-.4-1.966,4.864,4.864,0,0,0-.838-1.568,3.6,3.6,0,0,0-1.283-.979,5.241,5.241,0,0,0-1.823-.433l-.293-.021v-1.74h-.289v1.751l-.3.011a4.741,4.741,0,0,0-3.287,1.263,4.508,4.508,0,0,0-1.195,3.339,6.931,6.931,0,0,0,.212,1.8,4.728,4.728,0,0,0,.641,1.419,7.2,7.2,0,0,0,1.093,1.256l3.574,3.154a12.657,12.657,0,0,1,1.7,1.823,4.121,4.121,0,0,1,.72,2.516,2.956,2.956,0,0,1-.675,2.067,2.565,2.565,0,0,1-1.981.746,2.616,2.616,0,0,1-1.992-.77,4.246,4.246,0,0,1-.983-1.859,12.158,12.158,0,0,1-.332-1.86l-2.017.545a7.256,7.256,0,0,0,1.366,3.988,4.546,4.546,0,0,0,3.779,1.639l.31.006Z" transform="translate(-298.113 -245.499)" fill="#4045ab"/>
            <path id="Elipse_11556" data-name="Elipse 11556" d="M18.25-.5a18.755,18.755,0,0,1,7.3,36.027A18.755,18.755,0,0,1,10.952.974,18.633,18.633,0,0,1,18.25-.5Zm0,36.869A18.119,18.119,0,1,0,.131,18.25,18.14,18.14,0,0,0,18.25,36.369Z" transform="translate(0.5 0.5)" fill="#4045ab"/>
            <path id="Elipse_11557" data-name="Elipse 11557" d="M16.779,0A16.783,16.783,0,0,1,23.31,32.239,16.783,16.783,0,0,1,10.248,1.319,16.674,16.674,0,0,1,16.779,0Zm0,32.927A16.148,16.148,0,1,0,.631,16.779,16.166,16.166,0,0,0,16.779,32.927Z" transform="translate(1.536 2.418) rotate(-1.506)" fill="#4045ab"/>
          </g>
        </g>
      </g>
      <g id="Grupo_1101235" data-name="Grupo 1101235" transform="translate(62.305 150.426)">
        <g id="Grupo_1101234" data-name="Grupo 1101234">
          <g id="Grupo_1101233" data-name="Grupo 1101233" clip-path="url(#clip-path-4)">
            <path id="Trazado_912207" data-name="Trazado 912207" d="M117.59,262.208h-1.235v-1.239a3.491,3.491,0,0,1-2.65-1.3,5.5,5.5,0,0,1-1.041-3.159l-.012-.254,2.39-.645.027.382a7.733,7.733,0,0,0,.23,1.415,2.345,2.345,0,0,0,.537,1.027,1.245,1.245,0,0,0,.959.352,1.218,1.218,0,0,0,.948-.332,1.5,1.5,0,0,0,.316-1.038,2.269,2.269,0,0,0-.381-1.382,7.953,7.953,0,0,0-1.075-1.152l-2.417-2.133a5.39,5.39,0,0,1-.82-.943,3.723,3.723,0,0,1-.5-1.115,5.194,5.194,0,0,1-.162-1.351,3.546,3.546,0,0,1,.963-2.629,3.59,3.59,0,0,1,2.266-.986v-1.209h1.252v1.219a3.857,3.857,0,0,1,1.121.31,2.95,2.95,0,0,1,1.051.8,3.8,3.8,0,0,1,.66,1.229,6.948,6.948,0,0,1,.308,1.627l.021.261-2.325.63-.028-.381a7.177,7.177,0,0,0-.2-1.266,1.7,1.7,0,0,0-.469-.834,1.046,1.046,0,0,0-.747-.242c-.051,0-.1,0-.16.006a1.6,1.6,0,0,0-.975.347,1.183,1.183,0,0,0-.311.918,1.991,1.991,0,0,0,.185.926,3.178,3.178,0,0,0,.652.792l2.431,2.13a9.124,9.124,0,0,1,1.039,1.112,5.686,5.686,0,0,1,.809,1.4,4.679,4.679,0,0,1,.316,1.751,4.072,4.072,0,0,1-.407,1.856A3.223,3.223,0,0,1,119,260.4a3.7,3.7,0,0,1-1.407.526Zm-4.279-5.474a4.746,4.746,0,0,0,.894,2.552,2.975,2.975,0,0,0,2.472,1.066l.309.006v0l.256-.026a3.179,3.179,0,0,0,1.414-.467,2.6,2.6,0,0,0,.927-1.039,3.45,3.45,0,0,0,.339-1.571,4.052,4.052,0,0,0-.27-1.515,5.054,5.054,0,0,0-.718-1.245,8.491,8.491,0,0,0-.965-1.033l-2.436-2.135a3.8,3.8,0,0,1-.783-.961,2.6,2.6,0,0,1-.258-1.223,1.774,1.774,0,0,1,.522-1.389,2.208,2.208,0,0,1,1.35-.505c.07-.005.139-.008.2-.008a1.664,1.664,0,0,1,1.178.411,2.318,2.318,0,0,1,.649,1.136,7.494,7.494,0,0,1,.186,1l1.086-.294a5.97,5.97,0,0,0-.253-1.218,3.175,3.175,0,0,0-.547-1.026,2.324,2.324,0,0,0-.829-.632,3.438,3.438,0,0,0-1.2-.283l-.283-.02v.01l-.3.011a3.1,3.1,0,0,0-2.149.823,2.905,2.905,0,0,0-.776,2.181,4.568,4.568,0,0,0,.14,1.186,3.1,3.1,0,0,0,.419.927,4.757,4.757,0,0,0,.722.829l2.411,2.127a8.59,8.59,0,0,1,1.162,1.246,2.877,2.877,0,0,1,.506,1.759,2.094,2.094,0,0,1-.482,1.465,1.831,1.831,0,0,1-1.413.536,1.865,1.865,0,0,1-1.419-.551,2.966,2.966,0,0,1-.688-1.3,8.221,8.221,0,0,1-.214-1.151Z" transform="translate(-103.852 -240.607)" fill="#4045ab"/>
            <path id="Trazado_912208" data-name="Trazado 912208" d="M111.467,238.32a12.719,12.719,0,1,1-4.966,1A12.677,12.677,0,0,1,111.467,238.32Zm0,24.883A12.126,12.126,0,1,0,99.34,251.077,12.14,12.14,0,0,0,111.467,263.2Z" transform="translate(-98.709 -238.32)" fill="#4045ab"/>
            <path id="Trazado_912209" data-name="Trazado 912209" d="M112.244,240.427a11.391,11.391,0,1,1-4.448.9A11.355,11.355,0,0,1,112.244,240.427Zm0,22.223a10.8,10.8,0,1,0-10.8-10.8A10.808,10.808,0,0,0,112.244,262.65Z" transform="translate(-99.487 -239.097)" fill="#4045ab"/>
          </g>
        </g>
      </g>
    </g>
  </g>
  <g id="Grupo_1101239" data-name="Grupo 1101239">
    <g id="Grupo_1101242" data-name="Grupo 1101242">
      <path id="Trazado_912210" data-name="Trazado 912210" d="M240.854,150.521s-12.861-4.435-21.065-9.534-13.747-7.1-16.629-6.652-9.313.443-13.969,1.331-7.539,1.774-8.426,3.991,2.882,8.426,7.538,9.756,13.97,7.539,13.97,7.539-40.577,38.8-39.025,42.794,19.291,20.177,21.729,20.4,39.025-11.087,41.242-11.53a43.687,43.687,0,0,0,13.969-5.765,47.793,47.793,0,0,0,7.983-6.43l18.4-7.983L245.731,148.3Z" transform="translate(-60.191 -49.521)" fill="#fff"/>
      <path id="Trazado_912211" data-name="Trazado 912211" d="M203.816,133.775c3.324,0,8.841,2.337,15.955,6.76a98.917,98.917,0,0,0,13.563,6.656c3.734,1.537,6.7,2.59,7.32,2.807l4.763-2.165a.316.316,0,0,1,.411.142l20.843,40.133a.316.316,0,0,1-.155.435L248.171,196.5a49.729,49.729,0,0,1-7.993,6.429,39.547,39.547,0,0,1-8.214,4.08,42.438,42.438,0,0,1-5.868,1.732c-.7.14-5.057,1.433-10.569,3.068-12.047,3.575-28.545,8.471-30.654,8.471-.039,0-.076,0-.109,0a4.158,4.158,0,0,1-1.714-.827c-.711-.465-1.606-1.125-2.659-1.96-2.009-1.594-4.5-3.754-7.01-6.082-4.573-4.24-9.763-9.547-10.612-11.73-.145-.373-.172-1.119,1.263-3.274a61.46,61.46,0,0,1,4.234-5.416c3.177-3.72,7.72-8.612,13.5-14.539,8.917-9.14,18.1-17.982,19.816-19.634-1.693-1.107-9.486-6.12-13.552-7.282-3.154-.9-5.84-3.9-7.1-6.477-.754-1.537-.981-2.85-.642-3.7a5.032,5.032,0,0,1,2.967-2.667,27.583,27.583,0,0,1,5.693-1.517,77.6,77.6,0,0,1,9.2-.932c1.956-.121,3.645-.226,4.782-.4A5.879,5.879,0,0,1,203.816,133.775Zm36.853,16.878a.316.316,0,0,1-.1-.017c-.032-.011-3.272-1.132-7.473-2.861a99.53,99.53,0,0,1-13.655-6.7,68.941,68.941,0,0,0-9.5-5.073,17.086,17.086,0,0,0-6.12-1.591,5.248,5.248,0,0,0-.793.056c-1.165.179-2.868.285-4.839.407a77.157,77.157,0,0,0-9.119.922c-4.684.892-7.377,1.762-8.192,3.8a4.533,4.533,0,0,0,.622,3.187c1.2,2.449,3.742,5.3,6.71,6.148a43.415,43.415,0,0,1,8.8,4.3c2.884,1.7,5.23,3.264,5.253,3.28a.316.316,0,0,1,.043.491c-.1.1-10.255,9.815-20.088,19.894-5.772,5.917-10.3,10.8-13.473,14.507a60.873,60.873,0,0,0-4.189,5.355c-1.281,1.923-1.266,2.526-1.2,2.7.667,1.716,4.77,6.229,10.453,11.5,2.5,2.318,4.977,4.466,6.973,6.051,2.936,2.33,3.8,2.631,4.038,2.653l.052,0c.87,0,4.788-.987,11.647-2.934,5.941-1.686,13.086-3.807,18.827-5.511s9.895-2.936,10.625-3.082a43.584,43.584,0,0,0,13.856-5.718,48.065,48.065,0,0,0,7.926-6.382.316.316,0,0,1,.106-.075l18.093-7.848L245.4,148.531l-4.605,2.093A.316.316,0,0,1,240.669,150.652Z" transform="translate(-60.006 -49.337)" fill="#4045ab"/>
      <path id="Trazado_912212" data-name="Trazado 912212" d="M256.641,219.11S266,227.458,267.013,231a12.979,12.979,0,0,1-.253,7.084l-6.081,1.819Z" transform="translate(-94.651 -80.809)" fill="#4045ab"/>
      <path id="Trazado_912213" data-name="Trazado 912213" d="M256.456,218.61a.315.315,0,0,1,.21.08c.023.021,2.377,2.123,4.822,4.632,3.31,3.4,5.209,5.887,5.643,7.407a12.283,12.283,0,0,1,.262,5,12.712,12.712,0,0,1-.521,2.275.316.316,0,0,1-.207.2l-6.081,1.819a.316.316,0,0,1-.4-.242l-4.038-20.793a.316.316,0,0,1,.31-.376Zm9.871,19.034a13.133,13.133,0,0,0,.444-2.019,11.643,11.643,0,0,0-.246-4.723c-.816-2.855-7.393-9.09-9.578-11.1l3.79,19.516Z" transform="translate(-94.466 -80.625)" fill="#4045ab"/>
      <path id="Trazado_912214" data-name="Trazado 912214" d="M302.733,178.229l8.6,28.84,6.7-2.421Z" transform="translate(-111.65 -65.732)" fill="#4045ab"/>
      <path id="Trazado_912215" data-name="Trazado 912215" d="M302.548,177.729a.316.316,0,0,1,.273.157l15.3,26.419a.316.316,0,0,1-.166.455l-6.7,2.421a.316.316,0,0,1-.41-.207l-8.6-28.84a.316.316,0,0,1,.3-.406Zm14.839,26.566-13.772-23.78,7.742,25.959Z" transform="translate(-111.465 -65.547)" fill="#4045ab"/>
      <path id="Trazado_912216" data-name="Trazado 912216" d="M169.932,152.686s16.408,2.883,19.512,4.213,19.956,19.291,25.943,24.834a31.214,31.214,0,0,1,9.313,19.734c.222,5.543-2,12.86-4.878,13.969s-4.878-.444-5.765-2.661a31.862,31.862,0,0,1-1.331-6.43l-3.548-7.317a32.4,32.4,0,0,1-.443,8.648c-.887,4.213-2.439,13.082-5.987,15.3s-7.761.887-8.2-.222a26.424,26.424,0,0,1-.887-3.1s-1.109,3.992-4.435,5.1-7.982-.222-7.982-.222-3.77,4.435-6.874,3.547-6.208-4.213-6.208-4.213-10.422-6.431-19.956-13.082-26.608-27.495-26.608-27.495l-8.2-5.1,25.056-35.033,10.643,6.652Z" transform="translate(-41.819 -52.795)" fill="#fff"/>
      <path id="Trazado_912217" data-name="Trazado 912217" d="M138.262,142.652a.314.314,0,0,1,.167.048l10.586,6.616,20.776,2.873.011,0c.671.118,16.48,2.9,19.582,4.233.956.41,3.087,2.222,6.705,5.7,3.1,2.986,6.75,6.667,10.276,10.226,3.6,3.63,6.992,7.058,9.051,8.965a30,30,0,0,1,6.893,9.972,29.178,29.178,0,0,1,2.521,9.981,25.979,25.979,0,0,1-1.291,8.76c-.58,1.739-1.843,4.767-3.789,5.516a5.428,5.428,0,0,1-1.942.388,4.036,4.036,0,0,1-2.626-.944,5.655,5.655,0,0,1-1.6-2.283,31.145,31.145,0,0,1-1.345-6.459L209.4,200.4a31.42,31.42,0,0,1-.54,7.154c-.071.335-.146.7-.225,1.09-.944,4.6-2.523,12.3-5.9,14.412a8.338,8.338,0,0,1-4.416,1.247,7.82,7.82,0,0,1-2.757-.481,2.509,2.509,0,0,1-1.491-1.139,19.384,19.384,0,0,1-.659-2.145,10.316,10.316,0,0,1-.636,1.223,6.913,6.913,0,0,1-3.634,3.1,10.278,10.278,0,0,1-3.227.457,20.207,20.207,0,0,1-4.747-.623,16.32,16.32,0,0,1-1.829,1.723,7.193,7.193,0,0,1-4.291,1.9,3.444,3.444,0,0,1-.947-.13,12.91,12.91,0,0,1-4.38-2.5,21.513,21.513,0,0,1-1.943-1.772c-.678-.42-10.779-6.682-19.935-13.07a69,69,0,0,1-8.221-7.136c-2.607-2.561-5.538-5.64-8.713-9.153-5.151-5.7-9.293-10.723-9.705-11.224l-8.16-5.073a.316.316,0,0,1-.09-.452L138,142.784A.315.315,0,0,1,138.262,142.652ZM169.7,152.814l-20.837-2.882a.316.316,0,0,1-.124-.045l-10.392-6.494L113.658,177.91l7.918,4.922a.316.316,0,0,1,.078.068c.043.052,4.327,5.276,9.72,11.243,7.127,7.887,12.945,13.486,16.824,16.193,9.417,6.57,19.837,13.008,19.941,13.072a.318.318,0,0,1,.065.053c.03.033,3.082,3.273,6.064,4.125a2.815,2.815,0,0,0,.774.105c2.717,0,5.743-3.518,5.773-3.554a.316.316,0,0,1,.327-.1,19.829,19.829,0,0,0,4.768.65,9.657,9.657,0,0,0,3.028-.425,6.384,6.384,0,0,0,3.286-2.816,9.216,9.216,0,0,0,.945-2.07.316.316,0,0,1,.612.016,26.272,26.272,0,0,0,.872,3.056,2.027,2.027,0,0,0,1.133.785,7.176,7.176,0,0,0,2.529.438,7.707,7.707,0,0,0,4.081-1.151c1.352-.845,2.572-2.869,3.627-6.017a70.059,70.059,0,0,0,1.992-7.987c.08-.389.155-.756.226-1.093a32.341,32.341,0,0,0,.438-8.552.316.316,0,0,1,.6-.169l3.548,7.317a.316.316,0,0,1,.03.1,31.743,31.743,0,0,0,1.31,6.346,3.976,3.976,0,0,0,3.643,2.83,4.8,4.8,0,0,0,1.716-.346c1.245-.479,2.491-2.348,3.417-5.127A25.314,25.314,0,0,0,224.2,201.3a31.014,31.014,0,0,0-9.212-19.515c-2.07-1.916-5.47-5.349-9.071-8.984-6.6-6.658-14.8-14.944-16.782-15.792C186.121,155.713,170.084,152.881,169.7,152.814Z" transform="translate(-41.634 -52.611)" fill="#4045ab"/>
      <path id="Trazado_912218" data-name="Trazado 912218" d="M146.37,158.59l-17.225,33.148-2.757-2.759Z" transform="translate(-46.613 -58.489)" fill="#4045ab"/>
      <path id="Trazado_912219" data-name="Trazado 912219" d="M146.186,158.09a.316.316,0,0,1,.28.461L129.24,191.7a.316.316,0,0,1-.5.078l-2.757-2.759a.316.316,0,0,1-.04-.4l19.982-30.389A.315.315,0,0,1,146.186,158.09Zm-17.307,32.936,14.187-27.3-16.458,25.03Z" transform="translate(-46.428 -58.304)" fill="#4045ab"/>
      <path id="Trazado_912220" data-name="Trazado 912220" d="M199.79,136.109s-9.322-.244-11.53.665c-3.769,1.552-3.991,6.652-3.991,7.539s-2.661,7.982-3.1,10.643,2.66,3.991,9.756,1.552,9.091-5.544,9.091-12.2" transform="translate(-66.799 -50.187)" fill="#fff"/>
      <path id="Trazado_912221" data-name="Trazado 912221" d="M184.506,157.921a4.69,4.69,0,0,1-3.065-.855,2.394,2.394,0,0,1-.772-2.347,61.226,61.226,0,0,1,1.934-6.661,34.776,34.776,0,0,0,1.166-3.931c0-.625.117-6.155,4.186-7.831,2.244-.924,11.275-.7,11.658-.689a.316.316,0,0,1-.017.631c-.093,0-9.28-.232-11.4.642-3.689,1.519-3.8,6.665-3.8,7.247a26.834,26.834,0,0,1-1.2,4.126,62.316,62.316,0,0,0-1.911,6.569,1.772,1.772,0,0,0,.557,1.761c1.313,1.112,4.515.908,8.784-.56,6.721-2.311,8.878-5.2,8.878-11.9a.316.316,0,1,1,.631,0,19.474,19.474,0,0,1-.431,4.441,9.368,9.368,0,0,1-1.514,3.421c-1.4,1.935-3.672,3.364-7.359,4.631A20.423,20.423,0,0,1,184.506,157.921Z" transform="translate(-66.615 -50.001)" fill="#4045ab"/>
      <path id="Trazado_912222" data-name="Trazado 912222" d="M182.058,158.994a.316.316,0,0,1-.294-.429l2.66-6.874a.315.315,0,0,1,.111-.143,6.76,6.76,0,0,1,3.51-1.167,2.536,2.536,0,0,1,1.955.777,4.6,4.6,0,0,1,.8,3.556,3.1,3.1,0,0,1-1.892,2.578,7.387,7.387,0,0,1-3.111.643,7.24,7.24,0,0,1-.894-.052,2.9,2.9,0,0,0-.358-.022,3.185,3.185,0,0,0-2.244,1.021A.316.316,0,0,1,182.058,158.994Zm2.919-6.982-2.206,5.7a3.5,3.5,0,0,1,2.209-.454,6.606,6.606,0,0,0,.816.048,6.7,6.7,0,0,0,2.834-.579,2.471,2.471,0,0,0,1.54-2.064,4.042,4.042,0,0,0-.634-3.076,1.933,1.933,0,0,0-1.491-.573A6.148,6.148,0,0,0,184.978,152.012Z" transform="translate(-67.028 -55.461)" fill="#4045ab"/>
      <path id="Trazado_912223" data-name="Trazado 912223" d="M258.1,221.468a.316.316,0,0,1-.3-.233,11.35,11.35,0,0,0-1.251-2.345,75.476,75.476,0,0,0-6.444-8.4,23.422,23.422,0,0,1-3.075-5.05c-.33-.668-.641-1.3-.947-1.829a.316.316,0,1,1,.547-.316c.317.549.633,1.188.967,1.866a22.925,22.925,0,0,0,2.988,4.919c7.01,8.178,7.8,10.877,7.826,10.988a.316.316,0,0,1-.3.4Z" transform="translate(-90.738 -74.919)" fill="#4045ab"/>
      <path id="Trazado_912224" data-name="Trazado 912224" d="M244.429,198.3a.315.315,0,0,1-.274-.158c-.5-.868-.8-1.4-.8-1.4a.316.316,0,0,1-.04-.125l-.444-4.435a.316.316,0,1,1,.628-.063l.437,4.368c.091.159.365.638.769,1.34a.316.316,0,0,1-.273.473Z" transform="translate(-89.571 -70.749)" fill="#4045ab"/>
      <path id="Trazado_912225" data-name="Trazado 912225" d="M234.412,244.915a.316.316,0,0,1-.246-.513,8.925,8.925,0,0,0,.986-3.714,7.287,7.287,0,0,0-.558-4.34c-1.325-1.988-10.068-19.04-10.44-19.765a.316.316,0,0,1-.034-.131l-.222-5.322a.316.316,0,0,1,.631-.026l.219,5.252c.591,1.152,9.105,17.742,10.372,19.642.852,1.277.78,3.525.661,4.751a9.352,9.352,0,0,1-1.121,4.047A.315.315,0,0,1,234.412,244.915Z" transform="translate(-82.575 -77.745)" fill="#4045ab"/>
      <path id="Trazado_912226" data-name="Trazado 912226" d="M216.218,262.27a.316.316,0,0,1-.315-.3,26.9,26.9,0,0,0-.66-4.06,19.136,19.136,0,0,0-3.262-7.292,51.348,51.348,0,0,1-3.7-5.511.316.316,0,1,1,.541-.324,50.74,50.74,0,0,0,3.656,5.441,19.77,19.77,0,0,1,3.386,7.552,26.983,26.983,0,0,1,.673,4.155.316.316,0,0,1-.3.335Z" transform="translate(-76.797 -90.222)" fill="#4045ab"/>
      <path id="Trazado_912227" data-name="Trazado 912227" d="M204.847,236.973a.316.316,0,0,1-.275-.159c-1.77-3.107-3.111-5.783-3.124-5.81a.316.316,0,0,1-.033-.141V227.98a.316.316,0,1,1,.631,0v2.808c.217.43,1.468,2.894,3.075,5.714a.316.316,0,0,1-.274.472Z" transform="translate(-74.283 -83.964)" fill="#4045ab"/>
      <path id="Trazado_912228" data-name="Trazado 912228" d="M139.619,221.628s-5.347-1.5-6.845-3.422-2.139-8.022-2.246-9.947-1.283-3.85,1.07-4.706,5.454,1.712,6.631,4.278a18.743,18.743,0,0,1,1.284,6.631,19.841,19.841,0,0,0,1.818,3.422s1.711,3.316-1.711,3.744" transform="translate(-47.997 -75.009)" fill="#fff"/>
      <path id="Trazado_912229" data-name="Trazado 912229" d="M139.435,221.759a.315.315,0,0,1-.085-.012c-.222-.062-5.465-1.548-7.009-3.532a12.754,12.754,0,0,1-1.706-5.111,45.816,45.816,0,0,1-.606-5.012,10.38,10.38,0,0,0-.2-1.349,5.226,5.226,0,0,1-.13-2.072,2.234,2.234,0,0,1,1.6-1.6,3.171,3.171,0,0,1,1.087-.187,5.69,5.69,0,0,1,3.458,1.461,9.278,9.278,0,0,1,2.481,3.169,19.24,19.24,0,0,1,1.313,6.763,18.748,18.748,0,0,0,1.769,3.254l.013.023a3.648,3.648,0,0,1,.21,2.96,2.618,2.618,0,0,1-2.163,1.242Zm-7.042-18.243a2.541,2.541,0,0,0-.871.149c-1.457.53-1.362,1.425-1.069,2.96a10.852,10.852,0,0,1,.207,1.432c.136,2.448.847,8.057,2.18,9.771s6.028,3.122,6.62,3.295a2,2,0,0,0,1.62-.9,3.024,3.024,0,0,0-.208-2.366c-.064-.1-.488-.781-.907-1.508-.951-1.651-.951-1.933-.951-2.069a18.529,18.529,0,0,0-1.255-6.5,8.626,8.626,0,0,0-2.308-2.944A5.073,5.073,0,0,0,132.393,203.516Z" transform="translate(-47.812 -74.825)" fill="#4045ab"/>
      <path id="Trazado_912230" data-name="Trazado 912230" d="M131.3,213.973s1.9,1.9,3.279,1.8.424-4.76.424-4.76a6.392,6.392,0,0,1-2.645-1.375,22.734,22.734,0,0,1-1.8-1.8Z" transform="translate(-48.152 -76.652)" fill="#fff"/>
      <path id="Trazado_912231" data-name="Trazado 912231" d="M134.283,215.907h0c-1.477,0-3.312-1.818-3.389-1.895a.316.316,0,0,1-.09-.185l-.74-6.135a.316.316,0,0,1,.553-.243,22.73,22.73,0,0,0,1.771,1.77,6.125,6.125,0,0,0,2.5,1.3.316.316,0,0,1,.243.245,19.277,19.277,0,0,1,.277,1.931,4.447,4.447,0,0,1-.34,2.842.879.879,0,0,1-.645.366C134.376,215.905,134.33,215.907,134.283,215.907Zm-2.866-2.266c.541.518,1.906,1.635,2.866,1.635h0c.03,0,.06,0,.088,0a.246.246,0,0,0,.19-.116c.448-.594.24-2.732-.013-4.073a6.669,6.669,0,0,1-2.586-1.4c-.476-.433-.863-.812-1.157-1.111Z" transform="translate(-47.967 -76.467)" fill="#4045ab"/>
      <path id="Trazado_912232" data-name="Trazado 912232" d="M154.416,232.676s-5.669,1.177-7.059-.749-4.171-9.626-4.064-12.3,7.165-9.2,10.695-11.871,5.775-3.53,7.915-2.246,3.85,2.888,3.209,5.134-5.775,11.872-6.631,13.583-1.711,7.7-1.711,7.7Z" transform="translate(-52.846 -75.577)" fill="#fff"/>
      <path id="Trazado_912233" data-name="Trazado 912233" d="M150.742,233.163c-1.946,0-3.233-.416-3.826-1.235a27.94,27.94,0,0,1-2.636-5.952c-.471-1.376-1.558-4.768-1.487-6.546.051-1.274,1.448-3.34,4.152-6.142a63.319,63.319,0,0,1,6.668-5.968c2.68-2.03,4.5-2.9,6.07-2.9a4.172,4.172,0,0,1,2.2.632c1.8,1.081,4.111,2.827,3.35,5.491-.522,1.825-3.885,8.3-5.692,11.777-.441.849-.79,1.52-.96,1.861-.823,1.646-1.673,7.545-1.681,7.6a.316.316,0,0,1-.217.256l-2.353.749-.032.008A19.69,19.69,0,0,1,150.742,233.163Zm8.941-28.109c-1.426,0-3.127.828-5.689,2.768a62.626,62.626,0,0,0-6.595,5.9c-2.521,2.612-3.932,4.646-3.976,5.729a22.037,22.037,0,0,0,1.454,6.316,27.872,27.872,0,0,0,2.551,5.787c.46.637,1.606.974,3.314.974a19.42,19.42,0,0,0,3.41-.346l2.149-.684c.158-1.068.922-6.021,1.713-7.6.173-.346.522-1.018.965-1.87,1.669-3.212,5.141-9.895,5.645-11.659a2.911,2.911,0,0,0-.513-2.655,8.559,8.559,0,0,0-2.555-2.121A3.558,3.558,0,0,0,159.683,205.055Z" transform="translate(-52.662 -75.393)" fill="#4045ab"/>
      <path id="Trazado_912234" data-name="Trazado 912234" d="M156.648,209.917s-2.353,2.246-1.177,3.958,4.172,3.315,5.455,2.888,5.455-4.813,6.2-6.2-3.85-4.706-3.85-4.706a15.932,15.932,0,0,0-6.631,4.064" transform="translate(-57.217 -75.92)" fill="#fff"/>
      <path id="Trazado_912235" data-name="Trazado 912235" d="M163.1,205.353a.316.316,0,0,1,.185.06,24.312,24.312,0,0,1,2.239,1.859c1.539,1.461,2.1,2.525,1.705,3.253a22.316,22.316,0,0,1-2.954,3.534c-.733.749-2.536,2.522-3.428,2.819a1.858,1.858,0,0,1-.586.086,6.018,6.018,0,0,1-2.793-.952,7.883,7.883,0,0,1-2.436-2.142,2.675,2.675,0,0,1,.133-2.956,6.823,6.823,0,0,1,1.081-1.4,16.392,16.392,0,0,1,4.523-3.255,13.491,13.491,0,0,1,2.251-.891A.315.315,0,0,1,163.1,205.353Zm-2.839,10.979a1.234,1.234,0,0,0,.386-.054,13.449,13.449,0,0,0,3.176-2.662,21.512,21.512,0,0,0,2.849-3.391c.14-.259-.071-.687-.272-1a8.676,8.676,0,0,0-1.308-1.492,24.082,24.082,0,0,0-2.054-1.718,14.147,14.147,0,0,0-2.008.813,15.752,15.752,0,0,0-4.335,3.123l-.009.009c-.021.02-2.144,2.081-1.134,3.551A7.372,7.372,0,0,0,160.256,216.332Z" transform="translate(-57.033 -75.735)" fill="#4045ab"/>
      <path id="Trazado_912236" data-name="Trazado 912236" d="M168.5,244.222s-6.193,1.285-7.711-.818-4.557-10.515-4.44-13.436,7.828-10.048,11.683-12.969,6.309-3.855,8.646-2.453,4.206,3.155,3.505,5.608-6.309,12.969-7.244,14.839-1.87,8.412-1.87,8.412Z" transform="translate(-57.66 -78.889)" fill="#fff"/>
      <path id="Trazado_912237" data-name="Trazado 912237" d="M164.5,244.741c-2.117,0-3.515-.45-4.156-1.338a30.492,30.492,0,0,1-2.876-6.494c-.514-1.5-1.7-5.2-1.623-7.14a6.25,6.25,0,0,1,1.391-3.018,33.332,33.332,0,0,1,3.137-3.673,69.186,69.186,0,0,1,7.28-6.517c2.923-2.214,4.9-3.158,6.614-3.158a4.53,4.53,0,0,1,2.385.686c1.961,1.177,4.472,3.076,3.646,5.966-.568,1.99-4.239,9.056-6.211,12.851-.484.932-.866,1.667-1.054,2.042-.9,1.8-1.83,8.251-1.839,8.315a.316.316,0,0,1-.217.256l-2.57.818-.032.008A21.478,21.478,0,0,1,164.5,244.741Zm9.767-30.706c-1.565,0-3.429.906-6.233,3.03a68.5,68.5,0,0,0-7.207,6.452c-2.759,2.858-4.3,5.088-4.351,6.278a24.1,24.1,0,0,0,1.59,6.91,30.467,30.467,0,0,0,2.79,6.329c.508.7,1.768,1.076,3.644,1.076a21.24,21.24,0,0,0,3.732-.379l2.366-.753c.167-1.127,1.005-6.581,1.871-8.312.189-.379.573-1.117,1.058-2.051,1.962-3.776,5.614-10.8,6.164-12.734a3.206,3.206,0,0,0-.565-2.925,9.386,9.386,0,0,0-2.8-2.326A3.916,3.916,0,0,0,174.267,214.035Z" transform="translate(-57.475 -78.705)" fill="#4045ab"/>
      <path id="Trazado_912238" data-name="Trazado 912238" d="M170.935,219.359s-2.57,2.453-1.285,4.323,4.557,3.622,5.958,3.155,5.958-5.258,6.777-6.777-4.206-5.141-4.206-5.141a17.4,17.4,0,0,0-7.244,4.44" transform="translate(-62.435 -79.263)" fill="#fff"/>
      <path id="Trazado_912239" data-name="Trazado 912239" d="M178,214.419a.316.316,0,0,1,.185.06,26.52,26.52,0,0,1,2.442,2.028c1.67,1.586,2.278,2.737,1.857,3.519a24.372,24.372,0,0,1-3.222,3.854c-.8.816-2.764,2.75-3.733,3.073a2,2,0,0,1-.631.093,6.544,6.544,0,0,1-3.036-1.036,8.579,8.579,0,0,1-2.652-2.332,2.9,2.9,0,0,1,.146-3.2,7.421,7.421,0,0,1,1.176-1.528,17.877,17.877,0,0,1,4.933-3.551,14.7,14.7,0,0,1,2.453-.971A.315.315,0,0,1,178,214.419Zm-3.1,11.994a1.377,1.377,0,0,0,.431-.06,14.7,14.7,0,0,0,3.482-2.916,23.542,23.542,0,0,0,3.117-3.711c.119-.221.189-.933-1.732-2.758a26.338,26.338,0,0,0-2.258-1.887,15.423,15.423,0,0,0-2.211.894,17.234,17.234,0,0,0-4.745,3.419l-.009.009c-.024.023-2.36,2.291-1.243,3.916C170.779,224.851,173.387,226.413,174.893,226.413Z" transform="translate(-62.251 -79.079)" fill="#4045ab"/>
      <path id="Trazado_912240" data-name="Trazado 912240" d="M186.677,255.006s-1.632-4.9-1.632-5.342,2.968-7.568,2.671-10.684-2.82-6.677-4.452-5.787a24.149,24.149,0,0,0-7.271,7.42c-2.671,4.006-3.561,7.122-2.671,8.606s6.232,7.123,8.459,8.013,6.806-.656,6.806-.656Z" transform="translate(-63.799 -85.952)" fill="#fff"/>
      <path id="Trazado_912241" data-name="Trazado 912241" d="M183.365,257.639h0a5.138,5.138,0,0,1-1.885-.3c-1.373-.549-3.619-2.649-4.835-3.852a31.557,31.557,0,0,1-3.777-4.291c-.988-1.648-.012-4.908,2.679-8.944a30.715,30.715,0,0,1,4.068-4.93,16.56,16.56,0,0,1,3.315-2.592,1.441,1.441,0,0,1,.7-.177c.867,0,1.856.751,2.716,2.061a9.625,9.625,0,0,1,1.5,4.15c.229,2.4-1.368,6.948-2.225,9.39-.215.612-.418,1.19-.444,1.331.036.358.834,2.888,1.586,5.149l1.838,1.511a.316.316,0,0,1-.1.543A19.021,19.021,0,0,1,183.365,257.639Zm.262-24.454a.805.805,0,0,0-.4.1,24.1,24.1,0,0,0-7.16,7.318,20.761,20.761,0,0,0-2.632,5.166,4.029,4.029,0,0,0-.031,3.1c.854,1.422,6.157,7.024,8.305,7.882a4.529,4.529,0,0,0,1.651.254h0a17.343,17.343,0,0,0,4.384-.746l-1.456-1.2a.315.315,0,0,1-.1-.144c0-.012-.413-1.241-.817-2.508a15.284,15.284,0,0,1-.831-2.934,7.638,7.638,0,0,1,.48-1.533c.782-2.225,2.408-6.856,2.192-9.121a8.965,8.965,0,0,0-1.4-3.864C185.1,233.866,184.259,233.185,183.628,233.185Z" transform="translate(-63.616 -85.767)" fill="#4045ab"/>
      <path id="Trazado_912242" data-name="Trazado 912242" d="M178.219,242.764a8.263,8.263,0,0,0,3.265,1.187c1.336,0,4.748-3.116,4.6-6.232s-2.077-2.375-2.077-2.375-5.194,3.858-5.787,7.42" transform="translate(-65.728 -86.768)" fill="#fff"/>
      <path id="Trazado_912243" data-name="Trazado 912243" d="M181.3,244.082a8.451,8.451,0,0,1-3.43-1.234.316.316,0,0,1-.146-.321c.257-1.542,1.334-3.3,3.2-5.214a25.056,25.056,0,0,1,2.709-2.408.315.315,0,0,1,.075-.041,1.763,1.763,0,0,1,.591-.1,1.594,1.594,0,0,1,1.215.538,3.523,3.523,0,0,1,.7,2.214,7.142,7.142,0,0,1-2.149,4.87A4.789,4.789,0,0,1,181.3,244.082Zm-2.912-1.663a7.34,7.34,0,0,0,2.912,1.031,4.373,4.373,0,0,0,2.309-1.5,6.364,6.364,0,0,0,1.976-4.4c-.047-.981-.307-2.151-1.285-2.151a1.23,1.23,0,0,0-.329.045C183.5,235.8,179.083,239.245,178.387,242.419Z" transform="translate(-65.544 -86.583)" fill="#4045ab"/>
      <path id="Trazado_912244" data-name="Trazado 912244" d="M291.17,150.93l22.887,49.544,13.733-5.924-23.965-49.275Z" transform="translate(-107.385 -53.578)" fill="#fff"/>
      <path id="Trazado_912245" data-name="Trazado 912245" d="M303.641,144.775a.316.316,0,0,1,.284.178l23.965,49.275a.316.316,0,0,1-.159.428L314,200.58a.316.316,0,0,1-.411-.157L290.7,150.878a.316.316,0,0,1,.158-.421l12.655-5.655A.315.315,0,0,1,303.641,144.775Zm23.536,49.432-23.686-48.7-12.085,5.4,22.624,48.975Z" transform="translate(-107.201 -53.394)" fill="#4045ab"/>
      <path id="Trazado_912246" data-name="Trazado 912246" d="M406.79,51.037l-102.822,60.29L337.962,180.8l68.827-34.342Z" transform="translate(-112.105 -18.823)" fill="#4045ab"/>
      <path id="Trazado_912247" data-name="Trazado 912247" d="M406.605,50.537a.316.316,0,0,1,.316.316v95.418a.316.316,0,0,1-.175.282L337.919,180.9a.316.316,0,0,1-.424-.144L303.5,111.282a.316.316,0,0,1,.124-.411l102.822-60.29A.315.315,0,0,1,406.605,50.537Zm-.316,95.538V51.4L304.2,111.268l33.726,68.921Z" transform="translate(-111.921 -18.638)" fill="#4045ab"/>
      <path id="Trazado_912248" data-name="Trazado 912248" d="M139.3,144.643,108.064,193.11l-11.848-5.924,32.85-48.737Z" transform="translate(-35.485 -51.061)" fill="#fff"/>
      <path id="Trazado_912249" data-name="Trazado 912249" d="M128.882,137.95a.314.314,0,0,1,.163.046l10.232,6.193a.316.316,0,0,1,.1.441L108.144,193.1a.316.316,0,0,1-.406.111l-11.848-5.924a.316.316,0,0,1-.121-.459l32.85-48.737A.315.315,0,0,1,128.882,137.95Zm9.791,6.611-9.7-5.87-32.481,48.19,11.273,5.637Z" transform="translate(-35.301 -50.877)" fill="#4045ab"/>
      <path id="Trazado_912250" data-name="Trazado 912250" d="M.5,40.419V143.55l50.817,31.5,47.295-72.481Z" transform="translate(-0.184 -14.907)" fill="#ffbd45"/>
      <path id="Trazado_912251" data-name="Trazado 912251" d="M.316,39.919a.315.315,0,0,1,.169.049L98.6,102.114a.316.316,0,0,1,.1.439L51.4,175.034a.316.316,0,0,1-.431.1L.149,143.634A.316.316,0,0,1,0,143.366V40.234a.316.316,0,0,1,.316-.316Zm97.673,62.557L.631,40.808V143.19l50.406,31.241Z" transform="translate(0 -14.722)" fill="#4045ab"/>
    </g>
  </g>
</svg>
