<svg xmlns="http://www.w3.org/2000/svg" width="84.718" height="104.889" viewBox="0 0 84.718 104.889">
  <g id="Grupo_1101399" data-name="Grupo 1101399" transform="translate(-705 -2954.36)">
    <g id="Grupo_1101398" data-name="Grupo 1101398">
      <g id="Grupo_1101397" data-name="Grupo 1101397">
        <g id="Grupo_1101396" data-name="Grupo 1101396">
          <g id="inteligencia-emocional" transform="translate(648.499 2945.36)">
            <g id="Grupo_1101124" data-name="Grupo 1101124" transform="translate(56.501 9)">
              <path id="Trazado_911941" data-name="Trazado 911941" d="M141.219,69.58c-1.6-9.424-9.155-11.913-9.155-18.61C134.037,27.131,122.11,9,94.678,9,53.895,9,44.425,60.324,72.884,80.683c1.016,16.206-5.714,27.7-6.537,33.206h46.475c0-9.647-7.765-16.812-1.412-19.593,3.828-1.676,16.31,4.8,19.381.978,2.24-9.588,4.376-7.963,4.376-11.438-4.792-3.65-4.517-4.139.3-5.7l.044-7.484Z" transform="translate(-56.501 -9)" fill="#ffd6bd" fill-rule="evenodd"/>
              <path id="Trazado_911942" data-name="Trazado 911942" d="M275.427,69.58c-1.6-9.424-9.155-11.913-9.155-18.61C268.246,27.131,256.319,9,228.886,9c-.676,0-1.341.016-2,.044,25.835.969,37.057,18.748,35.139,41.926,0,6.7,7.56,9.186,9.155,18.61l-5.7,1.076-.044,7.484c-4.82,1.557-5.094,2.046-.3,5.7,0,3.475-2.137,1.85-4.376,11.438a3.111,3.111,0,0,1-1.672,1.017c2.61.4,4.843.322,5.919-1.017,2.24-9.588,4.376-7.963,4.376-11.438-4.792-3.65-4.517-4.139.3-5.7l.044-7.484Zm-32.643,44.309c0-9.647-7.765-16.812-1.411-19.593a8.129,8.129,0,0,1,4.265-.007l-.018.007c-6.354,2.781,1.412,9.946,1.412,19.593Z" transform="translate(-190.71 -9)" fill="#f9c6aa" fill-rule="evenodd"/>
            </g>
            <g id="Grupo_1101125" data-name="Grupo 1101125" transform="translate(65.716 19.252)">
              <path id="Trazado_911943" data-name="Trazado 911943" d="M130.107,96.589a4.55,4.55,0,0,0,6.443-.564,7.675,7.675,0,0,0,11.494-4.857,10.85,10.85,0,0,0,13.763-15.616,5.457,5.457,0,0,0-5.953-8.131,10.849,10.849,0,0,0-17.291-6.012,7.874,7.874,0,0,0-14.3.983,5.8,5.8,0,0,0-8.195,6.856c-.052,0-.1,0-.156,0a4.11,4.11,0,0,0-3.8,5.685,6.878,6.878,0,0,0-1.089,12.914,5.186,5.186,0,0,0,3.023,8.764c-2.07,3.734-2.511,7.92-2.511,11.755h5.782c0-9.283,9.767-4.686,12.782-11.775Z" transform="translate(-105.489 -57.284)" fill="#fc685b" fill-rule="evenodd"/>
              <path id="Trazado_911944" data-name="Trazado 911944" d="M148.767,73.24a1.5,1.5,0,1,0,2.918.73,12.286,12.286,0,0,0,.281-1.5,12.461,12.461,0,0,0,.094-1.525,12.354,12.354,0,0,0-24.708,0,1.506,1.506,0,0,0,3.012,0,9.342,9.342,0,1,1,18.683,0,9.477,9.477,0,0,1-.07,1.16A9.3,9.3,0,0,1,148.767,73.24Zm-6.828,3.45a1.506,1.506,0,0,0,0,3.012,3.046,3.046,0,0,1,.834,5.974,9.16,9.16,0,0,0-13.622-2.256,1.5,1.5,0,0,0,1.906,2.318,6.169,6.169,0,1,1,3.913,10.94,1.506,1.506,0,0,0,0,3.012,9.186,9.186,0,0,0,8.951-11.219,6.059,6.059,0,0,0-1.982-11.783ZM124.416,94.147a3.045,3.045,0,0,0,3.045,3.045,1.506,1.506,0,0,1,0,3.012,6.057,6.057,0,0,1-6.057-6.057,1.506,1.506,0,0,1,3.012,0Zm-21.5-11.536a1.506,1.506,0,0,0-3.012,0,8.382,8.382,0,0,0,16.764,0,1.506,1.506,0,1,0-3.012,0,5.369,5.369,0,1,1-10.739,0Zm8.821-14.04a1.506,1.506,0,0,0-3.012,0,7.3,7.3,0,0,0,7.3,7.3,1.506,1.506,0,1,0,0-3.012,4.286,4.286,0,0,1-4.286-4.286ZM151.556,77.7a3.947,3.947,0,0,0,3.948-3.948,1.506,1.506,0,1,1,3.012,0,6.96,6.96,0,0,1-6.96,6.96,1.506,1.506,0,1,1,0-3.012Z" transform="translate(-99.9 -58.314)" fill="#f35244" fill-rule="evenodd"/>
            </g>
            <g id="Grupo_1101126" data-name="Grupo 1101126" transform="translate(84.917 43.978)">
              <path id="Trazado_911945" data-name="Trazado 911945" d="M209.708,176.478A9.4,9.4,0,0,1,223,189.769l-14.964,14.964-14.964-14.964a9.4,9.4,0,0,1,13.291-13.291l1.672,1.672Z" transform="translate(-190.331 -173.736)" fill="#ff94d5" fill-rule="evenodd"/>
              <path id="Trazado_911946" data-name="Trazado 911946" d="M244.709,173.837a9.39,9.39,0,0,1,8.019,15.933l-14.964,14.964-1.374-1.374,13.59-13.591a9.385,9.385,0,0,0-5.271-15.932Zm-16.637,0a9.337,9.337,0,0,1,5.272,2.642l3.046,3.046,1.374-1.374-1.672-1.672a9.4,9.4,0,0,0-8.019-2.642Z" transform="translate(-220.059 -173.737)" fill="#ff72c7" fill-rule="evenodd"/>
            </g>
          </g>
        </g>
      </g>
    </g>
  </g>
</svg>
