<svg xmlns="http://www.w3.org/2000/svg" xmlns:xlink="http://www.w3.org/1999/xlink" width="69" height="69.058" viewBox="0 0 69 69.058">
  <defs>
    <clipPath id="clip-path">
      <path id="Rectángulo_403247" data-name="Rectángulo 403247" d="M0,0H69a0,0,0,0,1,0,0V69a0,0,0,0,1,0,0H34A34,34,0,0,1,0,35V0A0,0,0,0,1,0,0Z" transform="translate(365.718 2331)" fill="#ee4f47" stroke="#707070" stroke-width="1"/>
    </clipPath>
  </defs>
  <g id="Grupo_1101402" data-name="Grupo 1101402" transform="translate(-365.718 -2330.942)">
    <g id="Grupo_1101401" data-name="Grupo 1101401">
      <g id="Grupo_1101400" data-name="Grupo 1101400">
        <circle id="Elipse_11528" data-name="Elipse 11528" cx="34.328" cy="34.328" r="34.328" transform="translate(365.955 2330.942)" fill="#4045ab"/>
        <g id="Enmascarar_grupo_1098731" data-name="Enmascarar grupo 1098731" clip-path="url(#clip-path)">
          <path id="confianza" d="M69.7,43.734a1.38,1.38,0,0,0-1.832-.673l-8.827,4.084a5.718,5.718,0,0,0-1.4-1.365q-.056-.04-.116-.075L47.349,39.829l-.253-.146c-2.22-1.284-4.514-2.612-7.551-2.612h-.062a16.282,16.282,0,0,0-7.1,2.15c-3.23,1.578-5.022,2.313-7.32.41a1.646,1.646,0,0,1-.645-1.258c.007-.11.03-.446.562-.778l10.882-6.785c3.745-2.335,7.128-2.955,10.342-1.9a13.434,13.434,0,0,0,11-1l2.519-1.4a1.38,1.38,0,0,0-1.342-2.412l-2.519,1.4a10.6,10.6,0,0,1-8.791.786c-3.984-1.313-8.246-.582-12.667,2.174l-.034.021c-3.537-2.207-6.7-1.933-9.775-1.667-3.2.278-6.516.565-10.842-1.868a1.38,1.38,0,1,0-1.353,2.406c5.069,2.851,8.982,2.512,12.434,2.212,2.5-.217,4.588-.4,6.839.6l-8.151,5.082a3.728,3.728,0,0,0-1.855,2.935A4.387,4.387,0,0,0,23.3,41.758a6.9,6.9,0,0,0,4.517,1.763A13.554,13.554,0,0,0,33.59,41.7a13.939,13.939,0,0,1,5.909-1.87h.045c2.3,0,4.093,1.039,6.17,2.241l10.37,5.987a2.391,2.391,0,0,1,1.007,1.317,2.03,2.03,0,0,1-.21,1.461,2.016,2.016,0,0,1-2.741.734l-1.024-.591h0l-1.532-.885a1.38,1.38,0,0,0-1.38,2.39l1.534.885a2.007,2.007,0,0,1-2.008,3.475L48.7,56.254h0l-1.577-.91a1.38,1.38,0,0,0-1.38,2.39l1.577.91a1.8,1.8,0,0,1-1.8,3.119l-1.908-1.1h0l-.288-.166a1.38,1.38,0,0,0-1.38,2.39l.29.167a1.54,1.54,0,0,1,.877,1.365,1.571,1.571,0,0,1-.764,1.344,2.327,2.327,0,0,1-2.311-.273l-.014-.008-.733-.412L40.367,63.2a4.725,4.725,0,0,0-5.318-6.928l-.009,0a4.72,4.72,0,0,0-5.8-3.35l0-.01a4.715,4.715,0,0,0-5.787-3.341l-.009,0a4.726,4.726,0,0,0-8.664-1.152l-.9,1.567L12.113,48.1a1.38,1.38,0,0,0-.379-.287L2.84,43.23a1.38,1.38,0,0,0-1.265,2.453l8.68,4.475,2.17,2.335-.058.1A4.726,4.726,0,0,0,16.2,59.678a4.737,4.737,0,0,0,2.2,5.314,4.686,4.686,0,0,0,2.35.633,4.793,4.793,0,0,0,2.221-.549,4.717,4.717,0,0,0,4.262,2.716,4.795,4.795,0,0,0,2.41-.653,4.725,4.725,0,0,0,8.26.317l.757.425a5.845,5.845,0,0,0,2.9.838,4.269,4.269,0,0,0,4.3-3.99,4.508,4.508,0,0,0,.55.035A4.608,4.608,0,0,0,47.6,64.6a4.543,4.543,0,0,0,3.365-4.74,4.838,4.838,0,0,0,1-.157,4.753,4.753,0,0,0,3.5-5.122,4.83,4.83,0,0,0,.909-.152A4.736,4.736,0,0,0,59.9,49.788l9.126-4.222a1.38,1.38,0,0,0,.673-1.832ZM14.758,53.974l2.407-4.169a1.969,1.969,0,0,1,3.41,1.969l-2.407,4.169a1.969,1.969,0,1,1-3.41-1.969Zm6.52,8.821a1.965,1.965,0,0,1-2.214-2.882l3.9-6.758a1.969,1.969,0,0,1,3.41,1.969l-3.9,6.758a1.955,1.955,0,0,1-1.2.914Zm6.483,2.167a1.969,1.969,0,0,1-2.214-2.882L28.766,56.5a1.969,1.969,0,1,1,3.41,1.969l-2.407,4.169h0l-.812,1.407a1.954,1.954,0,0,1-1.2.913Zm5.12,1.749a1.971,1.971,0,0,1-.721-2.689l2.407-4.169a1.955,1.955,0,0,1,1.2-.914,2.008,2.008,0,0,1,.519-.069,1.942,1.942,0,0,1,.974.262,1.971,1.971,0,0,1,.721,2.69L35.57,65.99a1.971,1.971,0,0,1-2.69.721ZM20.317,8.556a8.342,8.342,0,0,1,5.8-7.361c2.814-.791,5.7.158,8.111,2.612,2.408-2.455,5.3-3.4,8.111-2.612a8.343,8.343,0,0,1,5.8,7.361c.356,3.318-.98,6.68-3.972,9.994a1.38,1.38,0,0,1-2.049-1.85c2.443-2.705,3.545-5.346,3.276-7.849a5.607,5.607,0,0,0-3.8-5c-2.112-.594-4.4.463-6.27,2.9a1.38,1.38,0,0,1-2.189,0c-1.873-2.437-4.158-3.494-6.27-2.9a5.607,5.607,0,0,0-3.8,5c-.478,4.451,3.482,9.413,11.169,14.021a43.682,43.682,0,0,0,4.723-3.234,1.38,1.38,0,0,1,1.718,2.16,47.791,47.791,0,0,1-5.749,3.87,1.38,1.38,0,0,1-1.385,0c-11.717-6.8-13.657-13.056-13.221-17.112Zm21.154-.615a1.38,1.38,0,0,1,0,1.952l-7.815,7.815a1.38,1.38,0,0,1-.976.4q-.05,0-.1,0a1.38,1.38,0,0,1-1.007-.552l-3.58-4.8a1.38,1.38,0,1,1,2.213-1.65l2.626,3.523L39.52,7.941a1.38,1.38,0,0,1,1.952,0Z" transform="translate(364.89 2330.172)" fill="#ee4f47"/>
        </g>
      </g>
    </g>
  </g>
</svg>
