<svg xmlns="http://www.w3.org/2000/svg" xmlns:xlink="http://www.w3.org/1999/xlink" width="69" height="69.058" viewBox="0 0 69 69.058">
  <defs>
    <clipPath id="clip-path">
      <path id="Rectángulo_403248" data-name="Rectángulo 403248" d="M0,0H69a0,0,0,0,1,0,0V69a0,0,0,0,1,0,0H35A35,35,0,0,1,0,34V0A0,0,0,0,1,0,0Z" transform="translate(631.218 2331)" fill="#ee4f47" stroke="#707070" stroke-width="1"/>
    </clipPath>
  </defs>
  <g id="Grupo_1101405" data-name="Grupo 1101405" transform="translate(-631.218 -2330.942)">
    <g id="Grupo_1101404" data-name="Grupo 1101404">
      <g id="Grupo_1101403" data-name="Grupo 1101403">
        <circle id="Elipse_11586" data-name="Elipse 11586" cx="34.328" cy="34.328" r="34.328" transform="translate(631.455 2330.942)" fill="#4045ab"/>
        <g id="Enmascarar_grupo_1098732" data-name="Enmascarar grupo 1098732" clip-path="url(#clip-path)">
          <g id="pensamiento-positivo_1_" data-name="pensamiento-positivo (1)" transform="translate(631.218 2331)">
            <path id="Trazado_912704" data-name="Trazado 912704" d="M38,62.4a21.665,21.665,0,0,1-13.392,4.578,21.879,21.879,0,1,1,0-43.757q.3,0,.595.008a1.013,1.013,0,0,0,.054-2.025q-.324-.009-.649-.009a23.9,23.9,0,1,0,0,47.809,23.674,23.674,0,0,0,14.634-5A1.013,1.013,0,0,0,38,62.4Z" fill="#ee4f47"/>
            <path id="Trazado_912705" data-name="Trazado 912705" d="M46.539,38.423a1.013,1.013,0,0,0-.73,1.233,21.915,21.915,0,0,1-4.793,19.915,1.013,1.013,0,0,0,1.519,1.341,23.942,23.942,0,0,0,5.237-21.759,1.013,1.013,0,0,0-1.233-.73Z" fill="#ee4f47"/>
            <path id="Trazado_912706" data-name="Trazado 912706" d="M8.215,49.8a2.036,2.036,0,0,0-.209,1.9,17.871,17.871,0,0,0,33.211,0,2.048,2.048,0,0,0-1.908-2.8H9.914a2.051,2.051,0,0,0-1.7.9Zm31.12,1.149a15.8,15.8,0,0,1-4.51,6.253,19.478,19.478,0,0,0-10.213-2.717c-.388,0-.8.013-1.257.039a1.013,1.013,0,0,0,.115,2.023c.419-.024.793-.035,1.142-.035a17.815,17.815,0,0,1,8.428,2,15.845,15.845,0,0,1-16.856,0,15.861,15.861,0,0,1,3.188-1.283,1.013,1.013,0,0,0-.556-1.948A17.392,17.392,0,0,0,14.4,57.2a15.814,15.814,0,0,1-4.511-6.256.028.028,0,0,1,.027-.021h29.4a.024.024,0,0,1,.025.024Z" fill="#ee4f47"/>
            <path id="Trazado_912707" data-name="Trazado 912707" d="M18.416,37.356v-2.01a3.156,3.156,0,1,0-6.312,0v2.01a3.156,3.156,0,0,0,6.312,0Zm-4.286,0v-2.01a1.13,1.13,0,1,1,2.26,0v2.01a1.13,1.13,0,0,1-2.26,0Z" fill="#ee4f47"/>
            <path id="Trazado_912708" data-name="Trazado 912708" d="M37.121,37.356v-2.01a3.156,3.156,0,1,0-6.312,0v2.01a3.156,3.156,0,0,0,6.312,0Zm-4.286,0v-2.01a1.13,1.13,0,1,1,2.26,0v2.01a1.13,1.13,0,0,1-2.26,0Z" fill="#ee4f47"/>
            <path id="Trazado_912709" data-name="Trazado 912709" d="M66.266,5.876A12.779,12.779,0,0,0,50.108,1.2l-3.1,1.444a.684.684,0,0,1-.58,0L43.338,1.2A12.779,12.779,0,0,0,30.122,22.893L42.3,32.3l-1.9,4.724a1.434,1.434,0,0,0,2.179,1.7l4.743-3.469.021-.016L63.323,22.893A12.779,12.779,0,0,0,66.266,5.876Zm-.158,8.736a10.726,10.726,0,0,1-4.023,6.678L46.114,33.624l-3.064,2.24,1.212-3.006a1.747,1.747,0,0,0-.551-2.029l-6.943-5.362h1.646l1.167.655a6.775,6.775,0,0,0,3.307.864H50a5.427,5.427,0,0,0,5.346-4.637l.6-4.168a5.4,5.4,0,0,0-5.346-6.165H48.56l-.315-2.624a3.618,3.618,0,0,0-7.21.431v3.053L39.462,14.15a.041.041,0,0,1-.026.009H36.464a1.013,1.013,0,1,0,0,2.026h2.972a2.073,2.073,0,0,0,1.3-.461l1.705-1.381a1.661,1.661,0,0,0,.618-1.3V9.822a1.592,1.592,0,0,1,3.172-.19l.376,3.138a1.444,1.444,0,0,0,1.433,1.271h2.55a3.374,3.374,0,0,1,3.341,3.852l-.6,4.168A3.391,3.391,0,0,1,50,24.959H42.889a4.744,4.744,0,0,1-2.316-.605l-1.4-.784a1.013,1.013,0,0,0-.5-.13H34.146l-2.785-2.151a10.722,10.722,0,0,1-3.625-5.1h4.411a1.013,1.013,0,0,0,0-2.026H27.271A10.762,10.762,0,0,1,42.481,3.035l3.1,1.445a2.706,2.706,0,0,0,2.293,0l3.1-1.445A10.753,10.753,0,0,1,66.108,14.611Z" fill="#ee4f47"/>
          </g>
        </g>
      </g>
    </g>
  </g>
</svg>
