<svg xmlns="http://www.w3.org/2000/svg" xmlns:xlink="http://www.w3.org/1999/xlink" width="69" height="69.058" viewBox="0 0 69 69.058">
  <defs>
    <clipPath id="clip-path">
      <path id="Rectángulo_403251" data-name="Rectángulo 403251" d="M0,0H69a0,0,0,0,1,0,0V69a0,0,0,0,1,0,0H34A34,34,0,0,1,0,35V0A0,0,0,0,1,0,0Z" transform="translate(1166.218 2607)" fill="#ee4f47" stroke="#707070" stroke-width="1"/>
    </clipPath>
  </defs>
  <g id="Grupo_1101421" data-name="Grupo 1101421" transform="translate(-1166.218 -2606.942)">
    <g id="Grupo_1101420" data-name="Grupo 1101420">
      <g id="Grupo_1101419" data-name="Grupo 1101419">
        <circle id="Elipse_11589" data-name="Elipse 11589" cx="34.328" cy="34.328" r="34.328" transform="translate(1166.455 2606.942)" fill="#4045ab"/>
        <g id="Enmascarar_grupo_1098738" data-name="Enmascarar grupo 1098738" clip-path="url(#clip-path)">
          <path id="cortesia" d="M51.131,54.353,40.583,50.109l-.035-.013a1.031,1.031,0,0,1-.7-1V47.9a9.214,9.214,0,0,0,3.293-4.368h.135a3.51,3.51,0,0,0,3.175-5.008V32.477a1.166,1.166,0,0,0-.007-.119,6.36,6.36,0,0,0-2.175-4.531,5.023,5.023,0,0,0-1.667-.848,2.856,2.856,0,0,0,.447-1.271,1.668,1.668,0,0,0-1.659-1.852H31.32a4.626,4.626,0,0,0-3.906,2.051h-.109a4.751,4.751,0,0,0-4.745,4.745V38.52a3.51,3.51,0,0,0,3.175,5.008h.131a9.208,9.208,0,0,0,3.3,4.369V49.09a1.03,1.03,0,0,1-.7,1l-.035.013-10.6,4.267c-1.233.5-2.922,1.177-2.922,3.8v8.627A2.2,2.2,0,0,0,17.1,69H51.907a2.2,2.2,0,0,0,2.2-2.2V58.178c0-2.627-1.651-3.291-2.977-3.825Zm-7.5-13.029c.027-.287.043-.578.043-.872V38.721a1.355,1.355,0,0,1-.043,2.6ZM27.3,28.064h.714a1.08,1.08,0,0,0,.934-.539l.128-.221a2.5,2.5,0,0,1,2.24-1.291h9.3a4.362,4.362,0,0,1-1.612.838,1.077,1.077,0,0,0,.476,2.093,4.561,4.561,0,0,1,3.464.581A4.3,4.3,0,0,1,44.3,32.537v4.121a3.519,3.519,0,0,0-.623-.128V34.54a1.493,1.493,0,0,0-2.061-1.384c-4.859,1.98-7.375,1.737-11.22-1.082h0a2.388,2.388,0,0,0-2.2-.342c-1.4.469-2.495,3.377-2.783,4.793a3.491,3.491,0,0,0-.7.136v-6a2.591,2.591,0,0,1,2.589-2.59ZM24.375,40.017a1.359,1.359,0,0,1,.956-1.3v1.731q0,.441.043.871A1.356,1.356,0,0,1,24.375,40.017Zm3.341,2.22c-.005-.028-.013-.055-.02-.081a7.027,7.027,0,0,1-.21-1.7V37.586h0V37.1a8.677,8.677,0,0,1,1.445-3.348.232.232,0,0,1,.189.054c4.185,3.069,7.413,3.541,12.4,1.693v4.949a7.007,7.007,0,0,1-.209,1.7c-.008.028-.015.055-.022.084a7.042,7.042,0,0,1-3.058,4.155c-.027.016-.054.032-.08.051a7,7,0,0,1-7.281.008,1.025,1.025,0,0,0-.121-.077,7.04,7.04,0,0,1-3.032-4.138Zm1.5,9.876a3.189,3.189,0,0,0,2.1-3.023v-.042a9.17,9.17,0,0,0,6.38,0v.042a3.191,3.191,0,0,0,2.1,3.023l.412.166a8.068,8.068,0,0,1-11.407,0ZM51.952,66.806a.045.045,0,0,1-.046.042h-6.48v-3.8a1.077,1.077,0,1,0-2.154,0v3.8H25.735v-3.8a1.077,1.077,0,0,0-2.154,0v3.8H17.1a.043.043,0,0,1-.042-.042V58.179c0-1.078.257-1.275,1.571-1.8l8.038-3.236a10.228,10.228,0,0,0,15.677,0l7.984,3.213c1.379.555,1.625.741,1.625,1.828v8.627ZM66.932,9.03a12.175,12.175,0,1,0-20.7,11.419v4.665A1.478,1.478,0,0,0,47.7,26.59a1.479,1.479,0,0,0,.736-.2l4.045-2.333A12.173,12.173,0,0,0,66.932,9.03Zm-3.08,8.163a10.028,10.028,0,0,1-11.108,4.713,1.452,1.452,0,0,0-1.1.152l-3.255,1.877V20.18a1.468,1.468,0,0,0-.419-1.03,10.02,10.02,0,1,1,15.885-1.957Zm-43.288,9.2a1.464,1.464,0,0,0,1.473,0,1.46,1.46,0,0,0,.739-1.278V20.445a12.174,12.174,0,1,0-6.255,3.612Zm-9.324-4.53a10.026,10.026,0,1,1,9.794-2.712l-.026.028a1.473,1.473,0,0,0-.389,1v3.758L17.37,22.061a1.461,1.461,0,0,0-.741-.2,1.417,1.417,0,0,0-.36.046,10.057,10.057,0,0,1-5.028-.043ZM55.175,4.113a8.063,8.063,0,1,0,8.061,8.065,8.072,8.072,0,0,0-8.061-8.065Zm0,13.971a5.908,5.908,0,1,1,5.906-5.906A5.913,5.913,0,0,1,55.175,18.084ZM58.6,14.951a4.412,4.412,0,0,1-6.852,0,1.077,1.077,0,1,1,1.671-1.359,2.257,2.257,0,0,0,3.507,0A1.078,1.078,0,0,1,58.6,14.951Zm-6.483-4.709V9.4a1.077,1.077,0,1,1,2.154,0v.844a1.077,1.077,0,1,1-2.154,0Zm3.958,0V9.4a1.077,1.077,0,1,1,2.154,0v.844a1.077,1.077,0,1,1-2.154,0ZM21.9,9.717a4.3,4.3,0,0,0-7.332-3.035l-.732.729-.73-.728a4.3,4.3,0,0,0-6.076,0,4.306,4.306,0,0,0,0,6.078l5.72,5.72a1.541,1.541,0,0,0,2.177,0l5.718-5.718A4.268,4.268,0,0,0,21.9,9.717Zm-2.778,1.52-5.285,5.285L8.549,11.237a2.152,2.152,0,0,1,0-3.03h0a2.144,2.144,0,0,1,3.031,0L12.736,9.36a1.534,1.534,0,0,0,2.183.009l1.166-1.163a2.144,2.144,0,0,1,3.032,3.031Z" transform="translate(1166.216 2606.998)" fill="#ee4f47"/>
        </g>
      </g>
    </g>
  </g>
</svg>
