<svg xmlns="http://www.w3.org/2000/svg" xmlns:xlink="http://www.w3.org/1999/xlink" width="77.229" height="77.313" viewBox="0 0 77.229 77.313">
  <defs>
    <clipPath id="clip-path">
      <path id="Rectángulo_403184" data-name="Rectángulo 403184" d="M0,0H77a0,0,0,0,1,0,0V77a0,0,0,0,1,0,0H38A38,38,0,0,1,0,39V0A0,0,0,0,1,0,0Z" transform="translate(866 5518)" fill="#4045ab" stroke="#4045ab" stroke-width="1"/>
    </clipPath>
    <clipPath id="clip-path-2">
      <path id="path2223" d="M0-77H77V0H0Z" fill="#4045ab"/>
    </clipPath>
  </defs>
  <g id="Grupo_1101413" data-name="Grupo 1101413" transform="translate(-866 -5517.687)">
    <g id="Grupo_1101412" data-name="Grupo 1101412">
      <g id="Grupo_1101411" data-name="Grupo 1101411">
        <ellipse id="Elipse_11568" data-name="Elipse 11568" cx="38.614" cy="38.614" rx="38.614" ry="38.614" transform="translate(866 5517.687)" fill="#ffbd45"/>
        <g id="Enmascarar_grupo_1098730" data-name="Enmascarar grupo 1098730" clip-path="url(#clip-path)">
          <g id="g2217" transform="translate(866 5595)">
            <g id="g2219">
              <g id="g2221" clip-path="url(#clip-path-2)">
                <g id="g2227" transform="translate(41.132 -66.886)">
                  <path id="path2229" d="M0,0A28.546,28.546,0,0,1,25.875,28.386" fill="none" stroke="#4045ab" stroke-linecap="round" stroke-linejoin="round" stroke-miterlimit="10" stroke-width="2.256"/>
                </g>
                <g id="g2231" transform="translate(9.993 -38.5)">
                  <path id="path2233" d="M0,0A28.546,28.546,0,0,1,25.875-28.386" fill="none" stroke="#4045ab" stroke-linecap="round" stroke-linejoin="round" stroke-miterlimit="10" stroke-width="2.256"/>
                </g>
                <g id="g2235" transform="translate(23.577 -64.347)">
                  <path id="path2237" d="M0,0-3.766-6.523" fill="none" stroke="#4045ab" stroke-linecap="round" stroke-linejoin="round" stroke-miterlimit="10" stroke-width="2.256"/>
                </g>
                <g id="g2239" transform="translate(53.423 -64.348)">
                  <path id="path2241" d="M0,0,3.766-6.523" fill="none" stroke="#4045ab" stroke-linecap="round" stroke-linejoin="round" stroke-miterlimit="10" stroke-width="2.256"/>
                </g>
                <g id="g2243" transform="translate(39.441 -16.287)">
                  <path id="path2245" d="M0,0,1.727,3.491a1.054,1.054,0,0,0,.795.576l3.854.557a1.055,1.055,0,0,1,.586,1.8L4.176,9.143a1.055,1.055,0,0,0-.3.934l.662,3.838a1.055,1.055,0,0,1-1.529,1.113L-.443,13.219a1.055,1.055,0,0,0-.982,0L-4.87,15.035A1.055,1.055,0,0,1-6.4,13.924l.655-3.839a1.055,1.055,0,0,0-.3-.933L-8.842,6.436a1.055,1.055,0,0,1,.583-1.8l3.853-.563A1.055,1.055,0,0,0-3.612,3.5L-1.892,0A1.055,1.055,0,0,1,0,0Z" fill="none" stroke="#4045ab" stroke-linecap="round" stroke-linejoin="round" stroke-miterlimit="10" stroke-width="2.256"/>
                </g>
                <g id="g2247" transform="translate(58.208 -28.208)">
                  <path id="path2249" d="M0,0,3.886.25a1.055,1.055,0,0,0,.9-.4L7.192-3.21a1.055,1.055,0,0,1,1.851.392L10.006.955a1.055,1.055,0,0,0,.658.729L14.318,3.03a1.055,1.055,0,0,1,.2,1.881L11.226,6.993a1.055,1.055,0,0,0-.49.851l-.151,3.891a1.055,1.055,0,0,1-1.728.771l-3-2.487a1.055,1.055,0,0,0-.961-.2L1.153,10.876a1.055,1.055,0,0,1-1.267-1.4L1.324,5.852a1.055,1.055,0,0,0-.1-.976L-.944,1.639A1.055,1.055,0,0,1,0,0Z" fill="none" stroke="#4045ab" stroke-linecap="round" stroke-linejoin="round" stroke-miterlimit="10" stroke-width="2.256"/>
                </g>
                <g id="g2251" transform="translate(19.733 -26.579)">
                  <path id="path2253" d="M0,0-2.16,3.241a1.055,1.055,0,0,0-.1.976L-.816,7.833A1.055,1.055,0,0,1-2.081,9.24L-5.83,8.188a1.055,1.055,0,0,0-.96.2l-2.993,2.492a1.055,1.055,0,0,1-1.729-.768l-.158-3.891a1.055,1.055,0,0,0-.492-.85L-15.456,3.3a1.055,1.055,0,0,1,.2-1.882L-11.608.066a1.055,1.055,0,0,0,.656-.73L-10-4.44a1.055,1.055,0,0,1,1.85-.395L-5.73-1.779a1.055,1.055,0,0,0,.9.4l3.886-.257A1.055,1.055,0,0,1,0,0Z" fill="none" stroke="#4045ab" stroke-linecap="round" stroke-linejoin="round" stroke-miterlimit="10" stroke-width="2.256"/>
                </g>
                <g id="g2255" transform="translate(55.711 -38.5)">
                  <path id="path2257" d="M0,0H19.247a.9.9,0,0,0,.9-.925A37.374,37.374,0,0,0-17.211-37.372,37.374,37.374,0,0,0-54.572-.925a.9.9,0,0,0,.9.925H-34.4" fill="none" stroke="#4045ab" stroke-linecap="round" stroke-linejoin="round" stroke-miterlimit="10" stroke-width="2.256"/>
                </g>
                <g id="g2259" transform="translate(51.528 -27.252)">
                  <path id="path2261" d="M0,0A17.225,17.225,0,0,0,2.51-18.659a1.5,1.5,0,0,1-.095-1.033L4.3-26.738a1.5,1.5,0,0,0-1.841-1.841l-7.046,1.887a1.494,1.494,0,0,1-1.03-.093,17.217,17.217,0,0,0-19.746,3.53,17.272,17.272,0,0,0,.287,24.3A17.216,17.216,0,0,0-4.021,3.423" fill="none" stroke="#4045ab" stroke-linecap="round" stroke-linejoin="round" stroke-miterlimit="10" stroke-width="2.256"/>
                </g>
                <g id="g2263" transform="translate(50.365 -38.5)">
                  <path id="path2265" d="M0,0A11.865,11.865,0,0,1-11.865,11.865,11.865,11.865,0,0,1-23.73,0,11.865,11.865,0,0,1-11.865-11.865,11.865,11.865,0,0,1,0,0Z" fill="none" stroke="#4045ab" stroke-linecap="round" stroke-linejoin="round" stroke-miterlimit="10" stroke-width="2.256"/>
                </g>
                <g id="g2267" transform="translate(35.848 -33.632)">
                  <path id="path2269" d="M0,0A4.511,4.511,0,0,0,5.3,0" fill="none" stroke="#4045ab" stroke-linecap="round" stroke-linejoin="round" stroke-miterlimit="10" stroke-width="2.256"/>
                </g>
                <g id="g2271" transform="translate(34.37 -42.562)">
                  <path id="path2273" d="M0,0V2.132" fill="none" stroke="#4045ab" stroke-linecap="round" stroke-linejoin="round" stroke-miterlimit="10" stroke-width="2.256"/>
                </g>
                <g id="g2275" transform="translate(42.63 -42.562)">
                  <path id="path2277" d="M0,0V2.132" fill="none" stroke="#4045ab" stroke-linecap="round" stroke-linejoin="round" stroke-miterlimit="10" stroke-width="2.256"/>
                </g>
              </g>
            </g>
          </g>
        </g>
      </g>
    </g>
  </g>
</svg>
