<svg xmlns="http://www.w3.org/2000/svg" xmlns:xlink="http://www.w3.org/1999/xlink" width="69" height="69.058" viewBox="0 0 69 69.058">
  <defs>
    <clipPath id="clip-path">
      <path id="Rectángulo_403252" data-name="Rectángulo 403252" d="M0,0H69a0,0,0,0,1,0,0V69a0,0,0,0,1,0,0H34A34,34,0,0,1,0,35V0A0,0,0,0,1,0,0Z" transform="translate(631.218 2607)" fill="#ee4f47" stroke="#ee4f47" stroke-width="1"/>
    </clipPath>
  </defs>
  <g id="Grupo_1101417" data-name="Grupo 1101417" transform="translate(-631.218 -2606.942)">
    <g id="Grupo_1101416" data-name="Grupo 1101416">
      <g id="Grupo_1101415" data-name="Grupo 1101415">
        <circle id="Elipse_11590" data-name="Elipse 11590" cx="34.328" cy="34.328" r="34.328" transform="translate(631.455 2606.942)" fill="#4045ab"/>
        <g id="Enmascarar_grupo_1098736" data-name="Enmascarar grupo 1098736" clip-path="url(#clip-path)">
          <g id="escucha-activa" transform="translate(631.009 2607)">
            <g id="Grupo_1101369" data-name="Grupo 1101369">
              <path id="Trazado_912734" data-name="Trazado 912734" d="M13.2,27.008v8.456a8.814,8.814,0,0,0,7.508,8.663V49.2h9.214V44.128a8.814,8.814,0,0,0,7.508-8.663v-8.58a5.51,5.51,0,0,0-5.51-5.51h-14A6.4,6.4,0,0,1,13.2,27.008Z" fill="none" stroke="#ee4f47" stroke-linecap="round" stroke-linejoin="round" stroke-miterlimit="10" stroke-width="2.021"/>
              <path id="Trazado_912735" data-name="Trazado 912735" d="M13.2,32.481H9.778a1.513,1.513,0,0,1-1.513-1.513V28.521a1.513,1.513,0,0,1,1.513-1.513H13.2Z" fill="none" stroke="#ee4f47" stroke-linecap="round" stroke-linejoin="round" stroke-miterlimit="10" stroke-width="2.021"/>
              <path id="Trazado_912736" data-name="Trazado 912736" d="M37.43,32.481h3.421a1.513,1.513,0,0,0,1.513-1.513V28.521a1.513,1.513,0,0,0-1.513-1.513H37.43Z" fill="none" stroke="#ee4f47" stroke-linecap="round" stroke-linejoin="round" stroke-miterlimit="10" stroke-width="2.021"/>
              <line id="Línea_659" data-name="Línea 659" y1="9.575" transform="translate(11.924 58.414)" fill="none" stroke="#ee4f47" stroke-linecap="round" stroke-linejoin="round" stroke-miterlimit="10" stroke-width="2.021"/>
              <line id="Línea_660" data-name="Línea 660" y2="1.376" transform="translate(25.315 31.666)" fill="none" stroke="#ee4f47" stroke-linecap="round" stroke-linejoin="round" stroke-miterlimit="10" stroke-width="2.021"/>
              <path id="Trazado_912737" data-name="Trazado 912737" d="M22.377,36.894a12.759,12.759,0,0,0,5.818,0" fill="none" stroke="#ee4f47" stroke-linecap="round" stroke-linejoin="round" stroke-miterlimit="10" stroke-width="2.021"/>
            </g>
            <path id="Trazado_912738" data-name="Trazado 912738" d="M15.985,49.2H10.116a8.244,8.244,0,0,0-8.244,8.244V65.47a2.519,2.519,0,0,0,2.519,2.519h31.8a2.519,2.519,0,0,0,2.519-2.519v-4.7L54.43,58.4a5.847,5.847,0,0,0,4.292-8.524L48.418,37.16l-4.453-5.495-1.8-6.583a2.383,2.383,0,0,0-2.721-1.717,2.487,2.487,0,0,0-2.019,2.469v6.75a4.565,4.565,0,0,0,.836,2.633l3.688,5.654,5.029,8.33H20.708" fill="none" stroke="#ee4f47" stroke-linecap="round" stroke-linejoin="round" stroke-miterlimit="10" stroke-width="2.021"/>
            <line id="Línea_661" data-name="Línea 661" x1="2.283" y1="3.436" transform="translate(46.817 48.947)" fill="none" stroke="#ee4f47" stroke-linecap="round" stroke-linejoin="round" stroke-miterlimit="10" stroke-width="2.021"/>
            <path id="Trazado_912739" data-name="Trazado 912739" d="M48.418,37.16l-6.465,3.71-3.688-5.654a4.565,4.565,0,0,1-.836-2.633V25.77a2.441,2.441,0,0,1,2.442-2.442,2.38,2.38,0,0,1,2.3,1.754l1.8,6.583Z" fill="none" stroke="#ee4f47" stroke-linecap="round" stroke-linejoin="round" stroke-miterlimit="10" stroke-width="2.021"/>
            <line id="Línea_662" data-name="Línea 662" y1="2.945" transform="translate(38.705 57.826)" fill="none" stroke="#ee4f47" stroke-linecap="round" stroke-linejoin="round" stroke-miterlimit="10" stroke-width="2.021"/>
            <g id="Grupo_1101370" data-name="Grupo 1101370">
              <path id="Trazado_912740" data-name="Trazado 912740" d="M59.509,12.441a18.084,18.084,0,0,0,0,25.546" fill="none" stroke="#ee4f47" stroke-linecap="round" stroke-linejoin="round" stroke-miterlimit="10" stroke-width="2.021"/>
              <path id="Trazado_912741" data-name="Trazado 912741" d="M59.828,27.558a12.6,12.6,0,0,0,3.49,6.619" fill="none" stroke="#ee4f47" stroke-linecap="round" stroke-linejoin="round" stroke-miterlimit="10" stroke-width="2.021"/>
              <path id="Trazado_912742" data-name="Trazado 912742" d="M63.318,16.25a12.605,12.605,0,0,0-3.483,6.584" fill="none" stroke="#ee4f47" stroke-linecap="round" stroke-linejoin="round" stroke-miterlimit="10" stroke-width="2.021"/>
              <path id="Trazado_912743" data-name="Trazado 912743" d="M67.128,20.06a7.289,7.289,0,0,0,0,10.308" fill="none" stroke="#ee4f47" stroke-linecap="round" stroke-linejoin="round" stroke-miterlimit="10" stroke-width="2.021"/>
            </g>
            <path id="Trazado_912744" data-name="Trazado 912744" d="M36.761,11.328a7.327,7.327,0,0,0-3.086-.677H27.144A17.349,17.349,0,0,1,18.3,8.227a1.7,1.7,0,0,0-2.539,1.8l.761,3.8H13.334A3.569,3.569,0,0,0,9.7,17.594v9.415" fill="none" stroke="#ee4f47" stroke-linecap="round" stroke-linejoin="round" stroke-miterlimit="10" stroke-width="2.021"/>
            <line id="Línea_663" data-name="Línea 663" y1="4.071" transform="translate(40.924 19.502)" fill="none" stroke="#ee4f47" stroke-linecap="round" stroke-linejoin="round" stroke-miterlimit="10" stroke-width="2.021"/>
            <g id="Grupo_1101371" data-name="Grupo 1101371">
              <path id="Trazado_912745" data-name="Trazado 912745" d="M47.991,7.336a6.325,6.325,0,1,0-11.118,4.126A5.428,5.428,0,0,1,38.228,15v.022H45.1V15a5.425,5.425,0,0,1,1.354-3.536A6.3,6.3,0,0,0,47.991,7.336Z" fill="none" stroke="#ee4f47" stroke-linecap="round" stroke-linejoin="round" stroke-miterlimit="10" stroke-width="2.021"/>
              <path id="Trazado_912746" data-name="Trazado 912746" d="M40.01,19.5h3.311A1.782,1.782,0,0,0,45.1,17.72v-2.7H38.228v2.7A1.782,1.782,0,0,0,40.01,19.5Z" fill="none" stroke="#ee4f47" stroke-linecap="round" stroke-linejoin="round" stroke-miterlimit="10" stroke-width="2.021"/>
              <line id="Línea_664" data-name="Línea 664" x1="2.035" y2="2.035" transform="translate(40.648 6.346)" fill="none" stroke="#ee4f47" stroke-linecap="round" stroke-linejoin="round" stroke-miterlimit="10" stroke-width="2.021"/>
            </g>
          </g>
        </g>
      </g>
    </g>
  </g>
</svg>
