<svg xmlns="http://www.w3.org/2000/svg" xmlns:xlink="http://www.w3.org/1999/xlink" width="69" height="69.058" viewBox="0 0 69 69.058">
  <defs>
    <clipPath id="clip-path">
      <path id="Rectángulo_403250" data-name="Rectángulo 403250" d="M0,0H69a0,0,0,0,1,0,0V69a0,0,0,0,1,0,0H35A35,35,0,0,1,0,34V0A0,0,0,0,1,0,0Z" transform="translate(1166.218 2331)" fill="#ee4f47" stroke="#707070" stroke-width="1"/>
    </clipPath>
  </defs>
  <g id="Grupo_1101411" data-name="Grupo 1101411" transform="translate(-1166.218 -2330.942)">
    <g id="Grupo_1101410" data-name="Grupo 1101410">
      <g id="Grupo_1101409" data-name="Grupo 1101409">
        <circle id="Elipse_11588" data-name="Elipse 11588" cx="34.328" cy="34.328" r="34.328" transform="translate(1166.455 2330.942)" fill="#4045ab"/>
        <g id="Enmascarar_grupo_1098734" data-name="Enmascarar grupo 1098734" clip-path="url(#clip-path)">
          <g id="seller" transform="translate(1163.918 2328.7)">
            <path id="Trazado_912726" data-name="Trazado 912726" d="M60.95,23A10.35,10.35,0,1,0,50.6,12.65,10.35,10.35,0,0,0,60.95,23Zm0-18.4a8.05,8.05,0,1,1-8.05,8.05A8.05,8.05,0,0,1,60.95,4.6Z" fill="#ee4f47"/>
            <path id="Trazado_912727" data-name="Trazado 912727" d="M59.8,16.1a1.15,1.15,0,0,0,.813-.337l5.75-5.75L64.737,8.387,59.8,13.324l-2.637-2.637-1.626,1.626,3.45,3.45A1.15,1.15,0,0,0,59.8,16.1Z" fill="#ee4f47"/>
            <path id="Trazado_912728" data-name="Trazado 912728" d="M70.15,64.4H69V47.15A1.15,1.15,0,0,0,67.85,46H54.05V43.976c.725-1.254,4.773-7.544,7.521-11.776H65.55a5.75,5.75,0,0,0,5.75-5.75,1.15,1.15,0,0,0-1.15-1.15H58.65a5.737,5.737,0,0,0-5.7,5.278L49.2,35.167a9.176,9.176,0,0,0-4-1.76l-3.427-1.15a1.115,1.115,0,0,0-.724.012l-.368-2.219a8.076,8.076,0,0,0,4.082-5.9H46a2.307,2.307,0,0,0,2.3-2.3V20.7a2.3,2.3,0,0,0-1.863-2.254l1.53-1.53A1.188,1.188,0,0,0,48.3,16.1V14.95A8.059,8.059,0,0,0,40.25,6.9h-6.9a8.059,8.059,0,0,0-8.05,8.05V16.1a1.188,1.188,0,0,0,.334.816l1.529,1.53A2.3,2.3,0,0,0,25.3,20.7v1.15a2.307,2.307,0,0,0,2.3,2.3h1.242a8.076,8.076,0,0,0,4.083,5.9l-.368,2.219a1.115,1.115,0,0,0-.725-.012l-3.427,1.15a9.176,9.176,0,0,0-4,1.759l-3.749-4.588a5.737,5.737,0,0,0-5.7-5.279H3.45A1.15,1.15,0,0,0,2.3,26.45,5.75,5.75,0,0,0,8.05,32.2h3.967L19.55,44.034V46H5.75A1.15,1.15,0,0,0,4.6,47.15V64.4H3.45A1.15,1.15,0,0,0,2.3,65.55v4.6A1.15,1.15,0,0,0,3.45,71.3h66.7a1.15,1.15,0,0,0,1.15-1.15v-4.6A1.15,1.15,0,0,0,70.15,64.4ZM57.5,48.3h2.3v2.3H57.5Zm-2.3,0v3.45a1.15,1.15,0,0,0,1.15,1.15h4.6a1.15,1.15,0,0,0,1.15-1.15V48.3h4.6V64.4H50.6V48.3Zm3.45-20.7H68.8a3.466,3.466,0,0,1-3.255,2.3H55.4a3.466,3.466,0,0,1,3.255-2.3ZM46,21.85H44.85V20.7H46Zm-17.25,0H27.6V20.7h1.15Zm0-5.75v.678l-1.15-1.15V14.95A5.75,5.75,0,0,1,33.35,9.2h6.9A5.75,5.75,0,0,1,46,14.95v.678l-1.15,1.15V16.1a1.15,1.15,0,0,0-.874-1.116l-9.2-2.3a1.118,1.118,0,0,0-.793.092l-4.6,2.3A1.124,1.124,0,0,0,28.75,16.1Zm2.3,6.9V16.813l3.588-1.794L42.55,17v6a5.75,5.75,0,0,1-11.5,0Zm7.97,11.109-2.22,2.22-2.22-2.22.541-3.243a7.752,7.752,0,0,0,3.358,0Zm-7.13.552,4.094,4.105a1.159,1.159,0,0,0,1.633,0l4.094-4.105,1.3.437-4.5,6.3H35.086l-4.5-6.3Zm7,13.639,1.277,7.659L36.8,59.328l-3.369-3.369L34.707,48.3ZM35.086,46l.391-2.3h2.645l.391,2.3ZM8.05,29.9A3.466,3.466,0,0,1,4.8,27.6H14.95A3.466,3.466,0,0,1,18.2,29.9Zm6.693,2.3h4.266L29.014,44.424l1.771-1.449-4.934-6.037a7.532,7.532,0,0,1,2.4-1.162l5.037,7.049-2.231,13.34a1.163,1.163,0,0,0,.322,1l4.6,4.6a1.166,1.166,0,0,0,1.633,0l4.6-4.6a1.163,1.163,0,0,0,.322-1l-2.231-13.34,5.037-7.049a7.532,7.532,0,0,1,2.4,1.162l-4.934,6.037,1.771,1.449L54.59,32.2h4.243C51.75,43.114,51.75,43.286,51.75,43.7V46h-2.3a1.15,1.15,0,0,0-1.15,1.15V64.4h-23V47.15A1.15,1.15,0,0,0,24.15,46h-2.3V43.7a1.091,1.091,0,0,0-.184-.621ZM13.8,48.3h2.3v2.3H13.8Zm-6.9,0h4.6v3.45a1.15,1.15,0,0,0,1.15,1.15h4.6a1.15,1.15,0,0,0,1.15-1.15V48.3H23V64.4H6.9ZM69,69H4.6V66.7H69Z" fill="#ee4f47"/>
            <path id="Trazado_912729" data-name="Trazado 912729" d="M5.75,23h13.8A3.45,3.45,0,0,0,23,19.55V5.75A3.45,3.45,0,0,0,19.55,2.3H5.75A3.45,3.45,0,0,0,2.3,5.75v13.8A3.45,3.45,0,0,0,5.75,23ZM4.6,5.75A1.15,1.15,0,0,1,5.75,4.6h13.8A1.15,1.15,0,0,1,20.7,5.75v13.8a1.15,1.15,0,0,1-1.15,1.15H5.75A1.15,1.15,0,0,1,4.6,19.55Z" fill="#ee4f47"/>
            <rect id="Rectángulo_403255" data-name="Rectángulo 403255" width="2.3" height="2.3" transform="translate(6.9 6.9)" fill="#ee4f47"/>
            <rect id="Rectángulo_403256" data-name="Rectángulo 403256" width="6.9" height="2.3" transform="translate(11.5 6.9)" fill="#ee4f47"/>
            <rect id="Rectángulo_403257" data-name="Rectángulo 403257" width="11.5" height="2.3" transform="translate(6.9 11.5)" fill="#ee4f47"/>
            <rect id="Rectángulo_403258" data-name="Rectángulo 403258" width="11.5" height="2.3" transform="translate(6.9 16.1)" fill="#ee4f47"/>
          </g>
        </g>
      </g>
    </g>
  </g>
</svg>
