<svg xmlns="http://www.w3.org/2000/svg" xmlns:xlink="http://www.w3.org/1999/xlink" width="69" height="69.058" viewBox="0 0 69 69.058">
  <defs>
    <clipPath id="clip-path">
      <path id="Rectángulo_403254" data-name="Rectángulo 403254" d="M0,0H69a0,0,0,0,1,0,0V69a0,0,0,0,1,0,0H35A35,35,0,0,1,0,34V0A0,0,0,0,1,0,0Z" transform="translate(365.718 2607)" fill="#ee4f47" stroke="#707070" stroke-width="1"/>
    </clipPath>
  </defs>
  <g id="Grupo_1101414" data-name="Grupo 1101414" transform="translate(-365.718 -2606.942)">
    <g id="Grupo_1101413" data-name="Grupo 1101413">
      <g id="Grupo_1101412" data-name="Grupo 1101412">
        <circle id="Elipse_11592" data-name="Elipse 11592" cx="34.328" cy="34.328" r="34.328" transform="translate(365.955 2606.942)" fill="#4045ab"/>
        <g id="Enmascarar_grupo_1098735" data-name="Enmascarar grupo 1098735" clip-path="url(#clip-path)">
          <g id="informacion" transform="translate(365.718 2607.002)">
            <path id="Trazado_912730" data-name="Trazado 912730" d="M2.632,60.585l32.9,8.116a10.037,10.037,0,0,0,7.129-.883L66.553,54.869a4.618,4.618,0,0,0,2.118-5.785A4.558,4.558,0,0,0,63.1,46.389l-5.966,1.972L59,45.766a4.178,4.178,0,0,0-6.191-5.551L38.541,54.093,28.292,50.3a.68.68,0,0,1-.414-.77l.612-3.115a.651.651,0,0,1,.489-.522L38.017,44.3a4.381,4.381,0,0,0-1.2-8.642h0L20.532,36.69a10.037,10.037,0,0,0-4.615,1.45L8.428,42.71a7.7,7.7,0,0,1-4.01,1.13H3.45A3.474,3.474,0,0,0,0,47.33v9.863a3.473,3.473,0,0,0,2.632,3.392ZM54.4,41.879a1.84,1.84,0,0,1,2.481.02,1.917,1.917,0,0,1,.259,2.517l-3.718,5.175L42.891,53.07ZM2.3,47.33a1.172,1.172,0,0,1,1.15-1.19h.968a10,10,0,0,0,5.209-1.467L17.112,40.1a7.742,7.742,0,0,1,3.557-1.118L36.96,37.947a2.036,2.036,0,0,1,2.1,1.662,2.084,2.084,0,0,1-1.495,2.432l-9,1.586a2.95,2.95,0,0,0-2.326,2.34l-.612,3.115a2.961,2.961,0,0,0,1.873,3.369l10.642,3.941a2.946,2.946,0,0,0,1.893.043L63.8,48.575a2.218,2.218,0,0,1,2.73,1.344,2.324,2.324,0,0,1-1.063,2.918l-23.9,12.953a7.766,7.766,0,0,1-5.486.678l-32.9-8.117A1.178,1.178,0,0,1,2.3,57.193Z" fill="#ee4f47"/>
            <path id="Trazado_912731" data-name="Trazado 912731" d="M50.6,0a18.4,18.4,0,0,0-4.67,36.2,18.637,18.637,0,0,0,4.67.6,18.118,18.118,0,0,0,7.947-1.809L66.1,36.73a2.348,2.348,0,0,0,2.83-2.816l-1.744-7.569A18.118,18.118,0,0,0,68.994,18.4,18.42,18.42,0,0,0,50.6,0ZM64.855,26.462,66.628,34.5l-7.969-1.84a1.177,1.177,0,0,0-.782.1A15.842,15.842,0,0,1,50.6,34.5a16.1,16.1,0,1,1,16.1-16.1,15.842,15.842,0,0,1-1.747,7.281A1.158,1.158,0,0,0,64.855,26.462Z" fill="#ee4f47"/>
            <path id="Trazado_912732" data-name="Trazado 912732" d="M50.6,13.8a3.45,3.45,0,1,0-3.45-3.45A3.45,3.45,0,0,0,50.6,13.8Zm0-4.6a1.15,1.15,0,1,1-1.15,1.15A1.15,1.15,0,0,1,50.6,9.2Z" fill="#ee4f47"/>
            <path id="Trazado_912733" data-name="Trazado 912733" d="M54.045,24.457V18.4a2.3,2.3,0,0,0-2.3-2.3h-2.3a2.3,2.3,0,0,0-2.3,2.3v6.059A2.3,2.3,0,0,0,46,26.448v2.3a2.3,2.3,0,0,0,2.3,2.3h4.6a2.3,2.3,0,0,0,2.3-2.3v-2.3A2.3,2.3,0,0,0,54.045,24.457Zm-1.15,4.29H48.3v-2.3a1.15,1.15,0,0,0,1.15-1.15V18.4h2.3v6.9a1.15,1.15,0,0,0,1.15,1.15Z" fill="#ee4f47"/>
          </g>
        </g>
      </g>
    </g>
  </g>
</svg>
