<svg xmlns="http://www.w3.org/2000/svg" xmlns:xlink="http://www.w3.org/1999/xlink" width="65" height="65" viewBox="0 0 65 65">
  <defs>
    <clipPath id="clip-path">
      <rect id="Rectángulo_403120" data-name="Rectángulo 403120" width="65" height="65" transform="translate(305.385 3957)" fill="#ee4f47" stroke="#707070" stroke-width="1"/>
    </clipPath>
  </defs>
  <g id="Enmascarar_grupo_1098718" data-name="Enmascarar grupo 1098718" transform="translate(-305.385 -3957)" clip-path="url(#clip-path)">
    <g id="negociacion" transform="translate(305.385 3957)">
      <g id="Grupo_1101247" data-name="Grupo 1101247">
        <g id="Grupo_1101246" data-name="Grupo 1101246">
          <path id="Trazado_912254" data-name="Trazado 912254" d="M56.371,54.167c-2.925,0-3.25-1.3-3.25-1.95a10.783,10.783,0,0,0,6.5-10.292v-.758a9.709,9.709,0,0,0-9.75-9.75h-13A1.024,1.024,0,0,0,35.788,32.5a9.726,9.726,0,0,0,2.6,6.608,15.66,15.66,0,0,0-.433,3.142,10.948,10.948,0,0,0,6.5,9.967c0,.65-.325,1.95-3.25,1.95a5.364,5.364,0,0,0-5.417,5.417V65h2.167V59.583a3.192,3.192,0,0,1,3.25-3.25c3.358,0,5.417-1.625,5.417-4.333v-.542a1.041,1.041,0,0,0-.758-.975,8.772,8.772,0,0,1-5.742-8.233,6.662,6.662,0,0,1,.108-1.517,9.81,9.81,0,0,0,5.308,1.517H57.454a8.529,8.529,0,0,1-5.742,8.125,1.041,1.041,0,0,0-.758.975V52c0,2.708,2.058,4.333,5.417,4.333a3.192,3.192,0,0,1,3.25,3.25V65h2.167V59.583A5.364,5.364,0,0,0,56.371,54.167ZM45.538,40.083a7.58,7.58,0,0,1-7.475-6.5H49.871a7.58,7.58,0,0,1,7.475,6.5Z" fill="#ee4f47"/>
        </g>
      </g>
      <g id="Grupo_1101249" data-name="Grupo 1101249">
        <g id="Grupo_1101248" data-name="Grupo 1101248">
          <path id="Trazado_912255" data-name="Trazado 912255" d="M64.929,29.25V10.833A4.188,4.188,0,0,0,60.7,6.5H39.038V4.333A4.346,4.346,0,0,0,34.7,0H4.371A4.346,4.346,0,0,0,.038,4.333V28.167q0,6.825,4.875,9.75L6,36.075C3.5,34.45,2.2,31.958,2.2,28.167V4.333A2.173,2.173,0,0,1,4.371,2.167H34.7a2.173,2.173,0,0,1,2.167,2.167V24.917A2.173,2.173,0,0,1,34.7,27.083H15.421A6.773,6.773,0,0,0,8.7,32.933v.65h2.167V33.15a4.557,4.557,0,0,1,4.55-3.9H34.7a4.346,4.346,0,0,0,4.333-4.333h13a5.364,5.364,0,0,1,5.417,5.417h2.167a7.537,7.537,0,0,0-7.583-7.583h-13V8.667H60.7a2.173,2.173,0,0,1,2.167,2.167V29.25a9.445,9.445,0,0,1-1.95,6.283l1.625,1.408A10.9,10.9,0,0,0,64.929,29.25Z" fill="#ee4f47"/>
        </g>
      </g>
      <g id="Grupo_1101251" data-name="Grupo 1101251">
        <g id="Grupo_1101250" data-name="Grupo 1101250">
          <path id="Trazado_912256" data-name="Trazado 912256" d="M27.121,55.25a3.218,3.218,0,0,1-3.25-3.033,10.868,10.868,0,1,0-14.3-5.633A11,11,0,0,0,15.2,52.217a3.218,3.218,0,0,1-3.25,3.033,5.364,5.364,0,0,0-5.417,5.417V65H8.7V60.667a3.192,3.192,0,0,1,3.25-3.25A5.364,5.364,0,0,0,17.371,52v-.542a1.041,1.041,0,0,0-.758-.975,8.765,8.765,0,0,1-5.742-7.042h3.25a1.54,1.54,0,0,0,.65-.217l2.6-1.733,2.6,1.733a1.54,1.54,0,0,0,.65.217H28.1a8.584,8.584,0,0,1-5.742,7.042,1.041,1.041,0,0,0-.758.975V52a5.364,5.364,0,0,0,5.417,5.417,3.192,3.192,0,0,1,3.25,3.25V65h2.167V60.667A5.209,5.209,0,0,0,27.121,55.25ZM20.946,41.167l-2.925-1.95a1.174,1.174,0,0,0-1.192,0L13.8,41.167H10.979a8.51,8.51,0,0,1,9.642-7.475A8.623,8.623,0,0,1,28.1,41.167Z" fill="#ee4f47"/>
        </g>
      </g>
      <g id="Grupo_1101253" data-name="Grupo 1101253">
        <g id="Grupo_1101252" data-name="Grupo 1101252">
          <rect id="Rectángulo_403124" data-name="Rectángulo 403124" width="22.75" height="2.167" transform="translate(5.454 5.417)" fill="#ee4f47"/>
        </g>
      </g>
      <g id="Grupo_1101255" data-name="Grupo 1101255">
        <g id="Grupo_1101254" data-name="Grupo 1101254">
          <rect id="Rectángulo_403125" data-name="Rectángulo 403125" width="6.5" height="2.167" transform="translate(5.454 9.75)" fill="#ee4f47"/>
        </g>
      </g>
      <g id="Grupo_1101257" data-name="Grupo 1101257">
        <g id="Grupo_1101256" data-name="Grupo 1101256">
          <rect id="Rectángulo_403126" data-name="Rectángulo 403126" width="16.25" height="2.167" transform="translate(14.121 9.75)" fill="#ee4f47"/>
        </g>
      </g>
      <g id="Grupo_1101259" data-name="Grupo 1101259">
        <g id="Grupo_1101258" data-name="Grupo 1101258">
          <rect id="Rectángulo_403127" data-name="Rectángulo 403127" width="2.167" height="2.167" transform="translate(5.454 14.083)" fill="#ee4f47"/>
        </g>
      </g>
      <g id="Grupo_1101261" data-name="Grupo 1101261">
        <g id="Grupo_1101260" data-name="Grupo 1101260">
          <rect id="Rectángulo_403128" data-name="Rectángulo 403128" width="8.667" height="2.167" transform="translate(9.788 14.083)" fill="#ee4f47"/>
        </g>
      </g>
      <g id="Grupo_1101263" data-name="Grupo 1101263">
        <g id="Grupo_1101262" data-name="Grupo 1101262">
          <rect id="Rectángulo_403129" data-name="Rectángulo 403129" width="9.75" height="2.167" transform="translate(20.621 14.083)" fill="#ee4f47"/>
        </g>
      </g>
      <g id="Grupo_1101265" data-name="Grupo 1101265">
        <g id="Grupo_1101264" data-name="Grupo 1101264">
          <rect id="Rectángulo_403130" data-name="Rectángulo 403130" width="15.167" height="2.167" transform="translate(45.538 13)" fill="#ee4f47"/>
        </g>
      </g>
      <g id="Grupo_1101267" data-name="Grupo 1101267">
        <g id="Grupo_1101266" data-name="Grupo 1101266">
          <rect id="Rectángulo_403131" data-name="Rectángulo 403131" width="7.583" height="2.167" transform="translate(41.204 17.333)" fill="#ee4f47"/>
        </g>
      </g>
      <g id="Grupo_1101269" data-name="Grupo 1101269">
        <g id="Grupo_1101268" data-name="Grupo 1101268">
          <rect id="Rectángulo_403132" data-name="Rectángulo 403132" width="9.75" height="2.167" transform="translate(50.954 17.333)" fill="#ee4f47"/>
        </g>
      </g>
      <g id="Grupo_1101271" data-name="Grupo 1101271">
        <g id="Grupo_1101270" data-name="Grupo 1101270">
          <rect id="Rectángulo_403133" data-name="Rectángulo 403133" width="2.167" height="2.167" transform="translate(41.204 13)" fill="#ee4f47"/>
        </g>
      </g>
    </g>
  </g>
</svg>
