<svg xmlns="http://www.w3.org/2000/svg" xmlns:xlink="http://www.w3.org/1999/xlink" width="97" height="97" viewBox="0 0 97 97">
  <defs>
    <clipPath id="clip-path">
      <path id="Rectángulo_403140" data-name="Rectángulo 403140" d="M0,0H97a0,0,0,0,1,0,0V97a0,0,0,0,1,0,0H48A48,48,0,0,1,0,49V0A0,0,0,0,1,0,0Z" transform="translate(499.385 5418)" fill="#4045ab" stroke="#373c94" stroke-width="1"/>
    </clipPath>
  </defs>
  <g id="Grupo_1101411" data-name="Grupo 1101411" transform="translate(-499.385 -5418)">
    <g id="Grupo_1101410" data-name="Grupo 1101410">
      <ellipse id="Elipse_11555" data-name="Elipse 11555" cx="48.226" cy="48.226" rx="48.226" ry="48.226" transform="translate(499.385 5418.026)" fill="#ee4f47"/>
      <g id="Enmascarar_grupo_1098723" data-name="Enmascarar grupo 1098723" clip-path="url(#clip-path)">
        <g id="propuesta-de-valor_1_" data-name="propuesta-de-valor (1)" transform="translate(499.385 5418.001)">
          <path id="Trazado_912259" data-name="Trazado 912259" d="M62.61,72.388s-1.2,4.058-5.313,3.05-13.855-3.354-13.855-3.354" fill="none" stroke="#373c94" stroke-linecap="round" stroke-linejoin="round" stroke-miterlimit="10" stroke-width="2.841"/>
          <path id="Trazado_912260" data-name="Trazado 912260" d="M62.61,72.388s-1.2,4.058-5.313,3.05-13.855-3.354-13.855-3.354" fill="none" stroke="#373c94" stroke-linecap="round" stroke-linejoin="round" stroke-miterlimit="10" stroke-width="2.841"/>
          <path id="Trazado_912261" data-name="Trazado 912261" d="M89.869,19.76a1.545,1.545,0,0,1-.483-1.8,5.8,5.8,0,0,0-4.576-7.925,1.545,1.545,0,0,1-1.32-1.32,5.8,5.8,0,0,0-7.925-4.576,1.545,1.545,0,0,1-1.8-.483,5.8,5.8,0,0,0-9.151,0,1.545,1.545,0,0,1-1.8.483,5.8,5.8,0,0,0-7.925,4.576,1.545,1.545,0,0,1-1.32,1.32,5.8,5.8,0,0,0-4.576,7.925,1.545,1.545,0,0,1-.483,1.8,5.8,5.8,0,0,0,0,9.151,1.545,1.545,0,0,1,.483,1.8,5.8,5.8,0,0,0,4.576,7.925,1.545,1.545,0,0,1,1.32,1.32,5.8,5.8,0,0,0,7.925,4.576,1.545,1.545,0,0,1,1.8.483,5.8,5.8,0,0,0,9.151,0,1.545,1.545,0,0,1,1.8-.483,5.8,5.8,0,0,0,7.925-4.576,1.545,1.545,0,0,1,1.32-1.32,5.8,5.8,0,0,0,4.576-7.925,1.545,1.545,0,0,1,.483-1.8,5.8,5.8,0,0,0,0-9.151Z" fill="none" stroke="#373c94" stroke-linecap="round" stroke-linejoin="round" stroke-miterlimit="10" stroke-width="2.841"/>
          <path id="Trazado_912262" data-name="Trazado 912262" d="M80.57,44.221a5.793,5.793,0,0,1-5,.313,1.545,1.545,0,0,0-1.8.483,5.792,5.792,0,0,1-5.215,2.2l3.324,11.466a2.25,2.25,0,0,0,2.788,1.535l7.567-2.194a2.25,2.25,0,0,0,1.535-2.788Z" fill="none" stroke="#373c94" stroke-linecap="round" stroke-linejoin="round" stroke-miterlimit="10" stroke-width="2.841"/>
          <path id="Trazado_912263" data-name="Trazado 912263" d="M64.612,45.018a1.545,1.545,0,0,0-1.8-.483,5.792,5.792,0,0,1-5-.313L54.612,55.234a2.251,2.251,0,0,0,1.535,2.788l7.567,2.194A2.251,2.251,0,0,0,66.5,58.681l2.686-9.263-.639-2.2A5.8,5.8,0,0,1,64.612,45.018Z" fill="none" stroke="#373c94" stroke-linecap="round" stroke-linejoin="round" stroke-miterlimit="10" stroke-width="2.841"/>
          <path id="Trazado_912264" data-name="Trazado 912264" d="M64.1,23.845l4.129,4.129,6.037-6.037" fill="none" stroke="#373c94" stroke-linecap="round" stroke-linejoin="round" stroke-miterlimit="10" stroke-width="2.841"/>
          <path id="Trazado_912265" data-name="Trazado 912265" d="M19.283,89.551l7.122-2.7c4.964-1.618,10.168-1.782,14.336-.118l8.851,3.534A14.15,14.15,0,0,0,60.584,89.6l0,0,9.25-4.092L75.9,82.828l15.587-6.895c.936-.48,5.64-3.3,3.532-8.095-2.443-5.1-8.066-2.69-8.538-2.514L62.61,72.388A5.364,5.364,0,0,0,59.3,65.611c-13.716-5.475-15.351-6.4-18.822-6.456h0c-10.73.036-12.674.123-18.007,2.51a47.561,47.561,0,0,0-7.922,4.506A17.247,17.247,0,0,1,9.2,68.7L2.69,70.494A1.728,1.728,0,0,0,1.421,72.16V93.829a1.727,1.727,0,0,0,2.341,1.615l9.324-3.54" fill="none" stroke="#373c94" stroke-linecap="round" stroke-linejoin="round" stroke-miterlimit="10" stroke-width="2.841"/>
          <path id="Trazado_912266" data-name="Trazado 912266" d="M82.186,21.021a13.412,13.412,0,1,0,0,6.629" fill="none" stroke="#373c94" stroke-linecap="round" stroke-linejoin="round" stroke-miterlimit="10" stroke-width="2.841"/>
        </g>
      </g>
    </g>
  </g>
</svg>
