<svg xmlns="http://www.w3.org/2000/svg" xmlns:xlink="http://www.w3.org/1999/xlink" width="97" height="97" viewBox="0 0 97 97">
  <defs>
    <clipPath id="clip-path">
      <rect id="Rectángulo_403142" data-name="Rectángulo 403142" width="97" height="97" transform="translate(1004.385 5418)" fill="#4045ab" stroke="#707070" stroke-width="1"/>
    </clipPath>
  </defs>
  <g id="Grupo_1101416" data-name="Grupo 1101416" transform="translate(-1004.385 -5418)">
    <g id="Grupo_1101415" data-name="Grupo 1101415">
      <g id="Grupo_1101414" data-name="Grupo 1101414">
        <ellipse id="Elipse_11557" data-name="Elipse 11557" cx="48.226" cy="48.226" rx="48.226" ry="48.226" transform="translate(1004.385 5418.026)" fill="#ee4f47"/>
        <g id="Enmascarar_grupo_1098740" data-name="Enmascarar grupo 1098740" clip-path="url(#clip-path)">
          <path id="alternativa" d="M87.143,16.839,85.334,4.311a2.579,2.579,0,0,0-3.509-2.025l-11.753,4.7a2.578,2.578,0,0,0-.332,4.627l1.461.843-9.52,16.488a1.565,1.565,0,0,0-.21.782V39.4a28.3,28.3,0,0,0-3.788-1.318L56.4,34.759V16.666h1.687a2.577,2.577,0,0,0,2.026-4.173l-7.83-9.945a2.579,2.579,0,0,0-4.051,0l-7.829,9.945a2.578,2.578,0,0,0,2.026,4.174H44.12V34.759l-1.28,3.324a28.271,28.271,0,0,0-4.183,1.489V29.725a1.565,1.565,0,0,0-.21-.782l-9.52-16.488,1.461-.843a2.577,2.577,0,0,0-.333-4.627L18.3,2.286a2.578,2.578,0,0,0-3.509,2.026L12.986,16.839a2.577,2.577,0,0,0,3.841,2.6l1.461-.843,8.084,14v10.27l-2.425,2.425a1.564,1.564,0,0,0-.323,1.741l1.936,4.359a28.308,28.308,0,0,0-2.812,6.784L18.3,59.889a1.564,1.564,0,0,0-1,1.46v8.5a1.565,1.565,0,0,0,1,1.46l4.447,1.712a28.318,28.318,0,0,0,2.813,6.785l-1.935,4.358a1.565,1.565,0,0,0,.323,1.741l6.01,6.01a1.565,1.565,0,0,0,1.741.323l4.36-1.936a28.315,28.315,0,0,0,6.783,2.812l1.712,4.448a1.564,1.564,0,0,0,1.46,1h8.5a1.565,1.565,0,0,0,1.46-1l1.712-4.447A28.3,28.3,0,0,0,64.469,90.3l4.358,1.936a1.564,1.564,0,0,0,1.741-.324l6.01-6.01a1.565,1.565,0,0,0,.323-1.741L74.965,79.8a28.305,28.305,0,0,0,2.812-6.783l4.448-1.712a1.564,1.564,0,0,0,1-1.46v-8.5a1.565,1.565,0,0,0-1-1.46l-4.447-1.712a28.294,28.294,0,0,0-2.813-6.785L76.9,47.034a1.564,1.564,0,0,0-.324-1.741l-2.821-2.821V32.6l8.083-14,1.461.843a2.577,2.577,0,0,0,3.841-2.6Zm-43.575-3.3,6.695-8.5,6.7,8.5H54.84A1.565,1.565,0,0,0,53.276,15.1V32.632H47.249V15.1a1.565,1.565,0,0,0-1.565-1.565ZM29.291,31.4,20.216,15.677a1.565,1.565,0,0,0-2.137-.573l-1.833,1.059L17.792,5.451l10.05,4.017-1.833,1.058a1.564,1.564,0,0,0-.573,2.137L35.528,30.144V40.66l-3.83-1.7a1.564,1.564,0,0,0-1.741.323l-.456.456v-7.56a1.565,1.565,0,0,0-.21-.782ZM75.9,60.806l4.2,1.617v6.351l-4.2,1.617a1.564,1.564,0,0,0-.96,1.1,25.2,25.2,0,0,1-3.064,7.389,1.565,1.565,0,0,0-.1,1.455l1.829,4.118-4.491,4.491L65,87.114a1.563,1.563,0,0,0-1.455.1,25.2,25.2,0,0,1-7.391,3.064,1.564,1.564,0,0,0-1.1.96l-1.617,4.2H47.087l-1.617-4.2a1.564,1.564,0,0,0-1.1-.96,25.2,25.2,0,0,1-7.389-3.064,1.566,1.566,0,0,0-1.455-.1L31.41,88.942l-4.491-4.491,1.828-4.116a1.565,1.565,0,0,0-.1-1.455,25.2,25.2,0,0,1-3.064-7.391,1.564,1.564,0,0,0-.96-1.1l-4.2-1.617V62.423l4.2-1.617a1.564,1.564,0,0,0,.96-1.1,25.184,25.184,0,0,1,3.063-7.39,1.565,1.565,0,0,0,.1-1.455l-1.829-4.117,4.491-4.491,4.118,1.829a1.564,1.564,0,0,0,1.455-.1,25.2,25.2,0,0,1,7.389-3.064,1.564,1.564,0,0,0,1.1-.96l1.617-4.2h6.351l1.617,4.2a1.564,1.564,0,0,0,1.1.96,25.2,25.2,0,0,1,7.389,3.064,1.564,1.564,0,0,0,1.455.1l4.118-1.829,4.491,4.491-1.828,4.116a1.564,1.564,0,0,0,.1,1.455,25.2,25.2,0,0,1,3.064,7.391,1.565,1.565,0,0,0,.96,1.1ZM82.05,15.1a1.564,1.564,0,0,0-2.137.573L70.838,31.4a1.565,1.565,0,0,0-.21.782v7.165l-.06-.06a1.565,1.565,0,0,0-1.741-.323L64.6,40.836V30.144L74.694,12.664a1.564,1.564,0,0,0-.573-2.137L72.287,9.468l10.05-4.017,1.546,10.712ZM50.212,47.069A18.243,18.243,0,1,0,68.455,65.312,18.263,18.263,0,0,0,50.212,47.069Zm0,33.357A15.114,15.114,0,1,1,65.326,65.312,15.131,15.131,0,0,1,50.212,80.426Zm4.417-23.343-6.96,6.96-1.875-1.875a4.507,4.507,0,0,0-6.374,6.374L44,73.118A5.813,5.813,0,0,0,47.156,74.8a4.469,4.469,0,0,0,.68.053,4.3,4.3,0,0,0,3.077-1.311L61,63.457a4.507,4.507,0,0,0-6.374-6.374Zm4.161,4.161L48.7,71.334a1.157,1.157,0,0,1-1.07.378,2.724,2.724,0,0,1-1.421-.806l-4.576-4.576a1.378,1.378,0,0,1,1.948-1.948l2.981,2.981a1.565,1.565,0,0,0,2.213,0L56.841,59.3a1.378,1.378,0,0,1,1.949,1.948Z" transform="translate(1002.82 5416.436)" fill="#4045ab"/>
        </g>
      </g>
    </g>
  </g>
</svg>
