<svg xmlns="http://www.w3.org/2000/svg" xmlns:xlink="http://www.w3.org/1999/xlink" width="82" height="82" viewBox="0 0 82 82">
  <defs>
    <clipPath id="clip-path">
      <path id="Rectángulo_403036" data-name="Rectángulo 403036" d="M0,0H82a0,0,0,0,1,0,0V82a0,0,0,0,1,0,0H40A40,40,0,0,1,0,42V0A0,0,0,0,1,0,0Z" transform="translate(758.718 1696)" fill="#ee4f47" stroke="#707070" stroke-width="1"/>
    </clipPath>
  </defs>
  <g id="Grupo_1101404" data-name="Grupo 1101404" transform="translate(-758.718 -1696)">
    <g id="Grupo_1101403" data-name="Grupo 1101403">
      <g id="Grupo_1101402" data-name="Grupo 1101402">
        <ellipse id="Elipse_11530" data-name="Elipse 11530" cx="40.792" cy="40.792" rx="40.792" ry="40.792" transform="translate(758.849 1696.416)" fill="#ffbd45"/>
        <g id="Enmascarar_grupo_1098708" data-name="Enmascarar grupo 1098708" clip-path="url(#clip-path)">
          <g id="independiente" transform="translate(758.718 1696)">
            <g id="Grupo_1101069" data-name="Grupo 1101069">
              <path id="Trazado_911857" data-name="Trazado 911857" d="M79.181,46.917H71.969V44.559A2.822,2.822,0,0,0,69.15,41.74h-4.1a1.2,1.2,0,0,0,0,2.4h4.1a.417.417,0,0,1,.417.416V59.767a.417.417,0,0,1-.417.417H49.32V44.142H59.444a1.2,1.2,0,0,0,0-2.4H49.32V39.289h1.226a1.2,1.2,0,0,0,0-2.4H45.692a1.2,1.2,0,1,0,0,2.4h1.226V51.736a11.614,11.614,0,0,0-1.644-.522L33.626,48.462V44.737a13.676,13.676,0,0,0,7.1-11.272h1.406a5.083,5.083,0,0,0,1.848-9.819V16.895a16.756,16.756,0,0,0-1.418-6.782,1.2,1.2,0,1,0-2.2.966,14.37,14.37,0,0,1,1.215,5.816v6.4l-2.172.008L36.7,18.971a2.819,2.819,0,0,0-4.206-.662l-2.015,1.7A19.535,19.535,0,0,1,17.91,24.591H15.83V24.5a1.2,1.2,0,0,0-1.2-1.2H12.595v-6.4A14.491,14.491,0,0,1,37.471,6.788a1.2,1.2,0,1,0,1.722-1.675,16.893,16.893,0,0,0-29,11.783v6.751a5.083,5.083,0,0,0,1.848,9.819h1.406a13.676,13.676,0,0,0,7.1,11.272v3.726L8.9,51.213A11.512,11.512,0,0,0,0,62.459V66.1a1.2,1.2,0,0,0,2.4,0V62.459a9.119,9.119,0,0,1,7.049-8.908l3.223-.761-1.922,2.591a1.2,1.2,0,0,0-.035,1.382l6.49,9.735-2.717,6.3a1.2,1.2,0,0,0,.08,1.106l3.51,5.7H12.5V72.71a1.2,1.2,0,0,0-.352-.849l-1.618-1.618a1.2,1.2,0,0,0-1.7,1.7l1.266,1.266V79.6H2.819a.417.417,0,0,1-.416-.416V71.707a1.2,1.2,0,0,0-2.4,0v7.474A2.822,2.822,0,0,0,2.819,82H54.59a2.822,2.822,0,0,0,2.819-2.819V69.474a2.822,2.822,0,0,0-2.819-2.819h-.417V62.586h9.246v2.358a2.822,2.822,0,0,0,2.819,2.819H79.181A2.822,2.822,0,0,0,82,64.944V49.736a2.822,2.822,0,0,0-2.819-2.819ZM46.917,54.38V66.71a2.824,2.824,0,0,0-2.265,2.764v9.707a2.817,2.817,0,0,0,.034.417H36.092l3.51-5.7a1.2,1.2,0,0,0,.08-1.106l-2.717-6.3,6.49-9.735a1.2,1.2,0,0,0-.035-1.382L41.5,52.791l3.221.761a9.128,9.128,0,0,1,2.2.828ZM21.372,50.736l4.016,4.016-3.1,3.1-2.783-6.671Zm11.429,0,1.863.44-2.783,6.671-3.1-3.1ZM27.087,56.45l3.794,3.794-3.794,9.1-3.794-9.1Zm1.2,16.252,8.746-20.967.84.2,3.115,4.2-6.383,9.575a1.2,1.2,0,0,0-.1,1.142l2.727,6.323L33.271,79.6H28.288ZM44.814,28.381a2.685,2.685,0,0,1-2.681,2.682H40.745V25.7h1.387A2.684,2.684,0,0,1,44.814,28.381Zm-35.455,0A2.685,2.685,0,0,1,12.041,25.7h1.387v5.363H12.041A2.685,2.685,0,0,1,9.359,28.381Zm6.471,4.368V26.993h2.08a21.941,21.941,0,0,0,14.113-5.151l2.015-1.7a.417.417,0,0,1,.622.1l3.683,5.893v6.612a11.256,11.256,0,1,1-22.512,0ZM27.087,46.408a13.606,13.606,0,0,0,4.138-.642v3.15l-4.138,4.138-4.138-4.138v-3.15a13.606,13.606,0,0,0,4.138.642ZM16.944,73.173l2.727-6.323a1.2,1.2,0,0,0-.1-1.142l-6.383-9.575,3.115-4.2.154-.037.685-.162L25.885,72.7v6.9H20.9Zm38.062-3.7v9.707a.417.417,0,0,1-.417.417H47.471a.417.417,0,0,1-.417-.417V69.474a.417.417,0,0,1,.417-.417H54.59A.417.417,0,0,1,55.006,69.474Zm-3.236-2.819H49.32V62.586h2.451ZM79.6,64.944a.417.417,0,0,1-.417.417H66.238a.417.417,0,0,1-.417-.417V62.586h3.329a2.822,2.822,0,0,0,2.819-2.819V49.32h7.212a.417.417,0,0,1,.417.417Z" fill="#ee4f47"/>
              <path id="Trazado_911858" data-name="Trazado 911858" d="M59.443,46.1A1.936,1.936,0,0,0,57.7,47.185l-.884,1.792-1.977.287a1.947,1.947,0,0,0-1.08,3.322l1.431,1.395-.338,1.969A1.948,1.948,0,0,0,57.675,58l1.768-.93,1.768.93a1.948,1.948,0,0,0,2.826-2.053L63.7,53.98l1.431-1.394a1.947,1.947,0,0,0-1.079-3.322l-1.977-.287-.884-1.792A1.935,1.935,0,0,0,59.444,46.1h0Zm2.048,5.22,1.3.189-.942.918a1.947,1.947,0,0,0-.56,1.724l.222,1.3-1.164-.612a1.947,1.947,0,0,0-1.812,0l-1.164.612.222-1.3a1.947,1.947,0,0,0-.56-1.723l-.942-.918,1.3-.189a1.947,1.947,0,0,0,1.466-1.065l.582-1.179.582,1.179a1.947,1.947,0,0,0,1.466,1.065Z" fill="#ee4f47"/>
            </g>
          </g>
        </g>
      </g>
    </g>
  </g>
</svg>
