<svg xmlns="http://www.w3.org/2000/svg" xmlns:xlink="http://www.w3.org/1999/xlink" width="86" height="86" viewBox="0 0 86 86">
  <defs>
    <clipPath id="clip-path">
      <rect id="Rectángulo_403057" data-name="Rectángulo 403057" width="86" height="86" transform="translate(254.718 3725)" fill="#fff" stroke="#707070" stroke-width="1"/>
    </clipPath>
  </defs>
  <g id="Enmascarar_grupo_1098710" data-name="Enmascarar grupo 1098710" transform="translate(-254.718 -3725)" clip-path="url(#clip-path)">
    <g id="flat" transform="translate(241.394 3720.789)">
      <path id="Trazado_911947" data-name="Trazado 911947" d="M34.014,40.114,31.509,50.6a2.473,2.473,0,0,1-4.132,1.2l-3.5-3.416,1.484-2.971,3.481,3.577,2.218-8.873Z" fill="#ff80b0"/>
      <path id="Trazado_911948" data-name="Trazado 911948" d="M15.029,69.507H90.211v20.7H4.437V80.1A10.592,10.592,0,0,1,15.029,69.507Z" fill="#3b69b0"/>
      <path id="Trazado_911949" data-name="Trazado 911949" d="M20.7,35.493v3.7a2.218,2.218,0,0,1-2.218,2.218H17.007V37.341a1.849,1.849,0,0,1,1.849-1.849Z" fill="#ff99c0"/>
      <path id="Trazado_911950" data-name="Trazado 911950" d="M22.183,38.451v1.479l13.31,4.437V34.014Z" fill="#f2444e"/>
      <g id="Grupo_1101128" data-name="Grupo 1101128">
        <path id="Trazado_911951" data-name="Trazado 911951" d="M39.929,39.929H38.451a.739.739,0,0,1,0-1.479h1.479a.739.739,0,1,1,0,1.479Z" fill="#fcc419"/>
        <path id="Trazado_911952" data-name="Trazado 911952" d="M39.929,36.972H38.451a.739.739,0,0,1,0-1.479h1.479a.739.739,0,1,1,0,1.479Z" fill="#fcc419"/>
        <path id="Trazado_911953" data-name="Trazado 911953" d="M39.929,42.887H38.451a.739.739,0,0,1,0-1.479h1.479a.739.739,0,1,1,0,1.479Z" fill="#fcc419"/>
      </g>
      <path id="Trazado_911954" data-name="Trazado 911954" d="M46.584,38.451H70.246V69.507L58.415,78.38,46.584,69.507Z" fill="#ffb3d0"/>
      <path id="Trazado_911955" data-name="Trazado 911955" d="M55.458,48.856H70.246V66.549l-2.091-.627a17.817,17.817,0,0,1-12.7-17.065Z" fill="#e67199"/>
      <path id="Trazado_911956" data-name="Trazado 911956" d="M81.338,51.021V14.789H46.584V38.451A23.662,23.662,0,0,0,70.246,62.113,11.092,11.092,0,0,0,81.338,51.021Z" fill="#ffb3d0"/>
      <path id="Trazado_911957" data-name="Trazado 911957" d="M42.887,38.451V20.159c0-8.807,6.877-15.948,15.358-15.948a17.2,17.2,0,0,1,7.96,1.952,17.166,17.166,0,0,0,3.864,1.455,17.155,17.155,0,0,0,4.084.492H88.732V19.881a9.267,9.267,0,0,1-7.308,9.183,27.232,27.232,0,0,1-5.313.526,27.51,27.51,0,0,1-16.917-5.859l-5.041-3.924.807,4.2a13.09,13.09,0,0,1-2.136,10.055Z" fill="#0e3e86"/>
      <circle id="Elipse_11534" data-name="Elipse 11534" cx="5.915" cy="5.915" r="5.915" transform="translate(42.887 32.535)" fill="#ffb3d0"/>
      <path id="Trazado_911958" data-name="Trazado 911958" d="M70.986,55.458a6.887,6.887,0,0,1-6.541-4.714l-.076-.228a.739.739,0,1,1,1.4-.467l.076.228a5.41,5.41,0,0,0,5.138,3.7.739.739,0,1,1,0,1.479Z" fill="#e67199"/>
      <path id="Trazado_911959" data-name="Trazado 911959" d="M75.422,46.584H70.986a.739.739,0,0,1,0-1.479h3.7V36.972a.739.739,0,0,1,1.479,0v8.873A.739.739,0,0,1,75.422,46.584Z" fill="#e67199"/>
      <path id="Trazado_911960" data-name="Trazado 911960" d="M70.246,66.549,58.415,78.38l15.528,7.394,1.479-16.268Z" fill="#1b53a6"/>
      <path id="Trazado_911961" data-name="Trazado 911961" d="M46.584,66.549,58.415,78.38,42.887,85.774,41.408,69.507Z" fill="#1b53a6"/>
      <path id="Trazado_911962" data-name="Trazado 911962" d="M23.272,43.266l2.085,2.144-1.484,2.971-2.527-2.462-2.12,9.539H8.873l2.379-10.7A3.327,3.327,0,0,1,14.5,42.148h6.121a3.7,3.7,0,0,1,2.651,1.119Z" fill="#fcc419"/>
      <path id="Trazado_911963" data-name="Trazado 911963" d="M27.633,39.924a.739.739,0,0,1,.525.9L25.4,51.524a3.27,3.27,0,0,1-5.232,1.721l-5.851-4.76L16.5,45.912l5.315,4.424L24.706,39.9a.742.742,0,0,1,.906-.516Z" fill="#ff99c0"/>
      <path id="Trazado_911964" data-name="Trazado 911964" d="M13.748,48.758a.736.736,0,0,1-.466-.166L11.988,47.54a.74.74,0,1,1,.933-1.148l1.294,1.052a.739.739,0,0,1-.467,1.313Z" fill="#f5a000"/>
      <path id="Trazado_911965" data-name="Trazado 911965" d="M15.936,46.183a.737.737,0,0,1-.473-.171l-1.323-1.1a.965.965,0,0,0-1.352.123.739.739,0,1,1-1.133-.95,2.446,2.446,0,0,1,3.431-.31l1.324,1.1a.739.739,0,0,1-.473,1.308Z" fill="#f5a000"/>
      <path id="Trazado_911966" data-name="Trazado 911966" d="M15.528,39.929h2.218v2.588a1.109,1.109,0,0,1-2.218,0Z" fill="#ff99c0"/>
      <path id="Trazado_911967" data-name="Trazado 911967" d="M19.965,36.972H17.746v1.479l-.739,2.218H15.528V36.6a1.849,1.849,0,0,1,1.849-1.849h4.067v.739A1.479,1.479,0,0,1,19.965,36.972Z" fill="#0e3e86"/>
      <circle id="Elipse_11535" data-name="Elipse 11535" cx="0.739" cy="0.739" r="0.739" transform="translate(16.637 38.081)" fill="#ff99c0"/>
      <path id="Trazado_911968" data-name="Trazado 911968" d="M23.107,60.795l-3.882-5.337H8.873l2.218,8.873L4.923,78.12a.185.185,0,0,0,.169.26h7.772a.185.185,0,0,0,.131-.316l-1.9-1.9L15.356,65.8a7.026,7.026,0,0,0,.282-4.523l-.58-2.127h1.456l3.451,5.176L15.6,78.14a.185.185,0,0,0,.176.24h7.435a.185.185,0,0,0,.131-.316l-1.9-1.9,2.721-9.253a7.025,7.025,0,0,0-1.058-6.114Z" fill="#0e3e86"/>
    </g>
  </g>
</svg>
