<svg xmlns="http://www.w3.org/2000/svg" xmlns:xlink="http://www.w3.org/1999/xlink" width="96.452" height="97" viewBox="0 0 96.452 97">
  <defs>
    <clipPath id="clip-path">
      <path id="Rectángulo_403139" data-name="Rectángulo 403139" d="M0,0H96a0,0,0,0,1,0,0V97a0,0,0,0,1,0,0H48A48,48,0,0,1,0,49V0A0,0,0,0,1,0,0Z" transform="translate(246.385 5418)" fill="#4045ab" stroke="#707070" stroke-width="1"/>
    </clipPath>
  </defs>
  <g id="Grupo_1101409" data-name="Grupo 1101409" transform="translate(-246.385 -5418)">
    <g id="Grupo_1101408" data-name="Grupo 1101408">
      <ellipse id="Elipse_11526" data-name="Elipse 11526" cx="48.226" cy="48.226" rx="48.226" ry="48.226" transform="translate(246.385 5418.026)" fill="#ee4f47"/>
      <g id="Enmascarar_grupo_1098722" data-name="Enmascarar grupo 1098722" clip-path="url(#clip-path)">
        <g id="reunion-de-negocios" transform="translate(246.385 5418.504)">
          <path id="Trazado_912257" data-name="Trazado 912257" d="M4.8,91.2H25.6v1.6A3.2,3.2,0,0,0,28.8,96H67.2a3.2,3.2,0,0,0,3.2-3.2V91.2H91.2A4.8,4.8,0,0,0,96,86.4c0-11.166-2.08-28.445-2.1-28.64a11.29,11.29,0,0,0-8.259-9.374A11.485,11.485,0,0,0,88,41.408V38.592A11.31,11.31,0,0,0,76.8,27.2a11.04,11.04,0,0,0-7.931,3.349A11.477,11.477,0,0,0,65.6,38.592v2.816a11.486,11.486,0,0,0,3.274,8.05A11.075,11.075,0,0,0,74.6,52.581a9.657,9.657,0,0,0-1.038,2.261l-.576,1.92A4.834,4.834,0,0,0,68.848,54.4h-12.4a12.736,12.736,0,0,0-16.885,0H27.152a4.835,4.835,0,0,0-4.131,2.365l-.578-1.92A9.6,9.6,0,0,0,21.4,52.584a11.077,11.077,0,0,0,5.726-3.13A11.477,11.477,0,0,0,30.4,41.408V38.592a11.486,11.486,0,0,0-3.274-8.05A11.04,11.04,0,0,0,19.2,27.2,11.31,11.31,0,0,0,8,38.592v2.816a11.485,11.485,0,0,0,2.357,6.979,11.3,11.3,0,0,0-8.262,9.394C2.08,57.955,0,75.234,0,86.4a4.8,4.8,0,0,0,4.8,4.8ZM17.685,72.749A7.971,7.971,0,0,0,23.421,75.2H32.8a5.571,5.571,0,0,0,4.045-1.747,12.8,12.8,0,0,0,1.888,2.56A12.691,12.691,0,0,0,33.242,80H15.52a1.12,1.12,0,0,1-1.12-1.12,1.1,1.1,0,0,1,.147-.544Zm41.47.7A5.571,5.571,0,0,0,63.2,75.2h9.379a7.971,7.971,0,0,0,5.736-2.451l3.133,5.579A1.111,1.111,0,0,1,80.48,80H62.768a12.917,12.917,0,0,0-5.506-3.986,12.81,12.81,0,0,0,1.893-2.562ZM61.816,84.8H34.16a9.139,9.139,0,0,1,1.171-2.29A9.563,9.563,0,0,1,43.2,78.4h9.6a9.618,9.618,0,0,1,9.016,6.4ZM26.49,88H16a1.6,1.6,0,0,1-1.6-1.6V83.04a4.259,4.259,0,0,0,1.12.16H31.338a12.37,12.37,0,0,0-.546,1.722A6.4,6.4,0,0,0,26.49,88ZM67.2,92.8H28.8V91.2A3.2,3.2,0,0,1,32,88H64a3.2,3.2,0,0,1,3.2,3.2ZM69.51,88a6.4,6.4,0,0,0-4.3-3.078,12.6,12.6,0,0,0-.57-1.722H80.48a4.259,4.259,0,0,0,1.12-.16V86.4A1.6,1.6,0,0,1,80,88ZM90.728,58.166c.022.17,2.072,17.261,2.072,28.234A1.6,1.6,0,0,1,91.2,88H84.506a4.746,4.746,0,0,0,.294-1.6V78.88a4.307,4.307,0,0,0-.557-2.112l-4-7.131,2.832-6.606a1.6,1.6,0,1,0-2.941-1.261l-3.142,7.322A4.8,4.8,0,0,1,72.579,72H63.2a2.4,2.4,0,1,1,0-4.8h6.419a4.771,4.771,0,0,0,4.6-3.421l2.4-8.018A6.358,6.358,0,0,1,82.752,51.2,8.072,8.072,0,0,1,90.728,58.166ZM68.8,41.408V38.592a8.278,8.278,0,0,1,2.358-5.806A7.85,7.85,0,0,1,76.8,30.4a8.107,8.107,0,0,1,8,8.192v2.816a8.2,8.2,0,0,1-3.411,6.7,9.506,9.506,0,0,0-3.83,1.44,7.112,7.112,0,0,1-.758.051,7.851,7.851,0,0,1-5.637-2.379A8.29,8.29,0,0,1,68.8,41.408Zm1.454,17.01L71.709,61l-.557,1.859A1.6,1.6,0,0,1,69.619,64H63.2a5.542,5.542,0,0,0-2.4.562V64a12.715,12.715,0,0,0-1.725-6.4h9.773a1.6,1.6,0,0,1,1.406.818ZM48,54.4A9.6,9.6,0,0,1,57.6,64v3.2a9.6,9.6,0,0,1-4.365,8.021c-.146,0-.288-.021-.435-.021H43.2c-.144,0-.283.021-.427.026A9.6,9.6,0,0,1,38.4,67.2V64A9.61,9.61,0,0,1,48,54.4ZM25.741,58.427a1.61,1.61,0,0,1,1.411-.827h9.781A12.688,12.688,0,0,0,35.2,64v.562A5.542,5.542,0,0,0,32.8,64H26.381a1.6,1.6,0,0,1-1.533-1.139L24.291,61ZM11.2,38.592a8.107,8.107,0,0,1,8-8.192,7.851,7.851,0,0,1,5.637,2.379A8.29,8.29,0,0,1,27.2,38.592v2.816a8.278,8.278,0,0,1-2.358,5.806A7.85,7.85,0,0,1,19.2,49.6a7.051,7.051,0,0,1-.757-.056,9.521,9.521,0,0,0-3.832-1.44,8.2,8.2,0,0,1-3.411-6.7ZM5.269,58.186A8.078,8.078,0,0,1,13.248,51.2a6.358,6.358,0,0,1,6.13,4.562l2.4,8.018a4.771,4.771,0,0,0,4.6,3.421H32.8a2.4,2.4,0,1,1,0,4.8H23.421a4.8,4.8,0,0,1-4.413-2.91L15.87,61.77a1.6,1.6,0,1,0-2.941,1.261l2.832,6.606-4.01,7.141a4.291,4.291,0,0,0-.552,2.1V86.4a4.746,4.746,0,0,0,.294,1.6H4.8a1.6,1.6,0,0,1-1.6-1.6C3.2,75.427,5.25,58.336,5.269,58.186Z" fill="#4045ab"/>
          <path id="Trazado_912258" data-name="Trazado 912258" d="M35.2,33.6H60.8A3.2,3.2,0,0,0,64,30.4V19.461a4.622,4.622,0,0,0,1.6-3.509V11.2a4.8,4.8,0,0,0-4.8-4.8H55.84a8,8,0,0,0-15.68,0H35.2a4.8,4.8,0,0,0-4.8,4.8v4.752a4.626,4.626,0,0,0,1.6,3.51V30.4A3.2,3.2,0,0,0,35.2,33.6Zm0-3.2V21.04a28.546,28.546,0,0,0,8,1.318V22.4a3.2,3.2,0,0,0,3.2,3.2h3.2a3.2,3.2,0,0,0,3.2-3.2v-.042a28.546,28.546,0,0,0,8-1.318V30.4Zm11.2-8V19.2h3.2v3.2ZM48,3.2a4.8,4.8,0,0,1,4.506,3.2H43.494A4.8,4.8,0,0,1,48,3.2Zm-14.4,8a1.6,1.6,0,0,1,1.6-1.6H60.8a1.6,1.6,0,0,1,1.6,1.6v4.752a1.44,1.44,0,0,1-.747,1.28,21.28,21.28,0,0,1-8.853,1.93A3.2,3.2,0,0,0,49.6,16H46.4a3.2,3.2,0,0,0-3.2,3.162,21.291,21.291,0,0,1-8.858-1.92,1.44,1.44,0,0,1-.742-1.29Z" fill="#4045ab"/>
        </g>
      </g>
    </g>
  </g>
</svg>
