<svg xmlns="http://www.w3.org/2000/svg" xmlns:xlink="http://www.w3.org/1999/xlink" width="86" height="86" viewBox="0 0 86 86">
  <defs>
    <clipPath id="clip-path">
      <rect id="Rectángulo_403060" data-name="Rectángulo 403060" width="86" height="86" transform="translate(1008.718 3733)" fill="#fff" stroke="#707070" stroke-width="1"/>
    </clipPath>
  </defs>
  <g id="Grupo_1101407" data-name="Grupo 1101407" transform="translate(-1008.718 -3733)">
    <g id="Grupo_1101406" data-name="Grupo 1101406">
      <g id="Enmascarar_grupo_1098713" data-name="Enmascarar grupo 1098713" clip-path="url(#clip-path)">
        <g id="lapiz" transform="translate(1008.718 3733)">
          <path id="Trazado_911994" data-name="Trazado 911994" d="M41.234,61.326l-16.3-16.3-5.915,5.915,18.27,18.27,6.19-6.19A10.17,10.17,0,0,1,41.234,61.326Z" fill="#ffb09e"/>
          <g id="Grupo_1101141" data-name="Grupo 1101141">
            <path id="Trazado_911995" data-name="Trazado 911995" d="M28.466,54.356,40.3,66.194l3.052-3.052a10.3,10.3,0,0,1-2.241-1.7l-16.3-16.3-5.678,5.678,4.524,4.524.99-.99a2.7,2.7,0,0,1,3.816,0Z" fill="#f89580"/>
          </g>
          <g id="Grupo_1101142" data-name="Grupo 1101142">
            <path id="Trazado_911996" data-name="Trazado 911996" d="M2.737,64.685,23.543,85.492a1.736,1.736,0,0,0,2.455,0L38.675,72.815a1.736,1.736,0,0,0,0-2.455L17.869,49.554a1.736,1.736,0,0,0-2.455,0L2.737,62.231a1.736,1.736,0,0,0,0,2.455Z" fill="#01d0fb"/>
          </g>
          <g id="Grupo_1101143" data-name="Grupo 1101143">
            <path id="Trazado_911997" data-name="Trazado 911997" d="M5.879,67.827l6.862-6.862a5.516,5.516,0,0,1,7.8,0L35.533,75.956l3.142-3.142a1.736,1.736,0,0,0,0-2.455L17.869,49.554a1.736,1.736,0,0,0-2.455,0L2.737,62.231a1.736,1.736,0,0,0,0,2.455Z" fill="#01c0fa"/>
          </g>
          <path id="Trazado_911998" data-name="Trazado 911998" d="M37.514,33.191l-.282.282.113.119a9.865,9.865,0,0,1,2.729,6.826q0,.228-.01.454a7.848,7.848,0,0,1-2.658,5.6,8.536,8.536,0,0,1-5.564,2.082,8.166,8.166,0,0,1-5.8-2.425l-.09.148L41.116,61.445a10.3,10.3,0,0,0,14.56,0L60.722,56.4Z" fill="#ffb09e"/>
          <g id="Grupo_1101152" data-name="Grupo 1101152">
            <g id="Grupo_1101148" data-name="Grupo 1101148">
              <path id="Trazado_911999" data-name="Trazado 911999" d="M78.152,55.271h-.238l-9.16,9.16v.238l7.093,2.767.31-.072L80.83,62.69l.089-.327Z" fill="#ffcebf"/>
              <g id="Grupo_1101144" data-name="Grupo 1101144">
                <path id="Trazado_912000" data-name="Trazado 912000" d="M75.847,67.436l7.215,2.815a.519.519,0,0,0,.672-.672L80.92,62.363Z" fill="#5b5555"/>
              </g>
              <path id="Trazado_912001" data-name="Trazado 912001" d="M30.185,8.1l.279-.516L23.924,1.043a3.56,3.56,0,0,0-5.035,0L14.526,5.406a3.56,3.56,0,0,0,0,5.035l6.539,6.539.527-.289Z" fill="#fd6930"/>
              <g id="Grupo_1101145" data-name="Grupo 1101145">
                <path id="Trazado_912002" data-name="Trazado 912002" d="M30.3,23.22a8.638,8.638,0,0,1,6.148-2.546,8.74,8.74,0,0,1,2.091.254l.094.023.115-.119,2.485-2.485L34.4,11.517l-.5.266-8.632,8.633-.262.5,3.8,3.8Z" fill="#ffd15b"/>
                <path id="Trazado_912003" data-name="Trazado 912003" d="M69.882,47,67.4,49.486A4.94,4.94,0,0,1,60.411,42.5l1.55-1.549-.238-.238a4.94,4.94,0,0,1-6.985,0,4.775,4.775,0,0,1-.425-.493L54.22,40.1l-.13.081a6.08,6.08,0,0,1-7.511-.859l-7.6-7.6L37.4,33.31,68.754,64.668l9.4-9.4Z" fill="#ffd15b"/>
              </g>
              <g id="Grupo_1101146" data-name="Grupo 1101146">
                <path id="Trazado_912004" data-name="Trazado 912004" d="M50.874,41.1a6.033,6.033,0,0,1-4.294-1.779l-7.6-7.6L37.4,33.31,68.754,64.668,71.7,61.728,51.061,41.093c-.062,0-.125.007-.187.007Z" fill="#ffc344"/>
                <path id="Trazado_912005" data-name="Trazado 912005" d="M30.3,23.22A8.731,8.731,0,0,1,32.1,21.834a2.519,2.519,0,0,1,.564-2.7l4.675-4.675L34.4,11.517l-9.4,9.4,3.8,3.8Z" fill="#ffc344"/>
              </g>
              <g id="Grupo_1101147" data-name="Grupo 1101147">
                <path id="Trazado_912006" data-name="Trazado 912006" d="M20.36,10.44a3.56,3.56,0,0,1,0-5.035l3.964-3.964-.4-.4a3.56,3.56,0,0,0-5.035,0L14.526,5.406a3.56,3.56,0,0,0,0,5.035l6.539,6.539,2.917-2.917Z" fill="#ef4424"/>
              </g>
            </g>
            <g id="Grupo_1101149" data-name="Grupo 1101149">
              <path id="Trazado_912007" data-name="Trazado 912007" d="M35.954,20.689l-5.363-5.363-1.782,1.782,4.249,4.249A8.658,8.658,0,0,1,35.954,20.689Z" fill="#feb137"/>
              <path id="Trazado_912008" data-name="Trazado 912008" d="M59.2,47.5a4.969,4.969,0,0,1,.15-3.413l-2-2a4.9,4.9,0,0,1-2.608-1.367,4.775,4.775,0,0,1-.425-.493L54.22,40.1l-.13.081a6.04,6.04,0,0,1-1.528.681Z" fill="#feb137"/>
              <path id="Trazado_912009" data-name="Trazado 912009" d="M63.9,50.933a4.948,4.948,0,0,1-1.5-.232L72.562,60.86l1.782-1.782-8.528-8.528a4.929,4.929,0,0,1-1.912.383Z" fill="#feb137"/>
            </g>
            <path id="Trazado_912010" data-name="Trazado 912010" d="M73.544,36.354a5.107,5.107,0,0,0-7.223,0L67.87,34.8a5.108,5.108,0,0,0-7.223-7.223,5.108,5.108,0,1,0-7.223-7.223l-1.549,1.549a5.108,5.108,0,1,0-7.223-7.223l-6.028,6.028q-.094.094-.182.192a8.636,8.636,0,0,1,4.152,2.316L55.539,36.166a1.942,1.942,0,0,1,.16,2.559,6.182,6.182,0,0,1-1.623,1.465,5.1,5.1,0,0,0,7.766.643l-1.549,1.549a5.108,5.108,0,0,0,7.223,7.223l6.028-6.028a5.107,5.107,0,0,0,0-7.223Z" fill="#ffb09e"/>
            <g id="Grupo_1101150" data-name="Grupo 1101150">
              <path id="Trazado_912011" data-name="Trazado 912011" d="M21.084,11.464H34.372v5.565H21.084Z" transform="translate(-1.953 23.783) rotate(-45)" fill="#e1d3ce"/>
            </g>
            <g id="Grupo_1101151" data-name="Grupo 1101151">
              <path id="Trazado_912012" data-name="Trazado 912012" d="M22.421,14.692h4.158v5.565H22.421Z" transform="translate(-5.181 22.446) rotate(-45)" fill="#cdbfba"/>
            </g>
          </g>
          <path id="Trazado_912013" data-name="Trazado 912013" d="M42.593,23.22,44.468,25.1A5.1,5.1,0,0,1,45.9,20.713l6-6-.028-.029a5.108,5.108,0,0,0-7.223,0l-6.028,6.028q-.094.094-.182.192A8.638,8.638,0,0,1,42.593,23.22Z" fill="#f89580"/>
          <g id="Grupo_1101153" data-name="Grupo 1101153">
            <path id="Trazado_912014" data-name="Trazado 912014" d="M53.424,20.359,47.4,26.387a5.113,5.113,0,0,0-.724.913l5.52,5.52a5.109,5.109,0,0,1,.784-6.214l6.246-6.246a5.122,5.122,0,0,1,.712-.592A5.108,5.108,0,0,0,53.424,20.359Z" fill="#f89580"/>
          </g>
          <path id="Trazado_912015" data-name="Trazado 912015" d="M66.49,27.582A5.129,5.129,0,0,1,67.18,27a5.108,5.108,0,0,0-6.533.577L54.619,33.61a5.117,5.117,0,0,0-.724.913l1.644,1.644a1.942,1.942,0,0,1,.16,2.559,6.184,6.184,0,0,1-1.624,1.465,5.1,5.1,0,0,0,7.077,1.22,5.1,5.1,0,0,1-.69-7.8Z" fill="#f89580"/>
          <g id="Grupo_1101154" data-name="Grupo 1101154">
            <path id="Trazado_912016" data-name="Trazado 912016" d="M65.826,49.787a5.108,5.108,0,0,1,0-7.223l6.028-6.028a5.112,5.112,0,0,1,.985-.769,5.108,5.108,0,0,0-6.518.587l-6.028,6.028a5.108,5.108,0,0,0,6.238,7.992,5.138,5.138,0,0,1-.7-.587Z" fill="#f89580"/>
          </g>
          <g id="Grupo_1101155" data-name="Grupo 1101155">
            <path id="Trazado_912017" data-name="Trazado 912017" d="M55.657,36.047,42.712,23.1a8.864,8.864,0,0,0-12.535,0l-7.435,7.435a8.864,8.864,0,0,0,0,12.535l3.177,3.177c5.1,5.1,13.989,1.832,14.313-5.37q.01-.229.01-.461a10.04,10.04,0,0,0-2.776-6.941l1.515-1.515L46.46,39.44a6.248,6.248,0,0,0,9.371-.612,2.107,2.107,0,0,0-.174-2.78Z" fill="#ffcebf"/>
          </g>
          <g id="Grupo_1101157" data-name="Grupo 1101157">
            <g id="Grupo_1101156" data-name="Grupo 1101156">
              <path id="Trazado_912018" data-name="Trazado 912018" d="M23.681,36.926l8.965-8.965a6.7,6.7,0,0,1,9.475,0L54.364,40.2a6.343,6.343,0,0,0,1.468-1.377,2.107,2.107,0,0,0-.174-2.78L42.712,23.1a8.864,8.864,0,0,0-12.535,0l-7.435,7.435A8.866,8.866,0,0,0,21.313,41.2a8.817,8.817,0,0,1,2.368-4.274Z" fill="#ffb09e"/>
            </g>
          </g>
        </g>
      </g>
    </g>
  </g>
</svg>
