<svg xmlns="http://www.w3.org/2000/svg" xmlns:xlink="http://www.w3.org/1999/xlink" width="81.584" height="81.584" viewBox="0 0 81.584 81.584">
  <defs>
    <clipPath id="clip-path">
      <rect id="Rectángulo_403225" data-name="Rectángulo 403225" width="81" height="81" transform="translate(759.385 3466)" fill="#4045ab" stroke="#707070" stroke-width="1"/>
    </clipPath>
  </defs>
  <g id="Grupo_1101419" data-name="Grupo 1101419" transform="translate(-759.131 -3465.763)">
    <ellipse id="Elipse_11530" data-name="Elipse 11530" cx="40.792" cy="40.792" rx="40.792" ry="40.792" transform="translate(759.131 3465.763)" fill="#ffbd45"/>
    <g id="Enmascarar_grupo_1098749" data-name="Enmascarar grupo 1098749" clip-path="url(#clip-path)">
      <path id="gestion-de-riesgos" d="M75.48,53.559a1.227,1.227,0,1,1-1.228-1.228A1.229,1.229,0,0,1,75.48,53.559ZM22.894,45.011v4.864a1.227,1.227,0,0,1-2.454,0V45.011a1.227,1.227,0,1,1,2.454,0ZM49.186,15.727v4.864a1.227,1.227,0,0,1-2.455,0V15.727a1.227,1.227,0,0,1,2.455,0ZM22.894,53.559a1.227,1.227,0,1,1-1.227-1.228A1.229,1.229,0,0,1,22.894,53.559ZM75.48,45.011v4.864a1.227,1.227,0,0,1-2.455,0V45.011a1.227,1.227,0,0,1,2.455,0ZM49.186,24.273a1.227,1.227,0,1,1-1.227-1.227A1.23,1.23,0,0,1,49.186,24.273ZM77.352,69.778c-4.5,2.61-9.814,5.794-16.732,9.45-9.607,5.078-12.281,5.53-12.982,5.49-6.917-.395-14.012-1.692-20.923-.636V71.166a34.24,34.24,0,0,0,5.467-.69A36.972,36.972,0,0,0,37.99,68c4.531-2.174,4.786-2.118,9.075-1.182,2.2.477,8.556,1.666,8.574,3.823a2.674,2.674,0,0,1-.338,1.353,1.257,1.257,0,0,0-.216.19,2.516,2.516,0,0,1-2.249,1.006l-7.126-1.78a1.238,1.238,0,0,0-.554-.008l-4.089.878a1.227,1.227,0,1,0,.515,2.4l3.81-.818,6.85,1.711a3.832,3.832,0,0,0,.932.114A4.974,4.974,0,0,0,56.6,74.148l20.159-9.01a1.024,1.024,0,0,0,.116-.059c1.3-.754,3.922-.149,4.232.841C81.268,66.449,80.662,67.856,77.352,69.778ZM24.26,85.814a.194.194,0,0,1-.188.19H19.7a.2.2,0,0,1-.189-.19V70.034a.2.2,0,0,1,.189-.19h4.373a.2.2,0,0,1,.188.19ZM80.906,62.748a6.442,6.442,0,0,0-5.2.174L58.094,70.79v-.185c-.008-2.953-3.341-4.3-5.849-5.061-1.688-.51-3.147-.8-4.658-1.128-4.895-1.072-5.7-1.01-10.913,1.491a37.081,37.081,0,0,1-5.018,2.172,32.646,32.646,0,0,1-5.289.649,2.645,2.645,0,0,0-2.3-1.337H19.7a2.648,2.648,0,0,0-2.645,2.644v15.78A2.648,2.648,0,0,0,19.7,88.459h4.374A2.647,2.647,0,0,0,26.6,86.585c6.722-1.158,13.9.2,20.9.584,3.2.175,12.743-4.522,29.72-14.469.541-.317,1-.588,1.366-.8,4.864-2.824,5.33-5.205,4.864-6.707a4.029,4.029,0,0,0-2.542-2.446ZM47.959,48.777a1.263,1.263,0,1,1,1.263-1.263,1.264,1.264,0,0,1-1.263,1.263Zm0-4.981a3.718,3.718,0,1,0,3.718,3.718A3.724,3.724,0,0,0,47.959,43.8Zm4.815,2.916a1.232,1.232,0,0,1,.3-1.021l.844-.938-.588-1.017L52.094,44a1.226,1.226,0,0,1-1.036-.253c-1.114-.92-1.832-.682-2.121-1.571l-.39-1.2H47.371l-.389,1.2a1.237,1.237,0,0,1-.736.771c-1.367.515-1.506,1.248-2.423,1.054l-1.233-.262L42,44.753l.845.938c.512.567.232,1.084.232,1.823s.28,1.256-.232,1.825L42,50.275l.59,1.019,1.233-.264a1.234,1.234,0,0,1,1.036.254c1.119.922,1.833.683,2.123,1.57l.389,1.2h1.176l.388-1.2a1.229,1.229,0,0,1,.736-.771c1.353-.506,1.509-1.25,2.424-1.056l1.233.264.588-1.019-.844-.938a1.226,1.226,0,0,1-.3-1.021,4.985,4.985,0,0,0,0-1.6Zm3.65-2.522-1.354-2.346a1.4,1.4,0,0,0-1.5-.669l-1.438.306a7.323,7.323,0,0,0-1.03-.6l-.455-1.4a1.4,1.4,0,0,0-1.331-.966H46.6a1.4,1.4,0,0,0-1.33.966l-.453,1.4a7.2,7.2,0,0,0-1.032.6l-1.437-.306a1.4,1.4,0,0,0-1.5.669L39.493,44.19a1.4,1.4,0,0,0,.173,1.636l.983,1.091v1.192L39.663,49.2a1.4,1.4,0,0,0-.171,1.635l1.355,2.347a1.4,1.4,0,0,0,1.5.667l1.439-.3a7.409,7.409,0,0,0,1.032.6l.453,1.4a1.4,1.4,0,0,0,1.33.967h2.709a1.4,1.4,0,0,0,1.331-.967l.455-1.4a7.557,7.557,0,0,0,1.032-.6l1.433.3a1.4,1.4,0,0,0,1.506-.669l1.356-2.346a1.394,1.394,0,0,0-.174-1.634l-.983-1.093V46.918l.983-1.091a1.393,1.393,0,0,0,.172-1.636ZM82.559,55.646a.894.894,0,0,0,.041-.923l-7.5-15a.947.947,0,0,0-1.7,0l-7.5,15a.944.944,0,0,0,.849,1.373h15A.9.9,0,0,0,82.559,55.646Zm-34.6,5.147c9.784-3.384,10.732-12.041,10.592-21.535a21.8,21.8,0,0,1-10.592-5.278,21.8,21.8,0,0,1-10.59,5.278C37.227,48.753,38.176,57.41,47.959,60.794ZM29.973,55.646a.894.894,0,0,0,.041-.923l-7.5-15a.946.946,0,0,0-1.7,0l-7.5,15a.944.944,0,0,0,.849,1.373h15a.9.9,0,0,0,.808-.45Zm9.68-29.283a.9.9,0,0,0,.807.45h15a.945.945,0,0,0,.849-1.374l-7.5-15a.946.946,0,0,0-1.7,0l-7.5,15a.9.9,0,0,0,.04.924ZM84.795,53.625l-7.5-15a3.4,3.4,0,0,0-6.089,0l-4.53,9.06H60.631a61.548,61.548,0,0,0,.353-9.517A1.226,1.226,0,0,0,59.9,36.978a19.19,19.19,0,0,1-10.717-5.205V29.267h6.272A3.4,3.4,0,0,0,58.5,24.34l-7.5-15a3.4,3.4,0,0,0-6.09,0l-7.5,15a3.4,3.4,0,0,0,3.043,4.927h6.272v2.505a19.187,19.187,0,0,1-10.716,5.205,1.227,1.227,0,0,0-1.082,1.193,61.383,61.383,0,0,0,.354,9.517H29.241l-4.531-9.06a3.4,3.4,0,0,0-6.089,0l-7.5,15a3.4,3.4,0,0,0,3.044,4.926h15a3.4,3.4,0,0,0,3.045-4.926l-1.742-3.484h5.253c1.449,6.536,5.082,10.874,11.86,13.113a1.2,1.2,0,0,0,.758,0c6.774-2.238,10.411-6.579,11.86-13.113h5.253l-1.743,3.484a3.4,3.4,0,0,0,3.045,4.926h15a3.4,3.4,0,0,0,3.045-4.926Z" transform="translate(751.925 3458.541)" fill="#4045ab" fill-rule="evenodd"/>
    </g>
  </g>
</svg>
