<svg xmlns="http://www.w3.org/2000/svg" xmlns:xlink="http://www.w3.org/1999/xlink" width="86" height="86" viewBox="0 0 86 86">
  <defs>
    <clipPath id="clip-path">
      <rect id="Rectángulo_403059" data-name="Rectángulo 403059" width="86" height="86" transform="translate(752.718 3733)" fill="#fff" stroke="#707070" stroke-width="1"/>
    </clipPath>
  </defs>
  <g id="Grupo_1101405" data-name="Grupo 1101405" transform="translate(-752.718 -3733)">
    <g id="Grupo_1101404" data-name="Grupo 1101404">
      <g id="Enmascarar_grupo_1098712" data-name="Enmascarar grupo 1098712" clip-path="url(#clip-path)">
        <g id="dulce" transform="translate(738.384 3718.667)">
          <g id="Grupo_1101140" data-name="Grupo 1101140">
            <g id="XMLID_47_">
              <g id="Grupo_1101130" data-name="Grupo 1101130">
                <path id="Trazado_911981" data-name="Trazado 911981" d="M67.733,80.1a7.633,7.633,0,0,1,0,10.167l-4.249,4.615L59.26,99.466a2.575,2.575,0,0,1-3.853,0l-4.224-4.588-4.249-4.615a7.633,7.633,0,0,1,0-10.167,4.379,4.379,0,0,1,1.031-.786,6.688,6.688,0,0,1,7.079.254c1.247.822,2.29,1.66,2.29,1.66s1.042-.837,2.289-1.66a6.688,6.688,0,0,1,7.08-.254,4.374,4.374,0,0,1,1.03.786Z" fill="#f94b4b"/>
                <path id="Trazado_911982" data-name="Trazado 911982" d="M73.364,17.152a17.409,17.409,0,0,1,1.451,6.461,7.213,7.213,0,0,1-2.728,6.08c-3.245,2.43-10,3.107-23.348-1.049,0,0-2.74,4.293-6.729,4.513,0,0-.417-7.893-4.376-8.182s1.642-7.774,5.7-3.283c2.374,3.1-1.469-14.429,21.542-4.015A9.076,9.076,0,0,0,73.364,17.152Z" fill="#594f45"/>
                <path id="Trazado_911983" data-name="Trazado 911983" d="M72.087,29.692a26.608,26.608,0,0,1,.7,6.1c0,7.01-2.659,13.2-6.714,16.886h0a12.933,12.933,0,0,1-8.737,3.586,12.8,12.8,0,0,1-8.314-3.213c-4.292-3.637-7.137-10.008-7.137-17.259q0-1.339.127-2.633h0c3.989-.22,6.729-4.513,6.729-4.513,13.351,4.156,20.1,3.479,23.348,1.049Z" fill="#fbbd80"/>
                <path id="Trazado_911984" data-name="Trazado 911984" d="M66.071,52.676v9.283h-.423l-7.409,9.268-.007.009a1.165,1.165,0,0,1-1.8,0l-.007-.009L49.02,61.959V53.048a12.8,12.8,0,0,0,8.314,3.213,12.933,12.933,0,0,0,8.737-3.586Z" fill="#f2af72"/>
                <path id="Trazado_911985" data-name="Trazado 911985" d="M90.22,75.373V94.88H63.484l4.249-4.615a7.633,7.633,0,0,0,0-10.167,4.375,4.375,0,0,0-1.03-.786,6.688,6.688,0,0,0-7.08.254c-1.247.822-2.289,1.66-2.289,1.66s-1.043-.837-2.29-1.66a6.689,6.689,0,0,0-7.079-.254,4.376,4.376,0,0,0-1.031.786,7.633,7.633,0,0,0,0,10.167l4.249,4.615H24.447V75.373A13.413,13.413,0,0,1,37.86,61.959h11.16l7.409,9.268.007.009a1.165,1.165,0,0,0,1.8,0l.007-.009,7.409-9.268h11.16A13.413,13.413,0,0,1,90.22,75.373Z" fill="#ffd400"/>
              </g>
              <g id="Grupo_1101139" data-name="Grupo 1101139">
                <g id="Grupo_1101131" data-name="Grupo 1101131">
                  <path id="Trazado_911986" data-name="Trazado 911986" d="M39.435,79.766V94.879H36.661V79.766a1.387,1.387,0,1,1,2.774,0Z" fill="#ffbc00"/>
                </g>
                <g id="Grupo_1101132" data-name="Grupo 1101132">
                  <path id="Trazado_911987" data-name="Trazado 911987" d="M78.007,79.766V94.879H75.232V79.766a1.387,1.387,0,0,1,2.774,0Z" fill="#ffbc00"/>
                </g>
                <g id="Grupo_1101133" data-name="Grupo 1101133">
                  <path id="Trazado_911988" data-name="Trazado 911988" d="M51.14,38.482H48.813a1.387,1.387,0,1,1,0-2.774H51.14a1.387,1.387,0,1,1,0,2.774Z" fill="#f2af72"/>
                </g>
                <g id="Grupo_1101134" data-name="Grupo 1101134">
                  <path id="Trazado_911989" data-name="Trazado 911989" d="M65.854,38.482H63.527a1.387,1.387,0,1,1,0-2.774h2.327a1.387,1.387,0,1,1,0,2.774Z" fill="#f2af72"/>
                </g>
                <g id="Grupo_1101135" data-name="Grupo 1101135">
                  <path id="Trazado_911990" data-name="Trazado 911990" d="M59.4,95.7a1.387,1.387,0,0,1-1.02-2.327l3.765-4.088a1.387,1.387,0,0,1,2.041,1.879l-3.765,4.088A1.384,1.384,0,0,1,59.4,95.7Z" fill="#d13434"/>
                </g>
                <g id="Grupo_1101136" data-name="Grupo 1101136">
                  <path id="Trazado_911991" data-name="Trazado 911991" d="M49.723,83.747a1.387,1.387,0,0,1-.693-2.59,4.461,4.461,0,0,1,2.251-.607,1.387,1.387,0,0,1,0,2.774,1.7,1.7,0,0,0-.867.237,1.381,1.381,0,0,1-.691.185Z" fill="#d13434"/>
                </g>
                <g id="Grupo_1101137" data-name="Grupo 1101137">
                  <path id="Trazado_911992" data-name="Trazado 911992" d="M49.522,89.268A1.383,1.383,0,0,1,48.5,88.82a5.343,5.343,0,0,1-1.371-3.37,1.387,1.387,0,0,1,2.771-.131,2.567,2.567,0,0,0,.641,1.623,1.387,1.387,0,0,1-1.02,2.326Z" fill="#d13434"/>
                </g>
                <g id="Grupo_1101138" data-name="Grupo 1101138">
                  <path id="Trazado_911993" data-name="Trazado 911993" d="M57.023,50.669c-2.181,0-4.07-.732-4.93-1.909a1.387,1.387,0,0,1,2.24-1.636,3.891,3.891,0,0,0,2.689.771,3.9,3.9,0,0,0,2.691-.772,1.387,1.387,0,1,1,2.24,1.637c-.861,1.177-2.75,1.909-4.931,1.909Z" fill="#f2af72"/>
                </g>
              </g>
            </g>
          </g>
        </g>
      </g>
    </g>
  </g>
</svg>
