<svg xmlns="http://www.w3.org/2000/svg" xmlns:xlink="http://www.w3.org/1999/xlink" width="97" height="97" viewBox="0 0 97 97">
  <defs>
    <clipPath id="clip-path">
      <path id="Rectángulo_403141" data-name="Rectángulo 403141" d="M0,0H97a0,0,0,0,1,0,0V97a0,0,0,0,1,0,0H47A47,47,0,0,1,0,50V0A0,0,0,0,1,0,0Z" transform="translate(751.385 5418)" fill="#4045ab" stroke="#707070" stroke-width="1"/>
    </clipPath>
  </defs>
  <g id="Grupo_1101413" data-name="Grupo 1101413" transform="translate(-751.385 -5418)">
    <g id="Grupo_1101412" data-name="Grupo 1101412">
      <ellipse id="Elipse_11556" data-name="Elipse 11556" cx="48.226" cy="48.226" rx="48.226" ry="48.226" transform="translate(751.385 5418.026)" fill="#ee4f47"/>
      <g id="Enmascarar_grupo_1098739" data-name="Enmascarar grupo 1098739" clip-path="url(#clip-path)">
        <g id="concentracion" transform="translate(751.385 5418)">
          <g id="Grupo_1101372" data-name="Grupo 1101372">
            <path id="Trazado_912747" data-name="Trazado 912747" d="M51.774,44.819a5.7,5.7,0,0,0,6.723,0,1.421,1.421,0,0,0-1.67-2.3,2.87,2.87,0,0,1-3.382,0,1.421,1.421,0,1,0-1.67,2.3Z" fill="#4045ab"/>
            <path id="Trazado_912748" data-name="Trazado 912748" d="M45.226,44.819a1.421,1.421,0,1,0-1.67-2.3,2.87,2.87,0,0,1-3.382,0,1.421,1.421,0,1,0-1.67,2.3,5.7,5.7,0,0,0,6.723,0Z" fill="#4045ab"/>
            <path id="Trazado_912749" data-name="Trazado 912749" d="M43.812,49.589a1.421,1.421,0,0,0,.663,1.019l3.28,2.017A1.421,1.421,0,0,0,49.244,50.2l-1.8-1.109,2.1-2.261A1.421,1.421,0,0,0,47.459,44.9l-3.28,3.53a1.421,1.421,0,0,0-.367,1.159Z" fill="#4045ab"/>
            <path id="Trazado_912750" data-name="Trazado 912750" d="M52.312,58.241a2.479,2.479,0,0,0,2.148-1.247l.54-.944a1.421,1.421,0,0,0-2.467-1.41L52.1,55.4H44.9l-.433-.759A1.421,1.421,0,0,0,42,56.051l.539.944a2.479,2.479,0,0,0,2.148,1.247h7.625Z" fill="#4045ab"/>
            <path id="Trazado_912751" data-name="Trazado 912751" d="M71.144,24.264a2.008,2.008,0,0,0,.238-.014l9.972-1.181a1.989,1.989,0,0,0,1.173-3.382L81.38,18.541l5.953-5.953a1.989,1.989,0,0,0,0-2.813L83.648,6.089a1.99,1.99,0,0,0-2.814,0l-5.953,5.953L73.736,10.9a1.989,1.989,0,0,0-3.382,1.173L69.172,22.04a1.99,1.99,0,0,0,1.971,2.224Zm1.825-10.116.506.506a1.989,1.989,0,0,0,2.813,0L82.241,8.7l2.48,2.48-5.954,5.954a1.992,1.992,0,0,0,0,2.813l.506.506-7.153.847Z" fill="#4045ab"/>
            <path id="Trazado_912752" data-name="Trazado 912752" d="M15.62,18.541l-1.146,1.146a1.989,1.989,0,0,0,1.173,3.382l9.972,1.181a2.048,2.048,0,0,0,.238.014,1.99,1.99,0,0,0,1.972-2.224l-1.181-9.972A1.989,1.989,0,0,0,23.264,10.9l-1.146,1.146L16.165,6.089a1.992,1.992,0,0,0-2.813,0L9.666,9.775a1.992,1.992,0,0,0,0,2.813ZM23.825,12.4h0ZM14.759,8.7l5.953,5.953a1.989,1.989,0,0,0,2.813,0l.506-.506.847,7.153-7.153-.847.506-.506a1.989,1.989,0,0,0,0-2.813l-5.953-5.953Z" fill="#4045ab"/>
            <path id="Trazado_912753" data-name="Trazado 912753" d="M94.484,36.7H82.675v-1.62a1.989,1.989,0,0,0-3.221-1.562l-7.887,6.216a1.99,1.99,0,0,0,0,3.125l7.887,6.216a1.989,1.989,0,0,0,3.221-1.562V45.9H94.484a1.991,1.991,0,0,0,1.989-1.989V38.694a1.992,1.992,0,0,0-1.989-1.99Zm-.853,6.349H81.823a1.991,1.991,0,0,0-1.989,1.989v.716L74.177,41.3l5.657-4.459v.716a1.991,1.991,0,0,0,1.989,1.989H93.632Z" fill="#4045ab"/>
            <path id="Trazado_912754" data-name="Trazado 912754" d="M4.926,43.053H3.368V39.546H15.177a1.991,1.991,0,0,0,1.989-1.989v-.715L22.823,41.3l-5.657,4.458v-.715a1.991,1.991,0,0,0-1.989-1.989h-3.62a1.421,1.421,0,0,0,0,2.842h2.768v1.62a1.975,1.975,0,0,0,1.121,1.79,1.976,1.976,0,0,0,2.1-.228l7.887-6.216a1.989,1.989,0,0,0,0-3.125l-7.887-6.216a1.989,1.989,0,0,0-3.221,1.562V36.7H2.516A1.991,1.991,0,0,0,.527,38.693v5.213A1.991,1.991,0,0,0,2.516,45.9h2.41a1.421,1.421,0,0,0,0-2.842Z" fill="#4045ab"/>
            <path id="Trazado_912755" data-name="Trazado 912755" d="M81.38,65.448,82.526,64.3a1.989,1.989,0,0,0-1.173-3.382l-9.972-1.181a1.989,1.989,0,0,0-2.209,2.21l.8,6.715H59.61V67.328a3.943,3.943,0,0,0-1.547-3.12l-.9-.682A10.2,10.2,0,0,0,63.226,55.6h.666a6.81,6.81,0,0,0,6.8-6.8V47.758a6.8,6.8,0,0,0-2.843-5.526V38.838a1.421,1.421,0,1,0-2.842,0v2.21a6.818,6.818,0,0,0-1.118-.093h-.566V37.676a4.377,4.377,0,0,0-3.267-4.228V28.279a7.846,7.846,0,0,0-.147-1.506h.092a5.011,5.011,0,0,1,5,5v.429a1.421,1.421,0,0,0,2.842,0v-.429a7.855,7.855,0,0,0-7.847-7.847H58.741a7.86,7.86,0,0,0-5.24-3.389l2.777-3.524A1.989,1.989,0,0,0,54.716,13.8H53.1V1.989A1.991,1.991,0,0,0,51.106,0H45.894A1.991,1.991,0,0,0,43.9,1.989V13.8h-1.62a1.989,1.989,0,0,0-1.562,3.221l2.691,3.414H34.688a6,6,0,0,0-5.937,6.861l.224,1.539a8.406,8.406,0,0,0,.173.863V42.231a6.8,6.8,0,0,0-2.843,5.526V48.8a6.81,6.81,0,0,0,6.8,6.8h.666a10.2,10.2,0,0,0,6.059,7.921l-.9.683a3.943,3.943,0,0,0-1.547,3.12v1.335H27.032l.8-6.715a1.989,1.989,0,0,0-2.209-2.21l-9.972,1.181A1.989,1.989,0,0,0,14.474,64.3l1.146,1.146L9.666,71.4a1.992,1.992,0,0,0,0,2.813l2.771,2.771a9.74,9.74,0,0,0-.115,1.485V93.685A3.319,3.319,0,0,0,15.638,97H81.362a3.319,3.319,0,0,0,3.315-3.315V88.854a1.421,1.421,0,0,0-2.842,0v4.831a.474.474,0,0,1-.474.474H54.939l-2.43-12.6,1.708-1.941,1.45,1.292a2.345,2.345,0,0,0,1.567.6,2.384,2.384,0,0,0,.978-.212,2.341,2.341,0,0,0,1.4-2.161V71.5H70.3l.049.415a1.989,1.989,0,0,0,3.382,1.172l1.146-1.146L80.834,77.9a1.976,1.976,0,0,0,1,.541c0,.01,0,.02,0,.03v3.753a1.421,1.421,0,0,0,2.842,0V78.47a9.764,9.764,0,0,0-.115-1.485l2.771-2.771a1.989,1.989,0,0,0,0-2.813ZM63.327,43.8h.566a3.965,3.965,0,0,1,3.961,3.961V48.8a3.965,3.965,0,0,1-3.961,3.961h-.566ZM44.757,16.64a1.991,1.991,0,0,0,1.989-1.989V2.842h3.508V14.65a1.991,1.991,0,0,0,1.989,1.989h.715L48.5,22.3,44.042,16.64ZM32.3,24.366a3.155,3.155,0,0,1,2.388-1.091H45.652L46.938,24.9a1.99,1.99,0,0,0,3.125,0l1.285-1.631h.865a5.011,5.011,0,0,1,5,5v5.027H37.429a5.732,5.732,0,0,1-5.642-4.882l-.224-1.539a3.155,3.155,0,0,1,.737-2.52Zm1.373,28.4h-.566A3.965,3.965,0,0,1,29.147,48.8V47.757A3.965,3.965,0,0,1,33.108,43.8h.566Zm0-15.087v3.278h-.566a6.818,6.818,0,0,0-1.118.093V34.171a8.636,8.636,0,0,0,2.254,1.35,4.341,4.341,0,0,0-.571,2.155Zm2.842,16.506V37.676a1.53,1.53,0,0,1,1.528-1.528H58.957a1.529,1.529,0,0,1,1.528,1.528V54.182a7.334,7.334,0,0,1-7.326,7.326H43.841a7.334,7.334,0,0,1-7.326-7.326Zm5.714,14.18,4.2,4.2-6.2,5.526V67.328a1.085,1.085,0,0,1,.426-.859l1.156-.88v1.767A1.42,1.42,0,0,0,42.229,68.362Zm2.425-1.594V64.35h7.69v2.418L48.5,70.61ZM12.279,72.807l5.953-5.953a1.989,1.989,0,0,0,0-2.813l-.506-.506,7.152-.847-.847,7.153-.506-.506a1.992,1.992,0,0,0-2.813,0l-5.953,5.953ZM42.061,94.158H15.638a.474.474,0,0,1-.474-.474V78.47c0-.01,0-.02,0-.029a1.974,1.974,0,0,0,1-.541l5.953-5.953,1.146,1.146a1.989,1.989,0,0,0,3.382-1.172L26.7,71.5H37.389v7.638a2.368,2.368,0,0,0,3.944,1.768l1.45-1.292,1.708,1.941Zm2.894,0,1.913-9.917a2.361,2.361,0,0,0,3.264,0l1.913,9.917ZM48.5,81.812l-3.6-4.085,3.6-3.2,3.6,3.2Zm8.269-3.726-6.2-5.526,4.2-4.2a1.421,1.421,0,0,0,.417-1.005V65.59l1.156.88a1.086,1.086,0,0,1,.426.859Zm25.472-2.8-5.953-5.953a1.99,1.99,0,0,0-2.814,0l-.506.506-.847-7.152,7.153.847-.506.506a1.992,1.992,0,0,0,0,2.813l5.953,5.953Z" fill="#4045ab"/>
          </g>
        </g>
      </g>
    </g>
  </g>
</svg>
