<svg xmlns="http://www.w3.org/2000/svg" xmlns:xlink="http://www.w3.org/1999/xlink" width="85" height="85" viewBox="0 0 85 85">
  <defs>
    <clipPath id="clip-path">
      <path id="Rectángulo_403262" data-name="Rectángulo 403262" d="M0,0H85a0,0,0,0,1,0,0V43A42,42,0,0,1,43,85H0a0,0,0,0,1,0,0V0A0,0,0,0,1,0,0Z" transform="translate(1125.385 1202)" fill="#ffbd45" stroke="#707070" stroke-width="1"/>
    </clipPath>
  </defs>
  <g id="Grupo_1101398" data-name="Grupo 1101398" transform="translate(-1125.385 -1202)">
    <g id="Grupo_1101397" data-name="Grupo 1101397">
      <g id="Grupo_1101396" data-name="Grupo 1101396">
        <circle id="Elipse_11562" data-name="Elipse 11562" cx="42.5" cy="42.5" r="42.5" transform="translate(1125.385 1202)" fill="#4045ab"/>
        <g id="Enmascarar_grupo_1098745" data-name="Enmascarar grupo 1098745" clip-path="url(#clip-path)">
          <path id="negociacion-salarial_1_" data-name="negociacion-salarial (1)" d="M18.837,69.192a4.035,4.035,0,0,1-4.765,2.819l-4.354-1A4.033,4.033,0,0,1,6.693,66.2l5.416-23.65a4.033,4.033,0,0,1,4.818-3.024l4.355,1a4.038,4.038,0,0,1,3.105,3.536H39.232A10.822,10.822,0,0,1,42.615,41.7h0a8.01,8.01,0,0,1,6.641.343c2.054.9,4.5,2.511,8.166,4.557a4.732,4.732,0,0,0,4.3.245l1.879-.818-.158-.689h0a4.034,4.034,0,0,1,3.024-4.817l4.355-1a4.033,4.033,0,0,1,4.818,3.023L81.06,66.2a4.033,4.033,0,0,1-3.023,4.818l-4.352,1h0A4.039,4.039,0,0,1,69.429,70.3l-3.523,1.557a4.875,4.875,0,0,1-4.627,6.285A4.88,4.88,0,0,1,53.048,82.4a4.847,4.847,0,0,1-1.271,2.23,4.9,4.9,0,0,1-6.911,0l-1.913-1.913a4.846,4.846,0,0,1-1.272,2.233,4.9,4.9,0,0,1-6.9,0Zm5.211-22.728-4.573,19.97,17,16.808.006.006a2.476,2.476,0,0,0,3.5-3.505l-4.21-4.21a1.2,1.2,0,0,1,1.7-1.7l9.1,9.1a2.476,2.476,0,0,0,3.511-3.493L41.8,71.152a1.2,1.2,0,1,1,1.7-1.7L54.709,80.656a2.48,2.48,0,0,0,3.5,0h0a2.485,2.485,0,0,0,0-3.5L47.359,66.3a1.2,1.2,0,0,1,1.7-1.7L59.481,75.018a2.476,2.476,0,1,0,3.5-3.5L49.464,58h0a4.894,4.894,0,0,0-6.291-.567c-3.543,2.455-7.158,4.367-10.6,3.437A9.036,9.036,0,0,1,28.01,57.7,1.2,1.2,0,0,1,28.162,56c3.241-2.718,6.154-6.553,8.781-9.541Zm40.1,1.951-1.466.638h0a7.073,7.073,0,0,1-6.435-.352h0c-3.573-2-5.958-3.574-7.962-4.456a5.827,5.827,0,0,0-4.827-.291c-1.4.525-2.887,2.047-4.534,3.9-2.487,2.806-5.238,6.387-8.265,9.158A5.942,5.942,0,0,0,33.2,58.54a6.25,6.25,0,0,0,4-.433,24.313,24.313,0,0,0,4.6-2.66h0a7.286,7.286,0,0,1,9.365.846L64.655,69.781l3.987-1.762Zm7.063,20.049a1.622,1.622,0,0,0,1.934,1.2l4.351-1h0a1.617,1.617,0,0,0,1.212-1.932L73.3,43.082h0a1.617,1.617,0,0,0-1.932-1.212l-4.355,1A1.619,1.619,0,0,0,65.8,44.8l5.42,23.664ZM16.39,41.87a1.617,1.617,0,0,0-1.932,1.212L9.041,66.734a1.617,1.617,0,0,0,1.212,1.932l4.355,1a1.62,1.62,0,0,0,1.933-1.215L21.957,44.8a1.619,1.619,0,0,0-1.212-1.933ZM15.331,28.283,8.521,38.348a1.2,1.2,0,0,1-2.2-.675v-9.39H5.267a4.131,4.131,0,0,1-3.891-4.311V5.689A4.131,4.131,0,0,1,5.267,1.377h28.7a4.131,4.131,0,0,1,3.891,4.311V23.972a4.131,4.131,0,0,1-3.891,4.311Zm-.639-2.409H33.964a1.726,1.726,0,0,0,1.482-1.9V5.689a1.726,1.726,0,0,0-1.482-1.9H5.267a1.726,1.726,0,0,0-1.482,1.9V23.972a1.726,1.726,0,0,0,1.482,1.9H7.523a1.2,1.2,0,0,1,1.2,1.2v6.665l4.966-7.34a1.2,1.2,0,0,1,1-.529Zm3.7-17.592L18.373,7.6a1.2,1.2,0,0,1,2.408-.058l.019.768a6.4,6.4,0,0,1,1.25.494,3.841,3.841,0,0,1,1.4,1.177,1.2,1.2,0,1,1-2.013,1.323,1.4,1.4,0,0,0-.514-.371,3.2,3.2,0,0,0-1.309-.4,1.833,1.833,0,0,0-1.985,1.644,1.833,1.833,0,0,0,1.985,1.644,4.236,4.236,0,0,1,4.394,4.052,4.126,4.126,0,0,1-3.166,3.892l.014.576a1.2,1.2,0,0,1-2.408.059l-.015-.6a5.056,5.056,0,0,1-2.314-1.422,1.2,1.2,0,1,1,1.652-1.754,2.439,2.439,0,0,0,1.843.9A1.833,1.833,0,0,0,21.6,17.871a1.832,1.832,0,0,0-1.985-1.644,4.236,4.236,0,0,1-4.394-4.052,4.124,4.124,0,0,1,3.168-3.893Zm54.032,20H53.79A4.131,4.131,0,0,1,49.9,23.972V5.689A4.131,4.131,0,0,1,53.79,1.377h28.7a4.131,4.131,0,0,1,3.891,4.311V23.972a4.131,4.131,0,0,1-3.891,4.311H81.434v9.39a1.2,1.2,0,0,1-2.2.675ZM74.059,26.4l4.966,7.34V27.079a1.2,1.2,0,0,1,1.2-1.2h2.256a1.726,1.726,0,0,0,1.482-1.9V5.689a1.726,1.726,0,0,0-1.482-1.9H53.79a1.726,1.726,0,0,0-1.482,1.9V23.972a1.726,1.726,0,0,0,1.482,1.9H73.061A1.2,1.2,0,0,1,74.059,26.4Zm-1.072-3.851a3.745,3.745,0,0,1-3.375-4,3.424,3.424,0,1,1,6.75,0A3.745,3.745,0,0,1,72.987,22.553Zm0-2.409a.771.771,0,0,0,.583-.354,2.2,2.2,0,0,0,0-2.48.658.658,0,0,0-1.166,0,2.2,2.2,0,0,0,0,2.48A.771.771,0,0,0,72.987,20.144Zm-9.7-4.751a3.743,3.743,0,0,1-3.375-4,3.743,3.743,0,0,1,3.375-4,3.743,3.743,0,0,1,3.375,4A3.743,3.743,0,0,1,63.289,15.393Zm0-2.409a.771.771,0,0,0,.583-.353,2.2,2.2,0,0,0,0-2.48.658.658,0,0,0-1.167,0,2.2,2.2,0,0,0,0,2.48.771.771,0,0,0,.583.353Zm8.078-6.015a1.2,1.2,0,0,1,2.086,1.2l-8.544,14.8a1.2,1.2,0,0,1-2.086-1.2Z" transform="translate(1124.008 1200.623)" fill="#ffbd45" fill-rule="evenodd"/>
        </g>
      </g>
    </g>
  </g>
</svg>
