<svg xmlns="http://www.w3.org/2000/svg" xmlns:xlink="http://www.w3.org/1999/xlink" width="82" height="82" viewBox="0 0 82 82">
  <defs>
    <clipPath id="clip-path">
      <path id="Rect치ngulo_403037" data-name="Rect치ngulo 403037" d="M0,0H82a0,0,0,0,1,0,0V82a0,0,0,0,1,0,0H39A39,39,0,0,1,0,43V0A0,0,0,0,1,0,0Z" transform="translate(1179.718 1696)" fill="#ee4f47" stroke="#707070" stroke-width="1"/>
    </clipPath>
  </defs>
  <g id="Grupo_1101407" data-name="Grupo 1101407" transform="translate(-1179.718 -1696)">
    <g id="Grupo_1101406" data-name="Grupo 1101406">
      <g id="Grupo_1101405" data-name="Grupo 1101405">
        <ellipse id="Elipse_11531" data-name="Elipse 11531" cx="40.792" cy="40.792" rx="40.792" ry="40.792" transform="translate(1179.849 1696.416)" fill="#ffbd45"/>
        <g id="Enmascarar_grupo_1098709" data-name="Enmascarar grupo 1098709" clip-path="url(#clip-path)">
          <g id="sangre" transform="translate(1179.718 1696)">
            <g id="Grupo_1101071" data-name="Grupo 1101071">
              <g id="Grupo_1101070" data-name="Grupo 1101070">
                <rect id="Rect치ngulo_403038" data-name="Rect치ngulo 403038" width="2.424" height="2.645" transform="translate(22.898 15.305) rotate(-64.673)" fill="#ee4f47"/>
              </g>
            </g>
            <g id="Grupo_1101073" data-name="Grupo 1101073">
              <g id="Grupo_1101072" data-name="Grupo 1101072">
                <path id="Trazado_911859" data-name="Trazado 911859" d="M21.8,17.619,7.195,48.451a19.917,19.917,0,0,0-1.9,8.471H7.935a17.271,17.271,0,0,1,1.651-7.34L24.191,18.75Z" fill="#ee4f47"/>
              </g>
            </g>
            <g id="Grupo_1101075" data-name="Grupo 1101075">
              <g id="Grupo_1101074" data-name="Grupo 1101074">
                <path id="Trazado_911860" data-name="Trazado 911860" d="M54.226,26.452A27.572,27.572,0,0,0,40.29,30.239L26.325.757a1.323,1.323,0,0,0-2.391,0L2.414,46.187A25.078,25.078,0,0,0,25.181,82a24.927,24.927,0,0,0,14.142-4.375,27.761,27.761,0,1,0,14.9-51.173Zm-29.148,52.9A22.433,22.433,0,0,1,4.8,47.318L25.129,4.412,38.052,31.693A27.688,27.688,0,0,0,37,75.974,22.4,22.4,0,0,1,25.077,79.355Zm29.148,0A25.129,25.129,0,1,1,79.355,54.226,25.157,25.157,0,0,1,54.226,79.355Z" fill="#ee4f47"/>
              </g>
            </g>
            <g id="Grupo_1101077" data-name="Grupo 1101077">
              <g id="Grupo_1101076" data-name="Grupo 1101076">
                <path id="Trazado_911861" data-name="Trazado 911861" d="M54.226,33.065c-6.563,0-11.9,4.154-11.9,9.258s5.341,9.258,11.9,9.258,11.9-4.154,11.9-9.258S60.788,33.065,54.226,33.065Zm0,15.871c-5.105,0-9.258-2.967-9.258-6.613s4.153-6.613,9.258-6.613,9.258,2.967,9.258,6.613S59.331,48.935,54.226,48.935Z" fill="#ee4f47"/>
              </g>
            </g>
            <g id="Grupo_1101079" data-name="Grupo 1101079">
              <g id="Grupo_1101078" data-name="Grupo 1101078">
                <path id="Trazado_911862" data-name="Trazado 911862" d="M57.768,39.1a11.249,11.249,0,0,1-7.085,0l-.85,2.506a13.867,13.867,0,0,0,8.786,0Z" fill="#ee4f47"/>
              </g>
            </g>
            <g id="Grupo_1101081" data-name="Grupo 1101081">
              <g id="Grupo_1101080" data-name="Grupo 1101080">
                <path id="Trazado_911863" data-name="Trazado 911863" d="M66.827,57.425a11.222,11.222,0,0,1-5.479,4.491l.93,2.477a13.853,13.853,0,0,0,6.8-5.571Z" fill="#ee4f47"/>
              </g>
            </g>
            <g id="Grupo_1101083" data-name="Grupo 1101083">
              <g id="Grupo_1101082" data-name="Grupo 1101082">
                <path id="Trazado_911864" data-name="Trazado 911864" d="M75.059,54.519a7.733,7.733,0,0,0-5.44-2.892,12.433,12.433,0,0,0-9.205,3.285C55.544,59.131,54.1,65.812,57.2,69.8a7.733,7.733,0,0,0,5.44,2.892q.476.048.958.048a12.835,12.835,0,0,0,8.248-3.334C76.714,65.19,78.157,58.51,75.059,54.519ZM70.113,67.411A10,10,0,0,1,62.9,70.064a5.042,5.042,0,0,1-3.609-1.882c-2.25-2.9-.968-7.955,2.857-11.27a10.336,10.336,0,0,1,6.535-2.686c.229,0,.455.012.677.033a5.042,5.042,0,0,1,3.609,1.882C75.219,59.041,73.938,64.1,70.113,67.411Z" fill="#ee4f47"/>
              </g>
            </g>
            <g id="Grupo_1101085" data-name="Grupo 1101085">
              <g id="Grupo_1101084" data-name="Grupo 1101084">
                <path id="Trazado_911865" data-name="Trazado 911865" d="M44,60.115a10.954,10.954,0,0,1-2.374-2.69l-2.246,1.4a13.842,13.842,0,0,0,6.794,5.571l.93-2.477A10.95,10.95,0,0,1,44,60.115Z" fill="#ee4f47"/>
              </g>
            </g>
            <g id="Grupo_1101087" data-name="Grupo 1101087">
              <g id="Grupo_1101086" data-name="Grupo 1101086">
                <path id="Trazado_911866" data-name="Trazado 911866" d="M48.037,54.914a12.446,12.446,0,0,0-9.205-3.285,7.731,7.731,0,0,0-5.44,2.892c-3.1,3.992-1.655,10.671,3.215,14.891a12.845,12.845,0,0,0,8.248,3.334c.321,0,.641-.016.958-.048a7.731,7.731,0,0,0,5.44-2.892C54.35,65.813,52.907,59.133,48.037,54.914Zm1.126,13.268a5.047,5.047,0,0,1-3.609,1.882,9.991,9.991,0,0,1-7.213-2.653c-3.826-3.314-5.106-8.369-2.857-11.27a5.047,5.047,0,0,1,3.609-1.882c.222-.021.448-.033.677-.033a10.339,10.339,0,0,1,6.536,2.686C50.131,60.226,51.413,65.281,49.163,68.182Z" fill="#ee4f47"/>
              </g>
            </g>
          </g>
        </g>
      </g>
    </g>
  </g>
</svg>
