<svg xmlns="http://www.w3.org/2000/svg" xmlns:xlink="http://www.w3.org/1999/xlink" width="81.584" height="81.584" viewBox="0 0 81.584 81.584">
  <defs>
    <clipPath id="clip-path">
      <rect id="Rectángulo_403224" data-name="Rectángulo 403224" width="81" height="81" transform="translate(341.385 3466)" fill="#4045ab" stroke="#707070" stroke-width="1"/>
    </clipPath>
  </defs>
  <g id="Grupo_1101418" data-name="Grupo 1101418" transform="translate(-341.131 -3465.763)">
    <g id="Grupo_1101417" data-name="Grupo 1101417">
      <ellipse id="Elipse_11525" data-name="Elipse 11525" cx="40.792" cy="40.792" rx="40.792" ry="40.792" transform="translate(341.131 3465.763)" fill="#ffbd45"/>
      <g id="Enmascarar_grupo_1098748" data-name="Enmascarar grupo 1098748" clip-path="url(#clip-path)">
        <g id="servicio-al-cliente2" transform="translate(338.474 3454.837)">
          <path id="Trazado_912778" data-name="Trazado 912778" d="M82.761,51.747l.291-.582a8.311,8.311,0,0,0-2.833-10.586l-.671-.451a5.419,5.419,0,0,1-2.417-4.5V34.17a13.014,13.014,0,0,0-.654-4.073A1.455,1.455,0,0,0,73.71,31a10.13,10.13,0,0,1,.509,3.165v1.455c0,.041.007.08.007.119a5.546,5.546,0,0,0-4.373-2.273c-.036,0-.07.012-.106.012a14.645,14.645,0,0,0-6.785-11,10.64,10.64,0,0,1,4.11,1.512l2.315,1.455a9.6,9.6,0,0,1,1.6,1.241,1.456,1.456,0,0,0,2-2.112,12.54,12.54,0,0,0-2.078-1.6l-2.3-1.441a12.92,12.92,0,0,0-13.6-.259,11.52,11.52,0,0,0-1.284.953c-.205-.058-.409-.121-.617-.163A9.993,9.993,0,0,0,41.142,34.094l.728,3.513a2.989,2.989,0,0,1-.39,2.192l-2.138,3.44a5.892,5.892,0,0,0-.309,5.676l.835,1.746a3,3,0,0,1-.109,2.8,5.885,5.885,0,0,0,.469,6.626,1.455,1.455,0,1,0,2.289-1.8,2.989,2.989,0,0,1-.24-3.369,5.91,5.91,0,0,0,.217-5.53l-.835-1.746a2.991,2.991,0,0,1,.156-2.881L43.95,41.33a5.887,5.887,0,0,0,.767-4.318L43.989,33.5a7.057,7.057,0,0,1,7.655-8.713,6.28,6.28,0,0,0-.709,2.864,6,6,0,0,0,.146,1.237,16.093,16.093,0,0,0-4.511,11.146v3.625A11.642,11.642,0,0,0,52.39,53.726v.993a13.482,13.482,0,0,0-6.427,5.112l-7.921,7.921-.291-2.988A7.255,7.255,0,0,0,30.5,58.212H10.187a7.276,7.276,0,0,0-7.24,8l.517,5.171a1.456,1.456,0,0,0,2.9-.291l-.517-5.171a4.366,4.366,0,0,1,4.343-4.8H30.5a4.35,4.35,0,0,1,4.344,3.929l2.067,20.665a1.455,1.455,0,0,1-1.447,1.6H11.933a4.353,4.353,0,0,1-4.344-3.929l-.649-6.5a1.456,1.456,0,0,0-2.9.291l.651,6.5a7.255,7.255,0,0,0,7.24,6.549H71.309A8.74,8.74,0,0,0,80.041,81.5V72.764a1.455,1.455,0,0,0-2.911,0V81.5a5.821,5.821,0,0,1-5.821,5.821H55.3V82.825L69.985,81.5a1.455,1.455,0,0,0,1.324-1.455V68.4a1.455,1.455,0,1,0-2.911,0V78.712L53.777,80.041H50.867a12.952,12.952,0,0,0-2.392-6.795,10.091,10.091,0,0,1-1.9-5.923A10.6,10.6,0,0,1,52.5,57.848a5.821,5.821,0,0,0,5.711,4.73,8.732,8.732,0,0,0,8.222-5.821h.509A10.2,10.2,0,0,1,77.13,66.943a1.455,1.455,0,0,0,2.911,0c0-.255-.023-.5-.038-.755a8.305,8.305,0,0,0,2.638-9.912,5.318,5.318,0,0,1,.119-4.529Zm-42,29.749,5.808-5.807a10.033,10.033,0,0,1,1.41,4.573A5.778,5.778,0,0,0,45.67,81.5ZM43.707,66.2c-.032.371-.048.744-.048,1.121a12.978,12.978,0,0,0,1.362,5.8l-5.856,5.855-.745-7.483Zm-4,18.2h4.158a5.732,5.732,0,0,0-.207,1.455v1.455H39.572a4.353,4.353,0,0,0,.237-1.892ZM52.39,87.317H46.569V85.862a2.911,2.911,0,0,1,2.911-2.911H52.39Zm20.374-47.3a3.347,3.347,0,0,1-2.911,3.638,3.347,3.347,0,0,1-2.911-3.638,3.347,3.347,0,0,1,2.911-3.638,3.347,3.347,0,0,1,2.911,3.638Zm-16.2-16.286a8.774,8.774,0,0,1,1.081-.565l2.152.924a11.767,11.767,0,0,1,7,8.985,5.3,5.3,0,0,0-2.534-.575,13.264,13.264,0,0,1-10.258-4.378,1.3,1.3,0,0,0-.115-.084,3.024,3.024,0,0,1-.045-.391,4.938,4.938,0,0,1,2.72-3.916ZM49.48,43.659V40.034a13.192,13.192,0,0,1,3.434-8.875,16.445,16.445,0,0,0,11.423,4.254,2.4,2.4,0,0,1,1.189.269,6.961,6.961,0,0,0-1.493,4.338,7.084,7.084,0,0,0,.9,3.468l-1.121.806a12.029,12.029,0,0,1-7.06,2.275,1.455,1.455,0,0,0,0,2.911,14.918,14.918,0,0,0,8.759-2.823l1.119-.806A8.716,8.716,0,0,1,49.48,43.659Zm8.732,16.008A2.911,2.911,0,0,1,55.3,56.756V54.918a11.5,11.5,0,0,0,8.732-1.182v.109A5.821,5.821,0,0,1,58.212,59.667Zm22.224-9.791-.291.582a8.211,8.211,0,0,0-.182,6.972,5.42,5.42,0,0,1-.616,5.354,13.114,13.114,0,0,0-12.4-8.938V51.354a11.571,11.571,0,0,0,2.539-4.827c.125.009.244.042.371.042a6.182,6.182,0,0,0,5.8-6.3,8.382,8.382,0,0,0,2.267,2.267l.675.456A5.4,5.4,0,0,1,80.435,49.876Z" fill="#4045ab"/>
          <path id="Trazado_912779" data-name="Trazado 912779" d="M24.74,74.22a4.366,4.366,0,1,0-4.366,4.366A4.366,4.366,0,0,0,24.74,74.22Zm-5.821,0a1.455,1.455,0,1,1,1.455,1.455A1.455,1.455,0,0,1,18.919,74.22Z" fill="#4045ab"/>
          <path id="Trazado_912780" data-name="Trazado 912780" d="M10.187,42.2h8.129l9.761,9.761a1.455,1.455,0,0,0,1.029.426,1.437,1.437,0,0,0,.557-.111,1.455,1.455,0,0,0,.9-1.345V42.2a7.285,7.285,0,0,0,7.276-7.276V20.374A7.285,7.285,0,0,0,30.561,13.1a1.455,1.455,0,1,0,0,2.911,4.366,4.366,0,0,1,4.366,4.366V34.927a4.366,4.366,0,0,1-4.366,4.366H29.106a1.455,1.455,0,0,0-1.455,1.455v6.674l-7.7-7.7a1.455,1.455,0,0,0-1.029-.426H10.187a4.366,4.366,0,0,1-4.366-4.366V20.374a4.366,4.366,0,0,1,4.366-4.366H24.74a1.455,1.455,0,1,0,0-2.911H10.187a7.285,7.285,0,0,0-7.276,7.276V34.927A7.285,7.285,0,0,0,10.187,42.2Z" fill="#4045ab"/>
          <path id="Trazado_912781" data-name="Trazado 912781" d="M13.1,18.919A4.347,4.347,0,0,0,9.867,26.2a4.338,4.338,0,0,0-1.135,2.911v2.911a1.455,1.455,0,0,0,1.455,1.455h5.821a1.455,1.455,0,0,0,1.455-1.455V29.106A4.338,4.338,0,0,0,16.328,26.2,4.347,4.347,0,0,0,13.1,18.919Zm0,2.911a1.455,1.455,0,1,1-1.455,1.455A1.455,1.455,0,0,1,13.1,21.829Zm1.455,8.732H11.642V29.106a1.455,1.455,0,1,1,2.911,0Z" fill="#4045ab"/>
          <path id="Trazado_912782" data-name="Trazado 912782" d="M30.561,18.919H26.2a1.455,1.455,0,1,0,0,2.911h4.366a1.455,1.455,0,0,0,0-2.911Z" fill="#4045ab"/>
          <path id="Trazado_912783" data-name="Trazado 912783" d="M30.561,24.74H21.829a1.455,1.455,0,1,0,0,2.911h8.732a1.455,1.455,0,0,0,0-2.911Z" fill="#4045ab"/>
          <path id="Trazado_912784" data-name="Trazado 912784" d="M30.561,30.561H21.829a1.455,1.455,0,1,0,0,2.911h8.732a1.455,1.455,0,0,0,0-2.911Z" fill="#4045ab"/>
          <circle id="Elipse_11593" data-name="Elipse 11593" cx="1.455" cy="1.455" r="1.455" transform="translate(50.935 37.838)" fill="#4045ab"/>
          <circle id="Elipse_11594" data-name="Elipse 11594" cx="1.455" cy="1.455" r="1.455" transform="translate(58.212 37.838)" fill="#4045ab"/>
          <path id="Trazado_912785" data-name="Trazado 912785" d="M64.076,69.5l-.044.173a5.99,5.99,0,0,1-5.821,4.545,1.455,1.455,0,1,0,0,2.911,8.9,8.9,0,0,0,8.644-6.751l.044-.173a1.455,1.455,0,1,0-2.823-.7Z" fill="#4045ab"/>
        </g>
      </g>
    </g>
  </g>
</svg>
