<svg xmlns="http://www.w3.org/2000/svg" xmlns:xlink="http://www.w3.org/1999/xlink" width="97" height="97" viewBox="0 0 97 97">
  <defs>
    <clipPath id="clip-path">
      <path id="Rectángulo_403143" data-name="Rectángulo 403143" d="M0,0H97a0,0,0,0,1,0,0V97a0,0,0,0,1,0,0H48A48,48,0,0,1,0,49V0A0,0,0,0,1,0,0Z" transform="translate(1257.385 5418)" fill="#4045ab" stroke="#707070" stroke-width="1"/>
    </clipPath>
  </defs>
  <g id="Grupo_1101418" data-name="Grupo 1101418" transform="translate(-1257.385 -5418)">
    <g id="Grupo_1101417" data-name="Grupo 1101417">
      <ellipse id="Elipse_11558" data-name="Elipse 11558" cx="48.226" cy="48.226" rx="48.226" ry="48.226" transform="translate(1257.659 5418.026)" fill="#ee4f47"/>
      <g id="Enmascarar_grupo_1098741" data-name="Enmascarar grupo 1098741" clip-path="url(#clip-path)">
        <g id="ventas_1_" data-name="ventas (1)" transform="translate(1261.937 5418)">
          <path id="Trazado_912756" data-name="Trazado 912756" d="M85.767,50.675c-4.457-4.437-9.61-.284-9.61-.284V27.031a1.421,1.421,0,1,0-2.841,0V52.39s-6.775,5.341-9.687,6.646V16.976a3.549,3.549,0,0,1,3.546-3.546h2.6a3.549,3.549,0,0,1,3.546,3.546v4.238a1.421,1.421,0,1,0,2.841,0V16.976a6.394,6.394,0,0,0-6.387-6.387h-2.6a6.394,6.394,0,0,0-6.387,6.387V60.163a14.932,14.932,0,0,1-2.6.484V30.692a6.426,6.426,0,0,0-6.419-6.419H49.235a6.426,6.426,0,0,0-6.419,6.419V45.169l-2.6,1.381V41.732a5.785,5.785,0,0,0-5.778-5.779H30.624a5.785,5.785,0,0,0-5.778,5.779V54.708L20.206,57.17,7.178,60.893A8.979,8.979,0,0,0,.955,71.786l1.457,5.607a1.421,1.421,0,1,0,2.75-.716L3.7,71.071a6.1,6.1,0,0,1,4.255-7.446l11.911-3.4,8.952,23.893a6.364,6.364,0,0,1-4.231,7.847l-9,2.045a5.892,5.892,0,0,1-7.038-4.283L6.726,82.692a1.421,1.421,0,1,0-2.751.715L5.8,90.439A8.715,8.715,0,0,0,14.246,97c2.871,0,10.976-2.268,10.976-2.268a8.755,8.755,0,0,0,6.629-10.348L62.992,76.76a17.919,17.919,0,0,0,7.069-3.538L85.216,60.77a6.74,6.74,0,0,0,.551-10.094ZM49.235,27.114h2.533a3.581,3.581,0,0,1,3.577,3.577V60.718l-8.966,0c-.824-.007-.254-.551-.209-.588l2.582-2.091a13.506,13.506,0,0,0,4.676-8.065,5.634,5.634,0,0,0-7.77-6.29V30.692a3.581,3.581,0,0,1,3.577-3.577ZM27.687,41.732a2.94,2.94,0,0,1,2.937-2.937h3.813a2.941,2.941,0,0,1,2.937,2.937v6.326L27.686,53.2V41.732ZM83.413,58.575,68.257,71.027A15.044,15.044,0,0,1,62.317,74L30.946,81.681,22.509,59.166,46.6,46.379A2.792,2.792,0,0,1,50.644,49.4a10.742,10.742,0,0,1-3.68,6.424l-2.582,2.092a3.172,3.172,0,0,0,2,5.638l10.353,0h.007A17.716,17.716,0,0,0,66.98,60.32l11.57-8.136a4,4,0,0,1,5.185.478c.8.814,2.357,3.233-.322,5.913Zm0,0" fill="#4045ab"/>
          <path id="Trazado_912757" data-name="Trazado 912757" d="M23.381,85.025a5.6,5.6,0,1,0-5.6,5.6A5.6,5.6,0,0,0,23.381,85.025Zm-8.354,0a2.756,2.756,0,1,1,2.756,2.756A2.759,2.759,0,0,1,15.028,85.025Zm0,0" fill="#4045ab"/>
          <path id="Trazado_912758" data-name="Trazado 912758" d="M7.566,44.613,28.221,23.8l4.646,2.4a4.37,4.37,0,0,0,5.04-.733L49.149,14.646S48.84,20.2,53.521,20.2a4.376,4.376,0,0,0,4.371-4.372V4.371c0-.013,0-.027,0-.041A4.137,4.137,0,0,0,53.521,0H42.159a4.376,4.376,0,0,0-4.371,4.371c0,4.8,4.89,4.371,4.89,4.371L34.1,17,29.387,14.56a4.354,4.354,0,0,0-5.111.8L1.361,38.455a4.376,4.376,0,0,0,.024,6.182,4.309,4.309,0,0,0,6.181-.024ZM3.378,40.457,26.293,17.365a1.292,1.292,0,0,1,1.789-.28L33.7,19.99a1.421,1.421,0,0,0,1.638-.238L47.188,8.345A1.421,1.421,0,0,0,46.2,5.9H42.159a1.529,1.529,0,0,1,0-3.059H53.521a1.336,1.336,0,0,1,1.528,1.52c0,.013,0,.025,0,.038V15.833a1.529,1.529,0,0,1-3.059,0V11.306a1.42,1.42,0,0,0-2.406-1.023L35.936,23.421a1.529,1.529,0,0,1-1.763.257L28.6,20.8a1.422,1.422,0,0,0-1.661.261L5.549,42.611a1.466,1.466,0,0,1-2.163.008,1.532,1.532,0,0,1-.008-2.162Zm0,0" fill="#4045ab"/>
        </g>
      </g>
    </g>
  </g>
</svg>
